<svg xmlns="http://www.w3.org/2000/svg" xmlns:xlink="http://www.w3.org/1999/xlink" width="190.23" height="295.12" viewBox="0 0 190.23 295.12"><defs><linearGradient id="linear-gradient" x1="-5564.01" y1="-4644.8" x2="-5564.01" y2="-4643.4" gradientTransform="matrix(43.93, 46.54, 110.54, -104.33, 757878.11, -225438.14)" gradientUnits="userSpaceOnUse"><stop offset="0" stop-color="#69f7ae"/><stop offset="1" stop-color="#10aeaf"/></linearGradient><linearGradient id="linear-gradient-2" x1="-5543.09" y1="-4680.55" x2="-5543.09" y2="-4679.24" gradientTransform="matrix(58.8, -25.27, -32.37, -75.34, 174545.93, -492422.67)" gradientUnits="userSpaceOnUse"><stop offset="0" stop-color="#ffef4a"/><stop offset="0.86" stop-color="#f49918"/><stop offset="1" stop-color="#f38b10"/></linearGradient><linearGradient id="linear-gradient-3" x1="-5564.97" y1="-4674.51" x2="-5564.97" y2="-4673.68" gradientTransform="matrix(54.91, 32.88, 37, -61.77, 478581, -105443.32)" gradientUnits="userSpaceOnUse"><stop offset="0" stop-color="#1affcf" stop-opacity="0.74"/><stop offset="1" stop-color="#3688df"/></linearGradient><linearGradient id="linear-gradient-4" x1="-608.68" y1="-395.85" x2="-554.17" y2="-395.85" gradientTransform="matrix(0.86, 0.51, -0.51, 0.86, 419.68, 890.23)" xlink:href="#linear-gradient-3"/></defs><title>bottom-right-under</title><g id="Layer_2" data-name="Layer 2"><g id="Items"><g id="Chart"><polygon id="Path-2" points="175.26 17.82 190.23 67.49 63.69 186.91 14.97 169.09 0 119.42 126.54 0 175.26 17.82" fill="url(#linear-gradient)"/><polygon id="Path-2-2" data-name="Path-2" points="175.26 17.82 190.23 67.49 141.51 49.67 126.54 0 175.26 17.82" fill="#60f0ae"/></g><polygon points="124.05 160.09 93.01 196.84 44.99 194.06 71.53 255.83 119.55 258.61 150.59 221.86 124.05 160.09" opacity="0.9" fill="url(#linear-gradient-2)"/><polygon points="124.05 160.09 76.03 157.31 44.99 194.06 93.01 196.84 124.05 160.09" fill="#ffed49" opacity="0.9"/><g id="Chart-2" data-name="Chart"><polygon id="Path-2-Copy-3" points="131.28 240.19 147.66 265.89 130.15 295.12 99.76 292.81 83.38 267.11 100.89 237.88 131.28 240.19" fill="url(#linear-gradient-3)"/><polygon id="Path-2-Copy-4" points="131.28 240.19 147.66 265.89 117.27 263.58 100.89 237.88 131.28 240.19" fill="url(#linear-gradient-4)"/></g></g></g></svg>