<svg xmlns="http://www.w3.org/2000/svg" xmlns:xlink="http://www.w3.org/1999/xlink" width="260.15" height="247.36" viewBox="0 0 260.15 247.36"><defs><linearGradient id="linear-gradient" x1="-5635.86" y1="-3980.32" x2="-5635.86" y2="-3979.18" gradientTransform="matrix(57.88, -27.31, -99, -209.82, -67694.12, -988808.75)" gradientUnits="userSpaceOnUse"><stop offset="0" stop-color="#1affcf" stop-opacity="0.74"/><stop offset="1" stop-color="#3688df"/></linearGradient><linearGradient id="linear-gradient-2" x1="646.06" y1="919.34" x2="721.51" y2="919.34" gradientTransform="matrix(0.9, -0.43, 0.43, 0.9, -976.58, -522.6)" xlink:href="#linear-gradient"/><linearGradient id="linear-gradient-3" x1="1355.34" y1="1263.93" x2="1503.09" y2="1263.93" gradientTransform="translate(-1706.29 140.43) rotate(-42.87)" xlink:href="#linear-gradient"/><linearGradient id="linear-gradient-4" x1="1355.34" y1="1256.69" x2="1503.09" y2="1256.69" gradientTransform="translate(-1706.29 140.43) rotate(-42.87)" xlink:href="#linear-gradient"/></defs><title>top-right-under</title><g id="Layer_2" data-name="Layer 2"><g id="Items"><g id="Chart"><polygon id="Path-2" points="26.07 0 68.24 0.96 168.85 214.21 142.78 247.36 100.61 246.4 0 33.16 26.07 0" fill="url(#linear-gradient)"/><polygon id="Path-2-2" data-name="Path-2" points="26.07 0 68.24 0.96 42.17 34.12 0 33.16 26.07 0" fill="url(#linear-gradient-2)"/></g><polygon points="168.21 57.03 142 139.5 151.85 150.11 235.03 131.11 260.15 49.61 250.3 39 168.21 57.03" fill="url(#linear-gradient-3)"/><polygon points="142 139.5 167.15 58.01 250.3 39 225.18 120.5 142 139.5" fill="url(#linear-gradient-4)"/></g></g></svg>