<svg xmlns="http://www.w3.org/2000/svg" width="18.73mm" height="4.54mm" viewBox="0 0 53.08 12.87"><title>appstore</title><g id="Layer_2" data-name="Layer 2"><g id="Layer_1-2" data-name="Layer 1"><path d="M8.74,6.84a2.92,2.92,0,0,1,1.4-2.45A3.05,3.05,0,0,0,7.78,3.11c-1-.1-2,.6-2.46.6S4,3.12,3.19,3.14A3.16,3.16,0,0,0,.54,4.75c-1.14,2-.29,4.89.81,6.49.54.78,1.18,1.66,2,1.63s1.13-.53,2.12-.53,1.26.53,2.12.51,1.43-.79,2-1.58a6.58,6.58,0,0,0,.9-1.83A2.84,2.84,0,0,1,8.74,6.84Z" fill="#6b7c92"/><path d="M7.13,2.06A2.89,2.89,0,0,0,7.79,0a2.94,2.94,0,0,0-1.9,1,2.74,2.74,0,0,0-.67,2A2.42,2.42,0,0,0,7.13,2.06Z" fill="#6b7c92"/><path d="M26.7,5.89a1.7,1.7,0,0,0-1.35-.64,1.68,1.68,0,0,0-1.53.81h0l-.06-.72h-.89c0,.51,0,1,0,1.5v4.89h1V9.35a1.4,1.4,0,0,0,1.3.64,1.86,1.86,0,0,0,1.4-.59,2.58,2.58,0,0,0,.63-1.84A2.53,2.53,0,0,0,26.7,5.89Zm-.81,2.87A1.05,1.05,0,0,1,25,9.2a1,1,0,0,1-.79-.34A1.2,1.2,0,0,1,23.9,8V7.26A1.5,1.5,0,0,1,24,7a1.14,1.14,0,0,1,.4-.65,1.06,1.06,0,0,1,1.55.2,1.9,1.9,0,0,1,.3,1.1A1.94,1.94,0,0,1,25.89,8.76Z" fill="#6b7c92"/><path d="M45.1,5.92a2,2,0,0,0-1.61-.67,2.12,2.12,0,0,0-1.65.67,2.47,2.47,0,0,0-.61,1.73,2.44,2.44,0,0,0,.59,1.68,2.05,2.05,0,0,0,1.6.66,2.14,2.14,0,0,0,1.66-.69,2.49,2.49,0,0,0,.6-1.72A2.35,2.35,0,0,0,45.1,5.92Zm-.75,2.76a1,1,0,0,1-1.82,0,2,2,0,0,1-.27-1.07,2.07,2.07,0,0,1,.27-1.09A1,1,0,0,1,43.45,6a1,1,0,0,1,.91.54,2,2,0,0,1,.27,1.07A2,2,0,0,1,44.35,8.68Z" fill="#6b7c92"/><path d="M31.69,5.89a1.8,1.8,0,0,0-2.88.17h0l-.06-.72h-.89c0,.51,0,1,0,1.5v4.89h1V9.35a1.39,1.39,0,0,0,1.3.64,1.89,1.89,0,0,0,1.4-.59,2.58,2.58,0,0,0,.63-1.84A2.48,2.48,0,0,0,31.69,5.89Zm-.81,2.87a1.11,1.11,0,0,1-1.68.1A1.24,1.24,0,0,1,28.9,8V7.26a1.38,1.38,0,0,1,0-.31,1.26,1.26,0,0,1,.4-.65A1.1,1.1,0,0,1,30,6.05a1.06,1.06,0,0,1,.88.45,1.9,1.9,0,0,1,.3,1.1A1.94,1.94,0,0,1,30.88,8.76Z" fill="#6b7c92"/><path d="M20.23,3.59H19l-2,6.3H18L18.56,8h2.05l.59,1.85h1.08ZM18.74,7.26l.52-1.64c.14-.53.24-.92.3-1.19h0c.15.62.26,1,.32,1.19l.53,1.64Z" fill="#6b7c92"/><path d="M53.08,7.4A2.46,2.46,0,0,0,52.68,6a1.69,1.69,0,0,0-1.49-.73A2,2,0,0,0,49.6,6,2.64,2.64,0,0,0,49,7.68a2.29,2.29,0,0,0,.6,1.67A2.2,2.2,0,0,0,51.3,10a3.77,3.77,0,0,0,1.53-.28L52.67,9a3.24,3.24,0,0,1-1.23.22,1.53,1.53,0,0,1-1-.32,1.32,1.32,0,0,1-.44-1h3A2,2,0,0,0,53.08,7.4ZM50,7.14a1.46,1.46,0,0,1,.3-.78,1,1,0,0,1,.81-.42.87.87,0,0,1,.8.42,1.42,1.42,0,0,1,.2.78Z" fill="#6b7c92"/><path d="M37.38,9.43a2.5,2.5,0,0,1-1.72.55A3,3,0,0,1,34,9.59l.24-.84a2.83,2.83,0,0,0,1.46.39,1.41,1.41,0,0,0,.89-.25.93.93,0,0,0,0-1.34,2.44,2.44,0,0,0-.87-.48c-1.1-.42-1.65-1-1.65-1.81A1.58,1.58,0,0,1,34.72,4a2.33,2.33,0,0,1,1.55-.5,3.06,3.06,0,0,1,1.43.3l-.25.82a2.55,2.55,0,0,0-1.21-.29,1.26,1.26,0,0,0-.84.26.76.76,0,0,0-.25.58.77.77,0,0,0,.29.62,3.17,3.17,0,0,0,.91.48,3,3,0,0,1,1.2.77,1.58,1.58,0,0,1,.39,1.09A1.68,1.68,0,0,1,37.38,9.43Z" fill="#6b7c92"/><path d="M40.94,6.1H39.82V8.31c0,.56.2.84.59.84a1.87,1.87,0,0,0,.45,0l0,.76a2.15,2.15,0,0,1-.78.11,1.22,1.22,0,0,1-.94-.36,1.76,1.76,0,0,1-.34-1.23V6.1h-.66V5.34h.66V4.51l1-.3V5.34h1.12Z" fill="#6b7c92"/><path d="M48.72,6.23a1.67,1.67,0,0,0-.32,0,1,1,0,0,0-.82.4,1.5,1.5,0,0,0-.25.9V9.89h-1V6.77c0-.52,0-1,0-1.43h.88l0,.87h0a1.55,1.55,0,0,1,.51-.71,1.17,1.17,0,0,1,.73-.25l.25,0Z" fill="#6b7c92"/></g></g></svg>