<svg xmlns="http://www.w3.org/2000/svg" width="19.82mm" height="4.34mm" viewBox="0 0 56.17 12.29"><title>playstore</title><g id="Layer_2" data-name="Layer 2"><g id="Layer_1-2" data-name="Layer 1"><path d="M23.27,6.71a2.56,2.56,0,0,1-.7,1.87,2.74,2.74,0,0,1-2.06.83,2.89,2.89,0,0,1-2.92-2.93,2.89,2.89,0,0,1,2.92-2.93,3,3,0,0,1,1.15.23,2.34,2.34,0,0,1,.88.63L22,4.9a1.89,1.89,0,0,0-1.53-.66A2.15,2.15,0,0,0,19,4.86a2.17,2.17,0,0,0-.65,1.62A2.17,2.17,0,0,0,19,8.1a2.23,2.23,0,0,0,3.1,0A1.81,1.81,0,0,0,22.55,7h-2V6.28h2.72A3.28,3.28,0,0,1,23.27,6.71Z" fill="#6b7c92"/><path d="M24.12,5.9A2,2,0,0,1,27,5.9a2,2,0,0,1,.55,1.46A2,2,0,0,1,27,8.83a2,2,0,0,1-2.84,0,2.06,2.06,0,0,1-.56-1.47A2,2,0,0,1,24.12,5.9Zm.54,2.47a1.21,1.21,0,0,0,1.76,0,1.37,1.37,0,0,0,.37-1,1.36,1.36,0,0,0-.37-1,1.21,1.21,0,0,0-1.76,0,1.37,1.37,0,0,0-.38,1A1.37,1.37,0,0,0,24.66,8.37Z" fill="#6b7c92"/><path d="M28.31,5.9a2,2,0,0,1,2.84,0,2,2,0,0,1,.55,1.46,2,2,0,0,1-.55,1.47,2,2,0,0,1-2.84,0,2,2,0,0,1-.55-1.47A2,2,0,0,1,28.31,5.9Zm.54,2.47a1.21,1.21,0,0,0,1.76,0,1.37,1.37,0,0,0,.37-1,1.36,1.36,0,0,0-.37-1,1.21,1.21,0,0,0-1.76,0,1.36,1.36,0,0,0-.37,1A1.37,1.37,0,0,0,28.85,8.37Z" fill="#6b7c92"/><path d="M33.84,11.1a1.74,1.74,0,0,1-1.12-.34A2.16,2.16,0,0,1,32.1,10l.66-.27a1.09,1.09,0,0,0,.41.52,1.11,1.11,0,0,0,.67.21,1.21,1.21,0,0,0,.93-.35,1.34,1.34,0,0,0,.34-1V8.75h0a1.36,1.36,0,0,1-.53.47,1.55,1.55,0,0,1-.78.19,1.7,1.7,0,0,1-1.28-.59A2.08,2.08,0,0,1,32,7.36a2.07,2.07,0,0,1,.54-1.45,1.7,1.7,0,0,1,1.28-.59,1.55,1.55,0,0,1,.78.19,1.36,1.36,0,0,1,.53.47h0V5.44h.69V9.09a1.91,1.91,0,0,1-.57,1.5A2,2,0,0,1,33.84,11.1Zm0-2.35a1.16,1.16,0,0,0,.87-.37,1.47,1.47,0,0,0,.35-1,1.44,1.44,0,0,0-.35-1A1.16,1.16,0,0,0,33.89,6a1.13,1.13,0,0,0-.86.38,1.39,1.39,0,0,0-.36,1,1.4,1.4,0,0,0,.36,1A1.16,1.16,0,0,0,33.89,8.75Z" fill="#6b7c92"/><path d="M37.21,9.28h-.73V3.67h.73Z" fill="#6b7c92"/><path d="M39.59,9.41a1.86,1.86,0,0,1-1.42-.58,2.08,2.08,0,0,1-.54-1.47,2.1,2.1,0,0,1,.53-1.44,1.71,1.71,0,0,1,1.35-.6,1.79,1.79,0,0,1,1.37.56,2.1,2.1,0,0,1,.51,1.48V7.5h-3a1.28,1.28,0,0,0,.39.91,1.13,1.13,0,0,0,.83.34,1,1,0,0,0,1-.66l.64.27a1.66,1.66,0,0,1-.62.75A1.78,1.78,0,0,1,39.59,9.41Zm1-2.51a1,1,0,0,0-.3-.62,1.08,1.08,0,0,0-.83-.3,1,1,0,0,0-.69.25,1.24,1.24,0,0,0-.4.67Z" fill="#6b7c92"/><path d="M44.23,9.28H43.5V3.67h1.92a1.76,1.76,0,0,1,1.23.48,1.52,1.52,0,0,1,.52,1.19,1.55,1.55,0,0,1-.52,1.2A1.8,1.8,0,0,1,45.42,7H44.23Zm0-3h1.2a.94.94,0,0,0,.73-.3,1,1,0,0,0,.28-.68,1,1,0,0,0-.28-.67,1,1,0,0,0-.73-.31h-1.2Z" fill="#6b7c92"/><path d="M48.36,9.28h-.72V3.67h.72Z" fill="#6b7c92"/><path d="M50.22,9.41a1.52,1.52,0,0,1-1-.35,1.17,1.17,0,0,1-.41-.94,1.16,1.16,0,0,1,.48-1,2,2,0,0,1,1.2-.35,2,2,0,0,1,1,.23V6.91a.84.84,0,0,0-.29-.68A1,1,0,0,0,50.51,6a1.1,1.1,0,0,0-.57.15.8.8,0,0,0-.35.4l-.66-.28a1.55,1.55,0,0,1,.53-.64,1.72,1.72,0,0,1,1-.29,1.79,1.79,0,0,1,1.23.43A1.55,1.55,0,0,1,52.2,7V9.28h-.69V8.75h0A1.42,1.42,0,0,1,50.22,9.41Zm.12-.66a1.2,1.2,0,0,0,.81-.33,1,1,0,0,0,.36-.79,1.39,1.39,0,0,0-.91-.25,1.23,1.23,0,0,0-.8.23.7.7,0,0,0-.26.53.52.52,0,0,0,.24.45A1,1,0,0,0,50.34,8.75Z" fill="#6b7c92"/><path d="M53.77,11H53L53.92,9l-1.58-3.6h.78L54.26,8.2h0l1.11-2.76h.78Z" fill="#6b7c92"/><path d="M0,6.17V.79A.8.8,0,0,1,.2.2C.26.14.3.12.38.2Q2.18,2,4,3.88L6.35,6.27c.08.07.08.11,0,.19L.6,12.2c-.12.12-.2.11-.31,0A.72.72,0,0,1,0,11.6V6.17Z" fill="#6b7c92"/><path d="M.69,0A.63.63,0,0,1,1,.1L8.41,4.22c.11.06.11.1,0,.18L6.79,6c-.06.06-.09.1-.17,0-1.95-2-3.91-4-5.86-6Z" fill="#6b7c92"/><path d="M1.24,12.16C3,10.36,4.81,8.56,6.58,6.75c.11-.11.16-.09.26,0,.45.47.91.93,1.37,1.4.08.08.09.11,0,.17L1.33,12.09Z" fill="#6b7c92"/><path d="M11.42,6.22a.59.59,0,0,1-.25.45,2.33,2.33,0,0,1-.34.2L8.75,8a.15.15,0,0,1-.22,0C8,7.48,7.54,7,7,6.48,7,6.41,7,6.37,7,6.29L8.78,4.57a.13.13,0,0,1,.2,0l2,1.15A.65.65,0,0,1,11.42,6.22Z" fill="#6b7c92"/></g></g></svg>