<?xml version="1.0" encoding="UTF-8"?>
<svg width="2560px" height="1900px" viewBox="0 0 2560 1900" version="1.1" xmlns="http://www.w3.org/2000/svg" xmlns:xlink="http://www.w3.org/1999/xlink">
    <!-- Generator: Sketch 64 (93537) - https://sketch.com -->
    <title>cakehr_bg_2560x1900</title>
    <desc>Created with Sketch.</desc>
    <defs>
        <linearGradient x1="100%" y1="22.4578857%" x2="17.802544%" y2="65.9169561%" id="linearGradient-1">
            <stop stop-color="#009900" offset="0%"></stop>
            <stop stop-color="#4281A5" offset="35.0269215%"></stop>
            <stop stop-color="#393A58" offset="100%"></stop>
        </linearGradient>
        <rect id="path-2" x="0" y="0" width="2560" height="1900"></rect>
    </defs>
    <g id="cakehr_bg_2560x1900" stroke="none" stroke-width="1" fill="none" fill-rule="evenodd">
        <mask id="mask-3" fill="white">
            <use xlink:href="#path-2"></use>
        </mask>
        <use id="Rectangle" fill="url(#linearGradient-1)" xlink:href="#path-2"></use>
        <g id="Group-14-Copy" opacity="0.200000003" style="mix-blend-mode: overlay;" mask="url(#mask-3)" fill="#FFFFFF">
            <g transform="translate(-800.000000, -281.000000)" opacity="0.5">
                <path d="M1348.50347,2181 L2688.2675,2181 C2845.56789,2169.46845 3051.51232,2115.71644 3218.89427,1922.86345 C3483.45346,1618.04346 3404.31895,1203.96005 3384.41123,1099.79426 C3267.23952,486.671583 2620.32777,-64.0568704 1943.11348,6.04053227 C1874.64365,13.1297293 1152.64542,43.0911321 908.846932,790.170738 C747.122608,1285.73863 926.83183,1794.28275 1348.50347,2181" id="Fill-1-Copy-7"></path>
                <path d="M211.139447,2024.43098 C235.006844,2048.18396 291.063759,2103.04388 373.190843,2140.15501 C425.302134,2163.70113 470.524316,2172.24455 480.511829,2174.04942 C508.455565,2179.10721 532.627961,2180.68453 551.029579,2181 L2691.39772,2181 C2734.12666,2177.22476 2786.06366,2167.80218 2842.47399,2146.59877 C2895.85369,2126.53311 2970.91738,2099.26347 3030.84246,2030.20244 C3084.21248,1974.00825 3101.73299,1922.62362 3106.99543,1883.8369 C3131.03227,1706.68507 2936.68001,1520.53988 2643.36761,1355.64981 C2104.92301,1052.94798 1235.24443,813.215071 786.847209,771.123732 C647.903132,758.075883 518.370459,755.267725 334.543088,875.196236 C151.364446,994.700679 74.8290137,1174.46933 56.9454103,1219.374 C54.152005,1226.38663 50.3128881,1236.1764 45.9315505,1248.44852 C27.5396151,1299.9521 -40.552665,1501.72057 34.4674539,1736.26123 C42.3829091,1761.00198 89.6723078,1903.56641 211.139447,2024.43098" id="Fill-11-Copy-6"></path>
                <path d="M3727.18578,2181 C3766.87459,2180.63044 3880.86696,2173.91589 3987.3159,2085.59093 C4089.66693,2000.66488 4124.35417,1890.65036 4137.68686,1846.37597 C4164.27977,1758.0458 4161.70891,1685.13828 4160.04655,1647.19847 C4160.03689,1647.0267 4160.02722,1646.77165 4160.01272,1646.46975 C4152.09236,1464.80213 4072.00437,1332.45783 4059.07277,1311.64272 C3969.10244,1166.83746 3849.92486,1104.76171 3827.2269,1093.34177 C3752.18398,1055.57372 3664.92948,1035.09174 3553.99605,1038.33451 C3112.64951,1051.2483 2739.56599,1296.98002 2635.81839,1350.26961 C2064.95769,1643.49766 1533.54419,2052.82496 1370,2181 L3727.18578,2181 Z" id="Fill-6-Copy-6"></path>
            </g>
        </g>
    </g>
</svg>