<svg xmlns="http://www.w3.org/2000/svg" xmlns:xlink="http://www.w3.org/1999/xlink" viewBox="0 0 249.3 273.92"><defs><style>.cls-1{fill:url(#linear-gradient);}.cls-2{fill:url(#linear-gradient-2);}.cls-3{fill:url(#linear-gradient-4);}.cls-4{fill:#e6e6e6;}.cls-5{fill:url(#linear-gradient-5);}.cls-6{fill:url(#linear-gradient-6);}.cls-7{fill:url(#linear-gradient-7);}.cls-8{fill:url(#linear-gradient-8);}.cls-9{fill:url(#linear-gradient-9);}.cls-10{fill:url(#linear-gradient-10);}.cls-11{fill:url(#linear-gradient-12);}.cls-12{fill:none;stroke:#6b7c92;stroke-miterlimit:10;stroke-dasharray:6;}.cls-13{fill:url(#linear-gradient-13);}.cls-14{fill:url(#linear-gradient-14);}.cls-15{fill:url(#linear-gradient-15);}.cls-16{fill:url(#linear-gradient-16);}.cls-17{fill:url(#linear-gradient-17);}.cls-18{fill:url(#linear-gradient-18);}.cls-19{fill:url(#linear-gradient-19);}.cls-20{fill:url(#linear-gradient-20);}.cls-21{fill:url(#linear-gradient-21);}.cls-22{fill:url(#linear-gradient-22);}.cls-23{fill:url(#linear-gradient-23);}.cls-24,.cls-25{opacity:0.75;isolation:isolate;}.cls-24{fill:url(#linear-gradient-24);}.cls-25{fill:url(#linear-gradient-25);}.cls-26{fill:url(#linear-gradient-26);}.cls-27{fill:url(#linear-gradient-27);}.cls-28{fill:url(#linear-gradient-28);}.cls-29{fill:url(#linear-gradient-29);}.cls-30{fill:url(#linear-gradient-30);}.cls-31{fill:url(#linear-gradient-31);}.cls-32{fill:url(#linear-gradient-32);}.cls-33{fill:#a7d8e6;}.cls-34{fill:url(#linear-gradient-33);}.cls-35{fill:#50667e;}.cls-36{fill:#20364d;}.cls-37{fill:#fff;}.cls-38{fill:#d1ecfb;}.cls-39{fill:url(#linear-gradient-34);}.cls-40{fill:url(#linear-gradient-35);}.cls-41{fill:#6b7c92;}</style><linearGradient id="linear-gradient" x1="71.4" y1="71" x2="55.67" y2="75.91" gradientTransform="matrix(1, 0, 0, -1, 0, 276)" gradientUnits="userSpaceOnUse"><stop offset="0" stop-color="#dbf9ea"/><stop offset="1" stop-color="#c0dde2"/></linearGradient><linearGradient id="linear-gradient-2" x1="39.99" y1="64.64" x2="39.94" y2="64.65" xlink:href="#linear-gradient"/><linearGradient id="linear-gradient-4" x1="37.77" y1="78.37" x2="80.82" y2="78.37" xlink:href="#linear-gradient"/><linearGradient id="linear-gradient-5" x1="28.09" y1="35.44" x2="108.4" y2="35.44" xlink:href="#linear-gradient"/><linearGradient id="linear-gradient-6" x1="109.6" y1="33.74" x2="66.93" y2="47.08" xlink:href="#linear-gradient"/><linearGradient id="linear-gradient-7" x1="1916.04" y1="-78.78" x2="2086.38" y2="89.89" gradientTransform="translate(2162.87 276) rotate(180)" xlink:href="#linear-gradient"/><linearGradient id="linear-gradient-8" x1="3.4" y1="52.53" x2="137.6" y2="52.53" xlink:href="#linear-gradient"/><linearGradient id="linear-gradient-9" x1="17.95" y1="135.93" x2="122.57" y2="75.52" gradientTransform="matrix(1, 0, 0, -1, 0, 276)" gradientUnits="userSpaceOnUse"><stop offset="0" stop-color="#fff"/><stop offset="1" stop-color="#dbf9ea"/></linearGradient><linearGradient id="linear-gradient-10" x1="-18.33" y1="19.37" x2="146.76" y2="184.46" gradientTransform="matrix(1, 0, 0, -1, 0, 276)" gradientUnits="userSpaceOnUse"><stop offset="0" stop-color="#25e581"/><stop offset="1" stop-color="#c4e138"/></linearGradient><linearGradient id="linear-gradient-12" x1="17.2" y1="134.63" x2="78.63" y2="99.16" gradientTransform="matrix(1, 0, 0, -1, 0, 276)" gradientUnits="userSpaceOnUse"><stop offset="0" stop-color="#fff" stop-opacity="0.25"/><stop offset="1" stop-color="#dbf9ea" stop-opacity="0"/></linearGradient><linearGradient id="linear-gradient-13" x1="129.89" y1="35.1" x2="171.37" y2="35.1" gradientTransform="matrix(1, 0, 0, -1, 0, 276)" gradientUnits="userSpaceOnUse"><stop offset="0" stop-color="#6b7c92" stop-opacity="0.25"/><stop offset="1" stop-color="#6b7c92" stop-opacity="0"/></linearGradient><linearGradient id="linear-gradient-14" x1="158.7" y1="17.11" x2="206.62" y2="17.11" xlink:href="#linear-gradient-13"/><linearGradient id="linear-gradient-15" x1="125.1" y1="45.59" x2="166.21" y2="45.59" gradientTransform="matrix(1, 0, 0, -1, 0, 276)" gradientUnits="userSpaceOnUse"><stop offset="0" stop-color="#292376"/><stop offset="1" stop-color="#5d278f"/></linearGradient><linearGradient id="linear-gradient-16" x1="123.45" y1="46.11" x2="165.9" y2="46.11" gradientTransform="matrix(1, 0, 0, -1, 0, 276)" gradientUnits="userSpaceOnUse"><stop offset="0" stop-color="#5d278f"/><stop offset="1" stop-color="#292376"/></linearGradient><linearGradient id="linear-gradient-17" x1="164" y1="22.99" x2="205.11" y2="22.99" xlink:href="#linear-gradient-15"/><linearGradient id="linear-gradient-18" x1="162.34" y1="23.51" x2="204.79" y2="23.51" xlink:href="#linear-gradient-16"/><linearGradient id="linear-gradient-19" x1="124.07" y1="26.9" x2="135.7" y2="26.9" gradientTransform="matrix(1, 0, 0, -1, 0, 276)" gradientUnits="userSpaceOnUse"><stop offset="0" stop-color="#e76c6b"/><stop offset="1" stop-color="#fbb78e"/></linearGradient><linearGradient id="linear-gradient-20" x1="136.22" y1="20.37" x2="141.54" y2="20.37" xlink:href="#linear-gradient-19"/><linearGradient id="linear-gradient-21" x1="145.52" y1="13.87" x2="158.01" y2="13.87" xlink:href="#linear-gradient-19"/><linearGradient id="linear-gradient-22" x1="121.31" y1="21.59" x2="164.08" y2="21.59" xlink:href="#linear-gradient-19"/><linearGradient id="linear-gradient-23" x1="120.97" y1="20.91" x2="161.87" y2="20.91" gradientTransform="matrix(1, 0, 0, -1, 0, 276)" gradientUnits="userSpaceOnUse"><stop offset="0" stop-color="#fbb78e"/><stop offset="1" stop-color="#e76c6b"/></linearGradient><linearGradient id="linear-gradient-24" x1="125.02" y1="27.14" x2="137.28" y2="27.14" xlink:href="#linear-gradient-16"/><linearGradient id="linear-gradient-25" x1="146.49" y1="14.2" x2="158.75" y2="14.2" xlink:href="#linear-gradient-16"/><linearGradient id="linear-gradient-26" x1="146.5" y1="17.7" x2="157.47" y2="17.7" xlink:href="#linear-gradient-12"/><linearGradient id="linear-gradient-27" x1="125.02" y1="30.02" x2="136" y2="30.02" xlink:href="#linear-gradient-12"/><linearGradient id="linear-gradient-28" x1="251.62" y1="264.99" x2="122.24" y2="152.24" xlink:href="#linear-gradient-13"/><linearGradient id="linear-gradient-29" x1="118.2" y1="166.15" x2="157.68" y2="166.15" xlink:href="#linear-gradient-16"/><linearGradient id="linear-gradient-30" x1="152.95" y1="134.45" x2="186.25" y2="134.45" xlink:href="#linear-gradient-16"/><linearGradient id="linear-gradient-31" x1="142.67" y1="165.38" x2="194.97" y2="165.38" gradientTransform="matrix(1, 0, 0, -1, 0, 276)" gradientUnits="userSpaceOnUse"><stop offset="0" stop-color="#341f66"/><stop offset="1" stop-color="#4bbdc4"/></linearGradient><linearGradient id="linear-gradient-32" x1="141.89" y1="177.7" x2="220.48" y2="177.7" xlink:href="#linear-gradient"/><linearGradient id="linear-gradient-33" x1="192.39" y1="203" x2="220.53" y2="203" xlink:href="#linear-gradient-16"/><linearGradient id="linear-gradient-34" x1="21.74" y1="196.55" x2="28.78" y2="196.55" gradientTransform="matrix(1, 0, 0, -1, 0, 276)" gradientUnits="userSpaceOnUse"><stop offset="0" stop-color="#ccc" stop-opacity="0.25"/><stop offset="1" stop-color="#999" stop-opacity="0"/></linearGradient><linearGradient id="linear-gradient-35" x1="6.66" y1="235.9" x2="37.45" y2="235.9" xlink:href="#linear-gradient-34"/></defs><title>Asset 1</title><g id="Layer_2" data-name="Layer 2"><g id="Items"><path class="cls-1" d="M76.1,190.3a1.55,1.55,0,0,0-.8,1.1c0,.1-.1.2-.1.3l-1.1,4L44.6,212.8l-2.1-1.2a2.79,2.79,0,0,0-2.6-.3l4.1-2.4Z"/><path class="cls-2" d="M40,211.3h0a.1.1,0,0,0-.1.1Z"/><path class="cls-1" d="M76.1,190.3a1.55,1.55,0,0,0-.8,1.1c0,.1-.1.2-.1.3l-1.1,4L44.6,212.8l-2.1-1.2a2.79,2.79,0,0,0-2.6-.3l4.1-2.4Z"/><path class="cls-3" d="M73.9,186.5c1.2-.7,3-.6,4.8.5l2.1,1.2-36.2,21L42.5,208c-1.9-1.1-3.6-1.2-4.8-.5Z"/><polygon class="cls-4" points="80.8 188.2 80.8 191.8 74.1 195.7 44.6 212.8 44.6 209.2 75.3 191.4 80.8 188.2"/><path class="cls-5" d="M108.4,247v3.6a3,3,0,0,1-1.5,2.6L74.3,272.3a11.67,11.67,0,0,1-12.9-.7L34.8,252a13.9,13.9,0,0,1-5.3-6.1,11.46,11.46,0,0,1-1.2-7.4L36,210a4,4,0,0,1,1.8-2.5c.1,0,.2-.1.3-.1s.2-.1.3-.1.3-.1.5-.1h.7a6.07,6.07,0,0,1,3,.9l1.6.9.5.3v3.6l-2.1-1.2a2.79,2.79,0,0,0-2.6-.3l-.1.1a.35.35,0,0,1-.2.1l-.1.1a.35.35,0,0,0-.1.2l-.1.1c-.1.1-.1.2-.2.3v.1a.76.76,0,0,1-.2.4l-7.7,28.5a5.91,5.91,0,0,0,.6,4,8.56,8.56,0,0,0,2.9,3.3l2.7,2,24,17.4a11.85,11.85,0,0,0,12.9.7L107,249.6A3.14,3.14,0,0,0,108.4,247Z"/><path class="cls-6" d="M31.3,241.1,39,212.6a2.18,2.18,0,0,1,.9-1.3l36.2-21a2.07,2.07,0,0,0-.9,1.3l-7.7,28.5a5.91,5.91,0,0,0,.6,4,8.17,8.17,0,0,0,2.7,3.3l35.9,17a2.94,2.94,0,0,1,.2,5.2L74.3,268.7a11.67,11.67,0,0,1-12.9-.7L34.8,248.5a8.56,8.56,0,0,1-2.9-3.3A6.26,6.26,0,0,1,31.3,241.1Z"/><path class="cls-7" d="M7.1,155.1,127,85.8c2-1.1,3.8-1.2,5-.5l3.2,1.8c-1.3-.7-3.1-.6-5,.5l-120,69.3c-3.9,2.3-7.1,7.7-7.1,12.2L3.5,267c0,2.2.8,3.8,2.1,4.5l-3.2-1.8c-1.3-.7-2.1-2.3-2.1-4.5L0,167.3A15.52,15.52,0,0,1,7.1,155.1Z"/><path class="cls-8" d="M3.4,252.3,3.5,267c0,4.5,3.2,6.3,7.1,4.1l119.9-69.2c3.9-2.3,7.1-7.7,7.1-12.2l-.1-14.8L3.4,252.3"/><path class="cls-9" d="M10.2,156.9c-3.9,2.3-7.1,7.7-7.1,12.2l.2,83.1,134.1-77.4-.2-83.1c0-4.5-3.2-6.3-7.1-4.1L10.2,156.9"/><polyline class="cls-10" points="130.9 170.1 130.7 96 9.8 165.8 10 239.9 130.9 170.1"/><path class="cls-2" d="M40,211.3h0a.1.1,0,0,0-.1.1Z"/><path class="cls-11" d="M130.1,87.7,10.2,156.9c-3.9,2.3-7.1,7.7-7.1,12.2l.2,83.1Z"/><path class="cls-12" d="M72.8,200.5c0-52.7,40.4-70.3,80.9-70.3"/><g id="Glasses"><path class="cls-13" d="M136.6,258.5a1.27,1.27,0,0,1-.6-.1c-1.5-.8-6.2-3.6-6.2-6.4a2.9,2.9,0,0,1,1.9-2.6l32.1-18.6c5.2-3,5.2-4.2,5.2-4.2-.2-.4-2.1-.9-4-.9a1.2,1.2,0,0,1,0-2.4c1.3,0,5.6.2,6.3,2.6.5,1.9-1.4,4.1-6.3,6.9l-32.1,18.7c-.3.2-.6.4-.6.5,0,.9,2.6,3,5,4.3a1.17,1.17,0,0,1,.5,1.6A1.74,1.74,0,0,1,136.6,258.5Z"/><path class="cls-14" d="M160.1,272.2h-.2a1.16,1.16,0,0,1-1.2-1.2,1.22,1.22,0,0,1,1.2-1.2c.1,0,5.8.1,9.6-2.2l29-16.9a40.05,40.05,0,0,0,4.2-2.7l-1.1.3a1.14,1.14,0,1,1-.6-2.2c4.7-1.2,5.2,0,5.4.5.5,1.3-.3,2.5-6.7,6.3l-29,16.9C166.7,272.1,161.1,272.2,160.1,272.2Z"/><path class="cls-15" d="M125.7,237.1l26-13.2.6-.3,4.4-1.9a8.27,8.27,0,0,1,3.9-.8l5.1.3c.7,0,.8,1,.2,1.9l-.3.5a4.67,4.67,0,0,1-1.5,1.6,1.63,1.63,0,0,1-1.5.2l-4.1-1.7a1.17,1.17,0,0,0-1.1.2c-.1.1-.3.2-.4.3l-3.8,3.2a8.85,8.85,0,0,1-1.7,1.2,3.55,3.55,0,0,1-.9.4l-25,10.9c-.3.1-.5,0-.5-.4l.1-1.5A1.19,1.19,0,0,1,125.7,237.1Z"/><path class="cls-16" d="M164.2,220.3c-.1,0-.2-.1-.3-.1l-5.1-.3a8,8,0,0,0-3.9.8l-4.4,1.9-.6.3-26,13.2a1.19,1.19,0,0,0-.5.9l-.1,1.5a.52.52,0,0,0,.2.4l1.7,1a.52.52,0,0,1-.2-.4l.1-1.5a1.35,1.35,0,0,1,.5-.9l26-13.2.6-.3,4.4-1.9a8.27,8.27,0,0,1,3.9-.8l5.1.3a.37.37,0,0,1,.3.1Z"/><path class="cls-17" d="M164.6,259.7l26-13.2.6-.3,4.4-1.9a8.27,8.27,0,0,1,3.9-.8l5.1.3c.7,0,.8,1,.2,1.9l-.3.5a4.67,4.67,0,0,1-1.5,1.6,1.63,1.63,0,0,1-1.5.2l-4.1-1.7a1.17,1.17,0,0,0-1.1.2c-.1.1-.3.2-.4.3L192,250a8.85,8.85,0,0,1-1.7,1.2,3.55,3.55,0,0,1-.9.4l-25,10.9c-.3.1-.5,0-.5-.4l.1-1.5A1.8,1.8,0,0,1,164.6,259.7Z"/><path class="cls-18" d="M203.1,242.9c-.1,0-.2-.1-.3-.1l-5.1-.3a8,8,0,0,0-3.9.8l-4.4,1.9-.6.3-26,13.2a1.19,1.19,0,0,0-.5.9l-.1,1.5a.52.52,0,0,0,.2.4l1.7,1a.52.52,0,0,1-.2-.4l.1-1.5a1.35,1.35,0,0,1,.5-.9l26-13.2.6-.3,4.4-1.9a8.27,8.27,0,0,1,3.9-.8l5.1.3a.37.37,0,0,1,.3.1Z"/><path class="cls-19" d="M135.7,255.1l-.2.2a2.18,2.18,0,0,1-.5.4,3.57,3.57,0,0,1-1.9.6,5.56,5.56,0,0,1-2.6-.8,15.8,15.8,0,0,1-4.4-3.3,7.24,7.24,0,0,1-1.2-2.3,30.78,30.78,0,0,1-.9-6.3V243a1.34,1.34,0,0,1,1.4-1.1,2.49,2.49,0,0,1,.8.1v.3a32.66,32.66,0,0,0,.9,6.4,6.32,6.32,0,0,0,1.2,2.3c.8,1,1.8,1.8,4.4,3.3A5.22,5.22,0,0,0,135.7,255.1Z"/><path class="cls-20" d="M141.4,252.6a.1.1,0,0,1,.1.1c-.6,2-1.5,3.9-3.1,4.8l-2.2,1.3c1.6-1,2.6-3,3.2-5.1a4.88,4.88,0,0,1,.3-.7l.1-.1.1-.1h.1a.1.1,0,0,0,.1-.1h.1a1,1,0,0,1,1.2-.1Z"/><path class="cls-21" d="M158,268.5a.76.76,0,0,1-.2.4,1.41,1.41,0,0,1-.6.7,1.42,1.42,0,0,1-.6.2c-.8.1-1.8-.2-4.4-1.7s-4.7-4.4-6-8.6a7.68,7.68,0,0,1-.7-2.8,2,2,0,0,1,.6-2.1,1.33,1.33,0,0,1,1.1-.1c.2,0,.3.1.5.2a1.7,1.7,0,0,0,.1.7c.2.8.4,1.8.7,2.7,1.3,4.2,3.3,7.1,5.9,8.7A16.25,16.25,0,0,0,158,268.5Z"/><path class="cls-22" d="M163.2,258.9a65,65,0,0,0-6.9-5.1c-6.3-3.6-10.2-4.3-12.7-5.7s-6.4-5.3-12.7-8.9a38,38,0,0,0-6.9-2.9.64.64,0,0,0-.6,0l-2.2,1.3a.63.63,0,0,1,.6,0,41.21,41.21,0,0,1,6.9,2.9c6.3,3.6,10.2,7.5,12.7,8.9s6.4,2.1,12.7,5.7a77.15,77.15,0,0,1,6.9,5.1,2.62,2.62,0,0,1,.9,1.8v.9a.9.9,0,0,1-.1.5l-.6.4c-.1,0-.1.1-.1.3a8.08,8.08,0,0,1-.1,1.5,21.28,21.28,0,0,1-1,5.7,2.42,2.42,0,0,1-1.1,1.3l2.2-1.3a2.37,2.37,0,0,0,1.1-1.3,18,18,0,0,0,1-5.7,7.08,7.08,0,0,0,.1-1.5v-.1l.5-.3a.78.78,0,0,0,.3-.7v-.9A2.48,2.48,0,0,0,163.2,258.9Z"/><path class="cls-23" d="M161.9,261.9a2.83,2.83,0,0,0-.9-1.8,65,65,0,0,0-6.9-5.1c-6.3-3.6-10.2-4.3-12.7-5.7s-6.4-5.3-12.6-8.9c-.7-.4-6.7-3.3-7.4-2.9h0a.78.78,0,0,0-.3.7,3.22,3.22,0,0,0,.6,2.4,1.42,1.42,0,0,1,.2.6,34.6,34.6,0,0,0,1.1,8.4,11.3,11.3,0,0,0,2.2,4.2,17.48,17.48,0,0,0,5.5,4.3c1.8,1.1,3.9,1.6,5.7.6a.35.35,0,0,0,.2-.1l.1-.1a.1.1,0,0,0,.1-.1c1.4-1,2.2-2.9,2.7-4.8a4.88,4.88,0,0,1,.3-.7.1.1,0,0,1,.1-.1h0c0-.1.1-.1.2-.1l.1-.1h0a1.26,1.26,0,0,1,1.2,0h.1a5.8,5.8,0,0,1,2,3.4c1,5.1,3.6,11.7,8.8,14.7,2.8,1.6,4.1,2.1,5.5,2a3.69,3.69,0,0,0,1.5-.6,2.58,2.58,0,0,0,.7-1.1c1.1-2.5,1.1-7.3,1.1-7.3h0l.1-.1s.3,0,.4-.1h.1c.1-.1.1,0,.1-.2h0A6.6,6.6,0,0,0,161.9,261.9ZM135,255.8c-2.7,2-7.5-1.8-8.9-3.5a5.67,5.67,0,0,1-1.2-2.3,25.5,25.5,0,0,1-.8-7c.3-1.4,1.6-1.3,2.9-.8,2.9,1.1,7.3,4.5,8.5,5.6a5.09,5.09,0,0,1,1.7,3.5A7,7,0,0,1,135,255.8Zm22.8,13.1a1.26,1.26,0,0,1-1.2.9h-.2c-.8,0-1.8-.3-4.2-1.7-4.9-2.8-6.7-10.5-6.7-12.1,0-1.2.7-1.8,1.7-1.5a32.84,32.84,0,0,1,6.8,3.1c1.8,1,4.7,3.3,4.7,5.8A15.25,15.25,0,0,1,157.8,268.9Z"/><path class="cls-24" d="M135.6,247.8c-1.3-1.1-5.6-4.4-8.5-5.6a2.7,2.7,0,0,0-1.7-.3,1.07,1.07,0,0,0-.2.6,25.87,25.87,0,0,0,.8,7,6.32,6.32,0,0,0,1.2,2.3c1.2,1.5,5.4,4.8,8.1,3.9a7.47,7.47,0,0,0,2-4.3A5.12,5.12,0,0,0,135.6,247.8Z"/><path class="cls-25" d="M154.1,257.6a32.84,32.84,0,0,0-6.8-3.1,1.09,1.09,0,0,0-.5-.1,1.64,1.64,0,0,0-.2,1c0,1.5,1.8,9.3,6.7,12.1,2.4,1.4,3.4,1.7,4.2,1.7h.3c.1-.1.1-.2.2-.4a18.74,18.74,0,0,0,.9-5.5C158.8,260.9,155.9,258.7,154.1,257.6Z"/><path class="cls-26" d="M148.5,262.2s2.6-1.7,8.9-1.8a12.34,12.34,0,0,0-3.4-2.8,32.84,32.84,0,0,0-6.8-3.1,1.09,1.09,0,0,0-.5-.1,1.64,1.64,0,0,0-.2,1A19.78,19.78,0,0,0,148.5,262.2Z"/><path class="cls-27" d="M136,248.2c-.1-.2-.3-.3-.4-.4-1.3-1.1-5.6-4.4-8.5-5.6a2.7,2.7,0,0,0-1.7-.3,1.07,1.07,0,0,0-.2.6,25.87,25.87,0,0,0,.8,7c.1.2.1.4.2.6C126.1,250,128.9,248.1,136,248.2Z"/></g><path class="cls-28" d="M148.1,0A101.3,101.3,0,1,0,249.3,101.3,101.38,101.38,0,0,0,148.1,0ZM124.3,51.8A16.7,16.7,0,1,1,141,35.1,16.73,16.73,0,0,1,124.3,51.8ZM225.7,83.1a7.7,7.7,0,1,1-7.7,7.7A7.64,7.64,0,0,1,225.7,83.1ZM218,135.6a15.7,15.7,0,1,1,15.7-15.7A15.66,15.66,0,0,1,218,135.6Z"/><polygon class="cls-29" points="157.6 93.2 140.3 96.4 118.2 126.5 143.2 117.3 157.6 93.2"/><polygon class="cls-30" points="186.2 121.8 183.1 139.2 153 161.3 162.2 136.3 186.2 121.8"/><path class="cls-31" d="M149.1,130.4a26.39,26.39,0,0,1,4.7,6.4,62.57,62.57,0,0,0,23.7-15.4c11.8-11.8,18.1-26,17.3-36.9-10.8-.8-25,5.5-36.9,17.3-7.4,7.4-12.7,15.8-15.4,23.7A24.66,24.66,0,0,1,149.1,130.4Z"/><path class="cls-32" d="M151.6,127.9a39,39,0,0,1,7.1,9.7c11.9-4,24.5-11.9,35.7-23.1,17.8-17.8,27.2-39.2,26.1-55.4-16.3-1.2-37.6,8.3-55.4,26.1C153.9,96.4,146,109,142,120.9A37.44,37.44,0,0,1,151.6,127.9Z"/><path class="cls-33" d="M220.4,59h-.2l-68.8,68.8.1.1a39,39,0,0,1,7.1,9.7c11.9-4,24.5-11.9,35.7-23.1C212.2,96.7,221.6,75.3,220.4,59Z"/><path class="cls-34" d="M220.4,59h-.2c-8.4-.6-18,1.7-27.9,6.4,3.7,3.3,7.5,6.7,11.1,10.4h0l.1.1c3.7,3.7,7.2,7.4,10.5,11.2C218.8,77.2,221,67.4,220.4,59Z"/><path class="cls-35" d="M173.4,106.1c-5,1.3-12.7,6.4-20.1,13.8S140.8,135,139.5,140c5-1.3,12.7-6.4,20.1-13.8S172.1,111.1,173.4,106.1Z"/><path class="cls-36" d="M173.1,106.1l-33.6,33.6c0,.1,0,.2-.1.2,5-1.3,12.7-6.4,20.1-13.8S172,111,173.3,106C173.3,106.1,173.2,106.1,173.1,106.1Z"/><path class="cls-35" d="M185.9,93.5a9.26,9.26,0,1,1,13.1,0,9.12,9.12,0,0,1-13.1,0Z"/><path class="cls-37" d="M197.1,82.4a6.43,6.43,0,1,0,0,9.1,6.46,6.46,0,0,0,0-9.1Z"/><path class="cls-36" d="M199.1,80.4h0L197,82.3l.1.1a6.43,6.43,0,1,1-9.1,9.1l-.1-.1-2,2a.1.1,0,0,0,.1.1,9.26,9.26,0,1,0,13.1-13.1Z"/><path class="cls-38" d="M197.1,91.5a6.46,6.46,0,0,0,0-9.1l-.1-.1-9.1,9.1.1.1A6.28,6.28,0,0,0,197.1,91.5Z"/><polygon class="cls-39" points="21.7 113.2 28.6 117 28.8 45.7 21.9 41.9 21.7 113.2"/><polygon class="cls-40" points="30.5 32.4 11.7 35 6.7 44.1 13.6 47.8 18.6 38.8 37.4 36.1 30.5 32.4"/><polygon class="cls-39" points="21.7 113.2 28.6 117 28.8 45.7 21.9 41.9 21.7 113.2"/><polygon class="cls-40" points="30.5 32.4 11.7 35 6.7 44.1 13.6 47.8 18.6 38.8 37.4 36.1 30.5 32.4"/><polygon class="cls-41" points="37.4 36.1 37.3 115.8 28.6 117 28.8 45.7 13.6 47.8 18.6 38.8 37.4 36.1"/></g></g></svg>