<svg xmlns="http://www.w3.org/2000/svg" xmlns:xlink="http://www.w3.org/1999/xlink" viewBox="0 0 304.6 269.7"><defs><style>.cls-1{fill:#6b7c92;}.cls-2{fill:url(#linear-gradient);}.cls-3{fill:url(#linear-gradient-2);}.cls-4{fill:url(#linear-gradient-3);}.cls-5{fill:url(#linear-gradient-4);}.cls-6{fill:url(#linear-gradient-9);}.cls-7{fill:#ff9ed6;}.cls-8{fill:url(#linear-gradient-10);}.cls-9{fill:#95adff;}.cls-10{fill:url(#linear-gradient-11);}.cls-11{fill:#97f467;}.cls-12{fill:url(#linear-gradient-12);}.cls-13{fill:#ffed49;}.cls-14{fill:url(#linear-gradient-13);}.cls-15{fill:#e984ff;}.cls-16{fill:url(#linear-gradient-14);}.cls-17{fill:#60f0ae;}.cls-18{fill:url(#linear-gradient-15);}.cls-19{fill:#f551bb;}.cls-20{fill:url(#linear-gradient-16);}.cls-21{fill:#a9f164;}.cls-22{fill:url(#linear-gradient-17);}.cls-23{fill:#60d9f7;}.cls-24{fill:url(#linear-gradient-18);}.cls-25{fill:#ff79c2;}.cls-26{fill:url(#linear-gradient-19);}.cls-27{fill:url(#linear-gradient-20);}.cls-28{fill:url(#linear-gradient-21);}.cls-29{fill:url(#linear-gradient-22);}.cls-30{fill:url(#linear-gradient-23);}.cls-31{fill:url(#linear-gradient-24);}.cls-32{fill:none;stroke:#6b7c92;stroke-miterlimit:10;stroke-dasharray:6;}.cls-33,.cls-34{opacity:0.6;isolation:isolate;}.cls-33{fill:url(#linear-gradient-25);}.cls-34{fill:url(#linear-gradient-26);}</style><linearGradient id="linear-gradient" x1="67.35" y1="166.3" x2="98.25" y2="166.3" gradientTransform="matrix(1, 0, 0, -1, 0, 272)" gradientUnits="userSpaceOnUse"><stop offset="0" stop-color="#ccc" stop-opacity="0.25"/><stop offset="1" stop-color="#999" stop-opacity="0"/></linearGradient><linearGradient id="linear-gradient-2" x1="72.57" y1="199.7" x2="99.94" y2="199.7" xlink:href="#linear-gradient"/><linearGradient id="linear-gradient-3" x1="53.04" y1="154.5" x2="69.01" y2="154.5" xlink:href="#linear-gradient"/><linearGradient id="linear-gradient-4" x1="54.45" y1="214.85" x2="98.27" y2="214.85" xlink:href="#linear-gradient"/><linearGradient id="linear-gradient-9" x1="-334.81" y1="-469.26" x2="-334.81" y2="-469.7" gradientTransform="translate(21680.99 38693.75) scale(64 82)" gradientUnits="userSpaceOnUse"><stop offset="0" stop-color="#ff9fd6"/><stop offset="1" stop-color="#f623ab"/></linearGradient><linearGradient id="linear-gradient-10" x1="91.86" y1="-444.24" x2="91.86" y2="-444.69" gradientTransform="translate(-5814.01 32137.66) scale(64 72)" gradientUnits="userSpaceOnUse"><stop offset="0" stop-color="#96afff"/><stop offset="1" stop-color="#1024f3"/></linearGradient><linearGradient id="linear-gradient-11" x1="-30.7" y1="-549.93" x2="-30.7" y2="-550.38" gradientTransform="translate(2180.99 83744.39) scale(64 152)" gradientUnits="userSpaceOnUse"><stop offset="0" stop-color="#9df769"/><stop offset="1" stop-color="#10af36"/></linearGradient><linearGradient id="linear-gradient-12" x1="6.78" y1="-372.31" x2="6.78" y2="-372.76" gradientTransform="translate(-419.01 30755.75) scale(64 82)" gradientUnits="userSpaceOnUse"><stop offset="0" stop-color="#ffef4a"/><stop offset="0.86" stop-color="#f49918"/><stop offset="1" stop-color="#f38b10"/></linearGradient><linearGradient id="linear-gradient-13" x1="-142.21" y1="-649.78" x2="-142.21" y2="-650.33" gradientTransform="translate(9265.99 150925.13) scale(64 232)" gradientUnits="userSpaceOnUse"><stop offset="0" stop-color="#ed69f7"/><stop offset="1" stop-color="#1090f3"/></linearGradient><linearGradient id="linear-gradient-14" x1="-245.32" y1="-539.39" x2="-245.32" y2="-539.84" gradientTransform="translate(15765.99 82234.39) scale(64 152)" gradientUnits="userSpaceOnUse"><stop offset="0" stop-color="#69f7ae"/><stop offset="1" stop-color="#10aeaf"/></linearGradient><linearGradient id="linear-gradient-15" x1="-110.46" y1="-454.08" x2="-110.46" y2="-454.53" gradientTransform="translate(7185.99 51048.02) scale(64 112)" gradientUnits="userSpaceOnUse"><stop offset="0" stop-color="#ff58ba"/><stop offset="1" stop-color="#991cc8"/></linearGradient><linearGradient id="linear-gradient-16" x1="-222.85" y1="-424.04" x2="-222.85" y2="-424.49" gradientTransform="translate(14465.99 39217.84) scale(64 92)" gradientUnits="userSpaceOnUse"><stop offset="0" stop-color="#acf769"/><stop offset="1" stop-color="#97ce47"/></linearGradient><linearGradient id="linear-gradient-17" x1="-157.65" y1="-328.4" x2="-157.65" y2="-328.85" gradientTransform="translate(10305.99 23901.66) scale(64 72)" gradientUnits="userSpaceOnUse"><stop offset="0" stop-color="#69e0f7"/><stop offset="1" stop-color="#1090f3"/></linearGradient><linearGradient id="linear-gradient-18" x1="-366.84" y1="-377.45" x2="-366.84" y2="-377.9" gradientTransform="translate(23630.99 16122.39) scale(64 42)" gradientUnits="userSpaceOnUse"><stop offset="0" stop-color="#ff7ac3"/><stop offset="1" stop-color="#f51cbf"/></linearGradient><linearGradient id="linear-gradient-19" x1="-223.54" y1="525.29" x2="-94.6" y2="525.29" gradientTransform="matrix(0.5, -0.87, -0.87, -0.5, 675.69, 294.54)" gradientUnits="userSpaceOnUse"><stop offset="0" stop-color="#c0dde2"/><stop offset="1" stop-color="#dbf9ea"/></linearGradient><linearGradient id="linear-gradient-20" x1="-89.9" y1="533.42" x2="-231.64" y2="510.16" gradientTransform="matrix(0.5, -0.87, -0.87, -0.5, 675.69, 294.54)" gradientUnits="userSpaceOnUse"><stop offset="0" stop-color="#fff"/><stop offset="1" stop-color="#dbf9ea"/></linearGradient><linearGradient id="linear-gradient-21" x1="-204.56" y1="500.94" x2="-174.81" y2="496.68" xlink:href="#linear-gradient-19"/><linearGradient id="linear-gradient-22" x1="176.12" y1="71.31" x2="95.88" y2="148.18" gradientTransform="matrix(1, 0, 0, -1, 0, 272)" gradientUnits="userSpaceOnUse"><stop offset="0" stop-color="#25e581"/><stop offset="1" stop-color="#c4e138"/></linearGradient><linearGradient id="linear-gradient-23" x1="-74.98" y1="542.95" x2="-53.7" y2="537" gradientTransform="matrix(0.5, -0.87, -0.87, -0.5, 644.9, 339.59)" gradientUnits="userSpaceOnUse"><stop offset="0" stop-color="#5d278f"/><stop offset="1" stop-color="#292376"/></linearGradient><linearGradient id="linear-gradient-24" x1="-74.37" y1="545.12" x2="-53.1" y2="539.16" xlink:href="#linear-gradient-23"/><linearGradient id="linear-gradient-25" x1="249.66" y1="162.1" x2="300.62" y2="162.1" gradientTransform="matrix(1, 0, 0, -1, 0, 272)" gradientUnits="userSpaceOnUse"><stop offset="0" stop-color="#6b7c92" stop-opacity="0.25"/><stop offset="1" stop-color="#6b7c92" stop-opacity="0"/></linearGradient><linearGradient id="linear-gradient-26" x1="-759.9" y1="233.65" x2="-629.4" y2="233.65" gradientTransform="translate(-455.3 272) rotate(180)" xlink:href="#linear-gradient-25"/></defs><title>3</title><g id="Layer_2" data-name="Layer 2"><g id="Items"><path class="cls-1" d="M84.4,47c6.9-1,12.3.2,16.3,3.5s6,8.2,6,14.8a22.92,22.92,0,0,1-3.5,12.6A21.22,21.22,0,0,1,93.4,86c4.4.2,7.9,1.8,10.4,5s3.8,7.4,3.7,12.8c0,7.3-2.2,13.3-6.7,18.1s-10.6,7.7-18.4,8.8c-6.9,1-12.4-.2-16.5-3.4s-6.1-8.1-6.1-14.5v-1.5L69,110v.9c0,4.1,1.2,7.2,3.7,9.2s5.8,2.8,10.1,2.2c4.9-.7,8.7-2.6,11.4-5.6s4-7.1,4-12c0-5.2-1.3-8.9-4.1-11.2s-6.8-3-12.1-2.3a13.7,13.7,0,0,1-1.6.2c-.4.1-.7.1-1,.2V83.7c.3,0,.7-.1,1.2-.1s.9-.1,1.2-.1c5.1-.7,9-2.5,11.6-5.3s3.9-6.6,3.9-11.3c0-4.2-1.2-7.4-3.5-9.5s-5.6-2.9-9.7-2.4a16.44,16.44,0,0,0-10.2,4.9,16.06,16.06,0,0,0-4,10.5l-8.8,1.2c.4-7,2.5-12.6,6.5-16.8C71.8,50.6,77.3,48,84.4,47Z"/><path class="cls-2" d="M97.7,110.1a3.55,3.55,0,0,0,.2-1c0-.2.1-.4.1-.6a4.87,4.87,0,0,0,.1-1.2,1.27,1.27,0,0,1,.1-.6c0-.6.1-1.2.1-1.9,0-5.2-1.3-8.9-4.1-11.2a9.06,9.06,0,0,0-1.6-1.1l-6.9-3.8a9.06,9.06,0,0,1,1.6,1.1c2.7,2.3,4.1,6,4.1,11.2a12.1,12.1,0,0,1-.1,1.9,1.27,1.27,0,0,1-.1.6c0,.4-.1.8-.1,1.2,0,.2-.1.5-.1.7s-.1.7-.2,1-.1.5-.2.7l-.3.9a6.12,6.12,0,0,1-.5,1.2v.1c-.2.4-.4.9-.6,1.3,0,.1-.1.1-.1.2a11.2,11.2,0,0,1-1.7,2.3l-.3.3-.9.9a3.92,3.92,0,0,1-1,.8l-.2.2a5.55,5.55,0,0,0-.8.6c-.2.1-.3.2-.5.3a5.58,5.58,0,0,0-.8.5c-.2.1-.3.2-.5.2s-.6.3-.9.4a1.42,1.42,0,0,1-.6.2c-.3.1-.6.2-1,.3-.2.1-.4.1-.6.2l-1.2.3c-.2,0-.3.1-.5.1l-1.7.3c-.5.1-1,.1-1.5.2H72.5c-.5,0-.9-.1-1.3-.1H71c-.4-.1-.7-.1-1.1-.2-.1,0-.3-.1-.4-.1s-.4-.1-.6-.2-.3-.1-.4-.2-.3-.1-.5-.2l-.6-.3,6.9,3.8c.1.1.2.1.4.2a.35.35,0,0,1,.2.1c.2.1.3.2.5.2s.3.1.4.2.4.1.5.2.2.1.3.1h.2a3.59,3.59,0,0,0,1.1.2h.2a5.7,5.7,0,0,0,1.3.1h1.9a7.72,7.72,0,0,0,1.5-.2c.6-.1,1.2-.2,1.7-.3.2,0,.4-.1.6-.1.4-.1.7-.2,1-.3a6.37,6.37,0,0,1,.7-.2l.9-.3a4.88,4.88,0,0,1,.7-.3l.6-.3c.1,0,.1-.1.2-.1s.3-.2.5-.3.5-.3.8-.4.3-.2.5-.3a.76.76,0,0,1,.4-.2c.1-.1.3-.2.4-.3s.2-.1.2-.2c.3-.2.6-.5.9-.7l.1-.1a9.43,9.43,0,0,0,1-1l.1-.1h0a6.42,6.42,0,0,0,1-1.3h0a10.54,10.54,0,0,0,.7-1.1,2809808847716.36,2809808847716.36,0,0,0,.2-.4c.2-.3.3-.7.5-1v-.1c.1-.3.3-.6.4-.9,0-.1,0-.1.1-.2l.3-.9A6.39,6.39,0,0,1,97.7,110.1Z"/><path class="cls-3" d="M90.4,65.6c0,.4-.1.8-.1,1.2,0,.2-.1.4-.1.6s-.1.7-.2,1-.1.4-.2.6l-.3.9a6.12,6.12,0,0,1-.5,1.2.35.35,0,0,1-.1.2,5.94,5.94,0,0,1-.4.8,3.51,3.51,0,0,1-.5.8,2.19,2.19,0,0,1-.3.5c-.2.2-.3.4-.5.6s-.4.5-.6.7a9,9,0,0,1-1,.9l-.2.2a8.74,8.74,0,0,1-1,.8.1.1,0,0,0-.1.1c-.4.3-.8.5-1.2.8a.37.37,0,0,1-.3.1,4.67,4.67,0,0,1-1,.5c-.3.1-.5.2-.8.3s-.5.2-.7.3-.6.2-1,.3a1.85,1.85,0,0,1-.7.2l-1.2.3c-.2,0-.4.1-.6.1-.6.1-1.2.2-1.9.3-.3,0-.7.1-1.2.1s-.9.1-1.2.1V88l6.9,3.8V83.9c.3,0,.7-.1,1.2-.1s.9-.1,1.2-.1c.7-.1,1.3-.2,1.9-.3.2,0,.4-.1.6-.1l1.2-.3a6.37,6.37,0,0,1,.7-.2,2.35,2.35,0,0,1,.8-.2l6.4,3.5a2.77,2.77,0,0,1,.9.1h.3a.75.75,0,0,1,.5.1.37.37,0,0,1,.3.1,4.33,4.33,0,0,1,.5.1c.3.1.5.1.8.2h.2a3.58,3.58,0,0,1,1.1.4c.1,0,.1,0,.2.1a5.36,5.36,0,0,1,1.1.5,2.19,2.19,0,0,1,.5.3c-2.3-1.3-4.6-2.5-6.9-3.8-.2-.1-.3-.2-.5-.2h-.1a11.73,11.73,0,0,0-1.1-.5c-.1,0-.1-.1-.2-.1-.4-.1-.8-.3-1.2-.4h0c-.1,0-.3-.1-.4-.1s-.3-.1-.4-.1h-.1a7.72,7.72,0,0,0-1.5-.2c.1,0,.2-.1.3-.1a3.55,3.55,0,0,0,.9-.4.1.1,0,0,0,.1-.1c.3-.1.5-.3.8-.4.1-.1.2-.1.4-.2.4-.2.8-.5,1.2-.7h0l.1-.1c.3-.2.6-.5.9-.7l.2-.2c.1,0,.1-.1.2-.1a6,6,0,0,0,.8-.8l.3-.3c.1-.1.2-.3.3-.4s.3-.4.5-.6c0-.1.1-.1.1-.2s.1-.2.2-.4a5.58,5.58,0,0,0,.5-.8.35.35,0,0,1,.1-.2l.3-.6c0-.1.1-.2.1-.3a4.18,4.18,0,0,0,.4-1v-.1l.3-.9c.1-.2.1-.4.2-.6s.1-.6.2-.9.1-.4.1-.6a4.1,4.1,0,0,0,.1-1.1c0-.2.1-.4.1-.6,0-.6.1-1.2.1-1.8,0-4.2-1.2-7.4-3.5-9.5a20.28,20.28,0,0,0-1.8-1.3c-2.3-1.3-4.6-2.5-6.9-3.8a20.28,20.28,0,0,1,1.8,1.3c2.4,2.1,3.6,5.3,3.5,9.5a10.87,10.87,0,0,1-.1,1.8C90.4,65.3,90.4,65.4,90.4,65.6Z"/><path class="cls-4" d="M59.9,112.8v-1.5L69,110l-6.9-3.8L53,107.5V109c0,6.4,2,11.2,6.1,14.5a11.35,11.35,0,0,0,2.3,1.5c2.3,1.3,4.6,2.5,6.9,3.8a11.35,11.35,0,0,1-2.3-1.5C62,124,59.9,119.2,59.9,112.8Z"/><path class="cls-5" d="M55.5,61.2c-.2.6-.3,1.3-.5,2v.2l-.3,2.1v.1a17.85,17.85,0,0,0-.2,2.3l6.9,3.8a19.42,19.42,0,0,1,.2-2.4v-.1c.1-.7.2-1.5.3-2.2v-.2a11.7,11.7,0,0,1,.5-2c0-.1,0-.2.1-.2l.6-1.8c0-.1.1-.2.1-.3.2-.5.4-.9.6-1.4,0-.1.1-.2.1-.3l.6-1.2c.1-.1.1-.2.2-.3.2-.3.3-.6.5-.9l.1-.1a6.07,6.07,0,0,1,.7-1c.1-.1.2-.2.2-.3a2.65,2.65,0,0,1,.5-.6l.3-.3c.2-.2.3-.4.5-.6s.3-.4.5-.6l1.5-1.5c.1-.1.2-.1.3-.2a11.32,11.32,0,0,1,1.3-1,1.38,1.38,0,0,1,.4-.3c.4-.3.8-.5,1.2-.8.2-.1.4-.3.6-.4.5-.3,1.1-.6,1.6-.9.1,0,.2-.1.3-.2.4-.2.8-.3,1.2-.5s.6-.3.9-.4c.5-.2,1-.3,1.5-.5.3-.1.5-.2.8-.3a11.63,11.63,0,0,1,1.8-.4,1.42,1.42,0,0,0,.6-.2c.8-.2,1.7-.3,2.6-.5.6-.1,1.2-.1,1.8-.2h.5c.5,0,1.1-.1,1.6-.1h2.2c.5,0,.9.1,1.4.1h.2l1.5.3c.1,0,.2.1.4.1a2.92,2.92,0,0,0,.9.2l.9.3c.2.1.5.2.7.3s.5.2.8.3.7.3,1,.5l-6.9-3.8-.6-.3c-.1-.1-.3-.1-.4-.2-.3-.1-.6-.3-.9-.4s-.5-.2-.7-.3l-.9-.3c-.1,0-.3-.1-.4-.1s-.3-.1-.5-.1-.2-.1-.4-.1l-1.5-.3h-.2a5.7,5.7,0,0,0-1.3-.1H81.6a9.15,9.15,0,0,0-1.6.1h-.5c-.6.1-1.2.1-1.8.2a23.81,23.81,0,0,0-2.6.5,3.55,3.55,0,0,1-1,.2,5.73,5.73,0,0,0-1.4.4l-1.1.3c-.4.1-.8.3-1.2.4s-.6.3-.9.4-.8.3-1.2.5h0c-.1,0-.2.1-.3.1-.6.3-1.1.6-1.7.9a2.09,2.09,0,0,0-.6.4c-.3.2-.7.4-1,.6-.1.1-.2.1-.3.2s-.2.2-.3.2a13.44,13.44,0,0,0-1.4,1.1l-.2.2-.1.1A9.27,9.27,0,0,0,61,50.8l-.4.4c-.1.1-.1.1-.1.2-.2.2-.3.4-.4.5s-.2.3-.3.4-.3.4-.4.6-.1.2-.2.3a.1.1,0,0,1-.1.1,6.07,6.07,0,0,1-.7,1,.35.35,0,0,1-.1.2,5.58,5.58,0,0,1-.5.8.1.1,0,0,1-.1.1c0,.1-.1.1-.1.2-.2.4-.4.7-.6,1.1,0,.1-.1.2-.1.3-.2.4-.4.9-.6,1.4a.1.1,0,0,1-.1.1c0,.1,0,.1-.1.2l-.6,1.8Z"/><path class="cls-2" d="M97.7,110.1a3.55,3.55,0,0,0,.2-1c0-.2.1-.4.1-.6a4.87,4.87,0,0,0,.1-1.2,1.27,1.27,0,0,1,.1-.6c0-.6.1-1.2.1-1.9,0-5.2-1.3-8.9-4.1-11.2a9.06,9.06,0,0,0-1.6-1.1l-6.9-3.8a9.06,9.06,0,0,1,1.6,1.1c2.7,2.3,4.1,6,4.1,11.2a12.1,12.1,0,0,1-.1,1.9,1.27,1.27,0,0,1-.1.6c0,.4-.1.8-.1,1.2,0,.2-.1.5-.1.7s-.1.7-.2,1-.1.5-.2.7l-.3.9a6.12,6.12,0,0,1-.5,1.2v.1c-.2.4-.4.9-.6,1.3,0,.1-.1.1-.1.2a11.2,11.2,0,0,1-1.7,2.3l-.3.3-.9.9a3.92,3.92,0,0,1-1,.8l-.2.2a5.55,5.55,0,0,0-.8.6c-.2.1-.3.2-.5.3a5.58,5.58,0,0,0-.8.5c-.2.1-.3.2-.5.2s-.6.3-.9.4a1.42,1.42,0,0,1-.6.2c-.3.1-.6.2-1,.3-.2.1-.4.1-.6.2l-1.2.3c-.2,0-.3.1-.5.1l-1.7.3c-.5.1-1,.1-1.5.2H72.5c-.5,0-.9-.1-1.3-.1H71c-.4-.1-.7-.1-1.1-.2-.1,0-.3-.1-.4-.1s-.4-.1-.6-.2-.3-.1-.4-.2-.3-.1-.5-.2l-.6-.3,6.9,3.8c.1.1.2.1.4.2a.35.35,0,0,1,.2.1c.2.1.3.2.5.2s.3.1.4.2.4.1.5.2.2.1.3.1h.2a3.59,3.59,0,0,0,1.1.2h.2a5.7,5.7,0,0,0,1.3.1h1.9a7.72,7.72,0,0,0,1.5-.2c.6-.1,1.2-.2,1.7-.3.2,0,.4-.1.6-.1.4-.1.7-.2,1-.3a6.37,6.37,0,0,1,.7-.2l.9-.3a4.88,4.88,0,0,1,.7-.3l.6-.3c.1,0,.1-.1.2-.1s.3-.2.5-.3.5-.3.8-.4.3-.2.5-.3a.76.76,0,0,1,.4-.2c.1-.1.3-.2.4-.3s.2-.1.2-.2c.3-.2.6-.5.9-.7l.1-.1a9.43,9.43,0,0,0,1-1l.1-.1h0a6.42,6.42,0,0,0,1-1.3h0a10.54,10.54,0,0,0,.7-1.1,2809808847716.36,2809808847716.36,0,0,0,.2-.4c.2-.3.3-.7.5-1v-.1c.1-.3.3-.6.4-.9,0-.1,0-.1.1-.2l.3-.9A6.39,6.39,0,0,1,97.7,110.1Z"/><path class="cls-3" d="M90.4,65.6c0,.4-.1.8-.1,1.2,0,.2-.1.4-.1.6s-.1.7-.2,1-.1.4-.2.6l-.3.9a6.12,6.12,0,0,1-.5,1.2.35.35,0,0,1-.1.2,5.94,5.94,0,0,1-.4.8,3.51,3.51,0,0,1-.5.8,2.19,2.19,0,0,1-.3.5c-.2.2-.3.4-.5.6s-.4.5-.6.7a9,9,0,0,1-1,.9l-.2.2a8.74,8.74,0,0,1-1,.8.1.1,0,0,0-.1.1c-.4.3-.8.5-1.2.8a.37.37,0,0,1-.3.1,4.67,4.67,0,0,1-1,.5c-.3.1-.5.2-.8.3s-.5.2-.7.3-.6.2-1,.3a1.85,1.85,0,0,1-.7.2l-1.2.3c-.2,0-.4.1-.6.1-.6.1-1.2.2-1.9.3-.3,0-.7.1-1.2.1s-.9.1-1.2.1V88l6.9,3.8V83.9c.3,0,.7-.1,1.2-.1s.9-.1,1.2-.1c.7-.1,1.3-.2,1.9-.3.2,0,.4-.1.6-.1l1.2-.3a6.37,6.37,0,0,1,.7-.2,2.35,2.35,0,0,1,.8-.2l6.4,3.5a2.77,2.77,0,0,1,.9.1h.3a.75.75,0,0,1,.5.1.37.37,0,0,1,.3.1,4.33,4.33,0,0,1,.5.1c.3.1.5.1.8.2h.2a3.58,3.58,0,0,1,1.1.4c.1,0,.1,0,.2.1a5.36,5.36,0,0,1,1.1.5,2.19,2.19,0,0,1,.5.3c-2.3-1.3-4.6-2.5-6.9-3.8-.2-.1-.3-.2-.5-.2h-.1a11.73,11.73,0,0,0-1.1-.5c-.1,0-.1-.1-.2-.1-.4-.1-.8-.3-1.2-.4h0c-.1,0-.3-.1-.4-.1s-.3-.1-.4-.1h-.1a7.72,7.72,0,0,0-1.5-.2c.1,0,.2-.1.3-.1a3.55,3.55,0,0,0,.9-.4.1.1,0,0,0,.1-.1c.3-.1.5-.3.8-.4.1-.1.2-.1.4-.2.4-.2.8-.5,1.2-.7h0l.1-.1c.3-.2.6-.5.9-.7l.2-.2c.1,0,.1-.1.2-.1a6,6,0,0,0,.8-.8l.3-.3c.1-.1.2-.3.3-.4s.3-.4.5-.6c0-.1.1-.1.1-.2s.1-.2.2-.4a5.58,5.58,0,0,0,.5-.8.35.35,0,0,1,.1-.2l.3-.6c0-.1.1-.2.1-.3a4.18,4.18,0,0,0,.4-1v-.1l.3-.9c.1-.2.1-.4.2-.6s.1-.6.2-.9.1-.4.1-.6a4.1,4.1,0,0,0,.1-1.1c0-.2.1-.4.1-.6,0-.6.1-1.2.1-1.8,0-4.2-1.2-7.4-3.5-9.5a20.28,20.28,0,0,0-1.8-1.3c-2.3-1.3-4.6-2.5-6.9-3.8a20.28,20.28,0,0,1,1.8,1.3c2.4,2.1,3.6,5.3,3.5,9.5a10.87,10.87,0,0,1-.1,1.8C90.4,65.3,90.4,65.4,90.4,65.6Z"/><path class="cls-4" d="M59.9,112.8v-1.5L69,110l-6.9-3.8L53,107.5V109c0,6.4,2,11.2,6.1,14.5a11.35,11.35,0,0,0,2.3,1.5c2.3,1.3,4.6,2.5,6.9,3.8a11.35,11.35,0,0,1-2.3-1.5C62,124,59.9,119.2,59.9,112.8Z"/><path class="cls-5" d="M55.5,61.2c-.2.6-.3,1.3-.5,2v.2l-.3,2.1v.1a17.85,17.85,0,0,0-.2,2.3l6.9,3.8a19.42,19.42,0,0,1,.2-2.4v-.1c.1-.7.2-1.5.3-2.2v-.2a11.7,11.7,0,0,1,.5-2c0-.1,0-.2.1-.2l.6-1.8c0-.1.1-.2.1-.3.2-.5.4-.9.6-1.4,0-.1.1-.2.1-.3l.6-1.2c.1-.1.1-.2.2-.3.2-.3.3-.6.5-.9l.1-.1a6.07,6.07,0,0,1,.7-1c.1-.1.2-.2.2-.3a2.65,2.65,0,0,1,.5-.6l.3-.3c.2-.2.3-.4.5-.6s.3-.4.5-.6l1.5-1.5c.1-.1.2-.1.3-.2a11.32,11.32,0,0,1,1.3-1,1.38,1.38,0,0,1,.4-.3c.4-.3.8-.5,1.2-.8.2-.1.4-.3.6-.4.5-.3,1.1-.6,1.6-.9.1,0,.2-.1.3-.2.4-.2.8-.3,1.2-.5s.6-.3.9-.4c.5-.2,1-.3,1.5-.5.3-.1.5-.2.8-.3a11.63,11.63,0,0,1,1.8-.4,1.42,1.42,0,0,0,.6-.2c.8-.2,1.7-.3,2.6-.5.6-.1,1.2-.1,1.8-.2h.5c.5,0,1.1-.1,1.6-.1h2.2c.5,0,.9.1,1.4.1h.2l1.5.3c.1,0,.2.1.4.1a2.92,2.92,0,0,0,.9.2l.9.3c.2.1.5.2.7.3s.5.2.8.3.7.3,1,.5l-6.9-3.8-.6-.3c-.1-.1-.3-.1-.4-.2-.3-.1-.6-.3-.9-.4s-.5-.2-.7-.3l-.9-.3c-.1,0-.3-.1-.4-.1s-.3-.1-.5-.1-.2-.1-.4-.1l-1.5-.3h-.2a5.7,5.7,0,0,0-1.3-.1H81.6a9.15,9.15,0,0,0-1.6.1h-.5c-.6.1-1.2.1-1.8.2a23.81,23.81,0,0,0-2.6.5,3.55,3.55,0,0,1-1,.2,5.73,5.73,0,0,0-1.4.4l-1.1.3c-.4.1-.8.3-1.2.4s-.6.3-.9.4-.8.3-1.2.5h0c-.1,0-.2.1-.3.1-.6.3-1.1.6-1.7.9a2.09,2.09,0,0,0-.6.4c-.3.2-.7.4-1,.6-.1.1-.2.1-.3.2s-.2.2-.3.2a13.44,13.44,0,0,0-1.4,1.1l-.2.2-.1.1A9.27,9.27,0,0,0,61,50.8l-.4.4c-.1.1-.1.1-.1.2-.2.2-.3.4-.4.5s-.2.3-.3.4-.3.4-.4.6-.1.2-.2.3a.1.1,0,0,1-.1.1,6.07,6.07,0,0,1-.7,1,.35.35,0,0,1-.1.2,5.58,5.58,0,0,1-.5.8.1.1,0,0,1-.1.1c0,.1-.1.1-.1.2-.2.4-.4.7-.6,1.1,0,.1-.1.2-.1.3-.2.4-.4.9-.6,1.4a.1.1,0,0,1-.1.1c0,.1,0,.1-.1.2l-.6,1.8Z"/><g id="Chart"><polygon id="Path-2" class="cls-6" points="253.4 176.8 268.3 184.2 268.3 207.4 253.4 214.8 238.6 207.4 238.6 184.2 253.4 176.8"/><polygon id="Path-2-2" data-name="Path-2" class="cls-7" points="253.4 176.8 268.3 184.2 253.4 191.6 238.6 184.2 253.4 176.8"/></g><g id="Chart-2" data-name="Chart"><polygon id="Path-2-Copy-3" class="cls-8" points="65.2 118.9 80 126.3 80 144.9 65.2 152.3 50.4 144.9 50.4 126.3 65.2 118.9"/><polygon id="Path-2-Copy-4" class="cls-9" points="65.2 118.9 80 126.3 65.2 133.7 50.4 126.3 65.2 118.9"/></g><g id="Chart-3" data-name="Chart"><polygon id="Path-2-3" data-name="Path-2" class="cls-10" points="216.2 85 231 92.4 231 148 216.2 155.5 201.3 148 201.3 92.4 216.2 85"/><polygon id="Path-2-4" data-name="Path-2" class="cls-11" points="216.2 85 231 92.4 216.2 99.8 201.3 92.4 216.2 85"/></g><g id="Chart-4" data-name="Chart"><polygon id="Path-2-5" data-name="Path-2" class="cls-12" points="14.8 188.4 29.7 195.8 29.7 219 14.8 226.4 0 219 0 195.8 14.8 188.4"/><polygon id="Path-2-6" data-name="Path-2" class="cls-13" points="14.8 188.4 29.7 195.8 14.8 203.3 0 195.8 14.8 188.4"/></g><g id="Chart-5" data-name="Chart"><polygon id="Path-2-7" data-name="Path-2" class="cls-14" points="164.8 44.3 182.9 53.3 182.9 166.4 164.8 175.5 146.7 166.4 146.7 53.3 164.8 44.3"/><polygon id="Path-2-8" data-name="Path-2" class="cls-15" points="164.8 44.3 182.9 53.3 164.8 62.4 146.7 53.3 164.8 44.3"/></g><g id="Chart-6" data-name="Chart"><polygon id="Path-2-9" data-name="Path-2" class="cls-16" points="65.2 176.7 80 184.1 80 239.8 65.2 247.2 50.4 239.8 50.4 184.1 65.2 176.7"/><polygon id="Path-2-10" data-name="Path-2" class="cls-17" points="65.2 176.7 80 184.1 65.2 191.5 50.4 184.1 65.2 176.7"/></g><g id="Chart-7" data-name="Chart"><polygon id="Path-2-11" data-name="Path-2" class="cls-18" points="116.6 139.1 131.4 146.5 131.4 183.7 116.6 191.1 101.8 183.7 101.8 146.5 116.6 139.1"/><polygon id="Path-2-12" data-name="Path-2" class="cls-19" points="116.6 139.1 131.4 146.5 116.6 154 101.8 146.5 116.6 139.1"/></g><g id="Chart-8" data-name="Chart"><polygon id="Path-2-Copy" class="cls-20" points="203.8 163.8 218.6 171.2 218.6 199 203.8 206.5 188.9 199 188.9 171.2 203.8 163.8"/><polygon id="Path-2-Copy-2" class="cls-21" points="203.8 163.8 218.6 171.2 203.8 178.6 188.9 171.2 203.8 163.8"/></g><g id="Chart-9" data-name="Chart"><polygon id="Path-2-Copy-3-2" data-name="Path-2-Copy-3" class="cls-22" points="216.2 223.2 231 230.6 231 249.2 216.2 256.6 201.3 249.2 201.3 230.6 216.2 223.2"/><polygon id="Path-2-Copy-4-2" data-name="Path-2-Copy-4" class="cls-23" points="216.2 223.2 231 230.6 216.2 238 201.3 230.6 216.2 223.2"/></g><g id="Chart-10" data-name="Chart"><polygon id="Path-2-Copy-3-3" data-name="Path-2-Copy-3" class="cls-24" points="153.2 250.2 168.1 257.6 168.1 262.3 153.2 269.7 138.4 262.3 138.4 257.6 153.2 250.2"/><polygon id="Path-2-Copy-4-3" data-name="Path-2-Copy-4" class="cls-25" points="153.2 250.2 168.1 257.6 153.2 265 138.4 257.6 153.2 250.2"/></g><path class="cls-26" d="M165.5,113.4l.3,89.2a13,13,0,0,1-6.5,11.3l-31.6,18.2a7.19,7.19,0,0,1-10.8-6.2c-.1-29.7-.2-59.5-.2-89.2a13,13,0,0,1,6.5-11.3l31.6-18.3A7.18,7.18,0,0,1,165.5,113.4Z"/><path class="cls-27" d="M159.4,110.9c.8-.4,2.7-1.4,4.6-.4,1.1.6,1.7,1.9,1.7,3.8l.3,89.4a13,13,0,0,1-5.9,10.2l-31.7,18.3a4.33,4.33,0,0,1-4.2.4,2.84,2.84,0,0,1-1.4-1.6,6.31,6.31,0,0,1-.5-2.5l-.3-89.4h0a11.47,11.47,0,0,1,1.6-5.6,11.84,11.84,0,0,1,4-4.2h0Z"/><path class="cls-28" d="M143.3,212.4a7.78,7.78,0,0,0-3.6,6.2c0,2.3,1.6,3.2,3.6,2a7.78,7.78,0,0,0,3.6-6.2c0-2.2-1.6-3.1-3.6-2"/><polyline class="cls-29" points="125.3 221.1 163.7 198.9 163.5 119.5 125.1 141.7 125.3 221.1"/><path class="cls-30" d="M143.3,126.8l5.6-3.2a1.65,1.65,0,0,0,.8-1.3.47.47,0,0,0-.8-.4l-5.6,3.2a1.65,1.65,0,0,0-.8,1.3c0,.4.3.6.8.4"/><path class="cls-31" d="M138.6,130a2.85,2.85,0,0,0,1.3-2.2c0-.8-.6-1.1-1.3-.7a2.85,2.85,0,0,0-1.3,2.2c.1.8.6,1.1,1.3.7"/><path class="cls-32" d="M152.6,192.8a44.26,44.26,0,0,0,44.3,44.3"/><path class="cls-32" d="M156.7,164.7a65.43,65.43,0,0,0-92.6,0"/><path id="_Path_" data-name="&lt;Path&gt;" class="cls-33" d="M292.6,108.8h-.2a11,11,0,0,0,.2-1.8,9.87,9.87,0,0,0-16.2-7.6,7.91,7.91,0,0,0-7.2-4.5,8.09,8.09,0,0,0-8,7h-.1a11.5,11.5,0,0,0,0,23h31.4a8,8,0,0,0,8-8A7.9,7.9,0,0,0,292.6,108.8Z"/><path id="_Path_2" data-name="&lt;Path&gt;" class="cls-34" d="M194.7,35.6h.5a24.16,24.16,0,0,1-.5-4.7A25.27,25.27,0,0,1,220,5.6a25,25,0,0,1,16.2,5.9A20.53,20.53,0,0,1,275,17.9h.2a29.4,29.4,0,1,1,0,58.8H194.7a20.55,20.55,0,1,1,0-41.1Z"/></g></g></svg>