<svg xmlns="http://www.w3.org/2000/svg" xmlns:xlink="http://www.w3.org/1999/xlink" viewBox="0 0 322 234.9"><defs><style>.cls-1,.cls-38{fill:none;}.cls-2{fill:url(#linear-gradient);}.cls-3{fill:url(#linear-gradient-2);}.cls-4{fill:#6b7c92;}.cls-17,.cls-18,.cls-19,.cls-39,.cls-43,.cls-5{isolation:isolate;}.cls-6{fill:#160c0c;}.cls-7{clip-path:url(#clip-path);}.cls-8{fill:url(#linear-gradient-5);}.cls-9{fill:url(#linear-gradient-6);}.cls-10{fill:url(#linear-gradient-7);}.cls-11{fill:url(#linear-gradient-8);}.cls-12{fill:url(#linear-gradient-10);}.cls-13{clip-path:url(#clip-path-2);}.cls-14{fill:url(#linear-gradient-11);}.cls-15{fill:url(#linear-gradient-12);}.cls-16{fill:url(#linear-gradient-13);}.cls-17,.cls-18,.cls-19{opacity:0.05;}.cls-17{fill:url(#linear-gradient-14);}.cls-18{fill:url(#linear-gradient-15);}.cls-19{fill:url(#linear-gradient-16);}.cls-20{fill:url(#linear-gradient-17);}.cls-21{fill:url(#linear-gradient-18);}.cls-22{fill:url(#linear-gradient-19);}.cls-23{fill:url(#linear-gradient-20);}.cls-24{fill:url(#linear-gradient-21);}.cls-25{fill:url(#linear-gradient-22);}.cls-26{fill:url(#linear-gradient-23);}.cls-27{fill:url(#linear-gradient-24);}.cls-28{fill:#d2dce6;}.cls-29{fill:#9b9cbf;}.cls-30{fill:#a6bdcb;}.cls-31{fill:#fefefe;}.cls-32{fill:#ecf0f3;}.cls-33{fill:#d87e12;}.cls-34{fill:#f49d2a;}.cls-35{fill:#eae4d4;}.cls-36{fill:#fff;}.cls-37{fill:#ffaf3b;}.cls-38{stroke:#6b7c92;stroke-miterlimit:10;stroke-dasharray:6;}.cls-39,.cls-43{opacity:0.6;}.cls-39{fill:url(#linear-gradient-25);}.cls-40{fill:url(#linear-gradient-26);}.cls-41{fill:url(#linear-gradient-27);}.cls-42{fill:url(#linear-gradient-28);}.cls-43{fill:url(#linear-gradient-29);}</style><linearGradient id="linear-gradient" x1="4" y1="142.3" x2="55.8" y2="142.3" gradientTransform="matrix(1, 0, 0, -1, 0, 236)" gradientUnits="userSpaceOnUse"><stop offset="0" stop-color="#ccc" stop-opacity="0.25"/><stop offset="1" stop-color="#999" stop-opacity="0"/></linearGradient><linearGradient id="linear-gradient-2" x1="4.8" y1="174.9" x2="49.6" y2="174.9" xlink:href="#linear-gradient"/><clipPath id="clip-path"><path class="cls-1" d="M77,125c-2,1.2-3,4.3-2.1,6.9l21.5,63.4c.9,2.6,3.3,3.8,5.3,2.6l74.2-42.8c2-1.2,3-4.3,2.1-6.9L156.5,84.8c-.9-2.6-3.3-3.8-5.3-2.6Z"/></clipPath><linearGradient id="linear-gradient-5" x1="82.35" y1="121.36" x2="170.55" y2="70.44" gradientTransform="matrix(1, 0, 0, -1, 0, 236)" gradientUnits="userSpaceOnUse"><stop offset="0" stop-color="#5d278f"/><stop offset="1" stop-color="#292376"/></linearGradient><linearGradient id="linear-gradient-6" x1="155.13" y1="96" x2="67.69" y2="96" gradientTransform="matrix(1, 0, 0, -1, 0, 236)" gradientUnits="userSpaceOnUse"><stop offset="0" stop-color="#dbf9ea"/><stop offset="1" stop-color="#c0dde2"/></linearGradient><linearGradient id="linear-gradient-7" x1="76.97" y1="102.9" x2="189.63" y2="87.07" gradientTransform="matrix(1, 0, 0, -1, 0, 236)" gradientUnits="userSpaceOnUse"><stop offset="0.01" stop-color="#6364ed"/><stop offset="0.21" stop-color="#6480ea"/><stop offset="0.56" stop-color="#66a9e6"/><stop offset="0.84" stop-color="#67c3e3"/><stop offset="1" stop-color="#67cce2"/></linearGradient><linearGradient id="linear-gradient-8" x1="100.56" y1="43.8" x2="234.24" y2="43.8" xlink:href="#linear-gradient-6"/><linearGradient id="linear-gradient-10" x1="205.99" y1="53.06" x2="105.62" y2="43.19" xlink:href="#linear-gradient-6"/><clipPath id="clip-path-2"><path class="cls-1" d="M134.8,214.5,113,201.8a.89.89,0,0,1,0-1.6l68.6-39.6a2.12,2.12,0,0,1,1.9,0l21.8,12.7a.89.89,0,0,1,0,1.6l-68.6,39.6a1.64,1.64,0,0,1-1,.2A1.34,1.34,0,0,1,134.8,214.5Z"/></clipPath><linearGradient id="linear-gradient-11" x1="112.9" y1="49.15" x2="205.4" y2="49.15" xlink:href="#linear-gradient-5"/><linearGradient id="linear-gradient-12" x1="206.23" y1="52.98" x2="121.32" y2="27.32" xlink:href="#linear-gradient-5"/><linearGradient id="linear-gradient-13" x1="229.38" y1="26.05" x2="101.86" y2="26.05" xlink:href="#linear-gradient-6"/><linearGradient id="linear-gradient-14" x1="156.2" y1="34.55" x2="210.6" y2="34.55" xlink:href="#linear-gradient-5"/><linearGradient id="linear-gradient-15" x1="139.21" y1="99.79" x2="189.88" y2="74.12" xlink:href="#linear-gradient-5"/><linearGradient id="linear-gradient-16" x1="106.09" y1="34.41" x2="156.76" y2="8.75" xlink:href="#linear-gradient-5"/><linearGradient id="linear-gradient-17" x1="108.8" y1="56.8" x2="180.8" y2="56.8" gradientTransform="matrix(1, 0, 0, -1, 0, 236)" gradientUnits="userSpaceOnUse"><stop offset="0.05" stop-color="#ed1e79"/><stop offset="0.32" stop-color="#d9e021"/><stop offset="1" stop-color="#29c7e2"/></linearGradient><linearGradient id="linear-gradient-18" x1="82.24" y1="121.16" x2="127.75" y2="94.89" gradientTransform="matrix(1, 0, 0, -1, 0, 236)" gradientUnits="userSpaceOnUse"><stop offset="0" stop-color="#fff" stop-opacity="0.25"/><stop offset="1" stop-color="#dbf9ea" stop-opacity="0"/></linearGradient><linearGradient id="linear-gradient-19" x1="288.38" y1="78.64" x2="296.77" y2="78.64" gradientTransform="matrix(1, 0, 0, -1, 0, 236)" gradientUnits="userSpaceOnUse"><stop offset="0" stop-color="#292376"/><stop offset="1" stop-color="#5d278f"/></linearGradient><linearGradient id="linear-gradient-20" x1="289.98" y1="63.96" x2="301.84" y2="68.93" xlink:href="#linear-gradient-5"/><linearGradient id="linear-gradient-21" x1="287.76" y1="57.1" x2="294.69" y2="69.66" xlink:href="#linear-gradient-19"/><linearGradient id="linear-gradient-22" x1="282.63" y1="77.65" x2="242.44" y2="77.65" gradientTransform="matrix(1, 0, 0, -1, 0, 236)" gradientUnits="userSpaceOnUse"><stop offset="0" stop-color="#dbf9ea" stop-opacity="0"/><stop offset="1" stop-color="#8ccace"/></linearGradient><linearGradient id="linear-gradient-23" x1="280.72" y1="72.61" x2="246" y2="72.61" gradientTransform="matrix(1, 0, 0, -1, 0, 236)" gradientUnits="userSpaceOnUse"><stop offset="0" stop-color="#d1985c"/><stop offset="1" stop-color="#534741"/></linearGradient><linearGradient id="linear-gradient-24" x1="288.87" y1="77.05" x2="288.93" y2="77.05" xlink:href="#linear-gradient-5"/><linearGradient id="linear-gradient-25" x1="257.62" y1="36.92" x2="296.94" y2="50.62" gradientTransform="matrix(1, 0, 0, -1, 0, 236)" gradientUnits="userSpaceOnUse"><stop offset="0" stop-color="#6b7c92" stop-opacity="0"/><stop offset="1" stop-color="#6b7c92" stop-opacity="0.25"/></linearGradient><linearGradient id="linear-gradient-26" x1="268.35" y1="66.57" x2="268.35" y2="87.45" gradientTransform="matrix(1, 0, 0, -1, 0, 236)" gradientUnits="userSpaceOnUse"><stop offset="0" stop-color="#dbf9ea"/><stop offset="0.97" stop-color="#fff"/></linearGradient><linearGradient id="linear-gradient-27" x1="247.77" y1="54.4" x2="288.93" y2="54.4" xlink:href="#linear-gradient-5"/><linearGradient id="linear-gradient-28" x1="247.87" y1="77.6" x2="288.93" y2="77.6" xlink:href="#linear-gradient-26"/><linearGradient id="linear-gradient-29" x1="278.14" y1="172.8" x2="278.14" y2="71.68" gradientTransform="matrix(1, 0, 0, -1, 0, 236)" gradientUnits="userSpaceOnUse"><stop offset="0" stop-color="#6b7c92" stop-opacity="0.25"/><stop offset="1" stop-color="#6b7c92" stop-opacity="0"/></linearGradient></defs><title>2</title><g id="Layer_2" data-name="Layer 2"><g id="Items"><path class="cls-2" d="M55.8,117.4l-6.9-3.8-27.2,3.8,4.9-7c1.1-1.5,2.6-3.6,4.5-6.4a8.65,8.65,0,0,0,.7-1c.3-.4.5-.8.8-1.2s.6-.9.9-1.3l1.2-1.8c.2-.4.5-.7.7-1.1l1.8-2.7c.1-.1.2-.3.3-.4.5-.7,1-1.5,1.4-2.2.2-.3.4-.7.6-1a13,13,0,0,1,1-1.5,8.79,8.79,0,0,1,.6-1c.3-.5.5-.9.8-1.4a8.79,8.79,0,0,1,.6-1c.2-.4.5-.8.7-1.3a4.67,4.67,0,0,0,.5-1l.3-.6a2.19,2.19,0,0,1,.3-.5l.6-1.2c.2-.3.3-.7.5-1a9.74,9.74,0,0,0,.5-1.1c.1-.3.3-.6.4-.9a9.29,9.29,0,0,1,.5-1c.1-.3.3-.6.4-.9s.3-.7.4-1c.1-.1.1-.3.2-.4a1.42,1.42,0,0,0,.2-.6.35.35,0,0,1,.1-.2,7.37,7.37,0,0,0,.4-1.4c0-.1.1-.2.1-.3l.3-1.2v-.2c.1-.4.1-.8.2-1.2v-.2c0-.4.1-.8.1-1.1,0-4.1-1.3-7.3-4-9.6a7.07,7.07,0,0,0-1.8-1.2l-6.9-3.8a9.39,9.39,0,0,1,1.8,1.2c2.7,2.2,4,5.4,4,9.6a4.1,4.1,0,0,1-.1,1.1v.1a5,5,0,0,1-.2,1.2v.2c-.1.4-.2.8-.3,1.3,0,.1,0,.2-.1.2-.1.5-.3.9-.4,1.4,0,.1,0,.1-.1.2-.1.4-.3.8-.4,1.2a3.55,3.55,0,0,1-.4.9c-.1.3-.3.6-.4.9s-.3.7-.4,1a9.25,9.25,0,0,1-.5,1,11.73,11.73,0,0,0-.5,1.1c-.2.3-.3.7-.5,1a10.91,10.91,0,0,1-.6,1.1l-.6,1.2c-.2.3-.3.6-.5.9-.3.5-.5.9-.8,1.4-.2.3-.3.6-.5.9-.3.5-.6,1-.9,1.6-.2.3-.3.5-.5.8-.4.6-.8,1.3-1.2,1.9a2.09,2.09,0,0,1-.4.6c-1.1,1.8-2.3,3.6-3.6,5.5-.1.1-.2.2-.2.3-.6.8-1.1,1.7-1.7,2.6-.2.2-.3.5-.5.7-.6.9-1.2,1.7-1.8,2.6-2,2.8-3.5,4.9-4.5,6.4L4,129.1l6.9,3.8L21.3,118l6.2,3.4Z"/><path class="cls-3" d="M6.1,62.2c-.1.3-.1.5-.2.8a4.33,4.33,0,0,1-.1.5c-.1.3-.1.5-.2.8a4.33,4.33,0,0,1-.1.5,2.2,2.2,0,0,0-.1.8,4.33,4.33,0,0,1-.1.5c0,.3-.1.6-.1.8a.9.9,0,0,1-.1.5,3.75,3.75,0,0,0-.1,1v.5a3.4,3.4,0,0,1-.1,1v1.9a4.14,4.14,0,0,0,.1,1c0,.5.1.8.1,1.1L12,77.7a4.91,4.91,0,0,0-.1-1.1c0-.5-.1-.8-.1-1v-2a2.77,2.77,0,0,1,.1-.9,1.27,1.27,0,0,1,.1-.6c0-.3.1-.5.1-.8s.1-.4.1-.6.1-.5.1-.8.1-.4.1-.6.1-.5.1-.8.1-.4.1-.6.1-.5.2-.7a4.33,4.33,0,0,1,.1-.5c.1-.2.1-.5.2-.7s.1-.3.2-.5a1.85,1.85,0,0,0,.2-.7c.1-.2.1-.3.2-.4l.6-1.5c0-.1.1-.1.1-.2l.6-1.2c.1-.1.1-.2.2-.3.2-.3.3-.6.5-.9.1-.1.1-.2.2-.3a10.54,10.54,0,0,1,.7-1.1c.1-.1.2-.3.3-.4a2.18,2.18,0,0,1,.4-.5c.2-.3.5-.6.7-.9s.3-.3.4-.5L19,56l.3-.3.6-.6.3-.3c.3-.3.6-.5.9-.8l.1-.1a7.63,7.63,0,0,1,1.1-.8c.1,0,.1-.1.2-.1.5-.3,1-.7,1.5-1h.1c.5-.3,1.1-.6,1.6-.9.1,0,.2-.1.3-.1.6-.3,1.2-.5,1.8-.8.1,0,.2-.1.3-.1.6-.2,1.3-.4,1.9-.6.1,0,.2-.1.3-.1a16,16,0,0,1,2.1-.5h.2a18.46,18.46,0,0,1,2.3-.4,13.66,13.66,0,0,1,1.9-.2h.5c.6,0,1.1-.1,1.6-.1h2.3c.5,0,1,.1,1.4.1h.3l1.6.3a.37.37,0,0,1,.3.1c.3.1.7.2,1,.3l.9.3a4.88,4.88,0,0,1,.7.3,3.55,3.55,0,0,1,.9.4c.3.2.7.3,1,.5-2.3-1.3-4.6-2.5-6.9-3.8l-.6-.3c-.1-.1-.3-.1-.4-.2-.3-.1-.6-.3-.9-.4s-.5-.2-.7-.3l-.9-.3c-.1,0-.3-.1-.4-.1s-.4-.1-.6-.1-.3-.1-.4-.1L36,44.6h-.3a5.7,5.7,0,0,0-1.3-.1H32a8.6,8.6,0,0,0-1.6.1h-.5c-.6.1-1.3.1-1.9.2a15.72,15.72,0,0,0-2.3.4h-.2c-.7.2-1.4.3-2.1.5-.1,0-.2.1-.3.1-.7.2-1.3.4-1.9.6-.1,0-.2.1-.3.1a14.17,14.17,0,0,0-1.8.8.1.1,0,0,0-.1.1c-.1,0-.1.1-.2.1-.5.3-1.1.5-1.6.8a.1.1,0,0,0-.1.1l-1.5.9a.35.35,0,0,1-.2.1.1.1,0,0,0-.1.1l-1.1.8-.2.2c-.3.2-.6.5-.9.7l-.1.1c-.1.1-.2.1-.2.2-.2.2-.4.3-.6.5l-.4.4c-.2.2-.3.4-.5.5l-.3.3c-.1.1-.2.2-.2.3a5.5,5.5,0,0,0-.7.9c-.1.1-.1.2-.2.3s-.3.4-.5.6h0a6.73,6.73,0,0,0-.7,1.1c-.1.1-.1.2-.2.3-.2.3-.3.5-.5.8,0,.1-.1.1-.1.2.1-.2.1-.1.1-.1l-.6,1.2c0,.1-.1.1-.1.2l-.6,1.5a.1.1,0,0,1-.1.1c0,.1-.1.2-.1.3a1.85,1.85,0,0,0-.2.7C6.2,61.9,6.2,62.1,6.1,62.2Z"/><path class="cls-2" d="M55.8,117.4l-6.9-3.8-27.2,3.8,4.9-7c1.1-1.5,2.6-3.6,4.5-6.4a8.65,8.65,0,0,0,.7-1c.3-.4.5-.8.8-1.2s.6-.9.9-1.3l1.2-1.8c.2-.4.5-.7.7-1.1l1.8-2.7c.1-.1.2-.3.3-.4.5-.7,1-1.5,1.4-2.2.2-.3.4-.7.6-1a13,13,0,0,1,1-1.5,8.79,8.79,0,0,1,.6-1c.3-.5.5-.9.8-1.4a8.79,8.79,0,0,1,.6-1c.2-.4.5-.8.7-1.3a4.67,4.67,0,0,0,.5-1l.3-.6a2.19,2.19,0,0,1,.3-.5l.6-1.2c.2-.3.3-.7.5-1a9.74,9.74,0,0,0,.5-1.1c.1-.3.3-.6.4-.9a9.29,9.29,0,0,1,.5-1c.1-.3.3-.6.4-.9s.3-.7.4-1c.1-.1.1-.3.2-.4a1.42,1.42,0,0,0,.2-.6.35.35,0,0,1,.1-.2,7.37,7.37,0,0,0,.4-1.4c0-.1.1-.2.1-.3l.3-1.2v-.2c.1-.4.1-.8.2-1.2v-.2c0-.4.1-.8.1-1.1,0-4.1-1.3-7.3-4-9.6a7.07,7.07,0,0,0-1.8-1.2l-6.9-3.8a9.39,9.39,0,0,1,1.8,1.2c2.7,2.2,4,5.4,4,9.6a4.1,4.1,0,0,1-.1,1.1v.1a5,5,0,0,1-.2,1.2v.2c-.1.4-.2.8-.3,1.3,0,.1,0,.2-.1.2-.1.5-.3.9-.4,1.4,0,.1,0,.1-.1.2-.1.4-.3.8-.4,1.2a3.55,3.55,0,0,1-.4.9c-.1.3-.3.6-.4.9s-.3.7-.4,1a9.25,9.25,0,0,1-.5,1,11.73,11.73,0,0,0-.5,1.1c-.2.3-.3.7-.5,1a10.91,10.91,0,0,1-.6,1.1l-.6,1.2c-.2.3-.3.6-.5.9-.3.5-.5.9-.8,1.4-.2.3-.3.6-.5.9-.3.5-.6,1-.9,1.6-.2.3-.3.5-.5.8-.4.6-.8,1.3-1.2,1.9a2.09,2.09,0,0,1-.4.6c-1.1,1.8-2.3,3.6-3.6,5.5-.1.1-.2.2-.2.3-.6.8-1.1,1.7-1.7,2.6-.2.2-.3.5-.5.7-.6.9-1.2,1.7-1.8,2.6-2,2.8-3.5,4.9-4.5,6.4L4,129.1l6.9,3.8L21.3,118l6.2,3.4Z"/><path class="cls-3" d="M6.1,62.2c-.1.3-.1.5-.2.8a4.33,4.33,0,0,1-.1.5c-.1.3-.1.5-.2.8a4.33,4.33,0,0,1-.1.5,2.2,2.2,0,0,0-.1.8,4.33,4.33,0,0,1-.1.5c0,.3-.1.6-.1.8a.9.9,0,0,1-.1.5,3.75,3.75,0,0,0-.1,1v.5a3.4,3.4,0,0,1-.1,1v1.9a4.14,4.14,0,0,0,.1,1c0,.5.1.8.1,1.1L12,77.7a4.91,4.91,0,0,0-.1-1.1c0-.5-.1-.8-.1-1v-2a2.77,2.77,0,0,1,.1-.9,1.27,1.27,0,0,1,.1-.6c0-.3.1-.5.1-.8s.1-.4.1-.6.1-.5.1-.8.1-.4.1-.6.1-.5.1-.8.1-.4.1-.6.1-.5.2-.7a4.33,4.33,0,0,1,.1-.5c.1-.2.1-.5.2-.7s.1-.3.2-.5a1.85,1.85,0,0,0,.2-.7c.1-.2.1-.3.2-.4l.6-1.5c0-.1.1-.1.1-.2l.6-1.2c.1-.1.1-.2.2-.3.2-.3.3-.6.5-.9.1-.1.1-.2.2-.3a10.54,10.54,0,0,1,.7-1.1c.1-.1.2-.3.3-.4a2.18,2.18,0,0,1,.4-.5c.2-.3.5-.6.7-.9s.3-.3.4-.5L19,56l.3-.3.6-.6.3-.3c.3-.3.6-.5.9-.8l.1-.1a7.63,7.63,0,0,1,1.1-.8c.1,0,.1-.1.2-.1.5-.3,1-.7,1.5-1h.1c.5-.3,1.1-.6,1.6-.9.1,0,.2-.1.3-.1.6-.3,1.2-.5,1.8-.8.1,0,.2-.1.3-.1.6-.2,1.3-.4,1.9-.6.1,0,.2-.1.3-.1a16,16,0,0,1,2.1-.5h.2a18.46,18.46,0,0,1,2.3-.4,13.66,13.66,0,0,1,1.9-.2h.5c.6,0,1.1-.1,1.6-.1h2.3c.5,0,1,.1,1.4.1h.3l1.6.3a.37.37,0,0,1,.3.1c.3.1.7.2,1,.3l.9.3a4.88,4.88,0,0,1,.7.3,3.55,3.55,0,0,1,.9.4c.3.2.7.3,1,.5-2.3-1.3-4.6-2.5-6.9-3.8l-.6-.3c-.1-.1-.3-.1-.4-.2-.3-.1-.6-.3-.9-.4s-.5-.2-.7-.3l-.9-.3c-.1,0-.3-.1-.4-.1s-.4-.1-.6-.1-.3-.1-.4-.1L36,44.6h-.3a5.7,5.7,0,0,0-1.3-.1H32a8.6,8.6,0,0,0-1.6.1h-.5c-.6.1-1.3.1-1.9.2a15.72,15.72,0,0,0-2.3.4h-.2c-.7.2-1.4.3-2.1.5-.1,0-.2.1-.3.1-.7.2-1.3.4-1.9.6-.1,0-.2.1-.3.1a14.17,14.17,0,0,0-1.8.8.1.1,0,0,0-.1.1c-.1,0-.1.1-.2.1-.5.3-1.1.5-1.6.8a.1.1,0,0,0-.1.1l-1.5.9a.35.35,0,0,1-.2.1.1.1,0,0,0-.1.1l-1.1.8-.2.2c-.3.2-.6.5-.9.7l-.1.1c-.1.1-.2.1-.2.2-.2.2-.4.3-.6.5l-.4.4c-.2.2-.3.4-.5.5l-.3.3c-.1.1-.2.2-.2.3a5.5,5.5,0,0,0-.7.9c-.1.1-.1.2-.2.3s-.3.4-.5.6h0a6.73,6.73,0,0,0-.7,1.1c-.1.1-.1.2-.2.3-.2.3-.3.5-.5.8,0,.1-.1.1-.1.2.1-.2.1-.1.1-.1l-.6,1.2c0,.1-.1.1-.1.2l-.6,1.5a.1.1,0,0,1-.1.1c0,.1-.1.2-.1.3a1.85,1.85,0,0,0-.2.7C6.2,61.9,6.2,62.1,6.1,62.2Z"/><path class="cls-4" d="M35.1,48.2c7.2-1,12.9.2,17,3.5s6.1,8.5,6.1,15.5A37.57,37.57,0,0,1,54,83.5c-2.8,5.8-7.7,13.3-14.7,22.6L27.6,121.4l28.2-4v9.1l-44.9,6.3,15.8-22.4c1.1-1.5,2.6-3.6,4.5-6.4C43.3,86.8,49.4,75.1,49.4,69c0-4.1-1.3-7.3-4-9.6S39.2,56.3,34.8,57c-4.7.7-8.3,2.6-10.8,5.8s-3.8,7.5-3.8,12.8v.9l-8.3,1.2a4.91,4.91,0,0,0-.1-1.1c0-.5-.1-.8-.1-1,0-7.6,2.1-13.8,6.2-18.6S27.7,49.2,35.1,48.2Z"/><g class="cls-5"><path class="cls-6" d="M77,125c-2,1.2-3,4.3-2.1,6.9l21.5,63.4c.9,2.6,3.3,3.8,5.3,2.6l74.2-42.8c2-1.2,3-4.3,2.1-6.9L156.5,84.8c-.9-2.6-3.3-3.8-5.3-2.6Z"/><g class="cls-5"><g class="cls-7"><path class="cls-8" d="M77,125c-2,1.2-3,4.3-2.1,6.9l21.5,63.5c.9,2.6,3.3,3.8,5.3,2.6l74.2-42.8c2-1.2,3-4.3,2.1-6.9L156.5,84.8c-.9-2.6-3.3-3.8-5.3-2.6L77,125"/></g></g><path class="cls-9" d="M77,125l74.2-42.8a3.69,3.69,0,0,1,1.7-.5l-2.8-.1a2.62,2.62,0,0,0-1.7.5L74.2,124.9c-2,1.2-3,4.3-2.1,6.9l21.5,63.4a4.07,4.07,0,0,0,3.6,3.1l2.8.1a4.07,4.07,0,0,1-3.6-3.1L74.9,131.9C74,129.3,74.9,126.2,77,125Z"/></g><polyline class="cls-10" points="78.6 130.3 153.1 87.3 174.3 149.9 99.8 192.8 78.6 130.3"/><path class="cls-11" d="M102.1,197.2c-2,1.2-2.1,3.1,0,4.3l49,28.5a8.05,8.05,0,0,0,7.4,0l74.2-42.8c2-1.2,2.1-3.1,0-4.3l-49-28.5a8.05,8.05,0,0,0-7.4,0Z"/><path class="cls-1" d="M102.1,197.2c-2,1.2-2.1,3.1,0,4.3l49,28.5a8.05,8.05,0,0,0,7.4,0l74.2-42.8c2-1.2,2.1-3.1,0-4.3l-49-28.5a8.05,8.05,0,0,0-7.4,0Z"/><path class="cls-11" d="M102.1,197.2c-2,1.2-2.1,3.1,0,4.3l49,28.5a8.05,8.05,0,0,0,7.4,0l74.2-42.8c2-1.2,2.1-3.1,0-4.3l-49-28.5a8.05,8.05,0,0,0-7.4,0l-74.2,42.8"/><path id="_Path_" data-name="&lt;Path&gt;" class="cls-12" d="M134.8,214.5,113,201.8a.89.89,0,0,1,0-1.6l68.6-39.6a2.12,2.12,0,0,1,1.9,0l21.8,12.7a.89.89,0,0,1,0,1.6l-68.6,39.6a1.64,1.64,0,0,1-1,.2A1.34,1.34,0,0,1,134.8,214.5Z"/><g class="cls-13"><g class="cls-5"><path class="cls-14" d="M113.2,199.9a.42.42,0,0,0,0,.8l21.9,12.7a1.71,1.71,0,0,0,1.4,0l68.6-39.6a.42.42,0,0,0,0-.8l-21.9-12.7a1.71,1.71,0,0,0-1.4,0Z"/><path class="cls-15" d="M205.4,173.4a.54.54,0,0,1-.3.4l-68.6,39.6a1.71,1.71,0,0,1-1.4,0l-21.9-12.7a.54.54,0,0,1-.3-.4v1.6a.54.54,0,0,0,.3.4L135.1,215a1.71,1.71,0,0,0,1.4,0l68.6-39.6a.54.54,0,0,0,.3-.4Z"/></g></g><path class="cls-16" d="M102,201.5,151,230a8.05,8.05,0,0,0,7.4,0l74.2-42.8a2.67,2.67,0,0,0,1.5-2.2v4.1a2.67,2.67,0,0,1-1.5,2.2L158.5,234a8.06,8.06,0,0,1-7.4,0l-49-28.5a2.66,2.66,0,0,1-1.5-2.1v-4.1A2.36,2.36,0,0,0,102,201.5Z"/><path class="cls-17" d="M156.8,205.3l33.3-19.2a3.07,3.07,0,0,1,2.8,0L210,196c.8.5.8,1.2,0,1.6l-33.3,19.2a3.07,3.07,0,0,1-2.8,0l-17.1-9.9c-.8-.4-.8-1.1,0-1.6"/><path class="cls-18" d="M209.3,172l-1.4.8a1.71,1.71,0,0,1-1.4,0l-25.9-15.1a.42.42,0,0,1,0-.8l1.4-.8a1.71,1.71,0,0,1,1.4,0l25.9,15.1a.42.42,0,0,1,0,.8"/><path class="cls-19" d="M104.9,200.7l1.4-.8a1.71,1.71,0,0,1,1.4,0L133.6,215a.42.42,0,0,1,0,.8l-1.4.8a1.71,1.71,0,0,1-1.4,0l-25.9-15.1c-.4-.3-.4-.6,0-.8"/><path class="cls-20" d="M109.1,198.2l68.6-39.6a1.71,1.71,0,0,1,1.4,0l1.4.8a.42.42,0,0,1,0,.8l-68.6,39.6a1.71,1.71,0,0,1-1.4,0l-1.4-.8a.42.42,0,0,1,0-.8"/><path class="cls-21" d="M151.1,82.2,77,125c-2,1.2-3,4.3-2.1,6.9l21.5,63.5Z"/><g class="cls-5"><path class="cls-22" d="M296.8,158.7c-2-1.2-4.8-1.1-7.9.6,0-.3.1-.6.1-.9a9.29,9.29,0,0,0-.5-2.9,6.51,6.51,0,0,1,4.2.7Z"/></g><path class="cls-23" d="M300.1,166.1c0,7.2-5,16.1-11.3,19.8v-4.1c4.3-2.6,7.8-8.7,7.7-13.7s-3.4-7-7.7-4.8v-4.1C295.1,156,300.1,159,300.1,166.1Z"/><path class="cls-24" d="M296.6,168.2c0,5-3.4,11-7.7,13.7v-6.5a17.41,17.41,0,0,0,3.5-9.6,7.62,7.62,0,0,0-.6-3.2,4,4,0,0,1,2.5.5C295.7,163.9,296.6,165.7,296.6,168.2Z"/><path class="cls-25" d="M285.3,158.4h0c0,6.8-10.2,9.8-16.9,9.8a24.77,24.77,0,0,1-12-2.9c-3.3-1.9-5-4.4-5-7h0c0-6.7,10.1-9.8,16.9-9.8S285.3,151.7,285.3,158.4Z"/><path class="cls-26" d="M253.8,163.3a11.84,11.84,0,0,0,2.7,2,24.77,24.77,0,0,0,12,2.9c4.8,0,11.2-1.5,14.6-4.8.2-.2-3.7-2.5-4.1-2.6-.7-.3-1.4-.4-2.1-.7a20.13,20.13,0,0,0-2.5-1.4,10.06,10.06,0,0,0-3,0c-1.5.2-2.8-.1-4.4,0a26.48,26.48,0,0,0-4.8.7,26,26,0,0,0-4.7,1.6A23.89,23.89,0,0,0,253.8,163.3Z"/><path class="cls-27" d="M288.9,158.5v.9h-.1A2.77,2.77,0,0,0,288.9,158.5Z"/><polygon class="cls-28" points="2.8 149.7 2.8 177.5 42.8 154.3 42.8 126.6 2.8 149.7"/><polygon class="cls-29" points="2.8 177.5 0 175.9 0 148.1 2.8 149.7 2.8 177.5"/><polygon class="cls-30" points="0 148.1 40.3 125.1 42.8 126.6 2.8 149.7 0 148.1"/><polygon class="cls-31" points="2.8 149.7 26.8 154.3 42.8 126.6 2.8 149.7"/><polygon class="cls-32" points="2.8 177.5 22.8 153.6 26.8 154.3 29.5 149.7 42.8 154.3 2.8 177.5"/><polygon class="cls-33" points="103.9 55.1 142 33.1 142 0 129.8 7.1 123 16.7 103.9 27.5 103.9 55.1"/><polygon class="cls-34" points="103.9 55.1 107.5 57.1 107.5 53 103.9 55.1"/><polygon class="cls-35" points="111.5 28.6 121 12.1 130.6 17.6 111.5 28.6"/><polygon class="cls-36" points="121 22.3 130.6 5.8 140.1 11.3 121 22.3"/><polygon class="cls-37" points="107.5 57.1 145.7 35.1 145.7 2 133.5 9.1 126.6 18.8 107.5 29.6 107.5 57.1"/><line class="cls-38" x1="130.5" y1="55.6" x2="130.5" y2="161.6"/><line class="cls-38" x1="106" y1="173.1" x2="31" y2="173.1"/><path class="cls-39" d="M290.4,184.1c-8.4-4.8-22-4.8-30.3,0s-8.3,12.7.1,17.6,22,4.9,30.3,0,8.3-12.8-.1-17.6"/><g class="cls-5"><path class="cls-40" d="M285.3,158.4h0c0,6.8-10.2,9.8-16.9,9.8a24.77,24.77,0,0,1-12-2.9c-3.3-1.9-5-4.4-5-7h0c0-6.7,10.1-9.8,16.9-9.8S285.3,151.7,285.3,158.4Z"/><path class="cls-41" d="M288.9,158.5l-.1,34.5c0,8.1-12.2,11.8-20.5,11.8s-20.6-3.7-20.6-11.9h0l.1-34.5h0c0,8.2,12.3,11.9,20.6,11.9S288.9,166.6,288.9,158.5Z"/><path class="cls-42" d="M268.3,146.5c8.3,0,20.6,3.7,20.6,11.9s-12.3,11.9-20.5,11.9-20.6-3.7-20.6-11.9S260.1,146.5,268.3,146.5Zm-11.8,18.8a24.77,24.77,0,0,0,12,2.9c6.7,0,16.9-3,16.9-9.8s-10.2-9.8-17-9.8-16.9,3-16.9,9.8c0,2.5,1.6,5,5,6.9"/></g><path class="cls-43" d="M254.2,150.7c-3.2-8.3,2.9-19.4-2.8-26.1-2.3-2.7-6-3.8-9-5.7a18.23,18.23,0,0,1-8.1-14.2,18.52,18.52,0,0,1,6.6-15c3.9-3.1,9-4.4,12.6-7.9,3.3-3.1,5-7.6,7-11.7s4.9-8.2,9.2-9.6c2.9-.9,6.1-.3,9,.7a20.6,20.6,0,0,1,7.5,4.5c7.3,7.4,5.8,21.3,14,27.5,4,3,9.4,3.4,13.8,5.9,6.5,3.8,9.7,12.7,7.1,19.9-2.2,6.1-7.7,10.3-13.5,12.9s-12,3.8-17.9,6.1a9.36,9.36,0,0,0-3.7,2.2c-2.3,2.4-2.1,6.2-3.2,9.3-1.5,4.2-5.2,7.1-8.7,9.7-1.5,1.1-4.9,4.9-6.7,4.9s-3.3-2.4-4.6-3.6C259.6,157.6,255.9,155,254.2,150.7Z"/></g></g></svg>