<svg xmlns="http://www.w3.org/2000/svg" xmlns:xlink="http://www.w3.org/1999/xlink" width="595.529" height="428.142" viewBox="0 0 595.529 428.142">
  <defs>
    <linearGradient id="linear-gradient" y1="0.5" x2="1" y2="0.5" gradientUnits="objectBoundingBox">
      <stop offset="0" stop-color="#ffef4a"/>
      <stop offset="0.859" stop-color="#f49918"/>
      <stop offset="1" stop-color="#f38b10"/>
    </linearGradient>
    <linearGradient id="linear-gradient-2" x1="0.994" y1="1.391" x2="0.015" y2="-0.494" gradientUnits="objectBoundingBox">
      <stop offset="0.187" stop-color="#330867" stop-opacity="0.251"/>
      <stop offset="0.653" stop-color="#330867" stop-opacity="0.075"/>
      <stop offset="1" stop-color="#330867" stop-opacity="0"/>
    </linearGradient>
    <linearGradient id="linear-gradient-3" x1="-28.101" y1="-0.013" x2="-29.553" y2="1.243" gradientUnits="objectBoundingBox">
      <stop offset="0" stop-color="#330867"/>
      <stop offset="0.79" stop-color="#30cfd0"/>
    </linearGradient>
    <linearGradient id="linear-gradient-4" x1="0" y1="0.5" x2="1" y2="0.5" xlink:href="#linear-gradient-3"/>
    <linearGradient id="linear-gradient-5" y1="0.5" x2="1" y2="0.5" gradientUnits="objectBoundingBox">
      <stop offset="0" stop-color="#1afffe"/>
      <stop offset="1" stop-color="#3688df" stop-opacity="0.486"/>
    </linearGradient>
    <linearGradient id="linear-gradient-6" x1="-304.871" y1="0.5" x2="-303.871" y2="0.5" gradientUnits="objectBoundingBox">
      <stop offset="0" stop-color="#30cfd0"/>
      <stop offset="1" stop-color="#330867"/>
    </linearGradient>
    <linearGradient id="linear-gradient-7" x1="-22.171" y1="0.5" x2="-21.171" y2="0.5" xlink:href="#linear-gradient-6"/>
    <linearGradient id="linear-gradient-8" x1="0.004" y1="0.5" x2="1.004" y2="0.5" xlink:href="#linear-gradient-3"/>
    <linearGradient id="linear-gradient-9" x1="0.002" y1="0.492" x2="0.999" y2="0.492" xlink:href="#linear-gradient-3"/>
    <linearGradient id="linear-gradient-10" x1="-0.008" y1="0.5" x2="0.997" y2="0.5" xlink:href="#linear-gradient-3"/>
    <linearGradient id="linear-gradient-11" x1="-22.173" y1="0.5" x2="-21.173" y2="0.5" gradientUnits="objectBoundingBox">
      <stop offset="0" stop-color="#330867"/>
      <stop offset="1" stop-color="#30cfd0"/>
    </linearGradient>
    <linearGradient id="linear-gradient-12" x1="-48.783" y1="0.5" x2="-47.783" y2="0.5" xlink:href="#linear-gradient"/>
    <linearGradient id="linear-gradient-13" x1="-71.246" y1="0.111" x2="-71.223" y2="0.789" xlink:href="#linear-gradient-5"/>
    <linearGradient id="linear-gradient-16" x1="-132.432" y1="0.219" x2="-134.091" y2="0.805" xlink:href="#linear-gradient-5"/>
    <linearGradient id="linear-gradient-17" x1="0" y1="0.5" x2="1" y2="0.5" xlink:href="#linear-gradient-5"/>
    <linearGradient id="linear-gradient-18" x1="-132.374" y1="0.198" x2="-134.032" y2="0.784" xlink:href="#linear-gradient-5"/>
    <linearGradient id="linear-gradient-20" x1="-132.316" y1="0.178" x2="-133.974" y2="0.764" xlink:href="#linear-gradient-5"/>
    <linearGradient id="linear-gradient-22" x1="-132.258" y1="0.157" x2="-133.916" y2="0.743" xlink:href="#linear-gradient-5"/>
    <linearGradient id="linear-gradient-24" x1="-132.2" y1="0.136" x2="-133.858" y2="0.723" xlink:href="#linear-gradient-5"/>
    <linearGradient id="linear-gradient-26" x1="-258.901" y1="-0.396" x2="-261.223" y2="0.96" xlink:href="#linear-gradient-5"/>
    <linearGradient id="linear-gradient-27" x1="-257.335" y1="-0.005" x2="-259.657" y2="1.352" xlink:href="#linear-gradient-5"/>
    <linearGradient id="linear-gradient-28" x1="-530.235" y1="0.5" x2="-529.235" y2="0.5" xlink:href="#linear-gradient-11"/>
    <linearGradient id="linear-gradient-29" x1="-484.905" y1="0.5" x2="-483.905" y2="0.5" xlink:href="#linear-gradient-11"/>
    <linearGradient id="linear-gradient-30" x1="-217.859" y1="0.5" x2="-216.859" y2="0.5" xlink:href="#linear-gradient-11"/>
    <linearGradient id="linear-gradient-33" y1="0.5" x2="1" y2="0.5" gradientUnits="objectBoundingBox">
      <stop offset="0" stop-color="#1affcf" stop-opacity="0.741"/>
      <stop offset="1" stop-color="#3688df"/>
    </linearGradient>
    <linearGradient id="linear-gradient-34" x1="0" y1="0.5" x2="1" y2="0.5" xlink:href="#linear-gradient-33"/>
    <linearGradient id="linear-gradient-38" x1="-0.001" y1="0.503" x2="0.999" y2="0.503" xlink:href="#linear-gradient-33"/>
    <linearGradient id="linear-gradient-39" x1="-0.002" y1="0.501" x2="0.996" y2="0.501" xlink:href="#linear-gradient-33"/>
    <linearGradient id="linear-gradient-40" x1="-0.002" y1="0.5" x2="1.002" y2="0.5" xlink:href="#linear-gradient-33"/>
    <linearGradient id="linear-gradient-41" x1="-0.002" y1="0.501" x2="1.002" y2="0.501" xlink:href="#linear-gradient-33"/>
    <linearGradient id="linear-gradient-42" x1="0" y1="0.5" x2="0.999" y2="0.5" xlink:href="#linear-gradient-33"/>
    <linearGradient id="linear-gradient-43" x1="0.001" y1="0.5" x2="0.999" y2="0.5" xlink:href="#linear-gradient-33"/>
    <linearGradient id="linear-gradient-45" x1="0" y1="0.5" x2="1" y2="0.5" xlink:href="#linear-gradient-33"/>
    <linearGradient id="linear-gradient-48" x1="-116.059" y1="0.5" x2="-115.059" y2="0.5" xlink:href="#linear-gradient-3"/>
    <linearGradient id="linear-gradient-49" x1="0" y1="0.5" x2="1" y2="0.5" xlink:href="#linear-gradient-11"/>
    <linearGradient id="linear-gradient-53" x1="-78.96" y1="249.638" x2="-177.275" y2="184.489" xlink:href="#linear-gradient-2"/>
    <linearGradient id="linear-gradient-54" x1="-78.994" y1="250.092" x2="-177.309" y2="184.943" xlink:href="#linear-gradient-2"/>
    <linearGradient id="linear-gradient-55" x1="-1.539" y1="3.071" x2="-0.712" y2="3.071" gradientUnits="objectBoundingBox">
      <stop offset="0" stop-color="#330867" stop-opacity="0"/>
      <stop offset="0.347" stop-color="#330867" stop-opacity="0.075"/>
      <stop offset="0.813" stop-color="#330867" stop-opacity="0.251"/>
    </linearGradient>
    <clipPath id="clip-path">
      <path id="Path_1041" data-name="Path 1041" d="M1040.58,460.434l-.026,9.211c-.613-.326-1.212-.659-1.8-1-10.153-5.862-16.716-13.813-17.582-22.643l.026-9.211c.866,8.83,7.429,16.781,17.582,22.643C1039.368,459.775,1039.967,460.108,1040.58,460.434Z" fill="url(#linear-gradient)"/>
    </clipPath>
    <linearGradient id="linear-gradient-71" x1="-548.56" y1="0.5" x2="-547.56" y2="0.5" xlink:href="#linear-gradient-11"/>
    <linearGradient id="linear-gradient-72" x1="-307.828" y1="0.5" x2="-306.828" y2="0.5" xlink:href="#linear-gradient-11"/>
    <linearGradient id="linear-gradient-73" x1="-456.545" y1="0.5" x2="-455.545" y2="0.5" xlink:href="#linear-gradient-11"/>
    <linearGradient id="linear-gradient-74" x1="-336.089" y1="0.5" x2="-335.089" y2="0.5" xlink:href="#linear-gradient-11"/>
    <linearGradient id="linear-gradient-75" x1="-402.241" y1="0.5" x2="-401.241" y2="0.5" xlink:href="#linear-gradient-11"/>
  </defs>
  <g id="Group_1" data-name="Group 1" transform="translate(-789.993 -178.173)">
    <path id="Path_834" data-name="Path 834" d="M1067.025,578.482c-9.532.147-277.032,16.512-277.032,16.512l325.244,11.321Z" opacity="0.5" fill="url(#linear-gradient-2)"/>
    <path id="Path_835" data-name="Path 835" d="M1375.572,473.86l-.03.054c-.061.111-.119.226-.185.332h0C1375.433,474.122,1375.5,473.99,1375.572,473.86Z" fill="none"/>
    <path id="Path_836" data-name="Path 836" d="M1373.014,476.573h0c-.172.1-.358.174-.54.257l.021-.011C1372.67,476.74,1372.849,476.668,1373.014,476.573Z" fill="none"/>
    <path id="Path_837" data-name="Path 837" d="M1376.073,472.77l-.033.083c-.073.186-.137.383-.22.558v0C1375.914,473.211,1375.99,472.986,1376.073,472.77Z" fill="none"/>
    <path id="Path_838" data-name="Path 838" d="M1376.461,471.525l-.039.148c-.053.2-.1.419-.16.613v0C1376.34,472.046,1376.4,471.782,1376.461,471.525Z" fill="none"/>
    <path id="Path_839" data-name="Path 839" d="M1376.86,468.171c0,.305-.025.59-.042.882-.011.2-.01.413-.029.608v0Q1376.858,468.947,1376.86,468.171Z" fill="none"/>
    <path id="Path_840" data-name="Path 840" d="M1376.723,470.115c-.012.09-.026.178-.039.266-.033.218-.055.445-.1.654v0C1376.646,470.743,1376.682,470.427,1376.723,470.115Z" fill="none"/>
    <path id="Path_841" data-name="Path 841" d="M1372.08,477.013h0c-.191.071-.4.117-.595.171l.024-.006C1371.7,477.125,1371.9,477.082,1372.08,477.013Z" fill="none"/>
    <path id="Path_842" data-name="Path 842" d="M1371.068,477.3h0c-.209.042-.428.058-.645.082l.026,0C1370.658,477.357,1370.869,477.343,1371.068,477.3Z" fill="none"/>
    <path id="Path_843" data-name="Path 843" d="M1165.753,284.318h0l-.005,0h0Z" fill="none"/>
    <path id="Path_844" data-name="Path 844" d="M1165.811,284.254h0c-.009.008-.015.021-.025.028h0C1165.8,284.274,1165.8,284.262,1165.811,284.254Z" fill="none"/>
    <path id="Path_845" data-name="Path 845" d="M1165.685,284.333h0l-.014,0h0Z" fill="none"/>
    <path id="Path_846" data-name="Path 846" d="M1368.835,477.413h0c-.241-.021-.492-.071-.74-.113h0C1368.346,477.342,1368.6,477.392,1368.835,477.413Z" fill="none"/>
    <path id="Path_847" data-name="Path 847" d="M1369.984,477.437h0c-.223.011-.457-.005-.688-.013h.02C1369.541,477.431,1369.768,477.448,1369.984,477.437Z" fill="none"/>
    <path id="Path_848" data-name="Path 848" d="M1376.449,478.813c-.151.146-.295.3-.455.435C1376.154,479.117,1376.3,478.959,1376.449,478.813Z" fill="none"/>
    <path id="Path_849" data-name="Path 849" d="M1165.52,284.365c-.016,0-.028.011-.044.009.016,0,.027-.009.043-.009Z" fill="none"/>
    <path id="Path_850" data-name="Path 850" d="M1161.9,358.869l0,0c-.147-.117-.292-.238-.438-.36l0,0Q1161.686,358.695,1161.9,358.869Z" fill="none"/>
    <path id="Path_851" data-name="Path 851" d="M1160.714,357.852l0,0c-.139-.127-.278-.253-.416-.384l0,0C1160.438,357.6,1160.576,357.726,1160.714,357.852Z" fill="none"/>
    <path id="Path_852" data-name="Path 852" d="M1163.114,359.769h0c-.134-.091-.264-.191-.4-.286l.005,0C1162.854,359.581,1162.983,359.679,1163.114,359.769Z" fill="none"/>
    <path id="Path_853" data-name="Path 853" d="M1159.192,356.353c.1.113.213.218.319.328l0,0c-.107-.111-.216-.217-.322-.331Z" fill="none"/>
    <path id="Path_854" data-name="Path 854" d="M1363.617,380.02l.06.023c.072.031.142.054.215.087h0C1363.8,380.088,1363.709,380.058,1363.617,380.02Z" fill="none"/>
    <path id="Path_855" data-name="Path 855" d="M1366.37,476.875h0c-.33-.112-.668-.256-1.006-.4l.028.011C1365.721,476.625,1366.049,476.766,1366.37,476.875Z" fill="none"/>
    <path id="Path_856" data-name="Path 856" d="M1164.349,360.554l199.375,115.1q.68.393,1.342.7h0q-.662-.3-1.342-.7l-199.375-115.1-.026-.016.018.011Z" fill="none"/>
    <path id="Path_857" data-name="Path 857" d="M1367.34,477.148c-.183-.045-.369-.1-.555-.156l.017,0C1366.982,477.05,1367.163,477.1,1367.34,477.148Z" fill="none"/>
    <path id="Path_858" data-name="Path 858" d="M1162.724,359.487l-.005,0c-.273-.2-.545-.4-.813-.613l0,0C1162.174,359.084,1162.448,359.288,1162.724,359.487Z" fill="#f8d9d7"/>
    <path id="Path_859" data-name="Path 859" d="M1159.192,356.353c-.229-.246-.449-.5-.671-.761.222.257.442.516.671.761Z" fill="#f8d9d7"/>
    <path id="Path_860" data-name="Path 860" d="M1160.3,357.472l0,0c-.266-.254-.527-.518-.786-.786l0,0C1159.771,356.951,1160.034,357.216,1160.3,357.472Z" fill="#f8d9d7"/>
    <path id="Path_861" data-name="Path 861" d="M1161.471,358.513l0,0q-.38-.318-.752-.657l0,0Q1161.088,358.193,1161.471,358.513Z" fill="#f8d9d7"/>
    <path id="Path_862" data-name="Path 862" d="M1164.341,360.549l-.018-.011c-.407-.236-.809-.495-1.207-.768h0C1163.518,360.046,1163.927,360.31,1164.341,360.549Z" fill="#f8d9d7"/>
    <path id="Path_863" data-name="Path 863" d="M1165.671,284.335h0a.47.47,0,0,1-.151.029h0A.446.446,0,0,0,1165.671,284.335Z" fill="#f9fafb"/>
    <path id="Path_864" data-name="Path 864" d="M1165.874,284.183c-.009.012-.019.022-.028.033s-.022.026-.034.037h0A.482.482,0,0,0,1165.874,284.183Z" fill="#f9fafb"/>
    <path id="Path_865" data-name="Path 865" d="M1166.01,283.761a.774.774,0,0,1-.047.237.909.909,0,0,1-.022.11h0A.816.816,0,0,0,1166.01,283.761Z" fill="#f9fafb"/>
    <path id="Path_866" data-name="Path 866" d="M1165.749,284.32h0c-.019.01-.044.005-.064.013h0C1165.7,284.325,1165.731,284.33,1165.749,284.32Z" fill="#f9fafb"/>
    <path id="Path_867" data-name="Path 867" d="M1165.786,284.281h0c-.013.01-.019.029-.033.037h0C1165.767,284.31,1165.774,284.291,1165.786,284.281Z" fill="#f9fafb"/>
    <path id="Path_868" data-name="Path 868" d="M1158.259,270.69h0Z" fill="#fff" opacity="0.535"/>
    <path id="Path_869" data-name="Path 869" d="M1158.359,270.576a.531.531,0,0,1-.062.071c-.015.011-.022.034-.038.043h0A.481.481,0,0,0,1158.359,270.576Z" fill="#fff" opacity="0.535"/>
    <g id="Group_957" data-name="Group 957" opacity="0.535">
      <path id="Path_871" data-name="Path 871" d="M1156.535,268.978a2.423,2.423,0,0,0,1.1,1.909c.609.352,1.108.075,1.11-.632a2.437,2.437,0,0,0-1.1-1.91C1157.036,267.994,1156.537,268.278,1156.535,268.978Zm1.371,1.754a.79.79,0,0,1-.091-.02.79.79,0,0,0,.091.02Zm-1.141-1.621V269.1a.86.86,0,0,1,.051-.288l.007,0c0,.006,0,.014,0,.02a.5.5,0,0,1,.2-.284h0a33.484,33.484,0,0,1,.279-.054.85.85,0,0,1,.342.117,1.923,1.923,0,0,1,.873,1.513.629.629,0,0,1-.22.525c-.015.011-.022.034-.038.043h0a.614.614,0,0,1-.621-.06A1.931,1.931,0,0,1,1156.765,269.111Z" fill="#fff"/>
    </g>
    <path id="Path_872" data-name="Path 872" d="M1165.2,263.664h0a1.918,1.918,0,0,1,.867,1.509h0A1.926,1.926,0,0,0,1165.2,263.664Z" fill="#fff" opacity="0.535"/>
    <path id="Path_873" data-name="Path 873" d="M1164.763,263.564a.138.138,0,0,0,.02,0c.025,0,.044-.016.07-.013h0C1164.819,263.543,1164.8,263.561,1164.763,263.564Z" fill="#fff" opacity="0.535"/>
    <path id="Path_874" data-name="Path 874" d="M1164.575,263.6Z" fill="#fff" opacity="0.535"/>
    <path id="Path_875" data-name="Path 875" d="M1164.783,263.56a.138.138,0,0,1-.02,0c.032,0,.056-.021.09-.017h0a.844.844,0,0,1,.343.117h0a1.926,1.926,0,0,1,.867,1.51h0l-.052,18.588a.8.8,0,0,1-.048.237.774.774,0,0,0,.047-.237.816.816,0,0,1-.069.347h0a.45.45,0,0,1-.1.108c.009-.011.019-.021.028-.033a.482.482,0,0,1-.063.071c-.009.008-.015.02-.025.027s-.019.029-.033.037l0,0c-.018.01-.044.005-.064.013l-.014,0a.446.446,0,0,1-.152.03c-.016,0-.027.011-.043.009a.835.835,0,0,1-.339-.116,1.943,1.943,0,0,1-.8-1.078,1.481,1.481,0,0,1-.068-.427l.053-18.588a.613.613,0,0,1,.258-.564h0A.469.469,0,0,1,1164.783,263.56Z" fill="#fff" opacity="0.535"/>
    <path id="Path_876" data-name="Path 876" d="M1165.292,255.327h0Z" fill="#fff" opacity="0.535"/>
    <path id="Path_877" data-name="Path 877" d="M1165.6,255.395h0Z" fill="#fff" opacity="0.535"/>
    <path id="Path_878" data-name="Path 878" d="M1166.128,255.29l0,0,0,0Z" fill="#fff" opacity="0.535"/>
    <path id="Path_879" data-name="Path 879" d="M1166.075,255.311a.673.673,0,0,1-.089.033h0A.6.6,0,0,0,1166.075,255.311Z" fill="#fff" opacity="0.535"/>
    <path id="Path_880" data-name="Path 880" d="M1165.883,255.382h0a1.061,1.061,0,0,1-.171.008h0A1.049,1.049,0,0,0,1165.883,255.382Z" fill="#fff" opacity="0.535"/>
    <path id="Path_881" data-name="Path 881" d="M1164.556,251.225c.02.006.038.006.059.013l.022,0h0C1164.609,251.233,1164.583,251.233,1164.556,251.225Z" fill="#fff" opacity="0.535"/>
    <path id="Path_882" data-name="Path 882" d="M1164.22,251.18h.009c.033,0,.064-.008.1,0h0C1164.29,251.172,1164.257,251.18,1164.22,251.18Z" fill="#fff" opacity="0.535"/>
    <path id="Path_883" data-name="Path 883" d="M1166.611,254.239a1.893,1.893,0,0,1-.035.359h0A1.893,1.893,0,0,0,1166.611,254.239Z" fill="#fff" opacity="0.535"/>
    <path id="Path_884" data-name="Path 884" d="M1165.375,255.345c-.028-.007-.054-.008-.083-.018h0C1165.321,255.337,1165.347,255.338,1165.375,255.345Z" fill="#fff" opacity="0.535"/>
    <path id="Path_885" data-name="Path 885" d="M1166.42,254.989v0a1.109,1.109,0,0,1-.091.137h0A.987.987,0,0,0,1166.42,254.989Z" fill="#fff" opacity="0.535"/>
    <path id="Path_886" data-name="Path 886" d="M1165.988,255.343h0a.9.9,0,0,1-.1.038h0A.88.88,0,0,0,1165.988,255.343Z" fill="#fff" opacity="0.535"/>
    <path id="Path_887" data-name="Path 887" d="M1166.544,254.7l0,.008a1.434,1.434,0,0,1-.061.188h0A1.4,1.4,0,0,0,1166.544,254.7Z" fill="#fff" opacity="0.535"/>
    <path id="Path_888" data-name="Path 888" d="M1166.243,255.2l0,0a.742.742,0,0,1-.113.09h0A.833.833,0,0,0,1166.243,255.2Z" fill="#fff" opacity="0.535"/>
    <path id="Path_889" data-name="Path 889" d="M1165.713,255.39h0a.99.99,0,0,1-.11.005h0A.809.809,0,0,0,1165.713,255.39Z" fill="#fff" opacity="0.535"/>
    <path id="Path_890" data-name="Path 890" d="M1166.611,254.239a1.893,1.893,0,0,1-.035.359h0c-.008.041-.024.072-.035.11l0-.008a1.4,1.4,0,0,1-.064.2h0c-.017.036-.042.062-.061.1v0a.987.987,0,0,1-.092.139h0a.847.847,0,0,1-.087.072l0,0a.833.833,0,0,1-.115.092l0,0c-.015.008-.033.01-.049.017a.6.6,0,0,1-.087.032.88.88,0,0,1-.1.039,1.049,1.049,0,0,1-.17.008.809.809,0,0,1-.111.005h0a1.376,1.376,0,0,1-.224-.05c-.028-.007-.054-.008-.083-.018h0a1.857,1.857,0,0,1-.331-.152,3.6,3.6,0,0,1-1.635-2.833c0-.739.371-1.157.905-1.161h-.009c.037,0,.07-.008.108,0h0a1.327,1.327,0,0,1,.287.063c-.021-.007-.039-.007-.059-.013.027.008.053.008.081.018h0a1.9,1.9,0,0,1,.332.153A3.613,3.613,0,0,1,1166.611,254.239Z" fill="#fff" opacity="0.535"/>
    <path id="Path_891" data-name="Path 891" d="M1371.511,477.178l-.024.006c-.14.038-.273.089-.417.118h0C1371.221,477.271,1371.363,477.218,1371.511,477.178Z" fill="#f8d9d7"/>
    <path id="Path_892" data-name="Path 892" d="M1370.451,477.38l-.026,0c-.147.016-.289.045-.44.053h0C1370.144,477.429,1370.3,477.4,1370.451,477.38Z" fill="#f8d9d7"/>
    <path id="Path_893" data-name="Path 893" d="M1369.317,477.424h-.02c-.154-.005-.3,0-.461-.011h0C1369,477.428,1369.156,477.419,1369.317,477.424Z" fill="#f8d9d7"/>
    <path id="Path_894" data-name="Path 894" d="M1365.392,476.484l-.028-.011c-.1-.044-.2-.074-.3-.12h0C1365.177,476.4,1365.283,476.437,1365.392,476.484Z" fill="#f8d9d7"/>
    <path id="Path_895" data-name="Path 895" d="M1368.1,477.3c-.086-.014-.171-.023-.258-.04.089.017.174.026.262.041Z" fill="#f8d9d7"/>
    <path id="Path_896" data-name="Path 896" d="M1374.97,474.8l-.03.039c-.109.144-.211.3-.329.43h0C1374.739,475.124,1374.851,474.957,1374.97,474.8Z" fill="#f8d9d7"/>
    <path id="Path_897" data-name="Path 897" d="M1373.465,476.265l-.023.015c-.142.1-.277.207-.427.293h0C1373.172,476.482,1373.316,476.369,1373.465,476.265Z" fill="#f8d9d7"/>
    <path id="Path_898" data-name="Path 898" d="M1366.8,477l-.017,0c-.139-.042-.274-.069-.415-.117h0C1366.517,476.925,1366.657,476.953,1366.8,477Z" fill="#f8d9d7"/>
    <path id="Path_899" data-name="Path 899" d="M1375.357,474.246h0c-.031.051-.057.11-.089.16v0C1375.3,474.357,1375.325,474.3,1375.357,474.246Z" fill="#f8d9d7"/>
    <path id="Path_900" data-name="Path 900" d="M1374.267,475.6l-.027.026c-.127.122-.247.254-.382.364h0C1374,475.874,1374.131,475.733,1374.267,475.6Z" fill="#f8d9d7"/>
    <path id="Path_901" data-name="Path 901" d="M1372.5,476.819l-.021.011c-.132.059-.257.132-.393.183h0C1372.225,476.959,1372.357,476.883,1372.5,476.819Z" fill="#f8d9d7"/>
    <path id="Path_902" data-name="Path 902" d="M1352.325,463.018,1176.932,361.76l.458-161.742,175.393,101.258Z" fill="url(#linear-gradient-3)"/>
    <path id="Path_903" data-name="Path 903" d="M1341.88,307.55l-153.658-88.71-.387,88.492,153.658,88.711Z" fill="url(#linear-gradient-4)"/>
    <path id="Path_904" data-name="Path 904" d="M1301.879,284.457l40,23.094-.387,88.492-39.615-22.87Z" fill="url(#linear-gradient-5)"/>
    <path id="Path_905" data-name="Path 905" d="M1371.568,396.3c-.019.041-.032.087-.051.128h0C1371.536,396.391,1371.549,396.345,1371.568,396.3Z" fill="#4c3437"/>
    <path id="Path_906" data-name="Path 906" d="M1355.891,384.07c-.015,5.555,3.887,12.314,8.716,15.1s8.763.553,8.778-5-3.893-12.311-8.721-15.1S1355.907,378.522,1355.891,384.07Zm16.22,9.364a7.191,7.191,0,0,1-.543,2.87c-.019.041-.032.087-.051.128-1.142,2.435-3.808,3.065-6.906,1.276a16.418,16.418,0,0,1-7.452-12.906c.013-4.358,2.854-6.318,6.518-4.759.072.031.142.054.215.087.253.116.508.249.767.4A16.428,16.428,0,0,1,1372.111,393.434Z" fill="url(#linear-gradient-6)"/>
    <g id="Group_958" data-name="Group 958" opacity="0.535">
      <path id="Path_907" data-name="Path 907" d="M1162.894,252.094a4.546,4.546,0,0,0,2.063,3.572c1.144.66,2.079.135,2.083-1.179a4.574,4.574,0,0,0-2.069-3.584C1163.827,250.243,1162.9,250.78,1162.894,252.094Zm3.717,2.145a1.893,1.893,0,0,1-.035.359c-.008.041-.024.072-.035.11a1.434,1.434,0,0,1-.061.188c-.017.036-.042.062-.061.1a1.109,1.109,0,0,1-.091.137.847.847,0,0,1-.087.072.742.742,0,0,1-.113.09l0,0c-.015.008-.033.01-.049.017a.673.673,0,0,1-.089.033.9.9,0,0,1-.1.038,1.061,1.061,0,0,1-.171.008.99.99,0,0,1-.11.005h0a1.376,1.376,0,0,1-.224-.05c-.028-.007-.054-.008-.083-.018h0a1.857,1.857,0,0,1-.331-.152,3.6,3.6,0,0,1-1.635-2.833c0-.739.371-1.157.905-1.161.033,0,.064-.008.1,0a1.327,1.327,0,0,1,.287.063l.022,0a1.9,1.9,0,0,1,.332.153A3.613,3.613,0,0,1,1166.611,254.239Z" fill="#fff"/>
    </g>
    <path id="Path_908" data-name="Path 908" d="M1374.438,308.847a31.4,31.4,0,0,0-10.212-10.2l-155.865-89.984,155.865,89.983A31.413,31.413,0,0,1,1374.438,308.847Z" fill="#f9fafb"/>
    <path id="Path_909" data-name="Path 909" d="M1376.861,468.171h0c0,.306-.026.59-.043.882.017-.292.041-.577.042-.882Z" fill="#f9fafb"/>
    <path id="Path_910" data-name="Path 910" d="M1375.819,473.413v0c-.084.179-.185.336-.278.5l.03-.054C1375.654,473.71,1375.745,473.572,1375.819,473.413Z" fill="#f9fafb"/>
    <path id="Path_911" data-name="Path 911" d="M1376.587,471.038v0c-.045.223-.109.426-.165.638l.039-.148C1376.5,471.361,1376.552,471.208,1376.587,471.038Z" fill="#f9fafb"/>
    <path id="Path_912" data-name="Path 912" d="M1376.261,472.288v0c-.064.2-.147.378-.222.567l.033-.083C1376.135,472.608,1376.207,472.458,1376.261,472.288Z" fill="#f9fafb"/>
    <path id="Path_913" data-name="Path 913" d="M1376.789,469.664v0c-.024.251-.069.481-.1.72.013-.088.027-.176.039-.266C1376.742,469.962,1376.773,469.821,1376.789,469.664Z" fill="#f9fafb"/>
    <path id="Path_914" data-name="Path 914" d="M1374.61,475.269h0c-.116.13-.247.239-.371.359l.027-.026C1374.381,475.49,1374.5,475.39,1374.61,475.269Z" fill="#f9fafb"/>
    <path id="Path_915" data-name="Path 915" d="M1375.267,474.408v0c-.1.155-.218.288-.328.432l.03-.039C1375.068,474.668,1375.175,474.548,1375.267,474.408Z" fill="#f9fafb"/>
    <path id="Path_916" data-name="Path 916" d="M1373.857,475.992h0c-.131.108-.277.193-.416.289l.023-.015C1373.6,476.174,1373.733,476.093,1373.857,475.992Z" fill="#f9fafb"/>
    <path id="Path_917" data-name="Path 917" d="M1370.926,307.84c3.806,4.834,6.358,11.1,6.342,16.576h0C1377.284,318.941,1374.732,312.675,1370.926,307.84Z" fill="#f9fafb"/>
    <path id="Path_918" data-name="Path 918" d="M1369.709,306.393c-.135-.151-.265-.31-.4-.457C1369.444,306.083,1369.574,306.242,1369.709,306.393Z" fill="#f9fafb"/>
    <path id="Path_919" data-name="Path 919" d="M1377.268,324.416h0l-.408,143.755h0Z" fill="#f8d9d7"/>
    <path id="Path_920" data-name="Path 920" d="M1148.532,336.353c-.029,10.068,7.052,22.323,15.808,27.379l199.375,115.1c4.667,2.694,8.857,2.779,11.77.767.17-.117.348-.222.509-.354s.3-.289.455-.435.314-.281.456-.441.263-.343.394-.514.277-.34.4-.53.219-.392.329-.589.237-.4.34-.616.173-.442.26-.662.195-.455.274-.7.129-.5.194-.744.145-.5.2-.773c.028-.144.04-.3.066-.451.021-.126.038-.256.056-.385.041-.277.094-.542.121-.831s.028-.578.042-.867c.016-.313.044-.615.045-.94l.408-143.755h0c.015-5.583-2.163-11.837-5.6-17.166a31.4,31.4,0,0,0-10.212-10.2l-155.865-89.984-43.51-25.12h0q-.823-.476-1.627-.844c-.2-.09-.386-.152-.58-.233-.335-.139-.672-.288-1-.4-.23-.079-.453-.127-.68-.192-.282-.081-.569-.176-.845-.236-.235-.052-.46-.072-.69-.108-.258-.041-.521-.1-.772-.119-.231-.021-.45-.011-.675-.016s-.484-.026-.717-.014-.433.051-.65.078-.448.04-.662.083-.409.114-.613.172-.416.1-.613.177-.377.174-.564.262-.386.166-.567.27c-2.864,1.646-4.642,5.166-4.657,10.18Zm10.66,20c-.229-.246-.449-.5-.671-.761-4.291-4.951-7.24-11.755-7.224-17.643h0l.408-143.755h0c.012-4.135,1.482-7.042,3.848-8.4.155-.089.323-.155.485-.23s.293-.151.449-.209.353-.1.531-.154c.16-.045.315-.1.481-.135.186-.038.383-.05.576-.073.169-.02.333-.053.508-.062.2-.01.409.007.614.012.179.005.352,0,.535.012.215.019.44.066.662.1.182.029.359.044.544.084.244.054.5.136.746.209.172.049.339.084.512.143.29.1.588.229.884.354.141.059.278.1.42.168q.662.3,1.342.7h0l88.695,51.205,110.68,63.9a22.551,22.551,0,0,1,5.089,4.124c.138.147.268.306.4.457.419.466.823.949,1.217,1.447,3.806,4.834,6.358,11.1,6.342,16.576h0l-.407,143.755h0c0,.306-.026.59-.043.882-.011.2-.01.413-.029.608-.024.251-.069.481-.1.72-.033.218-.055.445-.1.654s-.109.426-.165.638-.1.419-.16.613-.147.378-.222.567-.137.383-.22.558-.185.336-.278.5c-.061.111-.119.226-.185.332-.031.051-.057.11-.089.16-.1.155-.218.288-.328.432s-.211.3-.329.43-.247.239-.371.359-.247.254-.382.364-.277.193-.416.289-.277.207-.427.293c-.172.1-.358.174-.54.257-.132.059-.257.132-.393.183-.191.071-.4.117-.595.171-.14.038-.273.089-.417.118-.209.042-.428.058-.645.082-.147.016-.289.045-.44.053-.223.011-.457-.005-.688-.013-.154-.005-.3,0-.461-.011-.241-.021-.492-.071-.74-.113-.086-.014-.171-.023-.258-.04-.164-.032-.33-.071-.5-.112s-.369-.1-.555-.156c-.139-.042-.274-.069-.415-.117-.33-.112-.668-.256-1.006-.4-.1-.044-.2-.074-.3-.12q-.662-.3-1.342-.7l-199.375-115.1-.026-.016c-.407-.236-.809-.495-1.207-.768-.134-.091-.264-.191-.4-.286-.273-.2-.545-.4-.813-.613-.147-.117-.292-.238-.438-.36q-.38-.318-.752-.657c-.139-.127-.278-.253-.416-.384-.266-.254-.527-.518-.786-.786C1159.407,356.573,1159.3,356.467,1159.192,356.353Z" fill="url(#linear-gradient-7)"/>
    <path id="Path_921" data-name="Path 921" d="M1156.824,268.81l-.007,0a.875.875,0,0,0-.048.276l0,.012a.86.86,0,0,1,.051-.288l.007,0c0,.006,0,.014,0,.02a.743.743,0,0,0-.017.086C1156.812,268.882,1156.812,268.841,1156.824,268.81Z" fill="url(#linear-gradient-8)"/>
    <path id="Path_922" data-name="Path 922" d="M1157.815,270.712a.79.79,0,0,0,.091.02h0A.79.79,0,0,1,1157.815,270.712Z" fill="url(#linear-gradient-9)"/>
    <path id="Path_923" data-name="Path 923" d="M1156.824,268.81c-.012.031-.012.072-.021.106a.758.758,0,0,0-.034.174.875.875,0,0,1,.048-.276Z" fill="url(#linear-gradient-10)"/>
    <path id="Path_924" data-name="Path 924" d="M1156.769,269.09a.758.758,0,0,1,.034-.174.743.743,0,0,1,.017-.086.5.5,0,0,1,.2-.284h0a33.484,33.484,0,0,1,.279-.054.85.85,0,0,1,.342.117,1.923,1.923,0,0,1,.873,1.513.629.629,0,0,1-.22.525.531.531,0,0,0,.062-.071.481.481,0,0,1-.1.114h0a.614.614,0,0,1-.621-.06,1.931,1.931,0,0,1-.873-1.519V269.1Z" fill="#fff" opacity="0.535"/>
    <path id="Path_925" data-name="Path 925" d="M1376.449,478.813c.153-.147.314-.281.456-.441s.263-.343.394-.514.277-.34.4-.53.219-.392.329-.589.237-.4.34-.616.173-.442.26-.662.195-.455.274-.7.129-.5.194-.744.145-.5.2-.773c.028-.144.041-.3.066-.451.022-.126.038-.257.056-.385.041-.277.094-.542.121-.831s.028-.578.042-.867c.016-.313.044-.615.045-.94l.408-143.755h0c.015-5.583-2.163-11.837-5.6-17.166a31.413,31.413,0,0,0-10.212-10.206l-155.865-89.983-43.51-25.12h0q-.823-.476-1.627-.844c-.2-.09-.386-.152-.58-.233-.335-.139-.672-.288-1-.4-.231-.079-.453-.127-.68-.192-.282-.081-.569-.176-.845-.236-.235-.052-.46-.072-.69-.108-.258-.041-.521-.1-.772-.119-.231-.021-.45-.011-.675-.016s-.484-.026-.717-.014-.433.051-.65.078-.448.04-.662.083-.409.114-.613.172-.416.1-.613.177-.376.174-.564.262-.386.166-.567.27l-.033.015,5.489-3.189c2.884-1.676,6.879-1.44,11.287,1.1l199.375,115.1c8.756,5.055,15.836,17.311,15.808,27.372l-.408,143.754c-.014,5-1.779,8.518-4.626,10.172L1375,479.94c.17-.1.323-.226.485-.338s.348-.222.509-.354S1376.3,478.959,1376.449,478.813Z" fill="url(#linear-gradient-11)"/>
    <g id="Group_959" data-name="Group 959">
      <path id="Path_926" data-name="Path 926" d="M1242.921,281.441l-26.137,24.106-3.3-8.917-3.064,4.288-10.468-24.845-2.681,36.69,104.611,60.394-12.456-59.77L1278.538,336.9l-8.829-15.457-6.387,2.369Z" fill="url(#linear-gradient-12)"/>
    </g>
    <g id="Group_964" data-name="Group 964">
      <g id="Group_960" data-name="Group 960">
        <path id="Path_927" data-name="Path 927" d="M1131.222,199.734l68.629,39.247-.169,197.317-68.629-39.247Z" fill="url(#linear-gradient-13)"/>
        <path id="Path_928" data-name="Path 928" d="M1200.84,435.626l-1.158.673.169-197.317,1.158-.673Z" fill="url(#linear-gradient-5)"/>
        <path id="Path_929" data-name="Path 929" d="M1201.008,238.309l-1.158.673-68.629-39.247,1.158-.673Z" fill="url(#linear-gradient-5)"/>
      </g>
      <path id="Path_930" data-name="Path 930" d="M1135.015,206.369h0a2.628,2.628,0,0,0,1.192,2.064c.66.381,1.2.075,1.2-.684a2.621,2.621,0,0,0-1.192-2.06h0C1135.554,205.309,1135.017,205.611,1135.015,206.369Z" fill="#f9543e"/>
      <path id="Path_931" data-name="Path 931" d="M1139.223,208.87h0a2.627,2.627,0,0,0,1.192,2.064c.66.381,1.193.073,1.2-.686h0a2.614,2.614,0,0,0-1.188-2.057h0C1139.762,207.81,1139.225,208.112,1139.223,208.87Z" fill="#ffd13e"/>
      <path id="Path_932" data-name="Path 932" d="M1146.026,212.866a2.61,2.61,0,0,0-1.188-2.057h0c-.661-.381-1.2-.08-1.2.679h0a2.627,2.627,0,0,0,1.192,2.064c.66.382,1.193.073,1.2-.685Z" fill="#6be726"/>
      <g id="Group_961" data-name="Group 961">
        <path id="Path_933" data-name="Path 933" d="M1178.6,273.339l6.763,3.9-.1,33.613-6.763-3.9Z" fill="#fff"/>
        <path id="Path_934" data-name="Path 934" d="M1167.589,276.061l6.763,3.9-.069,24.549-3.208-1.852-3.555-2.052Z" fill="#fff"/>
        <path id="Path_935" data-name="Path 935" d="M1156.526,294.263l.047-16.6,6.763,3.9-.047,16.6-4.6-2.655Z" fill="#fff"/>
        <path id="Path_936" data-name="Path 936" d="M1145.567,278.128l6.763,3.9-.028,9.792-6.763-3.9Z" fill="#fff"/>
      </g>
      <g id="Group_962" data-name="Group 962">
        <path id="Path_937" data-name="Path 937" d="M1148.448,349.559l-.009,3.29,36.916,21.312.009-3.29Z" fill="url(#linear-gradient-16)"/>
        <path id="Path_938" data-name="Path 938" d="M1145.585,347.906c-.781-.451-1.434-.1-1.436.819a3.178,3.178,0,0,0,1.427,2.471h0c.8.46,1.434.079,1.436-.818A3.122,3.122,0,0,0,1145.585,347.906Z" fill="url(#linear-gradient-17)"/>
        <path id="Path_939" data-name="Path 939" d="M1148.448,359.191l-.009,3.29,36.916,21.312.009-3.29Z" fill="url(#linear-gradient-18)"/>
        <path id="Path_940" data-name="Path 940" d="M1145.585,357.538c-.781-.451-1.434-.1-1.436.819a3.178,3.178,0,0,0,1.427,2.471h0c.8.46,1.434.078,1.436-.819A3.122,3.122,0,0,0,1145.585,357.538Z" fill="url(#linear-gradient-17)"/>
        <path id="Path_941" data-name="Path 941" d="M1148.448,368.824l-.009,3.29,36.916,21.312.009-3.29Z" fill="url(#linear-gradient-20)"/>
        <path id="Path_942" data-name="Path 942" d="M1145.585,367.171c-.781-.451-1.434-.1-1.436.818a3.178,3.178,0,0,0,1.427,2.471h0c.8.46,1.434.078,1.436-.819A3.12,3.12,0,0,0,1145.585,367.171Z" fill="url(#linear-gradient-17)"/>
        <path id="Path_943" data-name="Path 943" d="M1148.448,378.456l-.009,3.29,36.916,21.312.009-3.29Z" fill="url(#linear-gradient-22)"/>
        <path id="Path_944" data-name="Path 944" d="M1145.585,376.8c-.781-.451-1.434-.1-1.436.818a3.178,3.178,0,0,0,1.427,2.472h0c.8.46,1.434.079,1.436-.819A3.12,3.12,0,0,0,1145.585,376.8Z" fill="url(#linear-gradient-17)"/>
        <path id="Path_945" data-name="Path 945" d="M1148.448,388.088l-.009,3.29,36.916,21.312.009-3.29Z" fill="url(#linear-gradient-24)"/>
        <path id="Path_946" data-name="Path 946" d="M1145.585,386.435c-.781-.451-1.434-.1-1.436.819a3.178,3.178,0,0,0,1.427,2.471h0c.8.46,1.434.078,1.436-.819A3.122,3.122,0,0,0,1145.585,386.435Z" fill="url(#linear-gradient-17)"/>
      </g>
      <g id="Group_963" data-name="Group 963">
        <path id="Path_947" data-name="Path 947" d="M1166.377,315.6l0,34.564,18.988,10.962,0-34.564Z" fill="url(#linear-gradient-26)"/>
        <path id="Path_948" data-name="Path 948" d="M1145.147,303.853l0,34.564,18.988,10.962,0-34.563Z" fill="url(#linear-gradient-27)"/>
      </g>
    </g>
    <path id="Path_949" data-name="Path 949" d="M1300.037,397.654a4.022,4.022,0,0,1-1.823-3.155c0-1.16.826-1.629,1.835-1.046a4.02,4.02,0,0,1,1.821,3.156C1301.867,397.767,1301.045,398.235,1300.037,397.654Z" fill="none"/>
    <g id="Group_966" data-name="Group 966">
      <ellipse id="Ellipse_35" data-name="Ellipse 35" cx="5.594" cy="9.887" rx="5.594" ry="9.887" transform="translate(1327.627 415.729) rotate(-23.053)" fill="#fff"/>
      <g id="Group_965" data-name="Group 965">
        <path id="Path_950" data-name="Path 950" d="M1336.646,419.261l.485.279a.3.3,0,0,1,.152.285c0,.081,0,.162,0,.241-.005.133-.053.166-.155.108-.062-.035-.125-.069-.187-.108-.041-.026-.058-.021-.057.038,0,.174,0,.346,0,.517a.1.1,0,0,0,.047.1,4.072,4.072,0,0,1,.994,1.142c.086.141.084.143.159.085.043-.032.084-.066.128-.1s.119,0,.173.1.1.2.155.3c.06.118.06.2,0,.251a1.938,1.938,0,0,1-.178.134c-.03.021-.028.05-.006.105a5.079,5.079,0,0,1,.315,1.226,2.689,2.689,0,0,1-.257,1.727,1.085,1.085,0,0,1-1.413.487,3.35,3.35,0,0,1-1.679-1.573,5.179,5.179,0,0,1-.671-1.82,2.418,2.418,0,0,1,.462-2.222,1.109,1.109,0,0,1,1.251-.168c.033.013.045.006.044-.038,0-.178,0-.356,0-.533a.082.082,0,0,0-.045-.087c-.066-.036-.133-.075-.2-.115a.313.313,0,0,1-.154-.288c0-.084,0-.167,0-.249,0-.128.047-.159.146-.1Zm-.016,6.1c.9.531,1.6-.03,1.6-1.182a3.743,3.743,0,0,0-1.614-3.042c-.868-.481-1.553.07-1.549,1.225A3.792,3.792,0,0,0,1336.63,425.365Z" fill="#8ec651"/>
        <path id="Path_951" data-name="Path 951" d="M1336.408,422.7v-.852c0-.141.042-.171.149-.11l.181.105a.284.284,0,0,1,.147.284v1.712c0,.122-.036.165-.124.127a1.023,1.023,0,0,1-.238-.14.3.3,0,0,1-.115-.249Z" fill="#8ec651"/>
      </g>
    </g>
    <g id="Group_968" data-name="Group 968">
      <ellipse id="Ellipse_36" data-name="Ellipse 36" cx="7.896" cy="13.956" rx="7.896" ry="13.956" transform="translate(1308.508 316.713) rotate(-23.053)" fill="#fff"/>
      <g id="Group_967" data-name="Group 967">
        <path id="Path_952" data-name="Path 952" d="M1321.236,330.876q-1.272-.734-2.544-1.469a1.035,1.035,0,0,1-.354-.322,1.264,1.264,0,0,1-.242-.7q0-2.591,0-5.179c0-.337.218-.508.47-.393.1.045.194.1.291.156l4.932,2.848a1.107,1.107,0,0,1,.465.518,1.19,1.19,0,0,1,.128.5q0,2.6,0,5.189c0,.33-.221.5-.466.39-.1-.048-.208-.108-.313-.168Zm0-3.265q-1.269-.732-2.537-1.467c-.061-.035-.082-.03-.081.057,0,.771,0,1.54,0,2.31,0,.134.016.163.116.221l5,2.888c.1.058.115.046.115-.088v-2.281c0-.129,0-.129-.094-.183Zm-.006-1.867,2.529,1.461c.094.054.094.054.094-.075v-.39c0-.178,0-.185-.134-.261l-4.967-2.867-.035-.02c-.08-.044-.1-.032-.1.071,0,.155,0,.313,0,.465a.143.143,0,0,0,.082.158Q1319.968,325.012,1321.232,325.744Z" fill="#6db8c4"/>
        <path id="Path_953" data-name="Path 953" d="M1321.417,329.577c-.236-.136-.471-.271-.706-.408a.316.316,0,0,1-.175-.309q-.008-.261,0-.513c0-.143.06-.175.169-.112q.71.408,1.418.819a.31.31,0,0,1,.163.313c0,.171,0,.342,0,.513,0,.131-.051.169-.15.112Z" fill="#6db8c4"/>
        <path id="Path_954" data-name="Path 954" d="M1319.666,328.566l-.363-.209a.289.289,0,0,1-.159-.267,3.642,3.642,0,0,1,0-.6c.01-.1.056-.119.131-.076q.391.224.782.452a.3.3,0,0,1,.129.252c0,.191,0,.38,0,.569,0,.112-.054.151-.139.1C1319.923,328.716,1319.794,328.64,1319.666,328.566Z" fill="#6db8c4"/>
      </g>
    </g>
    <g id="Group_970" data-name="Group 970">
      <ellipse id="Ellipse_37" data-name="Ellipse 37" cx="7.896" cy="13.956" rx="7.896" ry="13.956" transform="translate(1308.508 350.883) rotate(-23.053)" fill="#fff"/>
      <g id="Group_969" data-name="Group 969">
        <path id="Path_955" data-name="Path 955" d="M1319.452,357.2c.273.157.547.314.82.474.055.032.092.034.132,0a2.137,2.137,0,0,1,1.238-.6,2.006,2.006,0,0,1,1.144.275,6.122,6.122,0,0,1,1.241.91.668.668,0,0,1,.208.391,8.492,8.492,0,0,1,.142,1.906,2.9,2.9,0,0,1-.407,1.419,2.6,2.6,0,0,1-.884.869c-.039.023-.04.072-.04.128,0,.729,0,1.459,0,2.186,0,.252-.052.449-.2.534a.324.324,0,0,1-.131.031c-.5.046-1.011.071-1.5.144-.338.051-.849-.483-.854-1.191,0-.353,0-.706,0-1.056,0-.1-.01-.127-.084-.124a3.778,3.778,0,0,1-.52-.009.339.339,0,0,1-.25-.212q-.495-.94-.986-1.883a.459.459,0,0,1-.049-.384c.069-.18.138-.36.209-.538.041-.1.042-.1-.056-.157-.258-.15-.516-.3-.774-.448a1.3,1.3,0,0,1-.595-.926.731.731,0,0,1,.027-.434c.184-.4.369-.807.567-1.194.072-.141.144-.282.207-.434.116-.275.322-.293.59-.141S1319.181,357.039,1319.452,357.2Zm3.482,1.132a1.735,1.735,0,0,0-.532-.244,1.483,1.483,0,0,0-1.238.266,4.07,4.07,0,0,0-1.091,1.226,10.583,10.583,0,0,0-.843,1.717.274.274,0,0,0,.033.262c.153.279.3.564.445.849.045.088.083.119.143.12a6.839,6.839,0,0,0,1.4-.105,3.416,3.416,0,0,0,1.826-.849,2.016,2.016,0,0,0,.528-.876,4.573,4.573,0,0,0,.048-1.792.2.2,0,0,0-.084-.138A3.429,3.429,0,0,0,1322.934,358.327Zm-3.11-.02c-.388-.224-.756-.435-1.123-.65-.05-.029-.068-.005-.087.034-.2.421-.4.842-.6,1.259-.034.069-.021.1.05.136q.452.255.9.521c.059.034.086.02.111-.032a7.07,7.07,0,0,1,.521-.923Zm2.549,4.882a.152.152,0,0,0-.044,0,5.849,5.849,0,0,1-1.26.261c-.038.005-.042.037-.042.084,0,.412,0,.825,0,1.237,0,.073.01.1.066.1q.613-.057,1.229-.109c.037,0,.053-.023.053-.081C1322.373,364.184,1322.373,363.7,1322.373,363.189Z" fill="#c32741"/>
        <path id="Path_956" data-name="Path 956" d="M1322.374,358.9a1.573,1.573,0,0,1,.662,1.278c.007.454-.293.714-.669.495a1.615,1.615,0,0,1-.668-1.307C1321.7,358.928,1322.012,358.657,1322.374,358.9Z" fill="#c32741"/>
      </g>
    </g>
    <g id="Group_972" data-name="Group 972">
      <ellipse id="Ellipse_38" data-name="Ellipse 38" cx="8.952" cy="15.823" rx="8.952" ry="15.823" transform="translate(1259.02 382.148) rotate(-23.053)" fill="#fff"/>
      <g id="Group_971" data-name="Group 971">
        <path id="Path_957" data-name="Path 957" d="M1269.909,391.816V388.11c0-.549.334-.806.745-.574.2.115.407.235.61.351.176.1.156.118.157-.112,0-.275,0-.551,0-.826,0-.238.071-.281.267-.167a.452.452,0,0,1,.246.461c0,.307,0,.616,0,.922a.152.152,0,0,0,.083.158q1.436.825,2.872,1.658c.071.041.087.017.086-.07,0-.314,0-.626,0-.938,0-.2.07-.252.221-.167.234.131.292.241.292.556,0,.28,0,.561,0,.839a.167.167,0,0,0,.094.179c.22.122.441.251.661.38A1.806,1.806,0,0,1,1277,392.2q0,3.735,0,7.467c0,.52-.343.781-.734.555q-2.811-1.617-5.621-3.244a1.814,1.814,0,0,1-.734-1.417Q1269.907,393.688,1269.909,391.816Zm3.55.039c-.972-.561-1.943-1.12-2.915-1.686-.1-.059-.124-.032-.124.1q0,2.752,0,5.5a.549.549,0,0,0,.3.578l5.457,3.15c.23.133.3.078.3-.228q0-2.749,0-5.5a.222.222,0,0,0-.124-.241C1275.4,392.975,1274.427,392.414,1273.459,391.855Zm-.006-.688q1.461.843,2.923,1.69c.086.049.113.034.111-.083-.006-.274,0-.542,0-.814a.541.541,0,0,0-.283-.537l-1.487-.859-3.988-2.3c-.232-.134-.3-.081-.3.224,0,.252.005.509,0,.756a.228.228,0,0,0,.13.253C1271.518,390.047,1272.485,390.608,1273.453,391.167Z" fill="#6b00ee"/>
        <path id="Path_958" data-name="Path 958" d="M1272.915,396.392a.387.387,0,0,1-.147-.175q-.517-.992-1.036-1.981c-.094-.181-.093-.313,0-.392l.022-.016c.208-.164.259-.135.468.264s.417.788.619,1.186c.066.128.1.139.165.091.577-.433,1.158-.861,1.738-1.291.133-.1.227-.046.36.207.034.065.07.13.1.2.067.165.063.276-.019.337-.466.343-.92.708-1.394,1.034-.239.166-.469.35-.7.527A.125.125,0,0,1,1272.915,396.392Z" fill="#6b00ee"/>
      </g>
    </g>
    <g id="Group_973" data-name="Group 973">
      <ellipse id="Ellipse_39" data-name="Ellipse 39" cx="5.594" cy="9.887" rx="5.594" ry="9.887" transform="translate(1311.249 406.591) rotate(-23.053)" fill="#fff"/>
      <path id="Path_959" data-name="Path 959" d="M1319.945,416.686l-2.628-1.517a.383.383,0,0,1-.213-.412c0-.032,0-.063,0-.1,0-.168.062-.216.19-.142q1.121.646,2.241,1.3c.065.039.1.035.121-.037.168-.526.34-1.047.512-1.569.1-.32.21-.642.318-.96.02-.059.014-.093-.045-.155q-1.067-1.128-2.132-2.262a.526.526,0,0,1-.16-.25.205.205,0,0,1,.035-.2,1.44,1.44,0,0,1,.769-.447,1.841,1.841,0,0,1,1.02.077,3.5,3.5,0,0,1,1.144.7,6.051,6.051,0,0,1,1.205,1.464,7.635,7.635,0,0,1,1.073,3.089,5.432,5.432,0,0,1,.037.689c0,.175-.1.217-.225.085q-.615-.65-1.23-1.305c-.321-.34-.642-.68-.962-1.024-.053-.056-.068-.037-.083.01-.1.3-.194.6-.292.9q-.242.732-.483,1.462c-.027.084-.028.084.056.133l2.376,1.372a.4.4,0,0,1,.212.4c.01.307-.054.331-.267.206C1321.671,417.679,1320.808,417.184,1319.945,416.686Zm2.131-4.09-.005-.006.005.005c.009.122.021.245.025.364a5,5,0,0,1-.064,1.064.151.151,0,0,0,.054.152c.255.267.508.539.763.809.017.019.037.055.054.047s.008-.05,0-.079a6.2,6.2,0,0,0-.423-1.532A5.292,5.292,0,0,0,1322.076,412.6Zm-.437.284a2.17,2.17,0,0,0-.016-.238,2.749,2.749,0,0,0-.151-.763.7.7,0,0,0-.325-.424.458.458,0,0,0-.42.019,1.424,1.424,0,0,0-.555.574c-.028.044-.016.071.029.118.194.2.387.412.581.618.244.259.488.517.731.779.052.055.07.053.078-.018C1321.615,413.344,1321.631,413.138,1321.639,412.88Zm-1.263-2.04-.005-.025c-.093-.04-.187-.087-.28-.119a1.482,1.482,0,0,0-1.181.02c-.041.021-.038.039.01.09q.361.381.72.767c.05.054.07.038.09,0a2.116,2.116,0,0,1,.282-.422A1.22,1.22,0,0,1,1320.376,410.84Z" fill="#f7b841"/>
    </g>
    <g id="Group_975" data-name="Group 975">
      <ellipse id="Ellipse_40" data-name="Ellipse 40" cx="5.594" cy="9.887" rx="5.594" ry="9.887" transform="translate(1294.871 398.779) rotate(-23.053)" fill="#fff"/>
      <g id="Group_974" data-name="Group 974">
        <path id="Path_960" data-name="Path 960" d="M1302.671,402.752a3.118,3.118,0,0,0,.287,2.173,3.737,3.737,0,0,0,.763,1.093l.092.092a.2.2,0,0,1,.058.148,1.289,1.289,0,0,1-.045.262c-.017.056-.067.043-.119-.006a4.416,4.416,0,0,1-.786-.986,4.991,4.991,0,0,1-.665-1.819,2.739,2.739,0,0,1,.161-1.549c.05-.108.147-.107.251-.047a.61.61,0,0,1,.256.364,5.732,5.732,0,0,0,.27.756,3.154,3.154,0,0,0,.595.893c.057.059.072.046.075-.03a1.3,1.3,0,0,1,.324-.883.774.774,0,0,1,.863-.177.92.92,0,0,1,.2.087l1.292.746a.866.866,0,0,1,.38.838.77.77,0,0,1-.057.231c-.028.052-.021.077.04.111.227.128.455.262.683.393.108.063.217.127.326.188a.216.216,0,0,1,.114.175c.008.081-.03.092-.078.09-.31-.017-.619-.029-.93-.048-.056,0-.08.02-.078.106.005.27,0,.535,0,.8,0,.392-.126.573-.4.544a.872.872,0,0,1-.471-.117,1.1,1.1,0,0,1-.4-.518c-.055-.137-.108-.274-.163-.415-.027.007-.015.046-.015.072,0,.268.006.544-.014.8a1.172,1.172,0,0,1-.305.78.2.2,0,0,0-.052.155c0,.746,0,1.491,0,2.237,0,.3-.155.421-.38.291l-.706-.407a.862.862,0,0,1-.368-.708c0-.64,0-1.281,0-1.919a.215.215,0,0,0-.087-.2c-.15-.121-.3-.255-.447-.39-.043-.04-.062-.041-.076.007-.058.194-.119.385-.18.576a.279.279,0,0,0,0,.142c.078.456.156.912.23,1.368.053.322-.115.516-.34.39s-.455-.26-.683-.393a.816.816,0,0,1-.328-.53c-.065-.362-.123-.722-.18-1.081-.032-.2-.077-.4-.089-.6a2,2,0,0,1,.11-.637c.048-.2.1-.4.151-.6a.243.243,0,0,0-.025-.16,2.7,2.7,0,0,1-.238-1.143c0-.048.041-.091,0-.143s-.079-.017-.113-.007c-.146.044-.239.168-.243.4-.005.277,0,.56,0,.84,0,.146-.034.171-.14.109-.047-.027-.094-.053-.141-.082a.182.182,0,0,1-.086-.159,10.09,10.09,0,0,1,.015-1.078c.061-.492.419-.707.818-.506.042.021.069.019.09-.017a.543.543,0,0,1,.172-.16c.024-.018.038-.012.046.046a3,3,0,0,0,.091.417.161.161,0,0,1-.011.154,1.151,1.151,0,0,0-.048.986,1.876,1.876,0,0,0,.2.443.168.168,0,0,1,.03.143c-.087.334-.165.678-.259,1a1.346,1.346,0,0,0-.011.613c.067.383.127.763.187,1.144a.18.18,0,0,0,.092.155c.171.092.342.193.512.3.054.031.068.025.053-.059-.083-.475-.162-.948-.244-1.423a.246.246,0,0,1,0-.122q.165-.513.328-1.028c.015-.047.037-.052.077-.017l1.091.949a.153.153,0,0,1,.046.141v2.187c0,.023,0,.047,0,.069a.11.11,0,0,0,.064.121q.294.165.586.339c.052.031.074.022.068-.051,0-.024,0-.047,0-.07,0-.765,0-1.53,0-2.3a.153.153,0,0,1,.062-.149.825.825,0,0,0,.307-.724c.006-.475,0-.955,0-1.435,0-.091.019-.1.08-.03l.014.014a3,3,0,0,1,.443.47,4.022,4.022,0,0,1,.267.658c.086.221.139.276.287.294.079.01.159.019.237.026s.127-.051.127-.168c0-.448,0-.9,0-1.345a.324.324,0,0,0-.038-.146c-.053-.114-.1-.228-.156-.341-.027-.059-.032-.087.012-.1.088-.02.146-.092.165-.219a.1.1,0,0,0-.051-.116c-.438-.25-.877-.527-1.313-.747-.506-.256-.893.063-.966.639a5.778,5.778,0,0,0-.013.634c0,.067-.017.088-.069.052a3.21,3.21,0,0,1-.706-.645,4.624,4.624,0,0,1-.734-1.4Z" fill="#35a8e0"/>
        <path id="Path_961" data-name="Path 961" d="M1306.032,405.027c0,.134-.083.2-.182.139a.436.436,0,0,1-.175-.353c0-.131.08-.192.177-.137A.44.44,0,0,1,1306.032,405.027Z" fill="#35a8e0"/>
      </g>
    </g>
    <g id="Group_984" data-name="Group 984">
      <path id="Path_962" data-name="Path 962" d="M1253.4,395.627a51.119,51.119,0,0,0,7.365-4.623,16.534,16.534,0,0,1,2.963-1.912,7.209,7.209,0,0,1,1.594-.429,6.172,6.172,0,0,0,2.123-.869.19.19,0,0,1,.137-.025.2.2,0,0,1,.3.057c.291.482-.011.928-.416,1.214a7.751,7.751,0,0,1-1.271.712,3.1,3.1,0,0,1-1.66,3.121c-.29.146-.608.215-.905.339-.445.187-.784.521-1.228.694a2.374,2.374,0,0,1-1.39.065c-1.886,1.936-6.226,5.519-6.226,5.519C1254.582,399.048,1253.4,395.627,1253.4,395.627Z" fill="#e5ae92"/>
      <g id="Group_977" data-name="Group 977">
        <path id="Path_963" data-name="Path 963" d="M1233.855,448.586a8.076,8.076,0,0,0,5.013-.56c.979.029,5.347-2.178,6.07-.268.634,1.675-1.668,3.224-2.9,3.522-2.685.65-4.671,1.989-5.75,2.216a2.72,2.72,0,0,1-2.484-.351C1233.037,452.387,1233.1,449.584,1233.855,448.586Z" fill="#0f3858"/>
        <g id="Group_976" data-name="Group 976">
          <path id="Path_964" data-name="Path 964" d="M1236.289,453.032c1.079-.226,3.065-1.565,5.75-2.216,1.031-.249,2.807-1.378,2.986-2.721.239,1.541-1.838,2.907-2.986,3.185-2.685.65-4.671,1.989-5.75,2.216a2.72,2.72,0,0,1-2.484-.351,1.573,1.573,0,0,1-.352-.641A3.214,3.214,0,0,0,1236.289,453.032Z" fill="#0f3858"/>
        </g>
        <path id="Path_965" data-name="Path 965" d="M1242.139,447.155a2.56,2.56,0,0,1,1.293,1.528c.063.3-.4.429-.462.127a2.071,2.071,0,0,0-1.516-1.482A.63.63,0,0,1,1242.139,447.155Z" fill="#0f3858"/>
        <path id="Path_966" data-name="Path 966" d="M1241.127,447.421a2.644,2.644,0,0,1,1.313,1.553c.063.3-.4.43-.462.128a2.068,2.068,0,0,0-1.516-1.482A.609.609,0,0,1,1241.127,447.421Z" fill="#0f3858"/>
        <path id="Path_967" data-name="Path 967" d="M1240.154,447.72a2.5,2.5,0,0,1,1.326,1.546c.063.3-.4.429-.462.127a2.071,2.071,0,0,0-1.516-1.482A.588.588,0,0,1,1240.154,447.72Z" fill="#0f3858"/>
      </g>
      <path id="Path_968" data-name="Path 968" d="M1233.015,407.412c.925.115,9.549.665,9.549.665-.182,3.314-1.447,17.832-1.975,21.965-.5,3.929-1.721,17.984-1.721,17.984-1.846,2.007-5.013.56-5.013.56s-.881-15.982-.383-20.6C1234.415,419.261,1232.739,413.126,1233.015,407.412Z" fill="url(#linear-gradient-28)"/>
      <g id="Group_981" data-name="Group 981">
        <path id="Path_970" data-name="Path 970" d="M1239.153,451.91a8.076,8.076,0,0,0,5.013-.559c.979.029,5.348-2.179,6.07-.268.634,1.674-1.668,3.223-2.9,3.522-2.686.65-4.672,1.989-5.751,2.216a2.726,2.726,0,0,1-2.484-.351C1238.335,455.712,1238.4,452.908,1239.153,451.91Z" fill="#0f3858"/>
        <g id="Group_980" data-name="Group 980">
          <path id="Path_971" data-name="Path 971" d="M1241.587,456.357c1.079-.227,3.065-1.566,5.751-2.216,1.03-.25,2.806-1.378,2.985-2.722.24,1.541-1.838,2.908-2.985,3.186-2.686.65-4.672,1.989-5.751,2.216a2.726,2.726,0,0,1-2.484-.351,1.586,1.586,0,0,1-.352-.641A3.22,3.22,0,0,0,1241.587,456.357Z" fill="#0f3858"/>
        </g>
        <path id="Path_972" data-name="Path 972" d="M1247.437,450.479a2.562,2.562,0,0,1,1.293,1.528c.063.3-.4.429-.462.127a2.071,2.071,0,0,0-1.516-1.482A.631.631,0,0,1,1247.437,450.479Z" fill="#0f3858"/>
        <path id="Path_973" data-name="Path 973" d="M1246.425,450.746a2.642,2.642,0,0,1,1.313,1.553c.063.3-.4.429-.462.127a2.071,2.071,0,0,0-1.516-1.482A.61.61,0,0,1,1246.425,450.746Z" fill="#0f3858"/>
        <path id="Path_974" data-name="Path 974" d="M1245.452,451.044a2.507,2.507,0,0,1,1.326,1.547c.063.3-.4.429-.462.127a2.071,2.071,0,0,0-1.516-1.482A.588.588,0,0,1,1245.452,451.044Z" fill="#0f3858"/>
      </g>
      <path id="Path_975" data-name="Path 975" d="M1237.387,410.622c.926.115,10.475.779,10.475.779-.182,3.314-1.447,17.833-1.975,21.965-.5,3.929-1.721,17.985-1.721,17.985-1.846,2.006-5.013.559-5.013.559s-.881-15.982-.383-20.6C1239.713,422.585,1237.112,416.336,1237.387,410.622Z" fill="url(#linear-gradient-29)"/>
      <path id="Path_977" data-name="Path 977" d="M1233.789,384.531a4.083,4.083,0,0,1,3.008-3.726,7.9,7.9,0,0,1,4.946.491,21.959,21.959,0,0,1,7.075,4.642,12.251,12.251,0,0,1,2.848,4.893c.484,1.387,1.037,2.747,1.546,4.124.338-.2,1.055-.643,1.055-.643a5.538,5.538,0,0,1,1.556,4.908s-3.279,2.62-4.049,2.616c-2.124-.012-3.139-4.311-3.569-5.439a89.235,89.235,0,0,1,.341,15.755c-8.525,3.857-15.993-.435-16.013-1.889C1232.484,406.7,1233.438,390.388,1233.789,384.531Z" fill="url(#linear-gradient-30)"/>
      <path id="Path_978" data-name="Path 978" d="M1237.162,370.94a4.905,4.905,0,0,1,4.676-2.574,4.7,4.7,0,0,1,4.365,2.845c.792,2.369,1.6,5.282.416,7.594C1242.774,386.322,1235.7,373.63,1237.162,370.94Z" fill="#e5ae92"/>
      <path id="Path_979" data-name="Path 979" d="M1238.848,377.75a.241.241,0,0,1,.36-.206c1.268.759,4.018.548,4.018.728,0,0,.526,3.775.724,4.967a.247.247,0,0,1-.167.295,4.284,4.284,0,0,1-4.149-.842,2.262,2.262,0,0,1-.97-1.469A23.543,23.543,0,0,1,1238.848,377.75Z" fill="#e5ae92"/>
      <path id="Path_980" data-name="Path 980" d="M1235.65,371.3a4.486,4.486,0,0,1,.78-1.4,5.645,5.645,0,0,1,4.662-2.182.245.245,0,0,1,.05.015l.01-.01a2.574,2.574,0,0,1,.324-.234,1.981,1.981,0,0,1,.921-.282c.354-.015,1.064.116,1.221.506a.231.231,0,0,1,.1-.054c2.015-.538,4.142.883,3.694,3.1-.425,2.1-2.551,3.292-4.576,3.477-.019,0-.035,1.013-.049,2.089a1.617,1.617,0,0,0-1.342-.635.96.96,0,0,0-.917,1.16,1.881,1.881,0,0,0,2.243.883c-.006.563-.01,1-.012,1.1a1.248,1.248,0,0,1-.258.841,1.081,1.081,0,0,1-.525.276c-.318.085-.651.106-.976.161a2.269,2.269,0,0,0-.729.233,5.483,5.483,0,0,1-.588.371c-.689.279-1.074-.576-1.368-1.036a11.937,11.937,0,0,0-1.212-1.491,5.913,5.913,0,0,1-1.017-1.481,7.968,7.968,0,0,1-.755-3.482A6.218,6.218,0,0,1,1235.65,371.3Z" fill="#634e42"/>
    </g>
    <g id="Group_985" data-name="Group 985">
      <path id="Path_981" data-name="Path 981" d="M1092.68,586.229a1.39,1.39,0,0,0,.487-.088l210.082-121.756c6.266-3.392,11.619-9.292,11.619-16.7a14.963,14.963,0,0,1,9.3-13.884l10.326-4.249a1.4,1.4,0,0,0-1.068-2.592l-10.325,4.249a17.757,17.757,0,0,0-11.037,16.476c0,6.246-5.533,10.9-9.79,14.076L1092.192,583.513a1.4,1.4,0,0,0,.488,2.716Z" fill="url(#linear-gradient)"/>
    </g>
    <g id="Group_986" data-name="Group 986">
      <path id="Path_982" data-name="Path 982" d="M1076.627,576.452a1.388,1.388,0,0,0,.487-.087L1287.2,454.609c7.232-3.68,11.619-9.293,11.619-16.7a14.961,14.961,0,0,1,9.3-13.883l10.325-4.249a1.4,1.4,0,0,0-1.068-2.593l-10.325,4.25a17.757,17.757,0,0,0-11.037,16.475c0,6.247-4.709,10.9-9.79,14.076L1076.14,573.737a1.4,1.4,0,0,0,.487,2.715Z" fill="url(#linear-gradient-5)"/>
    </g>
    <g id="Group_991" data-name="Group 991">
      <g id="Group_987" data-name="Group 987">
        <path id="Path_983" data-name="Path 983" d="M1138.572,534.06l-.013,58.71a1.929,1.929,0,0,1-1.129,1.583l.012-58.711A1.931,1.931,0,0,0,1138.572,534.06Z" fill="url(#linear-gradient-33)"/>
      </g>
      <g id="Group_988" data-name="Group 988">
        <path id="Path_984" data-name="Path 984" d="M1137.442,535.642l-.012,58.711-19.448,11.3.012-58.711Z" fill="url(#linear-gradient-34)"/>
      </g>
      <path id="Path_985" data-name="Path 985" d="M1071.655,523.368a1.954,1.954,0,0,1-1.153-1.608l-.012,58.71a1.954,1.954,0,0,0,1.153,1.609l40.836,23.575.012-58.71Z" fill="url(#linear-gradient-34)"/>
      <g id="Group_989" data-name="Group 989">
        <path id="Path_986" data-name="Path 986" d="M1137.424,532.455c1.523.879,1.531,2.308.018,3.187l-19.448,11.3a6.065,6.065,0,0,1-5.5,0l-40.836-23.576c-1.527-.881-1.539-2.308-.022-3.19l19.448-11.3a6.074,6.074,0,0,1,5.507,0Z" fill="url(#linear-gradient-34)"/>
      </g>
      <g id="Group_990" data-name="Group 990">
        <path id="Path_987" data-name="Path 987" d="M1117.994,546.944l-.012,58.71a6.062,6.062,0,0,1-5.5,0l.012-58.71A6.065,6.065,0,0,0,1117.994,546.944Z" fill="url(#linear-gradient-34)"/>
      </g>
    </g>
    <g id="Group_992" data-name="Group 992">
      <path id="Path_988" data-name="Path 988" d="M1071.152,518.74a1.779,1.779,0,0,1-.132-.144C1071.066,518.644,1071.1,518.694,1071.152,518.74Z" fill="url(#linear-gradient-38)"/>
      <path id="Path_989" data-name="Path 989" d="M1070.576,517.926a1.317,1.317,0,0,1-.032-.185A1.317,1.317,0,0,0,1070.576,517.926Z" fill="url(#linear-gradient-39)"/>
      <path id="Path_990" data-name="Path 990" d="M1070.792,518.346a1.67,1.67,0,0,1-.09-.173A1.67,1.67,0,0,0,1070.792,518.346Z" fill="url(#linear-gradient-40)"/>
      <path id="Path_991" data-name="Path 991" d="M1138.289,530.627a2.113,2.113,0,0,1-.227.253A2.113,2.113,0,0,0,1138.289,530.627Z" fill="url(#linear-gradient-41)"/>
      <path id="Path_992" data-name="Path 992" d="M1137.937,531.018a3.058,3.058,0,0,1-.495.352A3.058,3.058,0,0,0,1137.937,531.018Z" fill="url(#linear-gradient-42)"/>
      <path id="Path_993" data-name="Path 993" d="M1138.5,530.211a1.73,1.73,0,0,1-.123.243A1.631,1.631,0,0,0,1138.5,530.211Z" fill="url(#linear-gradient-43)"/>
      <path id="Path_994" data-name="Path 994" d="M1138.5,530.211a1.631,1.631,0,0,1-.123.243,1.412,1.412,0,0,1-.089.173,2.113,2.113,0,0,1-.227.253c-.045.046-.075.094-.125.138a3.058,3.058,0,0,1-.495.352l-19.448,11.3-.012,4.272,19.448-11.3a1.927,1.927,0,0,0,1.129-1.582l.013-4.273a1.389,1.389,0,0,1-.04.238A1.463,1.463,0,0,1,1138.5,530.211Z" fill="url(#linear-gradient-34)"/>
      <path id="Path_995" data-name="Path 995" d="M1112.491,542.672l-.012,4.272a6.065,6.065,0,0,0,5.5,0l.012-4.272A6.065,6.065,0,0,1,1112.491,542.672Z" fill="url(#linear-gradient-45)"/>
      <path id="Path_996" data-name="Path 996" d="M1071.655,519.1a3.171,3.171,0,0,1-.5-.356c-.053-.046-.086-.1-.132-.144a2.2,2.2,0,0,1-.228-.25,1.67,1.67,0,0,1-.09-.173,1.59,1.59,0,0,1-.126-.247,1.317,1.317,0,0,1-.032-.185,1.4,1.4,0,0,1-.041-.247v-.007l-.012,4.273a1.954,1.954,0,0,0,1.153,1.608l40.836,23.576.012-4.272Z" fill="url(#linear-gradient-34)"/>
      <path id="Path_997" data-name="Path 997" d="M1070.544,517.741a1.317,1.317,0,0,0,.032.185,1.59,1.59,0,0,0,.126.247,1.67,1.67,0,0,0,.09.173,2.2,2.2,0,0,0,.228.25,1.779,1.779,0,0,0,.132.144,3.171,3.171,0,0,0,.5.356l40.836,23.576a6.065,6.065,0,0,0,5.5,0l19.448-11.3a3.058,3.058,0,0,0,.495-.352c.05-.044.08-.092.125-.138a2.113,2.113,0,0,0,.227-.253,1.412,1.412,0,0,0,.089-.173,1.73,1.73,0,0,0,.123-.243,1.463,1.463,0,0,0,.031-.186,1.806,1.806,0,0,0-1.108-1.842l-40.836-23.576a6.074,6.074,0,0,0-5.507,0l-19.448,11.3a1.925,1.925,0,0,0-1.13,1.588A1.4,1.4,0,0,0,1070.544,517.741Z" fill="url(#linear-gradient-34)"/>
    </g>
    <g id="Group_993" data-name="Group 993">
      <path id="Path_998" data-name="Path 998" d="M1082.5,518.995a1.094,1.094,0,0,1-.087-.095A1.094,1.094,0,0,0,1082.5,518.995Z" fill="none"/>
      <path id="Path_999" data-name="Path 999" d="M1082.117,518.458a.753.753,0,0,1-.021-.123A.753.753,0,0,0,1082.117,518.458Z" fill="none"/>
      <path id="Path_1000" data-name="Path 1000" d="M1082.26,518.735a.9.9,0,0,1-.06-.115A.9.9,0,0,0,1082.26,518.735Z" fill="none"/>
      <path id="Path_1001" data-name="Path 1001" d="M1126.815,526.842a1.429,1.429,0,0,1-.15.167A1.429,1.429,0,0,0,1126.815,526.842Z" fill="none"/>
      <path id="Path_1002" data-name="Path 1002" d="M1126.582,527.1a2.041,2.041,0,0,1-.326.232A2.041,2.041,0,0,0,1126.582,527.1Z" fill="none"/>
      <path id="Path_1003" data-name="Path 1003" d="M1126.955,526.567a1,1,0,0,1-.081.16A1,1,0,0,0,1126.955,526.567Z" fill="none"/>
      <path id="Path_1004" data-name="Path 1004" d="M1126.955,526.567a1,1,0,0,1-.081.16,1.038,1.038,0,0,1-.059.115,1.429,1.429,0,0,1-.15.167c-.029.03-.05.062-.083.091a2.041,2.041,0,0,1-.326.232l-12.838,7.46-.008,2.821,12.838-7.461a1.277,1.277,0,0,0,.746-1.044l.008-2.82a.938.938,0,0,1-.027.156A.839.839,0,0,1,1126.955,526.567Z" fill="#dfe0e2"/>
      <path id="Path_1005" data-name="Path 1005" d="M1109.785,534.793l-.008,2.82a4.007,4.007,0,0,0,3.633,0l.008-2.821A4,4,0,0,1,1109.785,534.793Z" fill="#e9e9eb"/>
      <path id="Path_1006" data-name="Path 1006" d="M1082.829,519.23a2.123,2.123,0,0,1-.332-.235,1.094,1.094,0,0,1-.087-.095,1.433,1.433,0,0,1-.15-.165.9.9,0,0,1-.06-.115,1.093,1.093,0,0,1-.083-.162.753.753,0,0,1-.021-.123.832.832,0,0,1-.027-.162v0l-.008,2.82a1.289,1.289,0,0,0,.761,1.062l26.956,15.563.008-2.82Z" fill="#f1f2f4"/>
      <path id="Path_1007" data-name="Path 1007" d="M1082.1,518.335a.753.753,0,0,0,.021.123,1.093,1.093,0,0,0,.083.162.9.9,0,0,0,.06.115,1.433,1.433,0,0,0,.15.165,1.094,1.094,0,0,0,.087.095,2.123,2.123,0,0,0,.332.235l26.956,15.563a4,4,0,0,0,3.633,0l12.838-7.46a2.041,2.041,0,0,0,.326-.232c.033-.029.054-.061.083-.091a1.429,1.429,0,0,0,.15-.167,1.038,1.038,0,0,0,.059-.115,1,1,0,0,0,.081-.16.839.839,0,0,0,.02-.123,1.192,1.192,0,0,0-.731-1.216l-26.956-15.562a4.01,4.01,0,0,0-3.636,0l-12.838,7.46a1.272,1.272,0,0,0-.745,1.049A.832.832,0,0,0,1082.1,518.335Z" fill="#fff"/>
      <path id="Path_1008" data-name="Path 1008" d="M1111.6,533.826a2.323,2.323,0,0,0,1.11-.246l12.556-7.3-26.683-15.4a2.647,2.647,0,0,0-2.233,0l-12.556,7.3,26.688,15.407A2.35,2.35,0,0,0,1111.6,533.826Z" fill="url(#linear-gradient-48)"/>
    </g>
    <path id="Path_1009" data-name="Path 1009" d="M1106.541,527.1c0,1.042,1.127,1.886,2.518,1.886s2.518-.844,2.518-1.886-1.127-1.885-2.518-1.885S1106.541,526.059,1106.541,527.1Z" fill="#8ec651"/>
    <path id="Path_1010" data-name="Path 1010" d="M1099.475,523.33c0,1.041,1.127,1.885,2.518,1.885s2.518-.844,2.518-1.885-1.127-1.886-2.518-1.886S1099.475,522.289,1099.475,523.33Z" fill="#f7b841"/>
    <path id="Path_1011" data-name="Path 1011" d="M1093.052,520.281c0,1.041,1.127,1.885,2.517,1.885s2.518-.844,2.518-1.885-1.127-1.885-2.518-1.885S1093.052,519.24,1093.052,520.281Z" fill="#35a8e0"/>
    <g id="Group_1004" data-name="Group 1004">
      <path id="Path_1012" data-name="Path 1012" d="M1096.067,522.4c-.224-.634-1.269-.3-1.739-.338a23.735,23.735,0,0,0-4.722-.058c-.686.086-1.36.238-2.04.36a25.767,25.767,0,0,1-7.688-.161s-.766,3.489-.825,3.963c0,0,5.5-.781,8.081-1.439a15.767,15.767,0,0,0,3.53.889,2.765,2.765,0,0,0,.68-.034,1.541,1.541,0,0,1,.73-.067,8.409,8.409,0,0,1,1.211.569.335.335,0,0,0,.446-.117.662.662,0,0,0-.13-.817,2.028,2.028,0,0,0-.5-.388,4.741,4.741,0,0,0-.965-.371c-.231-.07-.453-.3-.2-.5a.606.606,0,0,1,.1-.064c.9-.453,2.006.092,2.953-.272C1095.391,523.4,1096.274,522.978,1096.067,522.4Z" fill="#e5ae92"/>
      <path id="Path_1013" data-name="Path 1013" d="M1085.633,522.1c-.55.073-10.406-.634-10.406-.634s-.607-1.659-1.24-3.371a10.975,10.975,0,0,0-2.1,3.875,10.679,10.679,0,0,0-.05,4.256c.577.671,1.146,1.2,1.557,1.193,2.017-.014,13.915-1.323,14.388-2.094C1087.7,524.505,1087.288,523.427,1085.633,522.1Z" fill="url(#linear-gradient-49)"/>
      <path id="Path_1014" data-name="Path 1014" d="M1091.54,528.056a25.771,25.771,0,0,0,7.689.161,12.007,12.007,0,0,1,4.368-.343,7.978,7.978,0,0,1,1.562.459,6.067,6.067,0,0,0,2.235.361.189.189,0,0,1,.128.05.2.2,0,0,1,.22.2c0,.555-.487.775-.975.807a7.688,7.688,0,0,1-1.437-.054,3.054,3.054,0,0,1-3,1.771,15.744,15.744,0,0,1-3.53-.889c-2.585.658-8.081,1.439-8.081,1.439C1090.774,531.545,1091.54,528.056,1091.54,528.056Z" fill="#e5ae92"/>
      <g id="Group_995" data-name="Group 995">
        <path id="Path_1015" data-name="Path 1015" d="M1063.861,592.943a10.137,10.137,0,0,0,6.293-.7c1.229.037,6.713-2.735,7.621-.336.795,2.1-2.095,4.047-3.64,4.421-3.371.817-5.865,2.5-7.218,2.782-1.01.213-2.315.353-3.119-.44C1062.834,597.716,1062.917,594.2,1063.861,592.943Z" fill="#0f3858"/>
        <g id="Group_994" data-name="Group 994">
          <path id="Path_1016" data-name="Path 1016" d="M1066.917,598.526c1.353-.285,3.847-1.966,7.218-2.782,1.294-.314,3.524-1.73,3.749-3.417.3,1.935-2.308,3.65-3.749,4-3.371.817-5.865,2.5-7.218,2.782-1.01.213-2.315.353-3.119-.44a1.974,1.974,0,0,1-.442-.805A4.041,4.041,0,0,0,1066.917,598.526Z" fill="#0f3858"/>
        </g>
        <path id="Path_1017" data-name="Path 1017" d="M1074.26,591.147a3.221,3.221,0,0,1,1.624,1.918c.079.378-.5.539-.58.16a2.6,2.6,0,0,0-1.9-1.861A.791.791,0,0,1,1074.26,591.147Z" fill="#0f3858"/>
        <path id="Path_1018" data-name="Path 1018" d="M1072.99,591.482a3.315,3.315,0,0,1,1.648,1.949c.079.378-.5.539-.579.16a2.6,2.6,0,0,0-1.9-1.861A.766.766,0,0,1,1072.99,591.482Z" fill="#0f3858"/>
        <path id="Path_1019" data-name="Path 1019" d="M1071.769,591.856a3.144,3.144,0,0,1,1.664,1.942c.079.377-.5.538-.58.159a2.6,2.6,0,0,0-1.9-1.86A.738.738,0,0,1,1071.769,591.856Z" fill="#0f3858"/>
      </g>
      <path id="Path_1020" data-name="Path 1020" d="M1063.406,542.238c.693,6.722,2.547,14.573.375,23.742-1.752,7.393-.037,27.085-.037,27.085s3.863,2.385,6.373-.343c0,0,.444-16.751,2.608-26.026a126.4,126.4,0,0,0,2.167-24.458Z" fill="url(#linear-gradient-49)"/>
      <g id="Group_998" data-name="Group 998">
        <g id="Group_997" data-name="Group 997">
          <g id="Group_996" data-name="Group 996">
            <path id="Path_1021" data-name="Path 1021" d="M1074.982,591.11" fill="#0f3858"/>
          </g>
        </g>
      </g>
      <g id="Group_1000" data-name="Group 1000">
        <path id="Path_1022" data-name="Path 1022" d="M1072.825,598.187a10.143,10.143,0,0,0,6.293-.7c1.229.036,6.713-2.735,7.621-.336.8,2.1-2.095,4.046-3.639,4.421-3.372.816-5.865,2.5-7.219,2.782-1.01.213-2.315.352-3.119-.441C1071.8,602.96,1071.881,599.44,1072.825,598.187Z" fill="#0f3858"/>
        <g id="Group_999" data-name="Group 999">
          <path id="Path_1023" data-name="Path 1023" d="M1075.881,603.77c1.354-.285,3.847-1.966,7.219-2.783,1.293-.313,3.523-1.73,3.748-3.416.3,1.934-2.308,3.65-3.748,4-3.372.816-5.865,2.5-7.219,2.782-1.01.213-2.315.352-3.119-.441a1.98,1.98,0,0,1-.442-.8A4.042,4.042,0,0,0,1075.881,603.77Z" fill="#0f3858"/>
        </g>
        <path id="Path_1024" data-name="Path 1024" d="M1083.224,596.39a3.22,3.22,0,0,1,1.624,1.919c.079.377-.5.539-.58.16a2.6,2.6,0,0,0-1.9-1.861A.793.793,0,0,1,1083.224,596.39Z" fill="#0f3858"/>
        <path id="Path_1025" data-name="Path 1025" d="M1081.954,596.725a3.317,3.317,0,0,1,1.648,1.95c.08.377-.5.539-.579.16a2.6,2.6,0,0,0-1.9-1.861A.766.766,0,0,1,1081.954,596.725Z" fill="#0f3858"/>
        <path id="Path_1026" data-name="Path 1026" d="M1080.733,597.1a3.145,3.145,0,0,1,1.664,1.941c.079.378-.5.539-.58.16a2.6,2.6,0,0,0-1.9-1.86A.737.737,0,0,1,1080.733,597.1Z" fill="#0f3858"/>
      </g>
      <path id="Path_1027" data-name="Path 1027" d="M1072.162,542.346c1.258.155,11.2-2.44,11.2-2.44,1.383,10.088-.385,26.519-1.672,32.034-2.164,9.275-2.608,26.026-2.608,26.026-2.51,2.728-6.373.343-6.373.343s-1.714-19.692.037-27.085C1075.5,559.612,1071.787,550.112,1072.162,542.346Z" fill="url(#linear-gradient-49)"/>
      <g id="Group_1003" data-name="Group 1003">
        <g id="Group_1002" data-name="Group 1002">
          <g id="Group_1001" data-name="Group 1001">
            <path id="Path_1028" data-name="Path 1028" d="M1083.946,596.353" fill="#0f3858"/>
          </g>
        </g>
      </g>
      <path id="Path_1029" data-name="Path 1029" d="M1097.4,527.956c-.55.073-10.405-.634-10.405-.634s-2.445-6.676-2.635-7.067c-.643-1.322-1.255-2.659-1.9-3.978-2.707-5.5-8.372-11.285-15.069-10.095a4.175,4.175,0,0,0-2.049.866,5.66,5.66,0,0,0-1.885,3.785,28.546,28.546,0,0,0,.868,10.631c1.141,4.371,1.716,8.16.325,12.529-1.081,3.4-2.475,7.445-1.654,11.01a22.823,22.823,0,0,0,21.309.843c-.437-6.4-2.79-15.388-2.893-16.572.577.507,2.695,4.008,3.756,4,2.017-.014,13.915-1.323,14.388-2.094C1099.468,530.363,1099.056,529.285,1097.4,527.956Z" fill="url(#linear-gradient-49)"/>
      <path id="Path_1030" data-name="Path 1030" d="M1083.767,492.983a6.079,6.079,0,0,0-4.019-2.269,7.967,7.967,0,0,0-6.386,2.191,7.223,7.223,0,0,0-2.33,5.983c-.058.052.353,9.249.747,10.443a28.712,28.712,0,0,0,5.67.8c.05-1.179.568-3.432,1.418-4.232a3.784,3.784,0,0,0,2.508.658c2.122-.368,3.236-3.736,3.738-5.473A9.232,9.232,0,0,0,1083.767,492.983Z" fill="#e5ae92"/>
      <path id="Path_1031" data-name="Path 1031" d="M1086.943,493.847a8.74,8.74,0,0,0-1.914-2.219,10.447,10.447,0,0,0-5.973-2.34,9.767,9.767,0,0,0-7.5,2.759c-2.141,2.18-1.82,5.469-4.251,7.4a8.357,8.357,0,0,0-3.187,7.354.621.621,0,0,1-.3.586,5.045,5.045,0,0,0-1.593,6.553,4.986,4.986,0,0,0,1.732,1.732.631.631,0,0,1,.106.107c-.843,3.816,2.734,6.458,6.272,6.542a4.662,4.662,0,0,0,4.238-2.312,52.454,52.454,0,0,1,2.583-4.6c.852-1.136,2.685-2.053,4.057-1.329a2.869,2.869,0,0,0,1.178-1.505c.673-1.841-.183-3.654-1.2-5.175a10.274,10.274,0,0,1-.963-2.782,2.358,2.358,0,0,0-.838-1.268,1.516,1.516,0,0,1-.688-1.412.613.613,0,0,1,1.156-.211c.17.34.3.674.36.818.138.314.6.131.607-.164.014-.51-.011-1.039.044-1.545a1.408,1.408,0,0,1,.935-1.281.612.612,0,0,1,.3-.032,16.456,16.456,0,0,0,4.019.341C1087.077,499.713,1088.1,495.788,1086.943,493.847Z" fill="#634e42"/>
    </g>
    <path id="Path_1032" data-name="Path 1032" d="M1241.61,454.2l.512,2.418-31.437,5.4-31.437,5.4,30.925-7.816,30.925-7.816Z" opacity="0.5" fill="url(#linear-gradient-53)"/>
    <path id="Path_1033" data-name="Path 1033" d="M1237.262,450.512l.512,2.418-31.437,5.4-31.437,5.4,30.925-7.816,30.925-7.816Z" opacity="0.5" fill="url(#linear-gradient-54)"/>
    <ellipse id="Ellipse_41" data-name="Ellipse 41" cx="91.182" cy="18.066" rx="91.182" ry="18.066" transform="translate(945.093 451.734) rotate(-2.323)" opacity="0.5" fill="url(#linear-gradient-55)"/>
    <g id="Group_1005" data-name="Group 1005">
      <path id="Path_1034" data-name="Path 1034" d="M1124.924,411.421l-.026,9.211-43.924,25.525-.083-9.365Z" fill="url(#linear-gradient-5)"/>
    </g>
    <g id="Group_1006" data-name="Group 1006">
      <path id="Path_1035" data-name="Path 1035" d="M1123.2,410.382q.881.51,1.727,1.039l-44.033,25.371-44.028-25.418c10.9-6.858,26.534-11.153,43.93-11.153C1097.331,400.221,1112.323,404.105,1123.2,410.382Z" fill="url(#linear-gradient-5)"/>
    </g>
    <g id="Group_1007" data-name="Group 1007">
      <path id="Path_1036" data-name="Path 1036" d="M1080.891,436.792l-.026,9.211H1021.17l.026-9.211Z" fill="#3d91b6"/>
    </g>
    <g id="Group_1008" data-name="Group 1008">
      <path id="Path_1037" data-name="Path 1037" d="M1080.891,436.792l-.026,9.211-40.31,23.642.026-9.211Z" fill="#342a7a"/>
    </g>
    <g id="Group_1012" data-name="Group 1012">
      <path id="Path_1038" data-name="Path 1038" d="M1036.863,411.374c-9.831,6.185-15.815,14.451-15.763,23.535,0,.634.039,1.26.1,1.883.865,8.83,7.428,16.781,17.581,22.643.59.34,1.189.673,1.8,1l40.31-23.642Z" fill="url(#linear-gradient)"/>
      <g id="Group_1011" data-name="Group 1011">
        <path id="Path_1039" data-name="Path 1039" d="M1040.58,460.434l-.026,9.211c-.613-.326-1.212-.659-1.8-1-10.153-5.862-16.716-13.813-17.582-22.643l.026-9.211c.866,8.83,7.429,16.781,17.582,22.643C1039.368,459.775,1039.967,460.108,1040.58,460.434Z" fill="url(#linear-gradient)"/>
        <g id="Group_1010" data-name="Group 1010" clip-path="url(#clip-path)">
          <g id="Group_1009" data-name="Group 1009">
            <path id="Path_1040" data-name="Path 1040" d="M1040.58,460.434l-.026,9.211c-.613-.326-1.212-.659-1.8-1-10.153-5.862-16.716-13.813-17.582-22.643l.026-9.211c.866,8.83,7.429,16.781,17.582,22.643.59.34,1.189.673,1.8,1" fill="url(#linear-gradient)"/>
          </g>
        </g>
      </g>
    </g>
    <g id="Group_1014" data-name="Group 1014">
      <path id="Path_1042" data-name="Path 1042" d="M1080.9,436.792l40.766,23.443c-10.647,5.715-24.9,9.208-40.582,9.208-15.645,0-29.9-3.476-40.6-9.163Z" fill="url(#linear-gradient-5)"/>
      <g id="Group_1013" data-name="Group 1013">
        <path id="Path_1043" data-name="Path 1043" d="M1040.476,460.28c10.7,5.687,24.958,9.165,40.6,9.163,15.684,0,29.935-3.493,40.582-9.208l-.026,9.211c-10.647,5.715-24.9,9.208-40.582,9.208-15.645,0-29.9-3.476-40.6-9.164Z" fill="url(#linear-gradient-5)"/>
      </g>
    </g>
    <g id="Group_1019" data-name="Group 1019">
      <g id="Group_1018" data-name="Group 1018">
        <g id="Group_1017" data-name="Group 1017">
          <g id="Group_1015" data-name="Group 1015">
            <path id="Path_1044" data-name="Path 1044" d="M1124.859,402.062c9.854,6.179,15.9,14.429,15.953,23.488,0,.633-.025,1.26-.076,1.883-.81,9.317-7.973,17.658-19.035,23.6l-40.688-23.49.187-.108Z" fill="url(#linear-gradient-5)"/>
          </g>
          <g id="Group_1016" data-name="Group 1016">
            <path id="Path_1045" data-name="Path 1045" d="M1121.7,451.031l-.026,9.211-40.687-23.49.026-9.211Z" fill="url(#linear-gradient-5)"/>
          </g>
        </g>
      </g>
      <path id="Path_1046" data-name="Path 1046" d="M1121.656,460.24l.019-.01.026-9.205c11.062-5.94,18.225-14.281,19.035-23.6.046-.57.075-1.145.076-1.724l-.026,9.211c0,.149-.016.3-.02.446l-.025,8.769c0,.579-.029,1.154-.076,1.725-.81,9.317-7.972,17.658-19.035,23.6Z" fill="url(#linear-gradient-5)"/>
    </g>
    <g id="Group_1026" data-name="Group 1026">
      <g id="Group_1025" data-name="Group 1025">
        <g id="Group_1024" data-name="Group 1024">
          <path id="Path_1047" data-name="Path 1047" d="M1108.3,412.137a6.576,6.576,0,0,0-1.393-3.218c-2.6,2.553-2.655,9.291-3.247,13.613a24.263,24.263,0,0,1-6.633,4.233.47.47,0,0,0-.263.521,5.624,5.624,0,0,0,.94,2.148c2.571-1.111,5.348-1.276,8.56-4.327.126-.12.311-.152.366-.317C1107.545,422.036,1108.564,414.146,1108.3,412.137Z" fill="url(#linear-gradient-49)"/>
          <g id="Group_1021" data-name="Group 1021">
            <path id="Path_1048" data-name="Path 1048" d="M1098.4,462.094c-1.093.89-3.13.428-3.212.51a38.906,38.906,0,0,1-3.611,3.008c-.682.537-1.745,1.254-1.553,2.284.344,1.843,3.3,1.276,4.408.713,1.094-.554,2.021-1.5,3.075-2.152.751-.467,1.49-.709,1.607-1.657A6.355,6.355,0,0,0,1098.4,462.094Z" fill="#0f3858"/>
            <g id="Group_1020" data-name="Group 1020">
              <path id="Path_1049" data-name="Path 1049" d="M1099.1,464.417c-.144.909-.874,1.159-1.62,1.622-1.07.665-2.013,1.624-3.125,2.187-1.028.521-3.593,1.038-4.316-.278.393,1.776,3.291,1.219,4.393.661s2.021-1.5,3.075-2.152c.751-.467,1.49-.709,1.607-1.657A1.818,1.818,0,0,0,1099.1,464.417Z" fill="#0f3858"/>
            </g>
            <path id="Path_1050" data-name="Path 1050" d="M1093.978,465.72a2.1,2.1,0,0,0-1.458-.837.362.362,0,0,0-.4.31,2.76,2.76,0,0,1,1.557.826C1093.855,466.227,1094.152,465.927,1093.978,465.72Z" fill="#0f3858"/>
            <path id="Path_1051" data-name="Path 1051" d="M1094.807,465.067a2.091,2.091,0,0,0-1.458-.837.363.363,0,0,0-.4.31,2.758,2.758,0,0,1,1.557.825C1094.684,465.573,1094.981,465.274,1094.807,465.067Z" fill="#0f3858"/>
            <path id="Path_1052" data-name="Path 1052" d="M1095.631,464.407a2.094,2.094,0,0,0-1.458-.837.363.363,0,0,0-.4.31,2.765,2.765,0,0,1,1.557.826C1095.508,464.914,1095.805,464.614,1095.631,464.407Z" fill="#0f3858"/>
          </g>
          <path id="Path_1053" data-name="Path 1053" d="M1113.21,430.5a15.962,15.962,0,0,1-8.577-1.241c.047.91.1,1.72.1,1.72-3.489,2.467-10.5,6.622-10.954,9.487.458,9.054.992,21.8,1.323,22.076a3.015,3.015,0,0,0,3.5-.159,65.852,65.852,0,0,0,1.343-18.752c0-.023,12.214-5.409,13.009-8.365a9.3,9.3,0,0,0,.335-3.681C1113.275,431.218,1113.246,430.857,1113.21,430.5Z" fill="url(#linear-gradient-49)"/>
          <g id="Group_1023" data-name="Group 1023">
            <path id="Path_1054" data-name="Path 1054" d="M1103.3,465.154c-1.093.89-3.13.429-3.211.51a39.065,39.065,0,0,1-3.612,3.008c-.682.537-1.745,1.254-1.552,2.285.343,1.843,3.294,1.276,4.407.712,1.094-.554,2.022-1.5,3.075-2.152.751-.466,1.491-.708,1.607-1.657A6.357,6.357,0,0,0,1103.3,465.154Z" fill="#0f3858"/>
            <g id="Group_1022" data-name="Group 1022">
              <path id="Path_1055" data-name="Path 1055" d="M1104.005,467.477c-.145.909-.875,1.159-1.62,1.622-1.071.665-2.014,1.624-3.126,2.188-1.028.52-3.593,1.037-4.315-.278.392,1.776,3.29,1.218,4.392.66s2.022-1.5,3.075-2.152c.751-.466,1.491-.708,1.607-1.657A1.737,1.737,0,0,0,1104.005,467.477Z" fill="#0f3858"/>
            </g>
            <path id="Path_1056" data-name="Path 1056" d="M1098.88,468.781a2.091,2.091,0,0,0-1.457-.837.363.363,0,0,0-.4.31,2.758,2.758,0,0,1,1.557.825C1098.757,469.287,1099.054,468.987,1098.88,468.781Z" fill="#0f3858"/>
            <path id="Path_1057" data-name="Path 1057" d="M1099.71,468.127a2.1,2.1,0,0,0-1.458-.837.363.363,0,0,0-.4.311,2.755,2.755,0,0,1,1.557.825C1099.586,468.634,1099.883,468.334,1099.71,468.127Z" fill="#0f3858"/>
            <path id="Path_1058" data-name="Path 1058" d="M1100.534,467.468a2.093,2.093,0,0,0-1.458-.837.363.363,0,0,0-.4.31,2.752,2.752,0,0,1,1.557.825C1100.41,467.974,1100.707,467.674,1100.534,467.468Z" fill="#0f3858"/>
          </g>
          <path id="Path_1059" data-name="Path 1059" d="M1116.831,429.561a13.087,13.087,0,0,1-7.373.987c.035,1.211.173,3.489.173,3.489-3.489,2.466-10.5,6.622-10.953,9.487.457,9.054.992,21.8,1.322,22.075a3.016,3.016,0,0,0,3.5-.159,65.88,65.88,0,0,0,1.342-18.752c.017-.212,10.467-5.364,11.794-6.728,1.424-1.464,1.587-3.389,1.55-5.318A13.013,13.013,0,0,0,1116.831,429.561Z" fill="url(#linear-gradient-49)"/>
          <path id="Path_1060" data-name="Path 1060" d="M1119.069,413.822a6.6,6.6,0,0,0-1.878-3.766,9.475,9.475,0,0,0-4.209-2.114,6.9,6.9,0,0,0-4.549.012c-2.247.842-2.777,3-3.014,5.172-.071.053-1.228,16.776-1.228,16.776,1.013,1.829,6.922,4.514,13.463.785-.251-.992-.841-2.652-1.252-3.77a3.432,3.432,0,0,1-.01-2.335C1117.305,422.009,1119.348,415.932,1119.069,413.822Z" fill="url(#linear-gradient-49)"/>
          <path id="Path_1061" data-name="Path 1061" d="M1119.069,413.822a6.576,6.576,0,0,0-1.393-3.218c-2.6,2.553-2.655,9.291-3.247,13.614a45.488,45.488,0,0,1-6.245,5.038,5.413,5.413,0,0,0,1,2.526,22.166,22.166,0,0,0,7.85-4.99c.126-.12.312-.152.366-.317C1118.316,423.721,1119.335,415.831,1119.069,413.822Z" fill="url(#linear-gradient-49)"/>
        </g>
        <path id="Path_1062" data-name="Path 1062" d="M1094.563,418.579l3.877,13.258,8.507,3.4-3.1-12.915Z" fill="#ffc936"/>
        <path id="Path_1063" data-name="Path 1063" d="M1109,429.91c-.126-.451-.454-.341-.823-.226a2.154,2.154,0,0,1-1.258.108,3.823,3.823,0,0,1-.9-.61,1.161,1.161,0,0,0-.568-.161c.019.115.2.789.2.789s-1.864.019-2.054-.021a.314.314,0,0,0-.3.516c-.042-.008-.084-.009-.126-.018-.381-.086-.544.5-.161.586.1.023.207.035.311.048-.248.1-.311.507.009.568.032.006.064.009.1.015a.292.292,0,0,0,.137.021c.019,0,.039,0,.059.006a.334.334,0,0,0,.28.4c.91.118,2.25.481,3.073-.269a5.109,5.109,0,0,0,1.651-.446C1109.138,430.962,1109.153,430.451,1109,429.91Z" fill="#e5ae92"/>
        <path id="Path_1064" data-name="Path 1064" d="M1099.693,428.826c-.043,0-.084-.008-.127-.009a.314.314,0,0,0-.179-.568c-.194,0-2.113-.4-2.113-.4l-.231-.789c-.013-.044-.332.158-.344.167a1.285,1.285,0,0,0-.578.958,2.049,2.049,0,0,0,.55,1.482,1.909,1.909,0,0,0,1.3.563c.233.015.457.026.658.043a.336.336,0,0,0,.358-.327c.02,0,.039,0,.059.006a.293.293,0,0,0,.138.008c.033,0,.065.005.1.006.325.009.352-.4.13-.553a2.977,2.977,0,0,0,.314.02C1100.118,429.431,1100.084,428.823,1099.693,428.826Z" fill="#e5ae92"/>
      </g>
      <path id="Path_1065" data-name="Path 1065" d="M1105.192,413.275a2.089,2.089,0,0,0,.222-1.33v-.006a3.1,3.1,0,0,1,.224-1.518c.321-.844.9-1.528,1.258-2.348a6,6,0,0,0,.4-3.8h0a7.076,7.076,0,0,1,1.594,1.534,2.7,2.7,0,0,1,.675,1.716c0,.02-.006.04-.008.06.413.259.8.421.824,1.1.038,1.064-1.053,1.589-1.418,2.479a8.14,8.14,0,0,0-.332,2.415,8.045,8.045,0,0,1-1.034,3.7,2.867,2.867,0,0,1-2.131,1.289,1.932,1.932,0,0,1-2.133-1.23c-.271-1.1.561-2.074,1.118-2.925C1104.694,414.039,1104.963,413.667,1105.192,413.275Z" fill="#243464"/>
      <path id="Path_1066" data-name="Path 1066" d="M1109.377,407.455s.01,2.821.016,2.847c-.016,1.43,2.877.975,4.736-1.421v-4.525A31.279,31.279,0,0,0,1109.377,407.455Z" fill="#e5ae92"/>
      <path id="Path_1067" data-name="Path 1067" d="M1114.961,396.215a4.354,4.354,0,0,0-3.194-.923,5.759,5.759,0,0,0-2.982,1.388,6.654,6.654,0,0,0-1.86,2.547,6.312,6.312,0,0,0-.325,3.129c.478,4.052,2.576,5.576,3.252,5.843a4.364,4.364,0,0,0,3.519-1.84,12.345,12.345,0,0,1,2.278-2.645,2.5,2.5,0,0,0,.2-.184A5.219,5.219,0,0,0,1114.961,396.215Z" fill="#e5ae92"/>
      <path id="Path_1068" data-name="Path 1068" d="M1109.4,395.238a6.9,6.9,0,0,1,6.52.04,6.445,6.445,0,0,1,2.461,2.7,11.729,11.729,0,0,1,.715,1.727c.385,1.163.55,2.363.874,3.539a12.867,12.867,0,0,0,1.564,3.66,7.236,7.236,0,0,1,1.5,3.421,3.793,3.793,0,0,1-.834,2.407,2.466,2.466,0,0,0-.46,2.439c.318.789.884,1.441,1.19,2.236a5.032,5.032,0,0,1,.278,2.7,4.371,4.371,0,0,1-2.457,3.188,2.283,2.283,0,0,1-1.1.221,2.54,2.54,0,0,1-1.409-.738c.506-2.906,1.571-10.159-.768-10.129-1.482.019-2.133,2.972-2.186,3.82-.127,2.043,1.622,5.877-.684,6.957a2.826,2.826,0,0,1-3.255-.754,3.52,3.52,0,0,1,.461-3.969c.827-1.109,1.892-1.7,1.564-3.357-.173-.874-.567-1.688-.73-2.565a3.719,3.719,0,0,1,.1-2.052,7.564,7.564,0,0,1,1.022-1.465,4.449,4.449,0,0,1-.418-2.226,6.878,6.878,0,0,1,.406-1.862c.043-.116.206-.725.35-.766.506-.145,1.11-.6.83-1.174-.305-.623-1.109-.255-1.278.277l-.067.028c-1.6-.919-3.218-1.967-3.66-3.882a.335.335,0,0,1,0-.137c-1.4.351-3.775.548-3.286,3.109A6.075,6.075,0,0,1,1109.4,395.238Z" fill="#243464"/>
    </g>
    <g id="Group_1041" data-name="Group 1041">
      <path id="Path_1069" data-name="Path 1069" d="M1081.663,349.721c.007,0,.407,10.084.931,11.04,1.226,2.239,4.438,5.741,4.527,6.182a2.139,2.139,0,0,1-2.092,2.525c-.767-.092-6.548-3.589-6.548-3.589C1078.184,363.95,1081.573,349.64,1081.663,349.721Z" fill="url(#linear-gradient-71)"/>
      <g id="Group_1028" data-name="Group 1028">
        <path id="Path_1070" data-name="Path 1070" d="M1074.241,409.294c1.037.844,2.97.407,3.047.484a36.985,36.985,0,0,0,3.428,2.854c.646.51,1.655,1.19,1.473,2.168-.327,1.749-3.126,1.211-4.183.676-1.038-.526-1.918-1.421-2.918-2.042-.713-.443-1.414-.672-1.525-1.572A6.04,6.04,0,0,1,1074.241,409.294Z" fill="#0f3858"/>
        <g id="Group_1027" data-name="Group 1027">
          <path id="Path_1071" data-name="Path 1071" d="M1073.576,411.5c.137.863.83,1.1,1.537,1.539,1.016.631,1.911,1.542,2.966,2.076.976.494,3.41.985,4.095-.264-.372,1.686-3.122,1.157-4.168.627s-1.918-1.421-2.918-2.042c-.713-.443-1.414-.672-1.525-1.572A1.688,1.688,0,0,1,1073.576,411.5Z" fill="#0f3858"/>
        </g>
        <path id="Path_1072" data-name="Path 1072" d="M1078.439,412.735a1.987,1.987,0,0,1,1.383-.794.344.344,0,0,1,.377.294,2.619,2.619,0,0,0-1.477.783C1078.556,413.216,1078.274,412.931,1078.439,412.735Z" fill="#0f3858"/>
        <path id="Path_1073" data-name="Path 1073" d="M1077.652,412.115a1.987,1.987,0,0,1,1.383-.794.345.345,0,0,1,.378.294,2.618,2.618,0,0,0-1.478.783C1077.769,412.6,1077.487,412.311,1077.652,412.115Z" fill="#0f3858"/>
        <path id="Path_1074" data-name="Path 1074" d="M1076.87,411.489a1.987,1.987,0,0,1,1.383-.794.345.345,0,0,1,.378.294,2.619,2.619,0,0,0-1.478.783C1076.987,411.97,1076.7,411.685,1076.87,411.489Z" fill="#0f3858"/>
      </g>
      <g id="Group_1030" data-name="Group 1030">
        <path id="Path_1075" data-name="Path 1075" d="M1070.488,398.586c.4,1.277,2.252,1.979,2.274,2.086a36.858,36.858,0,0,0,1.281,4.272c.258.782.723,1.907.031,2.621-1.238,1.278-3.275-.717-3.86-1.746-.576-1.011-.815-2.244-1.306-3.314-.349-.762-.808-1.341-.4-2.153C1068.75,399.862,1070.346,398.467,1070.488,398.586Z" fill="#0f3858"/>
        <g id="Group_1029" data-name="Group 1029">
          <path id="Path_1076" data-name="Path 1076" d="M1068.717,400.057c-.362.795.084,1.375.431,2.132.5,1.087.742,2.34,1.327,3.368.541.951,2.3,2.7,3.56,2.041-1.241,1.2-3.242-.76-3.821-1.779s-.815-2.244-1.306-3.314c-.349-.762-.808-1.341-.4-2.153A1.657,1.657,0,0,1,1068.717,400.057Z" fill="#0f3858"/>
        </g>
        <path id="Path_1077" data-name="Path 1077" d="M1072.088,403.773a1.986,1.986,0,0,1,1.592.1.345.345,0,0,1,.152.454,2.621,2.621,0,0,0-1.664-.163C1071.92,404.238,1071.842,403.845,1072.088,403.773Z" fill="#0f3858"/>
        <path id="Path_1078" data-name="Path 1078" d="M1071.774,402.821a1.99,1.99,0,0,1,1.592.1.344.344,0,0,1,.152.454,2.608,2.608,0,0,0-1.664-.163C1071.606,403.287,1071.528,402.894,1071.774,402.821Z" fill="#0f3858"/>
        <path id="Path_1079" data-name="Path 1079" d="M1071.468,401.868a1.986,1.986,0,0,1,1.592.1.345.345,0,0,1,.152.454,2.621,2.621,0,0,0-1.664-.163C1071.3,402.333,1071.222,401.94,1071.468,401.868Z" fill="#0f3858"/>
      </g>
      <path id="Path_1080" data-name="Path 1080" d="M1069.456,399.148c.3-.883,1.726-7.2,10.3-15.828.015-.015-3.018-7.229-3.773-10.035a54.385,54.385,0,0,1-1.373-6.711c1.453.151,5.948-1.228,6.98-1.892.747,2.66,3.983,18.237,3.21,21.043-5.926,8.417-11.429,15.5-11.732,15.776C1072.9,401.61,1069.81,400.253,1069.456,399.148Z" fill="url(#linear-gradient-72)"/>
      <path id="Path_1081" data-name="Path 1081" d="M1068.465,371.663c.039-2.071.659-4.061.829-6.119a29.153,29.153,0,0,0,7.455,1.641c.116,2.393-.3,7.361-.3,7.361.7,2.223,3.047,12.187,2.259,15.048-.888,8.26-1.02,19.857-1.334,20.122a2.86,2.86,0,0,1-3.319-.151s-2.841-12.192-.391-22.376c.005-.021-3.791-7.758-4.546-10.564A17.821,17.821,0,0,1,1068.465,371.663Z" fill="url(#linear-gradient-73)"/>
      <path id="Path_1082" data-name="Path 1082" d="M1067.624,350.021a6.267,6.267,0,0,1,1.783-3.574,8.981,8.981,0,0,1,3.994-2.005,8.555,8.555,0,0,1,4.553-.133,4.617,4.617,0,0,1,3.675,3.943c.067.05.114,17.028.114,17.028-.961,1.735-6.568,4.284-12.776.745.239-.941.8-2.517,1.188-3.577a3.26,3.26,0,0,0,.01-2.217C1069.3,357.79,1067.36,352.023,1067.624,350.021Z" fill="url(#linear-gradient-74)"/>
      <path id="Path_1083" data-name="Path 1083" d="M1067.6,349.637a5.659,5.659,0,0,1,1.687-3.067c2.141,2.675,1.647,11.649,1.429,12.471l8.6,4.785c.173.1-.518,2.081-1.429,2a68,68,0,0,1-9.155-4.056C1068.294,361.232,1067.269,351.463,1067.6,349.637Z" fill="url(#linear-gradient-75)"/>
      <path id="Path_1084" data-name="Path 1084" d="M1078.6,341.919a3.925,3.925,0,0,1-1.979,3.1l-.025.014a1.994,1.994,0,0,1-.073-.2c-.424-1.456,2.146-3.369,2.138-3.336C1078.635,341.642,1078.615,341.782,1078.6,341.919Z" fill="#002984"/>
      <path id="Path_1085" data-name="Path 1085" d="M1076.822,343.979s-.01,2.677-.015,2.7c.015,1.357-2.73.925-4.495-1.349v-4.293A29.605,29.605,0,0,1,1076.822,343.979Z" fill="#e5ae92"/>
      <path id="Path_1086" data-name="Path 1086" d="M1071.523,333.313a4.13,4.13,0,0,1,3.031-.876,5.463,5.463,0,0,1,2.83,1.318,6.315,6.315,0,0,1,1.765,2.416,6,6,0,0,1,.308,2.969c-.453,3.846-2.444,5.292-3.086,5.545a4.146,4.146,0,0,1-3.34-1.746,11.664,11.664,0,0,0-2.161-2.51,2.418,2.418,0,0,1-.187-.175A4.952,4.952,0,0,1,1071.523,333.313Z" fill="#e5ae92"/>
      <path id="Path_1087" data-name="Path 1087" d="M1067.38,340.857c-.063-2.657.284-5.507,2.355-7.4a6.227,6.227,0,0,1,7.067-1.074,5.764,5.764,0,0,1,2.621,7.018c.464-2.43-1.791-2.617-3.118-2.95a.321.321,0,0,1,0,.13c-.42,1.817-1.951,2.812-3.473,3.683a.239.239,0,0,1-.052.016c-.13-.527-.927-.912-1.225-.3-.265.542.308.977.788,1.114a17.362,17.362,0,0,1-.027,3.94c3.882,2.3,4.33,4.424,4.362,5.959.043,2.053-1.7,4.491-3.086,5.437.979-2.586-1.26-3.3-1.861-5.128a7.361,7.361,0,0,1-.168-1.548c-.163-1.365-.346-3.487-1.323-3.982C1069.036,345.655,1067.415,342.332,1067.38,340.857Z" fill="#243464"/>
      <path id="Path_1088" data-name="Path 1088" d="M1078.913,363.706a10.062,10.062,0,0,0,3.089,1.055c.764.041,1.223,1.083,2.04,1.132a.315.315,0,0,1,.238.528c-.305.331-1.187.124-1.822-.531a.259.259,0,0,1,.006.05.655.655,0,0,1-.3.558.563.563,0,0,1-.136.053.321.321,0,0,1-.033.146.6.6,0,0,1-.433.355v0a.577.577,0,0,1-.6.44.709.709,0,0,1-.469-.18,3.149,3.149,0,0,1-1.46-1.066,7.264,7.264,0,0,1-.885-1.033C1077.862,364.694,1078.151,363.169,1078.913,363.706Z" fill="#e5ae92"/>
      <g id="Group_1040" data-name="Group 1040">
        <g id="Group_1039" data-name="Group 1039">
          <g id="Group_1032" data-name="Group 1032">
            <g id="Group_1031" data-name="Group 1031">
              <path id="Path_1089" data-name="Path 1089" d="M1094.764,372.273l-9.856-5.728-7.074,4.084,9.857,5.728Z" fill="#ffbc00"/>
            </g>
          </g>
          <g id="Group_1038" data-name="Group 1038">
            <g id="Group_1037" data-name="Group 1037">
              <g id="Group_1035" data-name="Group 1035">
                <g id="Group_1033" data-name="Group 1033">
                  <path id="Path_1090" data-name="Path 1090" d="M1090.956,371.426l.377-.217.375.218-.377.218Z" fill="#fff"/>
                  <path id="Path_1091" data-name="Path 1091" d="M1090.786,371.524l.375.218-4.745,2.722-.375-.218Z" fill="#fff"/>
                </g>
                <g id="Group_1034" data-name="Group 1034">
                  <path id="Path_1092" data-name="Path 1092" d="M1090.29,371.006l.377-.218.375.218-.377.217Z" fill="#fff"/>
                  <path id="Path_1093" data-name="Path 1093" d="M1090.12,371.1l.375.218-4.745,2.722-.375-.218Z" fill="#fff"/>
                </g>
              </g>
              <g id="Group_1036" data-name="Group 1036">
                <path id="Path_1094" data-name="Path 1094" d="M1089.628,370.618l.377-.218.375.218-.377.217Z" fill="#fff"/>
                <path id="Path_1095" data-name="Path 1095" d="M1089.458,370.716l.375.218-4.745,2.722-.375-.218Z" fill="#fff"/>
              </g>
            </g>
          </g>
        </g>
        <path id="Path_1096" data-name="Path 1096" d="M1086.179,366.964a4.333,4.333,0,0,1,1.75.571,4.119,4.119,0,0,0,.62.458c.1.05.192.112.3.157a.943.943,0,0,1,.393.259.987.987,0,0,1,.176.546,2.35,2.35,0,0,1,.033.715c-.085.354-.454.327-.646.08a.775.775,0,0,1-.164-.432.938.938,0,0,0-.416-.753l-2.355-1.462A.281.281,0,0,1,1086.179,366.964Z" fill="#e5ae92"/>
      </g>
    </g>
  </g>
</svg>
