<svg xmlns="http://www.w3.org/2000/svg" xmlns:xlink="http://www.w3.org/1999/xlink" width="1210.117" height="869.986" viewBox="0 0 1210.117 869.986">
  <defs>
    <linearGradient id="linear-gradient" y1="0.5" x2="1" y2="0.5" gradientUnits="objectBoundingBox">
      <stop offset="0" stop-color="#ffef4a"/>
      <stop offset="0.859" stop-color="#f49918"/>
      <stop offset="1" stop-color="#f38b10"/>
    </linearGradient>
    <linearGradient id="linear-gradient-2" x1="0.994" y1="1.391" x2="0.015" y2="-0.494" gradientUnits="objectBoundingBox">
      <stop offset="0.187" stop-color="#330867" stop-opacity="0.251"/>
      <stop offset="0.653" stop-color="#330867" stop-opacity="0.075"/>
      <stop offset="1" stop-color="#330867" stop-opacity="0"/>
    </linearGradient>
    <linearGradient id="linear-gradient-3" x1="-3.275" y1="-0.013" x2="-4.728" y2="1.243" gradientUnits="objectBoundingBox">
      <stop offset="0" stop-color="#330867"/>
      <stop offset="0.79" stop-color="#30cfd0"/>
    </linearGradient>
    <linearGradient id="linear-gradient-4" x1="0" y1="0.5" x2="1" y2="0.5" xlink:href="#linear-gradient-3"/>
    <linearGradient id="linear-gradient-5" y1="0.5" x2="1" y2="0.5" gradientUnits="objectBoundingBox">
      <stop offset="0" stop-color="#1afffe"/>
      <stop offset="1" stop-color="#3688df" stop-opacity="0.486"/>
    </linearGradient>
    <linearGradient id="linear-gradient-6" x1="-55.323" y1="0.5" x2="-54.323" y2="0.5" gradientUnits="objectBoundingBox">
      <stop offset="0" stop-color="#30cfd0"/>
      <stop offset="1" stop-color="#330867"/>
    </linearGradient>
    <linearGradient id="linear-gradient-7" x1="-3.314" y1="0.5" x2="-2.314" y2="0.5" xlink:href="#linear-gradient-6"/>
    <linearGradient id="linear-gradient-8" x1="0.002" y1="0.5" x2="1" y2="0.5" xlink:href="#linear-gradient-3"/>
    <linearGradient id="linear-gradient-9" x1="-0.002" y1="0.507" x2="1" y2="0.507" xlink:href="#linear-gradient-3"/>
    <linearGradient id="linear-gradient-10" x1="0" y1="0.501" x2="1.002" y2="0.501" xlink:href="#linear-gradient-3"/>
    <linearGradient id="linear-gradient-11" x1="-3.352" y1="0.5" x2="-2.352" y2="0.5" gradientUnits="objectBoundingBox">
      <stop offset="0" stop-color="#330867"/>
      <stop offset="1" stop-color="#30cfd0"/>
    </linearGradient>
    <linearGradient id="linear-gradient-12" x1="-7.052" y1="0.5" x2="-6.052" y2="0.5" xlink:href="#linear-gradient"/>
    <linearGradient id="linear-gradient-13" x1="-7.79" y1="0.111" x2="-7.767" y2="0.789" xlink:href="#linear-gradient-5"/>
    <linearGradient id="linear-gradient-16" x1="-14.204" y1="0.219" x2="-15.862" y2="0.805" xlink:href="#linear-gradient-5"/>
    <linearGradient id="linear-gradient-17" x1="0" x2="1" xlink:href="#linear-gradient-5"/>
    <linearGradient id="linear-gradient-18" x1="-14.146" y1="0.198" x2="-15.804" y2="0.784" xlink:href="#linear-gradient-5"/>
    <linearGradient id="linear-gradient-20" x1="-14.087" y1="0.178" x2="-15.746" y2="0.764" xlink:href="#linear-gradient-5"/>
    <linearGradient id="linear-gradient-22" x1="-14.029" y1="0.157" x2="-15.687" y2="0.743" xlink:href="#linear-gradient-5"/>
    <linearGradient id="linear-gradient-24" x1="-13.971" y1="0.136" x2="-15.629" y2="0.723" xlink:href="#linear-gradient-5"/>
    <linearGradient id="linear-gradient-26" x1="-29.045" y1="-0.396" x2="-31.366" y2="0.96" xlink:href="#linear-gradient-5"/>
    <linearGradient id="linear-gradient-27" x1="-27.479" y1="-0.005" x2="-29.8" y2="1.352" xlink:href="#linear-gradient-5"/>
    <linearGradient id="linear-gradient-28" x1="-74.536" y1="0.5" x2="-73.536" y2="0.5" xlink:href="#linear-gradient-11"/>
    <linearGradient id="linear-gradient-29" x1="-68.959" y1="0.5" x2="-67.959" y2="0.5" xlink:href="#linear-gradient-11"/>
    <linearGradient id="linear-gradient-30" x1="-31.1" y1="0.5" x2="-30.1" y2="0.5" xlink:href="#linear-gradient-11"/>
    <linearGradient id="linear-gradient-33" y1="0.5" x2="1" y2="0.5" gradientUnits="objectBoundingBox">
      <stop offset="0" stop-color="#1affcf" stop-opacity="0.741"/>
      <stop offset="1" stop-color="#3688df"/>
    </linearGradient>
    <linearGradient id="linear-gradient-34" x1="0" y1="0.5" x2="1" y2="0.5" xlink:href="#linear-gradient-33"/>
    <linearGradient id="linear-gradient-38" x1="0.001" y1="0.5" x2="1.001" y2="0.5" xlink:href="#linear-gradient-33"/>
    <linearGradient id="linear-gradient-39" x1="-0.002" y1="0.5" x2="1" y2="0.5" xlink:href="#linear-gradient-33"/>
    <linearGradient id="linear-gradient-40" x1="-0.001" y1="0.5" x2="1.002" y2="0.5" xlink:href="#linear-gradient-33"/>
    <linearGradient id="linear-gradient-41" x1="0" y1="0.5" x2="1" y2="0.5" xlink:href="#linear-gradient-33"/>
    <linearGradient id="linear-gradient-42" x1="0" y1="0.5" x2="1" y2="0.5" xlink:href="#linear-gradient-33"/>
    <linearGradient id="linear-gradient-43" x1="-0.002" y1="0.5" x2="0.999" y2="0.5" xlink:href="#linear-gradient-33"/>
    <linearGradient id="linear-gradient-48" x1="-10.793" y1="0.5" x2="-9.793" y2="0.5" xlink:href="#linear-gradient-3"/>
    <linearGradient id="linear-gradient-49" x1="0" y1="0.5" x2="1" y2="0.5" xlink:href="#linear-gradient-11"/>
    <linearGradient id="linear-gradient-53" x1="-46.344" y1="263.15" x2="-144.659" y2="198.002" xlink:href="#linear-gradient-2"/>
    <linearGradient id="linear-gradient-54" x1="-46.378" y1="263.604" x2="-144.693" y2="198.455" xlink:href="#linear-gradient-2"/>
    <linearGradient id="linear-gradient-55" x1="0.505" y1="0.682" x2="1.332" y2="0.682" gradientUnits="objectBoundingBox">
      <stop offset="0" stop-color="#330867" stop-opacity="0"/>
      <stop offset="0.347" stop-color="#330867" stop-opacity="0.075"/>
      <stop offset="0.813" stop-color="#330867" stop-opacity="0.251"/>
    </linearGradient>
    <clipPath id="clip-path">
      <path id="Path_316" data-name="Path 316" d="M519.808,575.517l-.054,18.717c-.116-1.266-.189-2.539-.2-3.826l.053-18.717C519.618,572.978,519.691,574.252,519.808,575.517Z" fill="none"/>
    </clipPath>
    <clipPath id="clip-path-2">
      <path id="Path_321" data-name="Path 321" d="M559.2,623.557l-.053,18.717q-1.869-.994-3.663-2.029c-20.631-11.912-33.967-28.069-35.726-46.011l.054-18.717c1.758,17.942,15.094,34.1,35.726,46.011Q557.331,622.564,559.2,623.557Z" fill="url(#linear-gradient)"/>
    </clipPath>
    <linearGradient id="linear-gradient-71" x1="-46.478" y1="0.5" x2="-45.478" y2="0.5" xlink:href="#linear-gradient-11"/>
    <linearGradient id="linear-gradient-72" x1="-25.417" y1="0.5" x2="-24.417" y2="0.5" xlink:href="#linear-gradient-11"/>
    <linearGradient id="linear-gradient-73" x1="-37.073" y1="0.5" x2="-36.073" y2="0.5" xlink:href="#linear-gradient-11"/>
    <linearGradient id="linear-gradient-74" x1="-27.424" y1="0.5" x2="-26.424" y2="0.5" xlink:href="#linear-gradient-11"/>
    <linearGradient id="linear-gradient-75" x1="-32.628" y1="0.5" x2="-31.628" y2="0.5" xlink:href="#linear-gradient-11"/>
  </defs>
  <g id="Group_222" data-name="Group 222" transform="translate(-50.001 -50.002)">
    <path id="Path_112" data-name="Path 112" d="M612.931,863.431C593.563,863.732,50,896.985,50,896.985l660.9,23Z" opacity="0.5" fill="url(#linear-gradient-2)"/>
    <path id="Path_113" data-name="Path 113" d="M1239.9,650.839l-.061.111c-.125.224-.243.458-.375.673h0C1239.619,651.373,1239.758,651.1,1239.9,650.839Z" fill="none"/>
    <path id="Path_114" data-name="Path 114" d="M1234.7,656.353l0,0c-.351.2-.729.354-1.1.522l.042-.02C1234,656.69,1234.367,656.546,1234.7,656.353Z" fill="none"/>
    <path id="Path_115" data-name="Path 115" d="M1240.919,648.623l-.066.17c-.149.379-.28.778-.448,1.135l0,0C1240.6,649.52,1240.751,649.064,1240.919,648.623Z" fill="none"/>
    <path id="Path_116" data-name="Path 116" d="M1241.706,646.094c-.025.1-.051.2-.078.3-.108.415-.2.851-.325,1.246v0C1241.461,647.154,1241.577,646.617,1241.706,646.094Z" fill="none"/>
    <path id="Path_117" data-name="Path 117" d="M1242.519,639.28c0,.62-.052,1.2-.085,1.791-.024.409-.022.84-.06,1.236v.005Q1242.514,640.855,1242.519,639.28Z" fill="none"/>
    <path id="Path_118" data-name="Path 118" d="M1242.239,643.23c-.024.183-.053.361-.079.541-.066.442-.111.9-.2,1.327v.006C1242.083,644.507,1242.157,643.864,1242.239,643.23Z" fill="none"/>
    <path id="Path_119" data-name="Path 119" d="M1232.806,657.246h0c-.387.145-.8.239-1.207.349l.048-.014C1232.037,657.474,1232.434,657.386,1232.806,657.246Z" fill="none"/>
    <path id="Path_120" data-name="Path 120" d="M1230.749,657.834h0c-.423.085-.869.117-1.309.165l.051-.006C1229.915,657.945,1230.344,657.916,1230.749,657.834Z" fill="none"/>
    <path id="Path_121" data-name="Path 121" d="M813.548,265.689h0l-.01,0h0Z" fill="none"/>
    <path id="Path_122" data-name="Path 122" d="M813.666,265.558h0c-.018.016-.03.042-.05.057h0C813.635,265.6,813.647,265.574,813.666,265.558Z" fill="none"/>
    <path id="Path_123" data-name="Path 123" d="M813.41,265.718h0c-.009,0-.02,0-.029.005h0C813.389,265.721,813.4,265.722,813.41,265.718Z" fill="none"/>
    <path id="Path_124" data-name="Path 124" d="M1226.212,658.059h0c-.49-.043-1-.144-1.5-.229h.008C1225.219,657.915,1225.725,658.016,1226.212,658.059Z" fill="none"/>
    <path id="Path_125" data-name="Path 125" d="M1228.547,658.108h0c-.453.022-.929-.011-1.4-.027h.042C1227.646,658.1,1228.107,658.13,1228.547,658.108Z" fill="none"/>
    <path id="Path_126" data-name="Path 126" d="M1241.684,660.9c-.308.3-.6.617-.926.884C1241.084,661.521,1241.376,661.2,1241.684,660.9Z" fill="none"/>
    <path id="Path_127" data-name="Path 127" d="M813.073,265.785c-.032,0-.056.021-.089.018.033,0,.056-.018.089-.018Z" fill="none"/>
    <path id="Path_128" data-name="Path 128" d="M805.725,417.177l.005,0c-.3-.239-.594-.484-.89-.731l.006,0C805.138,416.7,805.429,416.941,805.725,417.177Z" fill="none"/>
    <path id="Path_129" data-name="Path 129" d="M803.307,415.11l.006.005c-.283-.258-.566-.514-.845-.78l0,0C802.747,414.6,803.027,414.854,803.307,415.11Z" fill="none"/>
    <path id="Path_130" data-name="Path 130" d="M808.185,419.005l0,0c-.272-.186-.537-.388-.806-.582l.01.008C807.658,418.624,807.918,418.823,808.185,419.005Z" fill="none"/>
    <path id="Path_131" data-name="Path 131" d="M800.216,412.065c.213.229.433.443.648.667l.005.005c-.217-.226-.439-.442-.653-.673Z" fill="none"/>
    <path id="Path_132" data-name="Path 132" d="M1215.608,460.155c.04.017.08.031.121.049.147.062.29.107.439.175h0C1215.98,460.293,1215.8,460.233,1215.608,460.155Z" fill="none"/>
    <path id="Path_133" data-name="Path 133" d="M1221.2,656.966h0c-.67-.228-1.357-.52-2.045-.818l.058.023C1219.883,656.458,1220.551,656.744,1221.2,656.966Z" fill="none"/>
    <path id="Path_134" data-name="Path 134" d="M810.694,420.6l405.132,233.891q1.38.8,2.727,1.414h0q-1.345-.618-2.728-1.414L810.694,420.6c-.017-.01-.034-.023-.052-.034l.036.024Z" fill="none"/>
    <path id="Path_135" data-name="Path 135" d="M1223.174,657.52c-.372-.092-.75-.2-1.129-.317l.035.01C1222.447,657.322,1222.813,657.431,1223.174,657.52Z" fill="none"/>
    <path id="Path_136" data-name="Path 136" d="M807.393,418.434l-.01-.008c-.556-.4-1.109-.812-1.653-1.245l-.005,0C806.274,417.614,806.832,418.029,807.393,418.434Z" fill="#f8d9d7"/>
    <path id="Path_137" data-name="Path 137" d="M800.216,412.064c-.466-.5-.913-1.025-1.365-1.545.452.52.9,1.047,1.365,1.546Z" fill="#f8d9d7"/>
    <path id="Path_138" data-name="Path 138" d="M802.471,414.337l0,0c-.542-.517-1.073-1.053-1.6-1.6l-.005-.005C801.393,413.28,801.926,413.818,802.471,414.337Z" fill="#f8d9d7"/>
    <path id="Path_139" data-name="Path 139" d="M804.846,416.454l-.006,0q-.773-.646-1.527-1.335l-.006-.005Q804.068,415.8,804.846,416.454Z" fill="#f8d9d7"/>
    <path id="Path_140" data-name="Path 140" d="M810.678,420.591l-.036-.024c-.828-.479-1.645-1-2.453-1.559l0,0C809.007,419.569,809.837,420.1,810.678,420.591Z" fill="#f8d9d7"/>
    <path id="Path_141" data-name="Path 141" d="M813.38,265.724h0a.907.907,0,0,1-.307.061h0A.907.907,0,0,0,813.38,265.724Z" fill="#f9fafb"/>
    <path id="Path_142" data-name="Path 142" d="M813.794,265.415c-.018.024-.039.044-.059.066a.818.818,0,0,1-.068.076h0A.981.981,0,0,0,813.794,265.415Z" fill="#f9fafb"/>
    <path id="Path_143" data-name="Path 143" d="M814.07,264.556a1.616,1.616,0,0,1-.1.482,1.947,1.947,0,0,1-.045.223h0A1.669,1.669,0,0,0,814.07,264.556Z" fill="#f9fafb"/>
    <path id="Path_144" data-name="Path 144" d="M813.54,265.692h0c-.038.021-.09.01-.13.026h0C813.45,265.7,813.5,265.713,813.54,265.692Z" fill="#f9fafb"/>
    <path id="Path_145" data-name="Path 145" d="M813.615,265.614h0c-.027.019-.039.059-.068.075h0C813.577,265.673,813.589,265.634,813.615,265.614Z" fill="#f9fafb"/>
    <path id="Path_146" data-name="Path 146" d="M798.32,238h0Z" fill="#fff" opacity="0.535"/>
    <path id="Path_147" data-name="Path 147" d="M798.522,237.765a.914.914,0,0,1-.125.144c-.03.023-.045.068-.077.087h0A.927.927,0,0,0,798.522,237.765Z" fill="#fff" opacity="0.535"/>
    <path id="Path_148" data-name="Path 148" d="M795.808,233.64h0Z" fill="#fff"/>
    <g id="Group_134" data-name="Group 134" opacity="0.535">
      <path id="Path_149" data-name="Path 149" d="M794.816,234.517a4.929,4.929,0,0,0,2.241,3.881c1.237.715,2.251.151,2.254-1.285a4.951,4.951,0,0,0-2.24-3.881C795.833,232.518,794.82,233.1,794.816,234.517Zm2.785,3.564a1.432,1.432,0,0,1-.183-.04,1.265,1.265,0,0,0,.184.04Zm-2.318-3.294c0-.007,0-.01,0-.017a1.743,1.743,0,0,1,.1-.585l.015-.009c-.005.012,0,.029-.008.041a1.016,1.016,0,0,1,.412-.577h0a62.707,62.707,0,0,0,.566-.111,1.73,1.73,0,0,1,.694.24,3.908,3.908,0,0,1,1.776,3.074,1.284,1.284,0,0,1-.448,1.066c-.03.023-.045.068-.077.087h0a1.25,1.25,0,0,1-1.262-.121A3.935,3.935,0,0,1,795.283,234.787Z" fill="#fff"/>
    </g>
    <path id="Path_150" data-name="Path 150" d="M812.415,223.721h0a3.9,3.9,0,0,1,1.762,3.066h0A3.9,3.9,0,0,0,812.415,223.721Z" fill="#fff" opacity="0.535"/>
    <path id="Path_151" data-name="Path 151" d="M811.535,223.517c.014,0,.026-.007.041-.008.05,0,.089-.033.142-.028h0C811.65,223.475,811.6,223.511,811.535,223.517Z" fill="#fff" opacity="0.535"/>
    <path id="Path_152" data-name="Path 152" d="M811.154,223.592Z" fill="#fff" opacity="0.535"/>
    <path id="Path_153" data-name="Path 153" d="M811.576,223.509c-.015,0-.027.007-.041.008.065-.006.115-.042.184-.036h0a1.7,1.7,0,0,1,.7.239h0a3.9,3.9,0,0,1,1.762,3.066h0l-.107,37.769a1.647,1.647,0,0,1-.1.482,1.616,1.616,0,0,0,.1-.482,1.669,1.669,0,0,1-.141.706h0a.918.918,0,0,1-.2.22c.02-.022.041-.042.059-.066a.981.981,0,0,1-.128.143c-.019.016-.031.042-.051.056s-.038.059-.067.075l-.008,0c-.038.021-.09.011-.13.026-.01,0-.021,0-.03.006a.907.907,0,0,1-.307.061c-.033,0-.056.021-.089.018a1.7,1.7,0,0,1-.687-.236,3.949,3.949,0,0,1-1.637-2.19,3.037,3.037,0,0,1-.138-.869l.108-37.77a1.241,1.241,0,0,1,.524-1.146h0A.937.937,0,0,1,811.576,223.509Z" fill="#fff" opacity="0.535"/>
    <path id="Path_154" data-name="Path 154" d="M812.611,206.779h0Z" fill="#fff" opacity="0.535"/>
    <path id="Path_155" data-name="Path 155" d="M813.241,206.917h0Z" fill="#fff" opacity="0.535"/>
    <path id="Path_156" data-name="Path 156" d="M814.31,206.7l-.009.007.009-.007Z" fill="#fff" opacity="0.535"/>
    <path id="Path_157" data-name="Path 157" d="M814.2,206.747a1.565,1.565,0,0,1-.181.067l0,0A1.614,1.614,0,0,0,814.2,206.747Z" fill="#fff" opacity="0.535"/>
    <path id="Path_158" data-name="Path 158" d="M813.812,206.89h0a1.985,1.985,0,0,1-.348.017h0A2.052,2.052,0,0,0,813.812,206.89Z" fill="#fff" opacity="0.535"/>
    <path id="Path_159" data-name="Path 159" d="M811.114,198.444c.042.011.079.013.121.026.015.005.029.005.044.01h0C811.222,198.461,811.17,198.459,811.114,198.444Z" fill="#fff" opacity="0.535"/>
    <path id="Path_160" data-name="Path 160" d="M810.433,198.353h.017a1.922,1.922,0,0,1,.2-.01h0A1.974,1.974,0,0,0,810.433,198.353Z" fill="#fff" opacity="0.535"/>
    <path id="Path_161" data-name="Path 161" d="M815.29,204.568a3.681,3.681,0,0,1-.07.73h0A3.681,3.681,0,0,0,815.29,204.568Z" fill="#fff" opacity="0.535"/>
    <path id="Path_162" data-name="Path 162" d="M812.778,206.816c-.057-.016-.109-.017-.167-.037h0C812.669,206.8,812.721,206.8,812.778,206.816Z" fill="#fff" opacity="0.535"/>
    <path id="Path_163" data-name="Path 163" d="M814.9,206.091l0,0a2.073,2.073,0,0,1-.184.279h0A1.975,1.975,0,0,0,814.9,206.091Z" fill="#fff" opacity="0.535"/>
    <path id="Path_164" data-name="Path 164" d="M814.025,206.812l0,0a1.677,1.677,0,0,1-.209.076h0A1.691,1.691,0,0,0,814.025,206.812Z" fill="#fff" opacity="0.535"/>
    <path id="Path_165" data-name="Path 165" d="M815.154,205.5l-.005.017a2.571,2.571,0,0,1-.125.381h0A2.662,2.662,0,0,0,815.154,205.5Z" fill="#fff" opacity="0.535"/>
    <path id="Path_166" data-name="Path 166" d="M814.542,206.517l0,0a1.648,1.648,0,0,1-.229.184h0A1.582,1.582,0,0,0,814.542,206.517Z" fill="#fff" opacity="0.535"/>
    <path id="Path_167" data-name="Path 167" d="M813.467,206.907h0a2.035,2.035,0,0,1-.223.01h0A2.113,2.113,0,0,0,813.467,206.907Z" fill="#fff" opacity="0.535"/>
    <path id="Path_168" data-name="Path 168" d="M815.29,204.568a3.681,3.681,0,0,1-.07.73h0c-.016.082-.049.147-.071.223l.005-.017a2.662,2.662,0,0,1-.13.4h0a1.875,1.875,0,0,1-.124.193l0,0a1.975,1.975,0,0,1-.186.283h0a1.634,1.634,0,0,1-.177.146l0,0a1.582,1.582,0,0,1-.232.187l-.009.007c-.03.017-.067.021-.1.036a1.614,1.614,0,0,1-.177.065,1.691,1.691,0,0,1-.213.078,2.052,2.052,0,0,1-.345.017,2.113,2.113,0,0,1-.226.01h-.006a2.694,2.694,0,0,1-.457-.1c-.057-.016-.109-.017-.167-.037h0a3.893,3.893,0,0,1-.674-.311,7.309,7.309,0,0,1-3.322-5.755c0-1.5.755-2.351,1.839-2.36h-.017a1.974,1.974,0,0,1,.219-.01h0a2.724,2.724,0,0,1,.583.128c-.042-.013-.079-.015-.121-.026.056.015.108.017.166.036h0a3.869,3.869,0,0,1,.676.311A7.341,7.341,0,0,1,815.29,204.568Z" fill="#fff" opacity="0.535"/>
    <path id="Path_169" data-name="Path 169" d="M1231.649,657.581l-.048.014c-.285.077-.556.179-.849.239h0C1231.06,657.771,1231.348,657.663,1231.649,657.581Z" fill="#f8d9d7"/>
    <path id="Path_170" data-name="Path 170" d="M1229.494,657.993l-.051.006c-.3.033-.587.093-.9.109h0C1228.872,658.091,1229.177,658.029,1229.494,657.993Z" fill="#f8d9d7"/>
    <path id="Path_171" data-name="Path 171" d="M1227.192,658.082h-.042c-.314-.011-.617.007-.937-.022h0C1226.547,658.089,1226.864,658.072,1227.192,658.082Z" fill="#f8d9d7"/>
    <path id="Path_172" data-name="Path 172" d="M1219.216,656.171l-.058-.023c-.2-.088-.4-.148-.6-.243h0C1218.777,656.008,1218.993,656.076,1219.216,656.171Z" fill="#f8d9d7"/>
    <path id="Path_173" data-name="Path 173" d="M1224.71,657.83c-.176-.03-.347-.048-.525-.082.18.035.355.053.533.083Z" fill="#f8d9d7"/>
    <path id="Path_174" data-name="Path 174" d="M1238.677,652.748l-.06.079c-.222.292-.429.6-.668.872l0,0C1238.207,653.408,1238.436,653.069,1238.677,652.748Z" fill="#f8d9d7"/>
    <path id="Path_175" data-name="Path 175" d="M1235.62,655.725l-.046.033c-.289.2-.565.419-.868.593l0,0C1235.023,656.168,1235.316,655.938,1235.62,655.725Z" fill="#f8d9d7"/>
    <path id="Path_176" data-name="Path 176" d="M1222.08,657.213l-.035-.01c-.282-.085-.556-.139-.842-.237h0C1221.5,657.067,1221.786,657.125,1222.08,657.213Z" fill="#f8d9d7"/>
    <path id="Path_177" data-name="Path 177" d="M1239.464,651.623h0c-.065.1-.116.224-.183.326v0C1239.347,651.85,1239.4,651.728,1239.464,651.623Z" fill="#f8d9d7"/>
    <path id="Path_178" data-name="Path 178" d="M1237.249,654.376l-.055.054c-.258.248-.5.516-.776.74l0,0C1236.71,654.931,1236.973,654.645,1237.249,654.376Z" fill="#f8d9d7"/>
    <path id="Path_179" data-name="Path 179" d="M1233.65,656.853l-.042.02c-.268.122-.522.269-.8.373h0C1233.1,657.137,1233.368,656.983,1233.65,656.853Z" fill="#f8d9d7"/>
    <path id="Path_180" data-name="Path 180" d="M1192.663,628.808l-356.4-205.757.932-328.66,356.4,205.757Z" fill="url(#linear-gradient-3)"/>
    <path id="Path_181" data-name="Path 181" d="M1171.439,312.9,859.2,132.638l-.786,179.816,312.234,180.26Z" fill="url(#linear-gradient-4)"/>
    <path id="Path_182" data-name="Path 182" d="M1090.156,265.971l81.283,46.926-.786,179.817-80.5-46.473Z" fill="url(#linear-gradient-5)"/>
    <path id="Path_183" data-name="Path 183" d="M1231.764,493.244c-.037.084-.064.179-.1.261h0C1231.7,493.423,1231.727,493.328,1231.764,493.244Z" fill="#4c3437"/>
    <path id="Path_184" data-name="Path 184" d="M1199.91,468.386c-.032,11.288,7.9,25.022,17.709,30.687s17.807,1.123,17.838-10.165-7.91-25.016-17.722-30.68S1199.941,457.112,1199.91,468.386Zm32.958,19.027a14.6,14.6,0,0,1-1.1,5.831c-.037.084-.064.179-.1.261-2.321,4.947-7.739,6.228-14.034,2.593-8.385-4.841-15.169-16.576-15.142-26.225.025-8.855,5.8-12.838,13.243-9.669.147.062.29.107.439.175q.768.354,1.559.809C1226.111,466.029,1232.9,477.779,1232.868,487.413Z" fill="url(#linear-gradient-6)"/>
    <g id="Group_135" data-name="Group 135" opacity="0.535">
      <path id="Path_185" data-name="Path 185" d="M807.739,200.209a9.229,9.229,0,0,0,4.192,7.259c2.323,1.342,4.223.273,4.231-2.4a9.285,9.285,0,0,0-4.2-7.282C809.635,196.449,807.746,197.538,807.739,200.209Zm7.551,4.359a3.681,3.681,0,0,1-.07.73c-.016.082-.049.147-.071.223a2.571,2.571,0,0,1-.125.381,1.875,1.875,0,0,1-.124.193,2.073,2.073,0,0,1-.184.279,20.256,20.256,0,0,1-.406.33l-.009.007c-.03.017-.067.021-.1.036a1.565,1.565,0,0,1-.181.067,1.677,1.677,0,0,1-.209.076,1.985,1.985,0,0,1-.348.017,2.035,2.035,0,0,1-.223.01h-.006a2.694,2.694,0,0,1-.457-.1c-.057-.016-.109-.017-.167-.037h0a3.893,3.893,0,0,1-.674-.311,7.309,7.309,0,0,1-3.322-5.755c0-1.5.755-2.351,1.839-2.36a1.922,1.922,0,0,1,.2-.01,2.724,2.724,0,0,1,.583.128c.015.005.029.005.044.01a3.869,3.869,0,0,1,.676.311A7.341,7.341,0,0,1,815.29,204.568Z" fill="#fff"/>
    </g>
    <path id="Path_186" data-name="Path 186" d="M1237.6,315.532c-5.6-8.687-12.832-16.165-20.752-20.738L900.128,111.947l316.717,182.847C1224.765,299.366,1232,306.845,1237.6,315.532Z" fill="#f9fafb"/>
    <path id="Path_187" data-name="Path 187" d="M1242.52,639.279h0c0,.62-.053,1.2-.086,1.791.033-.593.083-1.171.085-1.791Z" fill="#f9fafb"/>
    <path id="Path_188" data-name="Path 188" d="M1240.4,649.931l0,0c-.17.362-.376.682-.565,1.022l.061-.111C1240.067,650.535,1240.252,650.253,1240.4,649.931Z" fill="#f9fafb"/>
    <path id="Path_189" data-name="Path 189" d="M1241.963,645.1V645.1c-.091.454-.223.866-.336,1.3.027-.1.053-.2.078-.3C1241.788,645.76,1241.893,645.45,1241.963,645.1Z" fill="#f9fafb"/>
    <path id="Path_190" data-name="Path 190" d="M1241.3,647.646v0c-.131.4-.3.768-.45,1.151l.066-.17C1241.045,648.295,1241.19,647.99,1241.3,647.646Z" fill="#f9fafb"/>
    <path id="Path_191" data-name="Path 191" d="M1242.373,642.312v-.005c-.049.509-.141.977-.214,1.464.026-.18.055-.358.079-.541C1242.279,642.919,1242.342,642.631,1242.373,642.312Z" fill="#f9fafb"/>
    <path id="Path_192" data-name="Path 192" d="M1237.946,653.7l0,0c-.237.266-.5.488-.755.731l.055-.054C1237.481,654.151,1237.728,653.947,1237.946,653.7Z" fill="#f9fafb"/>
    <path id="Path_193" data-name="Path 193" d="M1239.281,651.952v0c-.2.315-.442.586-.665.878l.06-.079C1238.878,652.481,1239.094,652.237,1239.281,651.952Z" fill="#f9fafb"/>
    <path id="Path_194" data-name="Path 194" d="M1236.415,655.172l0,0c-.267.219-.562.392-.844.588l.046-.033C1235.885,655.54,1236.163,655.378,1236.415,655.172Z" fill="#f9fafb"/>
    <path id="Path_195" data-name="Path 195" d="M1230.459,313.487c7.735,9.822,12.92,22.556,12.889,33.681h0C1243.379,336.044,1238.194,323.31,1230.459,313.487Z" fill="#f9fafb"/>
    <path id="Path_196" data-name="Path 196" d="M1227.988,310.545c-.276-.307-.54-.63-.82-.929C1227.448,309.915,1227.712,310.238,1227.988,310.545Z" fill="#f9fafb"/>
    <path id="Path_197" data-name="Path 197" d="M1243.347,347.168h0l-.829,292.111h0Z" fill="#f8d9d7"/>
    <path id="Path_198" data-name="Path 198" d="M778.554,371.424c-.058,20.459,14.329,45.362,32.122,55.634l405.131,233.89c9.483,5.475,18,5.648,23.918,1.559.345-.238.706-.451,1.033-.719s.618-.588.926-.884.636-.57.926-.9.533-.7.8-1.045.563-.689.813-1.075.445-.8.668-1.2c.231-.416.482-.808.691-1.252.2-.424.353-.9.529-1.345.187-.474.4-.924.557-1.426.154-.48.262-1.008.394-1.512.135-.523.294-1.021.405-1.571.058-.291.083-.616.134-.916.044-.255.078-.521.115-.782.083-.562.191-1.1.247-1.688.054-.564.055-1.176.084-1.762.032-.636.089-1.25.091-1.912l.829-292.11h0c.032-11.343-4.394-24.052-11.37-34.88-5.6-8.687-12.832-16.165-20.752-20.738L900.128,111.947,811.714,60.9h0q-1.674-.966-3.306-1.715c-.4-.184-.783-.309-1.178-.474-.68-.283-1.365-.586-2.031-.813-.469-.161-.921-.257-1.382-.39-.574-.165-1.156-.357-1.717-.48-.478-.105-.935-.146-1.4-.22-.523-.083-1.057-.195-1.568-.241-.469-.042-.914-.022-1.371-.033-.487-.012-.985-.052-1.457-.029-.454.022-.881.1-1.321.159s-.911.082-1.346.169-.831.232-1.246.35-.845.21-1.245.359-.765.354-1.145.533-.785.336-1.153.548c-5.819,3.344-9.433,10.5-9.462,20.686Zm21.662,40.64c-.466-.5-.913-1.025-1.365-1.545-8.718-10.061-14.711-23.888-14.678-35.852h0L785,82.557h0c.024-8.4,3.012-14.31,7.819-17.075.314-.181.655-.315.985-.469.3-.142.6-.306.912-.425.347-.129.718-.21,1.079-.311.326-.092.64-.207.978-.276.378-.076.779-.1,1.17-.148.345-.041.678-.107,1.032-.125.406-.02.831.013,1.249.024.362.009.715-.008,1.086.025.438.039.895.134,1.345.206.37.059.73.09,1.107.172.5.108,1.008.275,1.516.423.348.1.688.172,1.041.293.588.2,1.193.464,1.794.718.287.12.565.21.854.342q1.346.62,2.726,1.414h0L991.924,171.4l224.9,129.841a45.863,45.863,0,0,1,10.34,8.38c.28.3.544.622.82.929q1.275,1.419,2.471,2.942c7.735,9.822,12.92,22.556,12.889,33.681h0l-.828,292.111h0c0,.62-.053,1.2-.086,1.791-.024.409-.022.84-.06,1.236-.049.509-.141.977-.214,1.464-.066.442-.111.9-.2,1.327-.091.454-.223.866-.336,1.3-.108.415-.2.851-.325,1.246s-.3.768-.45,1.151-.28.778-.448,1.135-.376.682-.565,1.022c-.125.224-.243.458-.375.673-.065.1-.116.224-.183.326-.2.315-.442.586-.665.878s-.429.6-.668.872-.5.488-.755.731-.5.516-.776.74-.562.392-.844.588-.565.419-.868.593c-.351.2-.729.354-1.1.522-.268.122-.522.269-.8.373-.387.145-.8.239-1.207.349-.285.077-.556.179-.849.239-.423.085-.869.117-1.309.165-.3.033-.587.093-.9.109-.453.022-.929-.011-1.4-.027-.314-.011-.617.007-.937-.022-.49-.043-1-.144-1.5-.229-.176-.03-.347-.048-.525-.082-.334-.066-.671-.144-1.011-.228-.372-.092-.75-.2-1.129-.317-.282-.085-.556-.139-.842-.237-.67-.228-1.357-.52-2.045-.818-.2-.088-.4-.148-.6-.243q-1.345-.618-2.728-1.414L810.694,420.6c-.017-.01-.034-.023-.052-.034-.828-.479-1.645-1-2.453-1.559-.272-.186-.537-.388-.806-.582-.556-.4-1.109-.812-1.653-1.245-.3-.239-.594-.484-.89-.731q-.773-.646-1.527-1.335c-.283-.258-.566-.514-.845-.78-.542-.517-1.073-1.053-1.6-1.6C800.652,412.511,800.43,412.3,800.216,412.064Z" fill="url(#linear-gradient-7)"/>
    <path id="Path_199" data-name="Path 199" d="M795.4,234.176l-.014.009a1.8,1.8,0,0,0-.1.56c0,.01-.005.015-.005.025a1.743,1.743,0,0,1,.1-.585l.015-.009c-.005.012,0,.029-.008.041a1.535,1.535,0,0,0-.034.174C795.38,234.324,795.38,234.238,795.4,234.176Z" fill="url(#linear-gradient-8)"/>
    <path id="Path_200" data-name="Path 200" d="M797.418,238.041a1.265,1.265,0,0,0,.184.04h0A1.432,1.432,0,0,1,797.418,238.041Z" fill="url(#linear-gradient-9)"/>
    <path id="Path_201" data-name="Path 201" d="M795.4,234.176c-.023.062-.023.148-.041.215a1.631,1.631,0,0,0-.071.354,1.8,1.8,0,0,1,.1-.56Z" fill="url(#linear-gradient-10)"/>
    <path id="Path_202" data-name="Path 202" d="M795.291,234.745a1.631,1.631,0,0,1,.071-.354,1.535,1.535,0,0,1,.034-.174,1.016,1.016,0,0,1,.412-.577h0a62.707,62.707,0,0,0,.566-.111,1.73,1.73,0,0,1,.694.24,3.908,3.908,0,0,1,1.776,3.074,1.284,1.284,0,0,1-.448,1.066.914.914,0,0,0,.125-.144.927.927,0,0,1-.2.231h0a1.25,1.25,0,0,1-1.262-.121,3.935,3.935,0,0,1-1.774-3.089c0-.007,0-.01,0-.017S795.291,234.755,795.291,234.745Z" fill="#fff" opacity="0.535"/>
    <path id="Path_203" data-name="Path 203" d="M1241.684,660.9c.309-.3.636-.57.926-.9s.533-.7.8-1.045.563-.689.813-1.075.445-.8.668-1.2c.231-.416.482-.808.691-1.252.2-.424.353-.9.529-1.345.187-.474.4-.924.557-1.426.154-.48.262-1.008.394-1.512.135-.523.294-1.021.405-1.571.058-.292.084-.617.135-.916.044-.255.077-.521.114-.782.083-.562.191-1.1.247-1.688.054-.564.055-1.176.084-1.762.032-.636.089-1.25.091-1.912l.829-292.11h0c.032-11.343-4.394-24.052-11.37-34.88-5.6-8.687-12.832-16.166-20.752-20.738L900.128,111.947,811.714,60.9h0q-1.674-.966-3.306-1.715c-.4-.184-.783-.309-1.178-.474-.68-.283-1.365-.586-2.031-.813-.47-.161-.921-.257-1.382-.39-.574-.165-1.156-.357-1.717-.48-.478-.105-.935-.146-1.4-.22-.523-.083-1.057-.195-1.568-.241-.469-.042-.914-.022-1.371-.033-.487-.012-.985-.052-1.457-.029-.454.022-.881.1-1.321.159s-.911.082-1.346.169-.831.232-1.246.35-.845.21-1.245.359-.764.354-1.145.533-.785.336-1.153.548c-.022.012-.045.019-.066.031l11.152-6.481c5.861-3.4,13.979-2.925,22.936,2.246L1228,288.313c17.794,10.272,32.18,35.175,32.122,55.619l-.828,292.111c-.028,10.162-3.615,17.309-9.4,20.67l-11.152,6.48c.345-.2.656-.458.986-.686.345-.238.706-.451,1.033-.719S1241.376,661.2,1241.684,660.9Z" fill="url(#linear-gradient-11)"/>
    <g id="Group_136" data-name="Group 136">
      <path id="Path_204" data-name="Path 204" d="M970.353,259.842l-53.11,48.983-6.712-18.119-6.227,8.712-21.272-50.484-5.447,74.554,212.571,122.721-25.31-121.452-22.119,47.776-17.94-31.408-12.979,4.814Z" fill="url(#linear-gradient-12)"/>
    </g>
    <g id="Group_141" data-name="Group 141">
      <g id="Group_137" data-name="Group 137">
        <path id="Path_205" data-name="Path 205" d="M743.38,93.814l139.455,79.751-.343,400.949L743.037,494.763Z" fill="url(#linear-gradient-13)"/>
        <path id="Path_206" data-name="Path 206" d="M884.844,573.147l-2.352,1.367.343-400.949,2.352-1.367Z" fill="url(#linear-gradient-5)" style="mix-blend-mode: multiply;isolation: isolate"/>
        <path id="Path_207" data-name="Path 207" d="M885.187,172.2l-2.352,1.367L743.38,93.814l2.352-1.367Z" fill="url(#linear-gradient-5)" style="mix-blend-mode: multiply;isolation: isolate"/>
      </g>
      <path id="Path_208" data-name="Path 208" d="M751.088,107.3h0a5.337,5.337,0,0,0,2.422,4.195c1.342.774,2.433.153,2.437-1.389a5.318,5.318,0,0,0-2.421-4.186h0C752.184,105.142,751.092,105.755,751.088,107.3Z" fill="#f9543e"/>
      <path id="Path_209" data-name="Path 209" d="M759.638,112.379h0a5.339,5.339,0,0,0,2.422,4.195c1.342.774,2.425.148,2.43-1.394h0a5.3,5.3,0,0,0-2.414-4.18h0C760.734,110.224,759.642,110.837,759.638,112.379Z" fill="#ffd13e"/>
      <path id="Path_210" data-name="Path 210" d="M773.461,120.5a5.3,5.3,0,0,0-2.414-4.18h0c-1.342-.775-2.433-.162-2.437,1.38h0a5.333,5.333,0,0,0,2.422,4.194c1.341.775,2.424.149,2.429-1.393Z" fill="#6be726"/>
      <g id="Group_138" data-name="Group 138">
        <path id="Path_211" data-name="Path 211" d="M839.656,243.38l13.742,7.933-.194,68.3-13.742-7.933Z" fill="#fff"/>
        <path id="Path_212" data-name="Path 212" d="M817.279,248.91l13.742,7.933-.141,49.884-6.518-3.763-7.224-4.17Z" fill="#fff"/>
        <path id="Path_213" data-name="Path 213" d="M794.8,285.9l.1-33.739,13.742,7.933-.1,33.739-9.345-5.395Z" fill="#fff"/>
        <path id="Path_214" data-name="Path 214" d="M772.529,253.112l13.742,7.933-.056,19.9-13.742-7.933Z" fill="#fff"/>
      </g>
      <g id="Group_139" data-name="Group 139">
        <path id="Path_215" data-name="Path 215" d="M778.385,398.259l-.019,6.686,75.014,43.307.019-6.686Z" fill="url(#linear-gradient-16)"/>
        <path id="Path_216" data-name="Path 216" d="M772.566,394.9c-1.587-.916-2.913-.2-2.918,1.663a6.462,6.462,0,0,0,2.9,5.022h0c1.62.935,2.913.16,2.918-1.664A6.345,6.345,0,0,0,772.566,394.9Z" fill="url(#linear-gradient-17)"/>
        <path id="Path_217" data-name="Path 217" d="M778.385,417.832l-.019,6.686,75.014,43.307.019-6.686Z" fill="url(#linear-gradient-18)"/>
        <path id="Path_218" data-name="Path 218" d="M772.566,414.473c-1.587-.916-2.913-.2-2.918,1.663a6.462,6.462,0,0,0,2.9,5.022h0c1.62.935,2.913.159,2.918-1.664A6.345,6.345,0,0,0,772.566,414.473Z" fill="url(#linear-gradient-17)"/>
        <path id="Path_219" data-name="Path 219" d="M778.385,437.4l-.019,6.686L853.379,487.4l.019-6.686Z" fill="url(#linear-gradient-20)"/>
        <path id="Path_220" data-name="Path 220" d="M772.566,434.046c-1.587-.916-2.913-.2-2.918,1.663a6.462,6.462,0,0,0,2.9,5.022h0c1.62.935,2.913.159,2.918-1.664A6.345,6.345,0,0,0,772.566,434.046Z" fill="url(#linear-gradient-17)"/>
        <path id="Path_221" data-name="Path 221" d="M778.385,456.978l-.019,6.686,75.014,43.307.019-6.686Z" fill="url(#linear-gradient-22)"/>
        <path id="Path_222" data-name="Path 222" d="M772.566,453.619c-1.587-.916-2.913-.2-2.918,1.663a6.462,6.462,0,0,0,2.9,5.022h0c1.62.935,2.913.159,2.918-1.664A6.345,6.345,0,0,0,772.566,453.619Z" fill="url(#linear-gradient-17)"/>
        <path id="Path_223" data-name="Path 223" d="M778.385,476.551l-.019,6.686,75.014,43.307.019-6.686Z" fill="url(#linear-gradient-24)"/>
        <path id="Path_224" data-name="Path 224" d="M772.566,473.192c-1.587-.917-2.913-.2-2.918,1.663a6.459,6.459,0,0,0,2.9,5.021v0c1.62.935,2.913.159,2.918-1.664A6.343,6.343,0,0,0,772.566,473.192Z" fill="url(#linear-gradient-17)"/>
      </g>
      <g id="Group_140" data-name="Group 140">
        <path id="Path_225" data-name="Path 225" d="M814.814,329.245l-.01,70.233,38.584,22.275.01-70.233Z" fill="url(#linear-gradient-26)"/>
        <path id="Path_226" data-name="Path 226" d="M771.676,305.383l-.01,70.233,38.584,22.275.01-70.233Z" fill="url(#linear-gradient-27)"/>
      </g>
    </g>
    <path id="Path_227" data-name="Path 227" d="M1086.414,495.988a8.167,8.167,0,0,1-3.7-6.411c.006-2.357,1.677-3.309,3.728-2.125a8.167,8.167,0,0,1,3.7,6.414C1090.132,496.217,1088.461,497.17,1086.414,495.988Z" fill="none"/>
    <g id="Group_143" data-name="Group 143">
      <ellipse id="Ellipse_4" data-name="Ellipse 4" cx="11.367" cy="20.091" rx="11.367" ry="20.091" transform="translate(1142.475 532.717) rotate(-23.053)" fill="#fff"/>
      <g id="Group_142" data-name="Group 142">
        <path id="Path_228" data-name="Path 228" d="M1160.8,539.893l.984.568a.605.605,0,0,1,.31.579c0,.165.005.33,0,.49-.01.27-.109.336-.315.22-.127-.072-.254-.141-.381-.221-.082-.053-.117-.042-.115.078.005.353,0,.7,0,1.05a.2.2,0,0,0,.094.2,8.284,8.284,0,0,1,2.02,2.32c.174.286.171.29.323.173.087-.065.171-.135.26-.2.11-.074.242,0,.352.2s.213.4.315.6c.121.239.121.41,0,.509a4.445,4.445,0,0,1-.362.273c-.062.041-.057.1-.014.214a10.27,10.27,0,0,1,.64,2.491,5.448,5.448,0,0,1-.522,3.508,2.2,2.2,0,0,1-2.87.989,6.8,6.8,0,0,1-3.412-3.2,10.49,10.49,0,0,1-1.363-3.7c-.337-2.088-.018-3.6.938-4.514a2.253,2.253,0,0,1,2.542-.342c.067.026.091.012.09-.077,0-.362,0-.724,0-1.084a.167.167,0,0,0-.092-.175c-.135-.074-.271-.154-.406-.234a.634.634,0,0,1-.312-.586c0-.17-.005-.34,0-.506.007-.261.1-.323.3-.208C1160.139,539.508,1160.472,539.7,1160.8,539.893Zm-.034,12.4c1.824,1.079,3.251-.06,3.247-2.4a7.608,7.608,0,0,0-3.281-6.182c-1.765-.977-3.155.143-3.148,2.491A7.7,7.7,0,0,0,1160.77,552.3Z" fill="#8ec651"/>
        <path id="Path_229" data-name="Path 229" d="M1160.319,546.885q0-.866,0-1.73c0-.287.084-.348.3-.223.123.07.245.14.367.212a.579.579,0,0,1,.3.579q0,1.023,0,2.044,0,.717,0,1.433c0,.249-.072.335-.252.258a2.03,2.03,0,0,1-.483-.284.6.6,0,0,1-.233-.507Q1160.318,547.776,1160.319,546.885Z" fill="#8ec651"/>
      </g>
    </g>
    <g id="Group_145" data-name="Group 145">
      <ellipse id="Ellipse_5" data-name="Ellipse 5" cx="16.044" cy="28.358" rx="16.044" ry="28.358" transform="translate(1103.627 331.515) rotate(-23.053)" fill="#fff"/>
      <g id="Group_144" data-name="Group 144">
        <path id="Path_230" data-name="Path 230" d="M1129.49,360.3q-2.585-1.492-5.17-2.987a2.072,2.072,0,0,1-.718-.654,2.569,2.569,0,0,1-.493-1.421q-.008-5.267,0-10.524c0-.686.442-1.033.954-.8.2.091.394.2.592.318l10.022,5.785a2.253,2.253,0,0,1,.945,1.054,2.438,2.438,0,0,1,.259,1.008q.006,5.275,0,10.544c0,.671-.449,1.02-.947.792-.213-.1-.424-.219-.636-.341Zm0-6.636q-2.578-1.488-5.156-2.98c-.123-.071-.165-.062-.164.115.005,1.568,0,3.13,0,4.695,0,.271.031.33.234.448l10.168,5.87c.2.116.233.093.233-.18v-4.634c0-.263,0-.263-.191-.374Zm-.013-3.792,5.14,2.967c.191.11.191.11.191-.153v-.791c0-.363-.007-.376-.273-.53l-10.092-5.826-.072-.042c-.162-.089-.2-.064-.2.146,0,.314.007.635,0,.944a.29.29,0,0,0,.167.321Q1126.912,348.378,1129.481,349.868Z" fill="#6db8c4"/>
        <path id="Path_231" data-name="Path 231" d="M1129.857,357.655q-.717-.414-1.434-.828a.642.642,0,0,1-.355-.628c-.011-.353-.01-.7,0-1.043.008-.291.122-.356.342-.228q1.441.831,2.883,1.664a.633.633,0,0,1,.331.636c0,.348,0,.7,0,1.042,0,.267-.1.344-.3.229Q1130.588,358.079,1129.857,357.655Z" fill="#6db8c4"/>
        <path id="Path_232" data-name="Path 232" d="M1126.3,355.6l-.737-.426a.586.586,0,0,1-.324-.542,7.448,7.448,0,0,1,.007-1.225c.022-.191.114-.24.267-.153q.8.453,1.59.919a.606.606,0,0,1,.261.511c0,.388,0,.773,0,1.157,0,.228-.109.306-.283.209C1126.821,355.9,1126.561,355.752,1126.3,355.6Z" fill="#6db8c4"/>
      </g>
    </g>
    <g id="Group_147" data-name="Group 147">
      <ellipse id="Ellipse_6" data-name="Ellipse 6" cx="16.044" cy="28.358" rx="16.044" ry="28.358" transform="translate(1103.627 400.95) rotate(-23.053)" fill="#fff"/>
      <g id="Group_146" data-name="Group 146">
        <path id="Path_233" data-name="Path 233" d="M1125.864,413.775c.556.32,1.111.638,1.667.964.112.065.187.069.268,0a4.354,4.354,0,0,1,2.515-1.226,4.083,4.083,0,0,1,2.325.559,12.544,12.544,0,0,1,2.522,1.85,1.354,1.354,0,0,1,.422.795,17.141,17.141,0,0,1,.288,3.873,5.892,5.892,0,0,1-.826,2.884,5.273,5.273,0,0,1-1.8,1.764c-.079.048-.081.146-.081.261,0,1.481,0,2.964,0,4.443,0,.51-.1.911-.411,1.084a.659.659,0,0,1-.267.064c-1.02.093-2.055.142-3.056.292-.687.1-1.726-.981-1.735-2.42q-.006-1.077,0-2.147c0-.194-.02-.258-.171-.252a7.789,7.789,0,0,1-1.056-.017.685.685,0,0,1-.508-.431q-1-1.911-2.005-3.826a.928.928,0,0,1-.1-.781c.14-.366.28-.732.424-1.094.082-.206.086-.2-.114-.319-.524-.3-1.049-.6-1.574-.909a2.659,2.659,0,0,1-1.209-1.882,1.489,1.489,0,0,1,.056-.882c.374-.821.751-1.639,1.152-2.427.146-.286.293-.573.422-.88.234-.56.653-.6,1.2-.288S1125.315,413.457,1125.864,413.775Zm7.076,2.3a3.559,3.559,0,0,0-1.082-.5,3.014,3.014,0,0,0-2.514.542,8.283,8.283,0,0,0-2.218,2.49,21.685,21.685,0,0,0-1.712,3.489.559.559,0,0,0,.067.533c.311.567.609,1.146.9,1.725.092.179.168.242.291.244a13.893,13.893,0,0,0,2.838-.214,6.93,6.93,0,0,0,3.71-1.726,4.09,4.09,0,0,0,1.073-1.779,9.264,9.264,0,0,0,.1-3.642.39.39,0,0,0-.17-.28A6.933,6.933,0,0,0,1132.94,416.076Zm-6.32-.042c-.788-.455-1.535-.883-2.282-1.32-.1-.059-.138-.01-.176.07-.407.855-.813,1.71-1.226,2.558-.069.141-.041.194.1.275q.917.519,1.833,1.059c.119.07.176.04.225-.064a14.52,14.52,0,0,1,1.058-1.877C1126.3,416.512,1126.451,416.288,1126.62,416.034Zm5.181,9.921a.281.281,0,0,0-.09-.006,11.888,11.888,0,0,1-2.561.53c-.076.01-.085.076-.085.17q0,1.259,0,2.515c0,.147.02.206.134.2q1.245-.118,2.5-.223c.076-.006.109-.047.108-.163C1131.8,427.978,1131.8,426.984,1131.8,425.955Z" fill="#c32741"/>
        <path id="Path_234" data-name="Path 234" d="M1131.8,417.239a3.19,3.19,0,0,1,1.344,2.6c.015.922-.594,1.451-1.359,1.006a3.281,3.281,0,0,1-1.357-2.657C1130.425,417.3,1131.066,416.745,1131.8,417.239Z" fill="#c32741"/>
      </g>
    </g>
    <g id="Group_149" data-name="Group 149">
      <ellipse id="Ellipse_7" data-name="Ellipse 7" cx="18.191" cy="32.153" rx="18.191" ry="32.153" transform="translate(1003.067 464.481) rotate(-23.053)" fill="#fff"/>
      <g id="Group_148" data-name="Group 148">
        <path id="Path_235" data-name="Path 235" d="M1025.193,484.124q0-3.765,0-7.529c0-1.115.679-1.639,1.515-1.167.413.233.826.478,1.238.713.358.2.317.24.319-.227,0-.558,0-1.12,0-1.679,0-.484.143-.571.543-.339a.921.921,0,0,1,.5.936c0,.626,0,1.253,0,1.874a.3.3,0,0,0,.167.321q2.919,1.678,5.837,3.37c.143.083.176.034.174-.143-.006-.638,0-1.271,0-1.9,0-.408.142-.513.45-.34.475.266.593.491.593,1.129,0,.569.006,1.142,0,1.706a.338.338,0,0,0,.191.364c.447.248.9.51,1.343.772a3.668,3.668,0,0,1,1.539,2.93q.006,7.59,0,15.172c0,1.058-.7,1.587-1.491,1.129q-5.711-3.288-11.422-6.593a3.679,3.679,0,0,1-1.49-2.879Q1025.19,487.929,1025.193,484.124Zm7.213.081c-1.974-1.14-3.948-2.276-5.922-3.426-.206-.12-.253-.065-.252.2q.009,5.59.005,11.174a1.115,1.115,0,0,0,.615,1.173l11.088,6.4c.468.27.615.159.615-.464q0-5.584.005-11.168c0-.266-.048-.373-.253-.49C1036.34,486.48,1034.373,485.34,1032.406,484.2Zm-.012-1.4q2.97,1.715,5.94,3.434c.174.1.23.07.225-.168-.012-.557,0-1.1,0-1.653a1.1,1.1,0,0,0-.575-1.092q-1.51-.875-3.022-1.746l-8.1-4.677c-.473-.272-.619-.164-.619.455,0,.512.011,1.033-.005,1.536a.46.46,0,0,0,.264.513C1028.462,480.531,1030.428,481.671,1032.394,482.806Z" fill="#6b00ee"/>
        <path id="Path_236" data-name="Path 236" d="M1031.3,493.423a.793.793,0,0,1-.3-.355q-1.051-2.013-2.1-4.026c-.191-.367-.19-.635-.009-.795.014-.012.03-.023.044-.034.424-.332.528-.273.952.537s.847,1.6,1.259,2.411c.132.259.206.281.333.185,1.174-.882,2.355-1.751,3.533-2.624.271-.2.461-.094.731.42.069.132.143.264.2.4.136.335.128.561-.038.684-.946.7-1.869,1.438-2.832,2.1-.487.336-.954.71-1.428,1.07A.252.252,0,0,1,1031.3,493.423Z" fill="#6b00ee"/>
      </g>
    </g>
    <g id="Group_150" data-name="Group 150">
      <ellipse id="Ellipse_8" data-name="Ellipse 8" cx="11.367" cy="20.091" rx="11.367" ry="20.091" transform="translate(1109.196 514.147) rotate(-23.053)" fill="#fff"/>
      <path id="Path_237" data-name="Path 237" d="M1126.866,534.661l-5.34-3.083a.777.777,0,0,1-.433-.836v-.193c0-.342.127-.439.387-.289q2.277,1.313,4.553,2.632c.133.078.2.071.246-.077.342-1.067.692-2.126,1.04-3.186.214-.652.428-1.305.646-1.951.041-.121.029-.189-.09-.315q-2.169-2.292-4.333-4.6a1.049,1.049,0,0,1-.324-.506.42.42,0,0,1,.069-.413,2.936,2.936,0,0,1,1.565-.909,3.737,3.737,0,0,1,2.071.156,7.107,7.107,0,0,1,2.326,1.416,12.311,12.311,0,0,1,2.447,2.973,15.527,15.527,0,0,1,2.181,6.278,11.6,11.6,0,0,1,.076,1.4c0,.356-.206.441-.458.174-.834-.88-1.666-1.767-2.5-2.651-.652-.693-1.3-1.383-1.955-2.081-.107-.115-.138-.077-.169.019q-.3.914-.593,1.822-.489,1.488-.981,2.972c-.056.171-.057.171.113.27l4.828,2.787a.818.818,0,0,1,.43.815c.02.622-.109.671-.542.418C1130.373,536.679,1128.62,535.674,1126.866,534.661Zm4.33-8.311-.009-.013.011.012c.017.246.041.5.05.739a10.242,10.242,0,0,1-.131,2.161.307.307,0,0,0,.11.31c.518.543,1.033,1.1,1.55,1.645.036.038.076.111.109.093s.018-.1.009-.16a12.638,12.638,0,0,0-.859-3.113A10.614,10.614,0,0,0,1131.2,526.35Zm-.887.578a4.278,4.278,0,0,0-.034-.484,5.57,5.57,0,0,0-.305-1.551,1.424,1.424,0,0,0-.661-.86.925.925,0,0,0-.853.037,2.9,2.9,0,0,0-1.129,1.167c-.055.09-.032.143.06.24.4.415.787.837,1.18,1.255.495.527.992,1.052,1.486,1.583.1.113.141.109.159-.035C1130.261,527.871,1130.292,527.451,1130.309,526.928Zm-2.566-4.147-.011-.049c-.189-.081-.38-.177-.568-.242a3.009,3.009,0,0,0-2.4.041c-.084.042-.079.079.02.183q.733.774,1.463,1.558c.1.109.141.077.183-.006a4.258,4.258,0,0,1,.572-.858A2.509,2.509,0,0,1,1127.743,522.781Z" fill="#f7b841"/>
    </g>
    <g id="Group_152" data-name="Group 152">
      <ellipse id="Ellipse_9" data-name="Ellipse 9" cx="11.367" cy="20.091" rx="11.367" ry="20.091" transform="translate(1075.917 498.275) rotate(-23.053)" fill="#fff"/>
      <g id="Group_151" data-name="Group 151">
        <path id="Path_238" data-name="Path 238" d="M1091.765,506.348a6.347,6.347,0,0,0,.583,4.414,7.605,7.605,0,0,0,1.552,2.222l.186.187a.4.4,0,0,1,.118.3,2.613,2.613,0,0,1-.091.533c-.035.114-.137.086-.242-.013a8.959,8.959,0,0,1-1.6-2.005,10.155,10.155,0,0,1-1.351-3.7,5.553,5.553,0,0,1,.329-3.147c.1-.22.3-.218.509-.1a1.249,1.249,0,0,1,.52.739,11.827,11.827,0,0,0,.548,1.536,6.429,6.429,0,0,0,1.209,1.815c.115.119.147.093.153-.062a2.645,2.645,0,0,1,.658-1.8,1.575,1.575,0,0,1,1.754-.359,2.051,2.051,0,0,1,.417.177c.875.506,1.75,1.009,2.625,1.516a1.759,1.759,0,0,1,.772,1.7,1.543,1.543,0,0,1-.116.47c-.056.1-.042.156.081.225.462.26.925.531,1.387.8.221.128.443.258.664.383a.435.435,0,0,1,.231.355c.017.165-.06.188-.158.182-.631-.034-1.259-.059-1.89-.1-.115-.007-.162.04-.159.214.01.549,0,1.088,0,1.631,0,.8-.256,1.163-.815,1.106a1.782,1.782,0,0,1-.957-.239,2.215,2.215,0,0,1-.819-1.052c-.114-.278-.22-.558-.333-.844-.054.015-.03.095-.031.146,0,.546.012,1.1-.027,1.63a2.387,2.387,0,0,1-.619,1.585.393.393,0,0,0-.106.314q0,2.276,0,4.546c0,.614-.315.856-.773.592q-.715-.412-1.433-.827A1.749,1.749,0,0,1,1093.8,520c0-1.3,0-2.6,0-3.9a.434.434,0,0,0-.176-.407c-.306-.247-.608-.52-.909-.794-.089-.081-.126-.083-.155.014-.119.394-.242.783-.367,1.17a.6.6,0,0,0-.006.289q.24,1.391.469,2.78c.107.655-.234,1.048-.692.794s-.925-.529-1.387-.8a1.666,1.666,0,0,1-.667-1.076c-.133-.735-.25-1.466-.366-2.2-.065-.407-.156-.823-.18-1.219a4.033,4.033,0,0,1,.224-1.295c.1-.408.2-.807.307-1.207a.5.5,0,0,0-.051-.326,5.488,5.488,0,0,1-.483-2.322c0-.1.083-.186,0-.292s-.16-.035-.228-.014c-.3.09-.486.341-.494.823-.01.564,0,1.138,0,1.708,0,.295-.068.346-.284.221-.1-.055-.191-.107-.287-.166a.374.374,0,0,1-.175-.325,21.14,21.14,0,0,1,.03-2.189c.124-1,.853-1.438,1.664-1.029.085.043.14.038.182-.035a1.127,1.127,0,0,1,.349-.324c.05-.038.079-.024.095.094a6.094,6.094,0,0,0,.184.847.326.326,0,0,1-.022.312,2.337,2.337,0,0,0-.1,2,3.764,3.764,0,0,0,.4.9.335.335,0,0,1,.059.291c-.176.679-.334,1.377-.526,2.04a2.753,2.753,0,0,0-.021,1.246c.136.777.259,1.55.381,2.324a.362.362,0,0,0,.186.315c.347.188.694.392,1.041.6.108.064.137.052.107-.12-.169-.965-.329-1.927-.5-2.89a.514.514,0,0,1,.006-.249c.224-.695.447-1.39.667-2.09.029-.094.075-.1.157-.033q1.107.965,2.216,1.928a.313.313,0,0,1,.094.287v4.443c0,.047,0,.1,0,.141a.225.225,0,0,0,.131.246c.4.224.794.452,1.191.688.1.063.15.045.137-.1,0-.049,0-.094,0-.141,0-1.555,0-3.109,0-4.666,0-.16.034-.242.126-.3a1.676,1.676,0,0,0,.622-1.472c.013-.964.006-1.94,0-2.915,0-.184.039-.21.163-.06.009.011.02.018.029.028a6.08,6.08,0,0,1,.9.954,8.2,8.2,0,0,1,.542,1.338c.176.45.282.56.583.6.162.02.323.039.483.053s.258-.105.258-.343c0-.91,0-1.822,0-2.733a.682.682,0,0,0-.078-.3c-.107-.23-.211-.462-.318-.692-.055-.119-.064-.178.026-.2.179-.039.295-.186.334-.445a.2.2,0,0,0-.1-.234c-.89-.508-1.781-1.071-2.669-1.52-1.028-.519-1.814.129-1.963,1.3a12.176,12.176,0,0,0-.027,1.288c0,.137-.033.179-.139.106a6.456,6.456,0,0,1-1.434-1.31,9.4,9.4,0,0,1-1.493-2.844C1091.826,506.528,1091.805,506.464,1091.765,506.348Z" fill="#35a8e0"/>
        <path id="Path_239" data-name="Path 239" d="M1098.6,510.97c0,.273-.17.4-.37.283a.889.889,0,0,1-.357-.718c0-.265.163-.39.361-.278A.9.9,0,0,1,1098.6,510.97Z" fill="#35a8e0"/>
      </g>
    </g>
    <g id="Group_161" data-name="Group 161">
      <path id="Path_240" data-name="Path 240" d="M991.644,491.869c5.067-2.395,10.406-6.131,14.965-9.394a33.548,33.548,0,0,1,6.022-3.884,14.666,14.666,0,0,1,3.239-.873,12.521,12.521,0,0,0,4.315-1.766.383.383,0,0,1,.278-.05.408.408,0,0,1,.6.116c.591.979-.022,1.885-.845,2.467a15.807,15.807,0,0,1-2.583,1.447,6.289,6.289,0,0,1-3.373,6.341c-.588.3-1.236.436-1.84.69-.9.379-1.593,1.059-2.494,1.41a4.834,4.834,0,0,1-2.825.131c-3.833,3.934-12.651,11.214-12.651,11.214C994.048,498.822,991.644,491.869,991.644,491.869Z" fill="#e5ae92"/>
      <g id="Group_154" data-name="Group 154">
        <path id="Path_241" data-name="Path 241" d="M951.931,599.482c2.751.707,7.795.317,10.186-1.137,1.989.059,10.867-4.427,12.335-.544,1.288,3.4-3.39,6.55-5.89,7.156-5.457,1.321-9.493,4.042-11.685,4.5-1.634.344-3.747.571-5.048-.713C950.269,607.207,950.4,601.51,951.931,599.482Z" fill="#0f3858"/>
        <g id="Group_153" data-name="Group 153">
          <path id="Path_242" data-name="Path 242" d="M956.877,608.518c2.192-.462,6.228-3.182,11.685-4.5,2.094-.507,5.7-2.8,6.067-5.53.486,3.131-3.736,5.908-6.067,6.473-5.457,1.321-9.493,4.042-11.685,4.5-1.634.344-3.747.57-5.048-.713a3.212,3.212,0,0,1-.715-1.3A6.541,6.541,0,0,0,956.877,608.518Z" fill="#0f3858"/>
        </g>
        <path id="Path_243" data-name="Path 243" d="M968.763,596.574a5.205,5.205,0,0,1,2.628,3.105c.128.611-.809.872-.938.258a4.208,4.208,0,0,0-3.081-3.011A1.28,1.28,0,0,1,968.763,596.574Z" fill="#0f3858"/>
        <path id="Path_244" data-name="Path 244" d="M966.707,597.116a5.36,5.36,0,0,1,2.668,3.155c.129.612-.809.873-.938.259a4.206,4.206,0,0,0-3.081-3.011A1.237,1.237,0,0,1,966.707,597.116Z" fill="#0f3858"/>
        <path id="Path_245" data-name="Path 245" d="M964.731,597.722a5.093,5.093,0,0,1,2.694,3.142c.128.611-.81.873-.939.259a4.207,4.207,0,0,0-3.081-3.012A1.2,1.2,0,0,1,964.731,597.722Z" fill="#0f3858"/>
      </g>
      <path id="Path_246" data-name="Path 246" d="M950.224,515.817c1.88.233,19.4,1.351,19.4,1.351-.371,6.733-2.941,36.235-4.014,44.633-1.02,7.983-3.5,36.544-3.5,36.544-3.752,4.077-10.186,1.137-10.186,1.137s-1.791-32.476-.778-41.853C953.07,539.893,949.664,527.427,950.224,515.817Z" fill="url(#linear-gradient-28)"/>
      <g id="Group_156" data-name="Group 156">
        <g id="Group_155" data-name="Group 155">
          <path id="Path_247" data-name="Path 247" d="M968.731,596.559" fill="#fff"/>
        </g>
      </g>
      <g id="Group_158" data-name="Group 158">
        <path id="Path_248" data-name="Path 248" d="M962.7,606.237c2.751.708,7.795.318,10.186-1.137,1.989.06,10.866-4.426,12.335-.544,1.288,3.4-3.39,6.55-5.89,7.156-5.457,1.322-9.493,4.042-11.685,4.5-1.634.343-3.747.57-5.048-.714C961.035,613.962,961.17,608.266,962.7,606.237Z" fill="#0f3858"/>
        <g id="Group_157" data-name="Group 157">
          <path id="Path_249" data-name="Path 249" d="M967.643,615.273c2.192-.461,6.228-3.182,11.685-4.5,2.094-.507,5.7-2.8,6.067-5.53.486,3.132-3.736,5.908-6.067,6.473-5.457,1.322-9.493,4.042-11.685,4.5-1.634.343-3.747.57-5.048-.714a3.2,3.2,0,0,1-.715-1.3A6.535,6.535,0,0,0,967.643,615.273Z" fill="#0f3858"/>
        </g>
        <path id="Path_250" data-name="Path 250" d="M979.529,603.329a5.205,5.205,0,0,1,2.628,3.105c.128.611-.809.872-.938.259a4.209,4.209,0,0,0-3.081-3.012A1.28,1.28,0,0,1,979.529,603.329Z" fill="#0f3858"/>
        <path id="Path_251" data-name="Path 251" d="M977.473,603.871a5.369,5.369,0,0,1,2.668,3.156c.128.611-.809.872-.938.259a4.208,4.208,0,0,0-3.081-3.012A1.24,1.24,0,0,1,977.473,603.871Z" fill="#0f3858"/>
        <path id="Path_252" data-name="Path 252" d="M975.5,604.478a5.086,5.086,0,0,1,2.693,3.142c.129.611-.809.872-.938.259a4.206,4.206,0,0,0-3.081-3.012A1.194,1.194,0,0,1,975.5,604.478Z" fill="#0f3858"/>
      </g>
      <path id="Path_253" data-name="Path 253" d="M959.109,522.34c1.88.232,21.285,1.583,21.285,1.583-.371,6.734-2.941,36.235-4.014,44.633-1.02,7.983-3.5,36.544-3.5,36.544-3.752,4.078-10.186,1.137-10.186,1.137s-1.791-32.475-.778-41.853C963.835,546.648,958.549,533.95,959.109,522.34Z" fill="url(#linear-gradient-29)"/>
      <g id="Group_160" data-name="Group 160">
        <g id="Group_159" data-name="Group 159">
          <path id="Path_254" data-name="Path 254" d="M979.5,603.314" fill="#fff"/>
        </g>
      </g>
      <path id="Path_255" data-name="Path 255" d="M951.8,469.323a8.3,8.3,0,0,1,6.112-7.572,16.066,16.066,0,0,1,10.051,1,44.637,44.637,0,0,1,14.378,9.433,24.908,24.908,0,0,1,5.786,9.944c.984,2.817,2.107,5.581,3.142,8.379.686-.407,2.143-1.306,2.143-1.306a11.251,11.251,0,0,1,3.162,9.973s-6.662,5.323-8.228,5.314c-4.314-.024-6.378-8.758-7.252-11.052,1.573,16.639,1.095,30.845.693,32.015-17.323,7.838-32.5-.883-32.537-3.838C949.145,514.375,951.083,481.223,951.8,469.323Z" fill="url(#linear-gradient-30)"/>
      <path id="Path_256" data-name="Path 256" d="M958.651,441.7a9.971,9.971,0,0,1,9.5-5.231c3.679.186,7.633,2.083,8.87,5.782,1.609,4.814,3.25,10.734.846,15.431C970.055,472.961,955.687,447.171,958.651,441.7Z" fill="#e5ae92"/>
      <path id="Path_257" data-name="Path 257" d="M962.076,455.544a.491.491,0,0,1,.732-.42c2.576,1.544,8.164,1.114,8.164,1.48,0,0,1.07,7.671,1.473,10.093a.5.5,0,0,1-.34.6,8.708,8.708,0,0,1-8.431-1.71A4.6,4.6,0,0,1,961.7,462.6,47.9,47.9,0,0,1,962.076,455.544Z" fill="#e5ae92"/>
      <path id="Path_258" data-name="Path 258" d="M955.578,442.44a9.142,9.142,0,0,1,1.585-2.854c2.257-2.74,5.84-4.765,9.475-4.434a.537.537,0,0,1,.1.03l.02-.02a5.289,5.289,0,0,1,.658-.475,4.017,4.017,0,0,1,1.871-.574c.72-.03,2.162.237,2.483,1.029a.47.47,0,0,1,.2-.111c4.094-1.092,8.416,1.795,7.505,6.291-.864,4.264-5.183,6.689-9.3,7.063-.038,0-.072,2.06-.1,4.246a3.284,3.284,0,0,0-2.727-1.291,1.95,1.95,0,0,0-1.863,2.358c.508,1.6,2.852,2.258,4.558,1.8-.012,1.142-.021,2.029-.026,2.232a2.538,2.538,0,0,1-.523,1.71,2.211,2.211,0,0,1-1.066.561c-.648.173-1.323.215-1.984.327a4.589,4.589,0,0,0-1.482.473,11.266,11.266,0,0,1-1.2.755c-1.4.566-2.182-1.172-2.78-2.106a24.479,24.479,0,0,0-2.461-3.03,11.96,11.96,0,0,1-2.067-3.009,16.169,16.169,0,0,1-1.534-7.076A12.635,12.635,0,0,1,955.578,442.44Z" fill="#634e42"/>
    </g>
    <g id="Group_162" data-name="Group 162">
      <path id="Path_259" data-name="Path 259" d="M665.062,879.173a2.818,2.818,0,0,0,.99-.178l426.889-247.408c12.731-6.893,23.609-18.883,23.609-33.943a30.4,30.4,0,0,1,18.9-28.21l20.981-8.635a2.849,2.849,0,0,0-2.169-5.268l-20.982,8.636a36.08,36.08,0,0,0-22.427,33.477c0,12.693-11.244,22.144-19.894,28.6L664.072,873.655a2.848,2.848,0,0,0,.99,5.518Z" fill="url(#linear-gradient)"/>
    </g>
    <g id="Group_163" data-name="Group 163">
      <path id="Path_260" data-name="Path 260" d="M632.442,859.307a2.792,2.792,0,0,0,.99-.178l426.889-247.408c14.695-7.478,23.609-18.883,23.609-33.942a30.406,30.406,0,0,1,18.9-28.211l20.981-8.635a2.848,2.848,0,0,0-2.169-5.267l-20.981,8.635a36.083,36.083,0,0,0-22.428,33.478c0,12.692-9.568,22.15-19.893,28.6L631.452,853.79a2.847,2.847,0,0,0,.99,5.517Z" fill="url(#linear-gradient-5)"/>
    </g>
    <g id="Group_168" data-name="Group 168">
      <g id="Group_164" data-name="Group 164">
        <path id="Path_261" data-name="Path 261" d="M758.314,773.165l-.024,119.3a3.924,3.924,0,0,1-2.295,3.216l.025-119.3A3.923,3.923,0,0,0,758.314,773.165Z" fill="url(#linear-gradient-33)"/>
      </g>
      <g id="Group_165" data-name="Group 165">
        <path id="Path_262" data-name="Path 262" d="M756.02,776.381,756,895.682l-39.519,22.964.025-119.3Z" fill="url(#linear-gradient-34)"/>
      </g>
      <path id="Path_263" data-name="Path 263" d="M622.339,751.44c-1.563-.9-2.345-2.087-2.342-3.268l-.024,119.3c0,1.182.778,2.366,2.342,3.269l82.979,47.9.025-119.3Z" fill="url(#linear-gradient-34)"/>
      <g id="Group_166" data-name="Group 166">
        <path id="Path_264" data-name="Path 264" d="M755.984,769.9c3.093,1.786,3.11,4.691.036,6.477L716.5,799.346a12.325,12.325,0,0,1-11.183,0L622.339,751.44c-3.1-1.791-3.127-4.691-.045-6.482l39.519-22.964A12.338,12.338,0,0,1,673,722Z" fill="url(#linear-gradient-34)"/>
      </g>
      <g id="Group_167" data-name="Group 167">
        <path id="Path_265" data-name="Path 265" d="M716.5,799.346l-.024,119.3a12.325,12.325,0,0,1-11.183,0l.024-119.3A12.325,12.325,0,0,0,716.5,799.346Z" fill="url(#linear-gradient-34)"/>
      </g>
    </g>
    <g id="Group_169" data-name="Group 169">
      <path id="Path_266" data-name="Path 266" d="M621.317,742.037c-.106-.093-.174-.2-.268-.293C621.143,741.841,621.211,741.943,621.317,742.037Z" fill="url(#linear-gradient-38)"/>
      <path id="Path_267" data-name="Path 267" d="M620.147,740.383a2.75,2.75,0,0,1-.065-.378A2.75,2.75,0,0,0,620.147,740.383Z" fill="url(#linear-gradient-39)"/>
      <path id="Path_268" data-name="Path 268" d="M620.586,741.236a3.481,3.481,0,0,1-.183-.353A3.481,3.481,0,0,0,620.586,741.236Z" fill="url(#linear-gradient-40)"/>
      <path id="Path_269" data-name="Path 269" d="M757.741,766.191a4.378,4.378,0,0,1-.463.514A4.378,4.378,0,0,0,757.741,766.191Z" fill="url(#linear-gradient-41)"/>
      <path id="Path_270" data-name="Path 270" d="M757.024,766.985a6.263,6.263,0,0,1-1,.715A6.263,6.263,0,0,0,757.024,766.985Z" fill="url(#linear-gradient-42)"/>
      <path id="Path_271" data-name="Path 271" d="M758.171,765.345a3.47,3.47,0,0,1-.249.494A3.364,3.364,0,0,0,758.171,765.345Z" fill="url(#linear-gradient-43)"/>
      <path id="Path_272" data-name="Path 272" d="M758.171,765.345a59.423,59.423,0,0,1-.43.846,4.378,4.378,0,0,1-.463.514c-.089.092-.152.19-.254.28a6.263,6.263,0,0,1-1,.715L716.5,790.665l-.024,8.681,39.518-22.965a3.924,3.924,0,0,0,2.295-3.216l.024-8.681a2.692,2.692,0,0,1-.08.483A2.742,2.742,0,0,1,758.171,765.345Z" fill="url(#linear-gradient-34)"/>
      <path id="Path_273" data-name="Path 273" d="M705.319,790.665l-.025,8.681a12.325,12.325,0,0,0,11.183,0l.024-8.681A12.323,12.323,0,0,1,705.319,790.665Z" fill="url(#linear-gradient-34)"/>
      <path id="Path_274" data-name="Path 274" d="M622.339,742.759a6.536,6.536,0,0,1-1.022-.722c-.106-.094-.174-.2-.268-.293a4.823,4.823,0,0,1-.463-.508,3.481,3.481,0,0,1-.183-.353,3.285,3.285,0,0,1-.256-.5,2.75,2.75,0,0,1-.065-.378,2.717,2.717,0,0,1-.082-.5l0-.014-.024,8.681c0,1.182.778,2.365,2.341,3.268l82.98,47.906.025-8.681Z" fill="url(#linear-gradient-34)"/>
      <path id="Path_275" data-name="Path 275" d="M620.082,740.005a2.75,2.75,0,0,0,.065.378,3.285,3.285,0,0,0,.256.5,3.481,3.481,0,0,0,.183.353,4.823,4.823,0,0,0,.463.508c.094.1.162.2.268.293a6.536,6.536,0,0,0,1.022.722l82.98,47.906a12.323,12.323,0,0,0,11.182,0L756.02,767.7a6.263,6.263,0,0,0,1-.715c.1-.09.165-.188.254-.28a4.378,4.378,0,0,0,.463-.514,3.358,3.358,0,0,0,.181-.352,3.47,3.47,0,0,0,.249-.494,2.742,2.742,0,0,0,.063-.378c.247-1.336-.48-2.722-2.25-3.744L673,713.318a12.341,12.341,0,0,0-11.191-.005l-39.519,22.964A3.911,3.911,0,0,0,620,739.505,2.717,2.717,0,0,0,620.082,740.005Z" fill="url(#linear-gradient-34)"/>
    </g>
    <g id="Group_170" data-name="Group 170">
      <path id="Path_276" data-name="Path 276" d="M644.371,742.554c-.071-.061-.115-.129-.177-.193C644.256,742.425,644.3,742.493,644.371,742.554Z" fill="none"/>
      <path id="Path_277" data-name="Path 277" d="M643.6,741.463a1.774,1.774,0,0,1-.043-.249A1.774,1.774,0,0,0,643.6,741.463Z" fill="none"/>
      <path id="Path_278" data-name="Path 278" d="M643.888,742.026a2.253,2.253,0,0,1-.121-.233A2.253,2.253,0,0,0,643.888,742.026Z" fill="none"/>
      <path id="Path_279" data-name="Path 279" d="M734.426,758.5a2.986,2.986,0,0,1-.306.339A2.986,2.986,0,0,0,734.426,758.5Z" fill="none"/>
      <path id="Path_280" data-name="Path 280" d="M733.953,759.023a4.26,4.26,0,0,1-.664.473A4.26,4.26,0,0,0,733.953,759.023Z" fill="none"/>
      <path id="Path_281" data-name="Path 281" d="M734.709,757.941a2.147,2.147,0,0,1-.164.325A2.242,2.242,0,0,0,734.709,757.941Z" fill="none"/>
      <path id="Path_282" data-name="Path 282" d="M734.709,757.941a66.958,66.958,0,0,1-.283.558,2.986,2.986,0,0,1-.306.339c-.059.061-.1.126-.167.185a4.26,4.26,0,0,1-.664.473L707.2,774.654l-.016,5.731,26.086-15.159a2.591,2.591,0,0,0,1.515-2.123l.016-5.731a1.753,1.753,0,0,1-.053.319A1.8,1.8,0,0,1,734.709,757.941Z" fill="#dfe0e2"/>
      <path id="Path_283" data-name="Path 283" d="M699.821,774.655l-.016,5.73a8.136,8.136,0,0,0,7.382,0l.016-5.731A8.133,8.133,0,0,1,699.821,774.655Z" fill="#e9e9eb"/>
      <path id="Path_284" data-name="Path 284" d="M645.045,743.031a4.209,4.209,0,0,1-.674-.477c-.071-.061-.115-.129-.177-.193a2.957,2.957,0,0,1-.306-.335,56.125,56.125,0,0,1-.29-.563,1.774,1.774,0,0,1-.043-.249,1.812,1.812,0,0,1-.054-.331l0-.009-.016,5.73a2.622,2.622,0,0,0,1.546,2.158L699.8,780.385l.016-5.73Z" fill="#f1f2f4"/>
      <path id="Path_285" data-name="Path 285" d="M643.555,741.214a1.774,1.774,0,0,0,.043.249,56.125,56.125,0,0,0,.29.563,2.957,2.957,0,0,0,.306.335c.062.064.106.132.177.193a4.209,4.209,0,0,0,.674.477l54.776,31.624a8.133,8.133,0,0,0,7.382,0L733.289,759.5a4.26,4.26,0,0,0,.664-.473c.066-.059.108-.124.167-.185a2.986,2.986,0,0,0,.306-.339,2.223,2.223,0,0,0,.119-.233,2.147,2.147,0,0,0,.164-.325,1.8,1.8,0,0,0,.042-.25,2.423,2.423,0,0,0-1.485-2.471L678.49,723.6a8.149,8.149,0,0,0-7.388,0l-26.086,15.159a2.58,2.58,0,0,0-1.515,2.13A1.812,1.812,0,0,0,643.555,741.214Z" fill="#fff"/>
      <path id="Path_286" data-name="Path 286" d="M703.518,772.692a4.736,4.736,0,0,0,2.256-.5l25.514-14.826-54.221-31.3a5.375,5.375,0,0,0-4.536-.008l-25.515,14.828,54.23,31.306A4.777,4.777,0,0,0,703.518,772.692Z" fill="url(#linear-gradient-48)"/>
    </g>
    <path id="Path_287" data-name="Path 287" d="M693.229,759.024c0,2.116,2.29,3.831,5.116,3.831s5.117-1.715,5.117-3.831-2.291-3.831-5.117-3.831S693.229,756.908,693.229,759.024Z" fill="#8ec651"/>
    <path id="Path_288" data-name="Path 288" d="M678.871,751.362c0,2.116,2.29,3.831,5.116,3.831s5.117-1.715,5.117-3.831-2.291-3.831-5.117-3.831S678.871,749.246,678.871,751.362Z" fill="#f7b841"/>
    <path id="Path_289" data-name="Path 289" d="M665.818,745.166c0,2.116,2.29,3.831,5.116,3.831s5.117-1.715,5.117-3.831-2.291-3.83-5.117-3.83S665.818,743.051,665.818,745.166Z" fill="#35a8e0"/>
    <g id="Group_181" data-name="Group 181">
      <path id="Path_290" data-name="Path 290" d="M671.946,749.462c-.455-1.287-2.58-.614-3.534-.686a48.246,48.246,0,0,0-9.6-.119c-1.393.176-2.763.486-4.144.732-5.446.972-10.126.267-15.624-.326,0,0-1.557,7.089-1.675,8.053,0,0,11.169-1.587,16.42-2.925.689.653,6.526,1.754,7.174,1.807a5.652,5.652,0,0,0,1.381-.07,3.129,3.129,0,0,1,1.483-.135,17.132,17.132,0,0,1,2.462,1.155.679.679,0,0,0,.9-.237,1.344,1.344,0,0,0-.264-1.659,4.093,4.093,0,0,0-1.008-.79,9.588,9.588,0,0,0-1.961-.754c-.468-.141-.92-.6-.406-1.013a1.147,1.147,0,0,1,.2-.13c1.833-.921,4.076.187,6-.552C670.571,751.5,672.365,750.647,671.946,749.462Z" fill="#e5ae92"/>
      <path id="Path_291" data-name="Path 291" d="M650.743,748.86c-1.118.148-21.144-1.29-21.144-1.29s-1.234-3.37-2.52-6.848a22.289,22.289,0,0,0-4.262,7.874,21.7,21.7,0,0,0-.1,8.647c1.172,1.364,2.328,2.43,3.163,2.424,4.1-.028,28.276-2.687,29.237-4.254C654.943,753.749,654.1,751.56,650.743,748.86Z" fill="url(#linear-gradient-49)"/>
      <path id="Path_292" data-name="Path 292" d="M662.746,760.967c5.5.592,10.178,1.3,15.624.326,2.556-.457,5.513-1.268,8.875-.7a16.362,16.362,0,0,1,3.174.933,12.358,12.358,0,0,0,4.542.735.38.38,0,0,1,.26.1.4.4,0,0,1,.448.408c-.007,1.128-.99,1.575-1.982,1.641a15.511,15.511,0,0,1-2.919-.112,6.2,6.2,0,0,1-6.1,3.6c-.648-.053-6.485-1.154-7.174-1.807-5.251,1.338-16.42,2.926-16.42,2.926C661.189,768.055,662.746,760.967,662.746,760.967Z" fill="#e5ae92"/>
      <g id="Group_172" data-name="Group 172">
        <path id="Path_293" data-name="Path 293" d="M606.5,892.818c3.454.888,9.786.4,12.788-1.428,2.5.075,13.642-5.557,15.486-.683,1.617,4.272-4.256,8.224-7.4,8.984-6.85,1.659-11.918,5.075-14.669,5.654-2.051.431-4.7.716-6.337-.9C604.415,902.516,604.585,895.364,606.5,892.818Z" fill="#0f3858"/>
        <g id="Group_171" data-name="Group 171">
          <path id="Path_294" data-name="Path 294" d="M612.711,904.161c2.751-.578,7.819-3.994,14.669-5.653,2.629-.637,7.16-3.516,7.618-6.943.61,3.931-4.691,7.417-7.618,8.126-6.85,1.659-11.918,5.075-14.669,5.654-2.051.431-4.7.716-6.337-.9a4,4,0,0,1-.9-1.636A8.2,8.2,0,0,0,612.711,904.161Z" fill="#0f3858"/>
        </g>
        <path id="Path_295" data-name="Path 295" d="M627.633,889.167a6.533,6.533,0,0,1,3.3,3.9c.161.767-1.016,1.095-1.178.324a5.28,5.28,0,0,0-3.868-3.78A1.608,1.608,0,0,1,627.633,889.167Z" fill="#0f3858"/>
        <path id="Path_296" data-name="Path 296" d="M625.052,889.847a6.736,6.736,0,0,1,3.35,3.962c.161.767-1.017,1.095-1.178.325a5.284,5.284,0,0,0-3.868-3.781A1.555,1.555,0,0,1,625.052,889.847Z" fill="#0f3858"/>
        <path id="Path_297" data-name="Path 297" d="M622.571,890.608a6.4,6.4,0,0,1,3.382,3.946c.161.767-1.017,1.094-1.179.324a5.282,5.282,0,0,0-3.867-3.781A1.5,1.5,0,0,1,622.571,890.608Z" fill="#0f3858"/>
      </g>
      <path id="Path_298" data-name="Path 298" d="M605.578,789.784c1.407,13.659,5.175,29.612.761,48.244-3.559,15.023-.075,55.036-.075,55.036s7.85,4.847,12.95-.7c0,0,.9-34.038,5.3-52.885,2.026-8.686,4.639-30.693,4.4-49.7Z" fill="url(#linear-gradient-49)"/>
      <g id="Group_175" data-name="Group 175">
        <g id="Group_174" data-name="Group 174">
          <g id="Group_173" data-name="Group 173">
            <path id="Path_299" data-name="Path 299" d="M629.1,889.091" fill="#0f3858"/>
          </g>
        </g>
      </g>
      <g id="Group_177" data-name="Group 177">
        <path id="Path_300" data-name="Path 300" d="M624.716,903.473c3.455.888,9.786.4,12.788-1.428,2.5.075,13.642-5.557,15.487-.683,1.616,4.272-4.257,8.224-7.4,8.984-6.85,1.659-11.918,5.075-14.669,5.654-2.051.432-4.7.716-6.337-.9C622.63,913.171,622.8,906.019,624.716,903.473Z" fill="#0f3858"/>
        <g id="Group_176" data-name="Group 176">
          <path id="Path_301" data-name="Path 301" d="M630.926,914.817c2.751-.579,7.819-3.995,14.669-5.654,2.629-.637,7.16-3.515,7.618-6.943.609,3.931-4.691,7.417-7.618,8.126-6.85,1.659-11.918,5.075-14.669,5.654-2.051.432-4.7.716-6.337-.9a4,4,0,0,1-.9-1.636A8.207,8.207,0,0,0,630.926,914.817Z" fill="#0f3858"/>
        </g>
        <path id="Path_302" data-name="Path 302" d="M645.848,899.822a6.533,6.533,0,0,1,3.3,3.9c.161.767-1.016,1.1-1.178.325a5.28,5.28,0,0,0-3.868-3.781A1.608,1.608,0,0,1,645.848,899.822Z" fill="#0f3858"/>
        <path id="Path_303" data-name="Path 303" d="M643.267,900.5a6.737,6.737,0,0,1,3.35,3.961c.161.767-1.017,1.1-1.178.325a5.285,5.285,0,0,0-3.868-3.781A1.553,1.553,0,0,1,643.267,900.5Z" fill="#0f3858"/>
        <path id="Path_304" data-name="Path 304" d="M640.786,901.264a6.4,6.4,0,0,1,3.382,3.945c.161.767-1.017,1.1-1.178.324a5.282,5.282,0,0,0-3.868-3.78A1.5,1.5,0,0,1,640.786,901.264Z" fill="#0f3858"/>
      </g>
      <path id="Path_305" data-name="Path 305" d="M623.369,790c2.557.317,22.758-4.958,22.758-4.958,2.81,20.5-.784,53.887-3.4,65.095-4.4,18.847-5.3,52.884-5.3,52.884-5.1,5.543-12.95.7-12.95.7s-3.483-40.014.076-55.037C630.144,825.087,622.608,805.784,623.369,790Z" fill="url(#linear-gradient-49)"/>
      <g id="Group_180" data-name="Group 180">
        <g id="Group_179" data-name="Group 179">
          <g id="Group_178" data-name="Group 178">
            <path id="Path_306" data-name="Path 306" d="M647.316,899.746" fill="#0f3858"/>
          </g>
        </g>
      </g>
      <path id="Path_307" data-name="Path 307" d="M674.657,760.763c-1.119.148-21.145-1.289-21.145-1.289s-4.968-13.566-5.354-14.36c-1.306-2.687-2.549-5.4-3.869-8.083-5.5-11.168-17.012-22.931-30.62-20.514a8.511,8.511,0,0,0-4.164,1.76,11.5,11.5,0,0,0-3.83,7.691,58.018,58.018,0,0,0,1.764,21.6c2.319,8.881,3.487,16.581.661,25.46-2.2,6.9-5.03,15.128-3.362,22.372a46.388,46.388,0,0,0,43.3,1.713c-.888-13-5.669-31.269-5.879-33.674,1.174,1.03,5.476,8.143,7.633,8.128,4.1-.027,28.276-2.687,29.237-4.254C678.856,765.653,678.018,763.464,674.657,760.763Z" fill="url(#linear-gradient-49)"/>
      <path id="Path_308" data-name="Path 308" d="M646.951,689.7a12.346,12.346,0,0,0-8.165-4.61,16.187,16.187,0,0,0-12.978,4.453,14.671,14.671,0,0,0-4.734,12.156c-.118.106.717,18.794,1.518,21.221a58.241,58.241,0,0,0,11.521,1.618c.1-2.394,1.155-6.972,2.882-8.6a7.684,7.684,0,0,0,5.1,1.337c4.312-.747,6.575-7.59,7.6-11.121C651.246,700.762,650.526,694.171,646.951,689.7Z" fill="#e5ae92"/>
      <path id="Path_309" data-name="Path 309" d="M653.405,691.452a17.766,17.766,0,0,0-3.889-4.507,21.22,21.22,0,0,0-12.137-4.755,19.847,19.847,0,0,0-15.233,5.6c-4.35,4.43-3.7,11.114-8.638,15.037a16.976,16.976,0,0,0-6.475,14.943,1.262,1.262,0,0,1-.6,1.191,10.252,10.252,0,0,0-3.238,13.315,10.134,10.134,0,0,0,3.52,3.521,1.169,1.169,0,0,1,.216.217c-1.713,7.754,5.554,13.123,12.745,13.293a9.478,9.478,0,0,0,8.612-4.7c1.848-3.06,3.093-6.483,5.247-9.355,1.733-2.309,5.456-4.171,8.245-2.7a5.829,5.829,0,0,0,2.393-3.059c1.368-3.741-.372-7.424-2.439-10.515-1.012-1.513-1.4-3.7-1.958-5.653a4.8,4.8,0,0,0-1.7-2.577,3.079,3.079,0,0,1-1.4-2.868,1.245,1.245,0,0,1,2.348-.43c.348.691.606,1.37.734,1.662.279.637,1.216.267,1.232-.334.029-1.035-.022-2.11.09-3.139a2.86,2.86,0,0,1,1.9-2.6,1.214,1.214,0,0,1,.609-.065c2.7.365,5.163.976,8.167.693C653.677,703.374,655.767,695.4,653.405,691.452Z" fill="#634e42"/>
    </g>
    <path id="Path_310" data-name="Path 310" d="M967.69,610.9l1.041,4.912L904.85,626.782l-63.881,10.969,62.84-15.881,62.84-15.881Z" opacity="0.5" fill="url(#linear-gradient-53)"/>
    <path id="Path_311" data-name="Path 311" d="M958.853,603.4l1.041,4.912-63.881,10.969-63.881,10.969,62.84-15.881,62.84-15.881Z" opacity="0.5" fill="url(#linear-gradient-54)"/>
    <ellipse id="Ellipse_10" data-name="Ellipse 10" cx="185.283" cy="36.711" rx="185.283" ry="36.711" transform="translate(365.164 605.879) rotate(-2.323)" opacity="0.5" fill="url(#linear-gradient-55)"/>
    <g id="Group_182" data-name="Group 182">
      <path id="Path_312" data-name="Path 312" d="M730.583,523.964l-.053,18.716-89.254,51.866-.168-19.029Z" fill="url(#linear-gradient-5)"/>
    </g>
    <g id="Group_183" data-name="Group 183">
      <path id="Path_313" data-name="Path 313" d="M727.073,521.852q1.791,1.035,3.51,2.111l-89.476,51.554-89.464-51.65C573.8,509.931,605.56,501.2,640.908,501.2,674.513,501.2,704.978,509.1,727.073,521.852Z" fill="url(#linear-gradient-5)"/>
    </g>
    <g id="Group_184" data-name="Group 184">
      <path id="Path_314" data-name="Path 314" d="M641.107,575.517l-.053,18.716h-121.3l.053-18.716Z" fill="#3d91b6"/>
    </g>
    <g id="Group_187" data-name="Group 187" style="isolation: isolate">
      <g id="Group_186" data-name="Group 186" clip-path="url(#clip-path)">
        <g id="Group_185" data-name="Group 185" style="isolation: isolate">
          <path id="Path_315" data-name="Path 315" d="M519.808,575.517l-.054,18.717c-.116-1.266-.189-2.539-.2-3.826l.053-18.717c.007,1.287.08,2.561.2,3.826" fill="#4299c1"/>
        </g>
      </g>
    </g>
    <g id="Group_188" data-name="Group 188">
      <path id="Path_317" data-name="Path 317" d="M641.107,575.517l-.053,18.716-81.911,48.041.053-18.716Z" fill="#342a7a"/>
    </g>
    <g id="Group_192" data-name="Group 192">
      <path id="Path_318" data-name="Path 318" d="M551.643,523.867c-19.978,12.569-32.136,29.365-32.032,47.824.007,1.287.08,2.561.2,3.826,1.758,17.942,15.094,34.1,35.726,46.011q1.8,1.036,3.662,2.029l81.911-48.04Z" fill="url(#linear-gradient)"/>
      <g id="Group_191" data-name="Group 191" style="isolation: isolate">
        <path id="Path_319" data-name="Path 319" d="M559.2,623.557l-.053,18.717q-1.869-.994-3.663-2.029c-20.631-11.912-33.967-28.069-35.726-46.011l.054-18.717c1.758,17.942,15.094,34.1,35.726,46.011Q557.331,622.564,559.2,623.557Z" fill="url(#linear-gradient)"/>
        <g id="Group_190" data-name="Group 190" clip-path="url(#clip-path-2)">
          <g id="Group_189" data-name="Group 189">
            <path id="Path_320" data-name="Path 320" d="M559.2,623.557l-.053,18.717q-1.869-.994-3.663-2.029c-20.631-11.912-33.967-28.069-35.726-46.011l.054-18.717c1.758,17.942,15.094,34.1,35.726,46.011q1.8,1.036,3.662,2.029" fill="url(#linear-gradient)"/>
          </g>
        </g>
      </g>
    </g>
    <g id="Group_194" data-name="Group 194">
      <path id="Path_322" data-name="Path 322" d="M641.115,575.516l82.837,47.638c-21.634,11.613-50.593,18.71-82.463,18.71-31.79,0-60.763-7.063-82.506-18.62Z" fill="url(#linear-gradient-5)"/>
      <g id="Group_193" data-name="Group 193" style="isolation: isolate">
        <path id="Path_323" data-name="Path 323" d="M558.983,623.244c21.743,11.557,50.716,18.624,82.506,18.62,31.87,0,60.829-7.1,82.463-18.71l-.053,18.717c-21.634,11.612-50.594,18.709-82.464,18.709-31.789.005-60.762-7.062-82.505-18.62Z" fill="url(#linear-gradient-5)"/>
      </g>
    </g>
    <g id="Group_199" data-name="Group 199">
      <g id="Group_198" data-name="Group 198">
        <g id="Group_197" data-name="Group 197" style="isolation: isolate">
          <g id="Group_195" data-name="Group 195">
            <path id="Path_324" data-name="Path 324" d="M730.45,504.946c20.025,12.556,32.313,29.318,32.417,47.727.007,1.287-.051,2.56-.154,3.826-1.647,18.933-16.2,35.882-38.68,47.951l-82.677-47.731.379-.22Z" fill="url(#linear-gradient-5)"/>
          </g>
          <g id="Group_196" data-name="Group 196">
            <path id="Path_325" data-name="Path 325" d="M724.033,604.45l-.053,18.716L641.3,575.436l.053-18.716Z" fill="url(#linear-gradient-5)"/>
          </g>
        </g>
      </g>
      <path id="Path_326" data-name="Path 326" d="M723.943,623.163l.037-.021.053-18.7c22.479-12.07,37.033-29.018,38.68-47.952.094-1.16.151-2.327.154-3.505l-.053,18.717c0,.3-.032.6-.04.907l-.05,17.818c0,1.178-.06,2.345-.155,3.505-1.646,18.934-16.2,35.882-38.68,47.952Z" fill="url(#linear-gradient-5)"/>
    </g>
    <g id="Group_206" data-name="Group 206">
      <g id="Group_205" data-name="Group 205">
        <g id="Group_204" data-name="Group 204">
          <path id="Path_327" data-name="Path 327" d="M696.8,525.417a13.372,13.372,0,0,0-2.831-6.539c-5.29,5.189-5.4,18.879-6.6,27.663-3.927,4.109-11.259,7.6-13.479,8.6a.955.955,0,0,0-.533,1.058,11.371,11.371,0,0,0,1.91,4.364c5.223-2.256,10.866-2.592,17.394-8.793.256-.243.632-.308.744-.643C695.267,545.532,697.338,529.5,696.8,525.417Z" fill="url(#linear-gradient-49)"/>
          <g id="Group_201" data-name="Group 201">
            <path id="Path_328" data-name="Path 328" d="M676.689,626.93c-2.22,1.809-6.36.871-6.525,1.037a79.592,79.592,0,0,1-7.339,6.112c-1.386,1.091-3.546,2.548-3.155,4.642.7,3.745,6.694,2.593,8.956,1.448,2.224-1.126,4.108-3.044,6.249-4.373,1.526-.948,3.029-1.439,3.266-3.367C678.284,631.264,677.084,626.885,676.689,626.93Z" fill="#0f3858"/>
            <g id="Group_200" data-name="Group 200">
              <path id="Path_329" data-name="Path 329" d="M678.113,631.651c-.294,1.847-1.777,2.355-3.292,3.295-2.175,1.352-4.091,3.3-6.351,4.445-2.09,1.058-7.3,2.109-8.769-.565.8,3.609,6.686,2.476,8.925,1.343s4.108-3.044,6.249-4.373c1.526-.948,3.029-1.439,3.266-3.367A3.605,3.605,0,0,0,678.113,631.651Z" fill="#0f3858"/>
            </g>
            <path id="Path_330" data-name="Path 330" d="M667.7,634.3a4.254,4.254,0,0,0-2.962-1.7.738.738,0,0,0-.808.631,5.6,5.6,0,0,1,3.164,1.676C667.449,635.328,668.053,634.719,667.7,634.3Z" fill="#0f3858"/>
            <path id="Path_331" data-name="Path 331" d="M669.385,632.971a4.253,4.253,0,0,0-2.962-1.7.738.738,0,0,0-.808.63,5.6,5.6,0,0,1,3.164,1.677C669.134,634,669.738,633.392,669.385,632.971Z" fill="#0f3858"/>
            <path id="Path_332" data-name="Path 332" d="M671.06,631.631a4.26,4.26,0,0,0-2.963-1.7.739.739,0,0,0-.808.631,5.6,5.6,0,0,1,3.164,1.677C670.809,632.661,671.413,632.051,671.06,631.631Z" fill="#0f3858"/>
          </g>
          <path id="Path_333" data-name="Path 333" d="M706.781,562.726A32.436,32.436,0,0,1,689.35,560.2c.1,1.849.2,3.495.2,3.495-7.089,5.013-21.327,13.456-22.257,19.277.93,18.4,2.016,44.291,2.688,44.858,2.237,1.888,6.056.741,7.107-.323,0,0,4.029-15.239,2.728-38.1,0-.047,24.818-10.99,26.435-17,.931-3.457.747-3.894.679-7.48C706.911,564.19,706.854,563.457,706.781,562.726Z" fill="url(#linear-gradient-49)"/>
          <g id="Group_203" data-name="Group 203">
            <path id="Path_334" data-name="Path 334" d="M686.651,633.149c-2.221,1.809-6.361.871-6.526,1.037a79.454,79.454,0,0,1-7.339,6.112c-1.385,1.091-3.545,2.548-3.154,4.642.7,3.745,6.694,2.593,8.956,1.448,2.223-1.126,4.108-3.044,6.248-4.373,1.527-.948,3.029-1.44,3.266-3.367C688.246,637.483,687.045,633.1,686.651,633.149Z" fill="#0f3858"/>
            <g id="Group_202" data-name="Group 202">
              <path id="Path_335" data-name="Path 335" d="M688.074,637.87c-.294,1.847-1.777,2.355-3.291,3.295-2.176,1.352-4.091,3.3-6.351,4.445-2.09,1.058-7.3,2.109-8.769-.565.8,3.609,6.686,2.476,8.925,1.343,2.223-1.126,4.108-3.044,6.248-4.373,1.527-.948,3.029-1.44,3.266-3.367A3.605,3.605,0,0,0,688.074,637.87Z" fill="#0f3858"/>
            </g>
            <path id="Path_336" data-name="Path 336" d="M677.662,640.518a4.254,4.254,0,0,0-2.963-1.7.736.736,0,0,0-.807.631,5.6,5.6,0,0,1,3.163,1.676C677.411,641.547,678.015,640.938,677.662,640.518Z" fill="#0f3858"/>
            <path id="Path_337" data-name="Path 337" d="M679.347,639.19a4.261,4.261,0,0,0-2.963-1.7.739.739,0,0,0-.808.631,5.6,5.6,0,0,1,3.165,1.677C679.1,640.22,679.7,639.61,679.347,639.19Z" fill="#0f3858"/>
            <path id="Path_338" data-name="Path 338" d="M681.021,637.85a4.258,4.258,0,0,0-2.962-1.7.738.738,0,0,0-.808.631,5.6,5.6,0,0,1,3.164,1.676C680.77,638.879,681.374,638.27,681.021,637.85Z" fill="#0f3858"/>
          </g>
          <path id="Path_339" data-name="Path 339" d="M714.137,560.824c-4.916,2.292-9.43,2.577-14.981,2.006.07,2.459.351,7.088.351,7.088-7.09,5.013-21.328,13.456-22.257,19.277.929,18.4,2.015,44.291,2.688,44.858,2.236,1.888,6.056.74,7.106-.323,0,0,4.029-15.239,2.728-38.1.034-.431,21.269-10.9,23.965-13.672,2.893-2.974,3.224-6.886,3.15-10.806C716.816,567.469,715.694,564.434,714.137,560.824Z" fill="url(#linear-gradient-49)"/>
          <path id="Path_340" data-name="Path 340" d="M718.686,528.842a13.417,13.417,0,0,0-3.816-7.653c-2.333-2.318-5.463-3.4-8.554-4.3a14.01,14.01,0,0,0-9.243.024c-4.566,1.712-5.643,6.1-6.125,10.509-.143.108-2.494,34.089-2.494,34.089,2.057,3.716,14.064,9.173,27.356,1.6-.511-2.015-1.708-5.389-2.543-7.659a6.981,6.981,0,0,1-.022-4.747C715.1,545.477,719.252,533.129,718.686,528.842Z" fill="url(#linear-gradient-49)"/>
          <path id="Path_341" data-name="Path 341" d="M718.686,528.842a13.368,13.368,0,0,0-2.831-6.539c-5.29,5.188-5.395,18.879-6.6,27.663-4.665,4.881-12.691,10.238-12.691,10.238a10.988,10.988,0,0,0,2.031,5.133c5.223-2.256,9.424-3.939,15.952-10.141.256-.243.632-.308.744-.643C717.154,548.956,719.225,532.925,718.686,528.842Z" fill="url(#linear-gradient-49)"/>
        </g>
        <path id="Path_342" data-name="Path 342" d="M668.888,538.509l7.879,26.939,17.287,6.905-6.306-26.243Z" fill="#ffc936"/>
        <path id="Path_343" data-name="Path 343" d="M698.226,561.533c-.258-.916-.923-.693-1.673-.461a4.372,4.372,0,0,1-2.557.222,7.819,7.819,0,0,1-1.833-1.24,2.329,2.329,0,0,0-1.153-.327c.037.232.4,1.6.4,1.6s-3.787.04-4.173-.042a.638.638,0,0,0-.6,1.05c-.085-.016-.171-.019-.256-.038-.775-.174-1.106,1.017-.329,1.192.21.047.422.07.634.1-.506.2-.632,1.03.018,1.154.065.012.13.018.2.03a.6.6,0,0,0,.278.043c.04.006.08.008.12.013a.682.682,0,0,0,.569.8c1.851.24,4.574.977,6.245-.547a10.43,10.43,0,0,0,3.355-.906C698.506,563.67,698.535,562.632,698.226,561.533Z" fill="#e5ae92"/>
        <path id="Path_344" data-name="Path 344" d="M679.313,559.329c-.087,0-.171-.015-.258-.017a.639.639,0,0,0-.363-1.154c-.4,0-4.3-.813-4.3-.813l-.469-1.6c-.026-.089-.675.322-.7.339a2.609,2.609,0,0,0-1.175,1.948,4.157,4.157,0,0,0,1.118,3.011,3.877,3.877,0,0,0,2.641,1.145c.474.03.929.051,1.337.086a.68.68,0,0,0,.727-.665c.04,0,.08.01.12.013a.614.614,0,0,0,.282.017c.066,0,.131.01.2.012.661.018.715-.824.263-1.123.213.018.424.041.639.04C680.177,560.559,680.107,559.324,679.313,559.329Z" fill="#e5ae92"/>
      </g>
      <path id="Path_345" data-name="Path 345" d="M690.486,527.731a4.259,4.259,0,0,0,.453-2.7l0-.012a6.3,6.3,0,0,1,.457-3.085c.651-1.714,1.827-3.105,2.556-4.772a12.185,12.185,0,0,0,.812-7.723h0A14.355,14.355,0,0,1,698,512.55a5.49,5.49,0,0,1,1.372,3.489c0,.041-.013.08-.016.12.838.528,1.625.856,1.674,2.23.078,2.161-2.14,3.229-2.882,5.037a16.5,16.5,0,0,0-.674,4.907,16.325,16.325,0,0,1-2.1,7.525,5.824,5.824,0,0,1-4.329,2.619c-1.75.15-3.872-.619-4.334-2.5-.551-2.244,1.139-4.214,2.271-5.944C689.475,529.284,690.022,528.526,690.486,527.731Z" fill="#243464"/>
      <path id="Path_346" data-name="Path 346" d="M698.992,515.905s.02,5.732.032,5.784c-.032,2.906,5.845,1.982,9.624-2.888v-9.193C708.648,509.227,698.992,515.45,698.992,515.905Z" fill="#e5ae92"/>
      <path id="Path_347" data-name="Path 347" d="M710.338,493.064a8.856,8.856,0,0,0-6.491-1.876,11.72,11.72,0,0,0-6.06,2.822,13.523,13.523,0,0,0-3.779,5.174,12.837,12.837,0,0,0-.659,6.358c.97,8.235,5.233,11.332,6.608,11.874,3.678-.259,5.916-1.887,7.151-3.738a25.062,25.062,0,0,1,4.627-5.376,5.205,5.205,0,0,0,.4-.374C715.014,504.919,715.847,497.869,710.338,493.064Z" fill="#e5ae92"/>
      <path id="Path_348" data-name="Path 348" d="M699.035,491.08a14.009,14.009,0,0,1,13.248.08,13.081,13.081,0,0,1,5,5.487,23.667,23.667,0,0,1,1.454,3.509c.782,2.363,1.117,4.8,1.777,7.192a26.143,26.143,0,0,0,3.177,7.436c1.364,2.126,2.926,4.339,3.053,6.953a7.71,7.71,0,0,1-1.7,4.889c-1.058,1.541-1.671,3.123-.935,4.956.645,1.605,1.8,2.929,2.419,4.545a10.208,10.208,0,0,1,.563,5.492A8.876,8.876,0,0,1,722.1,548.1a4.617,4.617,0,0,1-2.246.449,5.148,5.148,0,0,1-2.863-1.5c1.028-5.905,3.192-20.643-1.56-20.582-3.012.039-4.334,6.039-4.442,7.763-.258,4.151,3.3,11.942-1.39,14.136-2.083.975-5.378.336-6.615-1.531-1.679-2.534-.741-5.818.937-8.066s3.846-3.452,3.178-6.821c-.351-1.776-1.152-3.43-1.483-5.213a7.543,7.543,0,0,1,.209-4.17,15.294,15.294,0,0,1,2.075-2.976,9.046,9.046,0,0,1-.849-4.524,14.011,14.011,0,0,1,.825-3.782c.086-.236.419-1.473.712-1.557,1.028-.295,2.254-1.227,1.686-2.386-.62-1.266-2.253-.518-2.6.562l-.138.057c-3.259-1.866-6.538-4-7.437-7.887a.71.71,0,0,1-.008-.278c-2.843.713-7.67,1.112-6.676,6.316C691.208,501.174,693.586,493.982,699.035,491.08Z" fill="#243464"/>
    </g>
    <g id="Group_221" data-name="Group 221">
      <path id="Path_349" data-name="Path 349" d="M642.675,398.589c.016.005.829,20.489,1.893,22.432,2.491,4.55,9.017,11.666,9.2,12.562.525,2.609-1.8,5.428-4.251,5.132-1.557-.189-13.306-7.294-13.306-7.294C635.607,427.5,642.493,398.423,642.675,398.589Z" fill="url(#linear-gradient-71)"/>
      <g id="Group_208" data-name="Group 208">
        <path id="Path_350" data-name="Path 350" d="M627.594,519.64c2.107,1.717,6.036.827,6.192.984a75.5,75.5,0,0,0,6.965,5.8c1.314,1.034,3.364,2.417,2.994,4.4-.664,3.555-6.353,2.461-8.5,1.374-2.109-1.068-3.9-2.888-5.929-4.15-1.448-.9-2.874-1.365-3.1-3.2C626.081,523.753,627.22,519.6,627.594,519.64Z" fill="#0f3858"/>
        <g id="Group_207" data-name="Group 207">
          <path id="Path_351" data-name="Path 351" d="M626.243,524.12c.279,1.753,1.687,2.235,3.124,3.127,2.064,1.283,3.882,3.132,6.027,4.218,1.983,1,6.929,2,8.321-.536-.757,3.425-6.345,2.35-8.47,1.274-2.109-1.068-3.9-2.888-5.929-4.15-1.448-.9-2.874-1.365-3.1-3.2A3.416,3.416,0,0,1,626.243,524.12Z" fill="#0f3858"/>
        </g>
        <path id="Path_352" data-name="Path 352" d="M636.124,526.633a4.037,4.037,0,0,1,2.811-1.614.7.7,0,0,1,.767.6,5.318,5.318,0,0,0-3,1.591C636.362,527.61,635.789,527.032,636.124,526.633Z" fill="#0f3858"/>
        <path id="Path_353" data-name="Path 353" d="M634.525,525.373a4.043,4.043,0,0,1,2.811-1.614.7.7,0,0,1,.767.6,5.307,5.307,0,0,0-3,1.591C634.763,526.35,634.19,525.772,634.525,525.373Z" fill="#0f3858"/>
        <path id="Path_354" data-name="Path 354" d="M632.936,524.1a4.041,4.041,0,0,1,2.811-1.614.7.7,0,0,1,.767.6,5.312,5.312,0,0,0-3,1.591C633.174,525.078,632.6,524.5,632.936,524.1Z" fill="#0f3858"/>
      </g>
      <g id="Group_210" data-name="Group 210">
        <path id="Path_355" data-name="Path 355" d="M619.969,497.882c.809,2.594,4.576,4.021,4.619,4.239a75.492,75.492,0,0,0,2.6,8.681c.524,1.589,1.47,3.874.063,5.326-2.515,2.6-6.655-1.457-7.844-3.548-1.17-2.056-1.656-4.56-2.652-6.734-.711-1.549-1.642-2.725-.82-4.375C616.436,500.475,619.681,497.639,619.969,497.882Z" fill="#0f3858"/>
        <g id="Group_209" data-name="Group 209">
          <path id="Path_356" data-name="Path 356" d="M616.369,500.871c-.735,1.615.172,2.794.877,4.332,1.013,2.209,1.507,4.754,2.7,6.844,1.1,1.932,4.671,5.494,7.234,4.148-2.523,2.437-6.588-1.545-7.765-3.615s-1.656-4.56-2.652-6.734c-.711-1.549-1.642-2.725-.82-4.375A3.4,3.4,0,0,1,616.369,500.871Z" fill="#0f3858"/>
        </g>
        <path id="Path_357" data-name="Path 357" d="M623.219,508.421a4.041,4.041,0,0,1,3.235.207.7.7,0,0,1,.309.922,5.313,5.313,0,0,0-3.382-.331C622.878,509.367,622.72,508.569,623.219,508.421Z" fill="#0f3858"/>
        <path id="Path_358" data-name="Path 358" d="M622.582,506.488a4.037,4.037,0,0,1,3.235.207.7.7,0,0,1,.309.922,5.313,5.313,0,0,0-3.382-.331C622.241,507.434,622.082,506.635,622.582,506.488Z" fill="#0f3858"/>
        <path id="Path_359" data-name="Path 359" d="M621.959,504.551a4.037,4.037,0,0,1,3.235.206.7.7,0,0,1,.309.922,5.32,5.32,0,0,0-3.382-.331C621.618,505.5,621.46,504.7,621.959,504.551Z" fill="#0f3858"/>
      </g>
      <path id="Path_360" data-name="Path 360" d="M617.872,499.024c.615-1.794,3.506-14.633,20.92-32.162.032-.032-6.132-14.69-7.666-20.391-.428-1.59-2.662-10.616-2.79-13.638,2.953.308,12.086-2.495,14.183-3.843,1.518,5.4,8.093,37.056,6.523,42.759C637,488.852,625.819,503.242,625.2,503.8,624.86,504.028,618.59,501.269,617.872,499.024Z" fill="url(#linear-gradient-72)"/>
      <path id="Path_361" data-name="Path 361" d="M615.857,443.175c.08-4.209,1.339-8.254,1.685-12.434a59.25,59.25,0,0,0,15.148,3.334c.236,4.864-.6,14.957-.6,14.957,1.423,4.518,6.192,24.765,4.591,30.578-1.806,16.785-2.073,40.35-2.711,40.888-2.123,1.792-5.748.7-6.744-.307,0,0-5.773-24.775-.795-45.468.01-.043-7.7-15.764-9.238-21.465A36.253,36.253,0,0,1,615.857,443.175Z" fill="url(#linear-gradient-73)"/>
      <path id="Path_362" data-name="Path 362" d="M614.149,399.2a12.73,12.73,0,0,1,3.622-7.262c2.213-2.2,5.183-3.226,8.117-4.076a17.409,17.409,0,0,1,9.252-.27c3.948,1.026,7.009,3.83,7.467,8.013.135.1.231,34.6.231,34.6-1.952,3.526-13.346,8.7-25.96,1.514.485-1.912,1.622-5.115,2.414-7.269a6.619,6.619,0,0,0,.02-4.5C617.552,414.984,613.612,403.266,614.149,399.2Z" fill="url(#linear-gradient-74)"/>
      <path id="Path_363" data-name="Path 363" d="M614.1,398.417a11.493,11.493,0,0,1,3.429-6.231c4.351,5.434,3.347,23.669,2.9,25.339l17.484,9.724c.35.2-1.054,4.229-2.905,4.059-1.6-.147-17.908-7.4-18.6-8.242C615.51,421.979,613.427,402.127,614.1,398.417Z" fill="url(#linear-gradient-75)"/>
      <path id="Path_364" data-name="Path 364" d="M636.454,382.734a7.981,7.981,0,0,1-4.022,6.3l-.051.027c-.052-.131-.107-.26-.148-.4-.862-2.958,4.362-6.846,4.345-6.778C636.524,382.171,636.483,382.455,636.454,382.734Z" fill="#002984"/>
      <path id="Path_365" data-name="Path 365" d="M632.838,386.921s-.019,5.44-.03,5.489c.03,2.758-5.547,1.881-9.133-2.74v-8.725C623.675,380.584,632.838,386.489,632.838,386.921Z" fill="#e5ae92"/>
      <path id="Path_366" data-name="Path 366" d="M622.071,365.246a8.4,8.4,0,0,1,6.159-1.78,11.123,11.123,0,0,1,5.751,2.678,12.83,12.83,0,0,1,3.586,4.91,12.171,12.171,0,0,1,.626,6.033c-.921,7.815-4.967,10.754-6.271,11.268a8.42,8.42,0,0,1-6.785-3.547,23.8,23.8,0,0,0-4.392-5.1,5.011,5.011,0,0,1-.381-.354C617.633,376.5,616.844,369.806,622.071,365.246Z" fill="#e5ae92"/>
      <path id="Path_367" data-name="Path 367" d="M613.652,380.577c-.127-5.4.578-11.192,4.787-15.031a12.653,12.653,0,0,1,14.359-2.183c5.17,2.754,7.427,9.579,5.326,14.261.943-4.938-3.638-5.318-6.336-5.994a.654.654,0,0,1-.007.263c-.854,3.693-3.965,5.714-7.057,7.485a.569.569,0,0,1-.107.031c-.264-1.07-1.883-1.852-2.488-.618-.539,1.1.625,1.984,1.6,2.264a35.159,35.159,0,0,1-.054,8c7.887,4.682,8.8,8.99,8.864,12.109.087,4.172-3.453,9.127-6.272,11.049,1.99-5.256-2.56-6.705-3.781-10.421a15.047,15.047,0,0,1-.342-3.145c-.33-2.773-.7-7.085-2.688-8.091C617.017,390.326,613.723,383.574,613.652,380.577Z" fill="#243464"/>
      <path id="Path_368" data-name="Path 368" d="M637.088,427.005a20.413,20.413,0,0,0,6.276,2.145c1.553.083,2.486,2.2,4.146,2.3a.64.64,0,0,1,.484,1.074c-.62.673-2.413.252-3.7-1.08a.468.468,0,0,1,.013.1,1.329,1.329,0,0,1-.616,1.134,1.077,1.077,0,0,1-.277.109.627.627,0,0,1-.067.3,1.208,1.208,0,0,1-.88.721v.005a1.171,1.171,0,0,1-1.217.895,1.44,1.44,0,0,1-.953-.366,6.4,6.4,0,0,1-2.967-2.166,14.717,14.717,0,0,1-1.8-2.1C634.953,429.013,635.539,425.915,637.088,427.005Z" fill="#e5ae92"/>
      <g id="Group_220" data-name="Group 220">
        <g id="Group_219" data-name="Group 219">
          <g id="Group_212" data-name="Group 212">
            <g id="Group_211" data-name="Group 211" style="isolation: isolate">
              <path id="Path_369" data-name="Path 369" d="M669.3,444.414l-20.028-11.639-14.375,8.3,20.028,11.639Z" fill="#ffbc00"/>
            </g>
          </g>
          <g id="Group_218" data-name="Group 218">
            <g id="Group_217" data-name="Group 217">
              <g id="Group_215" data-name="Group 215">
                <g id="Group_213" data-name="Group 213">
                  <path id="Path_370" data-name="Path 370" d="M661.56,442.692l.766-.442.761.442-.766.442Z" fill="#fff"/>
                  <path id="Path_371" data-name="Path 371" d="M661.215,442.892l.761.442-9.642,5.531-.761-.442Z" fill="#fff"/>
                </g>
                <g id="Group_214" data-name="Group 214">
                  <path id="Path_372" data-name="Path 372" d="M660.207,441.84l.766-.442.761.442-.766.442Z" fill="#fff"/>
                  <path id="Path_373" data-name="Path 373" d="M659.861,442.039l.761.442-9.642,5.531-.761-.442Z" fill="#fff"/>
                </g>
              </g>
              <g id="Group_216" data-name="Group 216">
                <path id="Path_374" data-name="Path 374" d="M658.86,441.051l.766-.442.761.442-.766.442Z" fill="#fff"/>
                <path id="Path_375" data-name="Path 375" d="M658.515,441.25l.761.442-9.642,5.531-.761-.442Z" fill="#fff"/>
              </g>
            </g>
          </g>
        </g>
        <path id="Path_376" data-name="Path 376" d="M651.853,433.627a8.814,8.814,0,0,1,3.556,1.16,8.384,8.384,0,0,0,1.259.93c.2.1.39.227.6.319a1.933,1.933,0,0,1,.8.526,2.011,2.011,0,0,1,.356,1.11,4.759,4.759,0,0,1,.069,1.452c-.174.719-.923.664-1.314.162a1.573,1.573,0,0,1-.333-.877,1.91,1.91,0,0,0-.845-1.531l-4.785-2.97A.57.57,0,0,1,651.853,433.627Z" fill="#e5ae92"/>
      </g>
    </g>
  </g>
</svg>
