<svg xmlns="http://www.w3.org/2000/svg" xmlns:xlink="http://www.w3.org/1999/xlink" viewBox="0 0 456.52 373.62"><defs><style>.cls-1{opacity:0.1;}.cls-2{fill:#332074;}.cls-3{fill:url(#linear-gradient);}.cls-4,.cls-85,.cls-87{fill:#fff;}.cls-4{opacity:0.05;}.cls-5{fill:url(#linear-gradient-2);}.cls-6{fill:url(#linear-gradient-3);}.cls-7{fill:url(#linear-gradient-4);}.cls-8{fill:url(#linear-gradient-5);}.cls-9{fill:url(#linear-gradient-6);}.cls-10{fill:url(#linear-gradient-7);}.cls-11{fill:url(#linear-gradient-8);}.cls-12{fill:#65493c;}.cls-13{fill:#e5ae92;}.cls-14{fill:url(#linear-gradient-9);}.cls-15{fill:url(#linear-gradient-10);}.cls-16{fill:url(#linear-gradient-11);}.cls-17{fill:url(#linear-gradient-12);}.cls-18{fill:url(#linear-gradient-13);}.cls-19{fill:#855f4c;}.cls-20{fill:url(#linear-gradient-14);}.cls-21{fill:url(#linear-gradient-15);}.cls-22{fill:url(#linear-gradient-16);}.cls-23{fill:url(#linear-gradient-17);}.cls-24{fill:url(#linear-gradient-18);}.cls-25{fill:url(#linear-gradient-19);}.cls-26{fill:url(#linear-gradient-20);}.cls-27{fill:url(#linear-gradient-21);}.cls-28{fill:url(#linear-gradient-22);}.cls-29{fill:#f5d6a0;}.cls-30{fill:url(#linear-gradient-23);}.cls-31{fill:url(#linear-gradient-24);}.cls-32{fill:url(#linear-gradient-25);}.cls-33{fill:url(#linear-gradient-26);}.cls-34{fill:url(#linear-gradient-27);}.cls-35{fill:url(#linear-gradient-28);}.cls-36{fill:#955442;}.cls-37{fill:url(#linear-gradient-29);}.cls-38{fill:#e2ae44;}.cls-39{fill:#f9c956;}.cls-40{fill:#f4bd4e;}.cls-41{fill:#cc9636;}.cls-42{fill:#ffd884;}.cls-43{fill:url(#linear-gradient-30);}.cls-44{fill:url(#linear-gradient-31);}.cls-45{fill:url(#linear-gradient-32);}.cls-46{fill:url(#linear-gradient-33);}.cls-47{fill:url(#linear-gradient-34);}.cls-48{fill:url(#linear-gradient-35);}.cls-49{fill:url(#linear-gradient-36);}.cls-50{fill:url(#linear-gradient-37);}.cls-51{fill:url(#linear-gradient-38);}.cls-52{fill:url(#linear-gradient-39);}.cls-53{fill:url(#linear-gradient-40);}.cls-54{fill:url(#linear-gradient-41);}.cls-55{fill:url(#linear-gradient-42);}.cls-56{fill:url(#linear-gradient-43);}.cls-57{fill:url(#linear-gradient-44);}.cls-58{fill:url(#linear-gradient-45);}.cls-59{fill:url(#linear-gradient-46);}.cls-60{fill:url(#linear-gradient-47);}.cls-61{fill:url(#linear-gradient-48);}.cls-62{fill:url(#linear-gradient-49);}.cls-63{fill:url(#linear-gradient-50);}.cls-64{fill:url(#linear-gradient-51);}.cls-65{fill:url(#linear-gradient-52);}.cls-66{fill:url(#linear-gradient-53);}.cls-67{fill:url(#linear-gradient-54);}.cls-68{fill:url(#linear-gradient-55);}.cls-69{fill:url(#linear-gradient-56);}.cls-70{fill:#e1f8ea;}.cls-71{fill:url(#linear-gradient-57);}.cls-72{fill:url(#linear-gradient-58);}.cls-73{fill:url(#linear-gradient-59);}.cls-74{fill:url(#linear-gradient-60);}.cls-75{fill:url(#linear-gradient-61);}.cls-76{fill:url(#linear-gradient-62);}.cls-77{fill:url(#linear-gradient-63);}.cls-78{fill:url(#linear-gradient-64);}.cls-79{fill:url(#linear-gradient-65);}.cls-80{fill:url(#linear-gradient-66);}.cls-81{fill:url(#linear-gradient-67);}.cls-82{fill:url(#linear-gradient-68);}.cls-83{fill:url(#linear-gradient-69);}.cls-84{fill:url(#linear-gradient-70);}.cls-85,.cls-87{fill-opacity:0.53;}.cls-86,.cls-87{opacity:0.5;}.cls-86{fill:url(#linear-gradient-71);}.cls-88{isolation:isolate;}.cls-89{fill:none;stroke:#fff;stroke-miterlimit:10;stroke-dasharray:6;opacity:0.3;}.cls-90,.cls-92,.cls-95{opacity:0.2;}.cls-90{fill:url(#linear-gradient-72);}.cls-91,.cls-96{opacity:0.8;}.cls-91{fill:url(#linear-gradient-73);}.cls-93{fill:url(#linear-gradient-74);}.cls-94{fill:url(#linear-gradient-75);}.cls-95{fill:url(#linear-gradient-76);}.cls-96{fill:url(#linear-gradient-77);}</style><linearGradient id="linear-gradient" x1="57.88" y1="156.84" x2="107.58" y2="156.84" gradientUnits="userSpaceOnUse"><stop offset="0" stop-color="#ccc" stop-opacity="0.25"/><stop offset="1" stop-color="#999" stop-opacity="0"/></linearGradient><linearGradient id="linear-gradient-2" x1="-5631.54" y1="30.25" x2="-5528.61" y2="30.25" gradientTransform="matrix(-1, 0, 0, 1, -5291.74, 0)" xlink:href="#linear-gradient"/><linearGradient id="linear-gradient-3" x1="29.65" y1="239.87" x2="369.08" y2="239.87" gradientUnits="userSpaceOnUse"><stop offset="0" stop-color="#c0dde2"/><stop offset="1" stop-color="#dbf9ea"/></linearGradient><linearGradient id="linear-gradient-4" x1="381.98" y1="201.56" x2="8.9" y2="262.79" gradientUnits="userSpaceOnUse"><stop offset="0" stop-color="#dbf9ea"/><stop offset="0.97" stop-color="#fff"/></linearGradient><linearGradient id="linear-gradient-5" x1="80.15" y1="287.2" x2="158.47" y2="298.44" xlink:href="#linear-gradient-3"/><linearGradient id="linear-gradient-6" x1="34.77" y1="239.85" x2="473.35" y2="211.37" gradientUnits="userSpaceOnUse"><stop offset="0" stop-color="#330867"/><stop offset="1" stop-color="#30cfd0"/></linearGradient><linearGradient id="linear-gradient-7" x1="270.15" y1="160.84" x2="326.16" y2="176.5" xlink:href="#linear-gradient-3"/><linearGradient id="linear-gradient-8" x1="271.66" y1="155.44" x2="327.67" y2="171.11" xlink:href="#linear-gradient-3"/><linearGradient id="linear-gradient-9" x1="218.18" y1="212.49" x2="226.99" y2="212.49" xlink:href="#linear-gradient-6"/><linearGradient id="linear-gradient-10" x1="205.8" y1="244.33" x2="220.63" y2="244.33" xlink:href="#linear-gradient-6"/><linearGradient id="linear-gradient-11" x1="209.15" y1="249.26" x2="223.29" y2="249.26" xlink:href="#linear-gradient-6"/><linearGradient id="linear-gradient-12" x1="208.41" y1="221.21" x2="223.29" y2="221.21" xlink:href="#linear-gradient-6"/><linearGradient id="linear-gradient-13" x1="206.58" y1="215.01" x2="215.4" y2="215.01" xlink:href="#linear-gradient-6"/><linearGradient id="linear-gradient-14" x1="208.38" y1="228.86" x2="302.48" y2="228.86" gradientUnits="userSpaceOnUse"><stop offset="0" stop-color="#1afffe"/><stop offset="1" stop-color="#3688df" stop-opacity="0.49"/></linearGradient><linearGradient id="linear-gradient-15" x1="208.38" y1="246.94" x2="269.1" y2="246.94" xlink:href="#linear-gradient-14"/><linearGradient id="linear-gradient-16" x1="269.03" y1="254.9" x2="302.55" y2="254.9" xlink:href="#linear-gradient-14"/><linearGradient id="linear-gradient-17" x1="220.22" y1="228.88" x2="290.66" y2="228.88" xlink:href="#linear-gradient-4"/><linearGradient id="linear-gradient-18" x1="270.51" y1="240.03" x2="279.8" y2="240.03" xlink:href="#linear-gradient-14"/><linearGradient id="linear-gradient-19" x1="230.21" y1="216.74" x2="239.5" y2="216.74" xlink:href="#linear-gradient-14"/><linearGradient id="linear-gradient-20" x1="238.05" y1="228.55" x2="270.68" y2="228.55" xlink:href="#linear-gradient-14"/><linearGradient id="linear-gradient-21" x1="290.75" y1="287.42" x2="305.63" y2="287.42" xlink:href="#linear-gradient-6"/><linearGradient id="linear-gradient-22" x1="280.77" y1="291" x2="294.39" y2="291" xlink:href="#linear-gradient-6"/><linearGradient id="linear-gradient-23" x1="285.1" y1="265.63" x2="299.98" y2="265.63" xlink:href="#linear-gradient-6"/><linearGradient id="linear-gradient-24" x1="275.01" y1="262.72" x2="291.14" y2="262.72" xlink:href="#linear-gradient-6"/><linearGradient id="linear-gradient-25" x1="70.25" y1="219.08" x2="79.74" y2="219.08" xlink:href="#linear-gradient-6"/><linearGradient id="linear-gradient-26" x1="56.92" y1="253.35" x2="72.88" y2="253.35" xlink:href="#linear-gradient-6"/><linearGradient id="linear-gradient-27" x1="60.53" y1="258.66" x2="75.75" y2="258.66" xlink:href="#linear-gradient-6"/><linearGradient id="linear-gradient-28" x1="59.74" y1="228.46" x2="75.75" y2="228.46" xlink:href="#linear-gradient-6"/><linearGradient id="linear-gradient-29" x1="57.77" y1="221.8" x2="67.26" y2="221.8" xlink:href="#linear-gradient-6"/><linearGradient id="linear-gradient-30" x1="182.36" y1="153.11" x2="263.12" y2="153.11" xlink:href="#linear-gradient-14"/><linearGradient id="linear-gradient-31" x1="211" y1="168.63" x2="263.12" y2="168.63" xlink:href="#linear-gradient-14"/><linearGradient id="linear-gradient-32" x1="182.3" y1="175.46" x2="211.06" y2="175.46" xlink:href="#linear-gradient-14"/><linearGradient id="linear-gradient-33" x1="192.5" y1="153.13" x2="252.95" y2="153.13" xlink:href="#linear-gradient-4"/><linearGradient id="linear-gradient-34" x1="209.11" y1="152.71" x2="237.09" y2="152.71" xlink:href="#linear-gradient-14"/><linearGradient id="linear-gradient-35" x1="201.82" y1="162.7" x2="209.79" y2="162.7" xlink:href="#linear-gradient-14"/><linearGradient id="linear-gradient-36" x1="236.41" y1="142.71" x2="244.38" y2="142.71" xlink:href="#linear-gradient-14"/><linearGradient id="linear-gradient-37" x1="182.36" y1="137.54" x2="263.12" y2="137.54" xlink:href="#linear-gradient-14"/><linearGradient id="linear-gradient-38" x1="211" y1="153.05" x2="263.12" y2="153.05" xlink:href="#linear-gradient-14"/><linearGradient id="linear-gradient-39" x1="182.3" y1="159.89" x2="211.06" y2="159.89" xlink:href="#linear-gradient-14"/><linearGradient id="linear-gradient-40" x1="192.5" y1="137.55" x2="252.95" y2="137.55" xlink:href="#linear-gradient-4"/><linearGradient id="linear-gradient-41" x1="209.11" y1="137.13" x2="237.09" y2="137.13" xlink:href="#linear-gradient-14"/><linearGradient id="linear-gradient-42" x1="201.82" y1="147.12" x2="209.79" y2="147.12" xlink:href="#linear-gradient-14"/><linearGradient id="linear-gradient-43" x1="236.41" y1="127.14" x2="244.38" y2="127.14" xlink:href="#linear-gradient-14"/><linearGradient id="linear-gradient-44" x1="226.61" y1="143.62" x2="244.83" y2="143.62" xlink:href="#linear-gradient-6"/><linearGradient id="linear-gradient-45" x1="220.77" y1="145.56" x2="238.99" y2="145.56" xlink:href="#linear-gradient-6"/><linearGradient id="linear-gradient-46" x1="217.05" y1="126.7" x2="235.55" y2="126.7" xlink:href="#linear-gradient-6"/><linearGradient id="linear-gradient-47" x1="109.04" y1="192.51" x2="194.36" y2="192.51" xlink:href="#linear-gradient-14"/><linearGradient id="linear-gradient-48" x1="139.31" y1="208.9" x2="194.36" y2="208.9" xlink:href="#linear-gradient-14"/><linearGradient id="linear-gradient-49" x1="108.98" y1="216.12" x2="139.37" y2="216.12" xlink:href="#linear-gradient-14"/><linearGradient id="linear-gradient-50" x1="119.76" y1="192.53" x2="183.62" y2="192.53" xlink:href="#linear-gradient-4"/><linearGradient id="linear-gradient-51" x1="137.31" y1="192.08" x2="166.87" y2="192.08" xlink:href="#linear-gradient-14"/><linearGradient id="linear-gradient-52" x1="129.61" y1="202.64" x2="138.03" y2="202.64" xlink:href="#linear-gradient-14"/><linearGradient id="linear-gradient-53" x1="166.15" y1="181.52" x2="174.57" y2="181.52" xlink:href="#linear-gradient-14"/><linearGradient id="linear-gradient-54" x1="121.85" y1="271.37" x2="203.98" y2="271.37" xlink:href="#linear-gradient-14"/><linearGradient id="linear-gradient-55" x1="121.85" y1="287.15" x2="174.84" y2="287.15" xlink:href="#linear-gradient-14"/><linearGradient id="linear-gradient-56" x1="174.78" y1="294.11" x2="204.04" y2="294.11" xlink:href="#linear-gradient-14"/><linearGradient id="linear-gradient-57" x1="176.07" y1="281.12" x2="184.18" y2="281.12" xlink:href="#linear-gradient-14"/><linearGradient id="linear-gradient-58" x1="140.9" y1="260.8" x2="149.01" y2="260.8" xlink:href="#linear-gradient-14"/><linearGradient id="linear-gradient-59" x1="147.74" y1="271.1" x2="176.23" y2="271.1" xlink:href="#linear-gradient-14"/><linearGradient id="linear-gradient-60" x1="121.82" y1="255.31" x2="203.95" y2="255.31" xlink:href="#linear-gradient-14"/><linearGradient id="linear-gradient-61" x1="121.82" y1="271.09" x2="174.81" y2="271.09" xlink:href="#linear-gradient-14"/><linearGradient id="linear-gradient-62" x1="174.75" y1="278.04" x2="204.01" y2="278.04" xlink:href="#linear-gradient-14"/><linearGradient id="linear-gradient-63" x1="176.04" y1="265.06" x2="184.15" y2="265.06" xlink:href="#linear-gradient-14"/><linearGradient id="linear-gradient-64" x1="140.87" y1="244.74" x2="148.98" y2="244.74" xlink:href="#linear-gradient-14"/><linearGradient id="linear-gradient-65" x1="147.71" y1="255.04" x2="176.2" y2="255.04" xlink:href="#linear-gradient-14"/><linearGradient id="linear-gradient-66" x1="204.08" y1="319.65" x2="222.12" y2="319.65" xlink:href="#linear-gradient-6"/><linearGradient id="linear-gradient-67" x1="217.16" y1="324.35" x2="236.69" y2="324.35" xlink:href="#linear-gradient-6"/><linearGradient id="linear-gradient-68" x1="208.98" y1="297.95" x2="229.07" y2="297.95" xlink:href="#linear-gradient-6"/><linearGradient id="linear-gradient-69" x1="205.33" y1="292.22" x2="217.77" y2="292.22" xlink:href="#linear-gradient-6"/><linearGradient id="linear-gradient-70" x1="32.47" y1="137.33" x2="145.23" y2="137.33" xlink:href="#linear-gradient-14"/><linearGradient id="linear-gradient-71" x1="21.91" y1="133.81" x2="134.67" y2="133.81" xlink:href="#linear-gradient-14"/><linearGradient id="linear-gradient-72" x1="-84.3" y1="1049.85" x2="-49.47" y2="1049.85" gradientTransform="matrix(1.15, -0.5, 0, 0.87, 276.17, -864.99)" xlink:href="#linear-gradient-14"/><linearGradient id="linear-gradient-73" x1="-72.42" y1="1053.72" x2="-37.6" y2="1053.72" gradientTransform="matrix(1.15, -0.5, 0, 0.87, 276.17, -864.99)" xlink:href="#linear-gradient-14"/><linearGradient id="linear-gradient-74" x1="-9.43" y1="1042.72" x2="20.88" y2="1042.72" gradientTransform="matrix(1.15, -0.5, 0, 0.87, 264.41, -825.15)" xlink:href="#linear-gradient-14"/><linearGradient id="linear-gradient-75" x1="-13.76" y1="1045.27" x2="15.69" y2="1045.27" gradientTransform="matrix(1.15, -0.5, 0, 0.87, 264.41, -825.15)" xlink:href="#linear-gradient-14"/><linearGradient id="linear-gradient-76" x1="2.62" y1="1093.51" x2="49.22" y2="1093.51" gradientTransform="matrix(1.15, -0.5, 0, 0.87, 270.05, -839)" xlink:href="#linear-gradient-14"/><linearGradient id="linear-gradient-77" x1="16.44" y1="1109.64" x2="63.04" y2="1109.64" gradientTransform="matrix(1.15, -0.5, 0, 0.87, 270.05, -839)" xlink:href="#linear-gradient-14"/></defs><title>expenses</title><g id="Layer_2" data-name="Layer 2"><g id="Items"><g class="cls-1"><path class="cls-2" d="M362.55,177.3h0c-5.76-3.3-12.24-3.79-15.59-3.79a31.22,31.22,0,0,0-15.56,3.79h0L119.93,300.19a15.67,15.67,0,0,0-5.27,4.67,9.62,9.62,0,0,0-1.78,5.42c0,3.39,2.22,6.79,6.7,9.37l86.8,50.12c8.9,5.13,23.27,5.13,32.08,0L449.93,246.89c4.39-2.55,6.58-5.89,6.59-9.23-.11-5.85-5.06-8.93-7.17-10.25Z"/></g><path id="_Path_" data-name="&lt;Path&gt;" class="cls-3" d="M99.74,155.78h-.17a9.62,9.62,0,0,0-15.64-9.17,7.82,7.82,0,0,0-14.78,2.45h-.08a11.2,11.2,0,0,0,0,22.39H99.74a7.84,7.84,0,1,0,0-15.67Z"/><path id="_Path_2" data-name="&lt;Path&gt;" class="cls-4" d="M54.39,42.06h-.22a12.89,12.89,0,0,0,.22-2.34,12.51,12.51,0,0,0-20.54-9.58,10.16,10.16,0,0,0-19.21,3.19h-.1a14.55,14.55,0,0,0,0,29.09H54.39a10.18,10.18,0,0,0,0-20.36Z"/><path id="_Path_3" data-name="&lt;Path&gt;" class="cls-4" d="M360.49,133.16h.14a8.07,8.07,0,0,1-.14-1.48,7.93,7.93,0,0,1,13-6.08,6.45,6.45,0,0,1,12.19,2h.06a9.23,9.23,0,1,1,0,18.45H360.49a6.46,6.46,0,0,1,0-12.92Z"/><path id="_Path_4" data-name="&lt;Path&gt;" class="cls-5" d="M253.1,28.05l.36,0a19.92,19.92,0,0,1,32.38-19,16.21,16.21,0,0,1,30.63,5.07h.14a23.18,23.18,0,1,1,0,46.36H253.1a16.23,16.23,0,1,1,0-32.45Z"/><path class="cls-6" d="M359.63,221.3l-203,118a34.16,34.16,0,0,1-34.26,0l-83.2-48.05a19,19,0,0,1,0-32.86q101.51-59,203-118a34.17,34.17,0,0,1,34.25-.05l83.23,48A19,19,0,0,1,359.63,221.3Z"/><path class="cls-7" d="M274.26,138.92h0a31.21,31.21,0,0,0-15-3.65,30,30,0,0,0-15,3.65h0L40.88,257.13a15.18,15.18,0,0,0-5.07,4.49,9.32,9.32,0,0,0-1.72,5.22c0,3.26,2.15,6.52,6.46,9L124,324.06c8.56,4.94,22.38,4.94,30.86,0L358.31,205.86c4.23-2.45,6.34-5.66,6.35-8.88-.11-5.63-4.87-8.59-6.9-9.85Z"/><path class="cls-8" d="M105.06,284c-5.21-3-13.62-3-18.8,0s-5.15,7.88.06,10.89,13.63,3,18.8,0,5.14-7.89-.06-10.89"/><polyline class="cls-9" points="58.53 252.49 239.18 147.51 340.2 205.84 159.56 310.82 58.53 252.49"/><path class="cls-10" d="M292.33,166.56a1.22,1.22,0,0,1,0-2.32,4.44,4.44,0,0,1,4,0l14.82,8.56a1.25,1.25,0,0,1,0,2.35,4.46,4.46,0,0,1-4,0l-14.81-8.55"/><path class="cls-11" d="M278.88,160.33c-1.86-1.07-1.87-2.81,0-3.87a7.37,7.37,0,0,1,6.72,0c1.86,1.07,1.87,2.81,0,3.89a7.39,7.39,0,0,1-6.7,0"/><path class="cls-12" d="M221.56,267.35c1.38.19,2.62.65,4,.75.82.06,2.84-.55,3.09-1.63.08-.33-.76-.82-1-1-1.44-1.33-3-1.42-4.53-2.6-.2-.15-.38-.33-.58-.47s-1,.26-2,1.42a1,1,0,0,0-.8.18c-1.09.27-1.51-.22-2.35-.49-.06.13-.65.82-.67,1.08-.08.75-.05,2,.47,2.26C218.23,267.27,220.46,267.2,221.56,267.35Z"/><path class="cls-12" d="M209.86,259c1.38.2,2.62.65,4,.75.82.06,2.56.06,2.82-1a3.36,3.36,0,0,0-.71-1.64c-1.44-1.33-3-1.42-4.53-2.6-.2-.14-.38-.33-.58-.47s-1,.26-2,1.42a1,1,0,0,0-.79.18c-1.1.27-1.52-.22-2.36-.49-.05.13-.64.82-.67,1.08-.07.75,0,2,.47,2.26C206.53,258.9,208.76,258.83,209.86,259Z"/><path class="cls-13" d="M238.76,227.11c.07-2.21-3.85-3-3.85-3-2.14-1.56-8.06-6.13-8.06-6.13l-.64-2.78-5.42,1.51a39.61,39.61,0,0,0,3.64,5.31c1.49,1.61,8.48,4.52,8.48,4.52C235.26,229.68,238.68,229.32,238.76,227.11Z"/><path class="cls-14" d="M224.43,217.38A7.14,7.14,0,0,0,227,216s-2.49-10.41-7-8.84.72,10.83.72,10.83A9.76,9.76,0,0,0,224.43,217.38Z"/><path class="cls-15" d="M210.86,255.7s3.3-5.68,4.54-7.48,5.23-13.69,5.23-13.69-6.56-2.95-8-2.09-3.45,13.07-3.45,13.07c-2.42,3-3.39,9.84-3.39,9.84C206.84,257.44,210.86,255.7,210.86,255.7Z"/><path class="cls-16" d="M217.58,264.38a8.55,8.55,0,0,0,5.71-.76s-1.14-12-1.62-14.36S218.18,235,218.18,235l-9-1a11.12,11.12,0,0,0,1,5.61c1.33,2.66,4.56,9.6,4.56,9.6Z"/><path class="cls-17" d="M223.29,210.19a5.92,5.92,0,0,0-2.19-3.52s-7.13-2.28-12.69,3V235s7.46,2.76,13.55,0Z"/><path class="cls-13" d="M214.5,205.2l-2.15,2.14s1.39,4.57,4.79,3.32.75-4.28.75-4.28v-2.24Z"/><path class="cls-13" d="M227.16,229.63c.07-2.21-3.85-3-3.85-3-2.14-1.57-8.06-6.13-8.06-6.13l-.64-2.78-5.42,1.5a39.61,39.61,0,0,0,3.64,5.31c1.5,1.61,8.48,4.52,8.48,4.52C223.67,232.2,227.09,231.84,227.16,229.63Z"/><path class="cls-18" d="M212.83,219.9a7.14,7.14,0,0,0,2.57-1.39s-2.5-10.41-7-8.84.71,10.84.71,10.84A9.9,9.9,0,0,0,212.83,219.9Z"/><path class="cls-13" d="M212.39,203.7a4.33,4.33,0,0,0-.63-1.77,2.68,2.68,0,0,1-.17-.23,1.16,1.16,0,0,0-.56-.36h-.15a.32.32,0,0,0-.17.06,1,1,0,0,0-.29.26.3.3,0,0,0,0,.08.94.94,0,0,0-.16.62v.09a.07.07,0,0,0,0,.06,4.12,4.12,0,0,0,.52,1.25c.36.6.69.89,1,.87h.06l.14,0h0a.47.47,0,0,0,.22-.22c.18.37.37.72.57,1.07a10.07,10.07,0,0,0,1.21,1.65,5.23,5.23,0,0,0,2.06,1.45,4.45,4.45,0,0,0,1.55.24,1.71,1.71,0,0,0,.82-.12l.32-.11a2.44,2.44,0,0,0,.28-.14l.16-.1a2.61,2.61,0,0,0,.33-.27c.14-.14.27-.29.41-.46v0l0,0a6.65,6.65,0,0,0,1-1.87,14.85,14.85,0,0,0,.58-4l0-.81c0-.64,0-1.15,0-1.52a4.2,4.2,0,0,0-.23-1.22,2.65,2.65,0,0,1-.53.71,2.73,2.73,0,0,1-1.78.48,5.17,5.17,0,0,1-2.56-.61,18.08,18.08,0,0,1-1.89-1.07H214a1.52,1.52,0,0,0-.92.68,2.07,2.07,0,0,0-.44,1.42l.52,1.24a3.15,3.15,0,0,1,0,.75,2,2,0,0,1,0,.34,4.59,4.59,0,0,0,0,.94c0,.43-.08.79-.1,1.06A2.74,2.74,0,0,1,212.39,203.7Z"/><path class="cls-19" d="M214,197.57h.46a18.08,18.08,0,0,0,1.89,1.07,5.17,5.17,0,0,0,2.56.61,2.73,2.73,0,0,0,1.78-.48,2.65,2.65,0,0,0,.53-.71c-.1-.31-.23-.67-.37-1.08a6.75,6.75,0,0,1-.35-.66c-.82-1.45-2.55-2.17-5.19-2.18q-3.72.27-4.52,4.39a8.27,8.27,0,0,0-.08,2.86.32.32,0,0,1,.17-.06H211a1.16,1.16,0,0,1,.56.36,2.68,2.68,0,0,0,.17.23,4.33,4.33,0,0,1,.63,1.77,2.74,2.74,0,0,0,.63.3c0-.27.06-.63.1-1.06a4.59,4.59,0,0,1,0-.94,2,2,0,0,0,0-.34,3.15,3.15,0,0,0,0-.75l-.52-1.24a2.07,2.07,0,0,1,.44-1.42A1.52,1.52,0,0,1,214,197.57Z"/><polygon class="cls-20" points="241.83 201.58 208.38 220.89 269.03 256.14 302.48 236.83 241.83 201.58"/><polygon class="cls-21" points="269.03 256.14 208.38 220.89 208.45 237.74 269.1 272.98 269.03 256.14"/><polygon class="cls-22" points="302.48 236.83 269.03 256.14 269.1 272.98 302.55 253.67 302.48 236.83"/><path class="cls-23" d="M220.22,224.18l43.14,25.16a12.63,12.63,0,0,1,11.51,0l15.75-9.1c-3.17-1.84-3.15-4.83,0-6.67l-43.14-25.15a12.69,12.69,0,0,1-11.51,0l-15.75,9.1C223.43,219.36,223.41,222.34,220.22,224.18Z"/><path class="cls-24" d="M275.14,242.65h0a6.77,6.77,0,0,0,3.32-.8,1.91,1.91,0,0,0,0-3.64,6.87,6.87,0,0,0-3.32-.79,6.94,6.94,0,0,0-3.33.79,2.29,2.29,0,0,0-1.33,1.83,2.25,2.25,0,0,0,1.31,1.81A6.77,6.77,0,0,0,275.14,242.65Z"/><path class="cls-25" d="M234.84,219.36h0a6.77,6.77,0,0,0,3.32-.8,1.91,1.91,0,0,0,0-3.64,6.87,6.87,0,0,0-3.32-.79,6.94,6.94,0,0,0-3.33.79,2.29,2.29,0,0,0-1.33,1.83,2.25,2.25,0,0,0,1.31,1.81A6.77,6.77,0,0,0,234.84,219.36Z"/><path class="cls-26" d="M254.42,237.74h0A24,24,0,0,0,266.07,235c2.94-1.71,4.62-4,4.61-6.38s-1.71-4.7-4.68-6.42a24.19,24.19,0,0,0-11.69-2.79,24,24,0,0,0-11.65,2.79c-2.94,1.7-4.62,4-4.61,6.37s1.71,4.71,4.68,6.42A24.2,24.2,0,0,0,254.42,237.74Z"/><path class="cls-13" d="M300.27,305.73l0,.83,1.76.86,2.68-2.84-1.08-2.8-1.11-.62a1.84,1.84,0,0,0-1.32,2A3,3,0,0,1,300.27,305.73Z"/><path class="cls-12" d="M301.84,306.08c-.84.63-1.57-.35-1.57-.35s-1.53,1-1.41,2,1.55,1.1,1.55,1.1,3.27-.77,3.94-1.53a2.87,2.87,0,0,0,.75-1.41l.82.59,1.33-.87c-.6-.62-.52-1.73-1-2.9a4.24,4.24,0,0,0-2-1.85s-1.53.33-1.28,1.61A4.12,4.12,0,0,1,301.84,306.08Z"/><path class="cls-13" d="M283.61,308.28l-.58-1.13a1.82,1.82,0,0,0-2.22,1,3,3,0,0,1-2.22,1.57l-.43.7,1,1.7,3.8-.87Z"/><path class="cls-12" d="M284.59,307.8s-1.45-.58-2,.63a4.1,4.1,0,0,1-2.93,2.4c-1.05.05-1.11-1.16-1.11-1.16s-1.86,0-2.28.85.67,1.78.67,1.78,3.16,1.18,4.13.93a2.92,2.92,0,0,0,1.41-.76l.35.94,1.59,0c-.15-.84.54-1.72.81-2.95A4.22,4.22,0,0,0,284.59,307.8Z"/><path class="cls-27" d="M298.55,271l-6.25,3.33L291,278.48s-.87,9.9.75,11.19,9.44,14,9.44,14c2.11,1,4.46-2.33,4.46-2.33-1-1.18-4.8-10.11-5.67-11.94s-1.77-3.37-1.77-3.37c-.05-1-.14-6,1.35-8.45C301.3,274.69,298.55,271,298.55,271Z"/><path class="cls-28" d="M280.77,308s2.72,1.39,4.56.56a8,8,0,0,1,.08-4.12c.65-2.31,2-10.89,1.39-14.39,0,0,3.32-6.46,5-7.56s3.42-4.75,2.22-8.25-8.87,3-8.87,3-3.58,7.86-4.14,10.45.1,6.27,0,10.33S280.77,308,280.77,308Z"/><polygon class="cls-29" points="293.39 251.24 290.42 252.02 290.67 254.14 293.8 253.45 293.39 251.24"/><path class="cls-30" d="M285.76,277.55s10.41,2.77,14.22-3.38c0,0-1.79-5.37-1.79-7.46s.3-9.35,0-11.25a6.38,6.38,0,0,0-4.75-2.37,8.18,8.18,0,0,0-6.74,3.76c-.95,1.8-1.06-.45.41,5.2s.12,11.32-1.35,13.53S285.76,277.55,285.76,277.55Z"/><path class="cls-31" d="M279,270c5.14-.64,6.56-1.84,9-5.6.83-1.27,2.16-1.47,3-5,.71-3-1.13-3.85-1.13-3.85-3.41-1.43-4.47,3.63-5.12,5.15-.29.69-1.33,2.54-1.48,2.92-.52,1.63-4.62,3.81-8.16,5.86C274.55,269.84,276.71,270.29,279,270Z"/><path class="cls-13" d="M293.94,249.12l-1.9-3-3.92.73s-.94,5.48,2.57,6.34S293.94,249.12,293.94,249.12Z"/><path class="cls-19" d="M291.67,241.26c-3.77.53-3.81,5-3.81,5a10,10,0,0,0,2.21,3c.49-2.21,1.23-1.1,1.23.37a16,16,0,0,1-.61,3.57l.08,0c-.22,1.07-.52,2.49-.51,2.52a28.75,28.75,0,0,1,.44,4.19c2.84,3.26,4.82-.12,7.8-.92.32-.09-.76-6.16-.16-9.25a6.84,6.84,0,0,0,.31-1.51,3.28,3.28,0,0,0,0-.7s0-.08,0-.13C298.55,242.36,295.17,240.76,291.67,241.26Z"/><path class="cls-12" d="M73.89,278.13c1.49.21,2.82.7,4.34.81.89.06,3.06-.59,3.34-1.76.08-.36-.83-.88-1.07-1.1-1.55-1.44-3.19-1.54-4.88-2.8-.21-.16-.4-.36-.62-.51s-1.06.28-2.18,1.53a1.09,1.09,0,0,0-.86.19c-1.17.29-1.63-.23-2.53-.52-.06.13-.69.87-.72,1.16-.08.8,0,2.18.51,2.43C70.31,278.05,72.7,278,73.89,278.13Z"/><path class="cls-12" d="M61.29,269.12c1.49.21,2.82.7,4.35.81.88.06,2.75.07,3-1.1a3.59,3.59,0,0,0-.77-1.76c-1.54-1.43-3.19-1.54-4.88-2.8-.21-.16-.4-.35-.62-.51s-1,.28-2.18,1.53a1.07,1.07,0,0,0-.85.19c-1.18.29-1.63-.23-2.54-.52,0,.14-.69.88-.72,1.16-.08.81,0,2.18.51,2.43C57.71,269,60.11,269,61.29,269.12Z"/><path class="cls-13" d="M92.4,234.82c.07-2.38-4.15-3.23-4.15-3.23C86,229.91,79.58,225,79.58,225l-.69-3-5.83,1.62A43.19,43.19,0,0,0,77,229.34c1.61,1.73,9.14,4.86,9.14,4.86C88.64,237.58,92.32,237.2,92.4,234.82Z"/><path class="cls-32" d="M77,224.34a7.69,7.69,0,0,0,2.77-1.49s-2.69-11.21-7.52-9.52S73,225,73,225A10.44,10.44,0,0,0,77,224.34Z"/><path class="cls-33" d="M62.38,265.59s3.55-6.11,4.88-8,5.62-14.74,5.62-14.74-7.06-3.17-8.59-2.25-3.71,14.07-3.71,14.07c-2.61,3.18-3.66,10.59-3.66,10.59C58.05,267.46,62.38,265.59,62.38,265.59Z"/><path class="cls-34" d="M69.61,274.93a9.16,9.16,0,0,0,6.14-.82S74.52,261.22,74,258.66s-3.76-15.35-3.76-15.35l-9.67-1.12a12,12,0,0,0,1.05,6c1.43,2.86,4.91,10.33,4.91,10.33Z"/><path class="cls-35" d="M75.75,216.61a6.35,6.35,0,0,0-2.35-3.79s-7.68-2.45-13.66,3.23v27.26s8,3,14.58,0Z"/><path class="cls-13" d="M66.29,211.24,64,213.54s1.49,4.92,5.15,3.57.81-4.6.81-4.6V210.1Z"/><path class="cls-13" d="M64.52,209.11a1.65,1.65,0,0,0-.57.13,2,2,0,0,0-.34-1.08,1.33,1.33,0,0,0-.63-.61l-.14,0a.63.63,0,0,0-.43.26.9.9,0,0,0-.26.63v.09a3.45,3.45,0,0,0,.4,1.24c.29.59.56.88.82.88h.06a.46.46,0,0,0,.36-.23c.14.36.29.71.45,1a6.61,6.61,0,0,0,2.38,2.89c.12.07.24.14.37.2a4.17,4.17,0,0,0,1.7.35,2.29,2.29,0,0,0,1-.23,3.37,3.37,0,0,0,.94-.73,6.35,6.35,0,0,0,.9-1.29,12.48,12.48,0,0,0,1.28-4.75c.06-.67.1-1.39.1-2.14,0,0,0-.06,0-.07,0-.22,0-.46,0-.73a1.17,1.17,0,0,0-.12-.25.86.86,0,0,0-.38-.38c-.24-.11-.36-.34-.65-.32s-2.17-1.48-2.18-1.14c-.69-.77-3.15-.11-3.5.27A4.33,4.33,0,0,1,63,204.2c-.38,0,1.45,2.57,1.37,2a6.19,6.19,0,0,0,.29,1.09,4.81,4.81,0,0,1,.31,1.49C64.92,209,64.79,209.07,64.52,209.11Z"/><path class="cls-36" d="M73.36,207.43a4.16,4.16,0,0,0,.57-.92,4.08,4.08,0,0,0,.09-3.32,4.53,4.53,0,0,0-1.93-2.4,7.27,7.27,0,0,0-3.68-1.58c-.54,0-1.09,0-1.64,0-2.45-.18-2.51,1-2.79,1.09-.6.29-1-.27-1.79.75a4.74,4.74,0,0,0-.83,2.92,10,10,0,0,0,.11,2c.24.87.45,1.73.64,2.57l0,.06v-.19a.9.9,0,0,1,.26-.63.63.63,0,0,1,.43-.26l.14,0a1.33,1.33,0,0,1,.63.61,2,2,0,0,1,.34,1.08,1.8,1.8,0,0,1,.57-.14c.27,0,.4-.13.4-.28a4.81,4.81,0,0,0-.31-1.49,6.19,6.19,0,0,1-.29-1.09c2.88,1.73,8.5-1.42,8.54-1.31,0,.27,0,.51,0,.73,0,0,0,0,0,.07,0,.75,0,1.47-.1,2.14C72.84,207.85,73.32,207.49,73.36,207.43Z"/><path class="cls-13" d="M79.92,237.53c.07-2.38-4.15-3.22-4.15-3.22-2.3-1.69-8.67-6.6-8.67-6.6l-.69-3-5.83,1.62a42.64,42.64,0,0,0,3.91,5.71c1.61,1.73,9.14,4.87,9.14,4.87C76.16,240.3,79.84,239.91,79.92,237.53Z"/><path class="cls-37" d="M64.49,227.06a7.77,7.77,0,0,0,2.77-1.5s-2.69-11.2-7.52-9.51.76,11.66.76,11.66A10.68,10.68,0,0,0,64.49,227.06Z"/><path class="cls-38" d="M74.38,249l.25.13.52.25.31.15.48.21.34.14.32.14.11,0c.36.13.72.27,1.09.39l.17.06,1,.3.16.05.19,0,.62.17.39.09.69.16.26.06h.07l.63.12.35.07.84.13.15,0h0l1,.13.22,0,.77.07h0l.35,0,.63,0,.41,0,.59,0h1.45l.6,0h.39l.69,0a2.73,2.73,0,0,0,.41,0l.67,0,.23,0,.16,0,1-.12.17,0,1.16-.19h.11l.31-.06.53-.11.44-.1c.18,0,.35-.07.52-.12l.44-.11.51-.13.42-.12.51-.16.21-.06.16-.06.89-.31.19-.07c.34-.13.69-.27,1-.42l.26-.11.77-.36.27-.14c.33-.17.64-.34,1-.52a2,2,0,0,0,.25-.14l.23-.15.37-.23.33-.22.35-.25.3-.23.32-.25.29-.24.29-.26.13-.1.23-.22.08-.08.43-.45.09-.11.34-.39.07-.08,0,0L107,245c.1-.13.2-.26.29-.4l.14-.22c.08-.12.16-.24.23-.36l.06-.1.08-.15c0-.11.11-.21.16-.31l.12-.26.13-.31.06-.14a.65.65,0,0,1,0-.13l.1-.3c0-.09,0-.18.08-.27s0-.2.07-.3l0-.16s0-.07,0-.11,0-.21,0-.31l0-.27c0-.1,0-.21,0-.31s0-.12,0-.18v-.18l0-7.47c0,.12,0,.24,0,.36s0,.21,0,.32l0,.27c0,.1,0,.2-.05.3l-.06.28c0,.1,0,.2-.07.3s0,.18-.08.27-.06.2-.1.3-.06.17-.1.26-.08.21-.13.31l-.12.26c0,.11-.11.21-.16.31l-.14.25c-.07.12-.15.24-.23.36s-.09.15-.14.23l-.29.39-.14.19-.07.08-.33.4-.1.1-.43.45-.08.08-.35.33-.3.26-.28.23-.33.26-.3.22-.35.25-.33.22-.37.24-.48.29c-.31.18-.62.35-.94.51l-.28.14-.77.36-.26.12-1,.42-.19.06-.89.32-.37.12-.5.15-.43.12-.51.14-.43.11-.53.12-.43.09-.54.11-.42.08c-.38.06-.77.13-1.16.18l-.17,0-1,.13-.39,0-.66.06-.42,0-.69,0-.39,0h-2l-.59,0-.41,0-.63,0-.36,0-.77-.08-.22,0-1-.12-.16,0-.83-.13L82,244l-.63-.12-.33-.07-.69-.16-.38-.09-.63-.17-.35-.1c-.33-.09-.65-.19-1-.3l-.17,0-1.09-.4-.43-.18-.34-.14-.48-.21-.31-.14-.52-.26-.25-.12-.74-.41c-4.06-2.34-6.08-5.42-6.07-8.48l0,7.46c0,3.07,2,6.14,6.07,8.48Z"/><path class="cls-39" d="M102.74,241.1c8-4.65,8-12.2-.09-16.85s-21.08-4.65-29.09,0-8,12.2.1,16.85S94.74,245.75,102.74,241.1Z"/><path class="cls-40" d="M88.22,241.84h0a26.65,26.65,0,0,0,13-3.08c2.83-1.64,4.46-3.74,4.46-5.75s-1.66-4.14-4.55-5.81a26.87,26.87,0,0,0-13-3.08,26.62,26.62,0,0,0-13,3.08c-2.84,1.64-4.46,3.74-4.46,5.75s1.66,4.14,4.55,5.81A26.87,26.87,0,0,0,88.22,241.84Z"/><path class="cls-41" d="M75.1,227.2a26.62,26.62,0,0,1,13-3.08,26.87,26.87,0,0,1,13,3.08c2.67,1.54,4.29,3.47,4.52,5.36,0-.16,0-.31,0-.46,0-2-1.66-4.15-4.55-5.82a27,27,0,0,0-13-3.08,26.73,26.73,0,0,0-13,3.08c-2.84,1.65-4.46,3.74-4.46,5.75a3.4,3.4,0,0,0,0,.45C70.9,230.62,72.48,228.72,75.1,227.2Z"/><path class="cls-42" d="M102.74,242.06c4-2.43,6-5.6,6-8.78v-.07c0-.07,0-.15,0-.22a.34.34,0,0,1,0,.1c0,.11,0,.21,0,.32l0,.27c0,.1,0,.2-.05.3l-.06.28c0,.1,0,.2-.07.3s0,.18-.08.27-.06.2-.1.3-.06.17-.1.26-.08.21-.13.31l-.12.26c0,.11-.11.21-.16.31l-.14.25c-.07.12-.15.24-.23.36s-.09.15-.14.23l-.29.39-.14.19-.07.08-.33.4-.1.1-.43.45-.08.08-.35.33-.3.26-.28.23-.33.26-.3.22-.35.25-.33.22-.37.24-.48.29c-.31.18-.62.35-.94.51l-.28.14-.77.36-.26.12-1,.42-.19.06-.89.32-.37.12-.5.15-.43.12-.51.14-.43.11-.53.12-.43.09-.54.11-.42.08c-.38.06-.77.13-1.16.18l-.17,0-1,.13-.39,0-.66.06-.42,0-.69,0-.39,0h-2l-.59,0-.41,0-.63,0-.36,0-.77-.08-.22,0-1-.12-.16,0-.83-.13L82,244l-.63-.12-.33-.07-.69-.16-.38-.09-.63-.17-.35-.1c-.33-.09-.65-.19-1-.3l-.17,0-1.09-.4-.43-.18-.34-.14-.48-.21-.31-.14-.52-.26-.25-.12-.74-.41c-3.93-2.27-6-5.22-6.06-8.19-.13,3.3,1.89,6.63,6.06,9.15C81.72,246.93,94.74,246.93,102.74,242.06Z"/><path class="cls-38" d="M83.94,236.52l.07,0,.15.07.09,0,.14.07.1,0,.1,0h0l.32.11,0,0,.28.09h0l.06,0,.18,0,.11,0,.2,0,.08,0h0l.19,0,.1,0,.24,0h0l.29,0h.06l.23,0h.1l.19,0h1.64l.3,0h0l.34,0h.12l.15,0,.13,0,.16,0,.12,0,.15,0,.13,0,.14,0,.07,0,0,0a2,2,0,0,0,.26-.09l.06,0,.3-.12.07,0,.23-.11.08,0,.28-.15.07,0,.07,0a.41.41,0,0,1,.11-.07l.09-.07.1-.07.09-.07.1-.07.08-.07.09-.08,0,0,.07-.06,0,0,.12-.13,0,0,.1-.11,0,0h0l0,0a.83.83,0,0,0,.08-.12l0-.06.06-.11,0,0s0,0,0,0l.05-.09,0-.08a.36.36,0,0,0,0-.09s0,0,0,0v0l0-.09a.19.19,0,0,0,0-.08l0-.08a.09.09,0,0,1,0-.05v0s0-.06,0-.09a.19.19,0,0,1,0-.08v-.09s0,0,0-.06v-2.13a.28.28,0,0,1,0,.09.22.22,0,0,1,0,.08s0,.06,0,.09,0,.05,0,.08a.29.29,0,0,1,0,.09s0,0,0,.08l0,.09,0,.07,0,.09a.2.2,0,0,1,0,.08l0,.09,0,.07-.07.11,0,.06-.09.12,0,.06,0,0-.1.12,0,0-.13.13,0,0-.11.1-.08.07-.09.07-.09.08-.09.06-.1.07-.1.07-.11.07-.14.08a1.82,1.82,0,0,1-.27.15l-.09,0-.22.1-.08,0a2.08,2.08,0,0,1-.3.13l0,0-.26.09-.11,0-.15.05-.12,0-.15,0-.13,0-.15,0L90,235l-.16,0-.12,0-.34.06h0l-.3,0H89l-.2,0H87.13l-.22,0h-.07l-.29,0h0l-.25,0-.1,0L86,235l-.1,0-.2,0-.11,0-.19-.05-.1,0a2.29,2.29,0,0,1-.28-.09h0l-.32-.12-.13,0-.1,0-.14-.06-.09,0-.15-.08-.08,0-.21-.12A3,3,0,0,1,82,231.73v2.19a3,3,0,0,0,1.78,2.48Z"/><path class="cls-39" d="M92.24,234.21c2.35-1.36,2.34-3.57,0-4.93a9.41,9.41,0,0,0-8.52,0c-2.34,1.36-2.33,3.57,0,4.93A9.32,9.32,0,0,0,92.24,234.21Z"/><path class="cls-40" d="M88,234.43h0a7.82,7.82,0,0,0,3.8-.9,2.2,2.2,0,0,0,1.31-1.68,2.24,2.24,0,0,0-1.33-1.71,7.9,7.9,0,0,0-3.82-.9,7.82,7.82,0,0,0-3.8.9,1.75,1.75,0,0,0,0,3.39A8,8,0,0,0,88,234.43Z"/><path class="cls-41" d="M84.15,230.14a7.82,7.82,0,0,1,3.8-.9,7.9,7.9,0,0,1,3.82.9,2.4,2.4,0,0,1,1.32,1.57.57.57,0,0,0,0-.13,2.21,2.21,0,0,0-1.33-1.7A7.79,7.79,0,0,0,88,229a7.71,7.71,0,0,0-3.8.91,2.19,2.19,0,0,0-1.31,1.68s0,.09,0,.13A2.37,2.37,0,0,1,84.15,230.14Z"/><path class="cls-42" d="M92.24,234.5A3.13,3.13,0,0,0,94,231.92v0a.28.28,0,0,1,0,.09.22.22,0,0,1,0,.08s0,.06,0,.09,0,.05,0,.08a.29.29,0,0,1,0,.09s0,0,0,.08l0,.09,0,.07,0,.09a.2.2,0,0,1,0,.08l0,.09,0,.07-.07.11,0,.06-.09.12,0,.06,0,0-.1.12,0,0-.13.13,0,0-.11.1-.08.07-.09.07-.09.08-.09.06-.1.07-.1.07-.11.07-.14.08a1.82,1.82,0,0,1-.27.15l-.09,0-.22.1-.08,0a2.08,2.08,0,0,1-.3.13l0,0-.26.09-.11,0-.15.05-.12,0-.15,0-.13,0-.15,0L90,235l-.16,0-.12,0-.34.06h0l-.3,0H89l-.2,0H87.13l-.22,0h-.07l-.29,0h0l-.25,0-.1,0L86,235l-.1,0-.2,0-.11,0-.19-.05-.1,0a2.29,2.29,0,0,1-.28-.09h0l-.32-.12-.13,0-.1,0-.14-.06-.09,0-.15-.08-.08,0-.21-.12A3.07,3.07,0,0,1,82,231.82a3.15,3.15,0,0,0,1.78,2.68A9,9,0,0,0,92.24,234.5Z"/><polygon class="cls-43" points="234.41 129.7 182.36 159.95 211.06 176.52 263.12 146.27 234.41 129.7"/><polygon class="cls-44" points="211.06 176.52 211 190.98 263.06 160.73 263.12 146.27 211.06 176.52"/><polygon class="cls-45" points="182.36 159.95 182.3 174.41 211 190.98 211.06 176.52 182.36 159.95"/><path class="cls-46" d="M252.92,143.38l-13.52-7.81a10.89,10.89,0,0,1-9.88,0l-37,21.59c2.74,1.58,2.75,4.14,0,5.72l13.53,7.8a10.87,10.87,0,0,1,9.87,0l37-21.58C250.22,147.52,250.2,145,252.92,143.38Z"/><path class="cls-47" d="M223.15,160.58h0a20.52,20.52,0,0,0,10-2.39c2.51-1.46,4-3.45,4-5.46s-1.47-4-4-5.51a22.14,22.14,0,0,0-20,0c-2.51,1.46-3.95,3.46-3.95,5.47s1.47,4,4,5.5A20.67,20.67,0,0,0,223.15,160.58Z"/><path class="cls-48" d="M205.82,164.94h0a5.8,5.8,0,0,0,2.85-.68,1.64,1.64,0,0,0,0-3.12,5.82,5.82,0,0,0-2.86-.68,5.74,5.74,0,0,0-2.84.68,1.92,1.92,0,0,0-1.13,1.55,2,2,0,0,0,1.15,1.57A5.8,5.8,0,0,0,205.82,164.94Z"/><path class="cls-49" d="M240.41,145h0a5.85,5.85,0,0,0,2.84-.68,1.65,1.65,0,0,0,0-3.13,6,6,0,0,0-2.86-.68,5.85,5.85,0,0,0-2.84.68,1.65,1.65,0,0,0,0,3.13A5.93,5.93,0,0,0,240.41,145Z"/><polygon class="cls-50" points="234.41 114.12 182.36 144.37 211.06 160.95 263.12 130.7 234.41 114.12"/><polygon class="cls-51" points="211.06 160.95 211 175.4 263.06 145.15 263.12 130.7 211.06 160.95"/><polygon class="cls-52" points="182.36 144.37 182.3 158.83 211 175.4 211.06 160.95 182.36 144.37"/><path class="cls-53" d="M252.92,127.8,239.4,120a10.89,10.89,0,0,1-9.88,0l-37,21.58c2.74,1.58,2.75,4.14,0,5.72l13.53,7.81a10.87,10.87,0,0,1,9.87,0l37-21.59C250.22,131.94,250.2,129.38,252.92,127.8Z"/><path class="cls-54" d="M223.15,145h0a20.52,20.52,0,0,0,10-2.39c2.51-1.47,4-3.46,4-5.47s-1.47-4-4-5.5a22.14,22.14,0,0,0-20,0c-2.51,1.46-3.95,3.45-3.95,5.46s1.47,4,4,5.51A20.67,20.67,0,0,0,223.15,145Z"/><path class="cls-55" d="M205.82,149.37h0a5.91,5.91,0,0,0,2.85-.68,1.65,1.65,0,0,0,0-3.13,5.93,5.93,0,0,0-2.86-.68,5.85,5.85,0,0,0-2.84.68,1.64,1.64,0,0,0,0,3.13A5.91,5.91,0,0,0,205.82,149.37Z"/><path class="cls-56" d="M240.41,129.38h0a5.85,5.85,0,0,0,2.84-.68,1.93,1.93,0,0,0,1.13-1.56,2,2,0,0,0-1.14-1.56,5.87,5.87,0,0,0-2.86-.68,5.74,5.74,0,0,0-2.84.68,1.92,1.92,0,0,0-1.13,1.55,2,2,0,0,0,1.14,1.57A5.93,5.93,0,0,0,240.41,129.38Z"/><path class="cls-13" d="M241.82,110.33c2.72-2,2.46-4.92.56-5s-2.62,3.27-2.62,3.27c-1.37,1.81-5.37,6.83-5.37,6.83l-2.39.51,1.22,4.67a34.43,34.43,0,0,0,4.6-3C239.22,116.29,241.82,110.33,241.82,110.33Z"/><path class="cls-13" d="M234.31,120.68a8.43,8.43,0,0,0-.47-3.19,6.27,6.27,0,0,0-1.16-2.22s-9,2-7.68,5.87S234.31,120.68,234.31,120.68Z"/><path class="cls-12" d="M245.94,160.13c1.78-.19,3.17-1.16,3-1.95s-2.55-3.75-4.28-4.35-4-.15-4.13.5a4.86,4.86,0,0,0,0,2.38C240.87,157.5,244.15,160.33,245.94,160.13Z"/><path class="cls-57" d="M238.26,144.14l1.82,10.08s3.17,1,4.75-.57c0,0-1.47-10.65-2-12.34s-3.17-4.19-9.17-7.25-6.8,0-6.8,0-1.55,2.7,3.7,6.08C235.58,143.39,238.26,144.14,238.26,144.14Z"/><path class="cls-12" d="M240.09,162.08c1.79-.2,3.17-1.16,3-2s-2.55-3.75-4.27-4.35-4-.15-4.13.5a4.87,4.87,0,0,0,0,2.38C235,159.45,238.31,162.28,240.09,162.08Z"/><path class="cls-58" d="M232.42,146.08l1.81,10.08s3.17,1,4.76-.57c0,0-1.47-10.64-2-12.34s-3.17-4.19-9.17-7.25-6.8,0-6.8,0-1.55,2.7,3.7,6.08C229.74,145.33,232.42,146.08,232.42,146.08Z"/><path class="cls-36" d="M227.33,116.37l4-.15c-1-.5-1-6.2-1.07-8.38a3.48,3.48,0,0,0-3.19-3.7c-2.09-.4-4.93.47-6,2.43a9.9,9.9,0,0,0,.47,8.73c1.29,2-.12,5.48.64,6,1,.62,3.5-3.52,3.5-3.52s1.61-3.15-1.43-4.71c-.73-.37-2-1.9-1.42-2.47,1-1,1.55,1,1.55,1,0-1.08,2.23-2.43,3.51-3a2.45,2.45,0,0,0,1.49-1.69c.67,1-1.42,3.68-1.47,6.16A6.85,6.85,0,0,1,227.33,116.37Z"/><path class="cls-59" d="M231.35,115.82c-2.88-.6-5.33-1.33-10.78,3.4l-3.52,5.7a6.52,6.52,0,0,0,5,1.21l-.6,11.33a11.47,11.47,0,0,1,6.42.31c3.16,1.21,5.77-2.44,7.71-2.68a30.83,30.83,0,0,1-2-4.25c-.77-3.63-.33-10.28-.33-10.28S233.89,116.36,231.35,115.82Z"/><path class="cls-13" d="M219.65,126.11c-.57-.16-2.08-.84-2.08-.84s-1.33,4.23-.33,6.68,4.74,7,4.74,7a4.94,4.94,0,0,0,1.86.08,1.45,1.45,0,0,0,1.18-1s-3.53-5.74-4.33-7.06.73-4.72.73-4.72A5.32,5.32,0,0,1,219.65,126.11Z"/><path class="cls-13" d="M224.87,113v3.23s1.46,4.22,4,3.27-.26-4.79-.26-4.79V113Z"/><path class="cls-13" d="M224.33,114a14.05,14.05,0,0,0,2,1.42,2.34,2.34,0,0,0,2.46-.15,4.44,4.44,0,0,0,.73-2.6c.06-2.48.49-4.69-.18-5.74a2.45,2.45,0,0,1-1.49,1.69c-1.28.54-3.51,1.89-3.51,3,0,0-.54-2-1.55-1-.61.57.47,2.23,1.08,2.77A2.08,2.08,0,0,1,224.33,114Z"/><polygon class="cls-60" points="194.36 185.28 164.03 167.77 109.04 199.73 139.37 217.24 194.36 185.28"/><polygon class="cls-61" points="194.36 185.28 139.37 217.24 139.31 232.51 194.3 200.56 194.36 185.28"/><polygon class="cls-62" points="139.37 217.24 109.04 199.73 108.98 215 139.31 232.51 139.37 217.24"/><path class="cls-63" d="M183.59,182.23,169.3,174a11.48,11.48,0,0,1-10.43,0l-39.11,22.8c2.89,1.67,2.91,4.38,0,6.05l14.28,8.24a11.5,11.5,0,0,1,10.44,0l39.1-22.8C180.73,186.6,180.72,183.9,183.59,182.23Z"/><path class="cls-64" d="M152.14,200.4h0a21.71,21.71,0,0,0,10.55-2.52c2.66-1.55,4.18-3.65,4.18-5.78s-1.55-4.26-4.25-5.81a23.32,23.32,0,0,0-21.13,0c-2.66,1.54-4.18,3.65-4.18,5.77s1.55,4.26,4.25,5.81A21.75,21.75,0,0,0,152.14,200.4Z"/><path class="cls-65" d="M133.83,205h0a6.15,6.15,0,0,0,3-.72,1.73,1.73,0,0,0,0-3.3,6.65,6.65,0,0,0-6,0,2,2,0,0,0-1.19,1.64,2.07,2.07,0,0,0,1.21,1.66A6.17,6.17,0,0,0,133.83,205Z"/><path class="cls-66" d="M170.37,183.9h0a6.29,6.29,0,0,0,3-.72,1.74,1.74,0,0,0,0-3.31,6.3,6.3,0,0,0-3-.72,6.22,6.22,0,0,0-3,.72,2,2,0,0,0-1.19,1.65,2.07,2.07,0,0,0,1.21,1.66A6.4,6.4,0,0,0,170.37,183.9Z"/><polygon class="cls-67" points="203.98 278.33 151.04 247.56 121.85 264.42 174.78 295.18 203.98 278.33"/><polygon class="cls-68" points="174.78 295.18 121.85 264.42 121.91 279.12 174.84 309.88 174.78 295.18"/><polygon class="cls-69" points="203.98 278.33 174.78 295.18 174.84 309.88 204.04 293.03 203.98 278.33"/><path class="cls-70" d="M132.18,267.29l37.65,21.95a11.12,11.12,0,0,1,10,0l13.75-7.93c-2.77-1.61-2.75-4.22,0-5.82l-37.65-22a11.1,11.1,0,0,1-10,0l-13.75,7.94C135,263.08,135,265.69,132.18,267.29Z"/><path class="cls-71" d="M180.11,283.41h0a6,6,0,0,0,2.91-.7,1.67,1.67,0,0,0,0-3.17,5.91,5.91,0,0,0-2.89-.7,6,6,0,0,0-2.9.7,2,2,0,0,0-1.17,1.59,2,2,0,0,0,1.15,1.58A5.94,5.94,0,0,0,180.11,283.41Z"/><path class="cls-72" d="M144.94,263.08h0a6,6,0,0,0,2.9-.69,2,2,0,0,0,1.17-1.6,2,2,0,0,0-1.15-1.58,6.42,6.42,0,0,0-5.79,0,2,2,0,0,0-1.17,1.6,2,2,0,0,0,1.15,1.58A5.94,5.94,0,0,0,144.94,263.08Z"/><path class="cls-73" d="M162,279.12h0a21,21,0,0,0,10.17-2.43c2.56-1.49,4-3.52,4-5.57s-1.5-4.1-4.1-5.6a22.46,22.46,0,0,0-20.36,0c-2.57,1.49-4,3.51-4,5.56s1.5,4.1,4.09,5.6A21,21,0,0,0,162,279.12Z"/><polygon class="cls-74" points="203.95 262.27 151.01 231.5 121.82 248.36 174.75 279.12 203.95 262.27"/><polygon class="cls-75" points="174.75 279.12 121.82 248.36 121.88 263.06 174.81 293.82 174.75 279.12"/><polygon class="cls-76" points="203.95 262.27 174.75 279.12 174.81 293.82 204.01 276.97 203.95 262.27"/><path class="cls-70" d="M132.15,251.23l37.65,22a11.1,11.1,0,0,1,10,0l13.76-7.94c-2.77-1.6-2.75-4.21,0-5.81l-37.65-22a11.1,11.1,0,0,1-10,0l-13.75,7.93C135,247,134.94,249.63,132.15,251.23Z"/><path class="cls-77" d="M180.08,267.35h0a6,6,0,0,0,2.91-.7,1.67,1.67,0,0,0,0-3.18,5.91,5.91,0,0,0-2.89-.69,6,6,0,0,0-2.9.69,2,2,0,0,0-1.17,1.6,2,2,0,0,0,1.15,1.58A5.94,5.94,0,0,0,180.08,267.35Z"/><path class="cls-78" d="M144.91,247h0a6,6,0,0,0,2.9-.69,2,2,0,0,0,1.17-1.6,2,2,0,0,0-1.15-1.58,6.42,6.42,0,0,0-5.79,0,2,2,0,0,0-1.17,1.6,2,2,0,0,0,1.15,1.58A5.94,5.94,0,0,0,144.91,247Z"/><path class="cls-79" d="M162,263.06h0a20.84,20.84,0,0,0,10.17-2.44c2.56-1.48,4-3.51,4-5.56s-1.5-4.1-4.1-5.6a22.48,22.48,0,0,0-20.37,0c-2.56,1.48-4,3.51-4,5.56s1.49,4.1,4.09,5.6A21,21,0,0,0,162,263.06Z"/><path class="cls-12" d="M216.3,336.31c2-.23,2.16-3.91,1.17-4.84-2.5-2.35-6-.41-7.89-.71s-5.4,1.49-4.38,2.5,5.7,1.33,7.27,1.8S214.26,336.55,216.3,336.31Z"/><path class="cls-80" d="M219.86,316.07c3.86.24,2.61-9-2.39-9,0,0-9.85,2.34-11.57,3.44s-2.5,3.43-1.09,6.56,6,13.6,6,13.6,4.67,2.81,6.7.78c0,0-2.86-10.48-3.64-12.83S216,315.83,219.86,316.07Z"/><path class="cls-12" d="M230,346.31c-1.8.24-2.27,2.5.62,3.13s5.24-3.6,5.59-5.39,1.6-1.49,2.62-3.44-2.62-3.65-2.62-3.65-4.26,1.62-5.31,3.83S231.77,346.08,230,346.31Z"/><path class="cls-13" d="M216.73,281.92s-3.32-.89-3.43-.82-2.38,2-2.38,2l1,3.61,5.54-1.25Z"/><path class="cls-36" d="M211.82,281l.44,1.65c.25,1.05.7,1.59,1.36,1.63s.95.05.93.11a8.08,8.08,0,0,0,1.62-.26c.74-.19,1.23-.33,1.48-.41s.37-.59.69-1.07a9.07,9.07,0,0,0,.76-1.16,10.81,10.81,0,0,0,.87-3.39,8.09,8.09,0,0,0-.29-3.48,3.29,3.29,0,0,0-.41-1,5.28,5.28,0,0,0-3.71-2.67,6.2,6.2,0,0,0-5,.73,5,5,0,0,0-1.59,2c.25.74.67,1.12,1.24,1.16s.85.22.79.55a7.11,7.11,0,0,1-1.33,1.89,21.67,21.67,0,0,0,.23,2.29l.66,0c0-.43.08-1,.12-1.63.27-.71.65-.89,1.13-.54a1.66,1.66,0,0,1,.72,1,3.51,3.51,0,0,1-.14,1.25A4.07,4.07,0,0,1,211.82,281Z"/><path class="cls-13" d="M208.8,281.85a5.05,5.05,0,0,0,.93,2.78,1.56,1.56,0,0,0,1.13.38l.35,0,.15-.35a1.25,1.25,0,0,1,.41-.63,7.3,7.3,0,0,1,.46-1.31.09.09,0,0,1,0-.06l-.44-1.65a4.07,4.07,0,0,0,.58-1.36,3.51,3.51,0,0,0,.14-1.25,1.66,1.66,0,0,0-.72-1c-.48-.35-.86-.17-1.13.54,0,.66-.08,1.2-.12,1.63l-.66,0a21.67,21.67,0,0,1-.23-2.29,7.11,7.11,0,0,0,1.33-1.89c.06-.33-.21-.51-.79-.55s-1-.42-1.24-1.16a5.56,5.56,0,0,0-.52,2.84,4.33,4.33,0,0,1,0,2.29A4.88,4.88,0,0,0,208.8,281.85Z"/><path class="cls-81" d="M217.16,307.71s4.21,18.29,5.31,21.73S231.06,341,231.06,341c2.5,0,5.63-3.28,5.63-3.28L228.88,326c-.16-3.91,0-16.26,0-16.26Z"/><path class="cls-13" d="M205.32,288.65a40.26,40.26,0,0,0,5.58,3.45l1.27-5.59-2.86-.52s-4.93-5.81-6.64-7.91c0,0-1-3.95-3.23-3.77s-2.45,3.68.86,5.92C200.3,280.23,203.61,287.21,205.32,288.65Z"/><path class="cls-13" d="M220.68,292.43c1.38-4.65-9.34-6.69-9.34-6.69a7.37,7.37,0,0,0-1.29,2.69,10,10,0,0,0-.44,3.8S219.3,297.08,220.68,292.43Z"/><path class="cls-82" d="M229.07,309.73s-2.57-16.37-5.56-20.64c-2.3-3.3-10.95-7.36-14.53.71l3.6,18.53S222.35,312.78,229.07,309.73Z"/><path class="cls-13" d="M201,294.71a43.89,43.89,0,0,0,7.06.78l-1.36-6.07-3,.83s-7.53-3.38-10.17-4.65c0,0-2.81-3.41-4.93-2.19s-.67,4.75,3.61,5.4C192.12,288.81,198.6,294.1,201,294.71Z"/><path class="cls-83" d="M217.73,291.26c-.81-5.19-12.25-2.19-12.25-2.19a7.88,7.88,0,0,0,0,3.22,10.78,10.78,0,0,0,1.35,3.93S218.55,296.46,217.73,291.26Z"/><path class="cls-84" d="M47.08,203.16l-14.52,8.37c-.05,0-.09,0-.09-.07V179a.23.23,0,0,1,.09-.19l14.52-8.38c.05,0,.09,0,.09.08V203A.26.26,0,0,1,47.08,203.16Zm19.7-11.51V146c0-.07,0-.11-.09-.08l-14.51,8.38a.23.23,0,0,0-.1.19v45.63c0,.07,0,.1.1.07l14.51-8.38A.23.23,0,0,0,66.78,191.65ZM86.4,180.32V140.06c0-.08-.05-.11-.1-.08l-14.51,8.38a.23.23,0,0,0-.1.19v40.27c0,.07,0,.1.1.07l14.51-8.38A.24.24,0,0,0,86.4,180.32ZM106,169V107.82c0-.08-.05-.11-.1-.08L91.4,116.12a.23.23,0,0,0-.1.19v61.18c0,.08,0,.11.1.08l14.51-8.38A.26.26,0,0,0,106,169Zm19.61-11.32V103c0-.07-.05-.1-.1-.07L111,111.34a.21.21,0,0,0-.1.18v54.65c0,.07,0,.11.1.08l14.51-8.38A.26.26,0,0,0,125.62,157.68Zm19.61-11.32V63.21c0-.07,0-.11-.1-.08l-14.51,8.38a.23.23,0,0,0-.1.19v83.15c0,.07,0,.1.1.07l14.51-8.38A.24.24,0,0,0,145.23,146.36Z"/><path class="cls-85" d="M137.87,72.55,129.29,82.9l3.23-.92L118,111.43l-19.19,4.68a1.17,1.17,0,0,0-.64.55l-19.34,31.8-19.27,5.86a1,1,0,0,0-.48.36L39.49,179.21a1.62,1.62,0,0,0-.33,1.5.43.43,0,0,0,.66.16,1,1,0,0,0,.33-.3l19.38-24.24,19.36-5.88a1.21,1.21,0,0,0,.61-.55l19.33-31.77,19.25-4.7a1.22,1.22,0,0,0,.72-.7l14.8-30,1,3.63Z"/><path class="cls-86" d="M36.52,199.63,22,208c-.06,0-.1,0-.1-.08V175.51a.24.24,0,0,1,.1-.19L36.52,167s.1,0,.1.07v32.42A.26.26,0,0,1,36.52,199.63Zm19.71-11.51V142.49c0-.07,0-.1-.1-.07L41.62,150.8a.21.21,0,0,0-.1.18v45.63c0,.07,0,.11.1.08l14.51-8.38A.26.26,0,0,0,56.23,188.12ZM75.84,176.8V136.53c0-.07,0-.1-.1-.07l-14.51,8.38a.21.21,0,0,0-.1.18v40.27c0,.07,0,.11.1.07L75.74,177A.27.27,0,0,0,75.84,176.8Zm19.61-11.32V104.29c0-.07,0-.1-.1-.07L80.84,112.6a.24.24,0,0,0-.1.18V174c0,.07.05.1.1.07l14.51-8.38A.21.21,0,0,0,95.45,165.48Zm19.61-11.33V99.51c0-.08,0-.11-.1-.08l-14.51,8.38a.24.24,0,0,0-.1.19v54.65c0,.07.05.1.1.07L115,154.34A.21.21,0,0,0,115.06,154.15Zm19.61-11.32V59.68c0-.07,0-.1-.1-.07L120.06,68a.24.24,0,0,0-.1.18v83.15c0,.08.05.11.1.08L134.57,143A.23.23,0,0,0,134.67,142.83Z"/><path class="cls-87" d="M127.32,69l-8.58,10.34,3.22-.91-14.5,29.44-19.19,4.68a1.17,1.17,0,0,0-.63.56L68.29,144.93,49,150.79a1.1,1.1,0,0,0-.48.36L28.93,175.68a1.6,1.6,0,0,0-.32,1.51.42.42,0,0,0,.65.15,1.12,1.12,0,0,0,.34-.29L49,152.81l19.36-5.89a1.16,1.16,0,0,0,.6-.54L88.27,114.6l19.26-4.7a1.25,1.25,0,0,0,.72-.7l14.79-30,1,3.63Z"/><path class="cls-38" d="M319.2,211.23l.22.11.45.22.27.12.42.19.29.12.29.12.09,0,.95.34.15,0,.85.26.14,0,.17,0,.54.15.33.08.6.14.23.05h.06l.56.1.3.06.73.12.13,0h0l.85.11h.2l.67.07h0l.3,0,.56,0h.35l.52,0h2.12l.6,0,.37,0,.57-.05.21,0h.14l.89-.11.15,0c.34,0,.67-.1,1-.16h.1l.26-.06.47-.09.38-.08.46-.11.38-.09.44-.12.37-.11.44-.13.19-.06.14,0,.78-.27.16-.06c.3-.11.6-.24.89-.36l.23-.11.66-.31.25-.12c.28-.14.55-.29.82-.45l.22-.13.2-.12.32-.21.29-.19.3-.22.27-.19.28-.23.25-.2.26-.23.1-.09.2-.19.08-.07.37-.39.08-.09.3-.35.06-.07,0,0,.09-.12.25-.35a2.14,2.14,0,0,0,.13-.19l.19-.32.06-.09a.83.83,0,0,1,.07-.13l.13-.27a2.26,2.26,0,0,0,.11-.22c0-.09.08-.19.11-.28l.06-.12,0-.11.09-.26c0-.08,0-.16.07-.23l.06-.27s0-.09,0-.14a.28.28,0,0,1,0-.09,2.51,2.51,0,0,0,0-.27l0-.24a2.45,2.45,0,0,0,0-.27s0-.1,0-.16,0-.1,0-.15v-6.52c0,.11,0,.21,0,.32a2.45,2.45,0,0,1,0,.27l0,.23a2.51,2.51,0,0,1,0,.27c0,.08,0,.16-.05.24l-.06.26a2.17,2.17,0,0,0-.07.24l-.09.26-.09.23c0,.09-.07.18-.11.27l-.11.23c0,.09-.09.18-.14.27l-.12.22-.19.31-.13.2-.25.34-.12.17-.07.07c-.09.12-.19.23-.29.34l-.08.1c-.12.13-.24.26-.38.39l-.07.07-.3.28-.26.23-.25.2-.28.22-.27.2-.3.22-.29.19-.32.21-.42.25c-.27.16-.54.3-.82.45l-.25.12-.66.31-.23.1c-.29.13-.59.25-.9.37l-.16.06-.78.27-.32.11-.44.13-.37.11-.45.11-.37.1-.46.11-.38.08-.47.09-.36.07-1,.16-.14,0-.89.11-.35,0-.57,0-.37,0-.6,0-.34,0h-1.78l-.52,0h-.36l-.55,0-.32,0-.66-.07-.2,0-.86-.11-.14,0-.72-.11-.31-.06-.55-.1-.29-.07-.6-.13-.33-.09-.55-.14-.3-.09-.85-.26-.15-.05c-.32-.11-.64-.22-.95-.35l-.38-.15-.29-.12-.42-.19-.27-.12-.45-.22-.22-.12-.65-.35c-3.54-2-5.3-4.72-5.29-7.4l0,6.51c0,2.68,1.76,5.36,5.29,7.4Z"/><path class="cls-39" d="M343.94,204.36c7-4.06,6.95-10.64-.08-14.7s-18.39-4-25.37,0-6.95,10.64.08,14.7S337,208.42,343.94,204.36Z"/><path class="cls-40" d="M331.27,205h0a23.2,23.2,0,0,0,11.33-2.69c2.48-1.43,3.89-3.26,3.89-5s-1.45-3.62-4-5.07a25.33,25.33,0,0,0-22.7,0c-2.48,1.44-3.89,3.27-3.89,5s1.45,3.62,4,5.07A23.45,23.45,0,0,0,331.27,205Z"/><path class="cls-41" d="M319.83,192.23a25.33,25.33,0,0,1,22.7,0c2.33,1.34,3.73,3,3.93,4.67a2.69,2.69,0,0,0,0-.4c0-1.77-1.45-3.62-4-5.07a25.33,25.33,0,0,0-22.7,0c-2.48,1.44-3.89,3.27-3.89,5a2.8,2.8,0,0,0,0,.4C316.16,195.22,317.54,193.56,319.83,192.23Z"/><path class="cls-42" d="M343.94,205.2c3.48-2.12,5.21-4.89,5.21-7.66v-.06a1.15,1.15,0,0,0,0-.19v.09a2.45,2.45,0,0,1,0,.27l0,.23a2.51,2.51,0,0,1,0,.27c0,.08,0,.16-.05.24l-.06.26a2.17,2.17,0,0,0-.07.24l-.09.26-.09.23c0,.09-.07.18-.11.27l-.11.23c0,.09-.09.18-.14.27l-.12.22-.19.31-.13.2-.25.34-.12.17-.07.07c-.09.12-.19.23-.29.34l-.08.1c-.12.13-.24.26-.38.39l-.07.07-.3.28-.26.23-.25.2-.28.22-.27.2-.3.22-.29.19-.32.21-.42.25c-.27.16-.54.3-.82.45l-.25.12-.66.31-.23.1c-.29.13-.59.25-.9.37l-.16.06-.78.27-.32.11-.44.13-.37.11-.45.11-.37.1-.46.11-.38.08-.47.09-.36.07-1,.16-.14,0-.89.11-.35,0-.57,0-.37,0-.6,0-.34,0h-1.78l-.52,0h-.36l-.55,0-.32,0-.66-.07-.2,0-.86-.11-.14,0-.72-.11-.31-.06-.55-.1-.29-.07-.6-.13-.33-.09-.55-.14-.3-.09-.85-.26-.15-.05c-.32-.11-.64-.22-.95-.35l-.38-.15-.29-.12-.42-.19-.27-.12-.45-.22-.22-.12-.65-.35c-3.42-2-5.18-4.55-5.28-7.15-.11,2.88,1.65,5.79,5.28,8C325.6,209.45,337,209.45,343.94,205.2Z"/><path class="cls-38" d="M257,199.62l.22.11.45.23.27.12.42.19.3.12.29.12.09,0,.94.35.16.05.84.26.14,0,.17,0,.54.14.34.09.6.13.22,0h.07l.55.11.3.06.74.11.12,0h0l.86.11.19,0,.67.07h0l.3,0,.55,0h.36l.51,0h2.12l.61,0,.36,0,.58,0,.2,0,.14,0,.89-.1.15,0,1-.16.1,0,.27-.05.47-.09.38-.09.45-.1.38-.1c.15,0,.3-.07.45-.12l.37-.1.43-.14.2-.05L278,201l.78-.27.16-.06.89-.37.23-.1.67-.31.24-.12.83-.45.21-.13.2-.13.33-.2.28-.2.31-.21.26-.2.28-.22.25-.2.26-.23.11-.09.2-.2a.46.46,0,0,0,.07-.07,4.59,4.59,0,0,0,.37-.39l.09-.09.29-.34.06-.08,0,0,.09-.13.26-.34.12-.2a3.45,3.45,0,0,0,.2-.32.22.22,0,0,0,.05-.08l.07-.13.14-.27c0-.08.07-.15.1-.23l.12-.27a.61.61,0,0,1,.05-.12.36.36,0,0,1,0-.11,2.58,2.58,0,0,0,.08-.26,2.17,2.17,0,0,0,.07-.24c0-.09.05-.17.07-.26l0-.14a.34.34,0,0,0,0-.1c0-.09,0-.18,0-.27l0-.23c0-.09,0-.18,0-.27s0-.11,0-.16V192l0-6.51c0,.1,0,.21,0,.31s0,.18,0,.27l0,.24c0,.09,0,.18-.05.27a2,2,0,0,1-.05.24l-.06.26c0,.08-.05.16-.07.24s-.05.17-.09.26-.05.15-.08.23l-.12.27c0,.07-.07.15-.1.23s-.09.18-.14.26l-.12.22-.2.32a2.14,2.14,0,0,1-.13.19l-.25.35-.12.16-.06.08-.29.34-.09.09-.37.39a.46.46,0,0,1-.07.07l-.31.29-.26.22-.25.21-.28.22-.26.2-.31.21-.28.2-.33.2-.42.26c-.26.15-.54.3-.82.44l-.25.12c-.21.11-.43.22-.66.32l-.23.1c-.29.13-.59.25-.89.36a1,1,0,0,1-.16.06l-.78.28-.33.1-.43.13-.38.11-.44.12-.38.1-.46.1-.38.08-.46.1-.37.06-1,.17h-.15l-.89.11-.34,0-.58.05-.36,0-.61,0h-2.12l-.52,0-.35,0-.56,0-.31,0-.67-.06-.19,0-.86-.11-.14,0c-.25,0-.49-.07-.73-.12l-.3-.05-.56-.11-.28-.06-.61-.14-.33-.08-.54-.14-.31-.09c-.28-.09-.57-.17-.85-.27l-.15,0-.94-.35-.38-.15-.3-.13-.42-.18-.27-.13-.45-.22-.22-.11c-.22-.11-.43-.23-.64-.35-3.54-2-5.31-4.73-5.3-7.4l0,6.51c0,2.68,1.76,5.36,5.3,7.4Z"/><path class="cls-39" d="M281.76,192.76c7-4.06,6.95-10.64-.08-14.7s-18.38-4.06-25.37,0-6.94,10.64.09,14.7S274.78,196.81,281.76,192.76Z"/><path class="cls-40" d="M269.1,193.4h0a23.37,23.37,0,0,0,11.33-2.68c2.47-1.44,3.89-3.27,3.88-5s-1.44-3.61-4-5.07A23.56,23.56,0,0,0,269,178a23.2,23.2,0,0,0-11.33,2.68c-2.47,1.44-3.89,3.26-3.89,5s1.45,3.62,4,5.08A23.53,23.53,0,0,0,269.1,193.4Z"/><path class="cls-41" d="M257.65,180.63A23.2,23.2,0,0,1,269,178a23.56,23.56,0,0,1,11.37,2.68c2.33,1.35,3.74,3,3.94,4.68a2.82,2.82,0,0,0,0-.41c0-1.77-1.44-3.61-4-5.07A23.56,23.56,0,0,0,269,177.15a23.2,23.2,0,0,0-11.33,2.68c-2.47,1.44-3.89,3.27-3.89,5a2.56,2.56,0,0,0,0,.39C254,183.62,255.37,182,257.65,180.63Z"/><polygon class="cls-38" points="275.49 181.58 275.48 182.77 276.4 182.23 276.4 181.04 275.49 181.58"/><path class="cls-38" d="M271,184v0l0,0,0,0s0,0,0,0l.08-.09,0,0,.15-.12h0l.17-.11.1-.06.22-.12.07,0,.14-.05.08,0,.11,0,.11,0h.17l.14,0h0l.13,0h0l.13.06a.7.7,0,0,1,.18.14.24.24,0,0,1,.05.14h0V182.4q0-.14-.24-.27a.27.27,0,0,0-.12-.06h0l-.06,0-.06,0h-.44l-.12,0h0l0,0-.15,0-.07,0-.22.12-.07,0,0,0-.17.11,0,0-.14.12h0l0,0-.08.08v0h0l0,0,0,0h0l0,0s0,0,0,0v0h0v0h0v1.1Z"/><path class="cls-38" d="M275.56,185.79h0l.22-.16.05,0,.19-.16h0l0,0,.14-.15s0,0,0,0l0,0,0-.05.08-.12,0,0h0l0-.06a.36.36,0,0,0,0-.09.05.05,0,0,0,0,0,.64.64,0,0,0,0-.07.19.19,0,0,0,0-.07,0,0,0,0,0,0,0,.78.78,0,0,0,0-.14v-1.26a.2.2,0,0,1,0,.07,1.11,1.11,0,0,1,0,.17l0,.08,0,.1-.05.09a.31.31,0,0,1,0,.1l-.08.12a.86.86,0,0,0-.07.1l-.05,0a1.07,1.07,0,0,1-.14.16l0,0-.2.16-.05,0-.22.16h0l-.3.18-.23.13-.34.17v1.19l.57-.3.09-.05Z"/><polygon class="cls-41" points="271.82 183.42 271.82 184.61 274.7 186.27 274.7 185.08 271.82 183.42"/><g class="cls-88"><path class="cls-41" d="M267.56,185.44v1.19a2,2,0,0,0-.16-.66,11.23,11.23,0,0,1-.59-1.74,1.36,1.36,0,0,1,0-.2v-1.19a1.27,1.27,0,0,0,0,.2,10.88,10.88,0,0,0,.59,1.74A1.74,1.74,0,0,1,267.56,185.44Z"/></g><path class="cls-38" d="M264.68,187.61l.05-.05.11-.09h0l.14-.1.06,0,.16-.1.06,0,.26-.16.15-.09.08-.05.26-.15.71-.41v-1.19l-.7.41-.27.15-.08.05-.14.09h0l-.26.16,0,0-.17.1-.05,0-.14.1h0l-.11.09h0l0,0v0l0,0h0a0,0,0,0,0,0,0,0,0,0,0,0,0,0h0v1.19a.25.25,0,0,1,0-.07h0Z"/><path class="cls-41" d="M262.6,188.72v-1.19a2.36,2.36,0,0,1-1.14-1.68v-.1h0v1.19a.34.34,0,0,0,0,.1A2.37,2.37,0,0,0,262.6,188.72Z"/><polygon class="cls-41" points="262.82 188.94 262.82 190.13 263.89 189.5 263.89 188.31 262.82 188.94"/><polygon class="cls-38" points="261.49 188.17 261.49 189.36 262.82 190.13 262.82 188.94 261.49 188.17"/><path class="cls-39" d="M266,185.54l.7-.41-2.88-1.66-.56.32c-1.28.74-1.88,1.43-1.82,2.06a2.36,2.36,0,0,0,1.14,1.68l-1.12.64,1.33.77,1.08-.63a7.2,7.2,0,0,0,3.3.66,6.76,6.76,0,0,0,3.14-1,4,4,0,0,0,1.32-1.08,1.4,1.4,0,0,0,.32-1,6,6,0,0,0-.48-1.45A5.37,5.37,0,0,1,271,183c0-.2.22-.44.67-.7a2,2,0,0,1,.74-.28.85.85,0,0,1,.59.12c.22.12.29.25.2.38a3.43,3.43,0,0,1-.89.63l-.48.28,2.88,1.66.57-.3q1.28-.74,1.32-1.53c0-.54-.33-1.1-1.1-1.67l.91-.53-1.32-.77-.92.53a7.41,7.41,0,0,0-3.09-.74,5.37,5.37,0,0,0-2.75.75,3.35,3.35,0,0,0-1.24,1.12,1.65,1.65,0,0,0-.27,1.1,10.88,10.88,0,0,0,.59,1.74c.2.49.21.85,0,1.06a5.4,5.4,0,0,1-1.24.88,1.68,1.68,0,0,1-.72.25,1,1,0,0,1-.63-.14c-.23-.13-.28-.26-.15-.41A8.62,8.62,0,0,1,266,185.54Z"/><path class="cls-38" d="M264.43,189.72l.24.08.17,0,.13,0,.07,0,.38.09.09,0h0l.3.05.12,0h0l.16,0,.23,0h.16l.22,0h.46l.32,0h0a3.62,3.62,0,0,0,.46-.06h0l.11,0,.29-.06.16,0,.25-.07,0,0a1.27,1.27,0,0,0,.18-.06l.16-.06a2.18,2.18,0,0,0,.23-.09l.15-.06.25-.12.12-.06.38-.21.13-.07,0,0,.14-.09.09-.06.13-.09.08,0,.13-.11.06,0,.16-.14h0l0,0,.12-.12a.1.1,0,0,0,0-.05l.08-.09,0,0,.07-.09a1.51,1.51,0,0,0,.12-.2v0a1.28,1.28,0,0,0,.11-.24h0a.76.76,0,0,0,.06-.2h0c0-.06,0-.11,0-.17v-1.21a1.37,1.37,0,0,1,0,.19h0l-.06.21-.12.24c0,.06-.08.13-.13.21l-.08.11-.08.09s0,0-.05,0l-.12.13,0,0-.17.14-.05,0-.14.11-.07,0-.13.09-.1.06-.13.09-.18.1c-.12.08-.25.14-.37.21l-.13.06-.25.12-.15.06-.23.1-.16,0-.22.08-.25.07-.16,0a1.36,1.36,0,0,1-.29.06l-.12,0a3.62,3.62,0,0,1-.46.06,2.07,2.07,0,0,1-.35,0h-.83l-.24,0-.16,0-.13,0-.3,0-.11,0-.39-.09-.2-.06-.17,0-.24-.08-.16-.07a2.39,2.39,0,0,1-.37-.15h0v1.19l.32.13.05,0Z"/><path class="cls-42" d="M281.76,193.59c3.48-2.11,5.22-4.88,5.22-7.65v-.07c0-.06,0-.12,0-.19a.28.28,0,0,1,0,.09c0,.09,0,.18,0,.27l0,.24c0,.09,0,.18-.05.27a2,2,0,0,1-.05.24l-.06.26c0,.08-.05.16-.07.24s-.05.17-.09.26-.05.15-.08.23l-.12.27c0,.07-.07.15-.1.23s-.09.18-.14.26l-.12.22-.2.32a2.14,2.14,0,0,1-.13.19l-.25.35-.12.16-.06.08-.29.34-.09.09-.37.39a.46.46,0,0,1-.07.07l-.31.29-.26.22-.25.21-.28.22-.26.2-.31.21-.28.2-.33.2-.42.26c-.26.15-.54.3-.82.44l-.25.12c-.21.11-.43.22-.66.32l-.23.1c-.29.13-.59.25-.89.36a1,1,0,0,1-.16.06l-.78.28-.33.1-.43.13-.38.11-.44.12-.38.1-.46.1-.38.08-.46.1-.37.06-1,.17h-.15l-.89.11-.34,0-.58.05-.36,0-.61,0h-2.12l-.52,0-.35,0-.56,0-.31,0-.67-.06-.19,0-.86-.11-.14,0c-.25,0-.49-.07-.73-.12l-.3-.05-.56-.11-.28-.06-.61-.14-.33-.08-.54-.14-.31-.09c-.28-.09-.57-.17-.85-.27l-.15,0-.94-.35-.38-.15-.3-.13-.42-.18-.27-.13-.45-.22-.22-.11c-.22-.11-.43-.23-.64-.35-3.43-2-5.19-4.56-5.29-7.15-.11,2.88,1.65,5.78,5.29,8C263.42,197.84,274.78,197.84,281.76,193.59Z"/><path class="cls-38" d="M257,192.87a1.51,1.51,0,0,1,.22.11l.45.22.27.12.42.19.3.12.29.12.09,0c.31.13.62.24.94.35l.16.05.84.26.14.05.17,0,.54.14.34.09.6.13.22.06h.07l.55.1.3.06.74.11.12,0h0l.86.1.19,0,.67.07h0l.3,0,.55,0h.36l.51,0h1.88l.24,0c.21,0,.41,0,.61,0l.36,0,.58-.05.2,0h.14l.89-.11.15,0,1-.16.1,0,.27-.05.47-.09.38-.08.45-.11.38-.09.45-.12.37-.11.43-.13.2-.06.13-.05.78-.27.16-.06.89-.36.23-.11.67-.31.24-.12c.28-.15.56-.29.83-.45l.21-.13.2-.12.33-.21.28-.19.31-.22.26-.2.28-.22a2.43,2.43,0,0,0,.25-.2l.26-.23.11-.09.2-.19a.46.46,0,0,1,.07-.07l.37-.39.09-.1c.1-.11.2-.22.29-.34l.06-.07,0,0,.09-.13.26-.34.12-.2.2-.31a.41.41,0,0,0,.05-.09.83.83,0,0,0,.07-.13l.14-.27c0-.07.07-.15.1-.23l.12-.27a.61.61,0,0,1,.05-.12.49.49,0,0,1,0-.11,2.58,2.58,0,0,0,.08-.26,2.17,2.17,0,0,0,.07-.24c0-.08.05-.17.07-.26l0-.14a.31.31,0,0,0,0-.1c0-.08,0-.17,0-.26l0-.24c0-.09,0-.18,0-.27s0-.11,0-.16v-.16l0-6.51c0,.11,0,.21,0,.32s0,.18,0,.27l0,.23c0,.09,0,.18-.05.27a2,2,0,0,1-.05.24l-.06.26c0,.08-.05.16-.07.24s-.05.17-.09.26-.05.15-.08.23l-.12.27c0,.08-.07.15-.1.23l-.14.27L286,182c-.07.11-.13.22-.2.32a1.27,1.27,0,0,1-.13.19c-.08.12-.16.24-.25.35l-.12.16-.06.08-.29.34-.09.09a4.59,4.59,0,0,1-.37.39.46.46,0,0,1-.07.07l-.31.29-.26.22-.25.21-.28.22-.26.2-.31.21-.28.2-.33.2-.42.26-.82.45-.25.12-.66.31-.23.1-.89.37-.16.06-.78.27-.33.1-.43.14-.38.1-.44.12-.38.1-.46.1-.38.09-.46.09-.37.07-1,.16-.15,0-.89.1-.34,0-.58,0-.36,0-.61,0h-2.12l-.52,0-.35,0-.56,0-.31,0-.67-.07-.19,0-.86-.11-.14,0-.73-.11-.3-.06-.56-.11-.28-.06-.61-.13-.33-.09-.54-.14-.31-.09-.85-.26-.15,0-.94-.35-.38-.15-.3-.12-.42-.19-.27-.12-.45-.23-.22-.11c-.22-.11-.43-.23-.64-.35-3.54-2-5.31-4.73-5.3-7.4l0,6.51c0,2.68,1.76,5.36,5.3,7.4Z"/><path class="cls-39" d="M281.76,186c7-4.06,6.95-10.64-.08-14.7s-18.38-4.06-25.37,0-6.94,10.64.09,14.7S274.78,190.06,281.76,186Z"/><path class="cls-40" d="M269.1,186.64h0A23.26,23.26,0,0,0,280.43,184c2.47-1.44,3.89-3.26,3.88-5s-1.44-3.61-4-5.06a25.33,25.33,0,0,0-22.7,0c-2.47,1.44-3.89,3.27-3.89,5s1.45,3.61,4,5.07A23.53,23.53,0,0,0,269.1,186.64Z"/><path class="cls-41" d="M257.65,173.87a25.33,25.33,0,0,1,22.7,0c2.33,1.34,3.74,3,3.94,4.67a2.75,2.75,0,0,0,0-.4c0-1.77-1.44-3.62-4-5.07a25.33,25.33,0,0,0-22.7,0c-2.47,1.44-3.89,3.27-3.89,5a2.56,2.56,0,0,0,0,.39C254,176.86,255.37,175.2,257.65,173.87Z"/><path class="cls-42" d="M281.76,186.84c3.48-2.12,5.22-4.89,5.22-7.66v-.06c0-.07,0-.13,0-.2a.34.34,0,0,1,0,.1c0,.09,0,.18,0,.27l0,.23c0,.09,0,.18-.05.27a2,2,0,0,1-.05.24l-.06.26c0,.08-.05.16-.07.24s-.05.17-.09.26-.05.15-.08.23l-.12.27c0,.08-.07.15-.1.23l-.14.27L286,182c-.07.11-.13.22-.2.32a1.27,1.27,0,0,1-.13.19c-.08.12-.16.24-.25.35l-.12.16-.06.08-.29.34-.09.09a4.59,4.59,0,0,1-.37.39.46.46,0,0,1-.07.07l-.31.29-.26.22-.25.21-.28.22-.26.2-.31.21-.28.2-.33.2-.42.26-.82.45-.25.12-.66.31-.23.1-.89.37-.16.06-.78.27-.33.1-.43.14-.38.1-.44.12-.38.1-.46.1-.38.09-.46.09-.37.07-1,.16-.15,0-.89.1-.34,0-.58,0-.36,0-.61,0h-2.12l-.52,0-.35,0-.56,0-.31,0-.67-.07-.19,0-.86-.11-.14,0-.73-.11-.3-.06-.56-.11-.28-.06-.61-.13-.33-.09-.54-.14-.31-.09-.85-.26-.15,0-.94-.35-.38-.15-.3-.12-.42-.19-.27-.12-.45-.23-.22-.11c-.22-.11-.43-.23-.64-.35-3.43-2-5.19-4.56-5.29-7.15-.11,2.88,1.65,5.79,5.29,8C263.42,191.08,274.78,191.08,281.76,186.84Z"/><path class="cls-89" d="M235.57,214.3c0-62.57-48-83.56-96-83.56"/><path class="cls-38" d="M265,182.23l.08,0,.15.08.09,0,.14.06.1,0,.1,0,0,0,.31.11.06,0,.28.09h0l.05,0,.19,0,.11,0,.2,0,.08,0h0l.18,0h.1l.25,0h0l.29,0h.07l.22,0h1.62l.2,0h.11l.3,0h.05l.34-.05h0l.09,0,.16,0,.13,0,.15,0,.13,0,.15,0,.12,0,.15,0,.06,0,.05,0,.26-.09.05,0,.3-.12.08,0,.22-.1.09,0,.27-.15.08-.05.06,0a.41.41,0,0,0,.11-.07l.1-.06.1-.07.09-.07.09-.07.09-.07.08-.08,0,0,.07-.06,0,0,.13-.13,0,0,.1-.11,0,0h0l0,0,.09-.12a.43.43,0,0,0,0-.07l.07-.1,0,0s0,0,0-.05l0-.09a.25.25,0,0,0,0-.07l0-.09a.05.05,0,0,1,0,0v0l0-.09s0-.05,0-.08,0-.06,0-.09a.06.06,0,0,0,0,0v0s0-.07,0-.1a.17.17,0,0,0,0-.07.31.31,0,0,0,0-.1v-2.29a.41.41,0,0,1,0,.11v.09s0,.05,0,.08,0,.06,0,.09,0,0,0,.08a.29.29,0,0,0,0,.09l0,.08,0,.08a.26.26,0,0,1,0,.08l0,.09,0,.08a.41.41,0,0,1,0,.09.25.25,0,0,1,0,.07l-.06.11,0,.06-.09.12,0,0,0,0a.52.52,0,0,1-.1.11l0,0-.12.13,0,0-.1.1-.09.07-.08.07-.09.07-.09.07-.11.07-.09.07-.11.07-.14.08-.28.15-.08,0-.22.11-.08,0-.3.13h-.05l-.27.1-.1,0-.15,0-.13,0-.15,0-.12,0-.16,0-.12,0-.16,0-.12,0-.34.06h-.05l-.3,0h-1.93l-.23,0h-.06l-.29,0h-.05l-.24,0-.1,0-.19,0-.09,0-.21,0-.11,0-.18-.05-.1,0-.29-.09H266l-.32-.12-.12,0-.1,0-.14-.07-.09,0-.16-.07-.07,0-.22-.12a3,3,0,0,1-1.77-2.48v2.18a3,3,0,0,0,1.78,2.49Z"/><path class="cls-39" d="M273.26,179.92c2.34-1.36,2.33-3.57,0-4.93a9.38,9.38,0,0,0-8.51,0c-2.35,1.36-2.34,3.57,0,4.93A9.41,9.41,0,0,0,273.26,179.92Z"/><path class="cls-40" d="M269,180.14h0a7.82,7.82,0,0,0,3.8-.9,2.2,2.2,0,0,0,1.31-1.69,2.26,2.26,0,0,0-1.33-1.7,8.54,8.54,0,0,0-7.63,0,2.19,2.19,0,0,0-1.3,1.68,2.24,2.24,0,0,0,1.33,1.71A7.9,7.9,0,0,0,269,180.14Z"/><path class="cls-41" d="M265.16,175.85a8.54,8.54,0,0,1,7.63,0,2.38,2.38,0,0,1,1.32,1.57s0-.09,0-.13a2.26,2.26,0,0,0-1.33-1.71,8.54,8.54,0,0,0-7.63,0,2.2,2.2,0,0,0-1.3,1.69.57.57,0,0,0,0,.13A2.33,2.33,0,0,1,265.16,175.85Z"/><path class="cls-42" d="M273.26,180.2a3.12,3.12,0,0,0,1.75-2.57v0s0,.05,0,.08,0,.06,0,.09,0,0,0,.08a.29.29,0,0,0,0,.09l0,.08,0,.08a.26.26,0,0,1,0,.08l0,.09,0,.08a.41.41,0,0,1,0,.09.25.25,0,0,1,0,.07l-.06.11,0,.06-.09.12,0,0,0,0a.52.52,0,0,1-.1.11l0,0-.12.13,0,0-.1.1-.09.07-.08.07-.09.07-.09.07-.11.07-.09.07-.11.07-.14.08-.28.15-.08,0-.22.11-.08,0-.3.13h-.05l-.27.1-.1,0-.15,0-.13,0-.15,0-.12,0-.16,0-.12,0-.16,0-.12,0-.34.06h-.05l-.3,0h-1.93l-.23,0h-.06l-.29,0h-.05l-.24,0-.1,0-.19,0-.09,0-.21,0-.11,0-.18-.05-.1,0-.29-.09H266l-.32-.12-.12,0-.1,0-.14-.07-.09,0-.16-.07-.07,0-.22-.12a3,3,0,0,1-1.77-2.4,3.09,3.09,0,0,0,1.77,2.68A9,9,0,0,0,273.26,180.2Z"/><path class="cls-38" d="M327.17,199.7l.08,0,.15.07.09,0,.14.06.1.05.09,0h0l.32.11.05,0,.29.09h.05l.05,0,.18.05.12,0,.2,0,.07,0h0l.19,0,.1,0,.25,0h0l.29,0h.07l.22,0h.11l.18,0h1.64l.3,0h.05l.34-.05h.12l.16,0,.13,0,.15,0,.13,0,.15,0,.12,0,.15,0,.06,0,.05,0,.26-.09.05,0,.3-.12.08,0,.22-.11.08,0,.28-.15.07,0,.07,0,.11-.06.1-.07.1-.07.09-.07.09-.07.08-.07.09-.08,0,0,.06-.06,0,0,.12-.13,0,0,.1-.11,0,0h0l0,0,.09-.12,0-.06a.41.41,0,0,1,.07-.11v0l0,0,0-.09,0-.08a.36.36,0,0,1,0-.09s0,0,0,0l0,0a.29.29,0,0,0,0-.09l0-.08s0,0,0-.08a.43.43,0,0,1,0-.05v0s0-.06,0-.09,0-.06,0-.08,0-.06,0-.09v-2.3s0,.07,0,.11v.09a.22.22,0,0,0,0,.08s0,.06,0,.09,0,.05,0,.08l0,.09a.31.31,0,0,1,0,.08l0,.08,0,.08a.36.36,0,0,1,0,.09l0,.08L337,196a.25.25,0,0,1,0,.07l-.06.11-.05.06-.08.12a.21.21,0,0,0,0,.06l0,0-.1.12,0,0-.12.13,0,0-.1.1-.09.07-.08.07-.1.08-.09.06-.1.07-.09.07-.11.07-.14.08a1.91,1.91,0,0,1-.28.15l-.08,0-.22.11-.08,0-.3.13-.06,0-.26.09-.11,0-.14,0-.13,0-.15,0-.12,0-.16,0-.13,0-.15,0-.12,0-.34.06h0l-.3,0h-.12l-.19,0h-1.62l-.23,0h-.06l-.29,0h-.05l-.24,0-.1,0-.19,0-.1,0-.2,0-.11,0-.18-.05-.11,0-.28-.09h-.05l-.32-.12-.13,0-.1,0-.14-.06-.09,0-.15-.07-.07,0-.22-.12a3,3,0,0,1-1.78-2.48v2.19a3,3,0,0,0,1.78,2.48Z"/><path class="cls-39" d="M335.48,197.39c2.34-1.36,2.33-3.57,0-4.93a9.41,9.41,0,0,0-8.52,0c-2.34,1.36-2.33,3.57,0,4.93A9.34,9.34,0,0,0,335.48,197.39Z"/><path class="cls-40" d="M331.23,197.61h0a7.85,7.85,0,0,0,3.8-.9,2.19,2.19,0,0,0,1.3-1.68,2.21,2.21,0,0,0-1.33-1.71,8.51,8.51,0,0,0-7.62,0,1.75,1.75,0,0,0,0,3.39A7.9,7.9,0,0,0,331.23,197.61Z"/><path class="cls-41" d="M327.38,193.32a8.51,8.51,0,0,1,7.62,0,2.35,2.35,0,0,1,1.32,1.57.57.57,0,0,0,0-.13,2.19,2.19,0,0,0-1.33-1.7,7.78,7.78,0,0,0-3.81-.91,7.86,7.86,0,0,0-3.81.9,2.2,2.2,0,0,0-1.3,1.69.57.57,0,0,0,0,.13A2.35,2.35,0,0,1,327.38,193.32Z"/><path class="cls-42" d="M335.48,197.67a3.15,3.15,0,0,0,1.75-2.57v0a.13.13,0,0,0,0-.06v.12a.22.22,0,0,0,0,.08s0,.06,0,.09,0,.05,0,.08l0,.09a.31.31,0,0,1,0,.08l0,.08,0,.08a.36.36,0,0,1,0,.09l0,.08L337,196a.25.25,0,0,1,0,.07l-.06.11-.05.06-.08.12a.21.21,0,0,0,0,.06l0,0-.1.12,0,0-.12.13,0,0-.1.1-.09.07-.08.07-.1.08-.09.06-.1.07-.09.07-.11.07-.14.08a1.91,1.91,0,0,1-.28.15l-.08,0-.22.11-.08,0-.3.13-.06,0-.26.09-.11,0-.14,0-.13,0-.15,0-.12,0-.16,0-.13,0-.15,0-.12,0-.34.06h0l-.3,0h-.12l-.19,0h-1.62l-.23,0h-.06l-.29,0h-.05l-.24,0-.1,0-.19,0-.1,0-.2,0-.11,0-.18-.05-.11,0-.28-.09h-.05l-.32-.12-.13,0-.1,0-.14-.06-.09,0-.15-.07-.07,0-.22-.12a3,3,0,0,1-1.77-2.4,3.09,3.09,0,0,0,1.77,2.68A9,9,0,0,0,335.48,197.67Z"/><path class="cls-90" d="M217.93,46.81,180,63.25a1.77,1.77,0,0,0-1.12,1.32v43.56c0,.31.22.49.57.49a2,2,0,0,0,1.13-.5l4.94-4.36,3.86.5a1.81,1.81,0,0,0,1.34-.58l3.8-3.78,3.8.49a1.78,1.78,0,0,0,1.24-.49l4.94-4.37,3.87.51a1.8,1.8,0,0,0,1.34-.59l3.8-3.78,3.8.5a1.33,1.33,0,0,0,.67-.13,2,2,0,0,0,.5-.3,1.5,1.5,0,0,0,.61-1V47.16C219,46.7,218.54,46.54,217.93,46.81ZM216.81,54l-2.23,1v1.68l2.23-1V90l-2.68-.34a1.79,1.79,0,0,0-1.34.58L209,94l-3.8-.49A1.69,1.69,0,0,0,204,94L199,98.39l-3.87-.5a1.29,1.29,0,0,0-.67.12,2.23,2.23,0,0,0-.67.46l-3.8,3.78-3.79-.49a1.7,1.7,0,0,0-1.25.49l-3.89,3.44V71.14l4.47-1.93V67.53l-4.47,1.94v-5L216.81,49v5Zm-11.17,4.84,6.7-2.9V57.6l-6.7,2.9Zm-8.93,3.87,6.7-2.9v1.67l-6.7,2.9Zm-8.94,3.87,6.7-2.9v1.67l-6.7,2.9ZM190,72.3l-4.46,1.94a1.76,1.76,0,0,0-1.12,1.32c0,.46.5.62,1.12.35L190,74a1.77,1.77,0,0,0,1.12-1.32C191.12,72.19,190.62,72,190,72.3ZM212.34,71l-5.58,2.41a1.77,1.77,0,0,0-1.12,1.33c0,.46.5.62,1.12.35l5.58-2.42a1.77,1.77,0,0,0,1.12-1.32C213.46,70.9,213,70.74,212.34,71Zm0-4.19-5.58,2.42a1.74,1.74,0,0,0-1.12,1.32c0,.46.5.62,1.12.35l5.58-2.42a1.76,1.76,0,0,0,1.12-1.32C213.46,66.71,213,66.55,212.34,66.82Zm0,8.37-5.58,2.42a1.77,1.77,0,0,0-1.12,1.32c0,.47.5.63,1.12.36l5.58-2.42a1.77,1.77,0,0,0,1.12-1.32C213.46,75.09,213,74.93,212.34,75.19Zm0,4.19-5.58,2.42a1.77,1.77,0,0,0-1.12,1.32c0,.47.5.62,1.12.36l5.58-2.42a1.77,1.77,0,0,0,1.12-1.32C213.46,79.27,213,79.12,212.34,79.38Zm0,4.19L206.76,86a1.77,1.77,0,0,0-1.12,1.32c0,.46.5.62,1.12.36l5.58-2.42a1.77,1.77,0,0,0,1.12-1.32C213.46,83.46,213,83.3,212.34,83.57ZM201.17,80,185.54,86.8a1.77,1.77,0,0,0-1.12,1.32c0,.47.5.62,1.12.36l15.63-6.77a1.77,1.77,0,0,0,1.12-1.33C202.29,79.92,201.79,79.76,201.17,80Zm0,4.19L185.54,91a1.77,1.77,0,0,0-1.12,1.32c0,.46.5.62,1.12.36l15.63-6.78a1.74,1.74,0,0,0,1.12-1.32C202.29,84.11,201.79,84,201.17,84.22Zm0-8.38-15.63,6.77a1.77,1.77,0,0,0-1.12,1.32c0,.47.5.63,1.12.36l15.63-6.77a1.77,1.77,0,0,0,1.12-1.32C202.29,75.73,201.79,75.58,201.17,75.84Zm0,12.57-15.63,6.77a1.77,1.77,0,0,0-1.12,1.32c0,.46.5.62,1.12.35l15.63-6.77a1.76,1.76,0,0,0,1.12-1.32C202.29,88.3,201.79,88.14,201.17,88.41Zm0-16.76-15.63,6.77a1.77,1.77,0,0,0-1.12,1.33c0,.46.5.62,1.12.35l15.63-6.77A1.77,1.77,0,0,0,202.29,72C202.29,71.55,201.79,71.39,201.17,71.65Z"/><path class="cls-91" d="M231.64,44.22l-38,16.44A1.77,1.77,0,0,0,192.55,62v43.56c0,.3.21.48.56.48a1.84,1.84,0,0,0,1.13-.5l4.94-4.36,3.87.5a1.8,1.8,0,0,0,1.34-.58l3.79-3.78,3.8.49a1.76,1.76,0,0,0,1.25-.49L218.17,93l3.86.5a1.81,1.81,0,0,0,1.34-.58l3.8-3.78,3.8.49a1.41,1.41,0,0,0,.67-.12,2.42,2.42,0,0,0,.5-.31,1.47,1.47,0,0,0,.62-1V44.57C232.76,44.11,232.26,44,231.64,44.22Zm-1.12,7.19-2.23,1v1.68l2.23-1V87.43l-2.68-.35a1.8,1.8,0,0,0-1.34.58l-3.8,3.78L218.91,91a1.74,1.74,0,0,0-1.25.49l-4.94,4.36-3.87-.5a1.43,1.43,0,0,0-.67.12,2.43,2.43,0,0,0-.67.46l-3.79,3.78-3.8-.49a1.76,1.76,0,0,0-1.25.49l-3.89,3.44V68.56l4.47-1.94V65l-4.47,1.93v-5l35.74-15.48v5Zm-11.17,4.83,6.7-2.9V55l-6.7,2.9Zm-8.93,3.87,6.7-2.9v1.67l-6.7,2.91ZM201.48,64l6.7-2.9v1.67l-6.7,2.91Zm2.24,5.73-4.47,1.94A1.77,1.77,0,0,0,198.13,73c0,.46.5.62,1.12.35l4.47-1.93a1.78,1.78,0,0,0,1.11-1.32C204.83,69.61,204.33,69.45,203.72,69.71Zm22.33-1.29-5.58,2.42a1.76,1.76,0,0,0-1.12,1.32c0,.46.5.62,1.12.35l5.58-2.42a1.74,1.74,0,0,0,1.12-1.32C227.17,68.31,226.67,68.15,226.05,68.42Zm0-4.19-5.58,2.42A1.77,1.77,0,0,0,219.35,68c0,.46.5.62,1.12.35l5.58-2.41a1.77,1.77,0,0,0,1.12-1.33C227.17,64.12,226.67,64,226.05,64.23Zm0,8.38L220.47,75a1.74,1.74,0,0,0-1.12,1.32c0,.46.5.62,1.12.35l5.58-2.42A1.76,1.76,0,0,0,227.17,73C227.17,72.5,226.67,72.34,226.05,72.61Zm0,4.19-5.58,2.41a1.77,1.77,0,0,0-1.12,1.33c0,.46.5.62,1.12.35l5.58-2.42a1.77,1.77,0,0,0,1.12-1.32C227.17,76.69,226.67,76.53,226.05,76.8Zm0,4.18-5.58,2.42a1.77,1.77,0,0,0-1.12,1.32c0,.47.5.63,1.12.36l5.58-2.42a1.77,1.77,0,0,0,1.12-1.32C227.17,80.88,226.67,80.72,226.05,81Zm-11.16-3.54-15.64,6.77a1.77,1.77,0,0,0-1.12,1.33c0,.46.5.62,1.12.35l15.64-6.77A1.78,1.78,0,0,0,216,77.8C216,77.34,215.5,77.18,214.89,77.44Zm0,4.19L199.25,88.4a1.77,1.77,0,0,0-1.12,1.32c0,.47.5.63,1.12.36l15.64-6.77A1.78,1.78,0,0,0,216,82C216,81.52,215.5,81.37,214.89,81.63Zm0-8.37L199.25,80a1.76,1.76,0,0,0-1.12,1.32c0,.46.5.62,1.12.35l15.64-6.77A1.78,1.78,0,0,0,216,73.61C216,73.15,215.5,73,214.89,73.26Zm0,12.56-15.64,6.77a1.77,1.77,0,0,0-1.12,1.32c0,.47.5.62,1.12.36l15.64-6.77A1.77,1.77,0,0,0,216,86.17C216,85.71,215.5,85.55,214.89,85.82Zm0-16.75-15.64,6.77a1.76,1.76,0,0,0-1.12,1.32c0,.46.5.62,1.12.35l15.64-6.77A1.76,1.76,0,0,0,216,69.42C216,69,215.5,68.8,214.89,69.07Z"/><g class="cls-92"><polygon class="cls-93" points="288.52 48.2 253.52 62.59 253.52 101.52 257.13 99.34 261.18 99.08 264.89 96.26 268.49 96.06 272.03 93.23 275.55 93.03 279.04 90.21 282.51 90.03 285.99 87.23 288.52 87.14 288.52 48.2"/><polygon class="cls-85" points="284.06 59.28 271.82 64.58 271.82 63.26 284.06 57.96 284.06 59.28"/><polygon class="cls-85" points="259.58 75.78 284.06 65.18 284.06 63.87 259.58 74.46 259.58 75.78"/><polygon class="cls-85" points="259.58 82.33 284.06 71.73 284.06 70.42 259.58 81.02 259.58 82.33"/><polygon class="cls-85" points="259.58 88.89 284.06 78.29 284.06 76.98 259.58 87.58 259.58 88.89"/><polygon class="cls-85" points="259.58 95.44 284.06 84.84 284.06 83.53 259.58 94.13 259.58 95.44"/></g><polygon class="cls-94" points="282.52 52.82 248.52 67.2 248.52 106.14 251.57 103.96 255.34 103.7 258.91 100.87 262.44 100.67 265.95 97.85 269.44 97.65 272.93 94.83 276.39 94.64 279.93 91.85 282.52 91.75 282.52 52.82"/><polygon class="cls-85" points="277.94 63.89 265.7 69.19 265.7 67.88 277.94 62.58 277.94 63.89"/><polygon class="cls-85" points="253.47 80.39 277.94 69.79 277.94 68.48 253.47 79.08 253.47 80.39"/><polygon class="cls-85" points="253.47 86.95 277.94 76.35 277.94 75.04 253.47 85.64 253.47 86.95"/><polygon class="cls-85" points="253.47 93.5 277.94 82.91 277.94 81.59 253.47 92.19 253.47 93.5"/><polygon class="cls-85" points="253.47 100.06 277.94 89.46 277.94 88.15 253.47 98.75 253.47 100.06"/><path class="cls-95" d="M326,77.06l-26.9,11.65a1.31,1.31,0,0,0-.9,1.06v25.55c0,.41.36.52.9.29L326,104a1.32,1.32,0,0,0,.9-1.06V77.34C326.89,76.94,326.53,76.82,326,77.06Zm-.9,1.73v4L300,93.7V92.35l10.77-4.66V86.35L300,91V89.66ZM300,113.87V95l25.11-10.87V103Zm4.49-19.42,2.69-1.17v1.35l-2.69,1.16Zm4.48-2,2.69-1.16v1.34L309,93.85Zm4.49-1.94,2.69-1.16v1.34l-2.69,1.17Zm4.48-1.94,2.69-1.16V88.8L317.92,90Zm-15.25,10L306.26,97v1.35l-3.59,1.55Zm5.38-2.33,3.59-1.56v1.35l-3.59,1.55Zm5.39-2.33L317,92.37v1.35l-3.58,1.55Zm5.38-2.33L322.4,90v1.35l-3.58,1.55Zm-16.15,9.68,3.59-1.56v1.35l-3.59,1.55ZM308.05,99l3.59-1.56v1.35l-3.59,1.55Zm5.39-2.33L317,95.06v1.35L313.44,98Zm5.38-2.33,3.58-1.56v1.35l-3.58,1.55ZM302.67,104l3.59-1.56v1.35l-3.59,1.55Zm5.38-2.33,3.59-1.56v1.35L308.05,103Zm5.39-2.33L317,97.75V99.1l-3.58,1.55ZM318.82,97l3.58-1.56v1.35l-3.58,1.55Zm-16.15,9.68,3.59-1.56v1.35L302.67,108Zm5.38-2.33,3.59-1.56v1.35l-3.59,1.55Zm5.39-2.33,3.58-1.56v1.35l-3.58,1.55Zm5.38-2.33,3.58-1.56v1.35L318.82,101Zm-16.15,9.68,3.59-1.56v1.35l-3.59,1.55Zm5.38-2.33,3.59-1.56v1.35l-3.59,1.55Zm5.39-2.33,3.58-1.56v1.35L313.44,106Zm5.38-2.33,3.58-1.56v1.35l-3.58,1.55Zm-43.95-7.21,9.87-4.27a1.31,1.31,0,0,0,.9-1.06v-7.4l30.49-13.2v9.42l1.79-.78V67.77c0-.4-.36-.52-.9-.28l-32.28,14h0a.61.61,0,0,0-.27.18l-.09,0c-.09.11-.18.14-.27.25L273.35,94.67c-.09.11-.09.17-.18.28V95c0,.06-.09.17-.09.24h0v7.4l1.79-.78Zm9-5.22-7.71,3.34L280,88.7l3.85-4.56v5.79Zm11.66,15.8L285.64,110v-9.42c0-.4-.36-.51-.9-.28L274,105a1.32,1.32,0,0,0-.9,1.06V126.2c0,.4.36.51.9.28l10.76-4.66,10.76-4.66a1.32,1.32,0,0,0,.9-1.06V106C296.4,105.61,296,105.49,295.5,105.73ZM274.87,116l9-3.88v2l-9,3.88Zm9-5.22-9,3.88v-2l9-3.88Zm0-3.37-9,3.89v-2l9-3.88Zm-9,12,9-3.89v2l-9,3.88Zm10.77-4.66,9-3.89v2l-9,3.88Zm9-5.23-9,3.88v-2l9-3.88Zm-19.73-3.56,9-3.89v2l-9,3.88Zm0,16.81,9-3.88v2l-9,3.89Zm19.73-6.53-9,3.89v-2l9-3.88Zm12.56-41.08,6.28-2.72v1.35l-6.28,2.72Zm-9.87,7.64,16.15-7v1.34l-16.15,7Zm15.25,2.81,2.69-1.16v1.34l-2.69,1.17Z"/><path class="cls-96" d="M342,84.12,315,95.76a1.32,1.32,0,0,0-.89,1.07v25.55c0,.41.35.52.89.29L342,111a1.32,1.32,0,0,0,.89-1.06V84.4C342.84,84,342.48,83.88,342,84.12Zm-.9,1.73v4l-25.11,10.88V99.41l10.76-4.66V93.41l-10.76,4.66V96.72Zm-25.11,35.08V102.1l25.11-10.87v18.83Zm4.48-19.42,2.69-1.17v1.35l-2.69,1.16Zm4.49-2,2.69-1.16v1.34l-2.69,1.17Zm4.48-1.94,2.69-1.16V97.8L329.39,99Zm4.48-1.94,2.69-1.16v1.34L333.87,97Zm-15.24,10,3.59-1.56v1.35L318.63,107Zm5.38-2.33,3.59-1.56v1.35L324,104.66Zm5.38-2.33L333,99.43v1.35l-3.59,1.55Zm5.38-2.33,3.59-1.56v1.35L334.77,100Zm-16.14,9.68,3.59-1.56v1.35l-3.59,1.55ZM324,106l3.59-1.56v1.35L324,107.35Zm5.38-2.33,3.59-1.56v1.35L329.39,105Zm5.38-2.33,3.59-1.56v1.35l-3.59,1.55ZM318.63,111l3.59-1.56v1.35l-3.59,1.55ZM324,108.7l3.59-1.56v1.35L324,110Zm5.38-2.33,3.59-1.56v1.35l-3.59,1.55Zm5.38-2.33,3.59-1.56v1.35l-3.59,1.55Zm-16.14,9.68,3.59-1.56v1.35l-3.59,1.55Zm5.38-2.33,3.59-1.56v1.35L324,112.73Zm5.38-2.33L333,107.5v1.35l-3.59,1.55Zm5.38-2.33,3.59-1.56v1.35l-3.59,1.55Zm-16.14,9.68,3.59-1.56v1.35l-3.59,1.55Zm5.38-2.33,3.59-1.56v1.35L324,115.42Zm5.38-2.33,3.59-1.56v1.35l-3.59,1.55Zm5.38-2.33,3.59-1.56v1.35l-3.59,1.55Zm-43.94-7.21,9.86-4.27a1.32,1.32,0,0,0,.9-1.06v-7.4l30.49-13.2V85.7l1.79-.78V74.83c0-.4-.35-.52-.89-.28l-32.29,14h0a.61.61,0,0,0-.27.18l-.08,0c-.09.1-.18.14-.27.25l-10.76,12.73c-.09.11-.09.17-.18.28v.07c0,.06-.09.17-.09.24h0v7.4l1.79-.78Zm9-5.22-7.72,3.33,3.86-4.56,3.86-4.56V97Zm11.66,15.8-9.87,4.27v-9.42c0-.4-.36-.51-.9-.28L289.93,112a1.3,1.3,0,0,0-.89,1.06v20.18c0,.4.35.51.89.28l10.76-4.66,10.77-4.66a1.32,1.32,0,0,0,.89-1.06V113.07C312.35,112.67,312,112.55,311.46,112.79Zm-20.63,10.27,9-3.88v2l-9,3.88Zm9-5.22-9,3.88v-2l9-3.88Zm0-3.37-9,3.89v-2l9-3.89Zm-9,12,9-3.89v2l-9,3.88Zm10.76-4.66,9-3.89v2l-9,3.88Zm9-5.23-9,3.88v-2l9-3.88ZM290.83,113l9-3.88v2l-9,3.88Zm0,16.82,9-3.88v2l-9,3.89Zm19.73-6.53-9,3.89v-2l9-3.88Zm12.55-41.08,6.28-2.72v1.35l-6.28,2.72Zm-9.86,7.64,16.14-7v1.34l-16.14,7Zm15.24,2.81,2.69-1.16v1.34L328.49,94Z"/></g></g></svg>