<svg xmlns="http://www.w3.org/2000/svg" xmlns:xlink="http://www.w3.org/1999/xlink" viewBox="0 0 862.04 459.62"><defs><style>.cls-1{opacity:0.03;}.cls-2,.cls-3,.cls-49,.cls-50,.cls-51{fill:none;stroke-miterlimit:10;}.cls-2,.cls-3,.cls-50,.cls-51{stroke:#fff;}.cls-2,.cls-3{stroke-width:2px;}.cls-3,.cls-51{stroke-dasharray:3 6;}.cls-15,.cls-17,.cls-23,.cls-4{fill:#fff;}.cls-16,.cls-5{opacity:0.5;}.cls-5{fill:url(#linear-gradient);}.cls-6{fill:url(#linear-gradient-2);}.cls-7{fill:url(#linear-gradient-3);}.cls-8{opacity:0.3;}.cls-9{fill:#87939d;}.cls-10,.cls-36{fill:#233465;}.cls-11{fill:#f7941e;}.cls-12{fill:#ffd833;}.cls-13{fill:#ffeb99;}.cls-14{fill:#b58100;}.cls-15{opacity:0.57;}.cls-16{fill:url(#linear-gradient-4);}.cls-17,.cls-38{opacity:0.05;}.cls-18{fill:#241d25;}.cls-19{fill:#576a72;}.cls-20{fill:url(#linear-gradient-5);}.cls-21{fill:url(#linear-gradient-6);}.cls-22{fill:#424243;}.cls-23{opacity:0.2;}.cls-24{fill:url(#linear-gradient-7);}.cls-25{fill:#c6c5c4;}.cls-26{fill:#fdf7f1;}.cls-27{fill:#e3ad92;}.cls-28{fill:url(#linear-gradient-8);}.cls-29{fill:url(#linear-gradient-9);}.cls-30{fill:url(#linear-gradient-10);}.cls-31{fill:url(#linear-gradient-11);}.cls-32{fill:url(#linear-gradient-12);}.cls-33{fill:url(#linear-gradient-13);}.cls-34{fill:#e76454;}.cls-35,.cls-36,.cls-47{fill-rule:evenodd;}.cls-35{fill:url(#linear-gradient-14);}.cls-37{fill:url(#linear-gradient-15);}.cls-39{fill:url(#linear-gradient-16);}.cls-40{fill:url(#linear-gradient-17);}.cls-41{fill:url(#linear-gradient-18);}.cls-42{fill:url(#linear-gradient-19);}.cls-43{fill:url(#linear-gradient-20);}.cls-44{fill:url(#linear-gradient-21);}.cls-45{fill:url(#linear-gradient-22);}.cls-46{fill:url(#linear-gradient-23);}.cls-47{fill:url(#linear-gradient-24);}.cls-48{fill:url(#linear-gradient-25);}.cls-49{stroke:#666;stroke-dasharray:6;}</style><linearGradient id="linear-gradient" x1="672.93" y1="122.49" x2="728.97" y2="122.49" gradientTransform="translate(-440.59)" gradientUnits="userSpaceOnUse"><stop offset="0" stop-color="#fff" stop-opacity="0.25"/><stop offset="1" stop-color="#fff" stop-opacity="0"/></linearGradient><linearGradient id="linear-gradient-2" x1="193.41" y1="250.08" x2="625.13" y2="250.08" gradientUnits="userSpaceOnUse"><stop offset="0" stop-color="#330867"/><stop offset="1" stop-color="#30cfd0"/></linearGradient><linearGradient id="linear-gradient-3" x1="167.53" y1="817.49" x2="384.36" y2="600.66" gradientTransform="translate(-297.68 507.9) rotate(-90)" gradientUnits="userSpaceOnUse"><stop offset="0" stop-color="#30cfd0"/><stop offset="1" stop-color="#330867"/></linearGradient><linearGradient id="linear-gradient-4" x1="176.9" y1="60.75" x2="241.48" y2="60.75" gradientTransform="matrix(-1, 0, 0, 1, 1038.94, 0)" xlink:href="#linear-gradient"/><linearGradient id="linear-gradient-5" x1="100.32" y1="95.42" x2="118.39" y2="95.42" gradientTransform="matrix(0.99, -0.16, 0.16, 0.99, -29.92, 18.35)" xlink:href="#linear-gradient-2"/><linearGradient id="linear-gradient-6" x1="81.02" y1="99" x2="137.67" y2="99" gradientTransform="translate(-15.34 -0.65)" xlink:href="#linear-gradient-2"/><linearGradient id="linear-gradient-7" x1="97.37" y1="109.96" x2="121.35" y2="109.96" gradientTransform="matrix(0.99, -0.16, 0.16, 0.99, -29.92, 18.35)" xlink:href="#linear-gradient-2"/><linearGradient id="linear-gradient-8" x1="-511.68" y1="25.39" x2="-566.77" y2="58.87" gradientTransform="matrix(-0.98, -0.18, -0.18, 0.98, 98.01, 17.45)" xlink:href="#linear-gradient-2"/><linearGradient id="linear-gradient-9" x1="1029.39" y1="-12.69" x2="968.26" y2="80.92" gradientTransform="translate(-382.41 -69.78) rotate(10.31)" gradientUnits="userSpaceOnUse"><stop offset="0" stop-color="#96ced8"/><stop offset="0.78" stop-color="#d6edf1"/><stop offset="1" stop-color="#96ced8"/></linearGradient><linearGradient id="linear-gradient-10" x1="663.36" y1="254.03" x2="577.3" y2="339.24" xlink:href="#linear-gradient-2"/><linearGradient id="linear-gradient-11" x1="539.96" y1="269.55" x2="695.3" y2="269.55" xlink:href="#linear-gradient-2"/><linearGradient id="linear-gradient-12" x1="-507.48" y1="47.85" x2="-454.9" y2="47.85" gradientTransform="matrix(-0.98, -0.18, -0.18, 0.98, 98.01, 17.45)" xlink:href="#linear-gradient-2"/><linearGradient id="linear-gradient-13" x1="609.4" y1="-20.58" x2="635.63" y2="-20.58" gradientTransform="translate(-12.69 -2.52) rotate(10.31)" gradientUnits="userSpaceOnUse"><stop offset="0" stop-color="#d6edf1"/><stop offset="0.28" stop-color="#d4ecf0"/><stop offset="0.38" stop-color="#cde9ee"/><stop offset="0.46" stop-color="#c1e3e9"/><stop offset="0.52" stop-color="#b0dbe2"/><stop offset="0.57" stop-color="#9ad0da"/><stop offset="0.58" stop-color="#96ced8"/><stop offset="0.59" stop-color="#98cfd9"/><stop offset="0.69" stop-color="#b3dce3"/><stop offset="0.79" stop-color="#c7e6eb"/><stop offset="0.89" stop-color="#d2ebef"/><stop offset="1" stop-color="#d6edf1"/></linearGradient><linearGradient id="linear-gradient-14" x1="676.37" y1="165.99" x2="713.59" y2="165.99" gradientTransform="matrix(1, 0, 0, 1, 0, 0)" xlink:href="#linear-gradient-9"/><linearGradient id="linear-gradient-15" x1="1754.78" y1="-809.79" x2="1893.88" y2="-809.79" gradientTransform="translate(-1263.81 -602.55) rotate(46.06)" xlink:href="#linear-gradient-2"/><linearGradient id="linear-gradient-16" x1="193.41" y1="-297.38" x2="625.13" y2="-297.38" gradientTransform="matrix(1, 0, 0, -0.38, 0, 263.92)" xlink:href="#linear-gradient-2"/><linearGradient id="linear-gradient-17" x1="714.99" y1="817.49" x2="931.82" y2="600.66" gradientTransform="matrix(0, 0.38, 1, 0, -297.68, 70.29)" xlink:href="#linear-gradient-3"/><linearGradient id="linear-gradient-18" x1="-413.68" y1="-513.25" x2="-468.76" y2="-479.78" gradientTransform="matrix(-0.98, 0.07, -0.18, -0.38, 98.01, 257.26)" xlink:href="#linear-gradient-2"/><linearGradient id="linear-gradient-19" x1="931.38" y1="-551.34" x2="870.25" y2="-457.73" gradientTransform="matrix(0.98, -0.07, -0.18, -0.38, -382.41, 290.52)" xlink:href="#linear-gradient-9"/><linearGradient id="linear-gradient-20" x1="663.36" y1="-293.44" x2="577.3" y2="-208.22" gradientTransform="matrix(1, 0, 0, -0.38, 0, 263.92)" xlink:href="#linear-gradient-2"/><linearGradient id="linear-gradient-21" x1="539.96" y1="-277.92" x2="695.3" y2="-277.92" gradientTransform="matrix(1, 0, 0, -0.38, 0, 263.92)" xlink:href="#linear-gradient-2"/><linearGradient id="linear-gradient-22" x1="-409.48" y1="-490.79" x2="-356.89" y2="-490.79" gradientTransform="matrix(-0.98, 0.07, -0.18, -0.38, 98.01, 257.26)" xlink:href="#linear-gradient-2"/><linearGradient id="linear-gradient-23" x1="511.4" y1="-559.23" x2="537.63" y2="-559.23" gradientTransform="matrix(0.98, -0.07, -0.18, -0.38, -12.69, 264.88)" xlink:href="#linear-gradient-13"/><linearGradient id="linear-gradient-24" x1="676.37" y1="-381.47" x2="713.59" y2="-381.47" gradientTransform="matrix(1, 0, 0, -0.38, 0, 263.92)" xlink:href="#linear-gradient-9"/><linearGradient id="linear-gradient-25" x1="1360.62" y1="-1189.66" x2="1499.72" y2="-1189.66" gradientTransform="matrix(0.69, -0.27, -0.72, -0.26, -1263.81, 493.63)" xlink:href="#linear-gradient-2"/></defs><title>Homepage</title><g id="Layer_2" data-name="Layer 2"><g id="Items"><g class="cls-1"><path class="cls-2" d="M485.28,116.38a105.07,105.07,0,0,1,16.09,11.52"/><path class="cls-2" d="M514.48,141.56A104.7,104.7,0,0,1,351.4,272.92"/><path class="cls-3" d="M398.79,99.74a116.89,116.89,0,0,0-20.48,8.45"/><path class="cls-3" d="M360.53,119.74A117.24,117.24,0,0,0,504.84,304.55"/><path class="cls-4" d="M511,203.78a83.72,83.72,0,1,1-83.72-83.72A83.72,83.72,0,0,1,511,203.78Z"/></g><path id="_Path_" data-name="&lt;Path&gt;" class="cls-5" d="M279.55,121.29h-.2a10.51,10.51,0,0,0,.2-2A10.85,10.85,0,0,0,261.72,111a8.82,8.82,0,0,0-16.67,2.77H245A12.63,12.63,0,0,0,245,139h34.58a8.84,8.84,0,1,0,0-17.67Z"/><path class="cls-6" d="M624.67,240.73h0a4.61,4.61,0,0,1-.52.58h0a5.74,5.74,0,0,1-.69.55h0a8.7,8.7,0,0,1-.87.53h0c-.31.17-.66.33-1,.49h0c-.22.1-.48.19-.73.28l-.5.19c-.29.1-.6.19-.91.28l-.42.14c-.39.11-.8.21-1.21.31l-.28.07c-.52.12-1.05.23-1.61.33h-.05c-.56.11-1.13.2-1.73.29h0l-1.86.25h0c-.65.07-1.31.14-2,.19h0c-1.37.12-2.81.19-4.31.23h0l-2.29,0S284,244.76,209,244h0c-.66,0-1.31-.08-1.94-.14h0q-.95-.08-1.83-.18h-.05c-1.19-.14-2.31-.31-3.34-.51h0c-1-.21-2-.43-2.87-.69h0a20.14,20.14,0,0,1-2.33-.82h0a10.27,10.27,0,0,1-.94-.46h0a7.18,7.18,0,0,1-.79-.49h0a5.8,5.8,0,0,1-.63-.51h0a3.11,3.11,0,0,1-.78-1.1h0c-.07-.19.55,9.55.89,14.61h0a903169493445.6,903169493445.6,0,0,0,0,.3s0,.1,0,.15,0,.1.05.15h0a.36.36,0,0,0,0,.11.69.69,0,0,0,.05.13l.06.12.08.12.06.1h0l.06.09.08.1.08.1.08.1.09.09.07.08h0l.09.09.09.08a.39.39,0,0,0,.1.08l.09.09.11.08h0l.09.07.05,0h0l0,0,.09.06.1.07.1.06.1.07.1.06.1.07.1,0,.06,0h0l0,0,.1.05.1.06.1.05.11.06.1.05.11,0,.1.05.1,0,.1.05.1,0,.11,0,.1.05.11,0,.11,0,.1,0,.11,0,.1,0,.11,0,.11,0,.11,0,.11,0,.11,0h0l.11,0,.11,0,.11,0,.12,0,.11,0,.11,0,.11,0,.11,0,0,0h0l.07,0,.11,0,.12,0,.11,0,.12,0,.12,0,.12,0,.11,0,.12,0,.12,0,.12,0,.12,0,.12,0,.12,0,.12,0,.13,0,.12,0,.12,0,.12,0,.12,0,.13,0,.12,0,.12,0,.13,0,.12,0,.13,0,.12,0,.13,0,.15,0,.14,0,.15,0,.15,0,.16,0,.15,0,.16,0,.16,0,.23,0,.22,0,.23,0,.23,0,.36,0,.36,0,.36.05.37,0,.24,0,.24,0,.25,0,.24,0,.2,0h0l.22,0,.22,0,.22,0h.38l.19,0h.38l.19,0h4.34l388.63,1.51h3l.38,0h.38l.37,0h.23l.22,0H608l.21,0h.22l.22,0,.21,0h.2l.21,0h.41l.21,0,.2,0,.2,0,.23,0,.22,0,.23,0,.22,0,.16,0h.08l.24,0,.23,0,.23,0,.32,0,.31,0,.31-.05.17,0h.14l.43-.07.42-.08.42-.07.35-.07h.06c.49-.1,1-.2,1.41-.31l.6-.15,1-.27h.06l.46-.15.8-.26,0,0,.49-.19.64-.26.11,0h0l0,0,.15-.07.14-.07a.61.61,0,0,0,.14-.07l.12-.06.12-.06.12-.06.11-.06.08-.05.08,0,.07,0,.08,0,.08,0,.07-.05.07,0,.07-.05.07,0,.07-.05.07,0,.06-.05.07,0,.06-.05.06,0,.06-.05.06-.05.06,0,.06-.05,0-.05.06-.05.06,0,0-.05.05-.05,0-.05,0,0h0l0,0,0,0,.05-.05,0-.05,0,0,0-.05,0-.06.05-.05,0-.05,0-.05a.21.21,0,0,0,0-.06l0,0h0v0l0-.05,0-.05,0-.06,0-.06,0,0,0-.05,0-.06,0-.06,0-.06a.14.14,0,0,0,0-.06s0,0,0,0h0a34221531362.65,34221531362.65,0,0,1,0-.12v-.06a.14.14,0,0,0,0-.06.19.19,0,0,1,0-.07s0,0,0-.06,0-.05,0-.07a.43.43,0,0,1,0,0v-.05s0,0,0-.06v0c.11-2,.22-4.07.34-6.12q.24-4.61.5-9.21A2.34,2.34,0,0,1,624.67,240.73Z"/><path class="cls-4" d="M239.82,186.76l-40.88,51.12c-2.82,3.53,3.81,6.42,14.74,6.42H603.9c10.93,0,18.05-2.89,15.82-6.42l-32.23-51.12c-2.23-3.53-11.09-6.42-19.69-6.42H260.6C252,180.34,242.64,183.23,239.82,186.76Z"/><path class="cls-4" d="M213.68,248.75c-5.92,0-16.33-.84-19.52-6.18a6,6,0,0,1,.68-7.15l40.88-51.31c4.3-5.38,16-8.36,24.88-8.36H567.8c9.24,0,20.48,3.1,24.07,8.8l32.24,51.18a6.11,6.11,0,0,1-.07,6.87c-3.73,5.49-15.33,6.15-20.14,6.15Z"/><path class="cls-7" d="M239.82,186.76l-5.41,6.76c-.31.39.09.73.92.84h2.32c5.07,0,8,1.61,6.54,3.57L222.7,226.7c-1.47,2-7.4,3.56-13.19,3.56h-1.85c-1.44,0-2.95.4-3.34.89l-5.38,6.73c-2.82,3.53,3.81,6.42,14.74,6.42H603.9c10.93,0,18.05-2.89,15.82-6.42l-32.23-51.12c-2.23-3.53-11.09-6.42-19.69-6.42H260.6C252,180.34,242.64,183.23,239.82,186.76Z"/><g class="cls-8"><path class="cls-9" d="M231.35,205.63c1.65,0,2.61.5,2.15,1.11s-2.2,1.12-3.87,1.12-2.63-.5-2.15-1.12S229.69,205.63,231.35,205.63Z"/><path class="cls-9" d="M229,210.68l-6,7.75A3.15,3.15,0,0,1,221,219h-.26c-.89,0-1.42-.26-1.18-.58l6.06-7.75a3.1,3.1,0,0,1,2-.58h.25c.87,0,1.38.26,1.13.58Z"/></g><ellipse class="cls-10" cx="346.1" cy="221.22" rx="12.55" ry="2.67"/><path class="cls-11" d="M330.29,204.82a4.6,4.6,0,0,1-3-2.17s-2.34,2.95,1.51,4.48c0,0-.66,1.09-1.64,1.05a2.57,2.57,0,0,0,3.52.17v-.78l-.27-1.76Z"/><path class="cls-12" d="M338.06,210.12A5.18,5.18,0,0,0,342.5,213c3.43.3,4.48-2.76,3.87-4,0,0,2.72,1.82,1.77,4.71a2.79,2.79,0,0,0,1-1.7s1.22,2.44-.47,3.73c0,0,1.42,6.42-9,6.69s-13.77-8.59-6.89-12Z"/><path class="cls-13" d="M343.86,214.93a4.42,4.42,0,0,1-3,.76c-1.69-.25-2.95-1.37-4.51-1.4a2.51,2.51,0,0,0-2.78,2.41c0,1.42,1.66,2.63,4.07,2.91C340.88,220,343.39,218.56,343.86,214.93Z"/><path class="cls-13" d="M341.11,206.78c-.23,2.75-3,4.77-6.13,4.5s-5.52-2.72-5.28-5.47,3-4.76,6.13-4.5S341.34,204,341.11,206.78Z"/><path class="cls-14" d="M332.81,204.56a.63.63,0,1,1-.44-.83A.67.67,0,0,1,332.81,204.56Z"/><path class="cls-15" d="M308.87,186.25a1.29,1.29,0,0,0-1.29,1.29v4.75l-15,8.79v-2.69a1.29,1.29,0,0,0-2.57,0v4.2l-.05,0,.05.08v9.61l-.05,0,.05.08v8.45a1.29,1.29,0,1,0,2.57,0v-7.08l15-8.79v5a1.29,1.29,0,1,0,2.57,0V187.54A1.28,1.28,0,0,0,308.87,186.25ZM292.61,210.8v-6.74l15-8.79V202Z"/><path class="cls-4" d="M308.79,171.26l-11-23.08A2,2,0,0,0,294,149v20.73a1.29,1.29,0,1,0,2.57,0V151.63l9.86,20.73a11.65,11.65,0,0,1,1.11,4.93v5.27l-15,8.79v-4.63a14.17,14.17,0,0,0-1.36-6l-11-23.08a2,2,0,0,0-3.79.86V179.2a1.29,1.29,0,1,0,2.58,0V161.06l9.85,20.74a11.63,11.63,0,0,1,1.11,4.92v6.14l-.06,0,.06.09v7.35a1.29,1.29,0,0,0,2.57,0v-6l15-8.79v5.35a1.29,1.29,0,1,0,2.57,0V177.29A14.13,14.13,0,0,0,308.79,171.26Z"/><path class="cls-4" d="M295.53,156.37a2,2,0,0,0-1.55,1.94V179a1.29,1.29,0,1,0,2.58,0V160.91S296.22,156.21,295.53,156.37Z"/><path id="_Path_2" data-name="&lt;Path&gt;" class="cls-16" d="M807.65,59.36l.22,0a12.89,12.89,0,0,1-.22-2.34,12.5,12.5,0,0,1,20.54-9.58,10.17,10.17,0,0,1,19.21,3.18h.09a14.54,14.54,0,1,1,0,29.08H807.65a10.18,10.18,0,1,1,0-20.36Z"/><path id="_Path_3" data-name="&lt;Path&gt;" class="cls-17" d="M151.74,149.51h-.26a13.81,13.81,0,0,0,.26-2.67,14.3,14.3,0,0,0-23.49-11,11.63,11.63,0,0,0-22,3.64h-.1a16.64,16.64,0,0,0,0,33.27h45.57a11.65,11.65,0,0,0,0-23.29Z"/><path id="_Path_4" data-name="&lt;Path&gt;" class="cls-17" d="M659.09,11h.14a7.81,7.81,0,0,1,12.7-7.45,6.35,6.35,0,0,1,12,2H684a9.09,9.09,0,1,1,0,18.18H659.09a6.37,6.37,0,1,1,0-12.73Z"/><g id="_Group_" data-name="&lt;Group&gt;"><rect id="_Rectangle_" data-name="&lt;Rectangle&gt;" class="cls-18" x="100.39" y="99.9" width="1.05" height="2.87" transform="translate(-15.07 17.67) rotate(-9.31)"/><rect id="_Rectangle_2" data-name="&lt;Rectangle&gt;" class="cls-18" x="87.91" y="101.94" width="1.05" height="2.87" transform="translate(-15.57 15.68) rotate(-9.31)"/></g><path id="_Rectangle_3" data-name="&lt;Rectangle&gt;" class="cls-19" d="M85.18,96.64h18.07a0,0,0,0,1,0,0v0a5.75,5.75,0,0,1-5.75,5.75H90.92a5.75,5.75,0,0,1-5.75-5.75v0A0,0,0,0,1,85.18,96.64Z" transform="translate(-14.86 16.56) rotate(-9.31)"/><g id="_Group_2" data-name="&lt;Group&gt;"><rect id="_Rectangle_4" data-name="&lt;Rectangle&gt;" class="cls-19" x="79.96" y="105" width="31" height="4.31" transform="translate(-16.08 16.86) rotate(-9.31)"/><rect id="_Rectangle_5" data-name="&lt;Rectangle&gt;" class="cls-19" x="80.06" y="106.25" width="15.49" height="4.31" transform="translate(-16.39 15.64) rotate(-9.31)"/></g><polygon id="_Path_5" data-name="&lt;Path&gt;" class="cls-20" points="95.83 92.5 90.44 93.39 84.83 98.14 102.66 95.22 95.83 92.5"/><rect id="_Rectangle_6" data-name="&lt;Rectangle&gt;" class="cls-21" x="65.69" y="96.66" width="56.65" height="3.38" transform="translate(-14.68 16.51) rotate(-9.31)"/><polygon id="_Path_6" data-name="&lt;Path&gt;" class="cls-22" points="66.34 104.6 61.58 103.67 61.3 102 65.79 101.27 66.34 104.6"/><path id="_Path_7" data-name="&lt;Path&gt;" class="cls-18" d="M64.58,101.47l-2.07.34L61.73,97a1.06,1.06,0,0,1,.87-1.21h0a1.05,1.05,0,0,1,1.2.87Z"/><polygon id="_Path_8" data-name="&lt;Path&gt;" class="cls-23" points="65.42 96.28 65.64 97.57 44.46 101.05 44.6 101.91 60.63 100.61 60.41 99.31 81.59 95.84 81.45 94.98 65.42 96.28"/><rect id="_Rectangle_7" data-name="&lt;Rectangle&gt;" class="cls-22" x="60.72" y="98.01" width="4.6" height="0.87" transform="translate(-15.1 11.5) rotate(-9.31)"/><polygon id="_Path_9" data-name="&lt;Path&gt;" class="cls-22" points="122.25 95.43 126.46 93.03 126.19 91.36 121.7 92.1 122.25 95.43"/><path id="_Path_10" data-name="&lt;Path&gt;" class="cls-18" d="M122.91,91.9l2.07-.34-.78-4.77a1.07,1.07,0,0,0-1.21-.87h0a1,1,0,0,0-.86,1.21Z"/><polygon id="_Path_11" data-name="&lt;Path&gt;" class="cls-23" points="120.46 87.25 120.67 88.55 141.85 85.07 141.99 85.94 126.38 89.82 126.17 88.53 105 92 104.85 91.14 120.46 87.25"/><rect id="_Rectangle_8" data-name="&lt;Rectangle&gt;" class="cls-22" x="121.12" y="88.1" width="4.6" height="0.87" transform="translate(259.54 155.93) rotate(170.69)"/><path id="_Path_12" data-name="&lt;Path&gt;" class="cls-22" d="M106.74,101.83,90.7,114a12.05,12.05,0,0,1-7.5-7.9l-.13-.41Z"/><path class="cls-24" d="M106.74,101.83h0l-23.66,3.88h0l.12.38v0c.06.22.13.43.21.64l.06.18c.06.15.12.31.19.46s0,.12.07.17.17.36.26.54c0,0,0,0,0,.06l.32.58.08.12.27.43c0,.06.07.11.1.16s.2.29.31.43l.07.09c.13.18.27.34.41.51l.08.09c.11.13.23.26.35.38l.13.14.34.34.12.11.48.41a.27.27,0,0,0,.08.07l.41.32.18.13.35.24.18.12.46.27.15.09.46.24.23.11.34.16.25.1.35.14.19.08h0a11.92,11.92,0,0,0,6,.54h0a12,12,0,0,0,10.08-12.3l0-.42Z"/><circle id="_Path_13" data-name="&lt;Path&gt;" class="cls-25" cx="95.79" cy="109.16" r="3.93" transform="translate(-21.75 194.45) rotate(-84.7)"/><circle id="_Path_14" data-name="&lt;Path&gt;" class="cls-26" cx="95.79" cy="109.16" r="2.73" transform="translate(-16.4 16.94) rotate(-9.31)"/><path id="_Path_15" data-name="&lt;Path&gt;" class="cls-18" d="M97.8,108.83a2,2,0,1,1-2.34-1.68A2,2,0,0,1,97.8,108.83Z"/><path id="_Path_16" data-name="&lt;Path&gt;" class="cls-26" d="M98.52,107a1,1,0,1,1-1.16-.84A1,1,0,0,1,98.52,107Z"/><path id="_Path_17" data-name="&lt;Path&gt;" class="cls-4" d="M94.1,94.71a.67.67,0,1,1-.77-.55A.67.67,0,0,1,94.1,94.71Z"/><path class="cls-27" d="M632.18,66.3c-.88-1.7-2.26-6.48-2-8.31a1.94,1.94,0,0,0-.12-1c.17-8.8.13-16.28-.57-15.94-8.2,3.91-12.84,3.45-21.42,4.52-.89.11-10.67,7.14-11.55,7.09l1.24,12.79-.36,15.76L598.77,90l13.07,5.72s.82-13.43,2-16.59c-.24.4-.22.47-.22.47s-5.08-4.86-5.73-6.79-.57-7.3-.57-7.3.87,5.71,2.27,7.55,4.72,5.37,4.72,5.37l-.05.06a.2.2,0,0,1,.17,0c1.56.64,15.15,8.85,15,5.17,0-.69,0-2.62.07-5.31.41-.85,1.19-1.33,1.19-1.7s-.66-.9-1-1.49a6.94,6.94,0,0,1-3.55.22,13.24,13.24,0,0,0,3.65-1.51h0c.55-.68,1.31-.93.83-1.56-.2-.26-.56-.65-.91-1.09,0-.58,0-1.17,0-1.77C631.93,69.55,633.67,69.19,632.18,66.3Z"/><path class="cls-28" d="M637.69,187.27c-12.77-3.71-21-10.87-28.47-18.39,1.14-20.93,8.82-37.24,11.66-57.74.73-10.29-11.5-26.23-19.64-9-6.42,16.69-8.84,81.25-8.65,81.35,16.15,5.33,19.35,6.61,42.86,10.61C637.05,190,638.39,187.47,637.69,187.27Z"/><path class="cls-10" d="M601,59.38c.78-4.3,4.93-4.94,6.25-1a25.64,25.64,0,0,1,.07,4.4,20,20,0,0,1,6.32-6.19,22.14,22.14,0,0,0,3.92-6.81s12.23-.83,13.05-1.24,6.77-5.63,6.68-7.13c0,0-4.23,2.83-5.6,2.2l2.53-2.69s-22-6.42-23.07-6.79-13.38,3.73-15.56,5.56-2.67,10.74-1,16c.86,2.76,3.19,17.95,2.92,18.68-.36,1,4.75-4.64,6.12-8C603.78,65.94,600.18,63.69,601,59.38Z"/><polygon class="cls-10" points="607.37 63.35 606.63 62.5 606.73 56.07 609.92 53.25 607.37 63.35"/><path class="cls-29" d="M611.06,88s1.5-1.91,1.49-1.91c-.71,3.93-6.1,7.15-9.71,10a135.79,135.79,0,0,0-5.32-16.59c-8.39,33-49.76,125.33-50,128.23l29.93,6.4c.16-.52,7.37-1.68,7.29-2.21-.45-2.68-1.84-19.6,8.22-46.42C617,110.89,616.17,92.94,611.06,88Z"/><path class="cls-30" d="M652.72,240c11-18.77,25.27,31.14,27,22.5,0,0-11.35,7.46-12,7.71s-75.39,56.55-77.5,56.29-6.73-8.44-6.73-8.44,53.11-62.16,54.41-62.67S652.22,240.88,652.72,240Z"/><path class="cls-31" d="M695.3,218.49c0-10.83-9.11-19.61-20.36-19.61H560.32c-11.24,0-20.36,8.78-20.36,19.61s9.12,19.61,20.36,19.61H663.54c3,21.8,15.26,101.81,15.26,101.81s8.86,1,10.34-.58S695.3,220.5,695.3,218.49Z"/><path class="cls-32" d="M523.17,221.82l19.52-58.95c11.07-30.38,5.36-41.69,9.18-54,10.42-8.75,21.2-19.73,9.17-29.08,6.8.52,27.54-4.55,36.23-.93.83,2.14,12.07,18-22.31,79-7.44,20.27-19.16,52.4-19.16,52.4Z"/><path class="cls-10" d="M678,335.87l7.73-.13h4.75c3.3,2.13,8.31,2.71,12.23,3.51s5.57.86,10,1.83a.85.85,0,0,1,.54,1.46c-1.83,2.48-6.44,2.45-9.25,2.53s-8.48-.42-11.25-.55c-6.26-.31-9.43-1.49-10.25-.39-.54.75-7.05.21-6.74-1.13C676.51,339.58,677.75,337.61,678,335.87Z"/><path class="cls-10" d="M586.26,314l6.53,5.18,3.82,3c1.4,3.93,5.08,7.62,7.76,10.8s4,4.29,6.93,7.92a.92.92,0,0,1-.42,1.59c-2.94,1-6.63-2-8.93-3.72s-6.58-5.76-8.73-7.65c-4.85-4.25-6.69-7.28-8-6.86-.88.29-5.8-4.32-4.76-5.27C583.11,316.56,585,315.31,586.26,314Z"/><path class="cls-33" d="M613.68,93.69l-.75-6.86-.28-1.46A9,9,0,0,1,611.06,88c-.94,1-7.93,7.91-7.93,7.91s-3-16.4-6.93-18.64c0,0-.79,2.89-2.39,3.35s-3,.46-2,.64,3.77,1.58,4.47.57,4.61,5.17,6,16.7l8.91-9.11,2.4,5.51,2.16-.73Z"/><path class="cls-34" d="M608.22,92.08s-1.67-2.69-3.17-2.69-4.19,2.81-4.19,2.81l2,7.36a164.17,164.17,0,0,1-30,34.63,126.34,126.34,0,0,1-16.31,11.68l-1.82,13,9.52,1.53s14.48-10.49,20.72-19c15.8-21.46,20.64-40.68,20.44-40.94s4.49-6.13,2.82-8.46"/><path class="cls-35" d="M712.46,137.05c-.26-.16-2.28,1.44-2.56,1.37L676.56,195h4.51a20.9,20.9,0,0,0,1.29-2l30.74-52.56C713.81,139.15,713.85,137.86,712.46,137.05Z"/><path class="cls-36" d="M615.21,195c-.07.29-.11,2.42-.11,2.73a2.15,2.15,0,0,0,2.44,2.29h58.7a2.15,2.15,0,0,0,2.44-2.29c0-.31,0-2.44-.11-2.73Z"/><path class="cls-36" d="M678.66,194.91c.13.73,2,1.84,2.22,2,1.43.83,2.56.15,3.29-1.09l31.58-54c.72-1.24.76-2.56-.66-3.4-.27-.16-2.14-1.2-2.35-1.79Z"/><path class="cls-27" d="M664.62,194.06l1.55-1-1-.51-9.83-3.28s-2.83-2.07-4-1.57l-10.68.71s-4-.88-6.24-1.64c-.06,0-.38-.16-.84,1.82l-.67,6.06S663.12,195.27,664.62,194.06Z"/><path class="cls-37" d="M636.89,186.31c-10.67.13-31.1.41-41.27-10.56-4-4.36-15-66.72-21.76-88.6-4.08-10.66-25.18-11.36-25.27,9.77C550,116.66,579.07,194,579.31,194c2.75,4.58,43.19.48,56.46.8Z"/><g class="cls-38"><path class="cls-39" d="M624.67,380.85h0a5.44,5.44,0,0,0-.52-.22h0l-.69-.21h0c-.26-.07-.55-.14-.87-.2h0c-.31-.07-.66-.13-1-.19h0l-.73-.11-.5-.07-.91-.11-.42-.05-1.21-.12-.28,0-1.61-.13h-.05l-1.73-.11h0c-.6,0-1.22-.07-1.86-.09h0l-2-.08h0c-1.37,0-2.81-.07-4.31-.08h-2.31S284,379.32,209,379.6h0c-.66,0-1.31,0-1.94.06h0l-1.83.07h-.05c-1.19,0-2.31.12-3.34.19h0c-1,.08-2,.17-2.87.26h0c-.87.09-1.65.2-2.33.31h0l-.94.18h0l-.79.18h0c-.24.07-.45.13-.63.2h0a2.46,2.46,0,0,0-.78.42h0c-.07.07.55-3.64.89-5.57h0a.14.14,0,0,1,0-.06s0,0,0-.05l0-.06.05-.06h0l0,0,.05-.05.06,0,.08,0,.06,0h0l.06,0,.08,0,.08,0,.08,0,.09,0,.07,0h0l.09,0,.09,0,.1,0,.09,0,.11,0h0l.09,0h.09l.09,0,.1,0,.1,0,.1,0,.1,0,.1,0,.1,0,.06,0h0l.1,0,.1,0,.1,0,.11,0,.1,0,.11,0,.1,0h.1l.1,0,.1,0,.11,0,.1,0H198l.11,0,.1,0h.11l.1,0h.11l.11,0h.11l.11,0H199l.11,0h.11l.11,0h.12l.11,0h.22l.11,0h.23l.12,0h.35l.12,0h.59l.12,0h3.3l.22,0h.46l.36,0,.36,0h.36l.37,0h7.33l388.63-.57h8.9l.23,0h.55l.31,0,.31,0h.31l.43,0,.42,0,.42,0,.35,0h.06q.73,0,1.41.12l.6.05,1,.11h.06l.46.06.8.1h0l.49.07.64.1.11,0h0l.15,0,.14,0,.14,0,.12,0,.12,0,.12,0,.11,0,.08,0,.08,0h.07l.08,0,.08,0h.07l.07,0,.07,0,.07,0h.07l.07,0,.06,0,.07,0h.06l.06,0,.06,0,.06,0h.06l.06,0,0,0,.06,0,.06,0h0l.05,0,0,0h.05l0,0,0,0,.05,0h0l0,0,0,0,0,0,.05,0,0,0,0,0,0,0,0,0h0l0,0,0,0,0,0,0,0,0,0,0,0,0,0,0,0,0,0,0,0a0,0,0,0,1,0,0h0l0,0,0,0v0l0,0,0,0v0h0v0h0v0c.11.77.22,1.55.34,2.33.16,1.17.33,2.34.5,3.51C625.11,381.16,625,381,624.67,380.85Z"/><path class="cls-4" d="M239.82,401.43l-40.88-19.49c-2.82-1.35,3.81-2.45,14.74-2.45H603.9c10.93,0,18.05,1.1,15.82,2.45l-32.23,19.49c-2.23,1.34-11.09,2.45-19.69,2.45H260.6C252,403.88,242.64,402.77,239.82,401.43Z"/><path class="cls-4" d="M213.68,377.75c-5.92,0-16.33.35-19.52,2.38-1.37.87-1.12,1.88.68,2.74l40.88,19.63c4.3,2.05,16,3.25,24.88,3.25H567.8c9.24,0,20.48-1.24,24.07-3.41l32.24-19.55c1.39-.84,1.36-1.85-.07-2.66-3.73-2.08-15.33-2.38-20.14-2.38Z"/><path class="cls-40" d="M239.82,401.43l-5.41-2.58c-.31-.15.09-.28.92-.32h2.32c5.07,0,8-.61,6.54-1.36l-21.49-11c-1.47-.74-7.4-1.36-13.19-1.36h-1.85a12.11,12.11,0,0,1-3.34-.34l-5.38-2.56c-2.82-1.35,3.81-2.45,14.74-2.45H603.9c10.93,0,18.05,1.1,15.82,2.45l-32.23,19.49c-2.23,1.34-11.09,2.45-19.69,2.45H260.6C252,403.88,242.64,402.77,239.82,401.43Z"/><g class="cls-8"><path class="cls-9" d="M231.35,394.23c1.65,0,2.61-.19,2.15-.42a13.46,13.46,0,0,0-3.87-.42c-1.67,0-2.63.19-2.15.42A13.57,13.57,0,0,0,231.35,394.23Z"/><path class="cls-9" d="M229,392.31l-6-3a7.27,7.27,0,0,0-2.07-.22h-.26c-.89,0-1.42.1-1.18.22l6.06,3a7.14,7.14,0,0,0,2,.22h.25c.87,0,1.38-.1,1.13-.22Z"/></g><ellipse class="cls-10" cx="346.1" cy="388.29" rx="12.55" ry="1.02"/><path class="cls-11" d="M330.29,394.54s-2.27.18-3,.83c0,0-2.34-1.13,1.51-1.71a3.29,3.29,0,0,0-1.64-.4,5.77,5.77,0,0,1,3.52-.06v.29l-.27.67Z"/><path class="cls-12" d="M338.06,392.52s1-1,4.44-1.08,4.48,1.05,3.87,1.52c0,0,2.72-.69,1.77-1.79,0,0,.95.28,1,.64,0,0,1.22-.93-.47-1.42,0,0,1.42-2.44-9-2.55s-13.77,3.27-6.89,4.57Z"/><path class="cls-13" d="M343.86,390.69a10.13,10.13,0,0,0-3-.29c-1.69.09-2.95.52-4.51.53s-2.78-.37-2.78-.91,1.66-1,4.07-1.12C340.88,388.76,343.39,389.3,343.86,390.69Z"/><path class="cls-13" d="M341.11,393.8c-.23-1.05-3-1.82-6.13-1.72s-5.52,1-5.28,2.08,3,1.82,6.13,1.72S341.34,394.85,341.11,393.8Z"/><path class="cls-14" d="M332.81,394.64a.92.92,0,0,0-.77-.21c-.34,0-.54.18-.45.32a.93.93,0,0,0,.78.21C332.7,394.93,332.9,394.79,332.81,394.64Z"/><path class="cls-15" d="M308.87,401.62c-.72,0-1.29-.22-1.29-.49v-1.81l-15-3.35v1c0,.27-.57.49-1.28.49S290,397.26,290,397v-1.6H290l.05,0v-3.66H290l.05,0v-3.23c0-.27.57-.49,1.29-.49s1.28.22,1.28.49v2.7l15,3.36v-1.92c0-.27.57-.49,1.29-.49s1.28.22,1.28.49v8.57C310.15,401.4,309.58,401.62,308.87,401.62Zm-16.26-9.36v2.57l15,3.35v-2.57Z"/><path class="cls-4" d="M308.79,407.34l-11,8.8a3.6,3.6,0,0,1-2.24.41c-.91-.08-1.55-.38-1.55-.74v-7.9c0-.27.57-.49,1.29-.49s1.28.22,1.28.49v6.91l9.86-7.9a2.56,2.56,0,0,0,1.11-1.88v-2l-15-3.35v1.76a3.07,3.07,0,0,1-1.36,2.3l-11,8.8a3.59,3.59,0,0,1-2.24.41c-.91-.07-1.55-.38-1.55-.74v-7.9c0-.27.58-.49,1.29-.49s1.29.22,1.29.49v6.91l9.85-7.9a2.52,2.52,0,0,0,1.11-1.88V399.1H290l.06,0v-2.8c0-.27.58-.49,1.29-.49s1.28.22,1.28.49v2.29l15,3.35v-2c0-.27.57-.49,1.29-.49s1.28.22,1.28.49V405A3.09,3.09,0,0,1,308.79,407.34Z"/><path class="cls-4" d="M295.53,413c-.91-.07-1.55-.38-1.55-.74v-7.9c0-.27.58-.49,1.29-.49s1.29.22,1.29.49v6.91S296.22,413.07,295.53,413Z"/><path class="cls-27" d="M632.18,447.35c-.88.65-2.26,2.47-2,3.17a.33.33,0,0,1-.12.37c.17,3.36.13,6.21-.57,6.08-8.2-1.49-12.84-1.31-21.42-1.72-.89,0-10.67-2.72-11.55-2.7l1.24-4.88-.36-6,1.35-3.34,13.07-2.18s.82,5.12,2,6.32c-.24-.15-.22-.18-.22-.18s-5.08,1.86-5.73,2.59-.57,2.78-.57,2.78a6.3,6.3,0,0,1,2.27-2.87c1.4-.71,4.72-2,4.72-2l-.05,0a.48.48,0,0,0,.17,0c1.56-.24,15.15-3.37,15-2a15,15,0,0,0,.07,2c.41.33,1.19.51,1.19.65s-.66.35-1,.57a17.9,17.9,0,0,0-3.55-.08,27.08,27.08,0,0,1,3.65.57h0c.55.26,1.31.35.83.59l-.91.42c0,.22,0,.44,0,.67C631.93,446.11,633.67,446.25,632.18,447.35Z"/><path class="cls-41" d="M637.69,401.23a106.48,106.48,0,0,0-28.47,7c1.14,8,8.82,14.19,11.66,22,.73,3.92-11.5,10-19.64,3.41-6.42-6.36-8.84-31-8.65-31,16.15-2,19.35-2.52,42.86-4.05C637.05,400.2,638.39,401.16,637.69,401.23Z"/><path class="cls-10" d="M601,450c.78,1.64,4.93,1.88,6.25.37,0,0,.3-1.3.07-1.67a23.17,23.17,0,0,0,6.32,2.36,11.31,11.31,0,0,1,3.92,2.59s12.23.32,13.05.47,6.77,2.15,6.68,2.72c0,0-4.23-1.07-5.6-.84l2.53,1s-22,2.45-23.07,2.59a122.66,122.66,0,0,1-15.56-2.12c-2.19-.7-2.67-4.1-1-6.12.86-1.05,3.19-6.84,2.92-7.12s4.75,1.76,6.12,3.05C603.78,447.49,600.18,448.35,601,450Z"/><polygon class="cls-10" points="607.37 448.48 606.63 448.8 606.73 451.25 609.92 452.33 607.37 448.48"/><path class="cls-42" d="M611.06,439.08l1.49.73c-.71-1.5-6.1-2.73-9.71-3.82a38.15,38.15,0,0,1-5.32,6.32c-8.39-12.6-49.76-47.78-50-48.89L577.4,391c.16.2,7.37.65,7.29.85-.45,1-1.84,7.47,8.22,17.7C617,430.35,616.17,437.2,611.06,439.08Z"/><path class="cls-43" d="M652.72,381.12c11,7.16,25.27-11.87,27-8.58,0,0-11.35-2.84-12-2.94s-75.39-21.55-77.5-21.46-6.73,3.22-6.73,3.22,53.11,23.7,54.41,23.89S652.22,380.8,652.72,381.12Z"/><path class="cls-44" d="M695.3,389.33c0,4.13-9.11,7.48-20.36,7.48H560.32c-11.24,0-20.36-3.35-20.36-7.48s9.12-7.47,20.36-7.47H663.54c3-8.31,15.26-38.82,15.26-38.82s8.86-.36,10.34.22S695.3,388.57,695.3,389.33Z"/><path class="cls-45" d="M523.17,388.06l19.52,22.48c11.07,11.58,5.36,15.89,9.18,20.58,10.42,3.34,21.2,7.52,9.17,11.09,6.8-.2,27.54,1.73,36.23.35.83-.81,12.07-6.85-22.31-30.13-7.44-7.73-19.16-20-19.16-20Z"/><path class="cls-10" d="M678,344.58l7.73.05h4.75c3.3-.81,8.31-1,12.23-1.34s5.57-.33,10-.69c.84-.07,1-.32.54-.56-1.83-1-6.44-.93-9.25-1s-8.48.15-11.25.21c-6.26.11-9.43.56-10.25.14-.54-.28-7.05-.07-6.74.44C676.51,343.17,677.75,343.92,678,344.58Z"/><path class="cls-10" d="M586.26,352.93l6.53-2,3.82-1.15c1.4-1.5,5.08-2.91,7.76-4.12s4-1.64,6.93-3c.57-.26.3-.52-.42-.61-2.94-.36-6.63.77-8.93,1.42s-6.58,2.2-8.73,2.92c-4.85,1.62-6.69,2.78-8,2.61-.88-.11-5.8,1.65-4.76,2C583.11,351.94,585,352.42,586.26,352.93Z"/><path class="cls-46" d="M613.68,436.91l-.75,2.61-.28.56a5.18,5.18,0,0,0-1.59-1c-.94-.37-7.93-3-7.93-3s-3,6.26-6.93,7.11a3.56,3.56,0,0,0-2.39-1.28c-1.61-.17-3-.17-2-.24s3.77-.61,4.47-.22,4.61-2,6-6.37l8.91,3.48,2.4-2.1,2.16.28Z"/><path class="cls-34" d="M608.22,437.52a7.27,7.27,0,0,1-3.17,1,15.81,15.81,0,0,1-4.19-1.07l2-2.81s-11.58-7.2-30-13.2c-8.11-2.63-16.31-4.45-16.31-4.45l-1.82-5,9.52-.58s14.48,4,20.72,7.23c15.8,8.18,20.64,15.51,20.44,15.61s4.49,2.34,2.82,3.22"/><path class="cls-47" d="M712.46,420.38c-.26.06-2.28-.55-2.56-.52l-33.34-21.55h4.51a11.57,11.57,0,0,1,1.29.77l30.74,20C713.81,419.58,713.85,420.07,712.46,420.38Z"/><path class="cls-36" d="M615.21,398.29a5.17,5.17,0,0,1-.11-1c0-.63,1.09-.87,2.44-.87h58.7c1.35,0,2.44.24,2.44.87a5.17,5.17,0,0,1-.11,1Z"/><path class="cls-36" d="M678.66,398.32c.13-.28,2-.7,2.22-.76a4.3,4.3,0,0,1,3.29.41l31.58,20.58c.72.48.76,1-.66,1.3a11.74,11.74,0,0,0-2.35.68Z"/><path class="cls-27" d="M664.62,398.65l1.55.39-1,.19-9.83,1.25a14.54,14.54,0,0,1-4,.6l-10.68-.27s-4,.33-6.24.62c-.06,0-.38.06-.84-.69l-.67-2.31S663.12,398.18,664.62,398.65Z"/><path class="cls-48" d="M636.89,401.6c-10.67-.05-31.1-.16-41.27,4-4,1.67-15,25.44-21.76,33.78-4.08,4.07-25.18,4.33-25.27-3.72,1.36-7.53,30.48-37,30.72-37,2.75-1.75,43.19-.18,56.46-.3Z"/></g><path class="cls-49" d="M672.91,179c0-75.2,44.85-100.43,89.79-100.43"/><g class="cls-38"><path class="cls-50" d="M141.76,77.21c5-.2,9.66-.25,14-.16"/><path class="cls-50" d="M167.32,77.7c14.17,1.39,22.37,4.85,21.41,10.12-2,11.05-43.44,25.88-92.56,33.12-25.46,3.76-48,4.73-63.5,3.27"/><path class="cls-51" d="M67.79,86.24c-6,1.39-11.72,2.86-17.15,4.39"/><path class="cls-51" d="M35.87,95.2c-18.6,6.34-31.53,13.29-34.65,19.48-6.54,13,32.46,17.71,87.11,10.59,28.34-3.68,55.31-9.84,75.64-16.72"/></g></g></g></svg>