<svg xmlns="http://www.w3.org/2000/svg" xmlns:xlink="http://www.w3.org/1999/xlink" viewBox="0 0 475.92 173.42"><defs><style>.cls-1{fill:#330867;opacity:0.1;}.cls-2{fill:#fff;}.cls-3,.cls-7{fill:#e5ae92;}.cls-4{fill:#65493c;}.cls-5,.cls-6{opacity:0.7;}.cls-5{fill:url(#linear-gradient);}.cls-6{fill:url(#linear-gradient-2);}.cls-15,.cls-7{fill-rule:evenodd;}.cls-8{fill:url(#linear-gradient-3);}.cls-9{fill:url(#linear-gradient-4);}.cls-10{fill:url(#linear-gradient-5);}.cls-11{fill:#524f63;}.cls-12{fill:url(#linear-gradient-6);}.cls-13{fill:url(#linear-gradient-7);}.cls-14{fill:url(#linear-gradient-8);}.cls-15,.cls-17{fill:#243464;}.cls-16{fill:url(#linear-gradient-9);}.cls-18{fill:url(#linear-gradient-10);}.cls-19{fill:url(#linear-gradient-11);}.cls-20{fill:url(#linear-gradient-12);}.cls-21{fill:url(#linear-gradient-13);}.cls-22{fill:#955442;}.cls-23{fill:url(#linear-gradient-14);}</style><linearGradient id="linear-gradient" x1="301.31" y1="99.75" x2="475.92" y2="99.75" gradientUnits="userSpaceOnUse"><stop offset="0" stop-color="#10aeaf"/><stop offset="0.45" stop-color="#3bd1af" stop-opacity="0.52"/><stop offset="0.82" stop-color="#5cecae" stop-opacity="0.15"/><stop offset="1" stop-color="#69f7ae" stop-opacity="0"/></linearGradient><linearGradient id="linear-gradient-2" y1="99.75" x2="174.61" y2="99.75" gradientUnits="userSpaceOnUse"><stop offset="0" stop-color="#69f7ae" stop-opacity="0"/><stop offset="0.18" stop-color="#5cecae" stop-opacity="0.15"/><stop offset="0.55" stop-color="#3bd1af" stop-opacity="0.52"/><stop offset="1" stop-color="#10aeaf"/></linearGradient><linearGradient id="linear-gradient-3" x1="264" y1="39.33" x2="334.44" y2="39.33" gradientUnits="userSpaceOnUse"><stop offset="0" stop-color="#1afffe"/><stop offset="1" stop-color="#3688df"/></linearGradient><linearGradient id="linear-gradient-4" x1="332.17" y1="62.92" x2="332.17" y2="15.74" xlink:href="#linear-gradient-3"/><linearGradient id="linear-gradient-5" x1="273.84" y1="78.65" x2="273.84" y2="0" xlink:href="#linear-gradient-3"/><linearGradient id="linear-gradient-6" x1="111.01" y1="125.76" x2="143.89" y2="125.76" gradientUnits="userSpaceOnUse"><stop offset="0" stop-color="#330867"/><stop offset="1" stop-color="#30cfd0"/></linearGradient><linearGradient id="linear-gradient-7" x1="131.66" y1="130.51" x2="161.46" y2="130.51" xlink:href="#linear-gradient-6"/><linearGradient id="linear-gradient-8" x1="135.08" y1="75.65" x2="150.31" y2="75.65" xlink:href="#linear-gradient-6"/><linearGradient id="linear-gradient-9" x1="339.16" y1="104.3" x2="339.16" y2="68.23" xlink:href="#linear-gradient-6"/><linearGradient id="linear-gradient-10" x1="340.27" y1="124.45" x2="340.27" y2="92.2" xlink:href="#linear-gradient-6"/><linearGradient id="linear-gradient-11" x1="-4278" y1="88.13" x2="-4261.08" y2="88.13" gradientTransform="matrix(-1, 0, 0, 1, -4132.12, 0)" xlink:href="#linear-gradient-6"/><linearGradient id="linear-gradient-12" x1="182.84" y1="80.4" x2="182.84" y2="0" xlink:href="#linear-gradient-3"/><linearGradient id="linear-gradient-13" x1="-5892.86" y1="847.2" x2="-5892.86" y2="894.58" gradientTransform="translate(1053.31 5932.2) rotate(90)" xlink:href="#linear-gradient-3"/><linearGradient id="linear-gradient-14" x1="135.08" y1="79.55" x2="150.31" y2="79.55" xlink:href="#linear-gradient-6"/></defs><title>integrations</title><g id="Layer_2" data-name="Layer 2"><g id="Layer_1-2" data-name="Layer 1"><path class="cls-1" d="M205.48,151.33H119c-4.12,0-7.6-.15-7.6.26v6.86l-.29-1.83-.46-2.44L79.5,162.07,48.29,170l31.64-5.45,31.51-5.43v1c0,.41,3.48.22,7.6.22H142.1l-13.46,3.43-31.22,7.9,31.74-5.44,31.74-5.48-.09-.41h44.67c4.13,0,7,.19,7-.22v-8.52C212.44,151.18,209.61,151.33,205.48,151.33Z"/><path class="cls-1" d="M351.63,160.1l-.56-2.45-.63.15v-6.09c0-.35-3.15-.38-6.76-.38H267.92c-3.62,0-6.48,0-6.48.38v2.62H233.73c-3.19,0-5.29-1-5.29-.71v.07c0,.31,2.1,1.64,5.29,1.64h27.71v3H233.73c-3.19,0-5.29-.42-5.29-.11v.07c0,.32,2.1,1,5.29,1h27.71v.87c0,.36,2.86.13,6.48.13h39.71l-15.36,3.9-31.22,7.91,31.74-5.44,31.74-5.48-.19-.89h16l-20.43,5.19-31.22,7.9L320.41,168l31.74-5.45Z"/><polygon class="cls-2" points="113.49 147.5 111.61 150.27 110.02 149.21 112.09 145.43 113.53 146.73 113.49 147.5"/><polygon class="cls-3" points="113.49 147.5 111.61 150.27 110.02 149.21 112.09 145.43 113.53 146.73 113.49 147.5"/><path class="cls-4" d="M110.5,148.27l1.19,1.94.43,8.27a.87.87,0,0,1-.62.83c-.63.17-2.25-9.88-2.25-9.88Z"/><path class="cls-5" d="M474.17,152.3a207.14,207.14,0,0,0-23.3,2.47c-10.92,1.59-22.22,3.22-33.39,2.16-19.85-1.88-33.91-12.18-37.61-27.55-1.82-7.59-1.4-16.28,1.22-25.14.58-2,1.26-4,1.92-5.88,2.2-6.39,4.47-13,3.52-20-2.15-15.76-17.42-28.13-29.85-33.94a63.17,63.17,0,0,0-54.45,1,1.6,1.6,0,0,0-.92,1.34,1.88,1.88,0,0,0,.91,1.64,1.78,1.78,0,0,0,1.76.07,58.8,58.8,0,0,1,53.82.41A56.87,56.87,0,0,1,377,65.33c6,8.24,7.43,16.75,4.39,26.79-.53,1.75-1.09,3.48-1.65,5.2-2,6.27-3.95,12.19-4.4,18.8a43.48,43.48,0,0,0,3.7,21.52c5.56,11.75,18.09,19.88,34.37,22.29a75.74,75.74,0,0,0,11.33.8c8.84,0,17.64-1.26,26.24-2.49a207.46,207.46,0,0,1,23.25-2.44,1.75,1.75,0,0,0,1.72-1.85A1.67,1.67,0,0,0,474.17,152.3Z"/><path class="cls-6" d="M173.69,45.46a63.17,63.17,0,0,0-54.45-1c-12.42,5.81-27.7,18.18-29.84,33.94-1,7,1.31,13.59,3.51,20,.66,1.92,1.35,3.92,1.93,5.88,2.62,8.86,3,17.55,1.21,25.14-3.69,15.37-17.75,25.67-37.6,27.55-11.17,1.06-22.47-.57-33.4-2.16A206.72,206.72,0,0,0,1.76,152.3,1.68,1.68,0,0,0,0,154a1.75,1.75,0,0,0,1.72,1.85A207.21,207.21,0,0,1,25,158.24c8.6,1.23,17.4,2.49,26.24,2.49a75.87,75.87,0,0,0,11.34-.8c16.28-2.41,28.8-10.54,34.36-22.29a43.37,43.37,0,0,0,3.7-21.52c-.45-6.61-2.37-12.53-4.4-18.8-.56-1.72-1.12-3.45-1.65-5.2-3-10-1.64-18.55,4.39-26.79a57.06,57.06,0,0,1,19.17-16.41,58.8,58.8,0,0,1,53.82-.41,1.84,1.84,0,0,0,2.46-.81A1.58,1.58,0,0,0,173.69,45.46Z"/><path class="cls-7" d="M162.31,79.75c2.11,1.39,5.78,3.26,5.78,3.26s3.56.15,3.85.14,3.23-2.37,2.9-2.79-2.42,1.49-3.11,1.43l-1.94-.2-.52-.4s2.91-.45,2.62-1.19-3-.19-4.67-.68c-.32-.57-3.88-1.88-3.86-1.64A15.24,15.24,0,0,1,162.31,79.75Z"/><path class="cls-3" d="M344.07,78.19l-20.5-1.73-13.11-7.91-.92,2.39,12.83,9.53,19,3.47a3.16,3.16,0,0,0,2.81.1h0A3.19,3.19,0,0,0,344.07,78.19Z"/><path class="cls-2" d="M339.92,26.8h5.83a2.74,2.74,0,0,1,2.74,2.74V49.11a2.75,2.75,0,0,1-2.75,2.75h-5.83a2.74,2.74,0,0,1-2.74-2.74V29.55A2.74,2.74,0,0,1,339.92,26.8Z"/><path class="cls-2" d="M139.57,26.8h5.83a2.75,2.75,0,0,1,2.75,2.75V49.11a2.75,2.75,0,0,1-2.75,2.75h-5.83a2.74,2.74,0,0,1-2.74-2.74V29.55A2.74,2.74,0,0,1,139.57,26.8Z"/><path class="cls-2" d="M289.35,21.1a4.52,4.52,0,0,1-4.44,4.6H247.57a4.52,4.52,0,0,1-4.44-4.6v-.57a4.52,4.52,0,0,1,4.44-4.6h37.34a4.52,4.52,0,0,1,4.44,4.6Z"/><path class="cls-2" d="M289.35,58.15a4.52,4.52,0,0,1-4.44,4.6H247.57a4.52,4.52,0,0,1-4.44-4.6v-.57a4.52,4.52,0,0,1,4.44-4.6h37.34a4.52,4.52,0,0,1,4.44,4.6Z"/><path class="cls-8" d="M334.44,5.17V73.48a5.16,5.16,0,0,1-5.17,5.17h-60.1A5.15,5.15,0,0,1,264,73.48V5.17A5.16,5.16,0,0,1,269.17,0h60.1A5.17,5.17,0,0,1,334.44,5.17Z"/><path class="cls-9" d="M342.83,57.75a5.16,5.16,0,0,1-5.17,5.17h-11a5.17,5.17,0,0,1-5.18-5.17V20.91a5.17,5.17,0,0,1,5.18-5.17h11a5.16,5.16,0,0,1,5.17,5.17Z"/><path class="cls-10" d="M283.68,0V78.65H269.17A5.15,5.15,0,0,1,264,73.48V5.17A5.16,5.16,0,0,1,269.17,0Z"/><path class="cls-3" d="M309.11,76.88c-.26,1.05-1.39,2.93-2.62,2.31a.53.53,0,0,1-.2,0,12.06,12.06,0,0,1-3.51-2.39c-.52-.54-1.36-1.52-1.09-2.36.47-1.45,2.38-.71,3.87,0l0-.07c-.08-.3.13-.73.5-.63C307.33,74,309.5,75.23,309.11,76.88Z"/><path class="cls-3" d="M164.61,58.37a1.29,1.29,0,0,0-.44,1.28,4.63,4.63,0,0,0,.24.43,3.58,3.58,0,0,1,.22.81,2.26,2.26,0,0,0,.52,1,1.21,1.21,0,0,0,1.08.39,1.59,1.59,0,0,0,1-.94,5.73,5.73,0,0,0,.52-2.31,2.57,2.57,0,0,0-.21-1.26C166.91,56.59,165.28,57.69,164.61,58.37Z"/><polygon class="cls-2" points="160.8 156.37 161.99 159.5 160.2 160.19 158.3 156.33 160.19 155.89 160.8 156.37"/><path class="cls-11" d="M159.9,159.58l9.2-2.89a.9.9,0,0,1,.94.46c.28.58-9.26,4.13-9.26,4.13Z"/><polygon class="cls-3" points="160.8 156.37 161.99 159.5 160.2 160.19 158.3 156.33 160.19 155.89 160.8 156.37"/><path class="cls-4" d="M159.2,159.87l9.88-3.09a.94.94,0,0,1,1,.49c.31.62-10,4.44-10,4.44Z"/><polygon class="cls-12" points="143.89 103.81 134.78 128.94 113.7 148.16 111.01 146.49 127.75 126.4 131.58 103.35 143.89 103.81"/><polygon class="cls-13" points="144.69 103.69 161.46 156.58 158.54 157.82 131.66 103.19 144.69 103.69"/><polygon class="cls-3" points="156.59 72.56 148.16 72.43 150.31 77.73 160.19 76.62 167.73 59.23 164.94 60.47 156.59 72.56"/><path class="cls-14" d="M148.16,72.43h0l-9.48-.16a3.39,3.39,0,1,0,.13,6.75l11.5-1.29Z"/><path class="cls-3" d="M345.67,67.57a23.55,23.55,0,0,0-1.7-3.26c-.4-1.53,2.7-5.25,2.67-5.76-.05-1-1.43-.86-1.49-1.89-.14-2.06-2.67.31-2.75-1.75a6.61,6.61,0,0,1,.21-2c-1.84-2.39-6.59-1.52-7.12-1.34l-.26.27c-.38,0-.81.09-1.32.18a9.28,9.28,0,0,0-.12,3.78,3.76,3.76,0,0,1-.4,2.67c-1.31,2.06-1.94,1.59-1.31,2.06s1.35.65,1.33,1.26-.18.82,0,1a.13.13,0,0,1,0-.06,5.54,5.54,0,0,0,1.6.22,2.7,2.7,0,0,1-1.32.28v0c-.09.34-.07.6.36.77s.27,2.36.42,2.47c.79.58,3.07-.32,4.49-1h0a4.71,4.71,0,0,0,2.17-1.15,9.13,9.13,0,0,0,1.36-2.12,10.22,10.22,0,0,1-1,2.52,3.38,3.38,0,0,1-2.28,1.2,16.29,16.29,0,0,1,.12,6.44c-.63,3.33.36,2.82.45,3.18s1.87,2.26,3.11.74C342.9,74.63,345.71,69.25,345.67,67.57Z"/><path class="cls-15" d="M337,50.66c4.76-3.59,8.43,1.76,9.7,6.45a4,4,0,0,0-.48,1c-.27,1-11.78-3.43-12.1-6a1.3,1.3,0,0,0-1.47,1.28C331.88,51.46,334.66,50.33,337,50.66Z"/><path class="cls-16" d="M346.49,103.57l-14.66.73s2.63-8.24,2.8-12.23c.17-3.68-2-11.5-1-14.65,2.4-6.71,12.84-9.19,12.84-9.19v35.34Z"/><path class="cls-17" d="M345.41,49.1c5.88,3.67,5.65,12,5.54,13.83-1.08,7.71-8.53,10.93-12,8.53,5.68-4.76,4.27-9.52,4.27-9.52,1.43.52,1.75-1.68,1.38-3.33s-1.16.31-1.16.31c-.13.61-.87.25-.87.25,0-1.33-.78-4.17-2.88-5.28-1.57-.83.35-.88-.63-2.1s-3.15-1.1-3.15-1.1C336.58,49,341.61,46.73,345.41,49.1Z"/><polygon class="cls-3" points="352.15 162.45 341.53 162.78 349.21 160.16 332.3 102.53 344.81 99.45 352.15 162.45"/><path class="cls-3" d="M328.59,79.09h0l8-4.82a3.34,3.34,0,1,1,3.23,5.82l-10.44,4.59Z"/><polygon class="cls-3" points="323.23 156.63 325.39 130.6 335.07 98.29 342.9 112.89 331.86 131.59 324.23 161.03 317.69 153.84 323.23 156.63"/><path class="cls-3" d="M321.47,83.38l7.12-4.29.79,5.59-7.2,3.16a3.31,3.31,0,0,1-3.3-.36l-13.49-9.94,3-.33Z"/><path class="cls-18" d="M334.46,92.36l12.14-.16,6.15,26.61s-8.21,5-12.87,5.59-12.09-4.51-12.09-4.51Z"/><path class="cls-4" d="M352.34,160.73l.28,1.8-11.47.33s3.18-1.4,3.35-1.35a10,10,0,0,0,2.37.51C347.66,162,352.34,160.73,352.34,160.73Z"/><polygon class="cls-4" points="325.6 158.86 324.46 161.28 317.28 154 318.01 153.5 319.63 154.62 320.41 156.24 325.6 158.86"/><path class="cls-3" d="M137.25,75.42c-1.47-.39-2.65-3.92-4.15-4.14,1.72-5-.32-7.31-.38-12.63a2.49,2.49,0,0,1,.18-1.12,1.91,1.91,0,0,1,1.35-.9c2.33-.51,4.62,1.43,5.38,3.68.89,2.61-1.13,3.78-1.62,6.39C137.9,67.32,137.12,75.38,137.25,75.42Z"/><path class="cls-19" d="M129,75.6s.54-2.81,2.49-4c0,0,8.11-2.59,14.43,3.41v28.81s-8.49,3.13-15.4,0Z"/><rect class="cls-20" x="142.64" width="80.4" height="80.4" rx="5.92" ry="5.92"/><path class="cls-3" d="M166.19,66.24c-1.08,0-3.18-.66-2.86-2a.37.37,0,0,1,0-.21,12,12,0,0,1,1.5-4c.41-.63,1.16-1.68,2-1.61,1.52.12,1.25,2.14.93,3.76l.06,0c.27-.15.73-.05.72.34C168.56,63.85,167.88,66.24,166.19,66.24Z"/><circle class="cls-21" cx="182.42" cy="39.34" r="23.69"/><path class="cls-2" d="M183,34.77a5.36,5.36,0,1,1,5.35-5.35A5.36,5.36,0,0,1,183,34.77Z"/><path class="cls-2" d="M183,56.13a5.35,5.35,0,1,1,5.35-5.36A5.36,5.36,0,0,1,183,56.13Z"/><path class="cls-3" d="M132.76,62.42a2.38,2.38,0,0,0-.8.18,2.78,2.78,0,0,0-.48-1.51,2,2,0,0,0-.89-.86l-.19,0a.87.87,0,0,0-.61.37,1.26,1.26,0,0,0-.37.87v.14a5.43,5.43,0,0,0,.57,1.74c.4.82.78,1.23,1.15,1.23h.08a.69.69,0,0,0,.52-.32,13.57,13.57,0,0,0,.63,1.44,9.29,9.29,0,0,0,3.33,4.06,4.44,4.44,0,0,0,.53.28,5.7,5.7,0,0,0,2.38.5,3.33,3.33,0,0,0,1.46-.33,5,5,0,0,0,1.31-1,8.11,8.11,0,0,0,1.26-1.81,17.2,17.2,0,0,0,1.8-6.67c.09-.94.14-1.94.14-3,0-.06,0-.09,0-.1,0-.31,0-.65-.06-1-.07-.15-.12-.27-.17-.35a1.34,1.34,0,0,0-.55-.54c-.33-.14-.49-.47-.91-.44s-3-2.09-3.06-1.6c-1-1.09-4.42-.16-4.91.38a6.15,6.15,0,0,1-4.33,1.53c-.53,0,2,3.6,1.92,2.86a9.92,9.92,0,0,0,.41,1.53,6.71,6.71,0,0,1,.44,2.1C133.32,62.23,133.14,62.36,132.76,62.42Z"/><path class="cls-22" d="M145.18,60.07a6.1,6.1,0,0,0,.79-1.3c.83-1.69.62-2.88.13-4.66a6.31,6.31,0,0,0-2.71-3.37,10.3,10.3,0,0,0-5.18-2.23c-.75,0-1.52,0-2.29,0-3.44-.25-3.53,1.33-3.93,1.52-.83.41-1.4-.37-2.51,1.06a6.58,6.58,0,0,0-1.16,4.09,13.61,13.61,0,0,0,.16,2.89c.33,1.22.62,2.43.89,3.6l0,.09v-.27a1.26,1.26,0,0,1,.37-.87.87.87,0,0,1,.61-.37l.19,0a2,2,0,0,1,.89.86A2.78,2.78,0,0,1,132,62.6a2.38,2.38,0,0,1,.8-.18c.38-.06.56-.19.56-.4a6.71,6.71,0,0,0-.44-2.1,9.92,9.92,0,0,1-.41-1.53c4.05,2.44,11.94-2,12-1.84,0,.38,0,.72.06,1,0,0,0,0,0,.1,0,1.06-.05,2.06-.14,3C144.44,60.66,145.11,60.15,145.18,60.07Z"/><path class="cls-23" d="M148.16,76.33h0l-9.48-.16a3.39,3.39,0,1,0,.13,6.75l11.5-1.29Z"/><polygon class="cls-3" points="156.59 76.45 148.16 76.33 150.31 81.63 160.19 80.52 167.73 63.13 164.94 64.37 156.59 76.45"/></g></g></svg>