<svg xmlns="http://www.w3.org/2000/svg" xmlns:xlink="http://www.w3.org/1999/xlink" viewBox="0 0 348.83 285.5"><defs><style>.cls-1{opacity:0.1;}.cls-2{fill:#332074;}.cls-3{opacity:0.2;}.cls-4{fill:url(#linear-gradient);}.cls-5{fill:url(#linear-gradient-2);}.cls-6{fill:url(#linear-gradient-3);}.cls-35,.cls-7{opacity:0.3;}.cls-8{fill:#ccc;}.cls-9{fill:#65c8d0;}.cls-10{opacity:0.6;}.cls-11{fill:url(#linear-gradient-4);}.cls-12,.cls-24{fill:#fff;}.cls-13{fill:url(#linear-gradient-5);}.cls-14{fill:url(#linear-gradient-6);}.cls-15{fill:#f2f2f2;}.cls-16{opacity:0.4;}.cls-17{fill:#42a552;}.cls-18{fill:#fbb03b;}.cls-19{fill:#8db65c;}.cls-20{fill:#95adff;}.cls-21{fill:#f04c5d;}.cls-22{fill:url(#linear-gradient-7);}.cls-23{fill:#fcee21;}.cls-24{opacity:0.05;}.cls-25{fill:url(#linear-gradient-8);}.cls-26{fill:url(#linear-gradient-9);}.cls-27{fill:url(#linear-gradient-10);}.cls-28{opacity:0.5;}.cls-29,.cls-30,.cls-31,.cls-32,.cls-34,.cls-37,.cls-38,.cls-39,.cls-40,.cls-41,.cls-42,.cls-43,.cls-46,.cls-47,.cls-49,.cls-50,.cls-52,.cls-54{fill-rule:evenodd;}.cls-29{fill:url(#linear-gradient-11);}.cls-30{fill:url(#linear-gradient-12);}.cls-31{fill:url(#linear-gradient-13);}.cls-32{fill:url(#linear-gradient-14);}.cls-33,.cls-34{fill:#1d1b3a;}.cls-35{fill:none;stroke:#fff;stroke-miterlimit:10;stroke-dasharray:6;}.cls-36,.cls-52{fill:#e5ae92;}.cls-37,.cls-53{fill:#243464;}.cls-38{fill:url(#linear-gradient-15);}.cls-39{fill:url(#linear-gradient-16);}.cls-40{fill:url(#linear-gradient-17);}.cls-41{fill:url(#linear-gradient-18);}.cls-42{fill:#65493c;}.cls-43{fill:#1f1619;}.cls-44{fill:#343536;}.cls-45{fill:#30303e;}.cls-46{fill:#2b2d2d;}.cls-47{fill:#4f5253;}.cls-48{fill:url(#linear-gradient-19);}.cls-49{fill:#525043;}.cls-50{fill:#8c8f94;}.cls-51{fill:url(#linear-gradient-20);}.cls-54{fill:url(#linear-gradient-21);}.cls-55{fill:url(#linear-gradient-22);}.cls-56{fill:url(#linear-gradient-23);}.cls-57{fill:url(#linear-gradient-24);}.cls-58{fill:url(#linear-gradient-25);}.cls-59{fill:url(#linear-gradient-26);}.cls-60{fill:url(#linear-gradient-27);}.cls-61{fill:url(#linear-gradient-28);}</style><linearGradient id="linear-gradient" x1="50.02" y1="147.18" x2="96.93" y2="147.18" gradientUnits="userSpaceOnUse"><stop offset="0" stop-color="#1afffe"/><stop offset="1" stop-color="#3688df" stop-opacity="0.49"/></linearGradient><linearGradient id="linear-gradient-2" x1="263.06" y1="137.32" x2="337.79" y2="137.32" xlink:href="#linear-gradient"/><linearGradient id="linear-gradient-3" x1="263.06" y1="205.82" x2="337.79" y2="205.82" xlink:href="#linear-gradient"/><linearGradient id="linear-gradient-4" x1="50.02" y1="62.01" x2="348.83" y2="62.01" xlink:href="#linear-gradient"/><linearGradient id="linear-gradient-5" x1="56.53" y1="85.91" x2="87.67" y2="85.91" gradientUnits="userSpaceOnUse"><stop offset="0" stop-color="#acf769"/><stop offset="1" stop-color="#97ce47"/></linearGradient><linearGradient id="linear-gradient-6" x1="107.54" y1="125.12" x2="257.29" y2="125.12" xlink:href="#linear-gradient"/><linearGradient id="linear-gradient-7" x1="107.54" y1="194.24" x2="257.29" y2="194.24" xlink:href="#linear-gradient"/><linearGradient id="linear-gradient-8" x1="-7242.04" y1="52.81" x2="-7164.24" y2="52.81" gradientTransform="matrix(-1, 0, 0, 1, -7143.52, 0)" gradientUnits="userSpaceOnUse"><stop offset="0" stop-color="#ccc" stop-opacity="0.25"/><stop offset="1" stop-color="#999" stop-opacity="0"/></linearGradient><linearGradient id="linear-gradient-9" x1="-7489.88" y1="33.21" x2="-7403.24" y2="33.21" xlink:href="#linear-gradient-8"/><linearGradient id="linear-gradient-10" x1="114.3" y1="16.56" x2="164.71" y2="16.56" gradientTransform="matrix(1, 0, 0, 1, 0, 0)" xlink:href="#linear-gradient-8"/><linearGradient id="linear-gradient-11" x1="215.58" y1="11.65" x2="253.26" y2="11.65" gradientUnits="userSpaceOnUse"><stop offset="0" stop-color="#69e0f7"/><stop offset="1" stop-color="#1090f3"/></linearGradient><linearGradient id="linear-gradient-12" x1="149.14" y1="18.72" x2="245.48" y2="18.72" xlink:href="#linear-gradient-11"/><linearGradient id="linear-gradient-13" x1="178.66" y1="23.04" x2="191.51" y2="23.04" gradientUnits="userSpaceOnUse"><stop offset="0" stop-color="#30cfd0"/><stop offset="1" stop-color="#330867"/></linearGradient><linearGradient id="linear-gradient-14" x1="171.31" y1="16.56" x2="206.31" y2="16.56" xlink:href="#linear-gradient-11"/><linearGradient id="linear-gradient-15" x1="178.99" y1="231.72" x2="262.1" y2="231.72" xlink:href="#linear-gradient-13"/><linearGradient id="linear-gradient-16" x1="196.65" y1="165.51" x2="233.18" y2="165.51" gradientUnits="userSpaceOnUse"><stop offset="0" stop-color="#330867"/><stop offset="1" stop-color="#30cfd0"/></linearGradient><linearGradient id="linear-gradient-17" x1="173.11" y1="157.51" x2="213.97" y2="157.51" xlink:href="#linear-gradient-16"/><linearGradient id="linear-gradient-18" x1="170.19" y1="211.8" x2="267.82" y2="211.8" xlink:href="#linear-gradient-16"/><linearGradient id="linear-gradient-19" x1="135.02" y1="245.47" x2="139.6" y2="245.47" xlink:href="#linear-gradient-5"/><linearGradient id="linear-gradient-20" x1="173.24" y1="245.47" x2="177.83" y2="245.47" xlink:href="#linear-gradient-5"/><linearGradient id="linear-gradient-21" x1="260.73" y1="459.9" x2="305.33" y2="459.9" gradientTransform="matrix(0.99, -0.1, 0.1, 0.99, -102.99, -276)" xlink:href="#linear-gradient-16"/><linearGradient id="linear-gradient-22" x1="-3865.53" y1="-2704.33" x2="-3840.84" y2="-2704.33" gradientTransform="matrix(-0.28, -0.96, -0.96, 0.28, -3410.89, -2819.22)" gradientUnits="userSpaceOnUse"><stop offset="0" stop-color="#dbf9ea"/><stop offset="1" stop-color="#c0dde2"/></linearGradient><linearGradient id="linear-gradient-23" x1="-3839.94" y1="-2705.88" x2="-3867.08" y2="-2701.43" gradientTransform="matrix(-0.28, -0.96, -0.96, 0.28, -3410.89, -2819.22)" gradientUnits="userSpaceOnUse"><stop offset="0" stop-color="#dbf9ea"/><stop offset="0.97" stop-color="#fff"/></linearGradient><linearGradient id="linear-gradient-24" x1="-3861.9" y1="-2699.65" x2="-3856.2" y2="-2698.83" xlink:href="#linear-gradient-22"/><linearGradient id="linear-gradient-25" x1="-28.35" y1="-485.36" x2="-9.22" y2="-501.48" gradientTransform="translate(152.67 620.26) rotate(13.98)" gradientUnits="userSpaceOnUse"><stop offset="0" stop-color="#25e581"/><stop offset="1" stop-color="#c4e138"/></linearGradient><linearGradient id="linear-gradient-26" x1="790.07" y1="-2255.79" x2="794.14" y2="-2254.65" gradientTransform="matrix(0.28, 0.96, 0.96, -0.28, 2202.24, -1253.69)" gradientUnits="userSpaceOnUse"><stop offset="0" stop-color="#5d278f"/><stop offset="1" stop-color="#292376"/></linearGradient><linearGradient id="linear-gradient-27" x1="790.18" y1="-2256.18" x2="794.25" y2="-2255.04" xlink:href="#linear-gradient-26"/><linearGradient id="linear-gradient-28" x1="-27.8" y1="-491.51" x2="-13.98" y2="-503.16" gradientTransform="translate(152.67 620.26) rotate(13.98)" gradientUnits="userSpaceOnUse"><stop offset="0" stop-color="#fff" stop-opacity="0.25"/><stop offset="1" stop-color="#dbf9ea" stop-opacity="0"/></linearGradient></defs><title>leave management</title><g id="Layer_2" data-name="Layer 2"><g id="Items"><g class="cls-1"><ellipse class="cls-2" cx="193.85" cy="277.31" rx="137.32" ry="8.18"/></g><g class="cls-3"><rect class="cls-4" x="50.02" y="52.81" width="46.91" height="188.74"/></g><g class="cls-3"><rect class="cls-5" x="263.06" y="93.27" width="74.72" height="88.1" rx="2.25" ry="2.25"/></g><g class="cls-3"><rect class="cls-6" x="263.06" y="185.54" width="74.72" height="40.55" rx="2.25" ry="2.25"/></g><g class="cls-7"><circle class="cls-8" cx="270.18" cy="102.05" r="1.8"/></g><g class="cls-7"><circle class="cls-8" cx="273.36" cy="117.56" r="4.99"/></g><g class="cls-7"><path class="cls-8" d="M302.68,116.52H282.87a1,1,0,1,1,0-2h19.81a1,1,0,1,1,0,2Z"/><path class="cls-8" d="M323.85,121.52h-41a1,1,0,1,1,0-2h41a1,1,0,1,1,0,2Z"/></g><g class="cls-7"><circle class="cls-9" cx="273.36" cy="135.72" r="4.99"/><path class="cls-8" d="M302.68,134.52H282.87a1,1,0,1,1,0-2h19.81a1,1,0,1,1,0,2Z"/><path class="cls-8" d="M323.85,139.52h-41a1,1,0,1,1,0-2h41a1,1,0,1,1,0,2Z"/></g><g class="cls-7"><circle class="cls-8" cx="273.36" cy="153.88" r="4.99"/></g><g class="cls-7"><path class="cls-8" d="M302.68,152.52H282.87a1,1,0,1,1,0-2h19.81a1,1,0,1,1,0,2Z"/><path class="cls-8" d="M323.85,157.52h-41a1,1,0,1,1,0-2h41a1,1,0,1,1,0,2Z"/></g><g class="cls-7"><path class="cls-8" d="M302.68,171.52H282.87a1,1,0,1,1,0-2h19.81a1,1,0,1,1,0,2Z"/><path class="cls-8" d="M323.85,176.52h-41a1,1,0,1,1,0-2h41a1,1,0,1,1,0,2Z"/></g><g class="cls-7"><circle class="cls-9" cx="273.36" cy="172.04" r="4.99"/></g><g class="cls-10"><rect class="cls-11" x="50.02" y="52.81" width="298.81" height="18.4"/></g><g class="cls-3"><circle class="cls-12" cx="307.58" cy="62.62" r="4.54"/></g><g class="cls-3"><path class="cls-8" d="M335.55,63.52H315.74a1,1,0,1,1,0-2h19.81a1,1,0,1,1,0,2Z"/></g><path class="cls-13" d="M87.67,85.91c0,2.5-2.53,4.54-5.63,4.54H62.16c-3.1,0-5.63-2-5.63-4.54s2.53-4.53,5.63-4.53H82C85.14,81.38,87.67,83.42,87.67,85.91Z"/><g class="cls-3"><rect class="cls-12" x="107.54" y="58.08" width="46.35" height="9.07" rx="4.5" ry="4.5"/></g><g class="cls-3"><circle class="cls-8" cx="58.23" cy="135.3" r="1.7"/><path class="cls-8" d="M87.67,136.52H64.26a1,1,0,1,1,0-2H87.67a1,1,0,1,1,0,2Z"/></g><g class="cls-3"><circle class="cls-8" cx="58.23" cy="151.35" r="1.7"/><path class="cls-8" d="M87.67,152.52H64.26a1,1,0,1,1,0-2H87.67a1,1,0,1,1,0,2Z"/></g><g class="cls-3"><circle class="cls-8" cx="58.23" cy="167.41" r="1.7"/><path class="cls-8" d="M87.67,168.52H64.26a1,1,0,1,1,0-2H87.67a1,1,0,1,1,0,2Z"/></g><g class="cls-3"><circle class="cls-8" cx="58.23" cy="183.46" r="1.7"/><path class="cls-8" d="M87.67,184.52H64.26a1,1,0,1,1,0-2H87.67a1,1,0,1,1,0,2Z"/></g><g class="cls-3"><circle class="cls-8" cx="58.23" cy="199.52" r="1.7"/><path class="cls-8" d="M87.67,200.52H64.26a1,1,0,1,1,0-2H87.67a1,1,0,1,1,0,2Z"/></g><g class="cls-3"><circle class="cls-8" cx="58.23" cy="215.58" r="1.7"/><path class="cls-8" d="M87.67,216.52H64.26a1,1,0,1,1,0-2H87.67a1,1,0,1,1,0,2Z"/></g><g class="cls-3"><circle class="cls-8" cx="58.23" cy="103.18" r="1.7"/><path class="cls-8" d="M87.67,104.52H64.26a1,1,0,1,1,0-2H87.67a1,1,0,1,1,0,2Z"/></g><g class="cls-3"><circle class="cls-8" cx="58.23" cy="119.24" r="1.7"/><path class="cls-8" d="M87.67,120.52H64.26a1,1,0,1,1,0-2H87.67a1,1,0,1,1,0,2Z"/></g><g class="cls-7"><path class="cls-8" d="M323.85,103.52h-41a1,1,0,1,1,0-2h41a1,1,0,1,1,0,2Z"/></g><path class="cls-12" d="M59.37,63.32a.09.09,0,0,1,.07,0l.18.2a1.48,1.48,0,0,1-.51.38,1.74,1.74,0,0,1-.72.14,1.78,1.78,0,0,1-.67-.13,1.61,1.61,0,0,1-.52-.36,1.68,1.68,0,0,1-.33-.55,2,2,0,0,1-.11-.71,2,2,0,0,1,.12-.71,1.59,1.59,0,0,1,.34-.56,1.66,1.66,0,0,1,.53-.36,1.87,1.87,0,0,1,.68-.13,1.64,1.64,0,0,1,.65.12,1.8,1.8,0,0,1,.49.32l-.15.21,0,0-.06,0a.25.25,0,0,1-.11-.05.74.74,0,0,0-.16-.1A1.17,1.17,0,0,0,58.8,61a1.51,1.51,0,0,0-.86.05,1.08,1.08,0,0,0-.37.26,1.22,1.22,0,0,0-.25.43,1.85,1.85,0,0,0,0,1.14,1.23,1.23,0,0,0,.25.42,1,1,0,0,0,.38.27,1.19,1.19,0,0,0,.47.09l.27,0a.86.86,0,0,0,.23-.06.66.66,0,0,0,.19-.09l.18-.14A.1.1,0,0,1,59.37,63.32Z"/><path class="cls-12" d="M60,62a1.31,1.31,0,0,1,.43-.29,1.46,1.46,0,0,1,.52-.1,1,1,0,0,1,.36.07.83.83,0,0,1,.26.19.68.68,0,0,1,.16.29,1.06,1.06,0,0,1,.06.37V64H61.6l-.1,0s0,0,0-.08l-.05-.23-.18.16L61,64a.81.81,0,0,1-.22.07,1,1,0,0,1-.25,0,1.26,1.26,0,0,1-.27,0,.72.72,0,0,1-.21-.12.62.62,0,0,1-.15-.2.84.84,0,0,1,0-.29.47.47,0,0,1,.08-.27.72.72,0,0,1,.25-.24,2,2,0,0,1,.46-.17,3.44,3.44,0,0,1,.7-.07v-.19a.67.67,0,0,0-.12-.43.45.45,0,0,0-.35-.14.7.7,0,0,0-.27,0,.51.51,0,0,0-.18.09l-.14.08a.15.15,0,0,1-.11,0,.08.08,0,0,1-.07,0l-.06,0Zm1.37,1a3.37,3.37,0,0,0-.5.05,1.1,1.1,0,0,0-.33.09.49.49,0,0,0-.19.14.33.33,0,0,0-.06.19.41.41,0,0,0,0,.16.31.31,0,0,0,.08.11l.13.07.16,0,.2,0,.18-.07.16-.1a.93.93,0,0,0,.14-.14Z"/><path class="cls-12" d="M62.87,60.51v2.07h.19a.17.17,0,0,0,.06-.06l.77-.82.07-.06a.15.15,0,0,1,.1,0h.38l-.89,1a.53.53,0,0,1-.14.12.27.27,0,0,1,.08.07l.07.08L64.5,64h-.38L64,64A.13.13,0,0,1,64,64l-.8-1a.13.13,0,0,0-.07-.06l-.1,0h-.12V64h-.43V60.51Z"/><path class="cls-12" d="M66.7,63.69a1.54,1.54,0,0,1-.19.17,1.75,1.75,0,0,1-.24.11L66,64a1.14,1.14,0,0,1-.26,0,1.45,1.45,0,0,1-.47-.08,1,1,0,0,1-.36-.25,1.27,1.27,0,0,1-.24-.41,1.55,1.55,0,0,1-.09-.55,1.4,1.4,0,0,1,.08-.47,1.24,1.24,0,0,1,.22-.39,1.16,1.16,0,0,1,.36-.25,1.19,1.19,0,0,1,.47-.09,1.1,1.1,0,0,1,.41.07,1,1,0,0,1,.32.21,1,1,0,0,1,.21.34,1.35,1.35,0,0,1,.07.46.26.26,0,0,1,0,.14s0,0-.08,0H65a1.51,1.51,0,0,0,.07.4.75.75,0,0,0,.15.28.66.66,0,0,0,.24.17.78.78,0,0,0,.31.06.79.79,0,0,0,.28,0,.93.93,0,0,0,.2-.08l.14-.08a.26.26,0,0,1,.1,0,.12.12,0,0,1,.08,0Zm-.35-1.14a.77.77,0,0,0,0-.27.72.72,0,0,0-.12-.21.48.48,0,0,0-.2-.14.67.67,0,0,0-.26,0,.65.65,0,0,0-.48.18.83.83,0,0,0-.22.49Z"/><path class="cls-12" d="M70.06,60.6V64H69.6V62.47H67.75V64h-.46V60.6h.46v1.53H69.6V60.6Z"/><path class="cls-12" d="M73.47,64h-.41a.21.21,0,0,1-.19-.1L72,62.71a.24.24,0,0,0-.08-.09l-.15,0H71.4V64h-.46V60.6h1a1.91,1.91,0,0,1,.56.07,1,1,0,0,1,.39.19.76.76,0,0,1,.23.3,1,1,0,0,1,.07.39,1.21,1.21,0,0,1,0,.34.88.88,0,0,1-.17.28.84.84,0,0,1-.27.22,1.21,1.21,0,0,1-.35.13.43.43,0,0,1,.15.15Zm-1.58-1.77a1,1,0,0,0,.35,0,.66.66,0,0,0,.42-.35.76.76,0,0,0,0-.27.58.58,0,0,0-.2-.47,1,1,0,0,0-.6-.15H71.4v1.29Z"/><g class="cls-3"><rect class="cls-14" x="107.54" y="93.27" width="149.75" height="63.7" rx="2.25" ry="2.25"/></g><g class="cls-7"><circle class="cls-8" cx="112.92" cy="102.05" r="1.7"/></g><g class="cls-7"><path class="cls-8" d="M160.39,103.52h-41a1,1,0,1,1,0-2h41a1,1,0,1,1,0,2Z"/></g><g class="cls-7"><rect class="cls-15" x="111.22" y="111.54" width="142.49" height="6.65" rx="1.13" ry="1.13"/></g><g class="cls-7"><rect class="cls-15" x="111.22" y="133.81" width="142.49" height="14.97" rx="1.13" ry="1.13"/></g><g class="cls-7"><circle class="cls-8" cx="117.06" cy="141.43" r="4.14"/></g><g class="cls-7"><circle class="cls-8" cx="117.06" cy="125.82" r="4.14"/></g><g class="cls-16"><rect class="cls-9" x="134.94" y="111.54" width="18.87" height="37.24"/></g><g class="cls-7"><circle class="cls-17" cx="243.62" cy="125.71" r="3.47"/></g><g class="cls-7"><circle class="cls-18" cx="232.48" cy="125.71" r="3.47"/></g><g class="cls-7"><rect class="cls-19" x="177.04" y="137.96" width="70.05" height="6.94" rx="3.38" ry="3.38"/></g><g class="cls-7"><rect class="cls-20" x="177.04" y="122.35" width="33.5" height="6.94" rx="3.38" ry="3.38"/></g><g class="cls-7"><circle class="cls-21" cx="162.69" cy="125.76" r="3.47"/></g><g class="cls-7"><circle class="cls-20" cx="144.37" cy="141.43" r="3.47"/></g><path class="cls-12" d="M113.16,64.18a1.53,1.53,0,1,1,1.52-1.53A1.52,1.52,0,0,1,113.16,64.18Zm0-2.38a.86.86,0,1,0,.85.85A.85.85,0,0,0,113.16,61.8Z"/><g class="cls-7"><path class="cls-8" d="M127.3,124.52h-3.61a1,1,0,1,1,0-2h3.61a1,1,0,1,1,0,2Z"/><path class="cls-8" d="M131.35,129.52h-7.66a1,1,0,1,1,0-2h7.66a1,1,0,1,1,0,2Z"/></g><g class="cls-7"><path class="cls-8" d="M127.3,140.52h-3.61a1,1,0,1,1,0-2h3.61a1,1,0,1,1,0,2Z"/><path class="cls-8" d="M131.35,145.52h-7.66a1,1,0,1,1,0-2h7.66a1,1,0,1,1,0,2Z"/></g><g class="cls-3"><rect class="cls-22" x="107.54" y="162.39" width="149.75" height="63.7" rx="2.25" ry="2.25"/></g><g class="cls-7"><circle class="cls-8" cx="112.92" cy="171.17" r="1.7"/></g><g class="cls-7"><path class="cls-8" d="M160.39,172.52h-41a1,1,0,1,1,0-2h41a1,1,0,1,1,0,2Z"/></g><g class="cls-7"><circle class="cls-18" cx="117.06" cy="202.29" r="4.14"/></g><g class="cls-7"><circle class="cls-23" cx="117.06" cy="186.56" r="4.14"/></g><g class="cls-7"><path class="cls-20" d="M157.65,186.56a2,2,0,0,1-2.25,1.74H143.16a1.8,1.8,0,1,1,0-3.47H155.4A2,2,0,0,1,157.65,186.56Z"/></g><g class="cls-7"><path class="cls-20" d="M157.65,202.18a2,2,0,0,1-2.25,1.73H143.16a1.8,1.8,0,1,1,0-3.47H155.4A2,2,0,0,1,157.65,202.18Z"/></g><g class="cls-7"><path class="cls-8" d="M130.22,200.52h-4.73a1,1,0,1,1,0-2h4.73a1,1,0,1,1,0,2Z"/><path class="cls-8" d="M135.63,205.52H125.49a1,1,0,1,1,0-2h10.14a1,1,0,1,1,0,2Z"/></g><g class="cls-7"><path class="cls-8" d="M130.22,185.52h-4.73a1,1,0,1,1,0-2h4.73a1,1,0,1,1,0,2Z"/><path class="cls-8" d="M135.63,190.52H125.49a1,1,0,1,1,0-2h10.14a1,1,0,1,1,0,2Z"/></g><circle class="cls-12" cx="61.6" cy="85.85" r="1.7"/><path class="cls-12" d="M82.72,87.52h-16a1,1,0,1,1,0-2h16a1,1,0,1,1,0,2Z"/><path id="_Path_" data-name="&lt;Path&gt;" class="cls-24" d="M61.78,116.07l-.26,0a14.63,14.63,0,0,0,.26-2.66,14.2,14.2,0,0,0-23.33-10.88,11.55,11.55,0,0,0-21.83,3.62h-.1a16.52,16.52,0,0,0,0,33H61.78a11.57,11.57,0,0,0,0-23.13Z"/><path id="_Path_2" data-name="&lt;Path&gt;" class="cls-25" d="M33,51.15h.27A15.32,15.32,0,0,1,33,48.34,15.07,15.07,0,0,1,57.74,36.8a12.25,12.25,0,0,1,23.15,3.84H81a17.53,17.53,0,0,1,0,35.05H33a12.27,12.27,0,0,1,0-24.53Z"/><path id="_Path_3" data-name="&lt;Path&gt;" class="cls-26" d="M273.39,31.36l.3,0a17.14,17.14,0,0,1-.3-3.14A16.78,16.78,0,0,1,301,15.38a13.64,13.64,0,0,1,25.78,4.28h.12a19.52,19.52,0,1,1,0,39H273.39a13.66,13.66,0,1,1,0-27.32Z"/><path id="_Path_4" data-name="&lt;Path&gt;" class="cls-27" d="M156.76,15.48h-.17a9.94,9.94,0,0,0,.17-1.82,9.75,9.75,0,0,0-16-7.48,7.94,7.94,0,0,0-15,2.48h-.08a11.36,11.36,0,0,0,0,22.71h31.11a7.95,7.95,0,1,0,0-15.9Z"/><g class="cls-28"><path class="cls-29" d="M242.77,23.31,253.26.78,248.8,0,231.7,13.41A10.55,10.55,0,0,1,226,15.63l-10.41.87L234.11,23Z"/><path class="cls-30" d="M159.87,17.62l57.58,12.3c24.59,2,28.11-1.14,28-5.93l-29.06-7.32s-41.48-7.92-45.58-8.62a50.68,50.68,0,0,0-11.38-1.12c-4.16.14-5,.74-6.1,1.84-4.56.77-5.64,2-2.18,4.6A24.76,24.76,0,0,0,159.87,17.62Z"/><path class="cls-31" d="M181,19.25l9.44,2.38a1.37,1.37,0,0,1,1,1.59l-.55,2.59a1.38,1.38,0,0,1-1.6,1l-9.6-1.6a1.33,1.33,0,0,1-1-1.6l.72-3.36A1.33,1.33,0,0,1,181,19.25Z"/><path class="cls-32" d="M171.31,18.18l3.53-.34,15.52.86c1.73.42,10-3.78,14.07-8.51l1.88.41-6.5,9.16A6.75,6.75,0,0,1,195,22.93l-11.63-2.22Z"/><rect class="cls-33" x="196.05" y="25.56" width="1.64" height="0.78" transform="translate(130.44 213.09) rotate(-77.96)"/><rect class="cls-33" x="196.54" y="26.21" width="0.28" height="1.33" transform="translate(129.32 213.61) rotate(-77.95)"/><rect class="cls-33" x="195.88" y="27.24" width="1.32" height="0.64" transform="translate(128.64 214.04) rotate(-77.97)"/><path class="cls-34" d="M198.43,27.76a1.11,1.11,0,0,0-1.44-.31h0Z"/><path class="cls-34" d="M196.59,29a1.12,1.12,0,1,0,1.88-1.22A1.12,1.12,0,0,0,196.59,29Z"/><path class="cls-34" d="M196.59,29a1.12,1.12,0,1,0,1.88-1.22Z"/><path class="cls-34" d="M198,28.14a.51.51,0,1,0-.86.56Z"/><path class="cls-34" d="M197.1,28.7a.51.51,0,1,0,.86-.56Z"/><path class="cls-34" d="M197.81,28.24a.33.33,0,1,1-.56.36Z"/><path class="cls-34" d="M197.25,28.6a.33.33,0,0,1,.56-.36Z"/><path class="cls-34" d="M197.69,28.32a.18.18,0,0,1-.06.26.19.19,0,0,1-.26,0Z"/><path class="cls-34" d="M197.37,28.53a.2.2,0,0,1,.06-.27.18.18,0,0,1,.26.06Z"/><path class="cls-34" d="M192.54,23.9l8.07,1.72a.66.66,0,0,1,.51.79h0a.68.68,0,0,1-.79.52l-8.07-1.73a.66.66,0,0,1-.51-.79h0A.66.66,0,0,1,192.54,23.9Z"/><rect class="cls-33" x="169.06" y="19.8" width="1.64" height="0.78" transform="translate(114.81 182.16) rotate(-78)"/><rect class="cls-33" x="169.55" y="20.45" width="0.28" height="1.33" transform="translate(113.55 182.63) rotate(-77.93)"/><rect class="cls-33" x="169.21" y="21.21" width="0.78" height="0.64" transform="translate(113.18 182.91) rotate(-77.97)"/><path class="cls-34" d="M170.92,21.88a1.11,1.11,0,0,0-1.43-.31h0Z"/><path class="cls-34" d="M169.09,23.15a1.11,1.11,0,1,0,.33-1.54A1.13,1.13,0,0,0,169.09,23.15Z"/><path class="cls-34" d="M169.09,23.15A1.11,1.11,0,0,0,171,21.94Z"/><path class="cls-34" d="M170.46,22.27a.52.52,0,0,0-.71-.16.53.53,0,0,0-.16.72Z"/><path class="cls-34" d="M169.59,22.83a.52.52,0,0,0,.72.15.51.51,0,0,0,.15-.71Z"/><path class="cls-34" d="M170.31,22.37a.33.33,0,0,1-.56.36Z"/><path class="cls-34" d="M169.75,22.73a.33.33,0,1,1,.56-.36Z"/><path class="cls-34" d="M170.19,22.44a.2.2,0,0,1-.06.27.18.18,0,0,1-.26-.06Z"/><path class="cls-34" d="M169.87,22.65a.19.19,0,0,1,0-.26.19.19,0,0,1,.27.05Z"/><path class="cls-34" d="M166.38,18.2l8.06,1.72a.67.67,0,0,1,.51.8h0a.66.66,0,0,1-.79.51l-8.06-1.72a.68.68,0,0,1-.52-.79h0A.68.68,0,0,1,166.38,18.2Z"/><path class="cls-34" d="M153.36,8.77l1.81,1.16a2.38,2.38,0,0,0,1.57-1.12l-2.16-1A4.43,4.43,0,0,0,153.36,8.77Z"/><rect class="cls-33" x="168.15" y="12.29" width="2.35" height="1.68" rx="0.59" ry="0.59" transform="translate(121.21 176) rotate(-77.98)"/><rect class="cls-33" x="170.61" y="12.81" width="2.35" height="1.68" rx="0.59" ry="0.59" transform="matrix(0.21, -0.98, 0.98, 0.21, 122.52, 178.79)"/><rect class="cls-33" x="173.07" y="13.34" width="2.35" height="1.68" rx="0.59" ry="0.59" transform="translate(124.03 181.63) rotate(-77.96)"/><rect class="cls-33" x="175.53" y="13.86" width="2.35" height="1.68" rx="0.59" ry="0.59" transform="translate(125.38 184.43) rotate(-77.93)"/><rect class="cls-33" x="177.99" y="14.39" width="2.35" height="1.68" rx="0.59" ry="0.59" transform="matrix(0.21, -0.98, 0.98, 0.21, 126.73, 187.23)"/><polygon class="cls-34" points="189.9 21.5 190.44 21.63 190.5 21.65 189.39 26.85 189.33 26.84 188.78 26.75 189.9 21.5"/><polygon class="cls-34" points="181.42 19.35 182.01 19.5 180.75 25.41 180.15 25.31 181.42 19.35"/><rect class="cls-33" x="180.5" y="14.92" width="2.35" height="1.68" rx="0.59" ry="0.59" transform="translate(128.27 190.12) rotate(-77.93)"/><rect class="cls-33" x="182.96" y="15.45" width="2.35" height="1.68" rx="0.59" ry="0.59" transform="translate(129.79 192.97) rotate(-77.96)"/><rect class="cls-33" x="185.42" y="15.97" width="2.35" height="1.68" rx="0.59" ry="0.59" transform="translate(131.22 195.79) rotate(-77.96)"/><rect class="cls-33" x="187.88" y="16.5" width="2.35" height="1.68" rx="0.59" ry="0.59" transform="translate(132.61 198.6) rotate(-77.94)"/><rect class="cls-33" x="190.34" y="17.03" width="2.35" height="1.68" rx="0.59" ry="0.59" transform="matrix(0.21, -0.98, 0.98, 0.21, 134.09, 201.44)"/><rect class="cls-33" x="192.8" y="17.55" width="2.35" height="1.68" rx="0.59" ry="0.59" transform="translate(135.43 204.23) rotate(-77.93)"/><rect class="cls-33" x="165.69" y="11.76" width="2.35" height="1.68" rx="0.59" ry="0.59" transform="translate(119.65 173.14) rotate(-77.93)"/><rect class="cls-33" x="163.23" y="11.24" width="2.35" height="1.68" rx="0.59" ry="0.59" transform="translate(118.27 170.33) rotate(-77.95)"/><rect class="cls-33" x="201.12" y="19.33" width="2.35" height="1.68" rx="0.59" ry="0.59" transform="translate(140.37 213.81) rotate(-77.96)"/><rect class="cls-33" x="203.58" y="19.86" width="2.35" height="1.68" rx="0.59" ry="0.59" transform="translate(141.62 216.57) rotate(-77.91)"/><rect class="cls-33" x="206.04" y="20.38" width="2.35" height="1.68" rx="0.59" ry="0.59" transform="translate(143.24 219.45) rotate(-77.96)"/><rect class="cls-33" x="208.54" y="20.92" width="2.35" height="1.68" rx="0.59" ry="0.59" transform="translate(144.61 222.29) rotate(-77.93)"/><rect class="cls-33" x="211.01" y="21.44" width="2.35" height="1.68" rx="0.59" ry="0.59" transform="translate(146.13 225.14) rotate(-77.96)"/><rect class="cls-33" x="213.47" y="21.97" width="2.35" height="1.68" rx="0.59" ry="0.59" transform="translate(147.37 227.9) rotate(-77.91)"/><rect class="cls-33" x="213.47" y="21.97" width="2.35" height="1.68" rx="0.59" ry="0.59" transform="translate(147.37 227.9) rotate(-77.91)"/><rect class="cls-33" x="215.93" y="22.49" width="2.35" height="1.68" rx="0.59" ry="0.59" transform="translate(148.99 230.79) rotate(-77.96)"/><rect class="cls-33" x="218.39" y="23.02" width="2.35" height="1.68" rx="0.59" ry="0.59" transform="translate(150.32 233.58) rotate(-77.93)"/><rect class="cls-33" x="220.89" y="23.55" width="2.35" height="1.68" rx="0.59" ry="0.59" transform="translate(151.89 236.48) rotate(-77.96)"/><path class="cls-34" d="M196.25,27.29a1.12,1.12,0,0,0-1.44-.31h0Z"/><path class="cls-34" d="M194.41,28.56a1.12,1.12,0,1,0,.33-1.54A1.12,1.12,0,0,0,194.41,28.56Z"/><path class="cls-34" d="M194.41,28.56a1.12,1.12,0,0,0,1.88-1.21Z"/><path class="cls-34" d="M195.78,27.67a.52.52,0,1,0-.86.57Z"/><path class="cls-34" d="M194.92,28.24a.52.52,0,1,0,.86-.57Z"/><path class="cls-34" d="M195.63,27.78a.33.33,0,0,1-.56.36Z"/><path class="cls-34" d="M195.07,28.14a.34.34,0,0,1,.1-.46.33.33,0,0,1,.46.1Z"/><path class="cls-34" d="M195.51,27.85a.2.2,0,0,1-.06.27.19.19,0,0,1-.26-.06Z"/><path class="cls-34" d="M195.19,28.06a.19.19,0,1,1,.32-.21Z"/></g><path class="cls-35" d="M265.66,141.71c101.46-50.94,37.66-108.5-16-112.59"/><path class="cls-36" d="M198.46,118.21c0-.24,4-5.94,3.94-5.38,1.12-2.65-3.44-10.17-3.25-11.07.38-1.83,2.81-1.16,3.2-3,.79-3.66,4.7,1.28,5.41-2.4a12.18,12.18,0,0,0,.16-3.65c4-3.78,12.24-.95,13.15-.49,0,0,.15.21.38.56.68.16,1.45.39,2.32.69.51,2.16-.48,5.71-.79,6.82a6.84,6.84,0,0,0,0,4.9c1.81,4.06,3.05,3.38,1.81,4.06s-2.61.8-2.75,1.89.12,1.52-.28,1.76a.62.62,0,0,1,0-.1,9.66,9.66,0,0,1-2.94,0,5,5,0,0,0,2.3.86.15.15,0,0,1,0,.07c.07.64,0,1.1-.86,1.28s-1.12,4.17-1.42,4.33c-1.57.82-5.42-1.4-7.81-2.93v0a8.6,8.6,0,0,1-3.59-2.64,16.92,16.92,0,0,1-1.87-4.19s.51,3.84,1.2,4.81a6.14,6.14,0,0,0,3.76,2.78,29.81,29.81,0,0,0-2,11.52c.23,6.16-1.41,5-1.65,5.59-.17.42-4,3.56-5.79.5C201.53,131.64,197.94,121.22,198.46,118.21Z"/><path class="cls-37" d="M218.61,90.19c-7.57-7.73-15.61.89-19.16,9a7.32,7.32,0,0,1,.59,2c.21,1.86,22.08-3,23.33-7.43a2.35,2.35,0,0,1,2.3,2.69C227.58,93,222.89,90.23,218.61,90.19Z"/><path class="cls-38" d="M195.59,197.19c2,0,39.31.16,40.88-.32a6.66,6.66,0,0,1,7.69,3.95c2.49,5.35,14.46,58.11,17.91,65.33.63,1.31-10.14.3-10.14-1.16,0-13.84-17.24-34.39-16.8-50.32a93.47,93.47,0,0,1-24.45,2.2c-14.25-.48-30.55-.72-31.64-3.74S195.59,197.19,195.59,197.19Z"/><path class="cls-39" d="M205,147.57c-.36,1.21,1.63,23.08,2.84,23.81s24.49,9,25.12,9.1,0,3-.38,3-28-2.87-30.95-4.8-4.94-21.41-4.94-21.41Z"/><path class="cls-40" d="M213.44,141.48c1.56,11.55.15,14.5-10.93,16.26-5,7.53-3.92,14.54-4.95,29-.18,2.59-25.16,14.76-24.43-1.18.74-16.32,5.29-57,21.59-63.2C197.56,121.31,210.1,116.8,213.44,141.48Z"/><path class="cls-41" d="M174.3,185.22s-6.85,16.07-2.87,24.65,20.59,5.91,27.18,3.26c8.64-3.48,34.44-12.38,40-16.42,2.5,12.42,8.65,25.3,22.68,42,2.37,2.81,6.53-2.83,6.53-2.83C263,231,247.57,185.51,243.7,184.5c-6.57-1.71-47.21,3.39-47.21,3.39Z"/><path class="cls-42" d="M251.12,263.64c-1.58,1.17-2.82,5.37-2,9.8,0,0-.06,2.36.8,3s8.92-.18,14.24-.08a63,63,0,0,0,10.67-.31c7.31-.54,8.79-3.39,6.9-4.75s-7.14-.14-13.18-4.29-5.81-5.09-7.17-4.72-.61,2.7-.45,3.22S251.93,265,251.12,263.64Z"/><path class="cls-42" d="M260.55,238c-.21,1.59,2.15,6.39,3.59,8.33,3.9,5.24,15.93-10.1,18.45-13.55,3.68-5,2.34-8.63.71-8.22s-10.47,5.5-13.14,5.91-4.65-.76-5.18-.24a1.43,1.43,0,0,0,.59,2.27C266.15,234.73,266.24,238.56,260.55,238Z"/><path class="cls-43" d="M141,213.68s1.41,0,1.69-.5,1.3-4.23,3.47-6.12c1.77-1.53,6.27-1.5,8.93-1.45s7.16-.08,8.92,1.45c2.17,1.89,3.2,5.56,3.48,6.12s1.68.5,1.68.5l0,1.51c-4.86.32-2.87-2.72-6.19-5.91-.87-.83-1.63-.55-3.93-.1a76.43,76.43,0,0,1-8,0c-2.29-.45-3.06-.73-3.93.1-3.32,3.19-1.33,6.23-6.18,5.91Z"/><rect class="cls-44" x="137.43" y="212.94" width="4.15" height="3.77" rx="1.03" ry="1.03"/><rect class="cls-44" x="168.53" y="212.94" width="4.15" height="3.77" rx="1.03" ry="1.03"/><path class="cls-45" d="M117.35,215.37H195.5a6.53,6.53,0,0,1,6.53,6.53v47.28a6.54,6.54,0,0,1-6.54,6.54H117.35a6.54,6.54,0,0,1-6.54-6.54V221.91A6.53,6.53,0,0,1,117.35,215.37Z"/><path class="cls-46" d="M116.61,215.18h11.3L110.65,233V221.14A6,6,0,0,1,116.61,215.18Z"/><path class="cls-47" d="M123.34,217.73a.54.54,0,0,0,.54-.54.54.54,0,1,0-1.07,0A.54.54,0,0,0,123.34,217.73Z"/><path class="cls-47" d="M112.43,229.36a.54.54,0,0,0,.54-.54.54.54,0,0,0-1.08,0A.54.54,0,0,0,112.43,229.36Z"/><path class="cls-47" d="M113.77,218.57a.55.55,0,0,0,.54-.54.54.54,0,0,0-.54-.54.54.54,0,0,0-.54.54A.54.54,0,0,0,113.77,218.57Z"/><path class="cls-46" d="M116.61,276h11.3l-17.26-17.79V270A6,6,0,0,0,116.61,276Z"/><path class="cls-47" d="M123.34,274.5a.54.54,0,0,0,.54-.54.54.54,0,1,0-.54.54Z"/><path class="cls-47" d="M112.43,262.87a.54.54,0,0,0,.54-.54.54.54,0,0,0-1.08,0A.54.54,0,0,0,112.43,262.87Z"/><path class="cls-47" d="M113.77,273.66a.54.54,0,0,0,.54-.54.55.55,0,0,0-.54-.54.54.54,0,0,0-.54.54A.54.54,0,0,0,113.77,273.66Z"/><path class="cls-46" d="M196.48,215.18h-11.3L202.44,233V221.14A6,6,0,0,0,196.48,215.18Z"/><path class="cls-47" d="M189.75,217.73a.54.54,0,0,0,.54-.54.55.55,0,0,0-.54-.54.54.54,0,0,0-.54.54A.54.54,0,0,0,189.75,217.73Z"/><path class="cls-47" d="M200.66,229.36a.54.54,0,0,0,.54-.54.54.54,0,0,0-.54-.54.55.55,0,0,0-.54.54A.54.54,0,0,0,200.66,229.36Z"/><path class="cls-47" d="M199.32,218.57a.54.54,0,0,0,.54-.54.54.54,0,0,0-.54-.54.54.54,0,0,0-.54.54A.55.55,0,0,0,199.32,218.57Z"/><path class="cls-46" d="M196.48,276h-11.3l17.26-17.79V270A6,6,0,0,1,196.48,276Z"/><path class="cls-47" d="M189.75,274.5a.55.55,0,0,0,.54-.54.54.54,0,0,0-.54-.54.54.54,0,0,0-.54.54A.54.54,0,0,0,189.75,274.5Z"/><path class="cls-47" d="M200.66,262.87a.54.54,0,0,0,.54-.54.54.54,0,0,0-.54-.54.54.54,0,0,0-.54.54A.55.55,0,0,0,200.66,262.87Z"/><path class="cls-47" d="M199.32,273.66a.54.54,0,0,0,.54-.54.54.54,0,0,0-.54-.54.55.55,0,0,0-.54.54A.54.54,0,0,0,199.32,273.66Z"/><rect class="cls-48" x="135.02" y="214.82" width="4.59" height="61.3"/><path class="cls-49" d="M133.94,214.82h6.74v8.06a2.13,2.13,0,0,1-2.11,2.14h-2.52a2.13,2.13,0,0,1-2.11-2.14Z"/><path class="cls-50" d="M137.28,223.38a.73.73,0,1,0-.72-.73A.73.73,0,0,0,137.28,223.38Z"/><path class="cls-49" d="M133.94,276.22h6.74v-8.06a2.13,2.13,0,0,0-2.11-2.14h-2.52a2.13,2.13,0,0,0-2.11,2.14Z"/><path class="cls-50" d="M137.28,269.13a.74.74,0,1,0-.72-.74A.74.74,0,0,0,137.28,269.13Z"/><rect class="cls-51" x="173.24" y="214.82" width="4.59" height="61.3"/><path class="cls-49" d="M172.16,214.82h6.74v8.06a2.12,2.12,0,0,1-2.1,2.14h-2.53a2.13,2.13,0,0,1-2.11-2.14Z"/><path class="cls-50" d="M175.51,223.38a.73.73,0,1,0-.72-.73A.73.73,0,0,0,175.51,223.38Z"/><path class="cls-49" d="M172.16,276.22h6.74v-8.06a2.12,2.12,0,0,0-2.1-2.14h-2.53a2.13,2.13,0,0,0-2.11,2.14Z"/><path class="cls-50" d="M175.51,269.13a.74.74,0,0,0,0-1.47.74.74,0,0,0,0,1.47Z"/><path class="cls-52" d="M232.92,180.48c3.28,0,8.58.71,8.58.71s3.93,2.42,4.23,2.64,1.75,4.9,1.08,5.1c-.87.25-1.51-3.36-2.29-3.78l-2.24-1.21-.84.05s2.79,2.6,1.95,3.19-3.32-2-5.5-2.68c-.77.39-5.53-.8-5.35-1.05A18.86,18.86,0,0,0,232.92,180.48Z"/><path class="cls-34" d="M282.59,232.74c3.37-4.61,2.53-8,1.12-8.24.88,4.44-10.54,16.89-14.4,19.25a17.46,17.46,0,0,1-5.25,2.43l.08.11C268,251.53,280.07,236.19,282.59,232.74Z"/><path class="cls-34" d="M273.47,274c-3.09.69-21.62-.11-24.34.24a3.25,3.25,0,0,0,.78,2.2c.87.61,8.92-.18,14.24-.08a63,63,0,0,0,10.67-.31c7.31-.54,8.79-3.39,6.9-4.75a3.14,3.14,0,0,0-.78-.37A37.12,37.12,0,0,1,273.47,274Z"/><path class="cls-52" d="M264.15,229.43l-5.92,5.51c.8,1,1.62,2,2.47,3,5.54.52,5.45-3.26,4.87-5.51a1.43,1.43,0,0,1-.85-1.84C264.53,230.24,264.34,229.84,264.15,229.43Z"/><path class="cls-52" d="M259.63,258.87l-8.1,2.21a21.79,21.79,0,0,1,.38,3.11c2.42,1.06,9.14,1.73,9,1.29s-.64-2-.13-2.8C260.44,261.58,260.05,260.3,259.63,258.87Z"/><path class="cls-53" d="M203.92,85.11c-11.56,5-13.39,20-13.68,23.35-.14,14.14,12.37,21.93,19.2,18.55-8.91-10.08-5.09-18.25-5.09-18.25-2.71.55-2.69-3.49-1.58-6.34s2,.85,2,.85c.08,1.14,1.5.69,1.5.69.38-2.38,2.52-7.28,6.59-8.7,3.06-1.08-.39-1.68,1.7-3.6s6-1.12,6-1.12C219.79,87.35,211.37,81.88,203.92,85.11Z"/><polygon class="cls-36" points="245.28 149.58 246.76 144.16 250.96 146.87 248.02 152.1 245.28 149.58"/><path class="cls-54" d="M202.9,139.74c2.46,4.88,17.33,36.22,22.45,36.42S247.63,153.65,248,152.1s-2.74-2.52-2.74-2.52-17.7,14.09-19.78,13.94S216.21,138,212.79,134C206.39,126.48,198.51,133.53,202.9,139.74Z"/><path class="cls-36" d="M253.9,145.69c.61.17,1.23.37,1.65.51a1,1,0,0,1,.65,1c0,.33-.25.63-.88.61-1.17,0-3.5-.51-3.7-1.16S251.59,145.06,253.9,145.69Z"/><path class="cls-36" d="M253.9,145.69l.44.19c.26.11.62.24,1,.35l.26.08a1.55,1.55,0,0,1,.22.12,1,1,0,0,1,.29.34,1,1,0,0,1,.1.31,1.16,1.16,0,0,1,0,.13.42.42,0,0,0,0-.13,1,1,0,0,0,0-.35,1,1,0,0,0-.29-.43,1.53,1.53,0,0,0-.25-.16l-.28-.09c-.36-.11-.73-.21-1-.27Z"/><path class="cls-36" d="M254.66,144.05c.66.25,1.51.51,2,.66a.76.76,0,0,1,.55,1c-.08.24-.3.44-.8.43-1.27,0-4-.39-4.22-1S252.17,143.1,254.66,144.05Z"/><path class="cls-36" d="M254.08,143.86s.23.11.58.25.81.3,1.29.45l.7.22a.88.88,0,0,1,.28.12,1,1,0,0,1,.2.2.81.81,0,0,1,.13.4.59.59,0,0,1,0,.17.39.39,0,0,0,.06-.17.85.85,0,0,0-.08-.46,1.16,1.16,0,0,0-.21-.25.85.85,0,0,0-.31-.17l-.69-.23c-.48-.16-1-.29-1.32-.38S254.08,143.86,254.08,143.86Z"/><path class="cls-36" d="M255.3,142.41c.59.23,1.31.44,1.75.57a.84.84,0,0,1,.59.62c.1.4.07.88-.62.88-1.17,0-3.85-.38-4-.95S253,141.52,255.3,142.41Z"/><path class="cls-36" d="M255.3,142.41a3.36,3.36,0,0,0,.38.2,7.36,7.36,0,0,0,.89.33l.49.13a.7.7,0,0,1,.35.19.81.81,0,0,1,.18.23.49.49,0,0,1,.05.11,1.09,1.09,0,0,0,0-.12.93.93,0,0,0-.14-.29.86.86,0,0,0-.38-.28c-.16-.06-.32-.1-.49-.15s-.65-.19-.9-.25Z"/><path class="cls-36" d="M256.13,140.93l1.36.57a1,1,0,0,1,.58,1,.51.51,0,0,1-.64.49c-1.59-.23-3.24-.31-3.32-.86S254.32,140.16,256.13,140.93Z"/><path class="cls-36" d="M256.13,140.93s.14.09.37.21.53.27.84.4a1.47,1.47,0,0,1,.22.1,1.18,1.18,0,0,1,.18.13,1,1,0,0,1,.24.32,1.43,1.43,0,0,1,.08.29.87.87,0,0,1,0,.11s0,0,0-.11a.88.88,0,0,0,0-.32,1.06,1.06,0,0,0-.23-.41.85.85,0,0,0-.2-.17,2.56,2.56,0,0,0-.24-.11,8.87,8.87,0,0,0-.87-.32Z"/><path class="cls-55" d="M249.64,126.72l-4.17,16.56a2.48,2.48,0,0,0,.68,2.4l5,4.85a1.38,1.38,0,0,0,2.3-.65l4.17-16.57a2.47,2.47,0,0,0-.68-2.39l-5-4.86A1.38,1.38,0,0,0,249.64,126.72Z"/><path class="cls-56" d="M250.89,126.54a.9.9,0,0,0-.83-.28.78.78,0,0,0-.49.62l-4.19,16.6a2.52,2.52,0,0,0,.62,2.16l5.05,4.87a.81.81,0,0,0,.76.27.7.7,0,0,0,.33-.23,1,1,0,0,0,.21-.44l4.19-16.6h0a2.16,2.16,0,0,0-.05-1.12,2.25,2.25,0,0,0-.55-1h0Z"/><path class="cls-57" d="M249.19,146.16a1.53,1.53,0,0,1,.38,1.31c-.11.43-.45.52-.77.22a1.52,1.52,0,0,1-.37-1.32c.1-.42.44-.51.76-.21"/><polyline class="cls-58" points="252.13 148.59 246.02 142.7 249.74 127.96 255.85 133.85 252.13 148.59"/><path class="cls-59" d="M252.83,129.51l.89.87a.29.29,0,0,1,.08.28c0,.09-.09.11-.16.05l-.9-.87a.35.35,0,0,1-.08-.28c0-.09.1-.11.17-.05"/><path class="cls-60" d="M252.12,128.7a.58.58,0,0,1,.14.47c0,.15-.16.18-.28.07a.54.54,0,0,1-.13-.47c0-.15.16-.18.27-.07"/><polygon class="cls-61" points="254.91 137.54 255.85 133.85 249.74 127.96 247.36 137.41 254.91 137.54"/><path class="cls-36" d="M244.85,138.52a2.92,2.92,0,0,1,.56-1.86,4.28,4.28,0,0,1,1.86-1.27,1.75,1.75,0,0,1,1.59-.07,1,1,0,0,1,.36.4,1.12,1.12,0,0,1-.48,1.46c-.28.19-1.17.43-1.43.62-.41.3-1.12,3-1.18,3.33S244.88,139.38,244.85,138.52Z"/></g></g></svg>