<svg xmlns="http://www.w3.org/2000/svg" xmlns:xlink="http://www.w3.org/1999/xlink" viewBox="0 0 313.6 344.36"><defs><style>.cls-1,.cls-66,.cls-67,.cls-68,.cls-69{fill:none;}.cls-2{fill:url(#linear-gradient);}.cls-3{isolation:isolate;}.cls-4{fill:#535a9a;}.cls-16,.cls-17,.cls-34,.cls-5{mix-blend-mode:multiply;}.cls-5{fill:url(#linear-gradient-2);}.cls-6{fill:#b43f62;}.cls-7{fill:url(#linear-gradient-3);}.cls-8{fill:url(#linear-gradient-4);}.cls-9{fill:url(#linear-gradient-5);}.cls-10{fill:#e5ae92;}.cls-11{fill:url(#linear-gradient-6);}.cls-12{fill:url(#linear-gradient-7);}.cls-13{fill:#855f4c;}.cls-14{fill:url(#linear-gradient-8);}.cls-15{fill:#12103d;}.cls-16{fill:url(#linear-gradient-9);}.cls-17{fill:url(#linear-gradient-10);}.cls-18{fill:url(#linear-gradient-11);}.cls-19,.cls-25,.cls-26{fill:#fff;}.cls-20{fill:#d6e5e1;}.cls-21{fill:url(#linear-gradient-12);}.cls-22{fill:#e6e6e6;}.cls-23{fill:url(#linear-gradient-13);}.cls-24{fill:#523d33;}.cls-25{opacity:0.03;}.cls-26,.cls-62,.cls-63,.cls-64{opacity:0.05;}.cls-27,.cls-67{opacity:0.5;}.cls-27{fill:url(#linear-gradient-14);}.cls-28{fill:url(#linear-gradient-15);}.cls-29{fill:#e984ff;}.cls-30{fill:url(#linear-gradient-16);}.cls-31{fill:#65493c;}.cls-32{fill:url(#linear-gradient-17);}.cls-33{fill:url(#linear-gradient-18);}.cls-34{opacity:0.1;}.cls-35{fill:#515150;}.cls-36{fill:#5c5c5c;}.cls-37{fill:#88d1d1;}.cls-38{fill:url(#linear-gradient-19);}.cls-39{fill:url(#linear-gradient-20);}.cls-40{fill:url(#linear-gradient-21);}.cls-41{fill:#5d463a;}.cls-42{fill:#634e42;}.cls-43{fill:#fbc4aa;}.cls-44{fill:url(#linear-gradient-22);}.cls-45{fill:#60d9f7;}.cls-46{fill:url(#linear-gradient-23);}.cls-47{fill:#a9f164;}.cls-48{fill:url(#linear-gradient-24);}.cls-49{fill:#ff79c2;}.cls-50{fill:url(#linear-gradient-25);}.cls-51{fill:url(#linear-gradient-26);}.cls-52{fill:#160c0c;}.cls-53{clip-path:url(#clip-path);}.cls-54{fill:url(#linear-gradient-27);}.cls-55{fill:url(#linear-gradient-28);}.cls-56{fill:url(#linear-gradient-29);}.cls-57{fill:url(#linear-gradient-30);}.cls-58{clip-path:url(#clip-path-2);}.cls-59{fill:url(#linear-gradient-32);}.cls-60{fill:url(#linear-gradient-33);}.cls-61{fill:url(#linear-gradient-34);}.cls-62{fill:url(#linear-gradient-35);}.cls-63{fill:url(#linear-gradient-36);}.cls-64{fill:url(#linear-gradient-37);}.cls-65{fill:url(#linear-gradient-38);}.cls-66,.cls-67,.cls-68,.cls-69{stroke:#ccc;stroke-miterlimit:10;stroke-dasharray:2;}.cls-66{opacity:0.3;}.cls-68{opacity:0.7;}.cls-69{opacity:0.8;}.cls-70{opacity:0.2;}.cls-71{fill:#233465;}.cls-72{fill:#fdd4c0;}.cls-100,.cls-101,.cls-102,.cls-103,.cls-104,.cls-105,.cls-106,.cls-107,.cls-108,.cls-109,.cls-110,.cls-111,.cls-112,.cls-113,.cls-114,.cls-115,.cls-116,.cls-117,.cls-118,.cls-119,.cls-120,.cls-121,.cls-122,.cls-123,.cls-124,.cls-125,.cls-126,.cls-127,.cls-128,.cls-129,.cls-130,.cls-131,.cls-132,.cls-133,.cls-134,.cls-135,.cls-136,.cls-137,.cls-138,.cls-139,.cls-140,.cls-141,.cls-142,.cls-143,.cls-144,.cls-145,.cls-146,.cls-147,.cls-148,.cls-149,.cls-150,.cls-151,.cls-152,.cls-153,.cls-154,.cls-155,.cls-156,.cls-157,.cls-158,.cls-159,.cls-73,.cls-74,.cls-75,.cls-76,.cls-77,.cls-78,.cls-79,.cls-80,.cls-81,.cls-82,.cls-83,.cls-84,.cls-85,.cls-86,.cls-87,.cls-88,.cls-89,.cls-90,.cls-91,.cls-92,.cls-93,.cls-94,.cls-95,.cls-96,.cls-97,.cls-98,.cls-99{fill-rule:evenodd;}.cls-73{fill:url(#GradientFill_48);}.cls-74{fill:url(#GradientFill_48-2);}.cls-75{fill:url(#linear-gradient-39);}.cls-76{fill:url(#linear-gradient-40);}.cls-77{fill:url(#linear-gradient-41);}.cls-78{fill:url(#linear-gradient-42);}.cls-79{fill:url(#linear-gradient-43);}.cls-80{fill:url(#linear-gradient-44);}.cls-81{fill:url(#linear-gradient-45);}.cls-82{fill:url(#linear-gradient-46);}.cls-83{fill:url(#linear-gradient-47);}.cls-84{fill:url(#linear-gradient-48);}.cls-85{fill:url(#linear-gradient-49);}.cls-86{fill:url(#linear-gradient-50);}.cls-87{fill:url(#linear-gradient-51);}.cls-88{fill:url(#linear-gradient-52);}.cls-89{fill:url(#linear-gradient-53);}.cls-90{fill:url(#linear-gradient-54);}.cls-91{fill:url(#linear-gradient-55);}.cls-92{fill:url(#linear-gradient-56);}.cls-93{fill:url(#linear-gradient-57);}.cls-94{fill:url(#linear-gradient-58);}.cls-95{fill:url(#GradientFill_69);}.cls-96{fill:url(#linear-gradient-59);}.cls-97{fill:url(#linear-gradient-60);}.cls-98{fill:url(#linear-gradient-61);}.cls-99{fill:url(#linear-gradient-62);}.cls-100{fill:url(#linear-gradient-63);}.cls-101{fill:url(#linear-gradient-64);}.cls-102{fill:url(#linear-gradient-65);}.cls-103{fill:url(#linear-gradient-66);}.cls-104{fill:url(#linear-gradient-67);}.cls-105{fill:url(#linear-gradient-68);}.cls-106{fill:url(#linear-gradient-69);}.cls-107{fill:url(#linear-gradient-70);}.cls-108{fill:url(#linear-gradient-71);}.cls-109{fill:url(#linear-gradient-72);}.cls-110{fill:url(#linear-gradient-73);}.cls-111{fill:url(#linear-gradient-74);}.cls-112{fill:url(#linear-gradient-75);}.cls-113{fill:url(#linear-gradient-76);}.cls-114{fill:url(#linear-gradient-77);}.cls-115{fill:url(#linear-gradient-78);}.cls-116{fill:url(#linear-gradient-79);}.cls-117{fill:url(#linear-gradient-80);}.cls-118{fill:url(#linear-gradient-81);}.cls-119{fill:url(#linear-gradient-82);}.cls-120{fill:url(#linear-gradient-83);}.cls-121{fill:url(#linear-gradient-84);}.cls-122{fill:url(#linear-gradient-85);}.cls-123{fill:url(#linear-gradient-86);}.cls-124{fill:url(#linear-gradient-87);}.cls-125{fill:url(#linear-gradient-88);}.cls-126{fill:url(#linear-gradient-89);}.cls-127{fill:url(#linear-gradient-90);}.cls-128{fill:url(#linear-gradient-91);}.cls-129{fill:url(#linear-gradient-92);}.cls-130{fill:url(#linear-gradient-93);}.cls-131{fill:url(#linear-gradient-94);}.cls-132{fill:url(#linear-gradient-95);}.cls-133{fill:url(#linear-gradient-96);}.cls-134{fill:url(#linear-gradient-97);}.cls-135{fill:url(#linear-gradient-98);}.cls-136{fill:url(#linear-gradient-99);}.cls-137{fill:url(#linear-gradient-100);}.cls-138{fill:url(#linear-gradient-101);}.cls-139{fill:url(#linear-gradient-102);}.cls-140{fill:url(#linear-gradient-103);}.cls-141{fill:url(#linear-gradient-104);}.cls-142{fill:url(#linear-gradient-105);}.cls-143{fill:url(#linear-gradient-106);}.cls-144{fill:url(#linear-gradient-107);}.cls-145{fill:url(#linear-gradient-108);}.cls-146{fill:url(#linear-gradient-109);}.cls-147{fill:url(#linear-gradient-110);}.cls-148{fill:url(#linear-gradient-111);}.cls-149{fill:url(#linear-gradient-112);}.cls-150{fill:url(#linear-gradient-113);}.cls-151{fill:url(#linear-gradient-114);}.cls-152{fill:url(#linear-gradient-115);}.cls-153{fill:url(#linear-gradient-116);}.cls-154{fill:url(#linear-gradient-117);}.cls-155{fill:url(#linear-gradient-118);}.cls-156{fill:url(#linear-gradient-119);}.cls-157{fill:url(#linear-gradient-120);}.cls-158{fill:url(#linear-gradient-121);}.cls-159{fill:url(#linear-gradient-122);}.cls-160{fill:url(#linear-gradient-123);}.cls-161{fill:#ee7f97;}.cls-162{fill:#1d1b3a;}.cls-163{fill:url(#linear-gradient-124);}.cls-164{fill:url(#linear-gradient-125);}.cls-165{fill:#3a3953;}.cls-166{fill:#eb5b7b;}.cls-167{fill:url(#linear-gradient-126);}.cls-168{fill:#806556;}</style><linearGradient id="linear-gradient" x1="-7349.81" y1="98.75" x2="-7373.66" y2="101.1" gradientTransform="matrix(-1, 0, 0, 1, -7150.37, 0)" gradientUnits="userSpaceOnUse"><stop offset="0" stop-color="#dbf9ea"/><stop offset="1" stop-color="#c0dde2"/></linearGradient><linearGradient id="linear-gradient-2" x1="126.52" y1="101.05" x2="126.52" y2="68.11" gradientUnits="userSpaceOnUse"><stop offset="0" stop-color="#fff" stop-opacity="0"/><stop offset="1" stop-color="#12103d"/></linearGradient><linearGradient id="linear-gradient-3" x1="-77.94" y1="8083.95" x2="696.69" y2="-17944.94" gradientUnits="userSpaceOnUse"><stop offset="0" stop-color="#330867" stop-opacity="0"/><stop offset="0.35" stop-color="#330867" stop-opacity="0.07"/><stop offset="0.81" stop-color="#330867" stop-opacity="0.25"/></linearGradient><linearGradient id="linear-gradient-4" x1="-9464.63" y1="273.3" x2="-9454.2" y2="273.3" gradientTransform="matrix(-1, 0, 0, 1, -9251.25, 0)" gradientUnits="userSpaceOnUse"><stop offset="0" stop-color="#330867"/><stop offset="1" stop-color="#30cfd0"/></linearGradient><linearGradient id="linear-gradient-5" x1="-9479.44" y1="274.41" x2="-9454.59" y2="274.41" xlink:href="#linear-gradient-4"/><linearGradient id="linear-gradient-6" x1="-9459.39" y1="222.63" x2="-9449.5" y2="222.63" xlink:href="#linear-gradient-4"/><linearGradient id="linear-gradient-7" x1="-9482.15" y1="232.98" x2="-9453.39" y2="232.98" xlink:href="#linear-gradient-4"/><linearGradient id="linear-gradient-8" x1="-9486.7" y1="226.29" x2="-9473.2" y2="226.29" xlink:href="#linear-gradient-4"/><linearGradient id="linear-gradient-9" x1="127.89" y1="92.4" x2="112" y2="92.4" xlink:href="#linear-gradient-2"/><linearGradient id="linear-gradient-10" x1="199.98" y1="150.69" x2="218.06" y2="150.69" xlink:href="#linear-gradient-2"/><linearGradient id="linear-gradient-11" x1="121.14" y1="215.62" x2="209.77" y2="215.62" gradientUnits="userSpaceOnUse"><stop offset="0" stop-color="#c0dde2"/><stop offset="1" stop-color="#dbf9ea"/></linearGradient><linearGradient id="linear-gradient-12" x1="752.41" y1="-1834.11" x2="880.67" y2="-1962.37" gradientTransform="matrix(0.87, 0.5, 0, 1.15, -546.1, 2000.65)" gradientUnits="userSpaceOnUse"><stop offset="0" stop-color="#5d278f"/><stop offset="1" stop-color="#292376"/></linearGradient><linearGradient id="linear-gradient-13" x1="131.26" y1="244.84" x2="190.08" y2="244.84" gradientUnits="userSpaceOnUse"><stop offset="0" stop-color="#25e581"/><stop offset="1" stop-color="#c4e138"/></linearGradient><linearGradient id="linear-gradient-14" x1="-5596.7" y1="25.47" x2="-5510.05" y2="25.47" gradientTransform="matrix(-1, 0, 0, 1, -5283.1, 0)" gradientUnits="userSpaceOnUse"><stop offset="0" stop-color="#ccc" stop-opacity="0.25"/><stop offset="1" stop-color="#999" stop-opacity="0"/></linearGradient><linearGradient id="linear-gradient-15" x1="-727.1" y1="-1263.78" x2="-727.1" y2="-1263.11" gradientTransform="matrix(64, 0, 0, -232, 46799.72, -292877.05)" gradientUnits="userSpaceOnUse"><stop offset="0" stop-color="#ed69f7"/><stop offset="1" stop-color="#1090f3"/></linearGradient><linearGradient id="linear-gradient-16" x1="11611.68" y1="1581.96" x2="-24775.16" y2="-4412.49" gradientTransform="matrix(0.14, 0.68, -1.01, 0.21, -191.9, -177.33)" xlink:href="#linear-gradient-3"/><linearGradient id="linear-gradient-17" x1="106.85" y1="99.03" x2="148.76" y2="99.03" gradientTransform="matrix(1, 0, 0, 1, 0, 0)" xlink:href="#linear-gradient-4"/><linearGradient id="linear-gradient-18" x1="126.72" y1="65.49" x2="155.37" y2="65.49" gradientTransform="matrix(1, 0, 0, 1, 0, 0)" xlink:href="#linear-gradient-4"/><linearGradient id="linear-gradient-19" x1="107.37" y1="58.33" x2="130.16" y2="58.33" gradientTransform="matrix(1, 0, 0, 1, 0, 0)" xlink:href="#linear-gradient"/><linearGradient id="linear-gradient-20" x1="125.14" y1="53.86" x2="112.33" y2="62.25" gradientTransform="matrix(1, 0, 0, 1, 0, 0)" xlink:href="#linear-gradient-12"/><linearGradient id="linear-gradient-21" x1="107.37" y1="62.38" x2="130.16" y2="62.38" xlink:href="#linear-gradient-11"/><linearGradient id="linear-gradient-22" x1="-727.81" y1="-1284.47" x2="-727.81" y2="-1283.84" gradientTransform="matrix(64, 0, 0, -72, 46815.72, -92146.43)" gradientUnits="userSpaceOnUse"><stop offset="0" stop-color="#69e0f7"/><stop offset="1" stop-color="#1090f3"/></linearGradient><linearGradient id="linear-gradient-23" x1="-727.91" y1="-1278.44" x2="-727.91" y2="-1278.06" gradientTransform="matrix(64, 0, 0, -92, 46879.72, -117293.51)" gradientUnits="userSpaceOnUse"><stop offset="0" stop-color="#acf769"/><stop offset="1" stop-color="#97ce47"/></linearGradient><linearGradient id="linear-gradient-24" x1="-730.48" y1="-1308.69" x2="-730.48" y2="-1308.31" gradientTransform="matrix(64, 0, 0, -42, 47020.72, -54620.82)" gradientUnits="userSpaceOnUse"><stop offset="0" stop-color="#ff7ac3"/><stop offset="1" stop-color="#f51cbf"/></linearGradient><linearGradient id="linear-gradient-25" x1="179.69" y1="117.93" x2="212.79" y2="117.93" gradientTransform="matrix(1, 0, 0, 1, 0, 0)" xlink:href="#linear-gradient-4"/><linearGradient id="linear-gradient-26" x1="176.34" y1="96.56" x2="202.45" y2="96.56" gradientTransform="matrix(1, 0, 0, 1, 0, 0)" xlink:href="#linear-gradient-4"/><clipPath id="clip-path"><path class="cls-1" d="M230.09,85a1.41,1.41,0,0,1,.5,1.64l-5.11,15.07a.89.89,0,0,1-1.27.63L206.59,92.15a1.41,1.41,0,0,1-.49-1.64l5.11-15.07a.88.88,0,0,1,1.26-.63Z"/></clipPath><linearGradient id="linear-gradient-27" x1="-7379.2" y1="82.52" x2="-7358.24" y2="94.62" gradientTransform="matrix(-1, 0, 0, 1, -7150.37, 0)" xlink:href="#linear-gradient-12"/><linearGradient id="linear-gradient-28" x1="-7361.9" y1="88.56" x2="-7382.67" y2="88.56" xlink:href="#linear-gradient"/><linearGradient id="linear-gradient-29" x1="-7374.87" y1="100.94" x2="-7343.12" y2="100.94" xlink:href="#linear-gradient"/><linearGradient id="linear-gradient-30" x1="-7374.87" y1="100.94" x2="-7343.12" y2="100.94" xlink:href="#linear-gradient"/><clipPath id="clip-path-2"><path id="_Clipping_Path_" data-name="&lt;Clipping Path&gt;" class="cls-2" d="M216.35,106.26l5.19-3a.22.22,0,0,0,0-.4l-16.3-9.41a.51.51,0,0,0-.45,0l-5.19,3a.23.23,0,0,0-.13.2.24.24,0,0,0,.13.2l16.3,9.41a.41.41,0,0,0,.23,0A.4.4,0,0,0,216.35,106.26Z"/></clipPath><linearGradient id="linear-gradient-32" x1="-7371.93" y1="99.69" x2="-7349.96" y2="99.69" gradientTransform="matrix(-1, 0, 0, 1, -7150.37, 0)" xlink:href="#linear-gradient-12"/><linearGradient id="linear-gradient-33" x1="-7349.75" y1="98.79" x2="-7369.93" y2="104.89" gradientTransform="matrix(-1, 0, 0, 1, -7150.37, 0)" xlink:href="#linear-gradient-12"/><linearGradient id="linear-gradient-34" x1="-7344.26" y1="105.17" x2="-7374.55" y2="105.17" xlink:href="#linear-gradient"/><linearGradient id="linear-gradient-35" x1="-7361.65" y1="103.16" x2="-7348.73" y2="103.16" gradientTransform="matrix(-1, 0, 0, 1, -7150.37, 0)" xlink:href="#linear-gradient-12"/><linearGradient id="linear-gradient-36" x1="-7365.68" y1="87.66" x2="-7353.64" y2="93.76" gradientTransform="matrix(-1, 0, 0, 1, -7150.37, 0)" xlink:href="#linear-gradient-12"/><linearGradient id="linear-gradient-37" x1="-7373.54" y1="103.17" x2="-7361.5" y2="109.27" gradientTransform="matrix(-1, 0, 0, 1, -7150.37, 0)" xlink:href="#linear-gradient-12"/><linearGradient id="linear-gradient-38" x1="-7372.9" y1="97.87" x2="-7355.79" y2="97.87" gradientTransform="matrix(-1, 0, 0, 1, -7150.37, 0)" gradientUnits="userSpaceOnUse"><stop offset="0.05" stop-color="#ed1e79"/><stop offset="0.32" stop-color="#d9e021"/><stop offset="1" stop-color="#29c7e2"/></linearGradient><linearGradient id="GradientFill_48" x1="289.8" y1="282.2" x2="297.01" y2="282.2" gradientUnits="userSpaceOnUse"><stop offset="0" stop-color="#a98063"/><stop offset="0.21" stop-color="#65381a"/><stop offset="0.59" stop-color="#452a0d"/><stop offset="0.78" stop-color="#3e2608"/><stop offset="0.89" stop-color="#502f12"/><stop offset="1" stop-color="#8c6140"/></linearGradient><linearGradient id="GradientFill_48-2" x1="289.8" y1="275.27" x2="297.01" y2="275.27" xlink:href="#GradientFill_48"/><linearGradient id="linear-gradient-39" x1="289.8" y1="275.04" x2="297.01" y2="275.04" gradientUnits="userSpaceOnUse"><stop offset="0" stop-color="#a57c60"/><stop offset="0.21" stop-color="#633719"/><stop offset="0.59" stop-color="#43280c"/><stop offset="0.78" stop-color="#3d2508"/><stop offset="0.89" stop-color="#4f2e11"/><stop offset="1" stop-color="#895f3e"/></linearGradient><linearGradient id="linear-gradient-40" x1="289.8" y1="274.81" x2="297.01" y2="274.81" gradientUnits="userSpaceOnUse"><stop offset="0" stop-color="#a1795c"/><stop offset="0.21" stop-color="#613618"/><stop offset="0.59" stop-color="#42270c"/><stop offset="0.78" stop-color="#3b2307"/><stop offset="0.89" stop-color="#4e2d11"/><stop offset="1" stop-color="#865d3c"/></linearGradient><linearGradient id="linear-gradient-41" x1="289.8" y1="274.58" x2="297.01" y2="274.58" gradientUnits="userSpaceOnUse"><stop offset="0" stop-color="#9d7559"/><stop offset="0.21" stop-color="#5e3417"/><stop offset="0.59" stop-color="#40250b"/><stop offset="0.78" stop-color="#3a2207"/><stop offset="0.89" stop-color="#4c2d10"/><stop offset="1" stop-color="#845b3b"/></linearGradient><linearGradient id="linear-gradient-42" x1="289.8" y1="274.35" x2="297.01" y2="274.35" gradientUnits="userSpaceOnUse"><stop offset="0" stop-color="#987255"/><stop offset="0.21" stop-color="#5c3316"/><stop offset="0.59" stop-color="#3e230b"/><stop offset="0.78" stop-color="#392006"/><stop offset="0.89" stop-color="#4b2c10"/><stop offset="1" stop-color="#815939"/></linearGradient><linearGradient id="linear-gradient-43" x1="289.8" y1="274.12" x2="297.01" y2="274.12" gradientUnits="userSpaceOnUse"><stop offset="0" stop-color="#946e52"/><stop offset="0.21" stop-color="#5a3215"/><stop offset="0.59" stop-color="#3d220a"/><stop offset="0.78" stop-color="#371f06"/><stop offset="0.89" stop-color="#4a2b0f"/><stop offset="1" stop-color="#7e5737"/></linearGradient><linearGradient id="linear-gradient-44" x1="289.8" y1="273.89" x2="297.01" y2="273.89" gradientUnits="userSpaceOnUse"><stop offset="0" stop-color="#906b4e"/><stop offset="0.21" stop-color="#583115"/><stop offset="0.59" stop-color="#3b2009"/><stop offset="0.78" stop-color="#361d06"/><stop offset="0.89" stop-color="#492a0f"/><stop offset="1" stop-color="#7b5435"/></linearGradient><linearGradient id="linear-gradient-45" x1="289.8" y1="273.66" x2="297.01" y2="273.66" gradientUnits="userSpaceOnUse"><stop offset="0" stop-color="#8c674b"/><stop offset="0.21" stop-color="#562f14"/><stop offset="0.59" stop-color="#391e09"/><stop offset="0.78" stop-color="#351c05"/><stop offset="0.89" stop-color="#48290e"/><stop offset="1" stop-color="#795233"/></linearGradient><linearGradient id="linear-gradient-46" x1="289.8" y1="273.43" x2="297.01" y2="273.43" gradientUnits="userSpaceOnUse"><stop offset="0" stop-color="#886347"/><stop offset="0.21" stop-color="#532e13"/><stop offset="0.59" stop-color="#381d08"/><stop offset="0.78" stop-color="#331a05"/><stop offset="0.89" stop-color="#46290e"/><stop offset="1" stop-color="#765032"/></linearGradient><linearGradient id="linear-gradient-47" x1="289.8" y1="273.2" x2="297.01" y2="273.2" gradientUnits="userSpaceOnUse"><stop offset="0" stop-color="#846044"/><stop offset="0.21" stop-color="#512d12"/><stop offset="0.59" stop-color="#361b07"/><stop offset="0.78" stop-color="#321905"/><stop offset="0.89" stop-color="#45280d"/><stop offset="1" stop-color="#734e30"/></linearGradient><linearGradient id="linear-gradient-48" x1="289.8" y1="272.98" x2="297.01" y2="272.98" gradientUnits="userSpaceOnUse"><stop offset="0" stop-color="#805c40"/><stop offset="0.21" stop-color="#4f2c11"/><stop offset="0.59" stop-color="#341907"/><stop offset="0.78" stop-color="#311704"/><stop offset="0.89" stop-color="#44270d"/><stop offset="1" stop-color="#704c2e"/></linearGradient><linearGradient id="linear-gradient-49" x1="289.8" y1="272.75" x2="297.01" y2="272.75" gradientUnits="userSpaceOnUse"><stop offset="0" stop-color="#7b593d"/><stop offset="0.21" stop-color="#4d2a10"/><stop offset="0.59" stop-color="#331806"/><stop offset="0.78" stop-color="#2f1604"/><stop offset="0.89" stop-color="#43260c"/><stop offset="1" stop-color="#6e4a2c"/></linearGradient><linearGradient id="linear-gradient-50" x1="289.8" y1="272.52" x2="297.01" y2="272.52" gradientUnits="userSpaceOnUse"><stop offset="0" stop-color="#775539"/><stop offset="0.21" stop-color="#4b290f"/><stop offset="0.59" stop-color="#311606"/><stop offset="0.78" stop-color="#2e1403"/><stop offset="0.89" stop-color="#42250c"/><stop offset="1" stop-color="#6b482a"/></linearGradient><linearGradient id="linear-gradient-51" x1="289.8" y1="272.29" x2="297.01" y2="272.29" gradientUnits="userSpaceOnUse"><stop offset="0" stop-color="#735236"/><stop offset="0.21" stop-color="#49280e"/><stop offset="0.59" stop-color="#2f1405"/><stop offset="0.78" stop-color="#2d1303"/><stop offset="0.89" stop-color="#41240b"/><stop offset="1" stop-color="#684628"/></linearGradient><linearGradient id="linear-gradient-52" x1="289.8" y1="272.06" x2="297.01" y2="272.06" gradientUnits="userSpaceOnUse"><stop offset="0" stop-color="#6f4e32"/><stop offset="0.21" stop-color="#46270d"/><stop offset="0.59" stop-color="#2e1304"/><stop offset="0.78" stop-color="#2b1103"/><stop offset="0.89" stop-color="#3f240b"/><stop offset="1" stop-color="#654427"/></linearGradient><linearGradient id="linear-gradient-53" x1="289.8" y1="271.84" x2="297.01" y2="271.84" gradientUnits="userSpaceOnUse"><stop offset="0" stop-color="#6b4a2f"/><stop offset="0.21" stop-color="#44250c"/><stop offset="0.59" stop-color="#2c1104"/><stop offset="0.78" stop-color="#2a1002"/><stop offset="0.89" stop-color="#3e230a"/><stop offset="1" stop-color="#634225"/></linearGradient><linearGradient id="linear-gradient-54" x1="289.8" y1="271.61" x2="297.01" y2="271.61" gradientUnits="userSpaceOnUse"><stop offset="0" stop-color="#67472b"/><stop offset="0.21" stop-color="#42240c"/><stop offset="0.59" stop-color="#2a0f03"/><stop offset="0.78" stop-color="#290e02"/><stop offset="0.89" stop-color="#3d220a"/><stop offset="1" stop-color="#603f23"/></linearGradient><linearGradient id="linear-gradient-55" x1="289.8" y1="271.39" x2="297.01" y2="271.39" gradientUnits="userSpaceOnUse"><stop offset="0" stop-color="#634328"/><stop offset="0.21" stop-color="#40230b"/><stop offset="0.59" stop-color="#290e02"/><stop offset="0.78" stop-color="#270d02"/><stop offset="0.89" stop-color="#3c2109"/><stop offset="1" stop-color="#5d3d21"/></linearGradient><linearGradient id="linear-gradient-56" x1="289.8" y1="271.16" x2="297.01" y2="271.16" gradientUnits="userSpaceOnUse"><stop offset="0" stop-color="#5e4024"/><stop offset="0.21" stop-color="#3e220a"/><stop offset="0.59" stop-color="#270c02"/><stop offset="0.78" stop-color="#260b01"/><stop offset="0.89" stop-color="#3b2009"/><stop offset="1" stop-color="#5a3b1f"/></linearGradient><linearGradient id="linear-gradient-57" x1="289.8" y1="270.93" x2="297.01" y2="270.93" gradientUnits="userSpaceOnUse"><stop offset="0" stop-color="#5a3c21"/><stop offset="0.21" stop-color="#3b2009"/><stop offset="0.59" stop-color="#250a01"/><stop offset="0.78" stop-color="#250a01"/><stop offset="0.89" stop-color="#392008"/><stop offset="1" stop-color="#58391e"/></linearGradient><linearGradient id="linear-gradient-58" x1="289.8" y1="270.71" x2="297.01" y2="270.71" gradientUnits="userSpaceOnUse"><stop offset="0" stop-color="#56391d"/><stop offset="0.21" stop-color="#391f08"/><stop offset="0.59" stop-color="#240901"/><stop offset="0.78" stop-color="#230800"/><stop offset="0.89" stop-color="#381f08"/><stop offset="1" stop-color="#55371c"/></linearGradient><linearGradient id="GradientFill_69" x1="289.8" y1="270.49" x2="297.01" y2="270.49" gradientUnits="userSpaceOnUse"><stop offset="0" stop-color="#52351a"/><stop offset="0.21" stop-color="#371e07"/><stop offset="0.59" stop-color="#220700"/><stop offset="0.78" stop-color="#220700"/><stop offset="0.89" stop-color="#371e07"/><stop offset="1" stop-color="#52351a"/></linearGradient><linearGradient id="linear-gradient-59" x1="274.81" y1="249.04" x2="312" y2="249.04" gradientUnits="userSpaceOnUse"><stop offset="0" stop-color="#9df769"/><stop offset="1" stop-color="#10af36"/></linearGradient><linearGradient id="linear-gradient-60" x1="275.08" y1="249.04" x2="311.81" y2="249.04" xlink:href="#linear-gradient-59"/><linearGradient id="linear-gradient-61" x1="275.35" y1="249.05" x2="311.61" y2="249.05" xlink:href="#linear-gradient-59"/><linearGradient id="linear-gradient-62" x1="275.62" y1="249.05" x2="311.42" y2="249.05" xlink:href="#linear-gradient-59"/><linearGradient id="linear-gradient-63" x1="275.89" y1="249.05" x2="311.23" y2="249.05" xlink:href="#linear-gradient-59"/><linearGradient id="linear-gradient-64" x1="276.15" y1="249.06" x2="311.04" y2="249.06" xlink:href="#linear-gradient-59"/><linearGradient id="linear-gradient-65" x1="276.42" y1="249.06" x2="310.85" y2="249.06" xlink:href="#linear-gradient-59"/><linearGradient id="linear-gradient-66" x1="276.68" y1="249.07" x2="310.66" y2="249.07" xlink:href="#linear-gradient-59"/><linearGradient id="linear-gradient-67" x1="276.95" y1="249.07" x2="310.48" y2="249.07" xlink:href="#linear-gradient-59"/><linearGradient id="linear-gradient-68" x1="277.21" y1="249.07" x2="310.29" y2="249.07" xlink:href="#linear-gradient-59"/><linearGradient id="linear-gradient-69" x1="277.47" y1="249.08" x2="310.11" y2="249.08" xlink:href="#linear-gradient-59"/><linearGradient id="linear-gradient-70" x1="277.73" y1="249.08" x2="309.93" y2="249.08" xlink:href="#linear-gradient-59"/><linearGradient id="linear-gradient-71" x1="277.99" y1="249.08" x2="309.75" y2="249.08" xlink:href="#linear-gradient-59"/><linearGradient id="linear-gradient-72" x1="278.25" y1="249.09" x2="309.58" y2="249.09" xlink:href="#linear-gradient-59"/><linearGradient id="linear-gradient-73" x1="278.51" y1="249.09" x2="309.41" y2="249.09" xlink:href="#linear-gradient-59"/><linearGradient id="linear-gradient-74" x1="278.77" y1="249.09" x2="309.24" y2="249.09" xlink:href="#linear-gradient-59"/><linearGradient id="linear-gradient-75" x1="279.02" y1="249.1" x2="309.08" y2="249.1" xlink:href="#linear-gradient-59"/><linearGradient id="linear-gradient-76" x1="279.28" y1="249.1" x2="308.92" y2="249.1" xlink:href="#linear-gradient-59"/><linearGradient id="linear-gradient-77" x1="279.53" y1="249.1" x2="308.76" y2="249.1" xlink:href="#linear-gradient-59"/><linearGradient id="linear-gradient-78" x1="279.78" y1="249.11" x2="308.61" y2="249.11" xlink:href="#linear-gradient-59"/><linearGradient id="linear-gradient-79" x1="280.04" y1="249.11" x2="308.47" y2="249.11" xlink:href="#linear-gradient-59"/><linearGradient id="linear-gradient-80" x1="280.29" y1="249.11" x2="308.34" y2="249.11" xlink:href="#linear-gradient-59"/><linearGradient id="linear-gradient-81" x1="280.53" y1="249.11" x2="308.05" y2="249.11" xlink:href="#linear-gradient-59"/><linearGradient id="linear-gradient-82" x1="280.77" y1="249.11" x2="307.77" y2="249.11" xlink:href="#linear-gradient-59"/><linearGradient id="linear-gradient-83" x1="281.02" y1="249.11" x2="307.48" y2="249.11" xlink:href="#linear-gradient-59"/><linearGradient id="linear-gradient-84" x1="281.26" y1="249.11" x2="307.2" y2="249.11" xlink:href="#linear-gradient-59"/><linearGradient id="linear-gradient-85" x1="281.5" y1="249.11" x2="306.92" y2="249.11" xlink:href="#linear-gradient-59"/><linearGradient id="linear-gradient-86" x1="281.74" y1="249.11" x2="306.63" y2="249.11" xlink:href="#linear-gradient-59"/><linearGradient id="linear-gradient-87" x1="281.98" y1="249.11" x2="306.35" y2="249.11" xlink:href="#linear-gradient-59"/><linearGradient id="linear-gradient-88" x1="282.22" y1="249.11" x2="306.08" y2="249.11" xlink:href="#linear-gradient-59"/><linearGradient id="linear-gradient-89" x1="282.45" y1="249.11" x2="305.8" y2="249.11" xlink:href="#linear-gradient-59"/><linearGradient id="linear-gradient-90" x1="282.69" y1="249.11" x2="305.52" y2="249.11" xlink:href="#linear-gradient-59"/><linearGradient id="linear-gradient-91" x1="282.92" y1="249.11" x2="305.24" y2="249.11" xlink:href="#linear-gradient-59"/><linearGradient id="linear-gradient-92" x1="283.16" y1="249.11" x2="304.97" y2="249.11" xlink:href="#linear-gradient-59"/><linearGradient id="linear-gradient-93" x1="283.39" y1="249.11" x2="304.69" y2="249.11" xlink:href="#linear-gradient-59"/><linearGradient id="linear-gradient-94" x1="283.62" y1="249.11" x2="304.42" y2="249.11" xlink:href="#linear-gradient-59"/><linearGradient id="linear-gradient-95" x1="283.85" y1="249.1" x2="304.15" y2="249.1" xlink:href="#linear-gradient-59"/><linearGradient id="linear-gradient-96" x1="284.08" y1="249.1" x2="303.88" y2="249.1" xlink:href="#linear-gradient-59"/><linearGradient id="linear-gradient-97" x1="284.31" y1="249.1" x2="303.61" y2="249.1" xlink:href="#linear-gradient-59"/><linearGradient id="linear-gradient-98" x1="284.54" y1="249.1" x2="303.34" y2="249.1" xlink:href="#linear-gradient-59"/><linearGradient id="linear-gradient-99" x1="284.77" y1="249.1" x2="303.07" y2="249.1" xlink:href="#linear-gradient-59"/><linearGradient id="linear-gradient-100" x1="284.99" y1="249.1" x2="302.8" y2="249.1" xlink:href="#linear-gradient-59"/><linearGradient id="linear-gradient-101" x1="285.22" y1="249.1" x2="302.54" y2="249.1" xlink:href="#linear-gradient-59"/><linearGradient id="linear-gradient-102" x1="285.38" y1="249.1" x2="302.28" y2="249.1" xlink:href="#linear-gradient-59"/><linearGradient id="linear-gradient-103" x1="285.54" y1="249.1" x2="302.02" y2="249.1" xlink:href="#linear-gradient-59"/><linearGradient id="linear-gradient-104" x1="285.7" y1="249.1" x2="301.76" y2="249.1" xlink:href="#linear-gradient-59"/><linearGradient id="linear-gradient-105" x1="285.87" y1="249.1" x2="301.5" y2="249.1" xlink:href="#linear-gradient-59"/><linearGradient id="linear-gradient-106" x1="286.04" y1="249.1" x2="301.25" y2="249.1" xlink:href="#linear-gradient-59"/><linearGradient id="linear-gradient-107" x1="286.21" y1="249.1" x2="300.99" y2="249.1" xlink:href="#linear-gradient-59"/><linearGradient id="linear-gradient-108" x1="286.38" y1="249.1" x2="300.73" y2="249.1" xlink:href="#linear-gradient-59"/><linearGradient id="linear-gradient-109" x1="286.56" y1="249.1" x2="300.48" y2="249.1" xlink:href="#linear-gradient-59"/><linearGradient id="linear-gradient-110" x1="286.74" y1="249.09" x2="300.23" y2="249.09" xlink:href="#linear-gradient-59"/><linearGradient id="linear-gradient-111" x1="286.92" y1="249.09" x2="299.97" y2="249.09" xlink:href="#linear-gradient-59"/><linearGradient id="linear-gradient-112" x1="287.1" y1="249.09" x2="299.72" y2="249.09" xlink:href="#linear-gradient-59"/><linearGradient id="linear-gradient-113" x1="287.29" y1="249.09" x2="299.47" y2="249.09" xlink:href="#linear-gradient-59"/><linearGradient id="linear-gradient-114" x1="287.48" y1="249.09" x2="299.22" y2="249.09" xlink:href="#linear-gradient-59"/><linearGradient id="linear-gradient-115" x1="287.67" y1="249.09" x2="298.97" y2="249.09" xlink:href="#linear-gradient-59"/><linearGradient id="linear-gradient-116" x1="287.87" y1="249.09" x2="298.73" y2="249.09" xlink:href="#linear-gradient-59"/><linearGradient id="linear-gradient-117" x1="288.06" y1="249.09" x2="298.48" y2="249.09" xlink:href="#linear-gradient-59"/><linearGradient id="linear-gradient-118" x1="288.26" y1="249.09" x2="298.24" y2="249.09" xlink:href="#linear-gradient-59"/><linearGradient id="linear-gradient-119" x1="288.47" y1="249.09" x2="298" y2="249.09" xlink:href="#linear-gradient-59"/><linearGradient id="linear-gradient-120" x1="288.67" y1="249.09" x2="297.75" y2="249.09" xlink:href="#linear-gradient-59"/><linearGradient id="linear-gradient-121" x1="288.88" y1="249.09" x2="297.51" y2="249.09" xlink:href="#linear-gradient-59"/><linearGradient id="linear-gradient-122" x1="289.09" y1="249.09" x2="297.28" y2="249.09" xlink:href="#linear-gradient-59"/><linearGradient id="linear-gradient-123" x1="-368.92" y1="-534.67" x2="-348.04" y2="-534.67" gradientTransform="matrix(1.09, 0.22, -0.2, 0.98, 415.24, 840.35)" gradientUnits="userSpaceOnUse"><stop offset="0" stop-color="#30cfd0"/><stop offset="1" stop-color="#330867"/></linearGradient><linearGradient id="linear-gradient-124" x1="-8256.83" y1="288.99" x2="-8244.34" y2="288.99" gradientTransform="matrix(-1, 0, 0, 1, -8148.94, 0)" xlink:href="#linear-gradient-4"/><linearGradient id="linear-gradient-125" x1="-8268.86" y1="284.09" x2="-8256.37" y2="284.09" gradientTransform="matrix(-1, 0, 0, 1, -8148.94, 0)" xlink:href="#linear-gradient-4"/><linearGradient id="linear-gradient-126" x1="-8270.08" y1="264.03" x2="-8241.86" y2="235.81" gradientTransform="matrix(-1, 0, 0, 1, -8148.94, 0)" xlink:href="#linear-gradient-4"/></defs><title>mobile</title><g class="cls-3"><g id="Layer_2" data-name="Layer 2"><g id="Items"><path id="_Path_" data-name="&lt;Path&gt;" class="cls-4" d="M130.61,83.33v30.91s-5.09,3.18-10.05,0V79.69c0-6.16,5.78-11,11.92-10.5h0Z"/><path id="_Path_2" data-name="&lt;Path&gt;" class="cls-5" d="M130.61,83.33v30.91s-5.09,3.18-10.05,0V79.69c0-6.16,5.78-11,11.92-10.5h0Z"/><path id="_Path_3" data-name="&lt;Path&gt;" class="cls-6" d="M215,150.72l-3.58-.33-.39.17a4.9,4.9,0,0,1-5.36-1s-3.69-4-3.66-4.14c0,0-2.46,1.35-1.13,5s1,5.34,1,5.34a.83.83,0,0,0,1.13,0v-4.11l4.48,2.59a2.57,2.57,0,0,0,2.6,0l5-2.9A.33.33,0,0,0,215,150.72Z"/><polygon class="cls-7" points="306.02 316.48 282.89 338.06 270.28 344.36 0 330.77 140.68 284.09 253.13 303.81 270.28 301.4 306.02 316.48"/><path class="cls-8" d="M202.94,247.61s.51,41.85,1.11,49.28c.2,1.8,4.61,3.61,6.42,1,1.81-3.41.7-38.44,2.91-44.86C212.78,248.41,205.15,246.81,202.94,247.61Z"/><path class="cls-9" d="M203.34,249.21a20.69,20.69,0,0,0,9,10.44c5.42,2.81,6.22,7.63,6.62,11.84s.4,29.31.8,30.11,3.82,4,8,0c.4-11.64.61-49.37-.2-54.19S202.74,247,203.34,249.21Z"/><path class="cls-10" d="M205.25,214.48s-3.41,1.62-4.13,7.55A89.58,89.58,0,0,1,199,234.25s-4,1.61-7,3.05-4.32,1.26-4.32,1.26-4.31,4.49-2.87,4.85,4.67-1.44,4.67-1.44,8.09-.71,10.6-2.33,4.86-4.14,5.57-7S212.26,216.28,205.25,214.48Z"/><path class="cls-11" d="M204.36,213.22s-3.06,0-5,8.81a71.11,71.11,0,0,0-1.07,7.72s2.69,4,8.26,1.44a47.53,47.53,0,0,0,1.62-9.16C208.31,217.89,205.07,213.4,204.36,213.22Z"/><path class="cls-12" d="M219.4,209.27S229,215.69,230,217.9s1.41,8.43-.4,12.65S229,250,228.44,253s-8.64,4.21-13.65,3.41-12.65-4.21-12.65-10,1-16.66.6-19.26a45.3,45.3,0,0,1,.81-13.65c.22-.94,3.32-2,3.32-2S210.11,209.18,219.4,209.27Z"/><path class="cls-10" d="M211.17,208.27a.89.89,0,0,1,0,.3c-.08.69-.37,2.47-.41,3.21s.8,1.91,2.71,1.81,5.12-1,6.12-3.32a52.89,52.89,0,0,1,.1-6.72Z"/><path class="cls-10" d="M222.21,203.2c-1.47,4.48-5.57,6-7.83,6.77s-5,.46-6.47-1.05-2.86-8.28-2-14.15,5.42-9.33,10.69-8.28S226.28,190.85,222.21,203.2Z"/><path class="cls-13" d="M220.22,187.07s-3.1-4.58-8.9-1.75-6.33,5.26-8.9,4.85c.14,1,.41,4.32,6.07,5a18.5,18.5,0,0,0,10-1.62,6.78,6.78,0,0,0-1.08,4.05c0,2.69.68,2.69.68,2.69s.81-3.64,2.16-3.37,1.34,3.64.26,4.85-1.75.68-1.75.68a1.43,1.43,0,0,0,1,1.11,1,1,0,0,0,1.32-.3,5.46,5.46,0,0,1-1.61,1.75c0,.4,1.34.4,1.34.4a8.74,8.74,0,0,1-1.61,1.62c.27.27,2.15.54,4-2.16a13.33,13.33,0,0,0,2.43-9.56c-.41-3.91-1.89-5-1.89-5A4.2,4.2,0,0,0,220.22,187.07Z"/><path class="cls-10" d="M187.21,238.23a2.56,2.56,0,0,0-.67-.64c-.79-.51-1.7-.72-2.48-1.26s-1.41.41-1,1a2.43,2.43,0,0,0,.24.3,13.11,13.11,0,0,0-1.91.26,1.42,1.42,0,0,0-1.23,1.58,6.1,6.1,0,0,0,.7,3.19,3.34,3.34,0,0,0,2.61,1,4,4,0,0,0,3.81-1.86A3.42,3.42,0,0,0,187.21,238.23Z"/><path class="cls-10" d="M230.05,221.71s5.8,11.32,3.91,20.35c-1.61,3.24-9.3,1.89-12.8-.54-.27-.13-2.43.68-3.51-1.61l-.4-.41s-2.43-.4-3-1.34,1.76-3,3.24-2.83,4,3.09,4,3.09,6.07,1,7.82.27c0-.67-3.1-11.32-4.58-13.88s-2-4.72.13-5.79S228.84,219.29,230.05,221.71Z"/><path class="cls-14" d="M228.23,215.89s6.32,3.62,7.22,18.9c0,.89-5.94,4.13-9.71.54-1.26-5.22-1.8-8.27-2.87-10.61s-1.62-4.31.71-6.65S227.31,215.15,228.23,215.89Z"/><path id="_Path_4" data-name="&lt;Path&gt;" class="cls-15" d="M129.2,114.71s2.17,3.92-.33,5.37-5.42,1.7-9.09-.93-8.48-4.62-8.48-7.71,4.17-4.43,8.14-2.15S129.2,114.71,129.2,114.71Z"/><path id="_Path_5" data-name="&lt;Path&gt;" class="cls-16" d="M130.61,83.33v30.91s-5.09,3.18-10.05,0V79.69c0-6.16,5.78-11,11.92-10.5h0Z"/><path id="_Path_6" data-name="&lt;Path&gt;" class="cls-10" d="M203.77,117.56l2.23-1.44a42.36,42.36,0,0,0-3,14.72c-.18,8.43-.14,11.12-1.16,15l3.77,3.7a4.9,4.9,0,0,0,5.36,1l.39-.17s-3.74-2.87-4.08-5.89,6.62-26.57,6.51-34.08-9.23-6.29-12-5.19Z"/><path id="_Path_7" data-name="&lt;Path&gt;" class="cls-17" d="M215,150.72l-3.58-.33-.39.17a4.9,4.9,0,0,1-5.36-1s-3.69-4-3.66-4.14c0,0-2.46,1.35-1.13,5s1,5.34,1,5.34a.83.83,0,0,0,1.13,0v-4.11l4.48,2.59a2.57,2.57,0,0,0,2.6,0l5-2.9A.33.33,0,0,0,215,150.72Z"/><path class="cls-18" d="M209.72,148.68c0-7.26-5-16.15-11.35-19.81L134.75,92.11a9.33,9.33,0,0,0-6.33-1.46h0l-.11,0c-3,.67-7.17,3.38-7.17,3.38l.17.84,2,1.26a12.5,12.5,0,0,0-.47,2.49v181.1c0,7.27,5.39,16.15,11.72,19.81l63.81,36.76a13.28,13.28,0,0,0,2.09,1l-.24.35-2.12,3.07h.16s10.7,0,11.49-8.54C209.79,331.86,209.72,148.68,209.72,148.68Z"/><path class="cls-19" d="M192.88,339.13,129.2,302.36c-6.33-3.65-11.48-12.54-11.48-19.8V101.46c0-7.26,5.15-10.2,11.48-6.55l63.68,36.77c6.34,3.66,11.49,12.54,11.49,19.81V332.58c0,7.27-5.15,10.21-11.49,6.55Z"/><path class="cls-20" d="M193.22,135.33,128.87,98.17c-4.45-2.57-8.08-.49-8.08,4.61v182c0,5.09,3.63,11.36,8.08,13.93l64.35,37.15c4.44,2.57,8.08.5,8.08-4.6v-182C201.3,144.16,197.66,137.89,193.22,135.33Z"/><path class="cls-21" d="M193.22,135.33l-8.51-4.92c-.49-.28-.92-.15-1.06.28V132c0,2.83-2,4-4.49,2.56L143,113.64a9.92,9.92,0,0,1-4.49-7.74V105a2.48,2.48,0,0,0-1.12-1.94l-8.47-4.89c-4.45-2.57-8.08-.49-8.08,4.61v182c0,5.09,3.63,11.36,8.08,13.93l64.35,37.15c4.44,2.57,8.08.5,8.08-4.6v-182C201.3,144.16,197.66,137.89,193.22,135.33Z"/><path class="cls-19" d="M169.46,125.15c0,.89-.62,1.24-1.4.8a3.1,3.1,0,0,1-1.4-2.41c0-.89.63-1.25,1.4-.8A3.07,3.07,0,0,1,169.46,125.15Z"/><path class="cls-19" d="M163.11,122.3l-9.76-5.64a1.57,1.57,0,0,1-.72-1.24v-.13c0-.46.32-.65.72-.42l9.76,5.64a1.59,1.59,0,0,1,.72,1.25v.13c0,.46-.32.64-.72.41Z"/><path class="cls-19" d="M195.27,294.29c0,5.5-3.9,7.75-8.66,5l-51.13-29.52c-4.76-2.75-8.66-9.5-8.66-15v-115c0-5.5,3.9-7.75,8.66-5l51.13,29.52c4.76,2.75,8.66,9.5,8.66,15Z"/><path class="cls-22" d="M174.16,176.25a2.6,2.6,0,0,1-1.25-.33l-26.74-15.44a2.5,2.5,0,1,1,2.5-4.33l26.74,15.44a2.49,2.49,0,0,1,.92,3.41A2.52,2.52,0,0,1,174.16,176.25Z"/><path class="cls-22" d="M187.77,219.92a.54.54,0,0,1-.25-.06l-54.3-31.35a.5.5,0,0,1,.5-.87L188,219a.5.5,0,0,1,.18.68A.48.48,0,0,1,187.77,219.92Z"/><path class="cls-22" d="M150.4,194a1.59,1.59,0,0,1-.75-.2l-16.21-9.36a1.5,1.5,0,1,1,1.5-2.6l16.21,9.36a1.5,1.5,0,0,1-.75,2.8Z"/><path class="cls-22" d="M187.67,242.56a.45.45,0,0,1-.25-.07l-54.3-31.35a.5.5,0,0,1,.5-.86l54.3,31.34a.51.51,0,0,1,.18.69A.5.5,0,0,1,187.67,242.56Z"/><path class="cls-23" d="M184.57,264.14a5.45,5.45,0,0,1-2.74-.74L134,235.8a5.5,5.5,0,1,1,5.5-9.53l47.81,27.61a5.5,5.5,0,0,1-2.76,10.26Z"/><path class="cls-22" d="M184.38,281.32a5.52,5.52,0,0,1-2.75-.74L133.82,253a5.5,5.5,0,0,1,5.5-9.53l47.81,27.6a5.5,5.5,0,0,1-2.75,10.27Z"/><ellipse class="cls-24" cx="135.26" cy="204.55" rx="1.32" ry="2.28" transform="translate(-84.74 96.22) rotate(-30.31)"/><ellipse class="cls-24" cx="140.93" cy="207.82" rx="1.32" ry="2.28" transform="translate(-85.62 99.53) rotate(-30.31)"/><ellipse class="cls-24" cx="146.6" cy="211.1" rx="1.32" ry="2.28" transform="translate(-86.5 102.85) rotate(-30.31)"/><ellipse class="cls-24" cx="152.28" cy="214.37" rx="1.32" ry="2.28" transform="translate(-87.37 106.16) rotate(-30.31)"/><ellipse class="cls-24" cx="157.95" cy="217.65" rx="1.32" ry="2.28" transform="translate(-88.25 109.47) rotate(-30.31)"/><ellipse class="cls-24" cx="163.62" cy="220.92" rx="1.32" ry="2.28" transform="translate(-89.13 112.78) rotate(-30.31)"/><path id="_Path_8" data-name="&lt;Path&gt;" class="cls-25" d="M290.66,111.91h-.16a9.38,9.38,0,0,0,.16-1.68,9,9,0,0,0-14.73-6.87,7.29,7.29,0,0,0-13.78,2.28h-.06a10.43,10.43,0,1,0,0,20.86h28.57a7.3,7.3,0,0,0,0-14.6Z"/><path id="_Path_9" data-name="&lt;Path&gt;" class="cls-26" d="M172.67,30.73h.12a6.36,6.36,0,0,1-.12-1.24,6.68,6.68,0,0,1,11-5.12,5.43,5.43,0,0,1,10.26,1.7h0a7.77,7.77,0,1,1,0,15.53H172.67a5.44,5.44,0,1,1,0-10.87Z"/><path id="_Path_10" data-name="&lt;Path&gt;" class="cls-27" d="M240.61,23.61l.31,0a17.14,17.14,0,0,1-.31-3.14A16.78,16.78,0,0,1,268.18,7.64,13.64,13.64,0,0,1,294,11.91h.12a19.52,19.52,0,1,1,0,39H240.61a13.66,13.66,0,0,1,0-27.32Z"/><polygon id="Path-2" class="cls-28" points="265.45 159.06 287.67 170.17 287.67 309.06 265.45 320.17 243.23 309.06 243.23 170.17 265.45 159.06"/><polygon id="Path-2-2" data-name="Path-2" class="cls-29" points="265.45 159.06 287.67 170.17 265.45 181.28 243.23 170.17 265.45 159.06"/><line class="cls-30" x1="11.05" y1="327.77" x2="239.64" y2="249.04"/><path id="_Path_11" data-name="&lt;Path&gt;" class="cls-31" d="M114.79,122.69s2.17,3.92-.33,5.36-5.42,1.71-9.09-.93-8.48-4.62-8.48-7.7,4.17-4.43,8.13-2.16S114.79,122.69,114.79,122.69Z"/><path class="cls-32" d="M148.41,78.35c-.08.07-10.18,8.67-17.9,1.4l-.82-4.3h0l-.48-1c-1,.68-2,1-3,1.58A46,46,0,0,1,121,78.36l7.66,6L118,79.39l.09-.08s0,0-.06,0c-6.11-.48-11.2,2.18-11.2,8.32v34.55c5,3.17,10,0,10,0v-30c11,8.07,18.74,8.41,27,3C150.64,90.7,148.41,78.35,148.41,78.35Z"/><path id="_Path_12" data-name="&lt;Path&gt;" class="cls-10" d="M153.53,59.58l-.07-.28a10.41,10.41,0,0,1-1.18.56A120.24,120.24,0,0,1,151,74.4a3.05,3.05,0,0,0,1.6,0C154.17,70,153.53,59.58,153.53,59.58Z"/><path id="_Compound_Path_" data-name="&lt;Compound Path&gt;" class="cls-33" d="M155.37,58.12c-.51-3.89-1.23-7.46-1.67-9.33C152.34,43,147.49,43,146,43.36h0l-.07,0L132,51a7.54,7.54,0,0,0-2.65,2.69c-2.16,2.4-2.7,10-2.61,15.51a6.55,6.55,0,0,0,2,.78l0,14.27c10,7.41,18.8,1.18,21-.66a2.35,2.35,0,0,0,.73-1.1c2.51-8.17,2-16.14,1.86-22.59h0C153.26,59.86,154.15,59.43,155.37,58.12Z"/><polygon id="_Path_13" data-name="&lt;Path&gt;" class="cls-34" points="119.95 70.05 126.75 66.11 126.75 67.36 120.9 70.72 119.95 70.05"/><path id="_Compound_Path_2" data-name="&lt;Compound Path&gt;" class="cls-35" d="M130.15,62.28h0a.61.61,0,0,0-.11-.36L119.76,47.7a.63.63,0,0,0-.81-.19l-11.24,6a.61.61,0,0,0-.32.55h0v1.53h0a.64.64,0,0,0,.12.35L115.16,66l0,0,2.9,4.38a.64.64,0,0,0,.85.2l10.92-6.3a.63.63,0,0,0,.3-.55h0V62.29Z"/><path id="_Path_14" data-name="&lt;Path&gt;" class="cls-36" d="M115.16,64.53l-7.66-10.1a.64.64,0,0,1,.21-1l11.24-6a.63.63,0,0,1,.81.19L130,61.92a.64.64,0,0,1-.19.92l-10.92,6.3a.64.64,0,0,1-.85-.2l-2.9-4.38Z"/><path id="_Path_15" data-name="&lt;Path&gt;" class="cls-37" d="M115.6,63.61l-6.7-8.85a.56.56,0,0,1,.18-.83l9.85-5.23a.56.56,0,0,1,.71.16l9,12.46a.56.56,0,0,1-.18.81l-9.56,5.52a.55.55,0,0,1-.74-.17l-2.54-3.84Z"/><path id="_Path_16" data-name="&lt;Path&gt;" class="cls-38" d="M115.16,64.53l-7.66-10.1a.64.64,0,0,1,.21-1l11.24-6a.63.63,0,0,1,.81.19L130,61.92a.64.64,0,0,1-.19.92l-10.92,6.3a.64.64,0,0,1-.85-.2l-2.9-4.38Z"/><path id="_Path_17" data-name="&lt;Path&gt;" class="cls-37" d="M115.6,63.61l-6.7-8.85a.56.56,0,0,1,.18-.83l9.85-5.23a.56.56,0,0,1,.71.16l9,12.46a.56.56,0,0,1-.18.81l-9.56,5.52a.55.55,0,0,1-.74-.17l-2.54-3.84Z"/><path id="_Path_18" data-name="&lt;Path&gt;" class="cls-39" d="M115.6,63.61l-6.7-8.85a.56.56,0,0,1,.18-.83l9.85-5.23a.56.56,0,0,1,.71.16l9,12.46a.56.56,0,0,1-.18.81l-9.56,5.52a.55.55,0,0,1-.74-.17l-2.54-3.84Z"/><path id="_Path_19" data-name="&lt;Path&gt;" class="cls-34" d="M123.3,56A4.55,4.55,0,0,0,125,59a16.17,16.17,0,0,0,3.38,2.14l.34-1.43Z"/><path id="_Path_20" data-name="&lt;Path&gt;" class="cls-10" d="M127.87,60.25a15.51,15.51,0,0,1-4.27-3.71c-1.5-2.11,2.86.41,2.86.41l-2.53-3.49s5.37-.27,6.23,5.72Z"/><path id="_Path_21" data-name="&lt;Path&gt;" class="cls-40" d="M130.15,62.28a.64.64,0,0,1-.3.56l-10.92,6.3a.64.64,0,0,1-.85-.2l-2.9-4.38,0,0-7.66-10.1a.58.58,0,0,1-.11-.4h0v1.53h0a.64.64,0,0,0,.12.35L115.16,66l0,0,2.9,4.38a.64.64,0,0,0,.85.2l10.92-6.3a.63.63,0,0,0,.3-.55h0V62.29Z"/><path id="_Path_22" data-name="&lt;Path&gt;" class="cls-34" d="M114.54,60.06s-.81.21-.28,3.29l.91,1.73.79-.42Z"/><g id="_Group_" data-name="&lt;Group&gt;"><path id="_Path_23" data-name="&lt;Path&gt;" class="cls-10" d="M135.1,69.21a9.88,9.88,0,0,1-7.8.26c0,2.09.14,3.88.21,5a.48.48,0,0,1-.77.41l-8.91-6.29s.21-4.83-2.23-7.8-.43,3.8-.43,3.8l-3.29-4.31a.76.76,0,0,0-1.25.07c-1,1.77-2.34,6,4.54,10.2,0,0,4.45,8.15,12,13C134.23,88.11,135.27,69.23,135.1,69.21Z"/></g><path id="_Path_24" data-name="&lt;Path&gt;" class="cls-10" d="M142,46.07l-.28-.72L136,46.49s.44,1.37-1.73,3.25a10.34,10.34,0,0,0,7.36-2.12A1.37,1.37,0,0,0,142,46.07Z"/><path id="_Path_25" data-name="&lt;Path&gt;" class="cls-10" d="M128.18,30.13a9.72,9.72,0,0,1,9.46-8.45,9.53,9.53,0,0,1,9.53,9.53c0,.05,0,.1,0,.16h0v5.3a9.47,9.47,0,0,1-6.15,9,16,16,0,0,1-5.74.85,2.93,2.93,0,0,1-1.75-.64C129.24,42.42,127,37.29,128.18,30.13Z"/><path id="_Path_26" data-name="&lt;Path&gt;" class="cls-41" d="M137.64,20.44c-3,0-6.31,1.35-7.8,3.89h0s-4.13,2.12-1.6,7.08c0,0,.16-.62,1.19-1.21a3.89,3.89,0,0,0,1.26,4,5.76,5.76,0,0,0,4.44,1.08,13.23,13.23,0,0,1,3,7.35,3.26,3.26,0,0,0,4.36,2.86c3.4-1.27,7.31-4.28,7.31-11C149.84,22.53,141.47,20.44,137.64,20.44Z"/><path id="_Path_27" data-name="&lt;Path&gt;" class="cls-42" d="M137.64,20.44c-3,0-6.31,1.35-7.8,3.89h0s-4.13,2.12-1.6,7.08c0,0,.16-.62,1.19-1.21a3.89,3.89,0,0,0,1.26,4,5.76,5.76,0,0,0,4.44,1.08,13.23,13.23,0,0,1,3,7.35,3.26,3.26,0,0,0,4.36,2.86c3.4-1.27,7.31-4.28,7.31-11C149.84,22.53,141.47,20.44,137.64,20.44Z"/><path id="_Path_28" data-name="&lt;Path&gt;" class="cls-10" d="M134.23,37a2.17,2.17,0,1,0,2.17-2.17A2.17,2.17,0,0,0,134.23,37Z"/><path id="_Path_29" data-name="&lt;Path&gt;" class="cls-43" d="M110.63,60.31c-1,1.77-2.34,6,4.54,10.2A9.8,9.8,0,0,1,110.63,60.31Z"/><g id="Chart"><polygon id="Path-2-Copy-3" class="cls-44" points="235.96 288.39 256.97 298.9 256.97 325.16 235.96 335.67 214.94 325.16 214.94 298.9 235.96 288.39"/><polygon id="Path-2-Copy-4" class="cls-45" points="235.96 288.39 256.97 298.9 235.96 309.4 214.94 298.9 235.96 288.39"/></g><g id="Chart-2" data-name="Chart"><polygon id="Path-2-Copy" class="cls-46" points="293.41 286.52 306.02 292.83 306.02 316.48 293.41 322.79 280.79 316.48 280.79 292.83 293.41 286.52"/><polygon id="Path-2-Copy-2" class="cls-47" points="293.41 286.52 306.02 292.83 293.41 299.14 280.79 292.83 293.41 286.52"/></g><g id="Chart-3" data-name="Chart"><polygon id="Path-2-Copy-3-2" data-name="Path-2-Copy-3" class="cls-48" points="270.28 327.81 282.89 334.12 282.89 338.06 270.28 344.36 257.66 338.06 257.66 334.12 270.28 327.81"/><polygon id="Path-2-Copy-4-2" data-name="Path-2-Copy-4" class="cls-49" points="270.28 327.81 282.89 334.12 270.28 340.42 257.66 334.12 270.28 327.81"/></g><path id="_Path_30" data-name="&lt;Path&gt;" class="cls-10" d="M212.09,122.84l2.24-1.44a42.52,42.52,0,0,0-3,14.73c-.18,8.42-.14,11.11-1.16,15l3.77,3.71a4.9,4.9,0,0,0,5.36,1l.4-.17s-3.75-2.86-4.08-5.88,6.61-26.58,6.5-34.08-9.23-6.3-12-5.19Z"/><path id="_Path_31" data-name="&lt;Path&gt;" class="cls-50" d="M207.33,108.35a68.69,68.69,0,0,0-5.91-3.56l-3.47,2h0l-.81,4.93c-7.53,7.09-15.37,0-15.45,0h0s-5.86,10.26,2.49,15.79,16.3,5,27.58-3.75C211.76,123.73,216,114.34,207.33,108.35Z"/><path id="_Path_32" data-name="&lt;Path&gt;" class="cls-51" d="M187,79.37s-5.32-2.73-7.92.29c-3,3.46-5.21,14.57,2.6,32,0,0,7.88,7.17,15.46,0l1.75-10.82a12.17,12.17,0,0,0,3.31-4.83c.86-2-.77-5.24-2.25-7.53a12.91,12.91,0,0,0-4.28-4.1Z"/><path id="_Path_33" data-name="&lt;Path&gt;" class="cls-10" d="M191.83,80s-.43,1.33,1.69,3.17c0,0-2.22,1.87-4.52,1.3s-4.17-2.36-3.64-3.48.87-2.1.87-2.1Z"/><path id="_Path_34" data-name="&lt;Path&gt;" class="cls-10" d="M199.42,64.51a9.48,9.48,0,0,0-9.23-8.24,9.28,9.28,0,0,0-9.28,9.29v.15h0v5.17a9.21,9.21,0,0,0,6,8.73,15.13,15.13,0,0,0,5.6.83,2.86,2.86,0,0,0,1.7-.62C198.38,76.48,200.55,71.49,199.42,64.51Z"/><path id="_Path_35" data-name="&lt;Path&gt;" class="cls-41" d="M198.59,61.8s.4,5.11-6,7.72a13.05,13.05,0,0,0-2.92,6.59A3.7,3.7,0,0,1,184.47,79c-3-1.42-6.17-4.32-6.17-10.28,0-11.62,8.16-13.66,11.89-13.66C194.15,55.06,198.59,57.44,198.59,61.8Z"/><path id="_Path_36" data-name="&lt;Path&gt;" class="cls-42" d="M198.59,61.8s.4,5.11-6,7.72a13.05,13.05,0,0,0-2.92,6.59A3.7,3.7,0,0,1,184.47,79c-3-1.42-6.17-4.32-6.17-10.28,0-11.62,8.16-13.66,11.89-13.66C194.15,55.06,198.59,57.44,198.59,61.8Z"/><path id="_Path_37" data-name="&lt;Path&gt;" class="cls-42" d="M181.48,67.49a3.62,3.62,0,0,0-2.83-4C174,62.68,173.57,69,173.22,71a21.38,21.38,0,0,1-3.86,8.59C176.72,81.46,181.08,73.59,181.48,67.49Z"/><path id="_Path_38" data-name="&lt;Path&gt;" class="cls-31" d="M223.3,156l-3.57-.34-.4.17a4.9,4.9,0,0,1-5.36-1s-3.69-4-3.66-4.15c0,0-2.46,1.35-1.12,5s1,5.35,1,5.35a.84.84,0,0,0,1.13,0v-4.11l4.48,2.58a2.6,2.6,0,0,0,2.6,0l5-2.9A.33.33,0,0,0,223.3,156Z"/><path id="_Path_39" data-name="&lt;Path&gt;" class="cls-10" d="M193.52,71.4a2.29,2.29,0,1,1-2.29-2.28A2.28,2.28,0,0,1,193.52,71.4Z"/><g class="cls-3"><path class="cls-52" d="M230.09,85a1.41,1.41,0,0,1,.5,1.64l-5.11,15.07a.89.89,0,0,1-1.27.63L206.59,92.15a1.41,1.41,0,0,1-.49-1.64l5.11-15.07a.88.88,0,0,1,1.26-.63Z"/><g class="cls-3"><g class="cls-53"><path class="cls-54" d="M230.09,85,212.47,74.81a.88.88,0,0,0-1.26.63L206.1,90.51a1.41,1.41,0,0,0,.49,1.64l17.62,10.18a.89.89,0,0,0,1.27-.63l5.11-15.07a1.41,1.41,0,0,0-.5-1.64"/></g></g><path class="cls-55" d="M230.09,85,212.47,74.81a.76.76,0,0,0-.41-.1l.66,0a.82.82,0,0,1,.41.11L230.75,85a1.42,1.42,0,0,1,.5,1.64l-5.12,15.08a1,1,0,0,1-.85.73h-.66a1,1,0,0,0,.86-.73l5.11-15.07A1.41,1.41,0,0,0,230.09,85Z"/></g><path class="cls-56" d="M224.13,102.14c.49.28.49.73,0,1l-11.65,6.77a1.93,1.93,0,0,1-1.75,0L193.11,99.75a.54.54,0,0,1,0-1L204.76,92a1.93,1.93,0,0,1,1.75,0Z"/><path class="cls-1" d="M224.13,102.14c.49.28.49.73,0,1l-11.65,6.77a1.93,1.93,0,0,1-1.75,0L193.11,99.75a.54.54,0,0,1,0-1L204.76,92a1.93,1.93,0,0,1,1.75,0Z"/><path class="cls-57" d="M224.13,102.14,206.51,92a1.93,1.93,0,0,0-1.75,0l-11.65,6.77a.54.54,0,0,0,0,1l17.63,10.17a1.93,1.93,0,0,0,1.75,0l11.65-6.77c.48-.28.48-.73,0-1"/><path id="_Clipping_Path_2" data-name="&lt;Clipping Path&gt;" class="cls-2" d="M216.35,106.26l5.19-3a.22.22,0,0,0,0-.4l-16.3-9.41a.51.51,0,0,0-.45,0l-5.19,3a.23.23,0,0,0-.13.2.24.24,0,0,0,.13.2l16.3,9.41a.41.41,0,0,0,.23,0A.4.4,0,0,0,216.35,106.26Z"/><g class="cls-58"><g class="cls-3"><path class="cls-59" d="M221.48,102.79c.1.06.1.15,0,.2l-5.2,3a.35.35,0,0,1-.33,0l-16.3-9.41a.1.1,0,0,1,0-.19l5.19-3a.4.4,0,0,1,.34,0Z"/><path class="cls-60" d="M199.59,96.5a.1.1,0,0,0,.07.09L216,106a.35.35,0,0,0,.33,0l5.2-3a.12.12,0,0,0,.06-.1v.39a.14.14,0,0,1-.06.1l-5.2,3a.33.33,0,0,1-.33,0L199.66,97a.1.1,0,0,1-.07-.1Z"/></g></g><path class="cls-61" d="M224.14,103.15l-11.65,6.77a1.93,1.93,0,0,1-1.75,0L193.11,99.75a.63.63,0,0,1-.36-.51v1a.63.63,0,0,0,.36.51l17.62,10.17a2,2,0,0,0,1.76,0l11.65-6.77a.61.61,0,0,0,.36-.5v-1A.6.6,0,0,1,224.14,103.15Z"/><path class="cls-62" d="M211.14,104.07l-7.91-4.57a.79.79,0,0,0-.67,0l-4.06,2.36c-.19.11-.19.29,0,.39l7.91,4.57a.75.75,0,0,0,.67,0l4.06-2.36a.21.21,0,0,0,0-.39"/><path class="cls-63" d="M198.65,96.16l.33.19a.32.32,0,0,0,.33,0l6.16-3.58a.1.1,0,0,0,0-.19l-.33-.19a.34.34,0,0,0-.34,0L198.64,96c-.09,0-.09.14,0,.19"/><path class="cls-64" d="M223.45,103l-.33-.19a.38.38,0,0,0-.33,0l-6.16,3.58a.1.1,0,0,0,0,.19l.33.2a.4.4,0,0,0,.34,0l6.16-3.58c.09,0,.09-.14,0-.2"/><path class="cls-65" d="M222.46,102.38,206.16,93a.34.34,0,0,0-.34,0l-.33.19c-.09,0-.09.14,0,.2l16.3,9.41a.4.4,0,0,0,.34,0l.33-.2a.1.1,0,0,0,0-.19"/><path id="_Path_40" data-name="&lt;Path&gt;" class="cls-10" d="M176.61,86.23c-2.14,8.25-4.16,20.32,2.26,18.56l.12,0C176.38,96.87,176,90.64,176.61,86.23Z"/><path id="_Path_41" data-name="&lt;Path&gt;" class="cls-10" d="M206.3,90.4A6.73,6.73,0,0,0,200,88.76a13.47,13.47,0,0,1,2.3,4.69,6.5,6.5,0,0,0,1.37-.78A6.29,6.29,0,0,1,206,91.6.69.69,0,0,0,206.3,90.4Z"/><path id="_Path_42" data-name="&lt;Path&gt;" class="cls-10" d="M196.72,86.28c-1.51,0-4.53.85-4.53,6.69s1,28,8.25,23.16,11.66-12.68,11.66-12.68a8.71,8.71,0,0,0,5.38-3.18,6.21,6.21,0,0,1,1.91-1.77h0a.69.69,0,0,0-.09-1.23c-2.09-.87-6.54-1.81-9.52,4.14l-9,6.26a.46.46,0,0,1-.75-.39C200.36,102.84,201,86.28,196.72,86.28Z"/><path class="cls-66" d="M148.52,291.59a50.35,50.35,0,1,1,50.34-50.34A50.4,50.4,0,0,1,148.52,291.59Z"/><path class="cls-67" d="M148.52,279a37.79,37.79,0,1,1,37.79-37.78A37.83,37.83,0,0,1,148.52,279Z"/><path class="cls-68" d="M148.52,266.48a25.23,25.23,0,1,1,25.23-25.23A25.26,25.26,0,0,1,148.52,266.48Z"/><path class="cls-69" d="M148.52,253.92a12.67,12.67,0,1,1,12.67-12.67A12.69,12.69,0,0,1,148.52,253.92Z"/><g class="cls-70"><path class="cls-66" d="M216.62,115.82A27.68,27.68,0,1,1,244.3,88.14,27.71,27.71,0,0,1,216.62,115.82Z"/><path class="cls-67" d="M216.62,108.91A20.77,20.77,0,1,1,237.4,88.14,20.79,20.79,0,0,1,216.62,108.91Z"/><path class="cls-68" d="M216.62,102a13.87,13.87,0,1,1,13.87-13.87A13.88,13.88,0,0,1,216.62,102Z"/><path class="cls-69" d="M216.62,95.11a7,7,0,1,1,7-7A7,7,0,0,1,216.62,95.11Z"/></g><g class="cls-70"><path class="cls-66" d="M115.62,83.82A27.68,27.68,0,1,1,143.3,56.14,27.71,27.71,0,0,1,115.62,83.82Z"/><path class="cls-67" d="M115.62,76.91A20.77,20.77,0,1,1,136.4,56.14,20.79,20.79,0,0,1,115.62,76.91Z"/><path class="cls-68" d="M115.62,70a13.87,13.87,0,1,1,13.87-13.87A13.88,13.88,0,0,1,115.62,70Z"/><path class="cls-69" d="M115.62,63.11a7,7,0,1,1,7-7A7,7,0,0,1,115.62,63.11Z"/></g><path class="cls-71" d="M119.22,238.4s1,25.42,1.47,24.58a.61.61,0,0,0,0-.11,2.09,2.09,0,0,0,1.67-1.23C120.39,261,119.34,238.91,119.22,238.4Z"/><path id="_Path_43" data-name="&lt;Path&gt;" class="cls-72" d="M151.26,244.14a31,31,0,0,1-4.86-1c1.27.58,3.51,3.38.77,2a18.92,18.92,0,0,1-4.52-3.19l-9,.34c-1.14,0-5-3.85-1.86-3.88l10.49,0C152,237.6,153.75,244.43,151.26,244.14Z"/><path class="cls-73" d="M297,269.32V293a1.4,1.4,0,0,1-.26.78,2.47,2.47,0,0,1-.79.69,5.2,5.2,0,0,1-2.55.61,5.15,5.15,0,0,1-2.55-.61,2.41,2.41,0,0,1-.8-.69,1.4,1.4,0,0,1-.26-.78V269.32a1.37,1.37,0,0,0,.26.78,2.41,2.41,0,0,0,.8.69,5.15,5.15,0,0,0,2.55.61,5.2,5.2,0,0,0,2.55-.61,2.47,2.47,0,0,0,.79-.69A1.37,1.37,0,0,0,297,269.32Z"/><path class="cls-74" d="M297,261.31V288.2c0,2.73-7.21-.47-7.21-3.2V261.31a1.37,1.37,0,0,0,.26.78,2.47,2.47,0,0,0,.79.69,5.66,5.66,0,0,0,5.11,0,2.36,2.36,0,0,0,.79-.69A1.37,1.37,0,0,0,297,261.31Z"/><path class="cls-75" d="M297,261.15v26.73c0,2.73-7.21-.37-7.21-3.1V261.15a1.4,1.4,0,0,0,.26.78,2.47,2.47,0,0,0,.79.69,5.66,5.66,0,0,0,5.11,0,2.47,2.47,0,0,0,.79-.69A1.4,1.4,0,0,0,297,261.15Z"/><path class="cls-76" d="M297,261v26.59c0,2.73-7.21-.29-7.21-3V261a1.4,1.4,0,0,0,.26.79,2.6,2.6,0,0,0,.79.69,5.66,5.66,0,0,0,5.11,0,2.6,2.6,0,0,0,.79-.69A1.4,1.4,0,0,0,297,261Z"/><path class="cls-77" d="M297,260.82v26.43c0,2.73-7.21-.19-7.21-2.92V260.82a1.37,1.37,0,0,0,.26.78,2.47,2.47,0,0,0,.79.69,5.66,5.66,0,0,0,5.11,0,2.47,2.47,0,0,0,.79-.69A1.37,1.37,0,0,0,297,260.82Z"/><path class="cls-78" d="M297,260.66v26.28c0,2.72-7.21-.1-7.21-2.83V260.66a1.4,1.4,0,0,0,.26.78,2.47,2.47,0,0,0,.79.69,5.66,5.66,0,0,0,5.11,0,2.47,2.47,0,0,0,.79-.69A1.4,1.4,0,0,0,297,260.66Z"/><path class="cls-79" d="M297,260.49v26.13c0,2.73-7.21,0-7.21-2.74V260.49a1.4,1.4,0,0,0,.26.79,2.6,2.6,0,0,0,.79.69,5.66,5.66,0,0,0,5.11,0,2.6,2.6,0,0,0,.79-.69A1.4,1.4,0,0,0,297,260.49Z"/><path class="cls-80" d="M297,260.33v26c0,2.73-7.21.09-7.21-2.64V260.33a1.37,1.37,0,0,0,.26.78,2.47,2.47,0,0,0,.79.69,5.66,5.66,0,0,0,5.11,0,2.47,2.47,0,0,0,.79-.69A1.37,1.37,0,0,0,297,260.33Z"/><path class="cls-81" d="M297,260.17V286c0,2.73-7.21.18-7.21-2.55V260.17a1.4,1.4,0,0,0,.26.78,2.47,2.47,0,0,0,.79.69,5.66,5.66,0,0,0,5.11,0,2.47,2.47,0,0,0,.79-.69A1.4,1.4,0,0,0,297,260.17Z"/><path class="cls-82" d="M297,260v25.67c0,2.73-7.21.27-7.21-2.46V260a1.4,1.4,0,0,0,.26.79,2.6,2.6,0,0,0,.79.69,5.66,5.66,0,0,0,5.11,0,2.6,2.6,0,0,0,.79-.69A1.4,1.4,0,0,0,297,260Z"/><path class="cls-83" d="M297,259.84v25.52c0,2.73-7.21.36-7.21-2.37V259.84a1.37,1.37,0,0,0,.26.78,2.47,2.47,0,0,0,.79.69,5.66,5.66,0,0,0,5.11,0,2.47,2.47,0,0,0,.79-.69A1.37,1.37,0,0,0,297,259.84Z"/><path class="cls-84" d="M297,259.68V285c0,2.73-7.21.46-7.21-2.27V259.68a1.4,1.4,0,0,0,.26.78,2.47,2.47,0,0,0,.79.69,5.66,5.66,0,0,0,5.11,0,2.47,2.47,0,0,0,.79-.69A1.4,1.4,0,0,0,297,259.68Z"/><path class="cls-85" d="M297,259.51v25.22c0,2.73-7.21.54-7.21-2.19v-23a1.4,1.4,0,0,0,.26.79,2.6,2.6,0,0,0,.79.69,5.66,5.66,0,0,0,5.11,0,2.6,2.6,0,0,0,.79-.69A1.4,1.4,0,0,0,297,259.51Z"/><path class="cls-86" d="M297,259.35v25.06c0,2.73-7.21.64-7.21-2.09v-23a1.37,1.37,0,0,0,.26.78,2.47,2.47,0,0,0,.79.69,5.66,5.66,0,0,0,5.11,0,2.47,2.47,0,0,0,.79-.69A1.37,1.37,0,0,0,297,259.35Z"/><path class="cls-87" d="M297,259.19v24.9c0,2.73-7.21.74-7.21-2V259.19a1.4,1.4,0,0,0,.26.78,2.47,2.47,0,0,0,.79.69,5.66,5.66,0,0,0,5.11,0,2.47,2.47,0,0,0,.79-.69A1.4,1.4,0,0,0,297,259.19Z"/><path class="cls-88" d="M297,259v24.76c0,2.73-7.21.82-7.21-1.91V259a1.4,1.4,0,0,0,.26.79,2.6,2.6,0,0,0,.79.69,5.66,5.66,0,0,0,5.11,0,2.6,2.6,0,0,0,.79-.69A1.4,1.4,0,0,0,297,259Z"/><path class="cls-89" d="M297,258.86v24.6c0,2.73-7.21.92-7.21-1.81V258.86a1.37,1.37,0,0,0,.26.78,2.47,2.47,0,0,0,.79.69,5.66,5.66,0,0,0,5.11,0,2.47,2.47,0,0,0,.79-.69A1.37,1.37,0,0,0,297,258.86Z"/><path class="cls-90" d="M297,258.7v24.45c0,2.73-7.21,1-7.21-1.72V258.7a1.4,1.4,0,0,0,.26.78,2.47,2.47,0,0,0,.79.69,5.66,5.66,0,0,0,5.11,0,2.47,2.47,0,0,0,.79-.69A1.4,1.4,0,0,0,297,258.7Z"/><path class="cls-91" d="M297,258.53v24.3c0,2.73-7.21,1.1-7.21-1.63V258.53a1.4,1.4,0,0,0,.26.79,2.6,2.6,0,0,0,.79.69,5.66,5.66,0,0,0,5.11,0,2.6,2.6,0,0,0,.79-.69A1.4,1.4,0,0,0,297,258.53Z"/><path class="cls-92" d="M297,258.37v24.15c0,2.73-7.21,1.19-7.21-1.54V258.37a1.37,1.37,0,0,0,.26.78,2.47,2.47,0,0,0,.79.69,5.66,5.66,0,0,0,5.11,0,2.47,2.47,0,0,0,.79-.69A1.37,1.37,0,0,0,297,258.37Z"/><path class="cls-93" d="M297,258.21v24c0,2.73-7.21,1.29-7.21-1.44V258.21a1.4,1.4,0,0,0,.26.78,2.47,2.47,0,0,0,.79.69,5.66,5.66,0,0,0,5.11,0,2.47,2.47,0,0,0,.79-.69A1.4,1.4,0,0,0,297,258.21Z"/><path class="cls-94" d="M297,258v23.84c0,2.73-7.21,1.38-7.21-1.35V258a1.4,1.4,0,0,0,.26.79,2.6,2.6,0,0,0,.79.69,5.74,5.74,0,0,0,5.11,0,2.6,2.6,0,0,0,.79-.69A1.4,1.4,0,0,0,297,258Z"/><path class="cls-95" d="M297,257.88v23.69c0,2.73-7.21,1.47-7.21-1.26V257.88a1.37,1.37,0,0,0,.26.78,2.47,2.47,0,0,0,.79.69,5.66,5.66,0,0,0,5.11,0,2.47,2.47,0,0,0,.79-.69A1.37,1.37,0,0,0,297,257.88Z"/><path class="cls-96" d="M275.4,268l18-50.55,18,50.56c1.65,4.3-.37,7.47-4,9.54s-8.63,3-13.76,3a33.62,33.62,0,0,1-11.94-1.95C276.56,276.66,273.44,273.12,275.4,268Z"/><path class="cls-97" d="M275.59,268.38l17.82-50.9,17.88,50.76c1.59,4.22-.29,7.28-3.88,9.31s-8.67,3-13.8,3.06a33.49,33.49,0,0,1-12-2C276.72,276.7,273.71,273.28,275.59,268.38Z"/><path class="cls-98" d="M275.79,268.72l17.62-51.23,17.74,51c1.55,4.13-.2,7.08-3.71,9.08s-8.7,3-13.83,3.08a33.65,33.65,0,0,1-12-2C276.87,276.73,274,273.43,275.79,268.72Z"/><path class="cls-99" d="M276,269.07l17.43-51.57L311,268.65c1.49,4.05-.13,6.9-3.55,8.86s-8.73,3.06-13.86,3.1a33.75,33.75,0,0,1-12-2C277,276.76,274.26,273.58,276,269.07Z"/><path class="cls-100" d="M276.17,269.41l17.24-51.91,17.47,51.36c1.44,4,0,6.7-3.38,8.63s-8.76,3.08-13.9,3.12a33.76,33.76,0,0,1-12.05-2C277.18,276.8,274.53,273.74,276.17,269.41Z"/><path class="cls-101" d="M276.37,269.76l17-52.25,17.34,51.55c1.39,3.88,0,6.52-3.23,8.4s-8.78,3.11-13.92,3.15a33.86,33.86,0,0,1-12.08-2.05C277.33,276.83,274.8,273.89,276.37,269.76Z"/><path class="cls-102" d="M276.56,270.1l16.85-52.58,17.2,51.75c1.34,3.79.12,6.32-3.06,8.17s-8.82,3.13-13.95,3.17a34.18,34.18,0,0,1-12.11-2.06C277.48,276.87,275.08,274.05,276.56,270.1Z"/><path class="cls-103" d="M276.75,270.45l16.66-52.93,17.07,52c1.28,3.71.2,6.13-2.9,7.95s-8.85,3.15-14,3.19a34.4,34.4,0,0,1-12.14-2.08C277.64,276.9,275.35,274.2,276.75,270.45Z"/><path class="cls-104" d="M277,270.8l16.46-53.27,16.93,52.15c1.23,3.62.29,5.94-2.73,7.72-3.21,1.92-8.88,3.17-14,3.21a34.31,34.31,0,0,1-12.17-2.1C277.79,276.93,275.62,274.36,277,270.8Z"/><path class="cls-105" d="M277.14,271.14l16.27-53.6,16.8,52.35c1.18,3.54.37,5.74-2.57,7.48-3.18,1.92-8.91,3.2-14.05,3.24a34.39,34.39,0,0,1-12.2-2.12C277.94,277,275.89,274.51,277.14,271.14Z"/><path class="cls-106" d="M277.34,271.49l16.07-53.94,16.66,52.54c1.13,3.46.45,5.56-2.4,7.26-3.14,1.91-8.94,3.22-14.09,3.26a34.46,34.46,0,0,1-12.22-2.14C278.1,277,276.17,274.66,277.34,271.49Z"/><path class="cls-107" d="M277.53,271.83l15.88-54.28,16.53,52.75c1.07,3.37.53,5.36-2.24,7-3.1,1.9-9,3.24-14.12,3.28a34.64,34.64,0,0,1-12.26-2.16C278.25,277,276.44,274.82,277.53,271.83Z"/><path class="cls-108" d="M277.72,272.18l15.69-54.62,16.4,52.94c1,3.29.61,5.18-2.08,6.81-3.06,1.89-9,3.26-14.15,3.3a34.8,34.8,0,0,1-12.29-2.18C278.4,277.07,276.71,275,277.72,272.18Z"/><path class="cls-109" d="M277.92,272.52l15.49-54.95,16.26,53.14c1,3.2.69,5-1.91,6.58-3,1.88-9,3.27-14.19,3.32a34.85,34.85,0,0,1-12.31-2.2C278.56,277.11,277,275.13,277.92,272.52Z"/><path class="cls-110" d="M278.11,272.87l15.3-55.3,16.13,53.34c.91,3.12.77,4.79-1.75,6.35-3,1.88-9.07,3.3-14.22,3.35a34.79,34.79,0,0,1-12.35-2.22C278.71,277.14,277.26,275.28,278.11,272.87Z"/><path class="cls-111" d="M278.3,273.21l15.11-55.63,16,53.54c.86,3,.86,4.6-1.58,6.12-2.95,1.87-9.1,3.32-14.25,3.37a34.86,34.86,0,0,1-12.38-2.24C278.86,277.17,277.53,275.44,278.3,273.21Z"/><path class="cls-112" d="M278.5,273.56l14.91-56,15.86,53.73c.81,2.95.94,4.41-1.42,5.9-2.91,1.86-9.14,3.34-14.29,3.39a35.23,35.23,0,0,1-12.4-2.25C279,277.21,277.8,275.59,278.5,273.56Z"/><path class="cls-113" d="M278.69,273.9l14.72-56.31,15.72,53.94c.76,2.86,1,4.22-1.25,5.67-2.87,1.85-9.17,3.36-14.32,3.41a35.39,35.39,0,0,1-12.44-2.27C279.17,277.24,278.08,275.74,278.69,273.9Z"/><path class="cls-114" d="M278.89,274.25l14.52-56.65L309,271.73c.7,2.78,1.1,4-1.09,5.44-2.83,1.85-9.2,3.39-14.35,3.44a35.44,35.44,0,0,1-12.47-2.29C279.32,277.28,278.35,275.9,278.89,274.25Z"/><path class="cls-115" d="M279.08,274.59l14.33-57,15.45,54.33c.66,2.7,1.19,3.83-.92,5.21-2.8,1.84-9.23,3.41-14.39,3.46a35.25,35.25,0,0,1-12.49-2.31C279.48,277.31,278.62,276.05,279.08,274.59Z"/><path class="cls-116" d="M279.27,274.94l14.14-57.32,15.32,54.53c.6,2.61,1.26,3.64-.76,5-2.76,1.83-9.26,3.43-14.42,3.48A35.34,35.34,0,0,1,281,278.28C279.63,277.34,278.89,276.21,279.27,274.94Z"/><path class="cls-117" d="M279.47,275.28l13.94-57.66,15.18,54.73c.55,2.53,1.35,3.45-.59,4.76-2.72,1.82-9.3,3.45-14.45,3.5A35.3,35.3,0,0,1,281,278.26C279.78,277.38,279.17,276.36,279.47,275.28Z"/><path class="cls-118" d="M279.7,275.34c.14-.93,13.56-56.78,13.71-57.72.15.92,14.77,54,14.93,54.87.53,2.49,1.31,3.4-.6,4.68-2.66,1.8-9.12,3.39-14.2,3.44a34.4,34.4,0,0,1-12.34-2.32C280,277.42,279.4,276.42,279.7,275.34Z"/><path class="cls-119" d="M279.93,275.4c.29-1.87,13.19-55.91,13.48-57.78.31,1.83,14.36,53.18,14.67,55,.53,2.44,1.28,3.34-.59,4.6-2.62,1.77-9,3.32-13.95,3.37a33.69,33.69,0,0,1-12.14-2.28C280.23,277.47,279.64,276.47,279.93,275.4Z"/><path class="cls-120" d="M280.16,275.46c.43-2.8,12.82-55,13.25-57.84.47,2.75,13.95,52.41,14.41,55.16.52,2.4,1.25,3.29-.58,4.52-2.57,1.75-8.8,3.26-13.7,3.31a32.64,32.64,0,0,1-11.93-2.25C280.46,277.51,279.87,276.52,280.16,275.46Z"/><path class="cls-121" d="M280.39,275.53c.58-3.75,12.44-54.17,13-57.91.62,3.67,13.54,51.64,14.16,55.3.5,2.36,1.21,3.24-.58,4.45-2.53,1.72-8.63,3.19-13.45,3.24a31.77,31.77,0,0,1-11.72-2.22C280.69,277.56,280.11,276.58,280.39,275.53Z"/><path class="cls-122" d="M280.62,275.59c.72-4.68,12.07-53.29,12.79-58,.78,4.58,13.13,50.86,13.9,55.45.49,2.31,1.18,3.18-.57,4.36-2.48,1.7-8.47,3.13-13.2,3.18A31.06,31.06,0,0,1,282,278.43C280.91,277.6,280.34,276.63,280.62,275.59Z"/><path class="cls-123" d="M280.85,275.65c.87-5.62,11.69-52.42,12.56-58,.94,5.51,12.71,50.1,13.64,55.6.48,2.27,1.15,3.13-.56,4.29-2.44,1.67-8.31,3.06-12.95,3.11a30,30,0,0,1-11.31-2.15C281.14,277.64,280.58,276.69,280.85,275.65Z"/><path class="cls-124" d="M281.08,275.71c1-6.55,11.32-51.55,12.34-58.1,1.08,6.42,12.29,49.33,13.38,55.75.47,2.22,1.11,3.06-.57,4.21-2.38,1.64-8.13,3-12.69,3a29.29,29.29,0,0,1-11.11-2.12A2.68,2.68,0,0,1,281.08,275.71Z"/><path class="cls-125" d="M281.31,275.77c1.16-7.49,10.95-50.67,12.11-58.16,1.24,7.34,11.88,48.55,13.12,55.89.46,2.18,1.08,3-.56,4.13-2.34,1.62-8,2.93-12.44,3a28.5,28.5,0,0,1-10.9-2.08A2.67,2.67,0,0,1,281.31,275.77Z"/><path class="cls-126" d="M281.54,275.83c1.3-8.42,10.57-49.8,11.88-58.22,1.39,8.25,11.47,47.78,12.86,56,.45,2.14,1,3-.55,4.06-2.29,1.59-7.81,2.86-12.19,2.91a27.51,27.51,0,0,1-10.69-2.05A2.64,2.64,0,0,1,281.54,275.83Z"/><path class="cls-127" d="M281.77,275.89c1.45-9.36,10.2-48.92,11.65-58.28,1.55,9.17,11.06,47,12.61,56.18.43,2.09,1,2.9-.55,4-2.25,1.58-7.64,2.8-12,2.85a26.79,26.79,0,0,1-10.48-2A2.61,2.61,0,0,1,281.77,275.89Z"/><path class="cls-128" d="M282,276c1.59-10.29,9.83-48,11.42-58.34,1.71,10.08,10.64,46.23,12.35,56.32.42,2.05,1,2.85-.54,3.9-2.2,1.55-7.48,2.73-11.7,2.78a26,26,0,0,1-10.27-2A2.61,2.61,0,0,1,282,276Z"/><path class="cls-129" d="M282.23,276c1.74-11.23,9.45-47.17,11.19-58.4,1.86,11,10.23,45.46,12.1,56.46.41,2,.93,2.8-.54,3.82-2.16,1.53-7.32,2.67-11.45,2.72a25.11,25.11,0,0,1-10.07-1.95A2.57,2.57,0,0,1,282.23,276Z"/><path class="cls-130" d="M282.46,276.07c1.88-12.17,9.08-46.3,11-58.47,2,11.93,9.82,44.7,11.84,56.62.4,1.95.9,2.74-.54,3.74-2.1,1.5-7.14,2.6-11.19,2.65a24.17,24.17,0,0,1-9.86-1.92A2.56,2.56,0,0,1,282.46,276.07Z"/><path class="cls-131" d="M282.69,276.13c2-13.1,8.7-45.42,10.73-58.53,2.18,12.84,9.41,43.92,11.58,56.76.39,1.91.87,2.69-.53,3.67-2.06,1.47-7,2.53-10.94,2.58a23.67,23.67,0,0,1-9.66-1.88A2.56,2.56,0,0,1,282.69,276.13Z"/><path class="cls-132" d="M282.92,276.19c2.17-14,8.33-44.55,10.5-58.59,2.33,13.76,9,43.15,11.33,56.9.37,1.87.83,2.64-.53,3.59-2,1.45-6.82,2.47-10.69,2.52a22.7,22.7,0,0,1-9.45-1.85A2.53,2.53,0,0,1,282.92,276.19Z"/><path class="cls-133" d="M283.15,276.25c2.32-15,8-43.67,10.28-58.65,2.48,14.67,8.58,42.38,11.06,57,.36,1.82.8,2.58-.52,3.51-2,1.42-6.65,2.4-10.44,2.45a21.79,21.79,0,0,1-9.24-1.82A2.5,2.5,0,0,1,283.15,276.25Z"/><path class="cls-134" d="M283.38,276.32c2.46-15.92,7.58-42.81,10.05-58.72,2.63,15.59,8.16,41.6,10.8,57.19.36,1.78.77,2.52-.51,3.43-1.92,1.4-6.49,2.34-10.19,2.39a21.26,21.26,0,0,1-9-1.78A2.49,2.49,0,0,1,283.38,276.32Z"/><path class="cls-135" d="M283.61,276.38c2.61-16.85,7.21-41.94,9.82-58.78,2.79,16.5,7.75,40.83,10.55,57.33.34,1.74.73,2.47-.51,3.36-1.87,1.37-6.33,2.27-10,2.32a20.38,20.38,0,0,1-8.82-1.75A2.48,2.48,0,0,1,283.61,276.38Z"/><path class="cls-136" d="M283.84,276.44c2.76-17.79,6.84-41.06,9.59-58.84,2.95,17.42,7.34,40,10.29,57.48.33,1.69.7,2.41-.51,3.27-1.82,1.35-6.15,2.21-9.69,2.26a19.59,19.59,0,0,1-8.62-1.72A2.44,2.44,0,0,1,283.84,276.44Z"/><path class="cls-137" d="M284.07,276.5c2.9-18.72,6.46-40.19,9.36-58.9,3.1,18.34,6.93,39.28,10,57.62.32,1.65.67,2.36-.5,3.2-1.77,1.32-6,2.14-9.44,2.19a19,19,0,0,1-8.41-1.68A2.44,2.44,0,0,1,284.07,276.5Z"/><path class="cls-138" d="M284.3,276.56q4.57-29.49,9.13-59l9.78,57.77c.31,1.61.63,2.31-.5,3.12-1.73,1.3-5.83,2.08-9.19,2.13a18.12,18.12,0,0,1-8.2-1.65A2.4,2.4,0,0,1,284.3,276.56Z"/><path class="cls-139" d="M284.53,276.62c2.9-18.72,6-40.31,8.9-59,3.1,18.34,6.42,39.58,9.52,57.92.3,1.56.6,2.25-.49,3-1.68,1.27-5.66,2-8.94,2.06a17.33,17.33,0,0,1-8-1.62A2.4,2.4,0,0,1,284.53,276.62Z"/><path class="cls-140" d="M284.76,276.68c2.76-17.78,5.92-41.31,8.67-59.09,2.95,17.42,6.32,40.64,9.26,58.06.29,1.52.57,2.2-.48,3-1.64,1.24-5.5,1.94-8.69,2-3,0-6.16-.6-7.79-1.59A2.36,2.36,0,0,1,284.76,276.68Z"/><path class="cls-141" d="M285,276.74c2.61-16.85,5.84-42.3,8.44-59.15,2.8,16.51,6.21,41.7,9,58.21.27,1.47.52,2.14-.49,2.88-1.58,1.22-5.33,1.88-8.43,1.93-2.91,0-6-.58-7.59-1.55A2.38,2.38,0,0,1,285,276.74Z"/><path class="cls-142" d="M285.22,276.8c2.47-15.91,5.75-43.3,8.22-59.21,2.63,15.59,6.1,42.76,8.74,58.35.26,1.43.49,2.09-.48,2.81-1.54,1.2-5.16,1.81-8.18,1.86-2.84,0-5.84-.55-7.38-1.52A2.34,2.34,0,0,1,285.22,276.8Z"/><path class="cls-143" d="M285.46,276.86c2.31-15,5.66-44.3,8-59.27,2.48,14.67,6,43.82,8.48,58.49.26,1.39.46,2-.47,2.73-1.49,1.18-5,1.75-7.93,1.8-2.76,0-5.68-.52-7.18-1.49A2.3,2.3,0,0,1,285.46,276.86Z"/><path class="cls-144" d="M285.69,276.92c2.17-14,5.57-45.29,7.75-59.33,2.32,13.75,5.9,44.88,8.23,58.64.24,1.34.42,2-.47,2.65-1.45,1.15-4.84,1.68-7.69,1.73-2.67,0-5.51-.5-7-1.45A2.31,2.31,0,0,1,285.69,276.92Z"/><path class="cls-145" d="M285.92,277c2-13.1,5.49-46.29,7.52-59.4,2.17,12.84,5.8,45.95,8,58.79.23,1.3.39,1.92-.46,2.57-1.4,1.13-4.67,1.62-7.44,1.67-2.6,0-5.34-.47-6.75-1.42A2.27,2.27,0,0,1,285.92,277Z"/><path class="cls-146" d="M286.15,277c1.88-12.16,5.41-47.29,7.29-59.46,2,11.92,5.7,47,7.71,58.93.22,1.26.36,1.87-.45,2.5-1.36,1.1-4.51,1.55-7.19,1.6-2.52,0-5.18-.44-6.55-1.39A2.28,2.28,0,0,1,286.15,277Z"/><path class="cls-147" d="M286.38,277.11c1.73-11.24,5.32-48.3,7.06-59.53,1.86,11,5.6,48.07,7.46,59.08.2,1.21.32,1.81-.46,2.42-1.3,1.07-4.34,1.48-6.93,1.53s-5-.42-6.34-1.35A2.26,2.26,0,0,1,286.38,277.11Z"/><path class="cls-148" d="M286.61,277.17c1.59-10.3,5.24-49.29,6.83-59.59,1.71,10.09,5.49,49.13,7.2,59.22.2,1.17.29,1.76-.45,2.34-1.25,1.05-4.17,1.42-6.68,1.47s-4.86-.39-6.14-1.32A2.26,2.26,0,0,1,286.61,277.17Z"/><path class="cls-149" d="M286.84,277.23c1.45-9.36,5.15-50.29,6.6-59.65,1.55,9.17,5.39,50.19,6.95,59.36.18,1.13.25,1.71-.45,2.27-1.21,1-4,1.35-6.43,1.4s-4.7-.36-5.93-1.29A2.22,2.22,0,0,1,286.84,277.23Z"/><path class="cls-150" d="M287.07,277.29c1.3-8.43,5.07-51.29,6.37-59.71,1.4,8.25,5.29,51.25,6.69,59.51.17,1.08.22,1.65-.44,2.18-1.16,1-3.85,1.29-6.18,1.34s-4.54-.33-5.72-1.25A2.23,2.23,0,0,1,287.07,277.29Z"/><path class="cls-151" d="M287.3,277.35c1.16-7.49,5-52.29,6.14-59.77,1.25,7.33,5.19,52.31,6.43,59.65.16,1,.19,1.6-.43,2.11-1.12,1-3.68,1.22-5.93,1.27s-4.38-.31-5.52-1.22A2.24,2.24,0,0,1,287.3,277.35Z"/><path class="cls-152" d="M287.53,277.41c1-6.55,4.9-53.28,5.92-59.83,1.08,6.41,5.08,53.38,6.17,59.79.14,1,.15,1.55-.43,2-1.07,1-3.52,1.16-5.68,1.21s-4.22-.28-5.31-1.19A2.2,2.2,0,0,1,287.53,277.41Z"/><path class="cls-153" d="M287.76,277.47c.87-5.62,4.82-54.28,5.69-59.9.93,5.51,5,54.45,5.91,59.95.14,1,.12,1.49-.43,2-1,.92-3.35,1.09-5.43,1.14s-4.05-.25-5.1-1.15A2.25,2.25,0,0,1,287.76,277.47Z"/><path class="cls-154" d="M288,277.53c.72-4.68,4.73-55.28,5.46-60,.77,4.59,4.88,55.51,5.65,60.09.13.91.09,1.44-.42,1.88-1,.89-3.18,1-5.18,1.07s-3.89-.23-4.89-1.12A2.23,2.23,0,0,1,288,277.53Z"/><path class="cls-155" d="M288.22,277.59c.58-3.74,4.65-56.27,5.23-60,.62,3.67,4.78,56.57,5.4,60.23.11.87,0,1.38-.42,1.8-.93.87-3,1-4.93,1s-3.72-.2-4.69-1.09A2.23,2.23,0,0,1,288.22,277.59Z"/><path class="cls-156" d="M288.45,277.65c.43-2.81,4.57-57.27,5-60.08.47,2.75,4.67,57.63,5.14,60.38a1.82,1.82,0,0,1-.41,1.72c-.88.84-2.86.89-4.68.94s-3.56-.17-4.48-1.05A2.24,2.24,0,0,1,288.45,277.65Z"/><path class="cls-157" d="M288.68,277.71c.29-1.87,4.48-58.27,4.77-60.14.31,1.83,4.57,58.69,4.88,60.52a1.79,1.79,0,0,1-.4,1.64c-.84.83-2.69.83-4.43.88s-3.4-.15-4.27-1A2.22,2.22,0,0,1,288.68,277.71Z"/><path class="cls-158" d="M288.91,277.77c.14-.93,4.4-59.27,4.54-60.2.16.91,4.47,59.75,4.63,60.67a1.8,1.8,0,0,1-.4,1.56c-.79.8-2.53.76-4.18.81s-3.24-.12-4.07-1A2.27,2.27,0,0,1,288.91,277.77Z"/><path class="cls-159" d="M289.14,277.83l4.31-60.26,4.37,60.81a1.75,1.75,0,0,1-.4,1.48c-.74.78-2.36.7-3.92.75s-3.08-.09-3.86-.95A2.27,2.27,0,0,1,289.14,277.83Z"/><path class="cls-160" d="M120.15,229.29l20.44,8.34s1,5.13-1.14,5.59l-21.78-5.53Z"/><path class="cls-161" d="M121,305.2c-1.88-1.06-7.36-4.47-7.36-4.47a2,2,0,0,0-2,0l-.17.1c-.89.52-.89,4.29,0,4.81L119,310a2.93,2.93,0,0,0,3.16-.75C123,308.41,123.55,306.62,121,305.2Z"/><path class="cls-162" d="M122.77,307.09a2.31,2.31,0,0,1-.76,1.62,3,3,0,0,1-3.29.79L111,305.05a1.13,1.13,0,0,0,.4.57L119,310a2.93,2.93,0,0,0,3.16-.75A2.11,2.11,0,0,0,122.77,307.09Z"/><path class="cls-161" d="M108.53,310.38c-1.87-1.05-7.35-4.46-7.35-4.46a2,2,0,0,0-2,0L99,306c-.89.51-.89,4.29,0,4.81l7.53,4.36a2.91,2.91,0,0,0,3.15-.75C110.54,313.6,111.08,311.81,108.53,310.38Z"/><path class="cls-162" d="M110.31,312.27a2.32,2.32,0,0,1-.77,1.63,3.05,3.05,0,0,1-3.29.79l-7.67-4.45a1.11,1.11,0,0,0,.39.57l7.53,4.36a2.91,2.91,0,0,0,3.15-.75A2.14,2.14,0,0,0,110.31,312.27Z"/><path class="cls-163" d="M107.88,268.35H95.41c-.19,0,2.92,37.6,2.94,37.91a3.55,3.55,0,0,0,3.15,3.37c1.39,0,3.06-.17,3.44-3.37C105,306,108.07,268.35,107.88,268.35Z"/><path class="cls-164" d="M119.9,263.45H107.43c-.19,0,2.92,37.61,2.94,37.92a3.55,3.55,0,0,0,3.15,3.36c1.39,0,3.06-.17,3.44-3.36C117,301.06,120.09,263.45,119.9,263.45Z"/><path class="cls-165" d="M105.7,309a4.71,4.71,0,0,0-1.8,1.28c-.29.34.2.83.49.49a3.92,3.92,0,0,1,1.49-1.09C106.29,309.53,106.11,308.86,105.7,309Z"/><path class="cls-165" d="M107,310a4.62,4.62,0,0,0-1.79,1.27c-.29.34.2.84.49.5a3.87,3.87,0,0,1,1.49-1.1C107.61,310.49,107.43,309.81,107,310Z"/><path class="cls-166" d="M105.22,307.62a3.28,3.28,0,0,0-.15-.36,1.27,1.27,0,0,0-.28-.46c-.4-.41-1.14-.12-1.57.09a2.6,2.6,0,0,0-1.29,1.22c-.18.57.4,1,.69,1.36.07.09.13.19.2.29a.57.57,0,0,0,.86,0,3.77,3.77,0,0,1,1.26-.75C105.56,308.82,105.41,308.14,105.22,307.62Z"/><path class="cls-165" d="M118.16,303.84a4.62,4.62,0,0,0-1.79,1.27c-.29.34.2.84.49.5a3.87,3.87,0,0,1,1.49-1.1C118.76,304.34,118.58,303.67,118.16,303.84Z"/><path class="cls-165" d="M119.48,304.79a4.61,4.61,0,0,0-1.8,1.28c-.29.34.2.83.49.49a3.82,3.82,0,0,1,1.49-1.09C120.07,305.3,119.89,304.62,119.48,304.79Z"/><path class="cls-166" d="M117.69,302.43l-.15-.36a1.36,1.36,0,0,0-.28-.46c-.4-.41-1.14-.12-1.58.1a2.62,2.62,0,0,0-1.28,1.22c-.19.56.39,1,.69,1.35.07.09.12.2.2.29a.56.56,0,0,0,.86,0,3.94,3.94,0,0,1,1.26-.75C118,303.64,117.88,303,117.69,302.43Z"/><path class="cls-10" d="M96.93,268.86c-1.12-.39-3.53-.45-3.67,1.06a.4.4,0,0,0-.08.21,13.2,13.2,0,0,0,.14,4.65c.2.79.6,2.15,1.54,2.39,1.61.43,2.06-1.77,2.3-3.56l0,.07c.23.25.74.31.87-.09C98.53,272.19,98.68,269.46,96.93,268.86Z"/><path class="cls-167" d="M121.17,232.75a9.25,9.25,0,0,0-13.85-7.56l-5.89,3.41s-.7.37-1.64.91a12.46,12.46,0,0,0-6.16,10c-.45,6.83-1.35,22.48-1.2,28.93a4.08,4.08,0,0,0,3.33,3.95,8,8,0,0,0,3.48-.22A3.82,3.82,0,0,1,101,272c11.56,1.86,16.46-3,19.67-9.06a.61.61,0,0,0,0-.11,2.09,2.09,0,0,0,1.67-1.23C122.6,261.15,121.82,245.28,121.17,232.75Z"/><path class="cls-71" d="M100.81,240.87c-1.14,13.86-.07,28.11-1.57,31.25A3.82,3.82,0,0,1,101,272C101,260.17,101.74,240.33,100.81,240.87Z"/><path class="cls-42" d="M125.05,208l-.22,23.34a.79.79,0,0,1-1.2.68l-24-14.46Z"/><path class="cls-10" d="M122.39,214.29c0-8.28-4.87-16.92-13.12-16.92a15,15,0,0,0-14.92,15c0,8.24,6.64,16,14.84,16.1v4.83a4.66,4.66,0,0,0,4.65-4.67v-.86C119.28,226,122.39,220.89,122.39,214.29Z"/><path class="cls-10" d="M110.71,233q.09-3.5.2-7c.06-2-.4-4.81.56-6.69,2-3.85,7.54-4.86,10.53-7.55a.56.56,0,0,1,.22-.13c-.92-7.37-5.58-14.27-13-14.27a15,15,0,0,0-14.92,15c0,8.24,6.64,16,14.84,16.1v4.83A4.55,4.55,0,0,0,110.71,233Z"/><path class="cls-42" d="M120.84,200.76l-3-1.73a17.07,17.07,0,0,0-17.15,0h0a14.45,14.45,0,0,0-7.2,12.52V222a11.23,11.23,0,0,0,5.6,9.73l8.69,5a1,1,0,0,0,1.47-.86L109.15,222a8.76,8.76,0,0,1,4.61-7.79l11.29-6.07h0A8.45,8.45,0,0,0,120.84,200.76Z"/><path class="cls-168" d="M112.37,211.9a9.48,9.48,0,0,0-4.85,8.45l.27,16.38a1,1,0,0,0,1.47-.86L109.15,222a8.76,8.76,0,0,1,4.61-7.79l11.29-6.07a8.7,8.7,0,0,0-.35-2.4A120.72,120.72,0,0,0,112.37,211.9Z"/><path class="cls-168" d="M104.89,201.27a26.75,26.75,0,0,1,8.77,5.44S110.76,201.58,104.89,201.27Z"/></g></g></g></svg>