<svg xmlns="http://www.w3.org/2000/svg" xmlns:xlink="http://www.w3.org/1999/xlink" viewBox="0 0 394.91 275.31"><defs><style>.cls-1{fill:none;}.cls-2{fill:url(#linear-gradient);}.cls-3,.cls-4,.cls-5{opacity:0.2;}.cls-3{fill:url(#linear-gradient-2);}.cls-4{fill:url(#linear-gradient-3);}.cls-5{fill:url(#linear-gradient-4);}.cls-6{fill:#330867;}.cls-6,.cls-62,.cls-63,.cls-64{opacity:0.05;}.cls-7{fill:url(#linear-gradient-5);}.cls-8{fill:#ffed49;}.cls-9{fill:url(#linear-gradient-6);}.cls-10{fill:url(#linear-gradient-7);}.cls-11{fill:url(#linear-gradient-8);}.cls-12{fill:#60f0ae;}.cls-13{fill:url(#linear-gradient-9);}.cls-14{fill:url(#linear-gradient-10);}.cls-15{fill:url(#linear-gradient-11);}.cls-16{fill:url(#linear-gradient-12);}.cls-17{fill:#65493c;}.cls-18{fill:url(#linear-gradient-13);}.cls-19{fill:url(#linear-gradient-14);}.cls-20{fill:url(#linear-gradient-15);}.cls-21{fill:url(#linear-gradient-16);}.cls-22{fill:#e5ae92;}.cls-23{fill:url(#linear-gradient-17);}.cls-24{fill:#fff;}.cls-25{fill:#243464;}.cls-26{fill:url(#linear-gradient-18);}.cls-27{fill:url(#linear-gradient-19);}.cls-28{fill:url(#linear-gradient-20);}.cls-29{fill:#e984ff;}.cls-30{fill:url(#linear-gradient-21);}.cls-31{fill:#60d9f7;}.cls-32{fill:url(#linear-gradient-22);}.cls-33{fill:url(#linear-gradient-23);}.cls-34{fill:url(#linear-gradient-24);}.cls-35{fill:url(#linear-gradient-25);}.cls-36{fill:url(#linear-gradient-26);}.cls-37{fill:url(#linear-gradient-27);}.cls-38{fill:url(#linear-gradient-28);}.cls-39{fill:url(#linear-gradient-29);}.cls-40{fill:url(#linear-gradient-30);}.cls-41{fill:url(#linear-gradient-31);}.cls-42{fill:url(#linear-gradient-32);}.cls-43{fill:url(#linear-gradient-33);}.cls-44{fill:url(#linear-gradient-34);}.cls-45{fill:url(#linear-gradient-35);}.cls-46{fill:url(#linear-gradient-36);}.cls-47{fill:url(#linear-gradient-37);}.cls-48{fill:url(#linear-gradient-38);}.cls-49{isolation:isolate;}.cls-50{fill:#160c0c;}.cls-51{clip-path:url(#clip-path);}.cls-52{fill:url(#linear-gradient-39);}.cls-53{fill:url(#linear-gradient-40);}.cls-54{fill:url(#linear-gradient-41);}.cls-55{fill:url(#linear-gradient-42);}.cls-56{fill:url(#linear-gradient-43);}.cls-57{clip-path:url(#clip-path-2);}.cls-58{fill:url(#linear-gradient-45);}.cls-59{fill:url(#linear-gradient-46);}.cls-60{fill:url(#linear-gradient-47);}.cls-61{fill:url(#linear-gradient-48);}.cls-62{fill:url(#linear-gradient-49);}.cls-63{fill:url(#linear-gradient-50);}.cls-64{fill:url(#linear-gradient-51);}.cls-65{fill:url(#linear-gradient-52);}.cls-66{fill:url(#linear-gradient-53);}</style><linearGradient id="linear-gradient" x1="353.02" y1="181.86" x2="322.35" y2="173.17" gradientUnits="userSpaceOnUse"><stop offset="0" stop-color="#dbf9ea"/><stop offset="1" stop-color="#c0dde2"/></linearGradient><linearGradient id="linear-gradient-2" x1="-2746.12" y1="116.06" x2="-2668.33" y2="116.06" gradientTransform="matrix(-1, 0, 0, 1, -2554.74, 0)" gradientUnits="userSpaceOnUse"><stop offset="0" stop-color="#ccc" stop-opacity="0.25"/><stop offset="1" stop-color="#999" stop-opacity="0"/></linearGradient><linearGradient id="linear-gradient-3" x1="-2911.78" y1="30.34" x2="-2825.14" y2="30.34" xlink:href="#linear-gradient-2"/><linearGradient id="linear-gradient-4" x1="154.97" y1="14.89" x2="205.38" y2="14.89" gradientTransform="matrix(1, 0, 0, 1, 0, 0)" xlink:href="#linear-gradient-2"/><linearGradient id="linear-gradient-5" x1="616.65" y1="1445.12" x2="616.65" y2="1445.85" gradientTransform="matrix(64, 0, 0, -82, -39292.57, 118687.31)" gradientUnits="userSpaceOnUse"><stop offset="0" stop-color="#ffef4a"/><stop offset="0.86" stop-color="#f49918"/><stop offset="1" stop-color="#f38b10"/></linearGradient><linearGradient id="linear-gradient-6" x1="614.81" y1="1440.02" x2="614.81" y2="1440.61" gradientTransform="matrix(64, 0, 0, -232, -39143.57, 334267.11)" gradientUnits="userSpaceOnUse"><stop offset="0" stop-color="#1affcf" stop-opacity="0.74"/><stop offset="1" stop-color="#3688df"/></linearGradient><linearGradient id="linear-gradient-7" x1="185.16" y1="51.21" x2="224.22" y2="51.21" gradientTransform="matrix(1, 0, 0, 1, 0, 0)" xlink:href="#linear-gradient-6"/><linearGradient id="linear-gradient-8" x1="613.66" y1="1441.07" x2="613.66" y2="1441.86" gradientTransform="matrix(64, 0, 0, -152, -39043.57, 219252.95)" gradientUnits="userSpaceOnUse"><stop offset="0" stop-color="#69f7ae"/><stop offset="1" stop-color="#10aeaf"/></linearGradient><linearGradient id="linear-gradient-9" x1="614.34" y1="1446.17" x2="614.34" y2="1446.92" gradientTransform="matrix(64, 0, 0, -72, -39127.57, 104340.79)" xlink:href="#linear-gradient-6"/><linearGradient id="linear-gradient-10" x1="165.83" y1="173.14" x2="215.28" y2="173.14" gradientTransform="matrix(1, 0, 0, 1, 0, 0)" xlink:href="#linear-gradient-6"/><linearGradient id="linear-gradient-11" x1="248.12" y1="82.19" x2="274.82" y2="82.19" gradientUnits="userSpaceOnUse"><stop offset="0" stop-color="#330867"/><stop offset="1" stop-color="#30cfd0"/></linearGradient><linearGradient id="linear-gradient-12" x1="264.55" y1="80.9" x2="295.32" y2="80.9" xlink:href="#linear-gradient-11"/><linearGradient id="linear-gradient-13" x1="245.74" y1="158.38" x2="286.19" y2="158.38" xlink:href="#linear-gradient-11"/><linearGradient id="linear-gradient-14" x1="274.38" y1="156.45" x2="300.59" y2="156.45" xlink:href="#linear-gradient-11"/><linearGradient id="linear-gradient-15" x1="243.16" y1="84.94" x2="260.01" y2="84.94" xlink:href="#linear-gradient-11"/><linearGradient id="linear-gradient-16" x1="265.63" y1="106.33" x2="298.15" y2="106.33" xlink:href="#linear-gradient-11"/><linearGradient id="linear-gradient-17" x1="251.56" y1="83.08" x2="304.6" y2="83.08" xlink:href="#linear-gradient-11"/><linearGradient id="linear-gradient-18" x1="206.95" y1="235.32" x2="324.95" y2="235.32" gradientTransform="matrix(1, 0, 0, 1, 0, 0)" xlink:href="#linear-gradient-6"/><linearGradient id="linear-gradient-19" x1="206.73" y1="229.51" x2="325.2" y2="229.51" gradientTransform="matrix(1, 0, 0, 1, 0, 0)" xlink:href="#linear-gradient-6"/><linearGradient id="linear-gradient-20" x1="219.95" y1="224.63" x2="311.95" y2="224.63" gradientUnits="userSpaceOnUse"><stop offset="0" stop-color="#ed69f7"/><stop offset="1" stop-color="#1090f3"/></linearGradient><linearGradient id="linear-gradient-21" x1="229.95" y1="210.74" x2="301.95" y2="210.74" gradientUnits="userSpaceOnUse"><stop offset="0" stop-color="#69e0f7"/><stop offset="1" stop-color="#1090f3"/></linearGradient><linearGradient id="linear-gradient-22" x1="239.95" y1="196" x2="291.95" y2="196" gradientTransform="matrix(1, 0, 0, 1, 0, 0)" xlink:href="#linear-gradient-5"/><linearGradient id="linear-gradient-23" x1="92.28" y1="163.2" x2="124.91" y2="163.2" gradientTransform="matrix(1, 0, 0, 1, 0, 0)" xlink:href="#linear-gradient-6"/><linearGradient id="linear-gradient-24" x1="108.79" y1="185.5" x2="145.57" y2="185.5" gradientTransform="matrix(1, 0, 0, 1, 0, 0)" xlink:href="#linear-gradient-6"/><linearGradient id="linear-gradient-25" x1="129.46" y1="202.69" x2="154.31" y2="202.69" gradientTransform="matrix(1, 0, 0, 1, 0, 0)" xlink:href="#linear-gradient-8"/><linearGradient id="linear-gradient-26" x1="138.2" y1="223.19" x2="170.98" y2="223.19" gradientTransform="matrix(1, 0, 0, 1, 0, 0)" xlink:href="#linear-gradient-8"/><linearGradient id="linear-gradient-27" x1="154.86" y1="247.23" x2="182.88" y2="247.23" gradientTransform="matrix(1, 0, 0, 1, 0, 0)" xlink:href="#linear-gradient-8"/><linearGradient id="linear-gradient-28" x1="100.45" y1="232.55" x2="100.45" y2="150.99" gradientTransform="matrix(1, 0, 0, 1, 0, 0)" xlink:href="#linear-gradient-6"/><linearGradient id="linear-gradient-29" x1="119.37" y1="244.63" x2="119.37" y2="183.67" gradientTransform="matrix(1, 0, 0, 1, 0, 0)" xlink:href="#linear-gradient-6"/><linearGradient id="linear-gradient-30" x1="133.83" y1="249.64" x2="133.83" y2="195.6" gradientTransform="matrix(1, 0, 0, 1, 0, 0)" xlink:href="#linear-gradient-8"/><linearGradient id="linear-gradient-31" x1="137.95" y1="242.09" x2="166.77" y2="242.09" gradientTransform="matrix(1, 0, 0, 1, 0, 0)" xlink:href="#linear-gradient-8"/><linearGradient id="linear-gradient-32" x1="356.33" y1="186.5" x2="383.53" y2="186.5" gradientUnits="userSpaceOnUse"><stop offset="0" stop-color="#3688df"/><stop offset="1" stop-color="#1affcf" stop-opacity="0.74"/></linearGradient><linearGradient id="linear-gradient-33" x1="356.33" y1="202.28" x2="383.71" y2="202.28" gradientTransform="matrix(1, 0, 0, 1, 0, 0)" xlink:href="#linear-gradient-6"/><linearGradient id="linear-gradient-34" x1="383.67" y1="202.34" x2="394.91" y2="202.34" gradientTransform="matrix(1, 0, 0, 1, 0, 0)" xlink:href="#linear-gradient-6"/><linearGradient id="linear-gradient-35" x1="356.37" y1="187.61" x2="394.91" y2="187.61" xlink:href="#linear-gradient-32"/><linearGradient id="linear-gradient-36" x1="317.79" y1="205.45" x2="383.71" y2="205.45" gradientTransform="matrix(1, 0, 0, 1, 0, 0)" xlink:href="#linear-gradient-6"/><linearGradient id="linear-gradient-37" x1="317.83" y1="187.61" x2="383.71" y2="187.61" gradientTransform="matrix(1, 0, 0, 1, 0, 0)" xlink:href="#linear-gradient-8"/><linearGradient id="linear-gradient-38" x1="324.04" y1="340.28" x2="367.23" y2="336.32" gradientTransform="matrix(1, 0, 0, -1, 0, 518.98)" gradientUnits="userSpaceOnUse"><stop offset="0" stop-color="#292376"/><stop offset="1" stop-color="#5d278f" stop-opacity="0"/></linearGradient><clipPath id="clip-path"><path class="cls-1" d="M363.76,158.29a1.83,1.83,0,0,1,.65,2.14l-6.67,19.68a1.15,1.15,0,0,1-1.65.81l-23-13.28a1.85,1.85,0,0,1-.64-2.14l6.67-19.68a1.14,1.14,0,0,1,1.65-.81Z"/></clipPath><linearGradient id="linear-gradient-39" x1="333.98" y1="154.63" x2="362.86" y2="171.3" gradientUnits="userSpaceOnUse"><stop offset="0" stop-color="#5d278f"/><stop offset="1" stop-color="#292376"/></linearGradient><linearGradient id="linear-gradient-40" x1="365.49" y1="161.78" x2="335.95" y2="163.87" xlink:href="#linear-gradient"/><linearGradient id="linear-gradient-41" x1="335.14" y1="155.3" x2="361.71" y2="170.63" gradientUnits="userSpaceOnUse"><stop offset="0" stop-color="#25e581"/><stop offset="1" stop-color="#c4e138"/></linearGradient><linearGradient id="linear-gradient-42" x1="315.01" y1="179.12" x2="356.46" y2="179.12" xlink:href="#linear-gradient"/><linearGradient id="linear-gradient-43" x1="315.01" y1="179.12" x2="356.46" y2="179.12" xlink:href="#linear-gradient"/><clipPath id="clip-path-2"><path id="_Clipping_Path_" data-name="&lt;Clipping Path&gt;" class="cls-2" d="M345.53,186.13a.73.73,0,0,1-.3-.07L324,173.77a.31.31,0,0,1-.16-.26.3.3,0,0,1,.16-.26l6.78-3.94a.62.62,0,0,1,.59,0L352.6,181.6a.29.29,0,0,1,.17.26.3.3,0,0,1-.17.26l-6.77,3.93A.61.61,0,0,1,345.53,186.13Z"/></clipPath><linearGradient id="linear-gradient-45" x1="323.94" y1="177.49" x2="352.62" y2="177.49" xlink:href="#linear-gradient-39"/><linearGradient id="linear-gradient-46" x1="352.43" y1="181" x2="323.02" y2="179.01" xlink:href="#linear-gradient-39"/><linearGradient id="linear-gradient-47" x1="355.54" y1="184.63" x2="317.47" y2="184.63" xlink:href="#linear-gradient"/><linearGradient id="linear-gradient-48" x1="331.55" y1="175.1" x2="353.89" y2="175.1" gradientUnits="userSpaceOnUse"><stop offset="0.05" stop-color="#ed1e79"/><stop offset="0.32" stop-color="#d9e021"/><stop offset="1" stop-color="#29c7e2"/></linearGradient><linearGradient id="linear-gradient-49" x1="346.1" y1="184.09" x2="355.19" y2="184.09" xlink:href="#linear-gradient-39"/><linearGradient id="linear-gradient-50" x1="322.62" y1="170.54" x2="331.71" y2="170.54" xlink:href="#linear-gradient-39"/><linearGradient id="linear-gradient-51" x1="322.34" y1="182.01" x2="339.2" y2="182.01" xlink:href="#linear-gradient-39"/><linearGradient id="linear-gradient-52" x1="334.37" y1="153.97" x2="358.29" y2="167.77" gradientUnits="userSpaceOnUse"><stop offset="0" stop-color="#fff" stop-opacity="0.25"/><stop offset="1" stop-color="#dbf9ea" stop-opacity="0"/></linearGradient><linearGradient id="linear-gradient-53" x1="1412.64" y1="467.94" x2="1278.74" y2="467.94" gradientTransform="translate(-1133.85 42.93) rotate(-15.36)" xlink:href="#linear-gradient-2"/></defs><title>reports</title><g id="Layer_2" data-name="Layer 2"><g id="Layer_1-2" data-name="Layer 1"><path id="_Path_" data-name="&lt;Path&gt;" class="cls-3" d="M125.85,114.53h.27a15.3,15.3,0,0,1-.27-2.81,15.06,15.06,0,0,1,24.75-11.54A12.25,12.25,0,0,1,173.75,104h.11a17.38,17.38,0,1,1,0,34.76h-48a12.13,12.13,0,1,1,0-24.25Z"/><path id="_Path_2" data-name="&lt;Path&gt;" class="cls-4" d="M284.06,28.52h.3A16.76,16.76,0,0,1,300.84,8.61a16.7,16.7,0,0,1,10.78,3.93,13.64,13.64,0,0,1,25.78,4.27h.13a19.49,19.49,0,1,1,0,39H284.06a13.63,13.63,0,1,1,0-27.26Z"/><path id="_Path_3" data-name="&lt;Path&gt;" class="cls-5" d="M197.43,13.74h-.17a10,10,0,0,0,.17-1.83,9.76,9.76,0,0,0-16-7.48,7.94,7.94,0,0,0-15,2.49h-.08a11.43,11.43,0,0,0,0,22.85h31.11a8,8,0,0,0,0-16Z"/><polygon class="cls-6" points="266.29 274.89 206.73 241.11 151.47 253.83 112.88 222.78 111.95 218.4 55.98 232.55 0 246.7 121.11 260.81 90.9 267.77 266.29 274.89"/><polygon class="cls-6" points="163.32 176.51 162.4 172.13 106.42 186.28 50.44 200.43 190.55 216.41 163.32 176.51"/><g id="Chart"><polygon id="Path-2" class="cls-7" points="172.95 125.67 196.95 137.68 196.95 175.21 172.95 187.22 148.95 175.21 148.95 137.68 172.95 125.67"/><polygon id="Path-2-2" data-name="Path-2" class="cls-8" points="172.7 125.67 196.72 137.68 172.7 149.69 148.68 137.68 172.7 125.67"/></g><g id="Chart-2" data-name="Chart"><polygon id="Path-2-3" data-name="Path-2" class="cls-9" points="204.45 41.45 223.95 51.21 223.95 173.3 204.45 183.07 184.95 173.3 184.95 51.21 204.45 41.45"/><polygon id="Path-2-4" data-name="Path-2" class="cls-10" points="204.69 41.45 224.22 51.21 204.69 60.98 185.16 51.21 204.69 41.45"/></g><g id="Chart-3" data-name="Chart"><polygon id="Path-2-5" data-name="Path-2" class="cls-11" points="230.95 86.14 256.95 99.15 256.95 196.76 230.95 209.77 204.95 196.76 204.95 99.15 230.95 86.14"/><polygon id="Path-2-6" data-name="Path-2" class="cls-12" points="230.59 86.14 256.62 99.15 230.59 112.17 204.57 99.15 230.59 86.14"/></g><g id="Chart-4" data-name="Chart"><polygon id="Path-2-Copy-3" class="cls-13" points="190.45 160.78 214.95 173.14 214.95 204.05 190.45 216.41 165.95 204.05 165.95 173.14 190.45 160.78"/><polygon id="Path-2-Copy-4" class="cls-14" points="190.55 160.78 215.28 173.14 190.55 185.5 165.83 173.14 190.55 160.78"/></g><path class="cls-15" d="M274.82,62.08s-5.59,1-20.15,19.17c-6.31,13.35-6.55,19.42-6.55,19.42s.24,2.91,4.37,1,18-21.11,18-21.11Z"/><path class="cls-16" d="M268.46,65.3c-3.07,3.64-5.38,32.74-2.8,34,5.59,2.78,12.12,2.68,18.36,2.52a14.06,14.06,0,0,0,5-.73A9.35,9.35,0,0,0,293.41,97,16,16,0,0,0,295,86.08,24.63,24.63,0,0,0,290.24,76c-2.18-2.88-4.86-5.46-6.32-8.76s-1.37-7.66-5.77-7.32A14.59,14.59,0,0,0,268.46,65.3Z"/><path class="cls-17" d="M252.54,209l-3,6.07-17.12-9.18s0-2.23,3.47-1.24,11.91,5.71,11.91,5.71l2-3.72Z"/><path class="cls-17" d="M299.56,210.78l.21,6.88-6.64,6a8.77,8.77,0,0,1-7.52,2.19c-1-.2-1.67-.57-1.35-1.22.93-1.85,10.65-7.4,10.65-7.4l.46-8.8Z"/><path class="cls-18" d="M267.25,107.31a519,519,0,0,0-12.87,57.3c-2.4,14.47-3.34,29.34-8.64,43a34.08,34.08,0,0,0,6.8,1.83c3-5,5.58-9,8-14.34a43.58,43.58,0,0,0,3.59-10.28c1-5.67.11-11.68,2.05-17.1,6.43-17.91,14.51-34.46,19.75-52.75a3.27,3.27,0,0,0,.11-2.09c-.38-.93-1.5-1.28-2.48-1.5C278,110.14,272.93,107.87,267.25,107.31Z"/><path class="cls-19" d="M296.49,100.87q2.06,55.69,4.1,111.4l-8.69,0a108.29,108.29,0,0,1-4.33-24.61,337.15,337.15,0,0,0-13.19-75.63,56.05,56.05,0,0,1,9.48-8.33A16.82,16.82,0,0,1,296.49,100.87Z"/><path class="cls-20" d="M245.45,87.56c-1.14,3-2.71,5.85-2.19,9s3.4,6.23,6.58,5.68c2.63-.45,3.86-6.7,3.86-6.7L260,68.39l-5.24-.86S247.24,82.8,245.45,87.56Z"/><path class="cls-21" d="M265.73,106.83s-.34,3.25.25,4.73c1.18,3,7.92,4.64,7.92,4.64s23.65-.77,24-2.88c.72-4.29-.42-8.39-.42-12.74a2.1,2.1,0,0,0-.31-1.36,2.14,2.14,0,0,0-1-.59,41.61,41.61,0,0,0-19-1.78c-2.46.34-7,.74-9.07,2.3C265.66,101,265.73,106.83,265.73,106.83Z"/><path class="cls-22" d="M247.8,93.33a.75.75,0,0,0-.7-.1,1,1,0,0,0-.31.4c-1,1.61-3.9,1-4.79,2.61a2.23,2.23,0,0,0,.19,2.2,5.92,5.92,0,0,0,1.65,1.58c1.62,1.14,5.52,1.15,5.52,1.15l5,.86,0-2.12-2.13-1.79S248.85,93.86,247.8,93.33Z"/><path class="cls-22" d="M247.9,93.24a2.61,2.61,0,0,0-.74-.5,2.8,2.8,0,0,0-1-.1l-1.46.07c-.23,0-.5.06-.6.28s.1.47.29.62c.6.47,1.38.67,2,1.13A22.35,22.35,0,0,0,248,96.31a1.1,1.1,0,0,0,.62.21,1.59,1.59,0,0,0,.62-.22c.85-.45.79-.71.21-1.43A11.47,11.47,0,0,0,247.9,93.24Z"/><path class="cls-23" d="M273.73,61.94,287,59.68l7.42,1.41a12.42,12.42,0,0,1,10.1,12c.19,9.64-.17,23.7-3.33,30.73-1.43,3.16-6.44,2.67-9.91,2.66-10.19,0-30.37-.25-39.76-4.22.17-1.49,0-2.74.66-4.11,9-1.48,28-4.38,37-2.79a61.52,61.52,0,0,1-14.4-29C274.51,64.8,273.73,61.94,273.73,61.94Z"/><path class="cls-24" d="M277.23,62.22a3.06,3.06,0,0,0-.27,1.21,18.55,18.55,0,0,0,.69,6.63,2.27,2.27,0,0,0,.35.81c.58.76,1.75.66,2.66.34a18.18,18.18,0,0,0,3.79-2c2.28-1.48,4.63-3.13,5.83-5.57a2.2,2.2,0,0,0,.29-1.22c-.11-.95-1.17-1.45-2.09-1.69C286.14,60.11,278.65,59.54,277.23,62.22Z"/><path class="cls-22" d="M287.37,62.86A56.3,56.3,0,0,1,280,67.42L277.53,56a39.91,39.91,0,0,1-5.63.48c-4.6-.63-9.13-3.77-10.07-8.32-.58-2.82.25-5.72,1.08-8.49,1.7-5.68,3.46-11.49,7-16.24a6.08,6.08,0,0,1,5-2.23,22.88,22.88,0,0,1,7.9,1A11.52,11.52,0,0,1,289.05,27c1.6,2.67,1.73,6,1.27,9.06s-1.43,6-1.91,9.13c-.15,1-1.64,3.26-1.85,5.5A50.72,50.72,0,0,0,287.37,62.86Z"/><path class="cls-25" d="M283.87,44.54c.55,2.47,2.62,5.64,3.29,6,0-.92,1.55-4.62,1.7-5.55.49-3.16,1.5-6.22,2-9.39s.33-6.57-1.31-9.31a11.87,11.87,0,0,0-6.4-4.91,23.42,23.42,0,0,0-8.12-1,8.1,8.1,0,0,0-2.44.39c2.43,3,10.51,5.25,11.41,3.77C279.8,31.29,282.14,36.78,283.87,44.54Z"/><path class="cls-22" d="M285.32,35.94a4.83,4.83,0,0,1,4.58,1.44c1.15,1.54.69,3.76-.26,5.42A7.67,7.67,0,0,1,286.5,46a5.91,5.91,0,0,1-5.86-.43C275.09,41.69,280.67,36.59,285.32,35.94Z"/><path class="cls-25" d="M257.44,53.66c.45,3.81,2.58,6.93,6.35,7.68,2.9.57,6.43.92,9.21-.1,9.82-3.61,5.64-12.78,6.55-15.18a47.15,47.15,0,0,0,2.81-9.39c-1.83-.46-3.41,1.27-4.51,2.81s-3.81,5.25-5.65,4.8c-1.36-2.81-3.8-5.58-6.89-6-1.19-.16-2.9-.58-3.45.49C258.64,45.08,257.06,50.39,257.44,53.66Z"/><path class="cls-22" d="M259.51,68.34l.29.28a66.48,66.48,0,0,0,3.48-7.09,4,4,0,0,0,.45-2,4.21,4.21,0,0,0-1.26-2.2c-.65-.74-1.34-1.74-2-2.48l1.8-3.27a4.19,4.19,0,0,0,.56-1.39,1.42,1.42,0,0,0-.48-1.36.83.83,0,0,0-1.22.1c-1.41,1.87-6.39,16.16-6.22,18,.1,1.12.29,2.38,1.22,3C257.27,70.71,258.72,69.44,259.51,68.34Z"/><polygon class="cls-26" points="267.1 195.32 206.95 229.5 206.95 241.11 265.96 275.31 324.95 241.12 324.95 229.51 267.1 195.32"/><polygon class="cls-27" points="206.73 229.5 265.96 195.32 325.2 229.51 265.98 263.7 206.73 229.5"/><polygon class="cls-28" points="302.79 215.86 266 194.66 229.15 215.85 219.95 212.4 219.95 228.16 265.96 254.61 311.95 228.17 311.95 212.41 302.79 215.86"/><polygon class="cls-29" points="220.16 212.4 265.96 185.98 311.77 212.41 265.97 238.86 220.16 212.4"/><polygon class="cls-30" points="265.95 189.62 229.95 198.3 229.95 211.33 265.96 231.86 301.95 211.33 301.95 198.31 265.95 189.62"/><polygon class="cls-31" points="230.4 198.19 265.96 177.68 301.53 198.2 265.97 218.73 230.4 198.19"/><polygon class="cls-32" points="286.76 186.27 266 179.48 245.17 186.27 239.95 184.38 239.95 197.59 265.96 212.52 291.95 197.6 291.95 184.38 286.76 186.27"/><polygon class="cls-8" points="240.12 184.3 265.96 169.39 291.81 184.31 265.97 199.22 240.12 184.3"/><polygon id="_Path_4" data-name="&lt;Path&gt;" class="cls-33" points="92.28 150.99 108.4 142.74 124.91 175.41 108.79 183.67 92.28 150.99"/><polygon id="_Path_5" data-name="&lt;Path&gt;" class="cls-34" points="108.79 183.67 129.46 195.6 145.57 187.34 124.91 175.41 108.79 183.67"/><polygon id="_Path_6" data-name="&lt;Path&gt;" class="cls-35" points="129.46 195.6 138.2 218.05 154.31 209.79 145.57 187.34 129.46 195.6"/><polygon id="_Path_7" data-name="&lt;Path&gt;" class="cls-36" points="138.2 218.05 154.86 236.59 170.97 228.33 154.31 209.79 138.2 218.05"/><polygon id="_Path_8" data-name="&lt;Path&gt;" class="cls-37" points="154.86 236.59 166.77 266.13 182.88 257.88 170.97 228.33 154.86 236.59"/><polygon id="_Path_9" data-name="&lt;Path&gt;" class="cls-38" points="108.79 183.67 108.95 232.55 91.95 223.13 92.28 150.99 108.79 183.67"/><polygon id="_Path_10" data-name="&lt;Path&gt;" class="cls-39" points="108.79 183.67 108.95 232.55 129.95 244.63 129.46 195.6 108.79 183.67"/><polygon id="_Path_11" data-name="&lt;Path&gt;" class="cls-40" points="129.46 195.6 129.95 244.63 137.95 249.64 138.2 218.05 129.46 195.6"/><polygon id="_Path_12" data-name="&lt;Path&gt;" class="cls-41" points="138.2 218.05 137.95 249.64 166.77 266.13 154.86 236.59 138.2 218.05"/><polygon class="cls-42" points="383.53 171.82 383.49 185.39 356.33 201.17 356.37 187.61 383.53 171.82"/><polygon class="cls-43" points="383.71 203.4 383.67 216.96 356.33 201.17 356.37 187.61 383.71 203.4"/><path class="cls-44" d="M394.91,187.72l0,13.56c0,5.68-3.75,11.35-11.2,15.68l0-13.56C391.16,199.06,394.89,193.4,394.91,187.72Z"/><path class="cls-45" d="M383.53,171.82c15.1,8.72,15.18,22.86.18,31.58l-27.34-15.79Z"/><path class="cls-46" d="M383.71,203.4l0,13.56c-15,8.72-39.41,8.72-54.51,0l-.28-.16-.59-.36-.18-.11-.17-.11-.16-.1-.17-.11c-6.6-4.28-9.87-9.67-9.82-15l0-13.56c-.05,5.37,3.21,10.76,9.82,15l.17.1.16.11.17.11.18.1.59.36.28.17C344.3,212.11,368.7,212.11,383.71,203.4Z"/><path class="cls-47" d="M356.37,187.61l27.16-15.79c-15.1-8.72-39.51-8.72-54.51,0l-.22.13-.63.38-.17.11-.16.1-.17.11-.16.1c-6.41,4.17-9.63,9.41-9.68,14.66s3.21,10.76,9.82,15l.17.1.16.11.17.11.18.1.59.36.28.17c15.1,8.71,39.5,8.71,54.51,0Z"/><g id="MacBook"><path class="cls-48" d="M317.9,178.44l23,13.28a2.56,2.56,0,0,0,2.29,0l15.2-8.84a.7.7,0,0,0,0-1.33l-23-13.28a2.56,2.56,0,0,0-2.29,0l-15.2,8.84c-.63.36-.63,1,0,1.33"/><g class="cls-49"><path class="cls-50" d="M363.76,158.29a1.83,1.83,0,0,1,.65,2.14l-6.67,19.68a1.15,1.15,0,0,1-1.65.81l-23-13.28a1.85,1.85,0,0,1-.64-2.14l6.67-19.68a1.14,1.14,0,0,1,1.65-.81Z"/><g class="cls-49"><g class="cls-51"><path class="cls-52" d="M363.76,158.29l-23-13.28a1.15,1.15,0,0,0-1.65.81l-6.67,19.68a1.85,1.85,0,0,0,.64,2.14l23,13.28a1.15,1.15,0,0,0,1.65-.81l6.67-19.68a1.83,1.83,0,0,0-.65-2.14"/></g></g><path class="cls-53" d="M364.62,158.27l-23-13.28a.94.94,0,0,0-.53-.14h-.85a1.1,1.1,0,0,1,.53.15l23,13.28a1.83,1.83,0,0,1,.65,2.14l-6.67,19.68a1.27,1.27,0,0,1-1.12.95h.86a1.3,1.3,0,0,0,1.12-1l6.67-19.68A1.87,1.87,0,0,0,364.62,158.27Z"/></g><polyline class="cls-54" points="363.26 159.93 340.17 146.59 333.58 166 356.68 179.34 363.26 159.93"/><path class="cls-55" d="M356,180.68a.7.7,0,0,1,0,1.32l-15.2,8.84a2.52,2.52,0,0,1-2.3,0l-23-13.28c-.63-.37-.64-1,0-1.33l15.21-8.83a2.5,2.5,0,0,1,2.29,0Z"/><path class="cls-1" d="M356,180.68a.7.7,0,0,1,0,1.32l-15.2,8.84a2.52,2.52,0,0,1-2.3,0l-23-13.28c-.63-.37-.64-1,0-1.33l15.21-8.83a2.5,2.5,0,0,1,2.29,0Z"/><path class="cls-56" d="M356,180.68,333,167.4a2.5,2.5,0,0,0-2.29,0l-15.21,8.83c-.63.37-.62,1,0,1.33l23,13.28a2.52,2.52,0,0,0,2.3,0L356,182a.7.7,0,0,0,0-1.32"/><path id="_Clipping_Path_2" data-name="&lt;Clipping Path&gt;" class="cls-2" d="M345.53,186.13a.73.73,0,0,1-.3-.07L324,173.77a.31.31,0,0,1-.16-.26.3.3,0,0,1,.16-.26l6.78-3.94a.62.62,0,0,1,.59,0L352.6,181.6a.29.29,0,0,1,.17.26.3.3,0,0,1-.17.26l-6.77,3.93A.61.61,0,0,1,345.53,186.13Z"/><g class="cls-57"><g class="cls-49"><path class="cls-58" d="M352.52,181.53c.13.07.13.19,0,.26l-6.78,3.94a.46.46,0,0,1-.44,0L324,173.44a.13.13,0,0,1,0-.25l6.78-3.94a.49.49,0,0,1,.44,0Z"/><path class="cls-59" d="M352.53,181.79l-6.78,3.94a.46.46,0,0,1-.44,0L324,173.44c-.06,0-.09-.08-.09-.13v.51a.17.17,0,0,0,.09.13l21.28,12.28a.49.49,0,0,0,.44,0l6.78-3.94a.15.15,0,0,0,.09-.12v-.51C352.62,181.71,352.59,181.75,352.53,181.79Z"/></g></g><path class="cls-60" d="M356,182l-15.2,8.84a2.52,2.52,0,0,1-2.3,0l-23-13.28a.83.83,0,0,1-.48-.67v1.26a.8.8,0,0,0,.48.67l23,13.28a2.5,2.5,0,0,0,2.29,0L356,183.27a.81.81,0,0,0,.47-.66v-1.26A.81.81,0,0,1,356,182Z"/><path class="cls-61" d="M353.8,181,332.52,168.7a.49.49,0,0,0-.44,0l-.44.26c-.12.07-.12.18,0,.25l21.27,12.29a.49.49,0,0,0,.44,0l.44-.26a.13.13,0,0,0,0-.25"/><path class="cls-62" d="M355.1,181.75l-.44-.25a.47.47,0,0,0-.43,0l-8,4.67a.14.14,0,0,0,0,.26l.43.25a.49.49,0,0,0,.44,0l8-4.67c.12-.07.12-.18,0-.26"/><path class="cls-63" d="M331.62,168.2l-.44-.25a.47.47,0,0,0-.43,0l-8,4.67a.13.13,0,0,0,0,.25l.43.25a.49.49,0,0,0,.44,0l8-4.67a.13.13,0,0,0,0-.25"/><path class="cls-64" d="M339,183.2l-10.33-6a1,1,0,0,0-.87,0l-5.3,3.08a.27.27,0,0,0,0,.51l10.32,6a1,1,0,0,0,.88,0l5.3-3.08a.26.26,0,0,0,0-.5"/><path class="cls-65" d="M363.76,158.29l-23-13.28a1.15,1.15,0,0,0-1.65.81l-6.67,19.68Z"/></g><path class="cls-66" d="M363.26,159.93,264.5,83.45s-59.89,39.28-30,109.34l122.15-13.46Z"/></g></g></svg>