<svg xmlns="http://www.w3.org/2000/svg" xmlns:xlink="http://www.w3.org/1999/xlink" viewBox="0 0 357.1 291.46"><defs><style>.cls-1,.cls-47,.cls-48,.cls-49,.cls-7{opacity:0.1;}.cls-1,.cls-11,.cls-14,.cls-2,.cls-3,.cls-33,.cls-4,.cls-47,.cls-48,.cls-5,.cls-7{isolation:isolate;}.cls-1{fill:url(#linear-gradient);}.cls-11,.cls-14,.cls-2,.cls-23,.cls-3,.cls-4{opacity:0.5;}.cls-2{fill:url(#linear-gradient-2);}.cls-3{fill:url(#linear-gradient-3);}.cls-4{fill:url(#linear-gradient-4);}.cls-47,.cls-48,.cls-5,.cls-9{fill:#fff;}.cls-5,.cls-8{opacity:0.05;}.cls-6{fill:url(#linear-gradient-5);}.cls-7{fill:#93a4d2;}.cls-10{fill:url(#linear-gradient-6);}.cls-11{fill:url(#linear-gradient-7);}.cls-12{fill:url(#linear-gradient-8);}.cls-13{fill:url(#linear-gradient-9);}.cls-14{fill:url(#linear-gradient-10);}.cls-15{fill:#65493c;}.cls-16{fill:url(#linear-gradient-11);}.cls-17{fill:url(#linear-gradient-12);}.cls-18{fill:url(#linear-gradient-13);}.cls-19{fill:#e5ae92;}.cls-20{fill:#915444;}.cls-21{fill:#dfd2b4;}.cls-22{fill:url(#linear-gradient-14);}.cls-24{fill:url(#linear-gradient-15);}.cls-25{fill:url(#linear-gradient-16);}.cls-26{fill:url(#linear-gradient-17);}.cls-27{fill:url(#linear-gradient-18);}.cls-28{fill:url(#linear-gradient-19);}.cls-29{fill:#e6d2b5;}.cls-30{fill:url(#linear-gradient-20);}.cls-31{fill:#243464;}.cls-32{fill:url(#linear-gradient-21);}.cls-33{opacity:0.2;fill:url(#linear-gradient-22);}.cls-34{fill:#404041;}.cls-35{fill:url(#linear-gradient-23);}.cls-36{fill:url(#linear-gradient-24);}.cls-37{fill:none;}.cls-38{fill:#605d73;}.cls-39{fill:#ee7f97;}.cls-40{fill:url(#linear-gradient-25);}.cls-41{fill:#8e8d9b;}.cls-42{fill:url(#linear-gradient-26);}.cls-43{fill:url(#linear-gradient-27);}.cls-44{fill:url(#linear-gradient-28);}.cls-45{fill:url(#linear-gradient-29);}.cls-46{fill:#855f4c;}.cls-47{font-size:14.33px;font-family:Gotham-Bold, Gotham;font-weight:700;}</style><linearGradient id="linear-gradient" x1="41.9" y1="179.8" x2="280.6" y2="179.8" gradientTransform="matrix(1, 0, 0, -1, 0, 297)" gradientUnits="userSpaceOnUse"><stop offset="0" stop-color="#1afffe"/><stop offset="1" stop-color="#3688df" stop-opacity="0.49"/></linearGradient><linearGradient id="linear-gradient-2" x1="-200.86" y1="1244.92" x2="-136.65" y2="1244.92" gradientTransform="matrix(0.9, 0.44, 0.44, -0.9, -305.14, 1466.08)" gradientUnits="userSpaceOnUse"><stop offset="0.19" stop-color="#330867" stop-opacity="0.25"/><stop offset="1" stop-color="#330867" stop-opacity="0"/></linearGradient><linearGradient id="linear-gradient-3" x1="-165.18" y1="1267.52" x2="-111.44" y2="1267.52" xlink:href="#linear-gradient-2"/><linearGradient id="linear-gradient-4" x1="6293.89" y1="723.62" x2="-11694.11" y2="3687" gradientTransform="matrix(0.14, 0.68, 0.7, -0.14, -1067.3, -147.98)" xlink:href="#linear-gradient-2"/><linearGradient id="linear-gradient-5" x1="-5459.79" y1="202.25" x2="-5373.09" y2="202.25" gradientTransform="translate(-5102.57 297) rotate(180)" gradientUnits="userSpaceOnUse"><stop offset="0" stop-color="#ccc" stop-opacity="0.25"/><stop offset="1" stop-color="#999" stop-opacity="0"/></linearGradient><linearGradient id="linear-gradient-6" x1="137.8" y1="146.7" x2="207.6" y2="146.7" gradientTransform="matrix(1, 0, 0, -1, 0, 297)" gradientUnits="userSpaceOnUse"><stop offset="0" stop-color="#1affcf" stop-opacity="0.74"/><stop offset="1" stop-color="#3688df"/></linearGradient><linearGradient id="linear-gradient-7" x1="105.1" y1="147.95" x2="267.4" y2="147.95" xlink:href="#linear-gradient-6"/><linearGradient id="linear-gradient-8" x1="113.6" y1="147.95" x2="126.75" y2="147.95" xlink:href="#linear-gradient-6"/><linearGradient id="linear-gradient-9" x1="240.74" y1="147.8" x2="257.12" y2="147.8" xlink:href="#linear-gradient-6"/><linearGradient id="linear-gradient-10" x1="50.98" y1="1119.62" x2="110.34" y2="1119.62" gradientTransform="matrix(0.93, 0.38, 0.38, -0.93, -229.31, 1235.31)" xlink:href="#linear-gradient-2"/><linearGradient id="linear-gradient-11" x1="218.26" y1="111.48" x2="235.12" y2="111.48" gradientTransform="matrix(1, 0, 0, -1, 0, 297)" gradientUnits="userSpaceOnUse"><stop offset="0" stop-color="#330867"/><stop offset="1" stop-color="#30cfd0"/></linearGradient><linearGradient id="linear-gradient-12" x1="229.2" y1="68.48" x2="245.76" y2="68.48" xlink:href="#linear-gradient-11"/><linearGradient id="linear-gradient-13" x1="230.9" y1="99.08" x2="247.26" y2="99.08" xlink:href="#linear-gradient-11"/><linearGradient id="linear-gradient-14" x1="242.74" y1="99.01" x2="251.29" y2="99.01" xlink:href="#linear-gradient-11"/><linearGradient id="linear-gradient-15" x1="-42.19" y1="-544.34" x2="119.07" y2="-544.34" gradientTransform="matrix(0.97, -0.23, -0.23, -0.97, -22.84, -331.78)" xlink:href="#linear-gradient-6"/><linearGradient id="linear-gradient-16" x1="84" y1="-544.3" x2="119.09" y2="-544.3" gradientTransform="matrix(0.97, -0.23, -0.23, -0.97, -22.84, -331.78)" xlink:href="#linear-gradient-6"/><linearGradient id="linear-gradient-17" x1="94.47" y1="105.8" x2="162.49" y2="105.8" xlink:href="#linear-gradient-6"/><linearGradient id="linear-gradient-18" x1="71" y1="93.15" x2="84.15" y2="93.15" xlink:href="#linear-gradient-6"/><linearGradient id="linear-gradient-19" x1="91.14" y1="40.79" x2="101.3" y2="40.79" xlink:href="#linear-gradient-11"/><linearGradient id="linear-gradient-20" x1="93.58" y1="42.65" x2="105.5" y2="42.65" xlink:href="#linear-gradient-11"/><linearGradient id="linear-gradient-21" x1="118.25" y1="248.06" x2="129.57" y2="248.06" xlink:href="#linear-gradient-11"/><linearGradient id="linear-gradient-22" x1="111.76" y1="246.95" x2="125.14" y2="246.95" gradientTransform="matrix(1, 0, 0, -1, 0, 297)" gradientUnits="userSpaceOnUse"><stop offset="0" stop-color="#143966"/><stop offset="1" stop-color="#3671b9"/></linearGradient><linearGradient id="linear-gradient-23" x1="111.67" y1="242.8" x2="117.85" y2="242.8" xlink:href="#linear-gradient-11"/><linearGradient id="linear-gradient-24" x1="106.15" y1="262.44" x2="120.58" y2="262.44" xlink:href="#linear-gradient-11"/><linearGradient id="linear-gradient-25" x1="119.43" y1="253.75" x2="124.91" y2="253.75" gradientTransform="matrix(1, 0, 0, -1, 0, 297)" gradientUnits="userSpaceOnUse"><stop offset="0" stop-color="#25e581"/><stop offset="1" stop-color="#c4e138"/></linearGradient><linearGradient id="linear-gradient-26" x1="47.97" y1="30.58" x2="58.04" y2="30.58" xlink:href="#linear-gradient-11"/><linearGradient id="linear-gradient-27" x1="46.1" y1="62.15" x2="56.85" y2="62.15" xlink:href="#linear-gradient-11"/><linearGradient id="linear-gradient-28" x1="50.85" y1="27.38" x2="65.78" y2="27.38" xlink:href="#linear-gradient-11"/><linearGradient id="linear-gradient-29" x1="48.64" y1="60.44" x2="76.25" y2="60.44" xlink:href="#linear-gradient-11"/></defs><title>scheduling</title><g id="Layer_2" data-name="Layer 2"><g id="Layer_1-2" data-name="Layer 1"><g id="Items"><path class="cls-1" d="M280.6,182.7c0,2.7-1.6,5-3.6,5H45.5c-2,0-3.6-2.2-3.6-5V51.7c0-2.7,1.6-5,3.6-5H276.9c2,0,3.6,2.2,3.6,5v131Z"/><path class="cls-2" d="M57.4,280.5a1.74,1.74,0,0,0,1.1.6c.3,0,17.2-1.9,19.3-2.3a33,33,0,0,0,3.7-1.3c-.6,1.6-1.2,2.9-2,3.3-2.2,1.1-20,6.5-20,6.5a.77.77,0,0,0,.1.3l-1.7.8.1.1c.3.3,3.6,2.2,5.6,1.9.8-.1-2.8-1.7-3.2-2h.1a4.65,4.65,0,0,0,.9.3c.9-.2,14.3-2.7,22.6-5.7a24.69,24.69,0,0,0,10.3-6.8c.9.5,1.5.8,1.6.7,4.9-2.9,12.4-5.7,17-7.6l7.4,1.6s9.4,1.4,10.1,1.2,2.7-5.7,3.1-6.7c.1,0,.2-.1.3-.1,1.1-.4,1-1.3-.2-1.9a5.62,5.62,0,0,0-4.2-.3c-.1,0-.2.1-.3.2a1.88,1.88,0,0,0-.5-2.4c-1.5-1.6-3.6-1.6-7-1.2-3.2.3-7,1.3-6.6,2.9,0,.1.1.1.1.2a.35.35,0,0,1-.1.2l-.4-.2-1,.4c-1.9-1.6-4.1-3-5.3-2.8a.37.37,0,0,0-.3.1c-3.4-.3-11.1.9-13.2,2.2-.7.4,0,1.7.7,2.9-.9.4-1.9.7-2.7,1.1-3.8,1.5-5.7,1.2-7.6,2-.3.1-.2.6.3,1.1-5,.9-6.3,4.9-10.1,6.5-1.7.7-12.7,2-18,3.5-.2,0-.2.2-.2.4l-1.6-.1-.1.1c-.4.3-1,2.6.9,3.1.7.2.7-2,1-2.3C57.2,280.5,57.3,280.5,57.4,280.5Zm57.8-16.6a2.76,2.76,0,0,0,1.9,1l6.2-.7a20.63,20.63,0,0,0,4-.4,3.34,3.34,0,0,0,1.2-.5c-.2.4,0,.8.5,1.2l-2.3,3.9s-5.4-1.3-10.6-2.9c-.3-.4-.8-.9-1.2-1.4A1.24,1.24,0,0,1,115.2,263.9Z"/><path class="cls-3" d="M158.6,266.5a3.9,3.9,0,0,0-1.6.2c-.6-.2-6.3-1.7-6.6-1.8h0a14.67,14.67,0,0,0,3.9-.5c.7-.4.3-1,.6-1.4h0a9.75,9.75,0,0,0,1.4-.6c.5-.3.1-.8-.5-1.4h0l-.3-.3a10.09,10.09,0,0,0,1.5-.7,9.52,9.52,0,0,0,3.9-.1l2.3-1a1.45,1.45,0,0,0,.7-.2,3.47,3.47,0,0,0,1.5-.8l.2-.1h-.1c.7-.7.7-1.6-.3-2.7s-4.9-2-7-1.5c-3.3.6-5.1,1.9-7.5,2.8a5.54,5.54,0,0,1-.5-2,56.4,56.4,0,0,1,6.5-1.2,5,5,0,0,0,2.5.1c1.4-.2,2.3-.6,2-1.1s-1.7-.7-3.1-.5a4.3,4.3,0,0,0-1.7.5c-2.9.2-8.2,1.1-8.8,1.6-1.1.9-.7,2.2-.4,3.4a24,24,0,0,1-3.8,0,5.15,5.15,0,0,0-1.8.1c-.6.3-.2.7.3,1.1a6.79,6.79,0,0,1,1.2,1.2c-.8.4-1.5.9-2.3,1.3a9.13,9.13,0,0,1-2.6,1.1c-.8.2-1.4.3-2.1.5l-2.2.6a9.32,9.32,0,0,0-3,1.3c-3.3,1.6-3.9,3-7.2,3.5s-15,4.2-21.3,6.2c-.8.2-1.4.4-2,.6-.5,0-3.3.6-3.3.6l.1.4,1.7-.2v.7a.9.9,0,0,0,.1.5v.1c0,.1.1.3.1.4s0,.1.1.2.1.2.1.4.1.1.1.2.1.2.2.4.1.1.1.2.2.3.3.5c.2,0,.3,0,.4-.1h.1c.1,0,.2,0,.2-.1a.1.1,0,0,0,.1-.1c.1,0,.1-.1.2-.1a.1.1,0,0,0,.1-.1l.1-.1a.1.1,0,0,1,.1-.1.35.35,0,0,0,.1-.2.1.1,0,0,1,.1-.1c0-.1.1-.1.1-.2v-.3h0c.2-.9.1-2.1,1.1-2.3.2-.1.5-.1.7-.2,5.3-1.3,14.7-3.1,22.2-4.5.7-.1,1.4-.3,2.2-.4a3,3,0,0,1-2.7,1.8c-3.4.4-15.2,5.2-21.4,7.3-.8.2-1.4.4-2,.6-.5,0-3.3.6-3.3.6l.1.4,1.7-.2v.7a.9.9,0,0,0,.1.5v.1c0,.1.1.3.1.4s0,.1.1.2.1.2.1.3.1.1.1.2.1.2.2.3.1.1.1.2.2.3.3.5c.2,0,.3,0,.4-.1h.1c.1,0,.2,0,.2-.1a.1.1,0,0,0,.1-.1c.1,0,.1-.1.2-.1a.1.1,0,0,0,.1-.1l.1-.1a.1.1,0,0,1,.1-.1.35.35,0,0,0,.1-.2.1.1,0,0,1,.1-.1c0-.1.1-.1.1-.2v-.3h0c.2-.9.1-2.1,1.1-2.3.2-.1.5-.1.7-.2,5.3-1.3,18.6-4.6,23.8-6.4,3.5-1.2,7.1-3.2,11.9-5.6a12.64,12.64,0,0,1,2.9-1.1q1.65-1,3-1.8c2,.5,7.6,1.7,10.2,2,.2.4,1.1.7,2.1.7,1.2.1,2.3-.3,2.3-.7S159.9,266.5,158.6,266.5Z"/><polygon class="cls-4" points="242.7 243.5 244.2 250.6 180.8 259.9 117.4 269.3 179.3 252.9 241.3 236.5 242.7 243.5"/><path id="_Path_" data-name="&lt;Path&gt;" class="cls-5" d="M222.4,14.8h-.2a12.31,12.31,0,0,0,.2-2A10.5,10.5,0,0,0,211.9,2.3a10.36,10.36,0,0,0-6.8,2.5,8.57,8.57,0,0,0-16.2,2.7h-.1a12.2,12.2,0,0,0,0,24.4h33.5a8.6,8.6,0,0,0,8.6-8.6A8.43,8.43,0,0,0,222.4,14.8Z"/><path id="_Path_2" data-name="&lt;Path&gt;" class="cls-5" d="M5.4,95.5h.1a4.87,4.87,0,0,1-.1-1.2,6.67,6.67,0,0,1,11-5.1,5.38,5.38,0,0,1,4.9-3,5.49,5.49,0,0,1,5.4,4.7h0a7.8,7.8,0,1,1,0,15.6H5.4a5.5,5.5,0,0,1,0-11Z"/><path id="_Path_3" data-name="&lt;Path&gt;" class="cls-6" d="M284.2,92.9h.3a16.28,16.28,0,0,1-.3-3.1A16.77,16.77,0,0,1,301,73a17,17,0,0,1,10.8,3.9,13.6,13.6,0,0,1,25.7,4.3h.1a19.5,19.5,0,0,1,0,39H284.1a13.72,13.72,0,0,1-13.7-13.7A13.92,13.92,0,0,1,284.2,92.9Z"/><circle class="cls-5" cx="57.1" cy="62.7" r="3.4"/><circle class="cls-7" cx="266" cy="62.2" r="2.8"/><circle class="cls-5" cx="257.5" cy="62.2" r="2.8"/><circle class="cls-7" cx="248.2" cy="62.2" r="2.8"/><path class="cls-5" d="M151.1,64.8H69.8a2,2,0,0,1,0-4h81.3a2,2,0,0,1,0,4Z"/><path class="cls-5" d="M268.8,86.8a2,2,0,0,1-1.7,2.2H55.6a2,2,0,0,1-1.7-2.2V78.1a2,2,0,0,1,1.7-2.2H267.1a2,2,0,0,1,1.7,2.2Z"/><circle class="cls-5" cx="61.9" cy="148.5" r="8.2"/><circle class="cls-5" cx="61.9" cy="111.2" r="8.2"/><g class="cls-8"><path class="cls-9" d="M85.4,107.8H78.3a2,2,0,0,1,0-4h7.1a2,2,0,0,1,2,2A1.94,1.94,0,0,1,85.4,107.8Z"/><path class="cls-9" d="M93.5,117.8H78.3a2,2,0,0,1,0-4H93.5a2,2,0,0,1,0,4Z"/></g><path class="cls-5" d="M85.4,145.8H78.3a2,2,0,0,1,0-4h7.1a2,2,0,0,1,2,2A1.89,1.89,0,0,1,85.4,145.8Z"/><path class="cls-5" d="M93.5,154.8H78.3a2,2,0,0,1,0-4H93.5a2,2,0,0,1,0,4Z"/><path class="cls-10" d="M205.1,152.8H140.3a2.5,2.5,0,0,1,0-5h64.8a2.5,2.5,0,0,1,0,5Z"/><path class="cls-11" d="M256.7,164.5H250v-1.1h6.7Zm-13.3,0h-6.7v-1.1h6.7Zm-13.3,0h-6.7v-1.1h6.7Zm-13.3,0h-6.7v-1.1h6.7Zm-13.3,0h-6.7v-1.1h6.7Zm-13.3,0h-6.7v-1.1h6.7Zm-13.3,0h-6.7v-1.1h6.7Zm-13.3,0h-6.7v-1.1h6.7Zm-13.3,0h-6.7v-1.1h6.7Zm-13.3,0h-6.7v-1.1H137Zm-13.3,0H117v-1.1h6.7Zm-13.4-.1a6.08,6.08,0,0,1-5-4.7l1.1-.2a5.14,5.14,0,0,0,4.1,3.9Zm153.2-.3-.4-1a5,5,0,0,0,3.2-4.6h1.1A6.17,6.17,0,0,1,263.5,164.1ZM106.2,153h-1.1v-6.7h1.1Zm161.2-1.3h-1.1V145h1.1Zm-162.3-12h0A6.2,6.2,0,0,1,109,134l.4,1a5,5,0,0,0-3.2,4.6Zm161.1-1.1a4.9,4.9,0,0,0-4.1-3.8l.2-1.1a6.08,6.08,0,0,1,5,4.7Zm-10.7-3.9h-6.7v-1.1h6.7Zm-13.3,0h-6.7v-1.1h6.7Zm-13.3,0h-6.7v-1.1h6.7Zm-13.3,0h-6.7v-1.1h6.7Zm-13.3,0h-6.7v-1.1h6.7Zm-13.3,0h-6.7v-1.1H189Zm-13.3,0H169v-1.1h6.7Zm-13.3,0h-6.7v-1.1h6.7Zm-13.3,0h-6.7v-1.1h6.7Zm-13.3,0h-6.7v-1.1h6.7Zm-13.3,0h-6.7v-1.1h6.7Z"/><path class="cls-12" d="M120.2,142.5a6.55,6.55,0,1,1-6.6,6.5A6.57,6.57,0,0,1,120.2,142.5Zm-4.7,6.6a4.61,4.61,0,0,0,4.7,4.6,4.55,4.55,0,0,0,4.6-4.7,4.61,4.61,0,0,0-4.7-4.6A4.67,4.67,0,0,0,115.5,149.1Zm3.2-.1c-.7,0-.7,0-.7.7,0,.2.1.4.3.4h2.6a.27.27,0,0,0,.3-.3v-3.7a1,1,0,0,0-.1-.3,2.15,2.15,0,0,0-.8,0c-.2.1-.2.3-.2.5V149Z"/><path class="cls-13" d="M244.6,154.5a6.05,6.05,0,0,1-1.5-.2,2.73,2.73,0,0,1-1.2-.6,6.47,6.47,0,0,1-.8-.9,2.66,2.66,0,0,1-.3-1.2h0a2.41,2.41,0,0,1,.4-1.5,2.73,2.73,0,0,1,1.2-.9,2,2,0,0,1-.9-.9,2.5,2.5,0,0,1-.3-1.3h0a2.28,2.28,0,0,1,.3-1.1,5.5,5.5,0,0,1,.7-.9,10.91,10.91,0,0,1,1.1-.6,5,5,0,0,1,2.8,0,2.38,2.38,0,0,1,1.1.6,2.18,2.18,0,0,1,.7.9,2,2,0,0,1,.3,1.1h0a2.5,2.5,0,0,1-.3,1.3,3.82,3.82,0,0,1-.9.9,6.23,6.23,0,0,1,1.2.9,2.12,2.12,0,0,1,.4,1.4h0a2.13,2.13,0,0,1-.3,1.2,3.45,3.45,0,0,1-.8.9,13.39,13.39,0,0,1-1.2.6A4.31,4.31,0,0,1,244.6,154.5Zm0-1.8a1.84,1.84,0,0,0,1.3-.4c.3-.3.5-.5.5-.9h0a1.05,1.05,0,0,0-.5-.9,2.55,2.55,0,0,0-2.4,0,1.05,1.05,0,0,0-.5.9h0a1.38,1.38,0,0,0,.5.9C243.6,152.6,244.1,152.7,244.6,152.7Zm0-4.3a1.49,1.49,0,0,0,1-.3,1,1,0,0,0,.4-.9h0a.91.91,0,0,0-.4-.8,1.6,1.6,0,0,0-1.1-.4,1.37,1.37,0,0,0-1.1.4,1.23,1.23,0,0,0-.4.8h0a1.09,1.09,0,0,0,.4.9A2.66,2.66,0,0,0,244.6,148.4Zm5.5-4.5h2.2v3.9c.1-.2.3-.3.4-.5a2.18,2.18,0,0,1,.5-.4l.6-.3a1.7,1.7,0,0,1,.7-.1,2.41,2.41,0,0,1,1.9.8,2.82,2.82,0,0,1,.7,2.1v5h-2.2v-4.3a2.13,2.13,0,0,0-.3-1.2,1.45,1.45,0,0,0-2,0,2.14,2.14,0,0,0-.4,1.2v4.3H250V143.9Z"/><path class="cls-14" d="M299.8,222c-.3-1-1.6-2.3-3.3-3.4.1,0,.2,0,.2-.1a2.51,2.51,0,0,0,.7-.4,7.82,7.82,0,0,0,2.6-.2l.6-.3c-.3.3-.4.5,0,.8-.3-.2,1.7-.6,1.9-.6a13.49,13.49,0,0,0,2.4-.8c1.5-.6,3.8-1.5,3.5-2.5a2.48,2.48,0,0,0-1.5-1.3,25.47,25.47,0,0,0-5.9-1.5.84.84,0,0,0-.3,1,5.78,5.78,0,0,0-1.4.5l-6,3c-.4.2,0,.7.9,1.1a9.92,9.92,0,0,0-3.4-1h0c-2.9-.1-8.2-1-8.2-1l-.9-4.8h-1.2c1.2-.2,2.1-.6,2.1-1.1s-1.4-1-3-.9-2.8.6-2.7,1.2c.1.4.8.7,1.9.9H278s-1.2,4.4.4,5.7c.8.7,3.9,1.5,6.5,2.2-6.4,2.8-16.1,7.1-19.3,9.1-.1.1-.1.2.1.4-3.8,1.2-11.7,3.9-13.1,4.5-1.8.9-14.8,10.1-14.8,10.1l.3.2c-2.1,0-5.6.1-5.3.3.8.8,4.9.7,6.6.5l.6.4c.2-.1,10.6-6.6,12.6-7.9,1.4-.3,15.4-5.3,16.1-5s-9.9,5.2-12.6,6.8c-2.4,1.4-13,9.8-13,9.8a.77.77,0,0,0,.1.3c-1.7.1-6.4,0-6.1.3.9,1,6.5.7,7.3.5h.1a1.48,1.48,0,0,0,.7.1c1-.3,8.1-4.8,15.9-9.1,4.8-2.6,11.5-4.7,15.5-6a5.78,5.78,0,0,0,2.2.7c.7-.3,1.9-1.1,3.4-2l10-1.3,7.4-3.3C299.5,228.2,301.5,223.4,299.8,222Zm-5.2-4.4h0c-.1,0-.1,0-.1-.1Zm-5.7,11.3c1-.5,1.9-1,2.8-1.5a3.69,3.69,0,0,0-.4.9Z"/><path class="cls-15" d="M242.4,247.2h0c-.4.6-4.2,3.5-3.6,3.8,1.7.8,4.7-2.4,5-3a.1.1,0,0,1,.1-.1Z"/><path class="cls-15" d="M233.6,242.7h0c-.4.6-4.1,3.7-3.5,3.9,1.7.7,4.6-2.5,4.9-3.2a.1.1,0,0,1,.1-.1Z"/><path class="cls-16" d="M232.7,183.6a44.87,44.87,0,0,1-6,3l-6.2-5.6-2.1,2s4.5,6.2,7,6.9c2.3.7,9.8-1.5,9.8-1.5S233.8,182.8,232.7,183.6Z"/><path class="cls-17" d="M245.7,209.7c.1,1.7-3,10.4-2.6,18.6.4,9.3,1.6,18.5,1.3,19.4a2.72,2.72,0,0,1-2.7-.4s-3.6-15.9-3.8-18.8c-.3-3.4.3-15-.6-15s-3.9,17.7-3.7,14c0-.7,2,16.4,1.9,16.7l-3.1-.7s-3.2-18.1-3.2-20.2,2.8-14.2,2.8-14.2Z"/><path class="cls-18" d="M245.8,187.7c0-3.4-13.3-6.6-13.7-3.3-.5,4.7-1.6,20.8-1.2,26,.1,1.6,16.2,3,16.2,2.2.1-1.6-.8-6.3-.8-11.4C246.4,195.3,245.8,189.2,245.8,187.7Z"/><path class="cls-19" d="M236.5,172.3a3,3,0,0,0-2.4,3v6.8c0,1.1,4.9,1.8,6.1-1.2v-5.6a3.09,3.09,0,0,0-3.7-3Z"/><path class="cls-20" d="M240.1,179.2c0-.4.1-.9.1-1.3a3.33,3.33,0,0,0-1.2-2.8c-1.2-.9-2.6.1-3.7-.4a3.45,3.45,0,0,1-2-2.1c1.7-.5,3.5-1.3,5.4-1.1a5.38,5.38,0,0,1,2.5.9c1.3,1.1,1,3.4.8,4.9a14.19,14.19,0,0,1-.5,2.2c-.1.2-.8,1.7-.4,1.8C240.1,181.1,240,180,240.1,179.2Z"/><ellipse class="cls-19" cx="240.39" cy="178.6" rx="1.1" ry="0.7" transform="translate(15 375.8) rotate(-77.8)"/><path class="cls-19" d="M237.1,184h.9a.79.79,0,0,0,.8-.8v-1.9h-2.3s-.1,1.1-.1,1.9A.67.67,0,0,0,237.1,184Z"/><ellipse class="cls-19" cx="243.89" cy="210.38" rx="2.3" ry="1.8" transform="translate(-77.85 225.45) rotate(-43.46)"/><ellipse class="cls-21" cx="218.09" cy="180.81" rx="2.3" ry="1.8" transform="translate(-62.81 217.54) rotate(-47.11)"/><path class="cls-22" d="M243.6,186c-3.3,1.5,3.5,12.2,3.5,12.2l-3.8,10.3,2.5,1.7,5.5-8.5C251.3,201.6,249,183.6,243.6,186Z"/><g class="cls-23"><path class="cls-24" d="M222.4,178.8a5.54,5.54,0,0,1-4.1,6.7l-146,35a5.54,5.54,0,0,1-6.7-4.1l-4.4-18.2a5.54,5.54,0,0,1,4.1-6.7l146-35.1a5.54,5.54,0,0,1,6.7,4.1Z"/></g><path class="cls-25" d="M210.9,156.5l-28.3,6.8,7,29,28.3-6.8a6,6,0,0,0,4.4-7.2l-4.2-17.4A6,6,0,0,0,210.9,156.5Z"/><path class="cls-9" d="M199.7,179.7a8.87,8.87,0,0,1-1.5.2,2.77,2.77,0,0,1-1.3-.3,3.59,3.59,0,0,1-1-.7,2.38,2.38,0,0,1-.6-1.1h0a2.45,2.45,0,0,1,.1-1.5,3.54,3.54,0,0,1,1-1.2,2.38,2.38,0,0,1-1.1-.6,2.28,2.28,0,0,1-.6-1.2h0a2.05,2.05,0,0,1,0-1.1,1.91,1.91,0,0,1,.5-1,3.45,3.45,0,0,1,.9-.8,4.57,4.57,0,0,1,1.4-.5,3.81,3.81,0,0,1,1.5-.1,2.13,2.13,0,0,1,1.2.3,2.18,2.18,0,0,1,.9.7,3.13,3.13,0,0,1,.5,1h0a3.3,3.3,0,0,1,0,1.4,3.38,3.38,0,0,1-.7,1.1,4.54,4.54,0,0,1,1.4.6,2.42,2.42,0,0,1,.8,1.3h0a2.85,2.85,0,0,1,0,1.3,2.38,2.38,0,0,1-.6,1.1,5.31,5.31,0,0,1-1.1.9A4.42,4.42,0,0,0,199.7,179.7Zm-.4-1.8a2.28,2.28,0,0,0,1.2-.6.92.92,0,0,0,.2-1h0a1.12,1.12,0,0,0-.7-.8,2.85,2.85,0,0,0-1.3,0,1.68,1.68,0,0,0-1.1.6,1,1,0,0,0-.3,1h0a1.34,1.34,0,0,0,.7.8A1.91,1.91,0,0,0,199.3,177.9Zm-1-4.1a1.46,1.46,0,0,0,.9-.6,1,1,0,0,0,.2-.9h0a1.34,1.34,0,0,0-.6-.7,1.38,1.38,0,0,0-1.1-.1c-.4.1-.8.3-.9.6a1.49,1.49,0,0,0-.2.9h0a1.56,1.56,0,0,0,.6.8A2,2,0,0,0,198.3,173.8Zm4.3-5.7,2.1-.5.9,3.8.3-.6a1.76,1.76,0,0,1,.4-.5,1,1,0,0,1,.5-.4,4.88,4.88,0,0,1,.7-.3,2.52,2.52,0,0,1,2.1.3,3.31,3.31,0,0,1,1.2,1.9l1.2,4.8-2.1.5-1-4.2a1.68,1.68,0,0,0-.6-1.1,1.16,1.16,0,0,0-1-.2,1.46,1.46,0,0,0-.9.6,1.57,1.57,0,0,0-.1,1.2l1,4.2-2.1.5Z"/><path class="cls-26" d="M160.6,186l-63,15.2a2.47,2.47,0,0,1-1.2-4.8l63-15.2a2.47,2.47,0,1,1,1.2,4.8Z"/><path class="cls-27" d="M76,197.5a6.54,6.54,0,1,1-4.8,7.8A6.49,6.49,0,0,1,76,197.5Zm-3,7.6a4.66,4.66,0,0,0,5.6,3.4,4.72,4.72,0,0,0,3.4-5.7,4.66,4.66,0,0,0-5.6-3.4A4.72,4.72,0,0,0,73,205.1Zm3.1-.8c-.7.2-.7.2-.5.9.1.2.2.3.4.3l2.5-.6c.2-.1.3-.2.3-.4l-.9-3.6a.22.22,0,0,0-.2-.2,2.35,2.35,0,0,0-.8.2c-.2.1-.1.3,0,.5l.6,2.7A7.84,7.84,0,0,0,76.1,204.3Z"/><ellipse class="cls-19" cx="67.05" cy="218.17" rx="2.2" ry="2.5" transform="translate(-152.09 281.96) rotate(-89.15)"/><path class="cls-28" d="M101.2,241.4c-.1-1-6.2-4.9-6.6-3.3-2.4,9.2,1.3,11.9-.1,15.7-1,2.6-2.6,14-3.3,20.2a2.84,2.84,0,0,0,1.7.7c1.2-4.7,3.7-12.5,5.8-18.7C99.8,252.6,101.7,247.1,101.2,241.4Z"/><path class="cls-19" d="M90.6,277c.5,1.3,3.2,3.3,5.3,4.3,1.1-1.7-3.5-4.6-3.1-6a1.42,1.42,0,0,1,.2-.6,2.61,2.61,0,0,1-1.7-.7A28.14,28.14,0,0,1,90.6,277Z"/><path d="M95,278.7c-1.6.7-2.5-3.4-4.1-2.8-.3.1-.9,2.7-.9,2.7l.5.4.7-1.2a17,17,0,0,0,4.7,3.5C96.3,280.6,95.7,279.7,95,278.7Z"/><ellipse class="cls-19" cx="93.45" cy="214.43" rx="2.1" ry="1.4" transform="translate(-140.04 200.46) rotate(-63.03)"/><path class="cls-19" d="M103.5,216.7v5.2c0,1.7-4.3,4.6-5.8,2.4v-4.9Z"/><path class="cls-29" d="M98.9,226.9h0a1.16,1.16,0,0,0,.8-1.2,9.21,9.21,0,0,1-.2-2.6l-1.8.1a15.38,15.38,0,0,1-.5,2.6C96.9,226.6,98.1,227.3,98.9,226.9Z"/><path class="cls-19" d="M97.5,282.5c.5,1.3,3.2,3.3,5.3,4.3,1.1-1.7-3.5-4.6-3.1-6a1.42,1.42,0,0,1,.2-.6,2.61,2.61,0,0,1-1.7-.7C97.9,280.8,97.7,281.9,97.5,282.5Z"/><path class="cls-30" d="M103.5,241.3c-.2-1.4-.5-2.8-.7-4-.3-1.8,3-4.7,2.7-6.2-.2-.9-1.1-1.4-1.4-2-3.5,1.9-6.8,1.2-10.3-.4a41,41,0,0,0,.8,6.5,5.09,5.09,0,0,1,0,2.8c-.1.5-.5,2.3-.8,3.9-1.4,7.5,8.4,12.1,6.4,15.9-1.3,2.5-1.4,15.3-2.1,21.5a2.84,2.84,0,0,0,1.7.7c1.2-4.7,3.9-16.6,4.3-21.9.3-3.6-.2-8-.7-13.8A10.49,10.49,0,0,1,103.5,241.3Z"/><path class="cls-19" d="M102.9,226.6a17.29,17.29,0,0,0-7.4-1.9,22.07,22.07,0,0,1-4.1-3.1c-.2-.3,2.1-6,2.1-6l-1.1-.9c-1.3,1.5-3.4,6.7-3.1,7.8.6,1.9,2.8,3.4,4.6,4.8a3.3,3.3,0,0,0,0,1.4c3.5,1.6,6.8,2.3,10.3.4C104.1,229.2,103.1,226.4,102.9,226.6Z"/><path d="M101.9,284.2c-1.6.7-2.5-3.4-4.1-2.8-.3.1-.9,2.7-.9,2.7l.5.4.7-1.2a17,17,0,0,0,4.7,3.5C103.2,286,102.6,285.1,101.9,284.2Z"/><path class="cls-19" d="M109.9,232.4s-5.4,1.7-5.7,1.7c-.5.1,0-4.4-.1-6.5,0-.6-.9-1-1.9-1.4-.3-.1-1.3,10.1,0,11.3.2.2,7.2-2.8,8.7-4.1Z"/><ellipse class="cls-19" cx="111.49" cy="232.33" rx="1.8" ry="1.4" transform="translate(-128.69 138.95) rotate(-43.12)"/><path class="cls-31" d="M100,213.7c-1.8-.6-4.9.5-5.5,2.3-1.6,4.8,1.6,9.4-3.1,13.3a1.64,1.64,0,0,0-.8,1.2c0,.7.8,1,1.4,1.1,1.7.4,3.1,1.4,4.9,1.5,1.1,0,2.4,0,3.2-.8a4.64,4.64,0,0,0,1.2-2.3c.7-2.6.1-5.2.4-7.7.2-1.6,1.8-2,2-3.5C104,216.5,102.6,214.6,100,213.7Z"/><ellipse class="cls-19" cx="101.96" cy="221.22" rx="0.7" ry="1.1" transform="translate(-44.44 26.54) rotate(-12.2)"/><path id="_Path_4" data-name="&lt;Path&gt;" class="cls-32" d="M128.3,47.8c.1-4-1.2-4.8-1.2-4.8A15.36,15.36,0,0,0,116,39.3c-.1,2.3-2.1,3.2-4.2,3.5l3.6,2.5,8.4,1.6a29,29,0,0,0-.2,4.1c.1,1.6,1.2,7,1.2,7,1.1,1.3,3.7.2,3.7.2S128.2,51.8,128.3,47.8Z"/><path id="_Path_5" data-name="&lt;Path&gt;" class="cls-33" d="M115,41.6h0a6.58,6.58,0,0,1-3.2,1.3l3.6,2.5,8.4,1.6a29,29,0,0,0-.2,4.1c.1,1.6,1.2,7,1.2,7a1,1,0,0,0,.5.4c-.1-1.7-.4-4.6-.5-5.3a40.5,40.5,0,0,1,0-6.1,2.17,2.17,0,0,0-1.4-2.1Z"/><path id="_Path_6" data-name="&lt;Path&gt;" class="cls-15" d="M131.7,59.7c-.9-.5-3.3-1.4-3.3-1.4s-2.5,1.1-3.7-.2v.7s.1.8,2.2,1,1.3,2.7,4.4,2.2S132.6,60.2,131.7,59.7Z"/><path id="_Path_7" data-name="&lt;Path&gt;" class="cls-34" d="M107.5,31.3a1.89,1.89,0,0,1,2.9,0,4.37,4.37,0,0,1,.9,3.2l-.2,3.5h-4.2V33.9A3.35,3.35,0,0,1,107.5,31.3Z"/><path id="_Path_8" data-name="&lt;Path&gt;" class="cls-35" d="M106.4,42.8a7.29,7.29,0,0,0,2.8,5.2,41.92,41.92,0,0,1,4.3,3.8,30.31,30.31,0,0,0-.5,6.9c.3,2.7.5,5.5.5,5.5s1.7,2.3,4.1,1a31.26,31.26,0,0,1-.5-7.8c.4-3.2,2.1-6.7.8-8.4a81.29,81.29,0,0,0-6.2-6.1Z"/><path id="_Path_9" data-name="&lt;Path&gt;" class="cls-15" d="M119.5,68.2a24.19,24.19,0,0,0-2-2.6l-.2-.2h0a3.44,3.44,0,0,1-3.8-1.1v1a4.32,4.32,0,0,0,1,1c.5.3.5,1.3,1.2,2.1s1.8,1.9,3.1,1.6C120.3,69.6,119.8,68.7,119.5,68.2Z"/><path id="_Path_10" data-name="&lt;Path&gt;" class="cls-19" d="M122.3,37.3l-1.7-3.8V32.2a4.12,4.12,0,0,1-2.9.5c-.1,2.3.4,2.3.4,2.3l2.5,2.6a.43.43,0,0,1-.1.7l-.5.3v1.9s.6.2.5-.4c0-1.2.7-1,.7-1l.3,1.4-.2.6c0,.1,0,.2.1.2s.2.1.3.1c.3.1.6-.8.6-.8l1.1-.2c.2,0,.3-.2.3-.4l.1-.7Z"/><path id="_Path_11" data-name="&lt;Path&gt;" class="cls-19" d="M123.4,40.4c.2,0,.3-.2.3-.4l.1-.7h-1.7l.2.7v.6Z"/><path class="cls-36" d="M115.5,26.9a5.1,5.1,0,0,1,.1-.9h0s-4.6,1.2-6.9,3.2-2.7,4.9-2.4,9.3l.2,4.4s9.3,1.5,9.5-3.5c0,0,1.2-4.5,1.7-6.6,2.9.3,2.9-.5,2.9-.5C120.3,28.7,116.7,27.3,115.5,26.9Z"/><path class="cls-37" d="M125.4,42.8Z"/><path class="cls-38" d="M124.3,42.1h0a.49.49,0,0,1-.3.1h0c0-.2.1-.2.3-.1Z"/><polygon class="cls-39" points="122.8 41.7 122.8 41.7 119.4 43.6 122.8 41.7"/><polygon class="cls-40" points="122.8 41.7 122.8 41.7 124.9 42.9 121.5 44.8 119.4 43.6 122.8 41.7"/><path class="cls-38" d="M119,43.8h0l2.2,1.3c.1,0,.2.1.3,0l3.9-2.3h0v.4a.1.1,0,0,1-.1.1l-3.9,2.3c-.1.1-.2,0-.3,0L119,44.4l-.1-.1.1-.5c-.1-.1-.1,0,0,0Z"/><path class="cls-38" d="M120.4,44.3h0a.1.1,0,0,1-.1.1v-.1Z"/><path class="cls-41" d="M118.9,43.7h0l2.2,1.3c.1,0,.2.1.3,0l3.9-2.3h0a.1.1,0,0,0-.1-.1l-2.1-1.2a.19.19,0,0,0-.3,0l-3.9,2.3Zm5.4-1.6h0v.1H124c0-.2.1-.2.3-.1Zm-4,2.2h.1c0,.1-.1.1-.1,0Zm-.9-.7,3.4-1.9,2.1,1.2-3.4,1.9Z"/><path id="_Path_12" data-name="&lt;Path&gt;" class="cls-19" d="M122.8,43.9l-1.1.9h-1.8a2.08,2.08,0,0,1,0-.8c.1-.2.7-.4,1.3-.6s.4-.4.4-.4h-1.7a5.69,5.69,0,0,0-1.3.7,5.6,5.6,0,0,1-1.5.7l-6.9-2,.4-4.5H107v3.9c0,3.1,1.5,3.3,1.5,3.3l8.6.6,1.6.4h2.1c.6,0,2-1.3,2.3-1.9S122.8,43.9,122.8,43.9Z"/><path class="cls-15" d="M50.1,281.8l-.7.4c.3.6,2.9,3.2,2.3,3.4-1.6.6-4-2.6-4.2-3.2v-.1l1.7-1.6Z"/><path class="cls-42" d="M52.9,266c0-4.6-5.1-10.9-2.2-15,.8-1.2,5.7.2,5.7.2l1.5,5.9c-.8,1,.6,7.6-.2,10.8-.5,1.8-6.9,14.1-7,14.3-.5.5-2.9-.7-2.8-1.3C48.9,276,52.9,267.8,52.9,266Z"/><path class="cls-43" d="M51.8,227.2c.4.3-1.6,8.2-1.6,8.2l6.7,2.4-3.3,4.9s-7.1-3-7.4-4.8C45.5,234.3,49.9,225.6,51.8,227.2Z"/><path class="cls-15" d="M60.6,288.9l-.2.8c.6.2,4.3-.1,4.1.5-.7,1.6-4.6,1.3-5.2,1.1a.1.1,0,0,1-.1-.1l-.1-2.3Z"/><path class="cls-44" d="M51.2,250c1.3-1.9,11.2,3.8,11.2,3.8.1,1.6,3.8,7.6,3.3,15.3-.6,8.5-4.4,19.5-4.6,20.3a2.19,2.19,0,0,1-2.4-.4s2.5-17.1,2.3-19.8C60.7,266.2,48.6,253.8,51.2,250Z"/><path class="cls-19" d="M63.2,217.9a3.07,3.07,0,0,1,.8,3.8l-3.1,6.1c-.5,1-5.1-.6-4.9-3.9l2.6-5a3,3,0,0,1,4.6-1Z"/><path class="cls-19" d="M56.6,228.9l2.3-.1c-.1-1.1-.2-3.5-.2-3.5H56.6a13.41,13.41,0,0,0,0,3.6Z"/><path class="cls-20" d="M56.3,218.5c-1.2,2.3-2,5.7.2,7.5,3,2.4,7.7-2.9,8.4-5.5.6-2.1-1.8-3.9-3.5-4.6C58.6,214.7,57.6,216,56.3,218.5Z"/><path class="cls-45" d="M69.4,218.2l-3.2,1.4,4,6.8s-4.3,1.6-9.1,2.8c-3.8-1.8-10.1-3.3-10.8-2-.4.8,0,9.9-.3,16.8-.2,4-1.4,4.8-1.4,7,0,1.9,15.9,4.5,15.8,3.8-1-6.4-.7-14.3-.5-19.2l5.8-2.5s6.6-3.8,6.6-4.6S69.4,218.2,69.4,218.2Z"/><ellipse class="cls-19" cx="61.41" cy="225.01" rx="1.1" ry="0.7" transform="translate(-171.31 209.37) rotate(-70.89)"/><path class="cls-19" d="M110.5,25.9a5.37,5.37,0,0,0,3.7,3.2,2.89,2.89,0,0,0,3-.5c.7-.7,1.3-3.9.9-6.6s-2.5-4.4-5-3.9S108.6,20.1,110.5,25.9Z"/><path class="cls-19" d="M115.7,28.3v.1c0,.3.2,1.2.2,1.5s-.4.9-1.3.8a3.37,3.37,0,0,1-2.9-1.6V26Z"/><path class="cls-46" d="M111.5,18.4a3.27,3.27,0,0,1,4.2-.8c2.7,1.3,3,2.5,4.2,2.3-.1.4-.2,2-2.8,2.3a8.92,8.92,0,0,1-4.7-.8,3.09,3.09,0,0,1,.5,1.9c0,1.3-.3,1.3-.3,1.3s-.4-1.7-1-1.6-.6,1.7-.1,2.3.8.3.8.3,0,.3-.5.5a.45.45,0,0,1-.6-.1,2.81,2.81,0,0,0,.8.8c0,.2-.6.2-.6.2a5.72,5.72,0,0,0,.8.8c-.1.1-1,.3-1.9-1a6.12,6.12,0,0,1-1.1-4.5c.2-1.9.9-2.3.9-2.3A1.57,1.57,0,0,1,111.5,18.4Z"/><g class="cls-8"><path class="cls-9" d="M267.4,120.6a5.55,5.55,0,0,1-5.5,5.5H111.8a5.55,5.55,0,0,1-5.5-5.5V101.8a5.55,5.55,0,0,1,5.5-5.5H261.9a5.55,5.55,0,0,1,5.5,5.5Z"/></g><path class="cls-7" d="M261.4,96.2H232.3V126h29.1a6,6,0,0,0,6-6V102.1A6,6,0,0,0,261.4,96.2Z"/><text class="cls-47" transform="translate(240.22 116.02)">4h</text><path class="cls-48" d="M205.6,113.8H140.8a2.5,2.5,0,0,1,0-5h64.8a2.5,2.5,0,0,1,0,5Z"/><g class="cls-49"><path class="cls-9" d="M120.7,104.6a6.55,6.55,0,1,1-6.6,6.5A6.57,6.57,0,0,1,120.7,104.6Zm-4.6,6.6a4.61,4.61,0,0,0,4.7,4.6,4.55,4.55,0,0,0,4.6-4.7,4.61,4.61,0,0,0-4.7-4.6A4.55,4.55,0,0,0,116.1,111.2Z"/><path class="cls-9" d="M120.7,111.2v-2.7c0-.2-.1-.4.2-.5a2.15,2.15,0,0,1,.8,0c.1,0,.1.2.1.3V112a.27.27,0,0,1-.3.3h-2.6c-.2,0-.3-.1-.3-.4,0-.7,0-.7.7-.7Z"/></g></g></g></g></svg>