<svg xmlns="http://www.w3.org/2000/svg" xmlns:xlink="http://www.w3.org/1999/xlink" viewBox="0 0 351.6 401.6"><defs><style>.cls-1{fill:url(#linear-gradient);}.cls-10,.cls-2,.cls-8{fill:#fff;}.cls-2{opacity:0.05;}.cls-11,.cls-13,.cls-14,.cls-16,.cls-2,.cls-21,.cls-22,.cls-23,.cls-24,.cls-25,.cls-26,.cls-27,.cls-28,.cls-29,.cls-30,.cls-31,.cls-4,.cls-43,.cls-5,.cls-57,.cls-6,.cls-8{isolation:isolate;}.cls-3{fill:url(#linear-gradient-2);}.cls-11,.cls-22,.cls-23,.cls-24,.cls-4,.cls-6,.cls-8,.cls-9{opacity:0.2;}.cls-4{fill:url(#linear-gradient-3);}.cls-13,.cls-14,.cls-15,.cls-16,.cls-21,.cls-25,.cls-26,.cls-27,.cls-28,.cls-29,.cls-30,.cls-5{opacity:0.5;}.cls-5{fill:url(#linear-gradient-4);}.cls-6{fill:url(#linear-gradient-5);}.cls-7{fill:url(#linear-gradient-6);}.cls-11,.cls-12,.cls-14{fill:#cbcbca;}.cls-13{fill:#93a4d2;}.cls-16{fill:url(#linear-gradient-7);}.cls-17,.cls-26{fill:#8cb55c;}.cls-18{fill:#f8e7d0;}.cls-19{fill:#fceff3;}.cls-20{fill:url(#linear-gradient-8);}.cls-21{fill:url(#linear-gradient-9);}.cls-22{fill:url(#linear-gradient-10);}.cls-23{fill:url(#linear-gradient-11);}.cls-24{fill:url(#linear-gradient-12);}.cls-25{fill:#f04c5d;}.cls-27{fill:url(#linear-gradient-13);}.cls-28{fill:url(#linear-gradient-14);}.cls-29{fill:url(#linear-gradient-15);}.cls-30{fill:url(#linear-gradient-16);}.cls-31{opacity:0.7;fill:url(#linear-gradient-17);}.cls-32{fill:url(#linear-gradient-18);}.cls-33{fill:#60f0ae;}.cls-34{fill:url(#linear-gradient-19);}.cls-35{fill:url(#linear-gradient-20);}.cls-36{fill:url(#linear-gradient-21);}.cls-37{fill:url(#linear-gradient-22);}.cls-38{fill:url(#linear-gradient-23);}.cls-39{fill:url(#linear-gradient-24);}.cls-40{fill:url(#linear-gradient-25);}.cls-41{fill:url(#linear-gradient-26);}.cls-42{fill:url(#linear-gradient-27);}.cls-44{fill:url(#linear-gradient-28);}.cls-45{fill:url(#linear-gradient-29);}.cls-46{fill:url(#linear-gradient-30);}.cls-47{fill:url(#linear-gradient-31);}.cls-48{fill:#60d9f7;}.cls-49{fill:url(#linear-gradient-32);}.cls-50{fill:url(#linear-gradient-33);}.cls-51{fill:url(#linear-gradient-34);}.cls-52{fill:url(#linear-gradient-35);}.cls-53{fill:url(#linear-gradient-36);}.cls-54{fill:#ff9d26;}.cls-55{fill:url(#linear-gradient-37);}.cls-56{fill:url(#linear-gradient-38);}.cls-57{fill:#303033;opacity:0.05;}.cls-58{fill:url(#linear-gradient-39);}.cls-59{fill:url(#linear-gradient-40);}.cls-60{fill:url(#linear-gradient-41);}.cls-61{fill:url(#linear-gradient-42);}.cls-62{fill:#dba27d;}.cls-63{fill:#f8c09d;}.cls-64{fill:#e7b26a;}.cls-65{fill:url(#linear-gradient-43);}.cls-66{fill:#252a26;}.cls-67{fill:#282928;}.cls-68{fill:url(#linear-gradient-44);}.cls-69{fill:#65493c;}.cls-70{fill:url(#linear-gradient-45);}.cls-71{fill:url(#linear-gradient-46);}.cls-72{fill:#e5ae92;}.cls-73{fill:url(#linear-gradient-47);}.cls-74{fill:url(#linear-gradient-48);}.cls-75{fill:#634e42;}.cls-76{fill:url(#linear-gradient-49);}.cls-77{fill:url(#linear-gradient-50);}.cls-78{fill:url(#linear-gradient-51);}.cls-79{fill:url(#linear-gradient-52);}.cls-80{fill:url(#linear-gradient-53);}.cls-81{fill:url(#linear-gradient-54);}.cls-82{fill:url(#linear-gradient-55);}.cls-83{fill:url(#linear-gradient-56);}.cls-84{fill:url(#linear-gradient-57);}.cls-85{fill:url(#linear-gradient-58);}.cls-86{fill:url(#linear-gradient-59);}.cls-87{fill:url(#linear-gradient-60);}.cls-88{fill:url(#linear-gradient-61);}.cls-89{fill:url(#linear-gradient-62);}</style><linearGradient id="linear-gradient" x1="309.8" y1="274.05" x2="351.6" y2="274.05" gradientTransform="matrix(1, 0, 0, -1, 0, 412)" gradientUnits="userSpaceOnUse"><stop offset="0" stop-color="#ccc" stop-opacity="0.25"/><stop offset="1" stop-color="#999" stop-opacity="0"/></linearGradient><linearGradient id="linear-gradient-2" x1="-5270.07" y1="362.55" x2="-5183.37" y2="362.55" gradientTransform="translate(-5047.57 412) rotate(180)" xlink:href="#linear-gradient"/><linearGradient id="linear-gradient-3" x1="86.98" y1="-38.78" x2="152.53" y2="-38.78" gradientTransform="matrix(1, -0.09, 0, -1, 9.99, 185.5)" gradientUnits="userSpaceOnUse"><stop offset="0" stop-color="#1afffe"/><stop offset="1" stop-color="#3688df" stop-opacity="0.49"/></linearGradient><linearGradient id="linear-gradient-4" x1="86.98" y1="17.08" x2="152.53" y2="17.08" xlink:href="#linear-gradient-3"/><linearGradient id="linear-gradient-5" x1="38.66" y1="-36.85" x2="79.7" y2="-36.85" xlink:href="#linear-gradient-3"/><linearGradient id="linear-gradient-6" x1="38.66" y1="94.4" x2="300.07" y2="94.4" xlink:href="#linear-gradient-3"/><linearGradient id="linear-gradient-7" x1="86.98" y1="50.2" x2="152.53" y2="50.2" xlink:href="#linear-gradient-3"/><linearGradient id="linear-gradient-8" x1="44.39" y1="-12.13" x2="71.69" y2="-12.13" gradientTransform="matrix(1, -0.09, 0, -1, 9.99, 185.5)" gradientUnits="userSpaceOnUse"><stop offset="0" stop-color="#69f7ae"/><stop offset="1" stop-color="#10aeaf"/></linearGradient><linearGradient id="linear-gradient-9" x1="166.07" y1="64.09" x2="290.7" y2="64.09" xlink:href="#linear-gradient-3"/><linearGradient id="linear-gradient-10" x1="166.07" y1="35.58" x2="290.7" y2="35.58" xlink:href="#linear-gradient-3"/><linearGradient id="linear-gradient-11" x1="166.07" y1="4.26" x2="290.7" y2="4.26" xlink:href="#linear-gradient-3"/><linearGradient id="linear-gradient-12" x1="166.07" y1="-26.96" x2="290.7" y2="-26.96" xlink:href="#linear-gradient-3"/><linearGradient id="linear-gradient-13" x1="4687.16" y1="-79.88" x2="-7490.54" y2="1926.3" gradientTransform="matrix(0.14, 0.68, 1.01, -0.21, -570.49, -220.23)" gradientUnits="userSpaceOnUse"><stop offset="0.19" stop-color="#330867" stop-opacity="0.25"/><stop offset="1" stop-color="#330867" stop-opacity="0"/></linearGradient><linearGradient id="linear-gradient-14" x1="4633.96" y1="-113.92" x2="-7543.74" y2="1892.26" xlink:href="#linear-gradient-13"/><linearGradient id="linear-gradient-15" x1="4614.16" y1="-70.89" x2="-7563.54" y2="1935.29" xlink:href="#linear-gradient-13"/><linearGradient id="linear-gradient-16" x1="4661.07" y1="-33.02" x2="-7516.63" y2="1973.15" xlink:href="#linear-gradient-13"/><linearGradient id="linear-gradient-17" x1="4936.13" y1="-1431.07" x2="-8168.51" y2="727.81" gradientTransform="matrix(0.47, 2.21, 2.1, -0.44, 1360.87, -2316.52)" xlink:href="#linear-gradient-13"/><linearGradient id="linear-gradient-18" x1="-944.26" y1="1855.36" x2="-944.26" y2="1854.56" gradientTransform="translate(60728.65 -281721.77) scale(64 152)" xlink:href="#linear-gradient-8"/><linearGradient id="linear-gradient-19" x1="290.38" y1="229.82" x2="311.41" y2="236.55" gradientTransform="matrix(1, 0, 0, -1, 0, 412)" gradientUnits="userSpaceOnUse"><stop offset="0" stop-color="#292376"/><stop offset="1" stop-color="#5d278f" stop-opacity="0"/></linearGradient><linearGradient id="linear-gradient-20" x1="301.39" y1="230.6" x2="303.78" y2="230.6" gradientTransform="matrix(1, 0, 0, -1, 0, 412)" gradientUnits="userSpaceOnUse"><stop offset="0" stop-color="#d1985c"/><stop offset="1" stop-color="#534741"/></linearGradient><linearGradient id="linear-gradient-21" x1="301.39" y1="232.43" x2="303.93" y2="232.43" gradientTransform="matrix(1, 0, 0, -1, 0, 412)" gradientUnits="userSpaceOnUse"><stop offset="0" stop-color="#5d278f"/><stop offset="1" stop-color="#292376"/></linearGradient><linearGradient id="linear-gradient-22" x1="301.8" y1="231" x2="305.35" y2="231" xlink:href="#linear-gradient-20"/><linearGradient id="linear-gradient-23" x1="296.11" y1="227.6" x2="298.51" y2="227.6" xlink:href="#linear-gradient-20"/><linearGradient id="linear-gradient-24" x1="296.11" y1="229.35" x2="298.66" y2="229.35" xlink:href="#linear-gradient-21"/><linearGradient id="linear-gradient-25" x1="296.36" y1="227.9" x2="300.27" y2="227.9" xlink:href="#linear-gradient-20"/><linearGradient id="linear-gradient-26" x1="278.59" y1="242.39" x2="298.6" y2="235.72" gradientTransform="matrix(1, 0, 0, -1, 0, 412)" gradientUnits="userSpaceOnUse"><stop offset="0" stop-color="#fef100"/><stop offset="1" stop-color="#e3d321"/></linearGradient><linearGradient id="linear-gradient-27" x1="308.82" y1="233.3" x2="283.07" y2="251.13" xlink:href="#linear-gradient-26"/><linearGradient id="linear-gradient-28" x1="298.92" y1="234.94" x2="278.34" y2="243.35" gradientTransform="matrix(1, 0, 0, -1, 0, 412)" gradientUnits="userSpaceOnUse"><stop offset="0" stop-color="#dbf9ea"/><stop offset="0.97" stop-color="#fff"/></linearGradient><linearGradient id="linear-gradient-29" x1="288.75" y1="238.63" x2="291.87" y2="238.63" xlink:href="#linear-gradient-20"/><linearGradient id="linear-gradient-30" x1="288.94" y1="238.89" x2="292.76" y2="238.89" xlink:href="#linear-gradient-20"/><linearGradient id="linear-gradient-31" x1="-859.63" y1="2083.04" x2="-859.63" y2="2082.29" gradientTransform="translate(55268.65 -149677.41) scale(64 72)" gradientUnits="userSpaceOnUse"><stop offset="0" stop-color="#69e0f7"/><stop offset="1" stop-color="#1090f3"/></linearGradient><linearGradient id="linear-gradient-32" x1="-420.87" y1="2331.96" x2="-418.6" y2="2334.42" gradientTransform="translate(2669.45 -86099.78) scale(5.97 37.04)" gradientUnits="userSpaceOnUse"><stop offset="0" stop-color="#1affcf" stop-opacity="0.74"/><stop offset="1" stop-color="#3688df"/></linearGradient><linearGradient id="linear-gradient-33" x1="-479.05" y1="2331.98" x2="-476.78" y2="2334.43" gradientTransform="translate(1588.74 -86099.73) scale(2.99 37.04)" xlink:href="#linear-gradient-32"/><linearGradient id="linear-gradient-34" x1="-420.88" y1="2952.55" x2="-418.61" y2="2955.01" gradientTransform="translate(2669.45 -9878.61) scale(5.97 3.44)" xlink:href="#linear-gradient-32"/><linearGradient id="linear-gradient-35" x1="-418.6" y1="2332.12" x2="-416.33" y2="2334.58" gradientTransform="translate(2698.13 -86153.08) scale(5.97 37.07)" xlink:href="#linear-gradient-32"/><linearGradient id="linear-gradient-36" x1="-475.01" y1="2332.14" x2="-472.74" y2="2334.6" gradientTransform="translate(1613.64 -86147.14) scale(2.97 37.06)" xlink:href="#linear-gradient-32"/><linearGradient id="linear-gradient-37" x1="-368.18" y1="2365.97" x2="-365.91" y2="2368.43" gradientTransform="translate(23063.01 -56821.25) scale(62.32 24.13)" xlink:href="#linear-gradient-32"/><linearGradient id="linear-gradient-38" x1="-368.35" y1="2333.68" x2="-366.08" y2="2336.14" gradientTransform="translate(23063.01 -83807.62) scale(62.32 36.02)" xlink:href="#linear-gradient-32"/><linearGradient id="linear-gradient-39" x1="-422.75" y1="2293.29" x2="-420.48" y2="2295.75" gradientTransform="translate(2651.98 -215238.66) scale(6 93.94)" xlink:href="#linear-gradient-32"/><linearGradient id="linear-gradient-40" x1="-482.99" y1="2293.3" x2="-480.71" y2="2295.75" gradientTransform="translate(1563.72 -215238.6) scale(3 93.94)" xlink:href="#linear-gradient-32"/><linearGradient id="linear-gradient-41" x1="-422.77" y1="2942.16" x2="-420.5" y2="2944.62" gradientTransform="translate(2651.98 -9977.98) scale(6 3.46)" xlink:href="#linear-gradient-32"/><linearGradient id="linear-gradient-42" x1="-629.18" y1="2829.79" x2="-626.9" y2="2832.25" gradientTransform="translate(980.68 -11585.32) scale(1.3 4.19)" xlink:href="#linear-gradient-32"/><linearGradient id="linear-gradient-43" x1="190.73" y1="288.1" x2="214.22" y2="288.1" gradientTransform="matrix(1, 0, 0, -1, 0, 412)" xlink:href="#linear-gradient-8"/><linearGradient id="linear-gradient-44" x1="180.17" y1="269.7" x2="195.69" y2="269.7" gradientTransform="matrix(1, 0, 0, -1, 0, 412)" gradientUnits="userSpaceOnUse"><stop offset="0" stop-color="#330867"/><stop offset="1" stop-color="#30cfd0"/></linearGradient><linearGradient id="linear-gradient-45" x1="143.05" y1="175.77" x2="159.94" y2="175.77" xlink:href="#linear-gradient-44"/><linearGradient id="linear-gradient-46" x1="143.79" y1="171.69" x2="186.76" y2="171.69" xlink:href="#linear-gradient-44"/><linearGradient id="linear-gradient-47" x1="143.29" y1="239.42" x2="189.88" y2="239.42" xlink:href="#linear-gradient-44"/><linearGradient id="linear-gradient-48" x1="177.76" y1="244.38" x2="215.75" y2="244.38" xlink:href="#linear-gradient-44"/><linearGradient id="linear-gradient-49" x1="-373.94" y1="2375.51" x2="-371.66" y2="2377.97" gradientTransform="translate(12031.9 -51680.53) scale(31.88 21.85)" xlink:href="#linear-gradient-32"/><linearGradient id="linear-gradient-50" x1="-373.93" y1="2395.54" x2="-371.66" y2="2397.99" gradientTransform="translate(12031.9 -43868.6) scale(31.88 18.4)" xlink:href="#linear-gradient-32"/><linearGradient id="linear-gradient-51" x1="-631.06" y1="2828.47" x2="-628.79" y2="2830.93" gradientTransform="translate(980.68 -11604.34) scale(1.3 4.19)" xlink:href="#linear-gradient-32"/><linearGradient id="linear-gradient-52" x1="-373.94" y1="2375.55" x2="-371.66" y2="2378.01" gradientTransform="translate(12031.9 -51715.55) scale(31.88 21.87)" xlink:href="#linear-gradient-32"/><linearGradient id="linear-gradient-53" x1="-373.94" y1="2395.55" x2="-371.66" y2="2398.01" gradientTransform="translate(12031.9 -43909.51) scale(31.88 18.43)" xlink:href="#linear-gradient-32"/><linearGradient id="linear-gradient-54" x1="-631.05" y1="2830.9" x2="-628.78" y2="2833.36" gradientTransform="translate(980.68 -11568.46) scale(1.3 4.18)" xlink:href="#linear-gradient-32"/><linearGradient id="linear-gradient-55" x1="-373.94" y1="2375.72" x2="-371.66" y2="2378.18" gradientTransform="translate(12031.9 -51691.49) scale(31.88 21.86)" xlink:href="#linear-gradient-32"/><linearGradient id="linear-gradient-56" x1="-373.93" y1="2395.81" x2="-371.66" y2="2398.27" gradientTransform="translate(12031.9 -43867.73) scale(31.88 18.41)" xlink:href="#linear-gradient-32"/><linearGradient id="linear-gradient-57" x1="-631.06" y1="2830.54" x2="-628.78" y2="2832.99" gradientTransform="translate(980.68 -11579.85) scale(1.3 4.19)" xlink:href="#linear-gradient-32"/><linearGradient id="linear-gradient-58" x1="-373.93" y1="2375.95" x2="-371.66" y2="2378.41" gradientTransform="translate(12031.9 -51637.9) scale(31.88 21.84)" xlink:href="#linear-gradient-32"/><linearGradient id="linear-gradient-59" x1="-373.93" y1="2395.97" x2="-371.66" y2="2398.42" gradientTransform="translate(12031.9 -43861.4) scale(31.88 18.41)" xlink:href="#linear-gradient-32"/><linearGradient id="linear-gradient-60" x1="-420.98" y1="2293.41" x2="-418.7" y2="2295.87" gradientTransform="translate(2677.85 -215209.21) scale(5.99 93.93)" xlink:href="#linear-gradient-32"/><linearGradient id="linear-gradient-61" x1="-479.6" y1="2293.42" x2="-477.33" y2="2295.87" gradientTransform="translate(1590.53 -215209.21) scale(2.99 93.93)" xlink:href="#linear-gradient-32"/><linearGradient id="linear-gradient-62" x1="-420.97" y1="2950.47" x2="-418.7" y2="2952.93" gradientTransform="translate(2677.85 -9901.25) scale(5.99 3.44)" xlink:href="#linear-gradient-32"/></defs><title>timesheets</title><g id="Layer_2" data-name="Layer 2"><g id="Layer_1-2" data-name="Layer 1"><g id="Items"><path id="_Path_" data-name="&lt;Path&gt;" class="cls-1" d="M345,137.1h-.1a7.57,7.57,0,0,0,.1-1.5,8.07,8.07,0,0,0-8.1-8.1,7.91,7.91,0,0,0-5.2,1.9,6.57,6.57,0,0,0-5.9-3.7,6.5,6.5,0,0,0-6.5,5.7h-.1a9.4,9.4,0,1,0,0,18.8H345a6.66,6.66,0,0,0,6.6-6.6A6.57,6.57,0,0,0,345,137.1Z"/><path id="_Path_2" data-name="&lt;Path&gt;" class="cls-2" d="M78.3,91.5h-.2a12.31,12.31,0,0,0,.2-2A10.5,10.5,0,0,0,67.8,79,10.36,10.36,0,0,0,61,81.5a8.57,8.57,0,0,0-16.2,2.7h-.1a12.2,12.2,0,0,0,0,24.4H78.2a8.6,8.6,0,0,0,8.6-8.6A8.49,8.49,0,0,0,78.3,91.5Z"/><path id="_Path_3" data-name="&lt;Path&gt;" class="cls-3" d="M149.6,47.6h.3a16.28,16.28,0,0,1-.3-3.1,16.77,16.77,0,0,1,16.8-16.8,17,17,0,0,1,10.8,3.9,13.6,13.6,0,0,1,25.7,4.3h.1a19.5,19.5,0,0,1,0,39H149.5a13.65,13.65,0,1,1,.1-27.3Z"/><path class="cls-4" d="M163.1,255.4a4,4,0,0,1-2,3.2L99.3,290.5a1.26,1.26,0,0,1-2-1.2V172a4,4,0,0,1,2-3.2l61.8-31.9a1.26,1.26,0,0,1,2,1.2Z"/><path class="cls-5" d="M163.1,145.2a1.9,1.9,0,0,1-1,1.6l-63.8,33a.63.63,0,0,1-1-.6v-8.3a1.9,1.9,0,0,1,1-1.6l63.8-33a.63.63,0,0,1,1,.6Z"/><polygon class="cls-6" points="90 298 48.8 319.3 48.8 136.1 90 114.8 90 298"/><polygon class="cls-7" points="311.2 17.8 48.8 153.4 48.8 135.5 311.2 0 311.2 17.8"/><path class="cls-8" d="M279,25.6a8.23,8.23,0,0,1-4,6.5c-2.2,1.1-4,.1-4-2.3a8.23,8.23,0,0,1,4-6.5C277.2,22.1,279,23.2,279,25.6Z"/><g class="cls-9"><path class="cls-10" d="M262.8,34.7,259,36.6c-.3.2-.6-.1-.6-.4a1.33,1.33,0,0,1,.6-1l3.8-1.9c.3-.2.6.1.6.4A1.52,1.52,0,0,1,262.8,34.7Z"/><path class="cls-10" d="M260.6,37.7c-.3.2-1,.2-1-.1V33.4c0-.4.7-1,1-1.2s1-.2,1,.1v4.2C261.6,36.9,260.9,37.5,260.6,37.7Z"/></g><path class="cls-11" d="M299.6,15.7l-15.8,8.2c-.5.3-.9.3-.9-.3s.4-.9.9-1.2l15.8-8.2c.5-.3.9-.3.9.3A1.53,1.53,0,0,1,299.6,15.7Z"/><path class="cls-10" d="M73.6,132.4l-17.4,9c-.5.3-.9.3-.9-.3a1.53,1.53,0,0,1,.9-1.2l17.4-9c.5-.3.9-.3.9.3A1.53,1.53,0,0,1,73.6,132.4Z"/><g class="cls-9"><path class="cls-10" d="M140,97.4a7.91,7.91,0,0,1-4,6.4l-32.8,16.9c-2.2,1.1-4,.1-4-2.3v-.1a7.91,7.91,0,0,1,4-6.4L136,95c2.3-1.2,4-.1,4,2.4Z"/></g><g class="cls-9"><path class="cls-12" d="M57.5,211a3,3,0,0,1-1.5,2.4,1,1,0,0,1-1.5-.9,3,3,0,0,1,1.5-2.4A1,1,0,0,1,57.5,211Z"/><path class="cls-12" d="M81.9,198.7,61.3,209.3c-.5.3-.9.3-.9-.3a1.53,1.53,0,0,1,.9-1.2l20.6-10.6c.5-.3.9-.3.9.3A1.29,1.29,0,0,1,81.9,198.7Z"/></g><g class="cls-9"><path class="cls-12" d="M57.5,226.7a3,3,0,0,1-1.5,2.4,1,1,0,0,1-1.5-.9,3,3,0,0,1,1.5-2.4A1,1,0,0,1,57.5,226.7Z"/><path class="cls-12" d="M81.9,214.8,61.3,225.4c-.5.3-.9.3-.9-.3s.4-.9.9-1.2l20.6-10.6c.5-.3.9-.3.9.3A1.53,1.53,0,0,1,81.9,214.8Z"/></g><g class="cls-9"><path class="cls-12" d="M57.5,242.4a3,3,0,0,1-1.5,2.4,1,1,0,0,1-1.5-.9,3,3,0,0,1,1.5-2.4A1,1,0,0,1,57.5,242.4Z"/><path class="cls-12" d="M81.9,230.8,61.3,241.4c-.5.3-.9-.1-.9-.6a2.2,2.2,0,0,1,.9-1.6l20.6-10.6c.5-.3.9.1.9.6A2.2,2.2,0,0,1,81.9,230.8Z"/></g><g class="cls-9"><path class="cls-12" d="M57.5,258.1a3,3,0,0,1-1.5,2.4,1,1,0,0,1-1.5-.9,3,3,0,0,1,1.5-2.4A1,1,0,0,1,57.5,258.1Z"/><path class="cls-12" d="M81.9,246.1,61.3,256.7c-.5.3-.9.3-.9-.3a1.53,1.53,0,0,1,.9-1.2l20.6-10.6c.5-.3.9-.3.9.3A1.53,1.53,0,0,1,81.9,246.1Z"/></g><g class="cls-9"><path class="cls-12" d="M57.5,273.8a3,3,0,0,1-1.5,2.4,1,1,0,0,1-1.5-.9,3,3,0,0,1,1.5-2.4A1,1,0,0,1,57.5,273.8Z"/><path class="cls-12" d="M81.9,262.1,61.3,272.7c-.5.3-.9-.1-.9-.6a2.2,2.2,0,0,1,.9-1.6l20.6-10.6c.5-.3.9.1.9.6A2,2,0,0,1,81.9,262.1Z"/></g><g class="cls-9"><path class="cls-12" d="M57.5,289.6A3,3,0,0,1,56,292a1,1,0,0,1-1.5-.9,3,3,0,0,1,1.5-2.4C56.8,288.3,57.5,288.6,57.5,289.6Z"/><path class="cls-12" d="M81.9,277.4,61.3,288c-.5.3-.9.3-.9-.3a1.53,1.53,0,0,1,.9-1.2l20.6-10.6c.5-.3.9-.3.9.3A1.29,1.29,0,0,1,81.9,277.4Z"/></g><g class="cls-9"><path class="cls-12" d="M57.5,179.6A3,3,0,0,1,56,182a1,1,0,0,1-1.5-.9,3,3,0,0,1,1.5-2.4A1,1,0,0,1,57.5,179.6Z"/><path class="cls-12" d="M81.9,168.2,61.3,178.8c-.5.3-.9-.1-.9-.6a2.2,2.2,0,0,1,.9-1.6L81.9,166c.5-.3.9.1.9.6A2.2,2.2,0,0,1,81.9,168.2Z"/></g><g class="cls-9"><path class="cls-12" d="M57.5,163.9a3,3,0,0,1-1.5,2.4,1,1,0,0,1-1.5-.9A3,3,0,0,1,56,163C56.9,162.6,57.5,163,57.5,163.9Z"/><path class="cls-12" d="M81.9,152.1,61.3,162.7c-.5.3-.9-.1-.9-.6a2.2,2.2,0,0,1,.9-1.6l20.6-10.6c.5-.3.9.1.9.6A1.89,1.89,0,0,1,81.9,152.1Z"/></g><path class="cls-13" d="M182.5,98a6,6,0,0,1-3,4.9c-1.7.9-3,.1-3-1.8a6,6,0,0,1,3-4.9C181.1,95.4,182.5,96.2,182.5,98Z"/><path class="cls-10" d="M104.3,117.4c-.7.4-1.3,0-1.3-.8a2.85,2.85,0,0,1,1.3-2.2c.7-.4,1.3,0,1.3.8A2.85,2.85,0,0,1,104.3,117.4Zm0-2.3a1.52,1.52,0,0,0-.7,1.2c0,.4.3.7.7.4a1.52,1.52,0,0,0,.7-1.2C105,115.1,104.7,114.9,104.3,115.1Z"/><path class="cls-14" d="M224.6,76.9l-36,18.6c-.5.3-.9-.1-.9-.6a2.2,2.2,0,0,1,.9-1.6l36-18.6c.5-.3.9.1.9.6A1.89,1.89,0,0,1,224.6,76.9Z"/><path class="cls-14" d="M134.3,138.9l-36,18.6c-.5.3-.9-.1-.9-.6a2.2,2.2,0,0,1,.9-1.6l36-18.6c.5-.3.9.1.9.6A2,2,0,0,1,134.3,138.9Z"/><g class="cls-15"><path class="cls-12" d="M104.4,171.6a3,3,0,0,1-1.5,2.4,1,1,0,0,1-1.5-.9,3,3,0,0,1,1.5-2.4A1,1,0,0,1,104.4,171.6Z"/><path class="cls-12" d="M144.4,151.9l-36,18.6c-.5.3-.9-.1-.9-.6a2.2,2.2,0,0,1,.9-1.6l36-18.6c.5-.3.9.1.9.6A1.89,1.89,0,0,1,144.4,151.9Z"/></g><path class="cls-16" d="M163.1,112.2a1.9,1.9,0,0,1-1,1.6l-63.8,33a.63.63,0,0,1-1-.6v-8.3a1.9,1.9,0,0,1,1-1.6l63.8-33a.63.63,0,0,1,1,.6Z"/><g class="cls-15"><path class="cls-12" d="M104.4,138.4a3,3,0,0,1-1.5,2.4,1,1,0,0,1-1.5-.9,3,3,0,0,1,1.5-2.4A1,1,0,0,1,104.4,138.4Z"/><path class="cls-12" d="M144.4,118.4l-36,18.6c-.5.3-.9-.1-.9-.6a2.2,2.2,0,0,1,.9-1.6l36-18.6c.5-.3.9.1.9.6A2,2,0,0,1,144.4,118.4Z"/></g><g class="cls-15"><path class="cls-17" d="M115.6,194.7a7.26,7.26,0,0,1-3.6,5.9c-2,1-3.6.1-3.6-2.1a7.26,7.26,0,0,1,3.6-5.9C114,191.6,115.6,192.5,115.6,194.7Z"/><path class="cls-17" d="M135.5,182.7l-14,7.3c-.5.3-.9-.1-.9-.6a2.2,2.2,0,0,1,.9-1.6l14-7.3c.5-.3.9.1.9.6A1.89,1.89,0,0,1,135.5,182.7Z"/><path class="cls-17" d="M151.3,178.9l-29.9,15.4c-.5.3-.9.3-.9-.3a1.53,1.53,0,0,1,.9-1.2l29.9-15.4c.5-.3.9-.3.9.3A1.29,1.29,0,0,1,151.3,178.9Z"/></g><g class="cls-15"><path class="cls-18" d="M115.6,179.1A7.26,7.26,0,0,1,112,185c-2,1-3.6.1-3.6-2.1A7.26,7.26,0,0,1,112,177C113.9,175.9,115.6,176.9,115.6,179.1Z"/><path class="cls-12" d="M135.5,167.4l-14,7.3c-.5.3-.9-.1-.9-.6a2.2,2.2,0,0,1,.9-1.6l14-7.3c.5-.3.9.1.9.6A1.89,1.89,0,0,1,135.5,167.4Z"/><path class="cls-12" d="M151.3,163.6,121.4,179c-.5.3-.9.3-.9-.3s.4-.9.9-1.2l29.9-15.4c.5-.3.9-.3.9.3A1.29,1.29,0,0,1,151.3,163.6Z"/></g><g class="cls-15"><path class="cls-17" d="M115.6,225.9a7.26,7.26,0,0,1-3.6,5.9c-2,1-3.6.1-3.6-2.1a7.26,7.26,0,0,1,3.6-5.9C114,222.8,115.6,223.7,115.6,225.9Z"/><path class="cls-17" d="M135.5,214l-14,7.3c-.5.3-.9-.1-.9-.6a2.2,2.2,0,0,1,.9-1.6l14-7.3c.5-.3.9.1.9.6A1.89,1.89,0,0,1,135.5,214Z"/><path class="cls-17" d="M151.3,210.2l-29.9,15.4c-.5.3-.9.3-.9-.3a1.53,1.53,0,0,1,.9-1.2l29.9-15.4c.5-.3.9-.3.9.3A1.29,1.29,0,0,1,151.3,210.2Z"/></g><g class="cls-15"><path class="cls-19" d="M115.6,210.3a7.26,7.26,0,0,1-3.6,5.9c-2,1-3.6.1-3.6-2.1a7.26,7.26,0,0,1,3.6-5.9C113.9,207.1,115.6,208.1,115.6,210.3Z"/><path class="cls-12" d="M135.5,198.7l-14,7.3c-.5.3-.9-.1-.9-.6a2.2,2.2,0,0,1,.9-1.6l14-7.3c.5-.3.9.1.9.6A1.89,1.89,0,0,1,135.5,198.7Z"/><path class="cls-12" d="M151.3,194.9l-29.9,15.4c-.5.3-.9-.1-.9-.6a2.2,2.2,0,0,1,.9-1.6l29.9-15.4c.5-.3.9.1.9.6A2,2,0,0,1,151.3,194.9Z"/></g><g class="cls-15"><path class="cls-17" d="M115.6,257.2a7.26,7.26,0,0,1-3.6,5.9c-2,1-3.6.1-3.6-2.1a7.26,7.26,0,0,1,3.6-5.9C114,254.1,115.6,255,115.6,257.2Z"/><path class="cls-17" d="M135.5,245.4l-14,7.3c-.5.3-.9-.1-.9-.6a2.2,2.2,0,0,1,.9-1.6l14-7.3c.5-.3.9.1.9.6A2.2,2.2,0,0,1,135.5,245.4Z"/><path class="cls-17" d="M151.3,241.6,121.4,257c-.5.3-.9-.1-.9-.6a2.2,2.2,0,0,1,.9-1.6l29.9-15.4c.5-.3.9.1.9.6A2.2,2.2,0,0,1,151.3,241.6Z"/></g><g class="cls-15"><path class="cls-18" d="M115.6,241.6a7.26,7.26,0,0,1-3.6,5.9c-2,1-3.6.1-3.6-2.1a7.26,7.26,0,0,1,3.6-5.9C113.9,238.4,115.6,239.3,115.6,241.6Z"/><path class="cls-12" d="M135.5,230.1l-14,7.3c-.5.3-.9-.1-.9-.6a2.2,2.2,0,0,1,.9-1.6l14-7.3c.5-.3.9.1.9.6A2,2,0,0,1,135.5,230.1Z"/><path class="cls-12" d="M151.3,226.3l-29.9,15.4c-.5.3-.9-.1-.9-.6a2.2,2.2,0,0,1,.9-1.6l29.9-15.4c.5-.3.9.1.9.6A2.2,2.2,0,0,1,151.3,226.3Z"/></g><g class="cls-15"><path class="cls-12" d="M250.7,62.8a3,3,0,0,1-1.5,2.4,1,1,0,0,1-1.5-.9,3,3,0,0,1,1.5-2.4A1,1,0,0,1,250.7,62.8Z"/><path class="cls-12" d="M260.4,56.3l-4.2,2.1c-.5.3-.9-.1-.9-.6a2.2,2.2,0,0,1,.9-1.6l4.2-2.1c.5-.3.9.1.9.6A2,2,0,0,1,260.4,56.3Z"/><path class="cls-12" d="M265.2,58.2l-8.9,4.6c-.5.3-.9.3-.9-.3a1.53,1.53,0,0,1,.9-1.2l8.9-4.6c.5-.3.9-.3.9.3A1.53,1.53,0,0,1,265.2,58.2Z"/></g><g class="cls-15"><path class="cls-12" d="M277.4,49.1a3,3,0,0,1-1.5,2.4,1,1,0,0,1-1.5-.9,3,3,0,0,1,1.5-2.4A1,1,0,0,1,277.4,49.1Z"/><path class="cls-12" d="M287.1,42.5l-4.2,2.1c-.5.3-.9-.1-.9-.6a2.2,2.2,0,0,1,.9-1.6l4.2-2.1c.5-.3.9.1.9.6A2,2,0,0,1,287.1,42.5Z"/><path class="cls-12" d="M291.9,44.4,283,49c-.5.3-.9.3-.9-.3a1.53,1.53,0,0,1,.9-1.2l8.9-4.6c.5-.3.9-.3.9.3A1.29,1.29,0,0,1,291.9,44.4Z"/></g><path class="cls-20" d="M82,185.5a7.91,7.91,0,0,1-4,6.4L58.5,202c-2.2,1.1-4,.1-4-2.3v-.1a7.91,7.91,0,0,1,4-6.4L78,183.1c2.2-1.2,4-.1,4,2.4Z"/><path class="cls-10" d="M60.5,196.4a3,3,0,0,1-1.5,2.4,1,1,0,0,1-1.5-.9,3,3,0,0,1,1.5-2.4C59.9,195.1,60.5,195.5,60.5,196.4Z"/><path class="cls-10" d="M77.6,188.6l-14.1,7.3c-.5.3-.9-.1-.9-.6a2.2,2.2,0,0,1,.9-1.6l14.1-7.3c.5-.3.9.1.9.6A2,2,0,0,1,77.6,188.6Z"/><polygon class="cls-14" points="154.7 126.2 156 125.5 155.3 127 154.7 128.5 154 127.7 153.4 126.9 154.7 126.2"/><path class="cls-21" d="M301.8,73.6a1.9,1.9,0,0,1-1,1.6L177.7,138.8a.63.63,0,0,1-1-.6v-8.3a1.9,1.9,0,0,1,1-1.6L300.8,64.7a.63.63,0,0,1,1,.6Z"/><path class="cls-22" d="M301.8,104.2a1.9,1.9,0,0,1-1,1.6L177.7,169.4a.63.63,0,0,1-1-.6V156.1a1.9,1.9,0,0,1,1-1.6L300.8,90.9a.63.63,0,0,1,1,.6Z"/><path class="cls-23" d="M301.8,135.4a1.9,1.9,0,0,1-1,1.6L177.7,200.6a.63.63,0,0,1-1-.6V187.3a1.9,1.9,0,0,1,1-1.6l123.1-63.6a.63.63,0,0,1,1,.6Z"/><path class="cls-24" d="M301.8,166.5a1.9,1.9,0,0,1-1,1.6L177.7,231.7a.63.63,0,0,1-1-.6V218.4a1.9,1.9,0,0,1,1-1.6l123.1-63.6a.63.63,0,0,1,1,.6Z"/><path class="cls-25" d="M278.4,94.7a3.34,3.34,0,0,1-1.5,2.5,1,1,0,0,1-1.5-.9,3.34,3.34,0,0,1,1.5-2.5A1,1,0,0,1,278.4,94.7Z"/><path class="cls-25" d="M278.4,110.4a3.34,3.34,0,0,1-1.5,2.5,1,1,0,0,1-1.5-.9,3.34,3.34,0,0,1,1.5-2.5C277.7,109,278.4,109.4,278.4,110.4Z"/><path class="cls-25" d="M278.4,126a3.34,3.34,0,0,1-1.5,2.5,1,1,0,0,1-1.5-.9,3.34,3.34,0,0,1,1.5-2.5A1,1,0,0,1,278.4,126Z"/><path class="cls-25" d="M278.5,141.6a3.34,3.34,0,0,1-1.5,2.5,1,1,0,0,1-1.5-.9,3.34,3.34,0,0,1,1.5-2.5A1,1,0,0,1,278.5,141.6Z"/><path class="cls-25" d="M278.4,157.3a3.34,3.34,0,0,1-1.5,2.5c-.8.5-1.5,0-1.5-.9a3.34,3.34,0,0,1,1.5-2.5C277.7,155.9,278.4,156.4,278.4,157.3Z"/><path class="cls-25" d="M278.4,173a3.34,3.34,0,0,1-1.5,2.5c-.8.5-1.5,0-1.5-.9a3.34,3.34,0,0,1,1.5-2.5C277.7,171.6,278.4,172,278.4,173Z"/><path class="cls-14" d="M184.1,158.6a3,3,0,0,1-1.5,2.4,1,1,0,0,1-1.5-.9,3,3,0,0,1,1.5-2.4A1,1,0,0,1,184.1,158.6Z"/><path class="cls-14" d="M193.8,151.9l-4.2,2.1c-.5.3-.9.3-.9-.3s.4-.9.9-1.2l4.2-2.1c.5-.3.9-.3.9.3A1.53,1.53,0,0,1,193.8,151.9Z"/><path class="cls-26" d="M198.5,154.5l-8.9,4.6c-.5.3-.9-.1-.9-.6a2.2,2.2,0,0,1,.9-1.6l8.9-4.6c.5-.3.9.1.9.6A1.89,1.89,0,0,1,198.5,154.5Z"/><path class="cls-14" d="M184.1,142.9a3,3,0,0,1-1.5,2.4,1,1,0,0,1-1.5-.9,3,3,0,0,1,1.5-2.4A1,1,0,0,1,184.1,142.9Z"/><path class="cls-14" d="M193.8,136.6l-4.2,2.1c-.5.3-.9-.1-.9-.6a2.2,2.2,0,0,1,.9-1.6l4.2-2.1c.5-.3.9.1.9.6A2,2,0,0,1,193.8,136.6Z"/><path class="cls-26" d="M198.5,138.5l-8.9,4.6c-.5.3-.9-.1-.9-.6a2.2,2.2,0,0,1,.9-1.6l8.9-4.6c.5-.3.9.1.9.6A2,2,0,0,1,198.5,138.5Z"/><path class="cls-14" d="M184.1,174.2a3,3,0,0,1-1.5,2.4,1,1,0,0,1-1.5-.9,3,3,0,0,1,1.5-2.4A1,1,0,0,1,184.1,174.2Z"/><path class="cls-14" d="M193.8,167.9l-4.2,2.1c-.5.3-.9-.1-.9-.6a2.2,2.2,0,0,1,.9-1.6l4.2-2.1c.5-.3.9.1.9.6A2,2,0,0,1,193.8,167.9Z"/><path class="cls-26" d="M198.5,169.8l-8.9,4.6c-.5.3-.9-.1-.9-.6a2.2,2.2,0,0,1,.9-1.6l8.9-4.6c.5-.3.9.1.9.6A1.89,1.89,0,0,1,198.5,169.8Z"/><path class="cls-14" d="M184.1,189.9a3,3,0,0,1-1.5,2.4,1,1,0,0,1-1.5-.9,3,3,0,0,1,1.5-2.4C183.4,188.6,184.1,188.9,184.1,189.9Z"/><path class="cls-14" d="M193.8,183.2l-4.2,2.1c-.5.3-.9.3-.9-.3a1.53,1.53,0,0,1,.9-1.2l4.2-2.1c.5-.3.9-.3.9.3S194.3,182.9,193.8,183.2Z"/><path class="cls-26" d="M198.5,185.8l-8.9,4.6c-.5.3-.9-.1-.9-.6a2.2,2.2,0,0,1,.9-1.6l8.9-4.6c.5-.3.9.1.9.6A2,2,0,0,1,198.5,185.8Z"/><path class="cls-14" d="M184.1,205.5a3,3,0,0,1-1.5,2.4,1,1,0,0,1-1.5-.9,3,3,0,0,1,1.5-2.4A1,1,0,0,1,184.1,205.5Z"/><path class="cls-14" d="M193.8,199.2l-4.2,2.1c-.5.3-.9-.1-.9-.6a2.2,2.2,0,0,1,.9-1.6l4.2-2.1c.5-.3.9.1.9.6A1.89,1.89,0,0,1,193.8,199.2Z"/><path class="cls-26" d="M198.5,201.1l-8.9,4.6c-.5.3-.9-.1-.9-.6a2.2,2.2,0,0,1,.9-1.6l8.9-4.6c.5-.3.9.1.9.6A1.89,1.89,0,0,1,198.5,201.1Z"/><path class="cls-14" d="M184.1,221.2a3,3,0,0,1-1.5,2.4,1,1,0,0,1-1.5-.9,3,3,0,0,1,1.5-2.4C183.4,219.9,184.1,220.2,184.1,221.2Z"/><path class="cls-14" d="M193.8,214.5l-4.2,2.1c-.5.3-.9-.1-.9-.6a2.2,2.2,0,0,1,.9-1.6l4.2-2.1c.5-.3.9.1.9.6A2,2,0,0,1,193.8,214.5Z"/><path class="cls-26" d="M198.5,217.2l-8.9,4.6c-.5.3-.9-.1-.9-.6a2.2,2.2,0,0,1,.9-1.6l8.9-4.6c.5-.3.9.1.9.6A2.2,2.2,0,0,1,198.5,217.2Z"/><g class="cls-15"><path class="cls-12" d="M184.1,130.4a3,3,0,0,1-1.5,2.4,1,1,0,0,1-1.5-.9,3,3,0,0,1,1.5-2.4A1,1,0,0,1,184.1,130.4Z"/><path class="cls-12" d="M205.7,120.2l-17.8,9.2c-.5.3-.9-.1-.9-.6a2.2,2.2,0,0,1,.9-1.6l17.8-9.2c.5-.3.9.1.9.6A1.89,1.89,0,0,1,205.7,120.2Z"/></g><path class="cls-14" d="M280.2,81.7l-9.7,5c-.5.3-.9-.1-.9-.6a2.2,2.2,0,0,1,.9-1.6l9.7-5c.5-.3.9.1.9.6A1.89,1.89,0,0,1,280.2,81.7Z"/><g class="cls-15"><path class="cls-12" d="M261.2,91.6l-9.7,5c-.5.3-.9-.1-.9-.6a2.2,2.2,0,0,1,.9-1.6l9.7-5c.5-.3.9.1.9.6A2.2,2.2,0,0,1,261.2,91.6Z"/><path class="cls-12" d="M242.2,101.4l-9.7,5c-.5.3-.9-.1-.9-.6a2.2,2.2,0,0,1,.9-1.6l9.7-5c.5-.3.9.1.9.6A2.2,2.2,0,0,1,242.2,101.4Z"/><path class="cls-12" d="M223.3,111.2l-9.7,5c-.5.3-.9-.1-.9-.6a2.2,2.2,0,0,1,.9-1.6l9.7-5c.5-.3.9.1.9.6A2.36,2.36,0,0,1,223.3,111.2Z"/></g><g class="cls-15"><path class="cls-12" d="M261.2,106.1l-9.7,5c-.5.3-.9.3-.9-.3a1.53,1.53,0,0,1,.9-1.2l9.7-5c.5-.3.9-.3.9.3A1.29,1.29,0,0,1,261.2,106.1Z"/><path class="cls-12" d="M242.2,115.9l-9.7,5c-.5.3-.9.3-.9-.3a1.53,1.53,0,0,1,.9-1.2l9.7-5c.5-.3.9-.3.9.3A1.29,1.29,0,0,1,242.2,115.9Z"/><path class="cls-12" d="M223.3,125.7l-9.7,5c-.5.3-.9.3-.9-.3a1.53,1.53,0,0,1,.9-1.2l9.7-5c.5-.3.9-.3.9.3A1.44,1.44,0,0,1,223.3,125.7Z"/></g><g class="cls-15"><path class="cls-12" d="M261.2,121.4l-9.7,5c-.5.3-.9-.1-.9-.6a2.2,2.2,0,0,1,.9-1.6l9.7-5c.5-.3.9.1.9.6A2,2,0,0,1,261.2,121.4Z"/><path class="cls-12" d="M242.2,131.2l-9.7,5c-.5.3-.9-.1-.9-.6a2.2,2.2,0,0,1,.9-1.6l9.7-5c.5-.3.9.1.9.6A1.89,1.89,0,0,1,242.2,131.2Z"/><path class="cls-12" d="M223.3,141l-9.7,5c-.5.3-.9-.1-.9-.6a2.2,2.2,0,0,1,.9-1.6l9.7-5c.5-.3.9.1.9.6S223.8,140.8,223.3,141Z"/></g><g class="cls-15"><path class="cls-12" d="M261.2,136.7l-9.7,5c-.5.3-.9-.1-.9-.6a2.2,2.2,0,0,1,.9-1.6l9.7-5c.5-.3.9.1.9.6A1.89,1.89,0,0,1,261.2,136.7Z"/><path class="cls-12" d="M242.2,146.5l-9.7,5c-.5.3-.9-.1-.9-.6a2.2,2.2,0,0,1,.9-1.6l9.7-5c.5-.3.9.1.9.6A1.89,1.89,0,0,1,242.2,146.5Z"/><path class="cls-12" d="M223.3,156.3l-9.7,5c-.5.3-.9-.1-.9-.6a2.2,2.2,0,0,1,.9-1.6l9.7-5c.5-.3.9.1.9.6S223.8,156.1,223.3,156.3Z"/></g><g class="cls-15"><path class="cls-12" d="M261.2,152l-9.7,5c-.5.3-.9-.1-.9-.6a2.2,2.2,0,0,1,.9-1.6l9.7-5c.5-.3.9.1.9.6A1.89,1.89,0,0,1,261.2,152Z"/><path class="cls-12" d="M242.2,161.8l-9.7,5c-.5.3-.9-.1-.9-.6a2.2,2.2,0,0,1,.9-1.6l9.7-5c.5-.3.9.1.9.6A1.89,1.89,0,0,1,242.2,161.8Z"/><path class="cls-12" d="M223.3,171.6l-9.7,5c-.5.3-.9-.1-.9-.6a2.2,2.2,0,0,1,.9-1.6l9.7-5c.5-.3.9.1.9.6A2,2,0,0,1,223.3,171.6Z"/></g><g class="cls-15"><path class="cls-12" d="M261.2,167.3l-9.7,5c-.5.3-.9-.1-.9-.6a2.2,2.2,0,0,1,.9-1.6l9.7-5c.5-.3.9.1.9.6A1.89,1.89,0,0,1,261.2,167.3Z"/><path class="cls-12" d="M242.2,177.1l-9.7,5c-.5.3-.9-.1-.9-.6a2.2,2.2,0,0,1,.9-1.6l9.7-5c.5-.3.9.1.9.6A2,2,0,0,1,242.2,177.1Z"/><path class="cls-12" d="M223.3,186.9l-9.7,5c-.5.3-.9-.1-.9-.6a2.2,2.2,0,0,1,.9-1.6l9.7-5c.5-.3.9.1.9.6S223.8,186.7,223.3,186.9Z"/></g><g class="cls-15"><path class="cls-12" d="M261.2,181.9l-9.7,5c-.5.3-.9.3-.9-.3s.4-.9.9-1.2l9.7-5c.5-.3.9-.3.9.3S261.7,181.6,261.2,181.9Z"/><path class="cls-12" d="M242.2,191.7l-9.7,5c-.5.3-.9.3-.9-.3a1.53,1.53,0,0,1,.9-1.2l9.7-5c.5-.3.9-.3.9.3A1.53,1.53,0,0,1,242.2,191.7Z"/><path class="cls-12" d="M223.3,201.5l-9.7,5c-.5.3-.9.3-.9-.3a1.53,1.53,0,0,1,.9-1.2l9.7-5c.5-.3.9-.3.9.3A1.78,1.78,0,0,1,223.3,201.5Z"/></g><polygon class="cls-27" points="164.8 375.5 165.8 380.3 103.9 390.9 41.9 401.6 102.9 386.2 163.8 370.8 164.8 375.5"/><polygon class="cls-28" points="122.8 346.5 123.8 351.3 61.9 361.9 0 372.5 60.9 357.1 121.8 341.7 122.8 346.5"/><polygon class="cls-29" points="163.2 323.8 164.3 328.6 102.3 339.2 40.4 349.9 101.3 334.5 162.2 319.1 163.2 323.8"/><polygon class="cls-30" points="208.2 347.7 209.2 352.5 147.2 363.1 85.3 373.8 146.2 358.4 207.1 343 208.2 347.7"/><polygon class="cls-31" points="298.3 293.1 67.7 335.6 193.9 300.8 318.1 261.4 298.3 293.1"/><g id="Chart"><polygon id="Path-2" class="cls-32" points="295.8 167.7 322.3 180.9 322.3 280.4 295.8 293.6 269.3 280.4 269.3 180.9 295.8 167.7"/><polygon id="Path-2-2" data-name="Path-2" class="cls-33" points="295.8 167.7 322.3 180.9 295.8 194.2 269.3 180.9 295.8 167.7"/></g><g id="Alarm_Clock" data-name="Alarm Clock"><path class="cls-34" d="M307.9,181.9l-6.3,3.7a2.44,2.44,0,0,1-2.6,0l-12.6-7.3,6.1-3.5a15.17,15.17,0,0,1,15.4,0h0A4.12,4.12,0,0,1,307.9,181.9Z"/><path class="cls-35" d="M303.6,181.9c.3.5.2,1-.1,1.1a1.09,1.09,0,0,1-.5-.1,2.17,2.17,0,0,1-.6-.7l-1.1-2.2a3,3,0,0,0,1.3-.2Z"/><path class="cls-36" d="M301.4,180l1.3-.7a3,3,0,0,0,1.3-.2l-1.3.7A2,2,0,0,1,301.4,180Z"/><path class="cls-37" d="M304.9,181.1l-1-2-1.3.7,1,2c.2.5.2.9-.1,1.1l1.3-.7C305.1,182.1,305.1,181.6,304.9,181.1Z"/><path class="cls-38" d="M298.3,184.9c.3.5.2,1-.1,1.1a1.09,1.09,0,0,1-.5-.1,2.17,2.17,0,0,1-.6-.7L296,183a3,3,0,0,0,1.3-.2Z"/><path class="cls-39" d="M296.1,183.1l1.3-.7a3,3,0,0,0,1.3-.2l-1.3.7A2.74,2.74,0,0,1,296.1,183.1Z"/><path class="cls-40" d="M299.6,184.2l-1-2-1.3.7,1,2c.2.5.2.9-.1,1.1l1.3-.7C299.8,185.1,299.9,184.7,299.6,184.2Z"/><path class="cls-41" d="M286.5,162.6c5.6,0,12.2,8.5,12.2,15.8,0,3.2-1.5,6-4.7,6-5.6,0-12.2-8.5-12.2-15.8C281.8,165.3,283.3,162.6,286.5,162.6Z"/><path class="cls-42" d="M307.8,173c0-7.3-6.7-15.8-12.2-15.8a4,4,0,0,0-2.2.6l-9.1,5.3a4,4,0,0,1,2.2-.6c5.6,0,12.2,8.5,12.2,15.8,0,2.1-.6,4.4-2.5,5.5l9.1-5.3C307.2,177.4,307.8,175.2,307.8,173Z"/><g class="cls-43"><path class="cls-44" d="M290.9,166.2c0,.3-.1.4-.3.4a.37.37,0,0,1-.3-.1h-.1a1.33,1.33,0,0,1-.6-1h0a6,6,0,0,0-2.4-.6c-2,0-3.4,1.5-3.7,4.1a1.33,1.33,0,0,1,.6,1h0v.1c0,.3-.1.4-.3.4a.37.37,0,0,1-.3-.1,15.13,15.13,0,0,0,6,10.4c0-.3.1-.4.3-.4a.37.37,0,0,1,.3.1h.1a1.33,1.33,0,0,1,.6,1h0a6,6,0,0,0,2.4.6c2,0,3.4-1.5,3.7-4.1a1.33,1.33,0,0,1-.6-1h0v-.1c0-.3.1-.4.3-.4a.37.37,0,0,1,.3.1,15.13,15.13,0,0,0-6-10.4"/></g><g class="cls-43"><path class="cls-45" d="M289.4,168.7a1.33,1.33,0,0,1,.6,1V174l1.8,3.1a.89.89,0,0,1,0,1c-.1.1-.3,0-.4,0a.78.78,0,0,1-.4-.4l-1.9-3.4a1.42,1.42,0,0,1-.2-.6v-4.6C288.8,168.6,289,168.5,289.4,168.7Z"/><path class="cls-46" d="M292.6,176.6l-1.8-3.1v-4.3a1.33,1.33,0,0,0-.6-1c-.2-.1-.3-.1-.4,0l-.9.5a.3.3,0,0,1,.4,0,1.33,1.33,0,0,1,.6,1V174l1.8,3.1a.89.89,0,0,1,0,1l.9-.5A.89.89,0,0,0,292.6,176.6Z"/></g></g><g id="Chart-2" data-name="Chart"><polygon id="Path-2-Copy-3" class="cls-47" points="252.4 245.9 277.1 258.2 277.1 289.1 252.4 301.5 227.7 289.1 227.7 258.2 252.4 245.9"/><polygon id="Path-2-Copy-4" class="cls-48" points="252.4 245.9 277.1 258.2 252.4 270.6 227.7 258.2 252.4 245.9"/></g><polygon id="Fill-440" class="cls-49" points="165.6 327.5 161.3 330 156.9 327.5 156.9 276.2 165.6 276.2 165.6 327.5"/><polygon id="Fill-441" class="cls-50" points="161.3 330 156.9 327.5 156.9 276.2 161.3 278.7 161.3 330"/><polygon id="Fill-442" class="cls-51" points="165.6 276.2 161.3 278.7 156.9 276.2 161.3 273.7 165.6 276.2"/><polygon id="Fill-443" class="cls-52" points="210 353.1 205.6 355.6 201.3 353.1 201.3 301.8 210 301.8 210 353.1"/><polygon id="Fill-444" class="cls-53" points="205.6 355.6 201.3 353.1 201.3 301.8 205.6 304.3 205.6 355.6"/><polygon id="Fill-445" class="cls-54" points="210 301.8 205.6 304.3 201.3 301.8 205.6 299.3 210 301.8"/><polygon id="Fill-446" class="cls-55" points="210 301.8 168.2 326 119.5 297.8 119.5 290.9 210 294.9 210 301.8"/><polygon id="Fill-447" class="cls-56" points="210 294.9 168.2 319.1 119.5 290.9 161.2 266.7 210 294.9"/><path id="Fill-454" class="cls-57" d="M127,234c3.8.7-3.9-21.1-3.9-21.1A26.56,26.56,0,0,0,127,234"/><polygon id="Fill-463" class="cls-58" points="123.8 351.6 119.5 354.1 115.1 351.6 115.1 217.7 123.8 217.7 123.8 351.6"/><polygon id="Fill-464" class="cls-59" points="119.5 354.1 115.1 351.6 115.1 217.7 119.5 220.2 119.5 354.1"/><polygon id="Fill-465" class="cls-60" points="123.8 217.7 119.5 220.2 115.1 217.7 119.5 215.2 123.8 217.7"/><polygon id="Fill-477" class="cls-61" points="166.7 275.1 166.7 280.1 164.8 281.2 164.9 276.2 166.7 275.1"/><path class="cls-62" d="M204.8,126.7c-.3,0-7.1,4.2-15.8,4.4l8.1-10.2Z"/><path class="cls-63" d="M189.3,124.3l5.4-4.4a7.19,7.19,0,0,1,1-.6,2.51,2.51,0,0,1,1.9-.1l8.3,2.7-4.2,2.2-4.1-1.5s-.6-.2-1.3.9l-2.1,2.6a2.87,2.87,0,0,0-.2,3.2c.1.2.3.3.4.5l-5.8,1.7-.4-4A3.8,3.8,0,0,1,189.3,124.3Z"/><path class="cls-64" d="M213.1,119.1a41.54,41.54,0,0,1,4.9.3c.1.2-3.9,3.6-3.9,3.6l-1-1.6Z"/><path class="cls-65" d="M213.1,119.1,190.7,125l1,3.7,22.4-5.8s.3-.5-.2-.7c0,0,.4-.5-.2-.7,0,0,.4-.4-.2-.9a.42.42,0,0,0-.1-.7C213.3,119.9,213.6,119.6,213.1,119.1Z"/><path class="cls-63" d="M197.6,129.3a10,10,0,0,0,2.8-2.6l1.9-2.7a1.78,1.78,0,0,1,1.8-.6h.1a2.28,2.28,0,0,1,1.4,1.7v.4a5.48,5.48,0,0,1-.9,1.6l-5.2,7.4a15.64,15.64,0,0,1-2.7,2.7h-.1a10.27,10.27,0,0,1-1.8,1.4c-.1.1-.2.1-.3.2l-.8,1.1h-.1l-5.7-4.4.5-.6c.1-.2.2-.3.2-.5l-.2-2.9,5.4-1.6c.1,0,.3-.1.4-.1S194.9,130.9,197.6,129.3Z"/><path class="cls-66" d="M188.3,125.6l3.1-.8,1,3.7-3.1.8a2,2,0,0,1-2.5-1.3h0A1.86,1.86,0,0,1,188.3,125.6Z"/><path class="cls-67" d="M216.2,119.2a12.1,12.1,0,0,1,1.9.1,16.61,16.61,0,0,1-1.4,1.3Z"/><polygon class="cls-68" points="195.7 140.6 187.9 150.6 183.7 144.8 180.2 143.4 187.1 134 191.1 137 195.7 140.5 195.7 140.6"/><path class="cls-69" d="M173.2,284.7s-.3,6.5.3,8.2,6,4,9.8,2.6,6.2-3.4,7.4-5.2,5.6-4.1,6.6-6.2c1.6-3.2-1.5-5.8-4.3-6.5a10.09,10.09,0,0,0-8.8,2.6C181.7,282.7,173.2,284.7,173.2,284.7Z"/><path class="cls-69" d="M143.8,276.1s-.3,6.5.3,8.2,6,4,9.8,2.6,6.2-3.4,7.4-5.2,5.6-4.1,6.6-6.2c1.6-3.2-1.5-5.8-4.3-6.5a10.09,10.09,0,0,0-8.8,2.6C152.2,274.1,143.8,276.1,143.8,276.1Z"/><path class="cls-70" d="M143.3,194a73.48,73.48,0,0,0,1.1,19.2c1.9,10,.1,57.1-.6,63.3,0,0,5.5,6.8,13.3,0,0-18.1,4.5-49.6,2.3-69.4C157,187.4,143.3,194,143.3,194Z"/><path class="cls-71" d="M143.8,197c.3,1.1,1.5,11.7,17.4,18,8.8,4.5,10,12.3,10.7,19.1s.6,50.6,1.3,51.9,6.2,6.5,13,0c.6-18.8,1-83-.3-90.7C184.6,187.4,142.9,193.4,143.8,197Z"/><path class="cls-72" d="M211.7,157.6s3-4.5,4.2-5.4,10-2.7,10.3-1.2-4.5,3.6-4.5,3.6,9.4,2.1,11.2,4.8-8.8,4.2-11.5,4.2a13.31,13.31,0,0,0-5.7,1.8S208.7,163.7,211.7,157.6Z"/><path class="cls-73" d="M169.3,135.5s13.6,3.9,19,12.5c2.1,3.3,2.3,13.6-.6,20.4s-.1,31-1.1,35.8-14.8,7.3-22.9,6S143,203.4,143.3,194c.8-26.7.8-39.7,1.9-46a20.87,20.87,0,0,1,5.3-10.2S155.1,132.6,169.3,135.5Z"/><path class="cls-74" d="M186,147.1s4.6,2.2,5.9,9,6.2,17.3,6.2,17.3l12.1-14.9a7.74,7.74,0,0,1,5.6,7.2s-12.7,20.9-18.6,22.7-17.1-23.1-19-28.4C176.4,154.9,180.4,144.7,186,147.1Z"/><path class="cls-72" d="M161.5,95.9s7.5-2.2,13.9,1.7,7.3,8.3,7,14.3c-.3,7.6-.2,16.1-2.9,21.9-3.2,6.8-16.8,1.2-20.9-1.5s-8.5-13.4-8-21.6S154,97.4,161.5,95.9Z"/><path class="cls-72" d="M155.7,128.8s3.2,6.4,3.2,8.7,4.9,5.2,11.3,4,6.9-2.6,6.9-2.6-3.2-4.6-4-8.4S155.7,128.8,155.7,128.8Z"/><path class="cls-75" d="M174.7,92.6s2.2.9,6.5,3l4.4,2.2-3.5,3s3.5,1.7,4.4,4.8c.4,1.7-3,.9-3,.9a18.86,18.86,0,0,1,.4,4.8c0,3.5-3,0-7.4-.9,1.3.9,1.7,4.4,1.7,4.4s-6.5-.9-9.6-1.7c.9,1.3,2.2,7.4,2.2,7.4s-3.9-4.8-4.8-1.7,1.3,8.3,3.9,7.8l1.7-.4s-.9,3.9-3.9,5.7-8.7,2.6-8.7,2.6-8.3-8.7-9.1-10.4-3.9-7.8-3.9-13.9,4.4-10.9,4.4-10.9a13.67,13.67,0,0,1,2.2-4.8c1.7-2.6,9.6-1.7,10.9-2.2a61.43,61.43,0,0,0,6.1-3.9l.4,4.4,6.5-2.6Z"/><polygon id="Fill-466" class="cls-76" points="164.3 250.7 162.4 256.8 118 231.1 118 226.1 119.8 225 164.3 250.7"/><polygon id="Fill-467" class="cls-77" points="164.3 250.7 162.4 251.8 118 226.1 119.8 225 164.3 250.7"/><polygon id="Fill-468" class="cls-78" points="164.3 250.7 164.3 255.7 162.4 256.8 162.4 251.8 164.3 250.7"/><polygon id="Fill-469" class="cls-79" points="164.3 259.9 162.4 266 118 240.3 118 235.3 119.8 234.2 164.3 259.9"/><polygon id="Fill-470" class="cls-80" points="164.3 259.9 162.4 261 118 235.3 119.8 234.2 164.3 259.9"/><polygon id="Fill-471" class="cls-81" points="164.3 259.9 164.3 264.9 162.4 266 162.4 261 164.3 259.9"/><polygon id="Fill-472" class="cls-82" points="164.3 269.1 162.4 275.2 118 249.5 118 244.5 119.8 243.4 164.3 269.1"/><polygon id="Fill-473" class="cls-83" points="164.3 269.1 162.4 270.1 118 244.5 119.8 243.4 164.3 269.1"/><polygon id="Fill-474" class="cls-84" points="164.3 269.1 164.3 274.1 162.4 275.2 162.4 270.1 164.3 269.1"/><polygon id="Fill-475" class="cls-85" points="164.3 278.2 162.4 284.3 118 258.7 118 253.7 119.8 252.6 164.3 278.2"/><polygon id="Fill-476" class="cls-86" points="164.3 278.2 162.4 279.3 118 253.7 119.8 252.6 164.3 278.2"/><polygon id="Fill-478" class="cls-87" points="165.8 380.4 161.4 382.9 157.1 380.4 157.1 246.4 165.8 246.4 165.8 380.4"/><polygon id="Fill-479" class="cls-88" points="161.4 382.9 157.1 380.4 157.1 246.4 161.4 248.9 161.4 382.9"/><polygon id="Fill-480" class="cls-89" points="165.8 246.4 161.4 248.9 157.1 246.4 161.4 243.9 165.8 246.4"/></g></g></g></svg>